<svg xmlns="http://www.w3.org/2000/svg" id="Calque_12" data-name="Calque 12" viewBox="0 0 396.85 396.85"><defs><pattern id="Nouveau_motif_3" width="89.43" height="96.66" x="0" y="0" data-name="Nouveau motif 3" patternTransform="matrix(0 .3 -.3 0 -6081.17 -2680.07)" patternUnits="userSpaceOnUse"><path d="M0 0h89.43v96.66H0z" style="stroke-width:0;fill:none"/><path d="M44.72 49.94v48.43M89.31 94.94v48.43M.12 94.82v48.43M44.72 49.94.12 94.82M44.72 62.1.12 106.98M44.72 49.94l44.59 44.88M44.72 62.06l44.59 44.88M44.72 74.16.12 119.03M44.72 74.28l44.59 44.88M44.72 86.16.12 131.03M44.72 86.16l44.59 44.87M44.72 1.61v48.44M89.31 46.61v48.43M.12 46.49v48.43M44.72 1.61.12 46.49M44.72 13.77.12 58.65M44.72 1.61l44.59 44.88M44.72 13.73l44.59 44.88M44.72 25.83.12 70.71M44.72 25.95l44.59 44.88M44.72 37.83.12 82.71M44.72 37.83l44.59 44.88M44.72 50.05.12 94.92M44.72 50.05l44.59 44.87M44.72-46.72V1.72M89.31-1.72v48.44M.12-1.84v48.43M44.72-34.55.12 10.32M44.72-34.59l44.59 44.87M44.72-22.5.12 22.38M44.72-22.38 89.31 22.5M44.72-10.5.12 34.38M44.72-10.5l44.59 44.88M44.72 1.72.12 46.59M44.72 1.72l44.59 44.87" class="cls-3"/></pattern><style>.cls-3,.cls-4,.cls-5,.cls-6,.cls-7{fill:none}.cls-8{letter-spacing:-.02em}.cls-10{fill:#333;font-family:Avenir-Medium,Avenir;font-weight:500}.cls-11,.cls-5{stroke:#000}.cls-11,.cls-5,.cls-7{stroke-miterlimit:10}.cls-13,.cls-14,.cls-3,.cls-4,.cls-6{stroke-linecap:round;stroke-linejoin:round}.cls-13,.cls-4,.cls-6,.cls-7{stroke:#333}.cls-13,.cls-14,.cls-6,.cls-7{stroke-width:.15px}.cls-13,.cls-14{fill:#fff}.cls-10{font-size:6.23px}.cls-3{stroke:#999}.cls-3,.cls-4,.cls-5{stroke-width:.25px}.cls-11{fill:#999;stroke-width:.5px}.cls-15{fill:#000;font-family:AvenirNext-UltraLight,&quot;Avenir Next&quot;;font-size:6px;font-weight:100}.cls-14{stroke:#666}</style></defs><path d="M247.8 174.31h-83.62l.41-116.56-31.22 10.37 2.87 8.9-29.58 9.54-2.43-7.26-36.59 12.15v111.97h122.79v8.51H67.64v119.62h79.78l-3.91-8.36 15.93-9.81 5.15 8.36v-81.89h8.5v6.09h59.92l20.59-.2v-33.18l-12.76-.63.42-8.51 94.26.01V90.04h-84.48l-.4 85.76h-2.84v-1.49" style="stroke-miterlimit:10;stroke-width:.25px;stroke:#666;fill:url(#Nouveau_motif_3)"/><path d="M250.79 89.94V66.21M335.26 89.94V66.21M250.79 66.21h36.69M298.57 66.21h36.69M251.83 64.99l-2.26 2.27.18.18 2.26-2.27-.18-.18M334.22 67.44l2.27-2.27-.18-.18-2.27 2.27.18.18" class="cls-7"/><text class="cls-10" transform="translate(287.22 68.34)"><tspan x="0" y="0">2.98</tspan></text><path d="M335.26 89.94h20.29M335.26 203.33h20.3M355.55 89.94v51.07M355.56 152.25v51.08M356.78 90.98l-2.27-2.27-.18.18 2.27 2.27.18-.18M354.33 202.28l2.27 2.27.18-.18-2.27-2.27-.18.18" class="cls-7"/><text class="cls-10" transform="rotate(-90 255.05 -102.61)"><tspan x="0" y="0">4.00</tspan></text><path d="m172.75 331.43-.01 26.74M253.34 331.45v26.74M172.74 358.17l34.75.01M218.73 358.18l34.61.01M173.79 356.95l-2.27 2.26.18.19 2.27-2.27-.18-.18M252.29 359.41l2.27-2.27-.18-.18-2.27 2.27.18.18" class="cls-7"/><text class="cls-10" transform="rotate(.01 -2064263.316 1187520.586)"><tspan x="0" y="0">2.84</tspan></text><path d="M261.85 211.83h21.3M261.85 329.41h21.3M283.15 211.83V265M283.15 276.08v53.33M284.37 212.87l-2.26-2.27-.19.18 2.27 2.27.18-.18M281.92 328.37l2.27 2.27.18-.18-2.26-2.27-.19.18" class="cls-7"/><text class="cls-10" transform="rotate(-90 280.72 -4.46)"><tspan x="0" y="0">4.15</tspan></text><path d="m164.33 332.55-.28 24.62M67.39 331.45l-.28 24.62M164.05 357.17l-42.92-.49M110.03 356.56l-42.92-.49M163 358.38l2.29-2.24-.18-.18-2.29 2.24.18.18M68.17 354.85l-2.3 2.25.18.18 2.29-2.24-.17-.19" class="cls-7"/><text style="font-size:6.23px;fill:#333;font-family:Avenir-Medium,Avenir;font-weight:500" transform="rotate(.65 -31563.231 9855.181)"><tspan x="0" y="0">3.42</tspan></text><path d="M67.39 91.35V36.33M164.33 91.35V36.33M67.39 36.33h42.92M121.41 36.33h42.92M68.43 35.11l-2.27 2.27.19.18 2.26-2.27-.18-.18M163.29 37.56l2.27-2.27-.18-.18-2.27 2.27.18.18" class="cls-7"/><text class="cls-10" transform="translate(110.05 38.46)"><tspan x="0" y="0">3.42</tspan></text><path d="M172.84 110.73V66.21M242.29 110.73V66.21M172.84 66.21h29.17M213.02 66.21h29.27M173.88 64.99l-2.27 2.27.18.18 2.27-2.27-.18-.18M241.24 67.44l2.27-2.27-.18-.18-2.27 2.27.18.18" class="cls-7"/><text class="cls-10" transform="translate(201.76 68.34)"><tspan x="0" y="0">2.45</tspan></text><path d="M59.28 203.32H40.25M59.28 91.35H40.25M40.25 203.32v-50.43M40.25 141.88V91.35M39.03 202.28l2.26 2.27.19-.18-2.27-2.27-.18.18M41.48 92.4l-2.27-2.27-.18.18 2.26 2.27.19-.18" class="cls-7"/><text class="cls-10" transform="rotate(-90 97.76 55.38)"><tspan x="0" y="0">3.95</tspan></text><path d="M59.28 331.45H40.25M59.28 211.83H40.25M40.25 331.45v-54.19M40.25 266.09v-54.26M39.03 330.41l2.26 2.26.19-.18-2.27-2.27-.18.19M41.48 212.87l-2.27-2.27-.18.18 2.26 2.27.19-.18" class="cls-7"/><text class="cls-10" transform="rotate(-90 159.91 117.53)"><tspan x="0" y="0">4.22</tspan></text><path d="M172.75 248.36h17.01v82.77h-17.01zM251.24 323.35c.48-1.88.39-3.52-.28-5.33M250.96 318.01c-.42-1.31-1.09-2.29-2.15-3.17M248.81 314.84a5.8 5.8 0 0 0-3.88-1.49M244.93 326.93c2.31 0 4.29-1.66 4.69-3.94M249.62 322.99c.41-1.56.34-2.92-.23-4.43M249.39 318.56c-.32-1.02-.84-1.78-1.67-2.46M247.73 316.1c-.15-.13-.3-.26-.47-.37M240.24 322.99c.4 2.28 2.38 3.94 4.69 3.94M240.47 318.56c-.57 1.51-.64 2.87-.23 4.43M242.14 316.1c-.83.68-1.34 1.44-1.67 2.46M242.6 315.73c-.16.11-.32.23-.47.37M238.62 323.35c.04.22.09.43.15.64" class="cls-14"/><path d="M172.75 248.36v17.01h17.01M172.75 265.37v17.01h17.01M172.75 282.38v17.01h17.01M172.75 299.39v17.01h17.01M244.93 324.26c.05 0 .1-.01.14-.03M244.1 322.97c-.17.13-.19.25-.08.43M244.02 323.4c.17.37.41.63.77.83M241.72 329.05h3.21M238.9 318.01c-.67 1.82-.76 3.46-.28 5.33M240.18 329.1l1.54-.05M240.28 329.1l-1.51-5.11M244.28 315.28h.65M244.28 315.28c-.62 0-1.15.14-1.68.46" class="cls-14"/><path d="M244.93 322.68a1.34 1.34 0 0 0 0 2.68" class="cls-14"/><path d="M244.79 324.23s.09.03.14.03M247.26 315.73a3.2 3.2 0 0 0-1.68-.46M245.85 323.4c.11-.18.09-.3-.08-.43M249.69 329.1l-1.54-.05M249.59 329.1l1.5-5.11M248.15 329.05h-3.22M241.05 314.84c-1.06.88-1.73 1.86-2.15 3.17M244.93 313.36c-1.43 0-2.82.53-3.88 1.49" class="cls-14"/><path d="M244.93 325.36a1.34 1.34 0 0 0 0-2.68" class="cls-14"/><path d="M245.08 324.23c.36-.2.6-.45.77-.83M245.58 315.28h-.65M235.94 329.1h16.52v2.03h-16.52zM167.01 119.13h17.56v52.34h-17.56zM213.96 160.71h19.82v10.76h-19.82z" class="cls-14"/><rect width="14.83" height="45.39" x="168.34" y="124.36" class="cls-14" rx="7.42" ry="7.42"/><path d="M308.31 87h1.57v2.83h-1.57zM308.31 88.42h-30.87M172.68 76.61v34.02M275.86 82.75h34.02M165.6 109.06V78.19M164.18 109.06h2.83v1.57h-2.83zM164.18 76.61h2.83v1.57h-2.83zM167.01 110.63V76.61M164.18 110.63V76.61M96.99 339.85h34.02M131.01 331.35H96.99M131.01 334.18H96.99M96.99 331.35h1.57v2.83h-1.57zM129.43 331.35H131v2.83h-1.57zM129.43 332.77H98.56M184.57 339.85h34.02M218.59 331.35h-34.02M218.59 334.18h-34.02M184.57 331.35h1.57v2.83h-1.57zM217.02 331.35h1.57v2.83h-1.57zM217.02 332.77h-30.87M191.82 110.63h34.01M225.83 119.13h-34.01M225.83 116.3h-34.01M191.82 116.3h1.57v2.83h-1.57zM224.26 116.3h1.57v2.83h-1.57zM224.26 117.72h-30.87M309.88 89.84h-34.02M309.88 87h-34.02M275.86 87h1.57v2.83h-1.57z" class="cls-6"/><path d="M200.39 331.35h1.57v2.83h-1.57zM113.22 331.35h1.57v2.83h-1.57zM208.04 116.3h1.57v2.83h-1.57zM292.09 87.05h1.57v2.83h-1.57zM164.19 92.05h2.83v1.57h-2.83z" class="cls-13"/><path d="M247.8 201.59h29.67M253.05 245.74v22.78M253.05 268.52c-13.64 0-20.45-7.59-20.45-22.77M184.96 173.56v-25.7M184.96 147.86c15.38 0 23.08 8.56 23.08 25.69M277.47 201.59c0-17.76-9.89-26.65-29.67-26.65M183.17 201.59H153.5M153.5 201.59c0-17.76 9.89-26.65 29.67-26.65M143.02 213c0 17.76 9.89 26.65 29.67 26.65M172.68 213h-29.66M232.02 213c0 17.76 9.89 26.65 29.67 26.65M261.69 213h-29.67" class="cls-4"/><path d="M309.88 82.75h33.73v128.98H240.43v-8.51h94.68V89.84h-25.23zM253.19 211.73h8.5V213h-8.5zM172.68 76.61h-8.5M250.64 119.13v56.67h-2.84v-1.49h-39.76v-2.84h39.76v-52.34zM183.17 175.69v-1.38M180.34 175.69v-1.38M183.17 175.69h-2.83M167.01 119.13v52.34h17.95v2.84h-20.78v-55.18zM96.99 331.35v8.5M170.7 86.15v-.23" class="cls-11"/><path d="M275.86 89.84h-25.22v29.29h-24.81v-8.5h16.3V82.75h33.73zM164.18 110.63h27.64v8.5h-27.64zM247.8 202.46h2.83v.77h-2.83z" class="cls-11"/><path d="M164.18 213h8.5v-1.27h17.35v-8.51H67.23V91.26l36.59-12.16 2.43 7.26 29.66-9.56-2.95-8.88 31.22-10.37v19.06h8.5V43.87L55.9 84.71v255.14h41.09v-8.5H67.23V211.73h96.95zM229.38 248.58h-.39v-2.84h3.61v2.84h-.39M172.68 245.74h29.72v2.83h-29.72zM253.05 248.58h.14v82.77h-34.6v8.5h43.1v-100.2h-8.5v81.78" class="cls-11"/><path d="M148.25 331.35h-17.24v8.5h53.56v-8.5h-11.89v-91.7h-8.5v81.89z" class="cls-11"/><text class="cls-15" transform="translate(78.6 128.9)"><tspan x="0" y="0">Chamb</tspan><tspan x="19.92" y="0" class="cls-8">r</tspan><tspan x="21.71" y="0">e n°1</tspan><tspan x="0" y="7.2">15m</tspan></text><text class="cls-15" transform="matrix(.58 0 0 .58 90.65 134.1)"><tspan x="0" y="0">2 </tspan></text><text class="cls-15" transform="translate(191.38 138.09)"><tspan x="0" y="0">Salle de bain </tspan><tspan x="0" y="7.2">5m</tspan></text><text class="cls-15" transform="matrix(.58 0 0 .58 200.07 143.3)"><tspan x="0" y="0">2 </tspan></text><text class="cls-15" transform="translate(180.28 287.1)"><tspan x="0" y="0">Cuisine</tspan><tspan x="0" y="7.2">6m</tspan></text><text class="cls-15" transform="matrix(.58 0 0 .58 188.98 292.3)"><tspan x="0" y="0">2</tspan></text><text class="cls-15" transform="translate(190.94 294.3)"><tspan x="0" y="0"> </tspan></text><text class="cls-15" transform="translate(234.48 287.1)"><tspan x="0" y="0">WC</tspan><tspan x="0" y="7.2">2m</tspan></text><text class="cls-15" transform="matrix(.58 0 0 .58 243.18 292.3)"><tspan x="0" y="0">2</tspan></text><text class="cls-15" transform="translate(281.1 136.73)"><tspan x="0" y="0">Chamb</tspan><tspan x="19.92" y="0" class="cls-8">r</tspan><tspan x="21.71" y="0">e n°2</tspan><tspan x="0" y="7.2">12m</tspan></text><text class="cls-15" transform="matrix(.58 0 0 .58 293.15 141.93)"><tspan x="0" y="0">2</tspan></text><text class="cls-15" transform="translate(295.11 143.93)"><tspan x="0" y="0"> </tspan></text><text class="cls-15" transform="translate(76.59 271.33)"><tspan x="0" y="0">Salon</tspan><tspan x="0" y="7.2">14m</tspan></text><text class="cls-15" transform="matrix(.58 0 0 .58 88.65 276.53)"><tspan x="0" y="0">2</tspan></text><text class="cls-15" transform="translate(90.6 278.53)"><tspan x="0" y="0"> </tspan></text><path d="M232.02 248.58v82.77h-2.64v-82.77" class="cls-11"/><circle cx="348.58" cy="348.56" r="9.92" class="cls-5"/><path d="m348.58 348.64 6.68 7.25" class="cls-5"/><path d="m341.81 341.31 6.77 7.33" style="fill:none;stroke-width:2px;stroke:#000;stroke-miterlimit:10"/></svg>