<svg xmlns="http://www.w3.org/2000/svg" id="Calque_12" data-name="Calque 12" viewBox="0 0 396.85 396.85"><defs><pattern id="Nouveau_motif_3" width="89.43" height="96.66" x="0" y="0" data-name="Nouveau motif 3" patternTransform="matrix(0 .3 -.3 0 -6708.82 -2685.91)" patternUnits="userSpaceOnUse"><path d="M0 0h89.43v96.66H0z" style="fill:none;stroke-width:0"/><path d="M44.72 49.94v48.43M89.31 94.94v48.43M.12 94.82v48.43M44.72 49.94.12 94.82M44.72 62.1.12 106.98M44.72 49.94l44.59 44.88M44.72 62.06l44.59 44.88M44.72 74.16.12 119.03M44.72 74.28l44.59 44.88M44.72 86.16.12 131.03M44.72 86.16l44.59 44.87M44.72 1.61v48.44M89.31 46.61v48.43M.12 46.49v48.43M44.72 1.61.12 46.49M44.72 13.77.12 58.65M44.72 1.61l44.59 44.88M44.72 13.73l44.59 44.88M44.72 25.83.12 70.71M44.72 25.95l44.59 44.88M44.72 37.83.12 82.71M44.72 37.83l44.59 44.88M44.72 50.05.12 94.92M44.72 50.05l44.59 44.87M44.72-46.72V1.72M89.31-1.72v48.44M.12-1.84v48.43M44.72-34.55.12 10.32M44.72-34.59l44.59 44.87M44.72-22.5.12 22.38M44.72-22.38 89.31 22.5M44.72-10.5.12 34.38M44.72-10.5l44.59 44.88M44.72 1.72.12 46.59M44.72 1.72l44.59 44.87" class="cls-5"/></pattern><style>.cls-10,.cls-11,.cls-2,.cls-4,.cls-5,.cls-6,.cls-7,.cls-8,.cls-9{fill:none}.cls-12{stroke-width:0}.cls-2{stroke-width:.05px}.cls-10,.cls-13,.cls-14,.cls-2,.cls-5,.cls-6,.cls-9{stroke-linecap:round;stroke-linejoin:round}.cls-2,.cls-5{stroke:#999}.cls-15{letter-spacing:-.02em}.cls-17{fill:#333;font-family:Avenir-Medium,Avenir;font-weight:500}.cls-11,.cls-19,.cls-4,.cls-7,.cls-8{stroke-miterlimit:10}.cls-19,.cls-8{stroke:#000}.cls-10,.cls-11,.cls-13,.cls-14,.cls-4,.cls-7,.cls-9{stroke-width:.15px}.cls-10,.cls-14,.cls-4,.cls-7{stroke:#666}.cls-11,.cls-13,.cls-6,.cls-9{stroke:#333}.cls-12,.cls-13,.cls-14{fill:#fff}.cls-17{font-size:6.23px}.cls-5,.cls-6,.cls-8{stroke-width:.25px}.cls-19{fill:#999;stroke-width:.5px}.cls-20{fill:#000;font-family:AvenirNext-UltraLight,&quot;Avenir Next&quot;;font-size:6px;font-weight:100}.cls-7{stroke-dasharray:0 0 3.16 3.16}.cls-10{stroke-dasharray:0 0 0 2.83}</style></defs><path d="M192.13 124.83h4.96v5.66h-4.95M191.42 119.2v-.04h5.67v5.67h-4.96M106.555 86.398l29.667-9.56 2.675 8.3-29.668 9.56zM225.43 124.83h5.67v5.67h-5.67zM225.43 119.16h5.67v5.67h-5.67z" class="cls-2"/><path d="M225.43 130.49h5.67v5.67h-5.67zM225.43 141.83h5.67v5.67h-5.67zM225.43 136.16h5.67v5.67h-5.67zM225.43 147.5h5.67v5.67h-5.67zM219.76 119.16h5.67v5.67h-5.67z" class="cls-2"/><path d="M214.1 119.16h5.67v5.67h-5.67zM208.43 119.16h5.67v5.67h-5.67zM202.76 119.16h5.67v5.67h-5.67zM197.09 119.16h5.67v5.67h-5.67zM219.76 124.83h5.67v5.67h-5.67z" class="cls-2"/><path d="M214.1 124.83h5.67v5.67h-5.67zM208.43 124.83h5.67v5.67h-5.67zM202.76 124.83h5.67v5.67h-5.67zM197.09 124.83h5.67v5.67h-5.67z" class="cls-2"/><path d="M219.76 130.49h5.67v5.67h-5.67z" class="cls-2"/><path d="M214.1 130.49h5.67v5.67h-5.67zM208.43 130.49h5.67v5.67h-5.67zM202.76 130.49h5.67v5.67h-5.67zM197.09 130.49h5.67v5.67h-5.67zM219.76 136.16h5.67v5.67h-5.67z" class="cls-2"/><path d="M214.1 136.16h5.67v5.67h-5.67zM208.43 136.16h5.67v5.67h-5.67zM202.76 136.16h5.67v5.67h-5.67zM197.09 136.16h5.67v5.67h-5.67zM219.76 141.83h5.67v5.67h-5.67z" class="cls-2"/><path d="M214.1 141.83h5.67v5.67h-5.67zM208.43 141.83h5.67v5.67h-5.67zM202.76 141.83h5.67v5.67h-5.67zM197.09 141.83h5.67v5.67h-5.67zM219.76 147.5h5.67v5.67h-5.67z" class="cls-2"/><path d="M214.1 147.5h5.67v5.67h-5.67zM208.43 147.5h5.67v5.67h-5.67zM202.76 147.5h5.67v5.67h-5.67zM197.09 147.5h5.67v5.67h-5.67zM225.43 153.17h5.67v5.67h-5.67zM219.76 153.17h5.67v5.67h-5.67z" class="cls-2"/><path d="M214.1 153.17h5.67v5.67h-5.67zM208.43 153.17h5.67v5.67h-5.67zM202.76 153.17h5.67v5.67h-5.67zM197.09 153.17h5.67v5.67h-5.67zM225.43 158.84h5.67v5.67h-5.67zM219.76 158.84h5.67v5.67h-5.67z" class="cls-2"/><path d="M214.1 158.84h5.67v5.67h-5.67zM208.43 158.84h5.67v5.67h-5.67zM202.76 158.84h5.67v5.67h-5.67zM197.09 158.84h5.67v5.67h-5.67zM225.43 164.51h5.67v5.67h-5.67zM219.76 164.51h5.67v5.67h-5.67z" class="cls-2"/><path d="M214.1 164.51h5.67v5.67h-5.67zM208.43 164.51h5.67v5.67h-5.67zM202.76 164.51h5.67v5.67h-5.67zM197.09 164.51h5.67v5.67h-5.67zM219.76 170.18h5.67v5.67h-5.67z" class="cls-2"/><path d="M214.1 170.18h5.67v5.67h-5.67zM208.43 170.18h5.67v5.67h-5.67zM202.76 170.18h5.67v5.67h-5.67zM197.09 170.18h5.67v5.67h-5.67zM191.42 170.18h5.67v5.67h-5.67zM185.75 170.18h5.67v5.67h-5.67zM180.08 170.18h5.67v5.67h-5.67zM174.41 170.18h5.67v5.67h-5.67zM168.74 170.18h5.67v5.67h-5.67z" class="cls-2"/><path d="m164.49 57.59-31.22 10.37 2.87 8.9-29.58 9.54-2.43-7.26-36.59 12.15v111.97h122.8v8.51H67.54v119.62h79.78l-3.91-8.36 15.93-9.81 5.15 8.36v-81.89h8.5v6.09h80.51V212.4l-12.76-.63.43-8.51 94.25.01V89.88h-84.47v85.96l-86.39.01z" style="stroke-miterlimit:10;fill:url(#Nouveau_motif_3);stroke-width:.15px;stroke:#666"/><path d="M199.37 254.29h13.31v-8.51h-10.07v2.84M193.11 330.82h2.56v-8.5h-2.56M193.11 322.32h2.56v-8.51h-2.56M193.11 288.3h2.56v-6.62M178.66 281.68v.95M143.429 323.008l15.929-9.815 5.146 8.352-15.93 9.814zM193.11 313.81h2.56v-8.5h-2.56M193.11 305.31h2.56v-8.5h-2.56M193.11 296.81h2.56v-8.51h-2.56" class="cls-2"/><path d="M195.67 281.68v6.62h17.01v-8.5h-13.31M199.37 279.8h13.31v-8.51h-13.31M199.37 271.29h13.31v-8.5h-13.31M199.37 262.79h13.31v-8.5h-13.31M246.69 297.67v7.64h6.81M229.69 297.67v7.64h17v-7.64M253.5 322.32h-6.81v8.5h6.81M253.5 313.81h-6.81v8.51h6.81M253.5 305.31h-6.81v8.5h6.81" class="cls-2"/><path d="M229.69 322.32h17.01v8.5h-17.01zM229.69 313.81h17.01v8.5h-17.01zM229.69 305.31h17.01v8.5h-17.01zM247.5 279.77v7.64h6.8M230.49 279.77v7.64h17.01v-7.64M253.5 288.3h-6.81v8.51h6.81" class="cls-2"/><path d="M229.69 288.3h17.01v8.5h-17.01zM247.5 263.65v7.64h6.8M230.49 263.65v7.64h17.01v-7.64M254.3 271.29h-6.8v8.51h6.8M230.49 271.29h17.01v8.5h-17.01zM247.5 246.65v7.64h6.8M230.49 245.78v8.51h17.01v-8.51M254.3 254.29h-6.8v8.5h6.8M230.49 254.29h17.01v8.5h-17.01zM212.68 322.32h17.01v8.5h-17.01zM195.67 322.32h17.01v8.5h-17.01zM212.68 313.81h17.01v8.5h-17.01zM195.67 313.81h17.01v8.5h-17.01zM212.68 305.31h17.01v8.5h-17.01zM195.67 305.31h17.01v8.5h-17.01zM212.68 296.81h17.01v8.5h-17.01zM195.67 296.81h17.01v8.5h-17.01zM212.68 288.3h17.01v8.5h-17.01zM195.67 288.3h17.01v8.5h-17.01zM212.68 279.8h17.01v8.5h-17.01zM212.68 271.29h17.01v8.5h-17.01zM212.68 262.79h17.01v8.5h-17.01zM212.68 254.29h17.01v8.5h-17.01zM212.68 245.78h17.01v8.5h-17.01zM248.11 170.18v5.67h-5.67v-1.5M231.1 171.51v-1.33M242.44 174.35v1.5h-5.67v-1.5M236.77 174.35v1.5h-5.67v-1.5M231.1 174.35v1.5h-5.67v-5.67h5.67v1.33M164.56 170.18v5.67M164.56 170.18h4.18v5.67h-4.18M192.18 158.84h4.91v5.67h-4.9M192.19 164.51h4.9v5.67h-5.67M192.17 147.5h4.92v5.67h-4.91M192.18 153.17h4.91v5.67h-4.91M192.14 130.49h4.95v5.67h-4.94M192.15 136.16h4.94v5.67h-4.93M192.16 141.83h4.93v5.67h-4.92" class="cls-2"/><path d="M250.95 89.98V66.25M335.42 89.98V66.25M250.95 66.25h36.69M298.73 66.25h36.69M251.99 65.03l-2.27 2.27.18.18 2.27-2.27-.18-.18M334.38 67.48l2.27-2.27-.19-.18-2.26 2.27.18.18" class="cls-11"/><text class="cls-17" transform="translate(287.38 68.38)"><tspan x="0" y="0">2.98</tspan></text><path d="m172.91 331.47-.01 26.74M253.5 331.49l-.01 26.74M172.9 358.21l34.75.01M218.89 358.22l34.6.01M173.95 356.99l-2.27 2.26.18.18 2.27-2.26-.18-.18M252.45 359.45l2.27-2.27-.18-.18-2.27 2.27.18.18" class="cls-11"/><text class="cls-17" transform="rotate(.01 -2064492.419 1188437.338)"><tspan x="0" y="0">2.84</tspan></text><path d="M262 211.87h21.31M262 329.45h21.31M283.31 211.87v53.17M283.31 276.11v53.34M284.53 212.91l-2.27-2.27-.18.18 2.27 2.27.18-.18M282.08 328.41l2.27 2.27.18-.18-2.27-2.27-.18.18" class="cls-11"/><text class="cls-17" transform="rotate(-90 280.82 -4.52)"><tspan x="0" y="0">4.15</tspan></text><path d="m164.49 332.59-.28 24.62M67.55 331.49l-.28 24.62M164.21 357.21l-42.92-.49M110.19 356.59l-42.92-.48M163.15 358.42l2.3-2.24-.18-.18-2.3 2.24.18.18M68.32 354.89l-2.29 2.25.18.18 2.29-2.24-.18-.19" class="cls-11"/><text style="font-size:6.23px;fill:#333;font-family:Avenir-Medium,Avenir;font-weight:500" transform="rotate(.65 -31566.677 9869.305)"><tspan x="0" y="0">3.42</tspan></text><path d="M67.55 91.39V36.37M164.49 91.39V36.37M67.55 36.37h42.92M121.57 36.37h42.92M68.59 35.15l-2.27 2.26.18.19 2.27-2.27-.18-.18M163.45 37.6l2.27-2.27-.19-.18-2.26 2.26.18.19" class="cls-11"/><text class="cls-17" transform="translate(110.21 38.5)"><tspan x="0" y="0">3.42</tspan></text><path d="M173 110.77V66.25M242.44 110.77V66.25M173 66.25h29.17M213.17 66.25h29.27M174.04 65.03l-2.27 2.27.18.18 2.27-2.27-.18-.18M241.4 67.48l2.27-2.27-.18-.18-2.27 2.27.18.18" class="cls-11"/><text class="cls-17" transform="translate(201.91 68.38)"><tspan x="0" y="0">2.45</tspan></text><path d="M59.44 203.36H40.41M59.44 91.39H40.41M40.41 203.36v-50.43M40.41 141.92V91.39M39.18 202.32l2.27 2.27.18-.19-2.26-2.26-.19.18M41.63 92.44l-2.26-2.27-.19.18 2.27 2.27.18-.18" class="cls-11"/><text class="cls-17" transform="rotate(-90 97.855 55.325)"><tspan x="0" y="0">3.95</tspan></text><path d="M59.44 331.49H40.41M59.44 211.87H40.41M40.41 331.49V277.3M40.41 266.13v-54.26M39.18 330.44l2.27 2.27.18-.18-2.26-2.27-.19.18M41.63 212.91l-2.26-2.27-.19.18 2.27 2.27.18-.18" class="cls-11"/><text class="cls-17" transform="rotate(-90 160.005 117.475)"><tspan x="0" y="0">4.22</tspan></text><path d="M335.42 89.98h20.29M335.42 203.37h20.29M355.71 89.98v51.07M355.71 152.29v51.08M356.94 91.02l-2.27-2.27-.18.18 2.26 2.27.19-.18M354.49 202.32l2.27 2.27.18-.18-2.27-2.27-.18.18" class="cls-11"/><text class="cls-17" transform="rotate(-90 255.15 -102.67)"><tspan x="0" y="0">4.00</tspan></text><path d="M156.02 154.85h8.47v16.03h-8.47zM157.55 137.88h6.94v16.03h-6.94z" class="cls-14"/><path d="m156.214 121.09 8.411-.809 1.536 15.977-8.412.808zM287.24 180.64h48.18v22.62h-48.18zM79.09 182.07h62.64v21.19H79.09z" class="cls-12"/><path d="M137.95 183.4h6.76v14.57h-6.76zM76.27 183.4h5.74v14.57h-5.74zM123.808 123.797l15.85 9.77-10.804 17.529-15.85-9.77z" class="cls-12"/><path d="m118.607 126.808 5.542 3.416-7.62 12.36-5.54-3.416zM134.113 136.255l5.542 3.416-7.62 12.36-5.54-3.415zM70.66 211.77h57.49v17.01H70.66z" class="cls-12"/><rect width="9.73" height="12.07" x="263.8" y="134.93" class="cls-12" rx="3.4" ry="3.4" transform="rotate(10.55 268.617 140.907)"/><path d="M172.91 282.63h20.2v48.74h-20.2zM250.95 126.16h14.57v27.24h-14.57zM81.33 183.4h-4.17M198.69 248.62h.68v19.98h-.68zM231.1 154.25h17.01v17.26H231.1zM231.1 136.62h17.01v17.63H231.1z" class="cls-14"/><path d="M236.77 119.17h11.34v35.08h-11.34z" class="cls-14"/><path d="M231.1 119.17h17.01v17.45H231.1zM164.56 170.16l27.64.04-.07-51-27.64-.04z" class="cls-14"/><path d="M176.98 125.09v9.68c0 .31.35.51.58.61.28.11.57.15.87.15h10.54c.3 0 .58-.04.87-.15.23-.09.58-.29.58-.61v-13.95c0-.31-.35-.51-.58-.61-.28-.11-.57-.15-.87-.15h-10.54c-.3 0-.58.04-.87.15-.23.09-.58.29-.58.61v3.61" class="cls-14"/><path d="M176.5 128.1h2.28v-.8h-2.31" class="cls-14"/><path d="M175.34 128.21c.28.3.75.31 1.04.03a.74.74 0 0 0 .03-1.04.73.73 0 0 0-1.04-.03.73.73 0 0 0-.03 1.04" class="cls-14"/><path d="M175.12 136.18h17.01v17.01h-17.01zM175.12 153.19h17.01v17.01h-17.01z" class="cls-10"/><path d="M183.26 126.9c-.4 0-.73.33-.73.73s.33.73.73.73.73-.33.73-.73-.33-.73-.73-.73" class="cls-14"/><path d="M183.26 127.07a.56.56 0 1 0 0 1.12.56.56 0 1 0 0-1.12M159.16 139.48v12.82M157.55 137.88v16.03M159.16 139.48h5.33M157.55 137.88h6.94M159.16 152.3h5.33M157.55 153.91h6.94M158.01 122.57l6.48-.72M158.02 137.09l6.47-.73M159.44 135.32l5.05-.57M156.24 121.16l7.31-.82M163.55 120.34l.18 1.59M158.01 122.57l1.43 12.75M156.24 121.16l1.78 15.93M184.02 286.47c2.61 0 4.57 2.21 4.57 4.75s-1.97 4.75-4.57 4.75-4.57-2.21-4.57-4.75 1.97-4.75 4.57-4.75M177 291.77a.97.97 0 1 0-.002-1.942.97.97 0 0 0 .002 1.942" class="cls-14"/><path d="M177.85 290.57h1.61v.59h-1.61zM172.91 248.62h26.46v33.07h-26.46z" class="cls-14"/><path d="M176.1 310.53h17.01v17.01H176.1z" class="cls-10"/><path d="m89.66 142.56 4.21 7.39 7.39-4.21-2.8-4.93-1.41-2.46zM71.2 108.28a4.44 4.44 0 0 0 .5 5.66M75.75 106.47c-.95-.2-1.77-.12-2.67.27M75.09 115.24c.4-.02.77-.09 1.15-.22M78.58 113.21l.21-.36M79.27 110.46c-.08-1.09-.45-1.9-1.2-2.7" class="cls-14"/><path d="M73.75 112.32c-.15 0-.31-.05-.46-.13-.33-.16-.67-.47-1.01-.78-.35-.32-.7-.64-.91-1.1-.2-.46-.25-1.07-.21-1.62s.16-1.06.22-1.46.06-.7.21-1.06c.15-.37.45-.81 1.1 0 .62.77 1.55 2.67 1.92 3.93" class="cls-14"/><path d="M74.83 109.51c-.31.87-.68 1.56-.89 2.14s-.27 1.05-.25 1.29.12.26.46.18.94-.25 1.5-.68 1.1-1.12 1.54-2 .81-1.94.89-2.85-.11-1.65-.48-2.01-.89-.31-1.24-.08-.53.62-.74 1.35c-.22.73-.48 1.79-.8 2.66Z" class="cls-14"/><path d="m74.09 111.29-.04-.02c-.6-.3-1.39-.3-1.79.17s-.4 1.42-.51 2.22c-.12.79-.35 1.43-.42 1.96s.03.94.29 1 .7-.26 1.28-.42c.59-.16 1.34-.18 1.73-.38.4-.2.44-.59.57-1.02s.34-.91.4-1.25c.06-.33-.02-.53-.25-.91M77.18 110.48c.39.04.91.13 1.42.1.89-.06 1.76-.49 2.47-.83s1.27-.6 1.76-.67c.49-.06.9.06 1.08.43s.13.98-.06 1.49c-.19.5-.51.9-.97 1.22s-1.06.58-1.48.7-.66.09-1.05.07c-.39-.03-.94-.06-1.39-.11s-.82-.12-1.1-.2c-.28-.09-.48-.19-.79-.64-.13-.19-.29-.45-.4-.7M75.84 112.2c-.4.06-.08.73.11 1.16s.24.63.28 1.38c.04.74.06 2.04.21 2.99s.43 1.56.84 1.85.95.24 1.41.22.87-.01 1.28-.1.82-.28 1.04-.52c.21-.24.22-.52.22-.84s-.02-.66-.22-1.16-.59-1.14-.83-1.76c-.25-.62-.35-1.23-.6-1.58s-.65-.46-1.42-.79-1.9-.89-2.3-.84ZM73.084 252.2l.02-1.93 1.27.014-.02 1.93z" class="cls-14"/><path d="M67.54 244.35v8.51h8.51v-8.51zM73.086 314.148l.02-1.93 1.269.013-.019 1.93zM71.8 311.36c1-.27 1.6-1.3 1.34-2.3-.27-1.01-1.3-1.6-2.3-1.34-1 .27-1.6 1.3-1.34 2.3.27 1 1.3 1.6 2.3 1.33Z" class="cls-14"/><path d="M67.54 306.27v8.5h8.51v-8.5zM67.54 255.42h53.75v45.35H67.54zM87.75 255.42v45.35" class="cls-14"/><path d="M69.44 275.78c-.04-.94.14-2.79.21-4.31s.03-2.71.04-3.66.05-1.67.12-2.23.14-.96.13-1.37c0-.41-.1-.84-.23-1.21s-.28-.69-.39-.97-.17-.52-.22-.8c-.04-.27-.06-.58-.07-.8 0-.23.01-.37.09-.47.08-.09.22-.13.35-.13.14 0 .27.01.5.06s.56.13.82.21.45.15.7.24.56.19.84.27.53.14.9.13.83-.07 1.65-.05c.82.03 1.98.15 2.71.24.73.08 1.02.13 1.27.16s.47.04.67-.01.38-.17.78-.24c.4-.08 1.01-.12 1.36-.2.35-.09.45-.22.63-.36.17-.14.42-.29.59-.47s.25-.38.42-.5.43-.17.56-.1.14.24.15.41c.02.17.04.35.01.75s-.11 1.04-.18 1.56c-.08.52-.15.92-.22 1.28s-.12.69-.19 1.22-.16 1.28-.21 1.83c-.04.55-.04.91-.01 1.44.03.54.09 1.25.22 1.84.13.58.33 1.03.37 1.48.04.44-.09.88-.16 1.41s-.1 1.15-.11 1.6-.01.73-.02 1.22-.01 1.17-.17 1.46c-.16.3-.47.2-.68.09s-.32-.25-.48-.44c-.16-.2-.38-.45-.63-.61-.25-.15-.52-.2-.81-.22-.29-.03-.6-.04-.92-.05-.33-.02-.67-.04-.97-.06-.3-.01-.57-.02-.81-.05-.24-.04-.47-.1-.73-.1s-.57.05-.82 0-.44-.19-.77-.16-.8.23-1.18.42-.67.35-.99.38-.65-.07-.96-.14-.58-.11-.82-.05-.46.23-.67.39c-.21.17-.42.33-.6.45s-.33.18-.53.19c-.21.02-.48 0-.52-.95Z" class="cls-14"/><path d="M71.24 266.93c.89-1.02 1.62-.81 2.1-.59M82.55 271.35c-.51.83-1.02.43-1.83.54M79.98 262.43c.41.21.65.42.88.54.23.11.46.13.89-.04M71.24 287.97c.89-1.02 1.62-.81 2.1-.59M82.55 292.38c-.51.84-1.02.43-1.83.54M79.97 283.46c.41.21.65.42.88.54.23.11.46.13.89-.04" class="cls-14"/><path d="M69.81 296.73c.15-.94.71-2.79.97-4.31s.22-2.71.04-3.66-.51-1.67-.64-2.23-.05-.96-.06-1.37c0-.41-.1-.84-.23-1.21s-.28-.69-.39-.97-.17-.52-.22-.8c-.04-.27-.06-.58-.06-.8 0-.23.01-.37.09-.47.08-.09.22-.13.35-.13s.27.01.5.06.56.13.82.21.45.15.7.24.56.19.84.27.53.14.9.38c.36.24.83.66 1.65.68.82.03 1.98-.34 2.71-.5s1.02-.11 1.27-.09c.25.03.47.04.67-.01s.38-.17.78-.24c.4-.08 1.01-.12 1.36-.2.36-.09.45-.22.63-.36.17-.14.42-.29.59-.47s.25-.38.42-.5.43-.17.56-.1c.13.06.14.24.15.41s.04.35.01.75-.11 1.04-.18 1.56c-.08.52-.15.92-.36 1.28s-.55.69-.71 1.22c-.15.53-.12 1.28-.02 1.83s.26.91.38 1.45c.11.54.17 1.25.3 1.83s.33 1.04.37 1.48-.09.88-.16 1.41-.1 1.15-.11 1.6-.01.73-.02 1.22-.02 1.17-.17 1.46c-.16.3-.47.2-.68.09s-.32-.25-.48-.44c-.16-.2-.38-.45-.63-.71-.25-.25-.52-.5-.81-.61s-.6-.1-.92-.11c-.33 0-.67-.03-.97-.04s-.57-.02-.81.03-.47.16-.73.25c-.27.08-.57.14-.82.09s-.44-.19-.77-.16-.8.23-1.18.32-.67.06-.99 0-.65-.16-.96-.23-.58-.11-.82.05-.46.51-.67.77-.42.43-.6.55-.33.18-.53.19c-.21.02-.48 0-.33-.95ZM81.21 255.42v5.27M81.21 275.58v6.09M81.21 296.12v4.65M70.66 220.05h57.5M72.09 224.6l-.19-9.1M71.87 214.08c-.1 0-.13.28-.14.33-.02.13-.02.25-.02.38s.01.25.03.38c0 .06.05.33.15.33s.13-.28.14-.33c.02-.13.02-.25.02-.38s-.01-.25-.03-.38c0-.06-.05-.33-.15-.33M72.09 224.6c-.1 0-.13.28-.14.33-.02.13-.02.25-.02.38s.01.25.03.38c0 .06.05.33.15.33s.13-.28.14-.33c.02-.13.02-.25.02-.38s-.01-.25-.03-.38c0-.06-.05-.33-.15-.33M98.41 224.6c-.13-.02-.23.2-.26.28-.05.12-.09.25-.11.39-.02.13-.04.27-.03.4 0 .08.01.33.14.35s.23-.2.26-.28c.05-.13.09-.25.11-.39.02-.13.04-.27.03-.4 0-.08-.01-.33-.14-.35M106.53 224.6l-1.56-9.1M111.04 224.6l1.01-9.1M100.11 215.5l-1.7 9.1M101.41 215.5l-1.26 9.1M112.2 214.08c-.11-.01-.18.24-.2.31-.04.12-.06.25-.07.38s-.02.26-.01.39c0 .07.02.33.13.34s.18-.24.2-.31c.04-.12.06-.25.07-.38s.02-.26.01-.39c0-.07-.02-.33-.13-.34M100.37 214.08c-.12-.02-.22.21-.25.28-.05.12-.09.25-.11.38s-.04.26-.04.4c0 .08 0 .33.13.35.12.02.22-.21.25-.28.05-.12.09-.25.11-.38s.04-.26.04-.4c0-.08 0-.33-.13-.35M101.6 214.08c-.11-.02-.19.24-.21.3-.04.12-.07.25-.08.38-.02.13-.03.26-.02.39 0 .07 0 .33.12.35.11.02.19-.24.21-.3.04-.12.07-.25.08-.38.02-.13.03-.26.02-.39 0-.07 0-.33-.12-.35M104.72 214.08c-.11.02-.12.28-.12.35q0 .195.03.39c.02.13.05.26.1.38.02.07.11.31.23.29.11-.02.12-.28.12-.35q0-.195-.03-.39c-.02-.13-.05-.26-.1-.38-.03-.07-.11-.31-.23-.29M106.53 224.6c-.11.02-.12.28-.12.35q0 .195.03.39c.03.195.05.26.1.38.03.07.11.31.23.29.11-.02.12-.28.12-.35q0-.195-.03-.39c-.02-.13-.05-.26-.1-.38-.03-.07-.11-.31-.23-.29M110.89 226.02v-.01M112.38 224.6c-.12-.04-.24.2-.28.27-.07.12-.11.25-.15.38s-.07.26-.08.4c0 .08-.03.34.09.37.12.04.24-.19.28-.26.06-.12.11-.25.15-.38s.07-.26.08-.4c0-.08.03-.34-.09-.37ZM111.06 224.6c-.11-.01-.18.24-.2.31-.04.12-.06.25-.07.38s-.02.26-.01.39c0 .07.02.33.13.34s.18-.24.2-.31c.04-.12.06-.25.07-.38s.02-.26.01-.39c0-.07-.02-.33-.13-.34M100.15 224.6c-.13-.02-.22.21-.25.29-.05.13-.08.25-.1.39-.02.13-.03.26-.01.4 0 .08.03.33.16.34.13.02.22-.21.25-.29.05-.13.08-.26.1-.39s.03-.26.01-.4c0-.08-.03-.33-.16-.34M93.64 215.5l.56 9.1M88.61 215.5l1 9.1M91.66 215.5v9.1M84.07 215.5l-3.32 9.1M80.28 215.5l-2.31 9.1M76.32 224.6l1.04-9.1M81.79 215.5l-2.7 9.1M75.23 224.6l-.63-9.1M85.74 215.5l-3.2 9.1M93.55 214.08c-.12 0-.15.26-.16.33-.02.13-.02.26-.01.39 0 .13.03.26.06.38.02.07.08.32.2.31s.15-.26.16-.33c.02-.13.02-.26.01-.39 0-.13-.03-.26-.06-.38-.02-.07-.08-.32-.2-.31M91.66 214.08c-.12 0-.17.25-.18.32-.03.13-.03.26-.03.39s0 .26.04.39c.01.07.06.32.18.32s.17-.25.18-.32c.03-.13.04-.26.04-.39s0-.26-.04-.39c-.01-.07-.06-.32-.18-.32ZM82.21 214.08c-.08-.03-.2.26-.22.3-.05.12-.09.24-.13.37-.04.12-.07.25-.09.38 0 .05-.06.35.02.37.08.03.2-.26.22-.3.05-.12.09-.24.13-.37.04-.12.07-.25.09-.38 0-.05.06-.35-.02-.37M88.45 214.08c-.12.01-.14.27-.14.34-.01.13 0 .26 0 .39.01.13.04.26.08.38.02.07.1.31.21.3s.14-.27.14-.34c.01-.13 0-.26 0-.39-.01-.13-.04-.26-.08-.38-.02-.07-.1-.31-.21-.3M84.59 214.08c-.09-.03-.23.24-.25.29-.06.12-.11.24-.16.37s-.08.25-.11.38c-.01.05-.08.35 0 .38s.23-.24.25-.29c.06-.12.11-.24.16-.37s.08-.25.11-.38c.01-.05.08-.35 0-.38M86.23 214.08c-.08-.03-.21.26-.23.3q-.09.18-.15.36c-.04.12-.08.25-.11.38 0 .04-.08.35 0 .38s.21-.26.23-.3q.09-.18.15-.36c.04-.12.08-.25.11-.38.01-.04.08-.35 0-.38M74.5 214.08c-.08 0-.09.3-.09.35v.37c0 .12.02.25.05.37 0 .04.06.34.14.33s.09-.3.09-.35v-.37c0-.12-.02-.25-.05-.37 0-.04-.06-.34-.14-.33M77.52 214.08c-.1-.01-.16.26-.18.32-.03.12-.05.25-.07.37-.01.13-.02.25-.02.38 0 .05 0 .34.1.35s.16-.26.18-.32c.03-.12.05-.25.07-.37.01-.13.02-.25.02-.38 0-.05 0-.34-.1-.35M80.65 214.08c-.09-.02-.2.25-.22.3-.05.12-.09.24-.12.37s-.06.25-.07.38c0 .05-.04.34.05.37.09.02.2-.25.22-.3.05-.12.09-.24.12-.37s.06-.25.07-.38c0-.05.04-.34-.05-.37M89.61 224.6c-.13.01-.16.26-.16.34-.01.13-.01.26 0 .4.01.13.04.26.08.39.03.08.11.31.23.29.13-.01.16-.26.17-.34.01-.13.01-.26 0-.4-.01-.13-.04-.26-.08-.39-.03-.08-.11-.31-.23-.29ZM91.66 224.6c-.13 0-.18.23-.2.32-.03.13-.04.26-.04.39s.01.26.04.39c.02.08.07.31.2.31s.18-.23.2-.31c.03-.13.04-.26.04-.39s-.01-.26-.04-.39c-.02-.08-.07-.31-.2-.31ZM94.2 224.6c-.13 0-.17.25-.18.33-.02.13-.02.26-.02.4 0 .13.03.26.07.39.02.08.09.31.22.3.13 0 .17-.24.18-.33.02-.13.02-.26.02-.4 0-.13-.03-.26-.07-.39-.02-.08-.09-.31-.22-.3M82.54 224.6c-.08-.03-.21.26-.23.3q-.09.18-.15.36c-.06.18-.08.25-.11.38 0 .04-.08.35 0 .38s.21-.26.23-.3q.09-.18.15-.36c.04-.12.08-.25.11-.38 0-.04.08-.35 0-.38M75.22 224.6c-.08 0-.09.3-.09.35v.37c0 .12.02.25.05.37 0 .04.06.34.14.33.08 0 .09-.3.09-.35v-.37c0-.12-.02-.25-.05-.37 0-.04-.06-.34-.14-.33M80.75 224.6c-.09-.03-.23.24-.25.29-.06.12-.11.24-.16.37s-.08.25-.11.38c-.01.05-.08.35 0 .38.09.03.23-.24.25-.29.06-.12.11-.24.16-.37s.08-.25.11-.38c.01-.05.08-.35 0-.38M79.09 224.6c-.08-.02-.2.26-.22.3-.05.12-.09.24-.13.37-.04.12-.07.25-.09.38 0 .05-.06.35.02.37.08.03.2-.26.22-.3.05-.12.09-.24.13-.37s.07-.25.09-.38c0-.05.06-.35-.02-.37M77.97 224.6c-.09-.02-.2.25-.22.3-.05.12-.09.24-.12.37s-.06.25-.07.38c0 .05-.04.34.05.37.09.02.2-.25.22-.3.05-.12.09-.24.12-.37s.06-.25.07-.38c0-.05.04-.34-.05-.37M76.33 224.6c-.1-.01-.16.26-.18.32-.03.12-.05.25-.07.37-.01.13-.02.25-.02.38 0 .06 0 .34.1.35s.16-.26.18-.32c.03-.12.05-.25.07-.37.01-.13.02-.25.02-.38 0-.05 0-.34-.1-.35M123.92 224.6l1.88-9.1M126.15 224.6l.87-9.1M122.31 224.6l1.07-9.1M115.49 214.08c-.12-.04-.24.19-.28.26-.06.12-.11.25-.15.38s-.07.26-.08.4c0 .08-.03.34.09.37.12.04.24-.19.28-.26.07-.12.11-.25.15-.38s.07-.26.08-.4c0-.08.03-.34-.09-.37M126.09 214.08c-.11-.02-.21.23-.23.29-.05.12-.08.25-.11.38s-.04.26-.05.39c0 .07-.01.34.1.36s.21-.23.23-.29c.05-.12.08-.25.11-.38s.04-.26.05-.39c0-.07.01-.34-.1-.36M127.16 214.08c-.12-.01-.2.23-.22.3-.04.13-.06.25-.07.39q-.015.195 0 .39c0 .08.04.33.16.34s.2-.23.22-.3c.04-.13.06-.25.07-.39.01-.13.02-.26 0-.39 0-.08-.04-.33-.16-.34M123.54 214.08c-.13-.01-.21.21-.24.29q-.06.195-.09.39c-.02.13-.02.26 0 .4 0 .08.04.32.16.34.13.01.21-.21.24-.29q.06-.195.09-.39c.02-.13.02-.26 0-.4 0-.08-.04-.32-.16-.34M123.92 224.6c-.11-.02-.21.23-.23.29-.05.12-.08.25-.11.38s-.04.26-.05.39c0 .07-.01.34.1.36s.21-.23.23-.29c.05-.12.08-.25.11-.38s.04-.26.05-.39c0-.07.01-.34-.1-.36M126.15 224.6c-.12-.01-.2.23-.22.3-.04.13-.06.25-.07.39q-.015.195 0 .39c0 .08.04.33.16.34s.2-.23.22-.3c.04-.13.06-.25.07-.39.01-.13.02-.26 0-.39 0-.08-.04-.33-.16-.34M122.33 224.6c-.13-.01-.21.21-.24.29q-.06.195-.09.39c-.02.13-.02.26 0 .4 0 .08.04.32.16.34.13.02.21-.21.24-.29q.06-.195.09-.39c.02-.13.02-.26 0-.4 0-.08-.04-.32-.16-.34M122.15 226.02v-.01M112.38 224.6l2.69-9.1M70.66 211.77h57.5M70.66 228.77v-17M128.16 228.77h-57.5M128.16 211.77v17M254.054 145.57l1.922-4.354 6.038 2.665-1.922 4.355zM250.55 324.24c.06-.21.11-.42.15-.64M250.7 323.6c.48-1.88.39-3.52-.28-5.33M250.42 318.27c-.43-1.31-1.09-2.29-2.15-3.17M248.27 315.1a5.8 5.8 0 0 0-3.88-1.49M244.39 327.19c2.31 0 4.29-1.66 4.69-3.94M249.08 323.25c.41-1.56.34-2.92-.23-4.43M248.85 318.81c-.32-1.02-.84-1.78-1.67-2.46M247.18 316.35c-.15-.13-.3-.26-.47-.37M239.7 323.25c.4 2.28 2.38 3.94 4.69 3.94M239.93 318.81c-.57 1.51-.64 2.87-.23 4.43M241.6 316.35c-.83.68-1.34 1.44-1.67 2.46" class="cls-14"/><path d="M242.06 315.99c-.16.11-.32.23-.47.37M238.08 323.6c.04.22.09.43.15.64M238.36 318.27c-.67 1.82-.76 3.46-.28 5.33" class="cls-14"/><path d="M240.51 315.1c-1.06.88-1.73 1.86-2.15 3.17M244.39 313.61c-1.43 0-2.82.53-3.88 1.49M243.74 315.53h.65M243.74 315.53c-.62 0-1.15.14-1.68.46M244.39 322.93a1.34 1.34 0 0 0 0 2.68" class="cls-14"/><path d="M244.24 324.48s.09.03.14.03M244.39 324.52c.05 0 .1-.01.14-.03M243.56 323.22c-.17.13-.19.25-.08.44" class="cls-14"/><path d="M243.48 323.66c.17.37.41.63.77.83M241.17 329.3h3.22M239.63 329.36l1.54-.06M239.73 329.35l-1.5-5.11M246.72 315.99a3.2 3.2 0 0 0-1.68-.46M245.3 323.66c.11-.18.09-.3-.08-.44M249.14 329.36l-1.53-.06M249.04 329.35l1.51-5.11M247.61 329.3h-3.22" class="cls-14"/><path d="M244.39 325.62a1.34 1.34 0 0 0 0-2.68" class="cls-14"/><path d="M244.53 324.48c.36-.2.6-.45.77-.83M245.04 315.53h-.65M236.19 329.35h16.52v2.03h-16.52zM156.02 154.85h7.36M163.38 154.85v1.61M163.38 169.28v1.61M156.02 170.89h7.36M157.62 156.46v12.82M156.02 154.85v16.04M157.62 156.46h6.87M157.62 169.28h6.87M106.56 86.4 67.54 99.45M136.22 76.84l28.27-9.39M67.45 124.15h14.27v37.79H67.45zM333.23 200.35v-18.98M289.43 181.37v18.98M333.23 200.35h-43.8M333.23 181.37v-.73M333.23 181.37h2.19M335.42 181.37v21.9M289.43 180.64v.73M287.24 181.37h2.19M287.24 203.27v-21.9M333.23 180.64h-43.8M335.42 203.27h-48.18M151.85 251.25h12.54v50.05h-12.54zM250.95 89.88h24.82v10.4h-24.82zM172.91 248.62h26.46v34.02h-26.46z" class="cls-14"/><path d="M181.45 248.57h9.38v1.32h-9.38zM177.63 256.34l-.87 9.13M180.5 253.86l9.16.48M178.85 254.86l8.92 10.33M177.48 253.72c.34-.44.25-1.08-.19-1.42s-1.08-.25-1.42.19-.25 1.08.19 1.42 1.08.25 1.42-.19M100.08 182.07H80.14M80.14 203.26h19.94M79.25 199.29h20.83M120.91 203.26v-21.19M120.91 203.26v-21.19M100.08 203.26v-21.19M100.08 203.26v-21.19M138.76 184.19v12.98M144.71 184.19v12.98M120.91 182.07h19.93M120.91 182.07h-20.83M141.74 182.87c0-.48-.45-.79-.89-.79M139.65 183.4c-.45 0-.89.31-.89.8M141.74 182.87v.53M144.71 184.19c0-.48-.45-.8-.89-.8M139.65 183.4h4.17M140.84 203.26h-19.93M141.74 199.29h-20.83M100.08 203.26h20.83M99.18 199.29h21.73M140.84 203.26c.45 0 .89-.31.89-.79M138.76 197.17c0 .48.45.79.89.79M143.82 197.97c.45 0 .89-.31.89-.79M143.82 197.97h-4.17M141.74 197.97v4.5M76.27 184.19v12.98M82.22 184.19v12.98M80.14 182.07c-.45 0-.89.31-.89.79M82.22 184.19c0-.48-.45-.8-.89-.8M79.25 182.87v.53M77.16 183.4c-.45 0-.89.31-.89.8M79.25 202.47c0 .48.45.79.89.79M77.16 197.97h4.17M76.27 197.17c0 .48.45.79.89.79M81.33 197.97c.45 0 .89-.31.89-.79M79.25 197.97v4.5M115.36 175.75c5.99-2.83 8.56-9.98 5.73-15.98-2.83-5.99-9.99-8.56-15.98-5.73s-8.56 9.98-5.73 15.98c2.83 5.99 9.99 8.56 15.98 5.73M172.99 239.69h29.66v6.1h-29.66zM328.45 109.66h6.94v48.18h-6.94zM270.7 135.65c-1.68-.73-3.37-1.2-5.18-1.44M265.52 146.93c1.02.12 2.02.16 3.05.12M269.83 145.16c1.23-2.22 1.71-4.78 1.36-7.29M272.1 146.43a14.32 14.32 0 0 0 1.67-8.91M273.77 137.51a1.3 1.3 0 0 0-1.47-1.11c-.71.1-1.21.76-1.11 1.47" class="cls-14"/><path d="M271.7 136.66c-.22-.5-.52-.8-1.02-1.02M269.83 145.16c-.35.63-.12 1.42.5 1.77s1.42.12 1.77-.5" class="cls-14"/><path d="M268.54 147.05c.55-.02.94-.19 1.32-.58M127.78 148.99l3.05 1.9M129.03 150.38l.27-.44M130.83 150.89c.36.23.84.12 1.06-.24M139.11 134.28c.23-.36.12-.84-.24-1.06M138.32 138.93l-3.05-1.9M138.56 139.99c.23-.36.12-.84-.24-1.06M135.27 137.03a.763.763 0 0 0-1.06.24M136.79 137.98l2.32-3.7M116.01 140.71l6.67-10.66M111.66 137.99l6.67-10.66M113.16 140.43c-.23.36-.12.84.24 1.06M114.95 140.95c.36.23.84.12 1.06-.24M113.16 140.43l.27-.43M111.66 137.99c-.23.36-.12.84.24 1.06M114.95 140.95l-3.04-1.9M124.29 124.1a.763.763 0 0 0-1.06.24M122.68 130.05c.23-.36.12-.84-.24-1.06M119.4 127.09a.763.763 0 0 0-1.06.24M119.4 127.09l3.04 1.9M120.92 128.04l2.31-3.7M127.97 150.62l-14.57-9.12M124.29 124.1l14.57 9.12M121.6 126.95l15.87 9.94M131.89 150.65l6.67-10.66M127.54 147.93l6.67-10.66M127.97 150.62c.36.23.84.12 1.06-.24M127.54 147.93c-.23.36-.12.84.24 1.06M67.54 99.45v-8.16l36.59-12.15 2.43 7.26M164.49 67.45v-9.86l-31.22 10.37 2.95 8.88" class="cls-14"/><path d="M131.32 331.39H97.3M131.32 334.22H97.3M97.3 331.39h1.57v2.83H97.3zM129.75 331.39h1.57v2.83h-1.57zM129.75 332.81H98.87M184.88 339.89h34.02M184.88 331.39h1.57v2.83h-1.57zM218.9 331.39h-34.02M218.9 334.22h-34.02M217.33 331.39h1.57v2.83h-1.57zM217.33 332.81h-30.87M165.91 109.1V78.22M192.13 110.67h34.01M226.14 119.17h-34.01M164.49 109.1h2.83v1.57h-2.83zM164.49 110.67V76.65M172.99 76.65v34.02M164.49 76.65h2.83v1.57h-2.83zM167.32 110.67V76.65M226.14 116.34h-34.01M192.13 116.34h1.57v2.83h-1.57zM224.57 116.34h1.57v2.83h-1.57zM224.57 117.75H193.7M310.19 89.88h-34.02M310.19 87.04h-34.02M276.17 87.04h1.57v2.83h-1.57zM308.62 87.04h1.57v2.83h-1.57zM308.62 88.46h-30.87M276.17 82.79h34.02M97.3 339.89h34.02" class="cls-9"/><path d="M200.7 331.39h1.57v2.83h-1.57zM113.52 331.39h1.57v2.83h-1.57zM208.35 116.34h1.57v2.83h-1.57zM292.4 87.09h1.57v2.83h-1.57zM164.49 92.09h2.83v1.57h-2.83z" class="cls-13"/><path d="M253.5 245.78v23.14M253.5 268.92c-13.85 0-20.78-7.71-20.78-23.14M277.78 202.49c0-17.76-9.89-26.65-29.67-26.65M248.11 202.49h29.67M172.99 213.04h-29.66M143.33 213.04c0 17.76 9.89 26.65 29.67 26.65M229.3 275.45c-17.76 0-26.65-9.89-26.65-29.67M229.3 245.78v29.67M262 213.04h-29.66M232.34 213.04c0 17.76 9.89 26.65 29.67 26.65" class="cls-6"/><path d="M310.19 82.79h33.73v128.98H240.74v-8.51h94.68V89.88h-25.23zM148.56 331.39h-17.24v8.5h53.559999999999995v-8.5h-11.89v-91.7h-8.5v81.89zM253.36 248.62h.14v82.77h-34.6v8.5H262v-100.2h-8.5v81.78M232.71 245.78h-3.41M229.69 248.62h-.39M232.91 248.62h-.39M232.91 248.62h-.39M276.17 89.88h-25.22v29.29h-24.81v-8.5h16.3V82.79h33.73zM164.49 110.67h27.64v8.5h-27.64z" class="cls-19"/><path d="M248.11 202.49h2.83v.77h-2.83zM253.5 211.77h8.5v1.27h-8.5zM253.5 248.62v-2.84M253.36 245.78h.14M171.01 86.19v-.23M172.99 245.78h29.72v2.83h-29.72zM229.3 248.62v-2.84h3.61v2.84h-.39v46.22h20.98v2.83h-23.81v-49.05zM229.69 316.88h2.83v14.51h-2.83zM250.95 119.17v56.67h-2.84v-1.49h-21.97v-2.84h21.97v-52.34z" class="cls-19"/><path d="M190.34 203.26h1.5" class="cls-4"/><path d="M195 203.26h42.66" class="cls-7"/><path d="M239.24 203.26h1.5M240.74 211.77h-1.5" class="cls-4"/><path d="M236.08 211.77h-42.66" class="cls-7"/><path d="M191.84 211.77h-1.5" class="cls-4"/><text class="cls-20" transform="translate(277.46 130.89)"><tspan x="0" y="0">Chamb</tspan><tspan x="19.92" y="0" class="cls-15">r</tspan><tspan x="21.71" y="0">e n°2</tspan><tspan x="0" y="7.2">12m</tspan></text><text class="cls-20" transform="matrix(.58 0 0 .58 289.51 136.1)"><tspan x="0" y="0">2</tspan></text><text class="cls-20" transform="translate(291.47 138.09)"><tspan x="0" y="0"> </tspan></text><text class="cls-20" transform="translate(89.2 123.06)"><tspan x="0" y="0">Salon</tspan><tspan x="0" y="7.2">15m</tspan></text><text class="cls-20" transform="matrix(.58 0 0 .58 101.25 128.26)"><tspan x="0" y="0">2</tspan></text><text class="cls-20" transform="translate(103.21 130.26)"><tspan x="0" y="0"> </tspan></text><text class="cls-20" transform="translate(199.98 132.26)"><tspan x="0" y="0">Cuisine</tspan><tspan x="0" y="7.2">5m</tspan></text><text class="cls-20" transform="matrix(.58 0 0 .58 208.68 137.46)"><tspan x="0" y="0">2</tspan></text><text class="cls-20" transform="translate(210.64 139.46)"><tspan x="0" y="0"> </tspan></text><text class="cls-20" transform="translate(187.89 281.26)"><tspan x="0" y="0">Salle de bain </tspan><tspan x="0" y="7.2">7m</tspan></text><text class="cls-20" transform="matrix(.58 0 0 .58 196.58 286.46)"><tspan x="0" y="0">2</tspan></text><text class="cls-20" transform="translate(238.09 281.26)"><tspan x="0" y="0">Rgt</tspan><tspan x="0" y="7.2">1m</tspan></text><text class="cls-20" transform="matrix(.58 0 0 .58 246.78 286.46)"><tspan x="0" y="0">2</tspan></text><text class="cls-20" transform="translate(248.74 288.46)"><tspan x="0" y="0"> </tspan></text><text class="cls-20" transform="translate(86.32 245.71)"><tspan x="0" y="0">Chamb</tspan><tspan x="19.92" y="0" class="cls-15">r</tspan><tspan x="21.71" y="0">e n°1</tspan><tspan x="0" y="7.2">14m</tspan></text><text class="cls-20" transform="matrix(.58 0 0 .58 98.37 250.91)"><tspan x="0" y="0">2</tspan></text><path d="M164.49 213.04h8.5v-1.27h17.35v-8.51H67.54V91.29l36.59-12.15 2.43 7.26 29.66-9.56-2.95-8.88 31.22-10.37v19.06h8.5V43.91L56.21 84.75v255.14H97.3v-8.5H67.54V211.77h96.95z" class="cls-19"/><circle cx="348.58" cy="348.56" r="9.92" class="cls-8"/><path d="m348.58 348.64 6.68 7.25" class="cls-8"/><path d="m341.81 341.31 6.77 7.33" style="fill:none;stroke-width:2px;stroke-miterlimit:10;stroke:#000"/></svg>