<svg xmlns="http://www.w3.org/2000/svg" id="Calque_2" data-name="Calque 2" viewBox="0 0 320.69 410.34"><defs><style>.cls-2,.cls-4{stroke-width:0}.cls-2{fill:#7b077d}.cls-4{fill:#776c0a}.cls-5,.cls-6{stroke-width:.25px;fill:none;stroke:#000;stroke-miterlimit:10}.cls-6{stroke-width:.5px}</style></defs><path d="m212.1 149.2-31.69 8.39-1.07 3.06 33.3 86.57.13.66.49.18.76.81-.14.84-.58.63 33.82-8.61.41-.9v-.62l-.5-.63-.66-.26-33.51-87.46.53-.71v-.54l-.27-.62-.67-.45z" class="cls-2"/><path d="m181.95 337.84 31.01-8.11.3-.68-.45-1.67 33.21-85.23-32.72 8.19 4.59 12.96-3.26 1.67-3.79-8.57-30.33 79.01.83.99z" style="stroke-width:0;fill:#ec9126"/><path d="m77.08 247.28 33.38-8.48 16.96 44.34-18.31 48.24zM129.74 289.22l13.95 36.83.83.38.38.75v.82l-.76.83-21.23 5.4-10.57-.08z" class="cls-2"/><path d="m143.75 148.06-31.53 8.18-1.26 2.82 14.28 38.45 18.22-46.48 1.11-.52.45-.67v-.67l-.3-.59zM108.5 165.38l14.58 38.16-12.61 33.21.57.72-.45.87-.13.46-33.38 8.48z" class="cls-4"/><path d="M108.23 155.04V61.22M173.35 156.69V61.77M212.42 149.55V63.41M144.05 147.36V57.38M177.82 234.81c.28-.07.57-.11.86-.1M146.61 244.86c.11.13.21.26.31.4M178.68 234.71c.17 0 .34.02.5.05M180.79 242.48c-.39.3-.79.5-1.24.62M147.49 242.58l30.33-7.77M179.54 243.1l-33.24 8.52M212.25 330.1c.09 0 .18 0 .27-.03M213.19 250.38a.8.8 0 0 1-.22.03M143.94 328.68c.09 0 .18 0 .26-.03M144.21 328.65c.62-.16.97-.86.84-1.53s-.7-1.16-1.33-1.03M212.66 247.82s.03 0 .05-.01M179.45 160.48l33.48-8.57M212.71 247.81l-33.26-87.33M143.67 150.84l-18.34 47.39M212.71 247.81c.07-.02.14-.02.22-.02M108.79 332.26l-32.17-84.47M77.19 246.3c0 .27-.1.52-.28.71M109.07 331.55l-32.08-84.22M179.66 159.46c0 .27-.1.52-.27.71M111.35 158.04c0 .27-.1.52-.28.71M77.38 245.83c.17.53.03 1.15-.39 1.49M212.93 327.75l-31.67 8.11M246.13 241.94l-33.2 85.81M246.4 239.22c-.07 0-.15 0-.22.02M212.2 248.08c.14-.13.28-.21.46-.26M212.93 247.79c.59.01 1.06.54 1.13 1.17.07.64-.28 1.27-.86 1.41M212.51 330.07l-30.78 7.88M212.51 330.07c.44-.11.77-.52.85-1.01s-.08-1-.44-1.31M246.67 241.8l-33.48 8.58M246.67 241.8c.58-.15.93-.77.86-1.41s-.54-1.16-1.13-1.17" class="cls-5"/><path d="M212.72 248.11c.49-.13.95.24 1.06.77s-.16 1.09-.65 1.21M110.46 238.75l17.12 44.95M129.57 288.9l14.15 37.18M76.99 247.33l33.47-8.58M143.72 326.08l-31.33 8.03M110.46 238.75c.62-.52.6-1.57 0-2.1M144.21 328.65l-22.11 5.66M212.93 151.91c.4-.34.55-.93.4-1.45s-.57-.91-1.08-.92M212.25 149.54c-.09 0-.18 0-.26.03M179.84 158.99c.17.53.03 1.15-.39 1.49M212.25 248.04l-33.17-87.09M212.71 247.81l33.48-8.57M212.93 151.91l33.26 87.33M180.35 157.67l31.63-8.1M143.94 148.12c-.09 0-.18 0-.27.03M111.53 157.57c.21.65-.05 1.39-.64 1.65M77.68 245.05l32.78-8.4M123.33 203.42l-12.87 33.23M112.04 156.25l31.64-8.1M144.21 150.7l-33.33 8.54M144.21 150.7c.58-.15.93-.77.86-1.41s-.54-1.16-1.13-1.17" class="cls-5"/><path d="M107.51 159.8c-.07.02-.14.02-.21.02M175.82 161.22c-.07.02-.14.03-.21.02M209.97 250.9c-.07.02-.14.03-.21.02M175.82 339.17c-.07.02-.14.03-.21.02M150.13 342.24c.34-.09 1.37-.56 1.69-.71.28-.13.55-.27.83-.4.14-.07.27-.14.41-.22.1-.05.2-.11.29-.17.02-.02.05-.03.07-.05 0 0 .02-.02.02-.03M150.06 342.25l-1.25-3.28M150.06 342.25h.08M179.21 349.97c.34-.09 1.37-.56 1.69-.71.28-.13.55-.26.83-.4.14-.07.27-.14.41-.22.1-.05.2-.11.29-.17.02-.02.05-.03.07-.05 0 0 .02-.02.02-.03M179.14 349.97h.08M102.73 138.88h-.03c-.03 0-.05.01-.08.02-.11.03-.22.08-.33.12-.14.06-.29.12-.43.18-.29.12-.57.25-.85.39-.28.13-.56.27-.84.41-.14.07-.28.14-.42.22-.1.06-.2.11-.3.18-.02.02-.05.03-.07.05 0 0-.02.02-.02.03M114.83 138.86c.21-.05.73.12.91.19.3.11.59.23.87.37s.56.29.83.46c.14.08.27.17.4.27.09.07.17.14.24.23.02.03.07.09.05.14M67.82 260.19 72.54 248M118.13 140.52c-.02.05-.09.06-.13.06-.11 0-.22-.02-.33-.04-.16-.03-.31-.08-.46-.14a10 10 0 0 1-1.75-.83c-.14-.09-.28-.18-.41-.28-.09-.07-.18-.14-.25-.24-.02-.03-.07-.09-.05-.15M71.19 261.8c-.02.05-.09.06-.13.06-.11 0-.22-.01-.33-.04-.16-.03-.31-.08-.46-.14a10 10 0 0 1-1.75-.83c-.14-.09-.28-.18-.41-.28-.09-.07-.18-.14-.25-.24-.03-.03-.07-.09-.05-.15" class="cls-6"/><path d="M114.75 138.91s.04-.04.07-.05M150.74 129.66c.21-.05.73.12.91.19.3.11.59.23.87.37s.56.29.83.46c.14.08.27.17.4.27.09.07.17.14.24.23.02.03.07.09.05.14M150.67 129.71s.04-.04.07-.05" class="cls-6"/><path d="M154.04 131.32c-.02.05-.09.06-.13.06-.11 0-.22-.01-.33-.04a3.5 3.5 0 0 1-.46-.14 10 10 0 0 1-1.75-.83c-.14-.09-.28-.18-.41-.28-.09-.07-.18-.14-.25-.24-.02-.03-.07-.09-.05-.15M177.82 234.54c.3-.08.6-.11.91-.11M179.47 243.39c-.45.11-.88.14-1.33.07M177.64 234.59l.18-.05" class="cls-6"/><path d="M177.64 234.59c.3-.08.6-.11.91-.11M179.43 243.19c-.2.05-.4.08-.61.1M252.6 255.4c.34-.09 1.37-.56 1.69-.71.28-.13.55-.27.83-.4.14-.07.27-.14.41-.21.1-.06.2-.11.3-.18.02-.02.05-.03.07-.05 0 0 .02-.02.02-.03M208.97 130.59l5.07 13.31M252.52 255.41l-4.35-11.44M208.97 130.59h-.03c-.03 0-.05.01-.08.02-.11.03-.22.08-.33.12-.14.06-.29.12-.43.18-.29.12-.57.25-.86.39-.28.13-.56.27-.84.41-.14.07-.28.14-.42.22-.1.06-.21.11-.31.18-.02.02-.05.03-.07.05 0 0-.02.02-.02.03M255.9 253.82h-.03c-.03 0-.05.01-.08.02-.11.03-.22.08-.33.12-.14.06-.29.12-.43.18-.29.12-.57.25-.85.39s-.57.27-.84.41c-.14.07-.28.14-.42.22-.1.06-.21.11-.31.18-.02.02-.05.03-.07.05 0 0-.02.02-.02.03M252.52 255.41h.08M214.67 265.12c.34-.09 1.37-.56 1.69-.71.28-.13.55-.26.83-.4.14-.07.27-.14.41-.21.1-.06.2-.11.3-.18.02-.02.05-.03.07-.05 0 0 .02-.02.02-.03M214.59 265.12h.08M171.04 140.3h-.03c-.03 0-.05.01-.08.02-.11.03-.22.08-.33.12-.14.06-.29.12-.43.18-.29.12-.57.25-.85.39-.28.13-.57.27-.84.41-.14.07-.28.14-.42.22-.1.06-.21.11-.31.18-.02.02-.05.03-.07.05 0 0-.02.02-.02.03M217.97 263.53h-.03c-.03 0-.05.01-.08.02-.11.03-.22.08-.33.12-.15.06-.29.12-.43.18-.29.12-.57.25-.85.39-.28.13-.56.27-.84.41-.14.07-.28.14-.42.22-.1.06-.21.11-.31.18-.02.02-.05.03-.07.05 0 0-.02.02-.02.03M173.66 352.9c-.02.05-.09.06-.13.06-.11 0-.22-.02-.32-.04a3.5 3.5 0 0 1-.46-.14 10 10 0 0 1-1.75-.83c-.14-.09-.28-.18-.41-.28-.09-.07-.17-.14-.25-.23-.03-.03-.07-.1-.05-.15M113.56 235.94l16.12 42.34M108.7 154.55l6.05-15.64M107.3 159.83c-.46 0-.82-.42-.88-.91-.05-.5.22-.98.67-1.1M107.1 157.82c.49-.13.95.24 1.06.77s-.16 1.09-.65 1.21M175.61 339.19c-.46 0-.82-.42-.88-.91-.05-.5.22-.98.67-1.1M175.41 337.18c.49-.13.95.24 1.06.77s-.16 1.09-.65 1.21M206.2 342.09l4.44-11.46M248.98 241.86c-.03.07-.16.06-.21.06-.08 0-.15-.02-.23-.03-.15-.03-.3-.08-.44-.13-.29-.1-.58-.22-.86-.35M209.58 343.7c-.02.05-.09.06-.13.06-.11 0-.22-.02-.32-.04a3.5 3.5 0 0 1-.46-.14 10 10 0 0 1-1.75-.83c-.14-.09-.28-.18-.41-.28-.09-.07-.17-.14-.25-.23-.03-.03-.07-.1-.05-.15M112.21 351.96c.34-.09 1.37-.56 1.69-.71.28-.13.55-.27.83-.4.14-.07.27-.14.41-.21.1-.05.2-.11.29-.17.02-.02.05-.03.07-.05 0 0 .02-.02.02-.03M67.53 224.4h-.03c-.03 0-.05.01-.08.02-.11.03-.22.08-.33.12-.14.06-.29.12-.43.18-.29.12-.57.25-.85.39s-.56.27-.84.41c-.14.07-.28.14-.42.22-.1.06-.2.11-.3.18-.02.02-.05.03-.07.05 0 0-.02.02-.02.03M115.51 350.37h-.03c-.03 0-.05.01-.08.02-.11.03-.22.08-.32.12-.15.06-.29.12-.43.18-.29.12-.57.25-.85.39-.28.13-.56.27-.84.41-.14.07-.28.14-.42.22-.1.06-.2.11-.3.18-.02.02-.05.03-.07.05 0 0-.02.02-.02.03M112.13 351.96h.08M183.13 140.28c.21-.05.73.12.91.19.3.11.59.23.87.37s.56.29.83.46c.14.08.27.17.4.27.09.07.17.14.24.23.03.03.07.09.05.15M183.06 140.33s.04-.04.07-.05" class="cls-6"/><path d="M186.43 141.94c-.02.05-.09.06-.13.06-.11 0-.22-.02-.32-.04a3.5 3.5 0 0 1-.46-.14 10 10 0 0 1-1.75-.83c-.14-.09-.28-.18-.41-.28-.09-.07-.17-.14-.25-.23-.03-.03-.07-.1-.05-.15M106.65 348.13c-.02.05-.09.06-.13.06-.11 0-.22-.02-.32-.04a3.5 3.5 0 0 1-.46-.14 10 10 0 0 1-1.75-.83c-.14-.09-.28-.18-.41-.28-.09-.07-.17-.14-.25-.23-.03-.03-.07-.1-.05-.15M106.22 336.63v-.19M180.33 339.63l-1.15-.02M180.76 339.56c.58-.15.97-.74.97-1.39M180.62 339.59c-.1.02-.19.04-.29.03M216.35 329.3v-1.17M215.09 326.65l-1.72-.03M142.25 329.21c-.06 0-.11 0-.17-.02M215.53 330.65c.58-.15.97-.74.97-1.39M215.39 330.69c-.1.03-.19.04-.29.03M106.67 337.76c-.29-.28-.45-.7-.45-1.12M213.38 326.58l1.86.04M108.67 342.89l-2.02 5.24M127.67 283.47l-16.12-42.34M143.54 325.13l-13.88-36.46M147.23 334.83l-1.53-4.01M74.55 242.81l32.14-83.07M76.39 247.78l32.14-83.07M178.96 243.25c.18-.01.36-.04.53-.08M177.76 234.77c-.17.05-.34.11-.51.19" class="cls-6"/><path d="M177.1 235c.19-.09.38-.16.58-.21M213.13 250.1l-.25.06M152.83 339.06l.61 1.6M149.13 329.35l2.12 5.56M131.66 283.48l14.07 36.94M74.52 253.21l-3.33 8.59M246.36 239.22l-32.35-84.93M173.9 325.76l6.22.13M180.1 325.92l-6.18-.12M178.54 329.96l-3.06-.06M177.01 155.97l6.05-15.64M180.39 335.52h.08M175.61 161.25c-.46 0-.82-.42-.88-.91-.05-.5.22-.98.67-1.1M175.41 159.24c.49-.13.95.24 1.06.77s-.16 1.09-.65 1.21M181.59 338.2v-1.16M180.37 335.56c.7.04 1.22.72 1.22 1.48M217.14 340.25c.34-.09 1.37-.56 1.69-.71.28-.13.55-.27.83-.4.14-.07.27-.14.41-.21.1-.05.2-.11.29-.17.02-.02.05-.03.07-.05 0 0 .02-.02.02-.03M140.66 129.17l5.07 13.31M140.66 129.17h-.03c-.03 0-.05.01-.08.02-.11.03-.22.08-.32.12-.14.06-.29.12-.43.18-.29.12-.57.25-.85.39s-.57.27-.84.41c-.14.07-.28.14-.42.22-.1.06-.2.11-.3.18-.03.02-.05.03-.07.05 0 0-.02.02-.02.03M220.45 338.66h-.03c-.03 0-.05.01-.08.02q-.165.045-.33.12c-.14.06-.29.12-.43.18-.29.12-.57.25-.85.39s-.56.27-.84.41c-.14.07-.28.14-.42.22-.1.06-.2.11-.3.18-.02.02-.05.03-.07.05 0 0-.02.02-.02.03M217.07 340.25h.08M217.07 340.25l-3.06-8.01M219.05 131.08c.21-.05.73.12.91.19.3.11.59.23.87.37s.56.29.83.46c.14.08.27.17.4.27.09.07.17.14.24.23.03.03.07.09.05.15" class="cls-6"/><path d="M222.35 132.74c-.02.05-.09.06-.13.06-.11 0-.22-.02-.32-.04a3.5 3.5 0 0 1-.46-.14 10 10 0 0 1-1.75-.83c-.14-.09-.28-.18-.41-.28-.09-.07-.17-.14-.25-.23-.03-.03-.07-.1-.05-.15M142.57 338.93c-.03.07-.16.06-.21.06-.08 0-.15-.02-.22-.03-.15-.03-.29-.08-.44-.12M218.98 131.13s.04-.04.07-.05M107.3 337.77c-.46 0-.82-.42-.88-.91-.05-.5.22-.98.67-1.1M107.1 335.76c.49-.13.95.24 1.06.77s-.16 1.09-.65 1.21M107.51 337.75c-.07.02-.14.03-.21.02M209.65 250.83c-.07.02-.14.03-.21.02M73.15 248.09c-.46 0-.82-.42-.88-.91-.05-.5.22-.98.67-1.1" class="cls-6"/><path d="M72.94 246.08c.49-.13.95.24 1.07.77.11.53-.16 1.09-.65 1.21M73.36 248.07c-.07.02-.14.02-.21.02M69.75 246.82c-.46 0-.82-.42-.88-.91-.05-.5.22-.98.67-1.1M69.54 244.81l1.62-.42M69.54 244.81c.49-.13.95.24 1.06.77s-.16 1.09-.65 1.21" class="cls-6"/><path d="M69.95 246.8c-.07.02-.14.03-.21.02M143.07 243.44l.1-.02M143.07 243.44s.07-.02.1-.02M195.13 203.09l-.09.23M216.02 149.1l39.88 104.72M212.03 149.09l-6.44-16.91M247.96 241.01q.3.165.57.36c.09.07.18.13.27.21l.12.12c.03.03.08.1.06.16M165.82 195.22l14.07 36.94M147.71 147.68l16.13 42.34M195.98 284.89l-15.88-41.7M216.5 328.29l3.95 10.37M182.63 239.37l15.36 40.33M161.83 195.21l-16.13-42.34M176.93 234.86l-13.12-34.45M140.21 334.68l2.12-5.47M212.1 248.11l.1-.03M142.61 243.59q.225-.09.45-.15M140.6 250.05c-.4-.8-.58-1.72-.52-2.63M145.72 251.75c1.11-.64 1.84-1.86 2.01-3.22s-.23-2.75-1.09-3.74M142.66 243.72c.12-.05.25-.09.38-.12" class="cls-6"/><path d="M140.64 249.96c-.36-.73-.53-1.55-.5-2.38M143.72 147.67l-6.44-16.91M71.89 246.3l-1.94.5M142.6 338.84l-.03.09M158.88 296.77l-11.01 28.44M179.54 243.37l-18.65 48.21M193.03 208.51l-10.92 28.23M193.06 198.12l.09-.24M178.89 234.72l.01-.01M158.91 286.38l16.31-42.17M209.77 250.93c-.46 0-.82-.42-.88-.91-.05-.5.22-.98.67-1.1M209.56 248.92c.49-.13.95.24 1.06.77s-.16 1.09-.65 1.21M153.44 340.66h-.03c-.03 0-.05.01-.08.02-.11.03-.22.08-.33.12-.14.06-.29.12-.43.18-.29.12-.57.25-.85.39s-.57.27-.84.41c-.14.07-.28.14-.42.22-.1.06-.2.11-.3.18-.03.02-.05.03-.07.05 0 0-.02.02-.02.03M179.14 349.97l-79.79-209.5M102.73 138.88l79.79 209.5M182.52 348.38h-.03c-.03 0-.05.01-.08.02-.11.03-.22.08-.32.12-.14.06-.29.12-.43.18-.29.12-.57.25-.85.39-.28.13-.56.27-.84.41-.14.07-.28.14-.42.22-.1.06-.2.11-.3.18-.02.02-.05.03-.07.05 0 0-.02.02-.02.03M118.13 140.52l-7.45 19.24" class="cls-6"/><path d="m108.67 164.95-32.14 83.07" style="fill:#6f06ad;stroke-width:0"/><path d="m143.52 148.19 7.15-18.48M154.04 131.32l-27.31 70.58M124.72 207.09l-13.26 34.28M178.56 234.48c2.03.04 3.65 1.84 3.88 4.04.11 1.07-.11 2.17-.65 3.07-.54.91-1.36 1.55-2.32 1.8" class="cls-6"/><path d="M178.73 234.44c2.03.04 3.65 1.84 3.88 4.04.11 1.07-.11 2.17-.65 3.07-.54.91-1.36 1.55-2.32 1.8" class="cls-6"/><path d="M178.56 234.69c1.94.04 3.48 1.76 3.7 3.86.22 2.11-.93 4.16-2.83 4.65M179.65 243.34l-.18.05M176.42 235.17c.38-.28.78-.47 1.22-.58M177.68 234.79l.15-.04M179.57 243.15l-.14.04M177.68 234.79c.29-.07.58-.11.87-.1M214.59 265.12l-5.46-14.34M208.62 249.45l-40.96-107.56M171.04 140.3l46.93 123.23M211.14 256.05l-32.15 83.07M176.98 344.31l-3.32 8.59M170.28 351.29l4.72-12.18M177.01 333.91l32.14-83.06M248.98 241.86l-32.93 85.11M214.6 330.71l-5.02 12.99M67.53 224.4l47.98 125.97M112.13 351.96 64.15 225.99M103.28 346.51l3.41-8.82M108.7 332.49l32.15-83.07M142.86 244.23 175 161.16M186.43 141.94l-7.44 19.24M176.98 166.37l-32.14 83.07M142.83 254.63l-32.15 83.07M181.73 337v1.16M181.73 337c0-.78-.54-1.47-1.26-1.48M112.08 334.1l61.5 1.28M173.6 335.42l-61.54-1.28M174.84 339.52l-63.97-1.33M180.47 339.59c.1 0 .2 0 .29-.03" class="cls-6"/><path d="M181.59 338.2c0 .65-.38 1.24-.97 1.39M180.76 339.56l-.14.03M216.5 328.1v1.16M216.5 328.1c0-.78-.54-1.46-1.26-1.48" class="cls-6"/><path d="M215.09 326.65c.72.02 1.26.7 1.26 1.48M143.36 325.12l26.53.55M169.9 325.71l-26.53-.55M215.09 330.72l-4.75-.1M171.46 329.82l-29.21-.61M215.24 330.69c.1 0 .2 0 .29-.03" class="cls-6"/><path d="M216.35 329.3c0 .65-.38 1.24-.97 1.39M215.53 330.65l-.14.04M222.35 132.74l-8.43 21.78M146.29 329.29l-2.11 5.48M143.91 325.13l12.99-33.56M179 234.45l12.05-31.14M211.83 149.61l7.15-18.48M209.44 250.85c-.46 0-.82-.42-.88-.91-.05-.5.22-.98.67-1.1M209.24 248.84c.49-.13.95.24 1.06.77s-.16 1.09-.65 1.21M146.69 244.65c.9 1.02 1.33 2.47 1.16 3.88-.17 1.42-.92 2.69-2.08 3.35M143.11 243.58h-.01" class="cls-6"/><path d="M146.61 244.85c.83.99 1.22 2.36 1.06 3.7s-.87 2.54-1.95 3.19" class="cls-6"/><path d="M145.79 251.93c1.24-.63 2.06-1.95 2.24-3.43s-.29-2.99-1.28-4.02M143.04 243.6s.05-.01.07-.02" class="cls-6"/></svg>