<svg xmlns="http://www.w3.org/2000/svg" id="Calque_2" data-name="Calque 2" viewBox="0 0 383.74 531.14"><defs><style>.cls-1{stroke-width:.25px}.cls-1,.cls-2{fill:none;stroke:#000;stroke-miterlimit:10}.cls-3{fill:#eaa98c}.cls-3,.cls-4,.cls-5{stroke-width:0}.cls-4{fill:#662612}.cls-2{stroke-width:.5px}.cls-5{fill:#d86a3f}</style></defs><path d="m140.2 73.31 42.79 26.65 1.44 3.67-27.71 78.33-29.36-73.79 11.88-32.83v-1.55z" class="cls-4"/><path d="m155.08 187.23.7 1.75-4.22 12.09 3.4 1.49 2.58-8.69 26.36 66.84-1.23 1.35-43.6-27.71.27-1.63-28.82-73.38" class="cls-3"/><path d="m110.52 159.34-1.34-1 .08-1.15.26-.33-29-73.42-1.53-1.17.08-.93.28-.61.92-.28 43.04 27.16 31.77 79.62z" class="cls-5"/><path d="m260.25 58.86 44.67 28.22-.8 1.21v1.73L276.9 167.3l-27.5-68.34.62-.11v-1.07l-.05-.68 6.14-16.57L252.9 79l6.26-17.92-.17-.85.11-.9.4-.28z" class="cls-3"/><path d="m199.99 65.94 43.4 27.26 2.13 5.69-16.24 45.02-.16-1.17.36-.51-28.93-73.14-1.53-1.01-.05-1.17.31-.61zM247.84 104.21l26.6 68.09-41.96-26.13z" class="cls-5"/><path d="m241.26 253.93-38.91-24.51 15.45-42.24 26.13 66.08zM232.48 146.17l-12.87 35.95 26.7 68.28 28.13-78.1z" class="cls-4"/><path d="M167.51 153.68c-.12-.08-.24-.16-.35-.26M168.56 154.07c-.38-.06-.71-.19-1.05-.4M167.59 153.52a2.4 2.4 0 0 1-.37-.28M169.83 146.01c.48.02.95.17 1.37.43M169.77 146.19c.47.01.93.15 1.35.41M154.64 187.11c-.25-.15-.4-.43-.45-.73s.01-.62.15-.88M154.64 187.11l-45.15-28.39M182.87 262l-43.4-27.3M109.43 156.8c-.25.25-.4.61-.4.99 0 .37.16.74.46.93M139.41 232.78l-28.99-73.48M244.56 96.68c-.25-.15-.4-.43-.45-.73s.01-.62.15-.88M244.56 96.68l-45.15-28.39M200.49 66.19a.85.85 0 0 0-.54-.12M200.49 66.19l43.07 27.09M229.33 142.36l-28.99-73.48M199.95 66.07c-.46.06-.82.45-.95.93s0 1.04.41 1.3M244.95 96.81c-.14 0-.27-.05-.39-.12M248.94 99.13c-.4-.25-.44-.82-.24-1.23s.67-.66 1.07-.41M249.77 97.49c.32.2.42.64.32 1.01s-.38.68-.74.72" class="cls-1"/><path d="M249.36 99.22c-.15.02-.28 0-.42-.09M170.92 146.54c-.36-.23-.72-.35-1.13-.39M168.56 154.06l-1.12-.7M213.03 182.03l-41.5-26.1M217.71 175.68s-.08-.05-.12-.08M218.04 175.9l-.21-.15M214.14 183c.38.24.76.37 1.19.42M217.83 175.76c-.31-.2-.63-.32-.99-.39M218 176.02s-.1-.07-.15-.1M217.85 175.92c-.3-.19-.6-.31-.93-.37M213.67 176.69c-.74.89-1.16 2.1-1.11 3.31.05 1.22.59 2.38 1.58 3" class="cls-1"/><path d="M213.55 176.39c-.8.87-1.27 2.11-1.24 3.36.03 1.26.57 2.46 1.59 3.1" class="cls-1"/><path d="M213.75 176.9c-.69.86-1.07 2.02-1 3.18s.59 2.26 1.53 2.85M171.22 146.69c-.06-.05-.13-.1-.2-.15M168.07 153.75c-.17-.06-.32-.14-.48-.24M232.95 144.63 274 170.45M244.85 96.56l-.17-.11M199.01 67.73l-.9-.56" class="cls-1"/><path d="M213.71 176.81c-.7.86-1.1 2.03-1.04 3.2s.58 2.28 1.53 2.88M167.24 153.21c.07.05.14.1.21.14M171.08 146.36s-.08-.05-.12-.08M171.2 146.43l.09.06M167.5 153.45c.12.07.25.13.38.18M171.12 146.6s.07.05.11.07M184.08 260.88l-44.67-28.1M167.15 153.45s.08.05.12.08M155.03 187.24c-.14 0-.27-.05-.39-.12M167.27 153.53s.08.05.12.07M170.96 146.28c-.34-.21-.69-.34-1.08-.4M167.51 153.68l-.24-.15M170.96 146.28l.24.15M167.59 153.52l-.19-.13M154.76 186.88c-.35-.22-.43-.7-.3-1.08M139.41 232.78c-.25.25-.4.61-.4.99 0 .37.16.74.46.93M244.68 96.45c-.35-.22-.43-.7-.3-1.09M229.33 142.36l.65.4M174.18 148.59l37.77 23.75M217.59 175.6c-.25-.16-.51-.27-.79-.34M217.77 175.87c-.28-.17-.56-.29-.87-.36M195.47 63.71c-.27.12-.46.39-.53.7s0 .65.21.87M213.9 182.85s.08.05.12.07M214.28 182.93c.35.22.7.34 1.09.39M170.92 146.54l.29.18M214.14 183l-.24-.15M217.59 175.6l.24.16M124.66 111.13c-.25-.15-.4-.43-.45-.73s.01-.62.15-.88M124.66 111.13 79.52 82.74M80.59 80.64a.85.85 0 0 0-.54-.12M80.59 80.64l43.07 27.08M109.43 156.8 80.44 83.32M80.05 80.52c-.46.05-.82.45-.95.93s0 1.04.41 1.3M125.05 111.25c-.14 0-.27-.05-.39-.12M274.65 172.43c-.35-.22-.43-.7-.3-1.09M200.14 225.26c-.5-.05-.94.34-1.11.83-.17.5-.07 1.12.38 1.4M229.33 142.36c-.24.24-.39.59-.4.95 0 .36.12.72.4.93M217.95 175.83l11.38-31.6M200.14 225.26l15.08-41.86M243.61 252.59l-40.4-25.4M274.93 172.79h-.05M200.24 225.32l-.1-.06M109.43 156.8l44.68 28.1" class="cls-1"/><path d="M124.78 110.9c-.35-.22-.43-.7-.3-1.08M274.47 172.62c-.47-.35-.5-1.06-.23-1.56M232.4 146.16l42.07 26.46M241.59 254l-39.17-24.63M199.45 227.5l-.04-.02M229.33 144.23l.1.07M274.47 172.62l-28.02 77.8M274.88 172.78l-28.19 78.26M140.54 73.41a.85.85 0 0 0-.54-.12M140.54 73.41l43.07 27.09M127.58 108.3l11.83-32.82M184.55 103.87l-28.03 77.8M184.96 104.03l-28.19 78.25M140 73.3c-.44.05-.8.43-.94.89-.13.46-.04 1 .34 1.29M184.55 103.87c-.47-.35-.5-1.06-.23-1.56M259.9 58.85c-.44.05-.8.43-.94.89s-.04 1 .34 1.29M247.48 93.85l11.82-32.82M304.63 89.23c-.4-.25-.44-.82-.24-1.23.21-.41.67-.66 1.07-.41M185 104.03h-.05" class="cls-1"/><path d="M184.73 103.67c-.35-.22-.43-.7-.3-1.09M139.41 75.48l45.14 28.39M304.45 89.42l-28.03 77.8M304.45 89.42c-.38-.29-.48-.83-.34-1.29.13-.46.49-.84.94-.89M305.16 89.56c-.1.03-.2.03-.3.02M259.3 61.03l45.15 28.39M305.58 87.36c.2.12.34.33.41.57M260.43 58.97a.85.85 0 0 0-.54-.12M260.43 58.97l45.15 28.39" class="cls-1"/><path d="M305.04 87.24q.285-.03.54.12M304.85 89.58l-28.19 78.25" class="cls-1"/><path d="M328.97 458.27c.04.1.04.18.01.28-.03.14-.09.25-.16.36-.13.19-.27.34-.44.49-.33.29-.68.51-1.07.7s-.77.33-1.18.4c-.21.04-.41.05-.62.03a.76.76 0 0 1-.35-.11c-.08-.05-.14-.1-.17-.2" class="cls-2"/><path d="M328.38 458.05c.07.18-.03.37-.12.5-.1.15-.22.27-.35.38-.26.23-.54.4-.84.55s-.61.26-.93.32a1.6 1.6 0 0 1-.49.02c-.14-.02-.34-.06-.41-.24M280.53 427.81c.04.09.04.18.01.28-.03.14-.09.25-.16.36-.13.19-.28.34-.44.49-.33.29-.68.51-1.07.7-.38.19-.77.33-1.18.4-.21.04-.41.05-.62.03a.76.76 0 0 1-.35-.11c-.08-.05-.14-.1-.17-.2" class="cls-2"/><path d="M279.94 427.58c.07.18-.03.37-.12.5-.1.15-.22.27-.35.38-.26.23-.54.4-.84.55s-.61.26-.93.31a1.6 1.6 0 0 1-.49.02c-.14-.02-.34-.06-.41-.24M109.68 486.89s-.02.01-.03.01c-.03 0-.05 0-.08-.01-.11-.02-.21-.06-.31-.09-.14-.05-.27-.1-.41-.15-.27-.11-.54-.22-.81-.34s-.53-.24-.8-.37c-.13-.07-.26-.13-.39-.2-.1-.05-.19-.11-.28-.17-.02-.02-.04-.03-.06-.05 0 0-.02-.02-.01-.03M58.78 455.39s-.03.01-.04.01c-.03 0-.07 0-.1-.01q-.195-.045-.39-.12c-.17-.06-.35-.13-.52-.19-.34-.14-.69-.28-1.03-.43s-.68-.31-1.01-.47c-.17-.08-.33-.17-.5-.26-.12-.07-.24-.13-.36-.22a.3.3 0 0 1-.08-.07s-.02-.02-.02-.04M58.52 454.72s-.02.01-.03.01c-.03 0-.05 0-.08-.01-.11-.02-.21-.06-.31-.09-.14-.05-.27-.1-.41-.15-.27-.11-.54-.22-.81-.34s-.53-.24-.8-.37c-.13-.07-.26-.13-.39-.2-.1-.05-.19-.11-.28-.17-.02-.02-.04-.03-.06-.05 0 0-.02-.02-.01-.03M58.51 454.69s.01.01.01.02M328.31 457.94s.05.06.07.1M328.29 457.89l.36.12M325.24 459.58s-.02-.08-.02-.12M328.65 458.01c.05.02.1.04.15.07M325.03 459.77c.06-.12.11-.25.17-.37M329.69 460.09c.02.06.04.13.05.2.03.21-.01.42-.09.6v.01c-.02.03-.03.07-.05.1-.1.19-.25.36-.43.53q-.24.225-.54.42c-.42.27-.89.47-1.34.58-.38.09-.72.1-1.01 0-.08-.02-.15-.06-.22-.1a.84.84 0 0 1-.34-.4M324.99 460.21c-.06-.15-.02-.31.04-.44M325.71 462.03l-.71-1.8M328.97 458.27l.72 1.82M328.8 458.07c.08.05.13.1.17.2M279.88 427.48s.05.06.07.1M279.85 427.43l.36.12M276.8 429.12s-.02-.08-.02-.12M281.25 429.63c.02.06.04.13.05.2.03.21-.01.42-.09.6v.01c-.02.03-.03.07-.05.1-.11.19-.25.37-.43.53q-.24.225-.54.42c-.42.27-.89.47-1.34.58-.38.09-.72.1-1.01 0-.08-.03-.15-.06-.22-.1a.84.84 0 0 1-.34-.4M280.21 427.55c.05.02.1.04.15.07M276.59 429.31c.05-.12.11-.25.17-.37M276.55 429.75c-.06-.15-.02-.31.04-.44M277.27 431.57l-.71-1.8M280.53 427.81l.72 1.82M280.36 427.61c.08.05.13.1.17.2M109.93 487.55s-.03.01-.04.01c-.03 0-.07 0-.1-.01q-.195-.045-.39-.12c-.18-.06-.35-.13-.52-.19-.34-.14-.69-.28-1.03-.43s-.68-.31-1.01-.47c-.17-.08-.33-.17-.5-.26-.12-.07-.24-.14-.36-.22a.3.3 0 0 1-.08-.07s-.02-.02-.02-.04M109.66 486.86s.01.01.01.02" class="cls-2"/><path d="M109.67 486.88c.08.22.17.44.26.66M109.21 489.54c-.05.14-.15.25-.27.3-.08.04-.15.05-.22.05-.05 0-.1 0-.14-.01-.12-.02-.22-.06-.39-.11-.14-.05-.31-.11-.49-.19-.39-.15-.82-.35-1.23-.54-.42-.2-.73-.36-.94-.49-.07-.04-.13-.08-.19-.13a.53.53 0 0 1-.17-.24.56.56 0 0 1 0-.42M106.5 485.47h.02M109.93 487.54v.01M109.67 486.88v.01M105.9 485.75c.2-.09.4-.19.59-.28M105.18 487.74l.71-1.98M109.93 487.55l-.72 1.99M58.52 454.71c.08.22.17.44.26.66M55.34 453.3h.02M58.78 455.37v.01M54.75 453.58c.2-.09.4-.19.59-.28M58.06 457.38c-.05.14-.15.25-.27.3-.08.04-.15.05-.22.05-.05 0-.1 0-.14-.01-.12-.02-.22-.06-.39-.11-.14-.05-.31-.11-.49-.19-.39-.15-.82-.35-1.23-.54-.41-.2-.73-.36-.94-.49-.07-.04-.13-.08-.19-.13a.53.53 0 0 1-.17-.24.56.56 0 0 1 0-.42M54.02 455.58l.72-1.99M58.78 455.39l-.72 1.99M144.73 55.61l.09.06c.01 0 .03.02.04.03 0 0 .03.03.03.04M73.64 63.89c.07.18-.03.37-.12.49-.1.15-.21.27-.34.38-.26.23-.53.4-.83.54-.3.15-.6.25-.92.31-.16.03-.32.04-.48.02-.14-.02-.34-.06-.41-.24M136.25 231.95 70.55 65.42M141.7 245.79l-4.18-10.6M122.08 94.35c.07.18-.03.37-.12.5-.1.15-.21.27-.34.38-.26.23-.53.4-.83.54s-.6.25-.92.31c-.16.03-.32.04-.48.02-.14-.02-.34-.06-.41-.24M155.85 189.33l-36.86-93.45M185.83 265.31l-28.07-71.15M159.65 189.59l27.94 70.83M122.08 94.35l35.54 90.09M182.03 87.13c.07.18-.03.37-.12.5-.1.15-.21.27-.34.38-.26.23-.53.4-.83.54s-.6.25-.92.31c-.16.03-.32.04-.48.02-.14-.02-.34-.06-.41-.24M185.83 106.13l-6.89-17.48M215.8 182.11l-28.07-71.16M245.78 258.09l-28.07-71.15M325.31 459.68l-77.63-196.76M249.57 258.35l78.83 199.82M219.47 182.04l28.07 71.16M189.62 106.38l27.95 70.84M182.03 87.13l5.56 14.1M249.57 99.16l27.95 70.83M241.98 79.9l5.56 14.11M245.78 98.9l-6.9-17.47M275.75 174.89l-28.07-71.16M214.23 261.08l65.73 166.63M173.15 156.95l26.42 66.98M133.59 56.67l6.56 16.62M138.41 78.25l-7.91-20.06M196.05 224.35l-25.7-65.14M198.42 230.37l-.95-2.4M276.87 429.22 210.7 261.51M137.56 235.27 58.49 454.73M184.77 94.09l10.83-30.06M55.35 453.34l80.3-222.9M159.02 189.56c-.4-.25-.44-.82-.24-1.23.21-.41.67-.66 1.07-.41" class="cls-2"/><path d="M159.85 187.92c.32.2.42.64.32 1.01s-.38.68-.74.72" class="cls-2"/><path d="M159.44 189.65c-.15.02-.28 0-.42-.09M188.99 106.35c-.4-.25-.44-.82-.24-1.23.21-.41.67-.66 1.07-.41M189.83 104.72c.32.2.42.64.32 1.01s-.38.68-.74.72M189.41 106.45c-.15.02-.28 0-.42-.09M278.92 175.11c-.4-.25-.44-.82-.24-1.23s.67-.66 1.07-.41M279.75 173.48c.32.2.42.64.32 1.01s-.38.68-.74.72M279.33 175.2c-.15.02-.28 0-.42-.09M309.72 90.27c.32.2.42.64.32 1.01s-.38.68-.74.72M306.25 90.24l-1.62-1.01M305.46 87.59l1.42.89" class="cls-2"/><path d="M309.31 92c-.15.02-.28 0-.42-.09M248.94 258.32c-.4-.25-.44-.82-.24-1.23.21-.41.67-.66 1.07-.41M249.77 256.68c.32.2.42.64.32 1.01s-.38.68-.74.72M195.47 222.9c-.27.12-.46.39-.53.7s0 .65.21.87" class="cls-2"/><path d="M249.36 258.41c-.15.02-.28 0-.42-.09M188.99 265.54c-.4-.25-.44-.82-.24-1.23.21-.41.67-.66 1.07-.41M189.83 263.9c.32.2.42.64.32 1.01s-.38.68-.74.72M189.41 265.63c-.15.02-.28 0-.42-.09M244.72 86.87l16.92-46.97M214.75 170.07l10.82-30.05M195.15 224.47l.45-1.25M197.54 227.96l-3.92 10.88M213.82 182.77l-14.55 40.38M258.06 59.95l-11.43 31.74M249.31 258.41 244.77 271M279.28 175.21l-29.38 81.57M241.63 269.6l71.16-197.53M151.71 200.85l41.18-114.33M159.38 189.65l-4.53 12.59M189.36 106.45l-29.39 81.57M106.51 485.5 252.84 79.29M189.36 265.64 109.65 486.9M249.31 99.23l-59.37 164.78M183.53 264.58c-.34-.21-.51-.62-.51-1.04M245.47 257.32l-55.53 6.69M191.37 260.05l52.68-6.35M244.1 253.84l-52.79 6.36M183.93 260.95c-.64.08-1.11.74-1.11 1.43" class="cls-2"/><path d="M183.02 262.5c0-.69.47-1.36 1.11-1.43M136.64 235.09c-.34-.21-.51-.62-.51-1.04M139.8 234.92l-2.57.3M199.37 227.74l-23.55 2.84M174.39 226.96l26.28-3.17M137.04 231.46l1.76-.21M138.85 231.39l-1.62.19M200.61 223.95l-26.16 3.15M137.04 231.46c-.64.08-1.11.74-1.11 1.43" class="cls-2"/><path d="M136.13 233.02c0-.69.47-1.36 1.11-1.43M193.54 49.44c.07.18-.03.37-.12.5-.1.15-.21.27-.34.38-.26.23-.53.4-.83.54-.3.15-.6.25-.92.31-.16.03-.32.04-.48.02-.14-.02-.34-.06-.41-.24M228.33 147l-37.88-96.03M193.54 49.44l6.55 16.63M124.82 101.31l10.83-30.05M100.55 168.68l5.13-14.22M189.62 265.57l3.62 9.17M202.09 230.3l10.71 27.17M209.28 257.89l-8.96-22.7M168.44 154.39l-.14-.37M197.36 59.14l4.33-12.01M279.55 175.14l3.61 9.17M197.5 68.86l-10.82 30.06M124.96 111.01l-.18-.11M274.83 172.54l-.18-.11M242.62 92.69l.34-.93M197.36 218.33l13.56-37.63M184.15 261.06l-.03.01M122.73 107.14l.33-.93M137.41 66.37l4.33-12.02M105.55 154.14c-.27.12-.46.39-.53.7s0 .65.21.87M154.93 186.99l-.17-.11M109.08 158.16l-.89-.56M135.52 70.94c-.27.12-.46.39-.53.7s0 .65.21.87M184.9 103.78l-.17-.11M139.06 74.95l-.89-.56M137.56 76.09l-10.83 30.05M107.58 159.29l-3.89 10.79M309.26 92l-29.39 81.57M135.52 230.12c-.27.12-.46.39-.53.7s0 .65.21.87M185.53 264.54l-1.41.17M190.14 276.25l-2.41-6.11M241.98 79.9c.07.18-.03.37-.12.5-.1.15-.21.27-.34.38-.26.23-.53.4-.83.54s-.6.25-.92.31c-.16.03-.32.04-.48.02-.14-.02-.34-.06-.41-.24M280.07 185.82l-2.41-6.11M133.59 56.67c.07.18-.03.37-.12.5-.1.15-.21.27-.34.38-.26.23-.53.4-.83.54-.3.15-.6.25-.92.31-.16.03-.32.04-.48.02-.14-.02-.34-.06-.41-.24M141.54 236.01l3.26 8.27M73.64 63.89l6.56 16.62M70.54 65.4c-.07-.17.02-.35.1-.47.09-.14.2-.26.32-.37.24-.22.5-.39.78-.53s.56-.26.87-.33c.24-.05.66-.12.9.03M144.8 244.28c.07.18-.03.37-.12.5-.1.15-.21.27-.34.38-.26.23-.53.4-.83.54s-.6.25-.92.31c-.16.03-.32.04-.48.02-.14-.02-.34-.06-.41-.24M73.51 63.74c.06.04.1.08.13.15M118.98 95.86c-.07-.17.02-.35.1-.47.09-.14.2-.26.32-.37.24-.22.5-.39.78-.53s.56-.26.87-.33c.24-.06.66-.12.9.03M193.24 274.74c.07.18-.03.37-.12.5-.1.15-.21.27-.34.38-.26.23-.53.4-.83.54-.3.15-.6.25-.92.31-.16.03-.32.04-.48.02-.14-.02-.34-.06-.41-.24M121.95 94.2c.06.04.1.08.13.15M178.93 88.64c-.07-.17.02-.35.1-.47.09-.14.2-.26.32-.37.24-.22.5-.39.78-.53s.56-.26.87-.33c.24-.06.66-.12.9.03M181.9 86.98c.06.04.1.08.13.15M283.16 184.31c.07.18-.03.37-.12.5-.1.15-.21.27-.34.38-.26.23-.53.4-.83.54s-.6.25-.92.31c-.16.03-.32.04-.48.02-.14-.02-.34-.06-.41-.24M238.88 81.41c-.07-.17.02-.35.1-.47.09-.14.2-.26.32-.37.24-.22.5-.39.78-.53s.56-.26.87-.33c.24-.05.66-.12.9.03M241.84 79.75c.06.04.1.08.13.15M182.68 99.91l.33-.93M130.49 58.18c-.07-.17.02-.35.1-.47.09-.14.2-.26.32-.37.24-.22.5-.39.78-.53s.56-.26.87-.33c.24-.05.66-.12.9.03M133.46 56.51c.06.04.1.08.13.15M204.83 48.52s-.02.01-.03.01c-.03 0-.05 0-.08-.01-.1-.02-.2-.06-.31-.09-.14-.05-.27-.1-.4-.15-.27-.11-.53-.22-.8-.34-.26-.12-.53-.24-.79-.37-.13-.06-.26-.13-.39-.2-.1-.05-.19-.1-.28-.17-.02-.02-.04-.03-.06-.05 0 0-.02-.02-.01-.03" class="cls-2"/><path d="M201.69 47.13h.1c.1.02.19.05.29.08.13.04.25.09.38.14.25.1.5.2.75.31.38.17 1.11.5 1.47.73M204.83 48.52l-5.56 15.45M204.68 48.39l.09.06c.01 0 .03.02.04.03 0 0 .03.03.03.04M183.93 260.95l.17-.02M225.45 139.69c-.27.12-.46.39-.53.7s0 .65.21.87M228.98 143.71l-.89-.56M227.48 144.84l-10.83 30.06M138.8 72.63l1.09.69M124.97 111.02v.01M190.48 237.44l3.25-9.02M255.69 56.42c-.34.01-.63.28-.76.62s-.09.76.17 1.02M258.95 60.51l-.89-.56M258.7 58.18l1.09.69M244.87 96.57l-.01.01M127.69 112.72c-.4-.25-.44-.82-.24-1.23.21-.41.67-.66 1.07-.41M128.52 111.09c.32.2.42.64.32 1.01s-.38.68-.74.72M128.1 112.82c-.15.02-.28 0-.42-.09M308.89 91.91c-.4-.25-.44-.82-.24-1.23.21-.41.67-.66 1.07-.41M261.64 39.9h.1c.1.02.19.05.29.08.13.04.25.09.38.14.25.1.5.2.75.31.38.17 1.11.5 1.47.73M193.62 238.84h-.11c-.1-.02-.2-.06-.31-.09-.14-.05-.27-.1-.4-.15-.27-.1-.53-.22-.8-.34-.26-.12-.53-.24-.79-.37-.13-.07-.26-.13-.39-.2-.1-.05-.19-.1-.28-.17-.02-.02-.04-.03-.06-.05 0 0-.02-.02-.01-.03M264.78 41.3s-.02.01-.03.01c-.03 0-.05 0-.08-.01-.1-.02-.2-.06-.31-.09-.14-.05-.27-.1-.4-.15-.27-.11-.53-.22-.8-.34-.26-.12-.53-.24-.79-.37-.13-.06-.26-.13-.39-.2-.1-.05-.19-.1-.28-.17-.02-.02-.04-.03-.06-.05 0 0-.02-.02-.01-.03M264.78 41.3l-6.08 16.88" class="cls-2"/><path d="M264.63 41.17s.06.04.08.06c.01 0 .03.02.04.03 0 0 .03.03.03.04M244.77 271s-.02.01-.03.01c-.03 0-.05 0-.08-.01-.1-.02-.21-.06-.31-.09-.14-.05-.27-.1-.4-.15-.27-.11-.53-.22-.8-.34-.26-.12-.53-.24-.79-.37-.13-.06-.26-.13-.39-.2-.09-.05-.19-.1-.28-.17-.02-.02-.04-.03-.06-.05 0 0-.02-.02-.01-.03M315.93 73.47s-.02.01-.03.01c-.03 0-.05 0-.08-.01-.1-.02-.21-.06-.31-.09-.14-.05-.27-.1-.4-.15-.27-.11-.53-.22-.8-.34-.26-.12-.53-.24-.79-.37-.13-.07-.26-.13-.39-.2-.09-.05-.19-.1-.28-.17-.02-.02-.04-.03-.06-.05 0 0-.02-.02-.01-.03M312.79 72.07h.1c.1.02.19.05.29.08.13.04.25.09.38.14.25.1.5.2.75.31.38.17 1.11.5 1.47.73M315.93 73.47l-6.09 16.9M315.78 73.33s.06.04.08.06c.01.01.03.02.04.03 0 0 .03.03.03.04M196.04 87.91l-6.09 16.9M255.98 80.69l-6.08 16.9M192.89 86.52h.1c.1.02.19.05.29.08.13.04.25.09.38.14.25.1.5.2.75.31.38.17 1.11.5 1.47.73M154.85 202.24s-.02.01-.03.01c-.03 0-.05 0-.08-.01-.1-.02-.2-.06-.31-.09-.14-.05-.27-.1-.4-.15-.27-.11-.53-.22-.8-.34-.26-.12-.53-.24-.79-.37-.13-.06-.26-.13-.39-.2-.09-.05-.19-.1-.28-.17-.02-.02-.04-.03-.06-.05 0 0-.02-.02-.01-.03" class="cls-2"/><path d="M196.04 87.91h-.11c-.1-.02-.2-.06-.31-.09-.14-.05-.27-.1-.4-.15-.27-.1-.53-.22-.8-.34-.26-.12-.53-.24-.79-.37-.13-.07-.26-.13-.39-.2-.09-.05-.19-.1-.28-.17-.02-.02-.04-.03-.06-.05 0 0-.02-.02-.01-.03" class="cls-2"/><path d="M195.88 87.78s.06.04.08.06c.01.01.03.02.04.03 0 0 .03.03.03.04M252.84 79.29h.1c.1.02.19.05.29.08.13.04.25.09.38.14.25.1.5.2.75.31.38.17 1.11.5 1.47.73M255.98 80.69h-.11c-.1-.02-.21-.06-.31-.09-.14-.05-.27-.1-.4-.15-.27-.1-.53-.22-.8-.34-.26-.12-.53-.24-.79-.37-.13-.07-.26-.13-.39-.2-.09-.05-.19-.1-.28-.17-.02-.02-.04-.03-.06-.05 0 0-.02-.02-.01-.03M255.83 80.56s.06.04.08.06c.01.01.03.02.04.03 0 0 .03.03.03.04M183.33 264.46s.07.04.1.05M183.53 264.58l-.2-.12M182.82 263.42c0 .42.17.82.51 1.04M184.12 264.71a.88.88 0 0 1-.59-.13M182.82 263.42v-1.04M183.02 262.5v1.04M136.44 234.97s.07.04.1.05M136.64 235.09l-.2-.12M135.93 233.94c0 .42.17.82.51 1.04M137.23 235.22a.88.88 0 0 1-.59-.13M135.93 233.94v-1.04M136.13 233.02v1.04M190.44 50.95c-.07-.17.02-.35.1-.47.09-.14.2-.26.32-.37.24-.22.5-.39.78-.53s.56-.26.87-.33c.24-.06.66-.12.9.03M193.4 49.29c.06.04.1.08.13.15M103.69 170.08s-.02 0-.03.01c-.03 0-.05 0-.08-.01-.1-.02-.21-.06-.31-.09-.14-.05-.27-.1-.4-.15-.27-.1-.53-.22-.8-.34-.26-.12-.53-.24-.79-.37-.13-.06-.26-.13-.39-.2-.1-.05-.19-.1-.28-.17-.02-.02-.04-.03-.06-.05 0 0-.02-.02-.01-.03M144.88 55.75s-.02.01-.03.01c-.03 0-.05 0-.08-.01-.1-.02-.21-.06-.31-.09-.14-.05-.27-.1-.4-.15-.27-.11-.53-.22-.8-.34-.26-.12-.53-.24-.79-.37-.13-.06-.26-.13-.39-.2-.1-.05-.19-.1-.28-.17-.02-.02-.04-.03-.06-.05 0 0-.02-.02-.01-.03M141.74 54.35h.1c.1.02.19.05.29.08.13.04.25.09.38.14.25.1.5.2.75.31.38.17 1.11.5 1.47.73M144.88 55.75l-5.56 15.44" class="cls-2"/></svg>