<svg xmlns="http://www.w3.org/2000/svg" id="Calque_2" data-name="Calque 2" viewBox="0 0 383.74 531.14"><defs><style>.cls-1{fill:#bfad4e}.cls-1,.cls-2,.cls-3,.cls-4,.cls-5,.cls-6{stroke-width:0}.cls-2{fill:#a6a58f}.cls-7{stroke-width:.25px}.cls-7,.cls-8{fill:none;stroke:#000;stroke-miterlimit:10}.cls-3{fill:#eaa98c}.cls-4{fill:#662612}.cls-8{stroke-width:.5px}.cls-5{fill:#d86a3f}.cls-6{fill:#f7e457}</style></defs><path d="m140.55 73.97 42.79 26.65 1.45 3.67-27.72 78.33-29.36-73.79L139.59 76v-1.55z" class="cls-4"/><path d="m155.43 187.89.7 1.75-4.21 12.09 3.39 1.49 2.58-8.69 26.36 66.84-1.23 1.35-43.6-27.71.27-1.63L110.87 160" class="cls-3"/><path d="m110.87 160-1.34-1 .09-1.15.25-.33L80.88 84.1l-1.54-1.17.08-.93.28-.61.92-.28 43.04 27.16 31.77 79.62z" class="cls-5"/><path d="m260.6 59.51 44.68 28.23-.81 1.21v1.73l-27.22 77.28-27.5-68.34.62-.11v-1.07l-.05-.68 6.14-16.57-3.21-1.53 6.26-17.92-.17-.85.11-.9.4-.28z" class="cls-3"/><path d="m200.34 66.6 43.4 27.26 2.13 5.69-16.24 45.02-.15-1.17.35-.51-28.93-73.14-1.52-1.01-.06-1.17.31-.61zM248.19 104.87l26.6 68.09-41.96-26.13z" class="cls-5"/><path d="m241.61 254.59-38.91-24.51 15.45-42.24 26.13 66.08zM232.83 146.83l-12.87 35.95 26.7 68.28 28.13-78.1z" class="cls-4"/><path d="m140.55 73.97 42.79 26.65 1.45 3.67-27.72 78.33-29.36-73.79L139.59 76v-1.55z" class="cls-1"/><path d="m155.43 187.89.7 1.75-4.21 12.09 3.39 1.49 2.58-8.69 26.36 66.84-1.23 1.35-43.6-27.71.27-1.63L110.87 160" class="cls-6"/><path d="m110.87 160-1.34-1 .09-1.15.25-.33L80.88 84.1l-1.54-1.17.08-.93.28-.61.92-.28 43.04 27.16 31.77 79.62z" class="cls-2"/><path d="m260.6 59.51 44.68 28.23-.81 1.21v1.73l-27.22 77.28-27.5-68.34.62-.11v-1.07l-.05-.68 6.14-16.57-3.21-1.53 6.26-17.92-.17-.85.11-.9.4-.28z" class="cls-6"/><path d="m200.34 66.6 43.4 27.26 2.13 5.69-16.24 45.02-.15-1.17.35-.51-28.93-73.14-1.52-1.01-.06-1.17.31-.61zM248.19 104.87l26.6 68.09-41.96-26.13z" class="cls-2"/><path d="m241.61 254.59-38.91-24.51 15.45-42.24 26.13 66.08zM232.83 146.83l-12.87 35.95 26.7 68.28 28.13-78.1z" class="cls-1"/><path d="M167.86 154.34c-.12-.08-.24-.16-.35-.26M168.91 154.73c-.38-.06-.71-.19-1.05-.4M167.95 154.18a2.4 2.4 0 0 1-.37-.28M170.18 146.67c.48.02.95.17 1.37.43M170.12 146.85c.47.01.93.15 1.35.41M154.99 187.77c-.25-.15-.4-.43-.45-.73s.01-.62.15-.88M154.99 187.77l-45.15-28.39M183.22 262.66l-43.4-27.3M109.78 157.46c-.25.25-.4.61-.4.99 0 .37.16.74.46.93M139.76 233.44l-28.99-73.48M244.91 97.34c-.25-.15-.4-.43-.45-.73s.01-.62.15-.88M244.91 97.34l-45.14-28.39M200.84 66.85a.85.85 0 0 0-.54-.12M200.84 66.85l43.07 27.09M229.68 143.02l-28.99-73.48M200.3 66.73c-.46.06-.82.45-.95.93s0 1.04.41 1.3M245.3 97.47c-.14 0-.27-.05-.39-.12M249.29 99.79c-.4-.25-.44-.82-.24-1.23s.67-.66 1.07-.41M250.13 98.15c.32.2.42.64.32 1.01s-.38.68-.74.72" class="cls-7"/><path d="M249.71 99.88c-.15.02-.28 0-.42-.09M171.27 147.2c-.36-.23-.72-.35-1.13-.39M168.91 154.72l-1.11-.7M213.38 182.69l-41.5-26.1M218.06 176.34s-.08-.05-.12-.08M218.39 176.56l-.21-.15M214.49 183.66c.38.24.76.37 1.19.42M218.18 176.42c-.31-.2-.63-.32-.99-.39M218.35 176.68s-.1-.07-.15-.1M218.2 176.58c-.3-.19-.6-.31-.93-.37M214.02 177.35c-.74.89-1.16 2.1-1.11 3.31.05 1.22.59 2.38 1.58 3" class="cls-7"/><path d="M213.9 177.05c-.8.87-1.27 2.11-1.24 3.36.03 1.26.57 2.46 1.59 3.1" class="cls-7"/><path d="M214.1 177.56c-.69.86-1.07 2.02-1 3.18s.59 2.26 1.53 2.85M171.57 147.35c-.06-.05-.13-.1-.2-.15M168.42 154.41c-.17-.06-.32-.14-.48-.24M233.3 145.29l41.05 25.82M245.2 97.22l-.17-.11M199.36 68.39l-.89-.56" class="cls-7"/><path d="M214.06 177.47c-.7.86-1.1 2.03-1.04 3.2s.58 2.28 1.53 2.88M167.59 153.87c.07.05.14.1.21.14M171.43 147.02s-.08-.05-.12-.08M171.55 147.09l.09.06M167.85 154.11c.12.07.25.13.38.18M171.47 147.26s.07.05.11.07M184.43 261.54l-44.67-28.1M167.5 154.11s.08.05.12.08M155.38 187.89c-.14 0-.27-.05-.39-.12M167.62 154.19s.08.05.12.07M171.31 146.94c-.34-.21-.69-.34-1.08-.4M167.86 154.34l-.24-.15M171.31 146.94l.24.15M167.95 154.18l-.2-.13M155.11 187.54c-.35-.22-.43-.7-.3-1.08M139.76 233.44c-.25.25-.4.61-.4.99 0 .37.16.74.46.93M245.03 97.11c-.35-.22-.43-.7-.3-1.09M229.68 143.02l.65.4M174.53 149.24 212.3 173M217.94 176.26c-.25-.16-.51-.27-.79-.34M218.12 176.53c-.28-.17-.56-.29-.87-.36M195.82 64.37c-.27.12-.46.39-.53.7s0 .65.21.87M214.25 183.51s.08.05.12.07M214.63 183.59c.35.22.7.34 1.09.39M171.27 147.2l.29.18M214.49 183.66l-.24-.15M217.94 176.26l.24.16M125.01 111.79c-.25-.15-.4-.43-.45-.73s.01-.62.15-.88M125.01 111.79 79.87 83.4M80.94 81.3a.85.85 0 0 0-.54-.12M80.94 81.3l43.07 27.08M109.78 157.46 80.79 83.98M80.4 81.18c-.46.05-.82.45-.95.93s0 1.04.41 1.3M125.4 111.91c-.14 0-.27-.05-.39-.12M275 173.09c-.35-.22-.43-.7-.3-1.09M200.49 225.92c-.5-.05-.94.34-1.11.83-.17.5-.07 1.12.38 1.4M229.68 143.02c-.24.24-.39.59-.4.95 0 .36.12.72.4.93M218.3 176.49l11.38-31.6M200.49 225.92l15.08-41.86M243.96 253.25l-40.4-25.41M275.28 173.45h-.05M200.59 225.98l-.1-.06M109.78 157.46l44.68 28.1" class="cls-7"/><path d="M125.13 111.56c-.35-.22-.43-.7-.3-1.08M274.83 173.28c-.47-.35-.5-1.06-.23-1.56M232.75 146.82l42.08 26.46M241.94 254.66l-39.17-24.63M199.8 228.16l-.03-.02M229.68 144.89l.1.06M274.83 173.28l-28.03 77.8M275.23 173.44l-28.19 78.26M140.89 74.07a.85.85 0 0 0-.54-.12M140.89 74.07l43.07 27.09M127.93 108.96l11.83-32.82M184.9 104.52l-28.03 77.81M185.31 104.69l-28.19 78.25M140.35 73.95c-.44.05-.8.43-.94.89-.13.46-.04 1 .34 1.29M184.9 104.52c-.47-.35-.5-1.06-.23-1.56M260.25 59.51c-.44.05-.8.43-.94.89s-.04 1 .34 1.29M247.83 94.51l11.83-32.82M304.98 89.89c-.4-.25-.44-.82-.24-1.23.21-.41.67-.66 1.07-.41M185.35 104.69h-.05" class="cls-7"/><path d="M185.08 104.33c-.35-.22-.43-.7-.3-1.09M139.76 76.14l45.14 28.38M304.8 90.08l-28.03 77.8M304.8 90.08c-.38-.29-.48-.83-.34-1.29.13-.46.49-.84.94-.89M305.51 90.22c-.1.03-.2.03-.3.02M259.66 61.69l45.14 28.39M305.93 88.02c.2.12.34.33.41.57M260.79 59.63a.85.85 0 0 0-.54-.12M260.79 59.63l45.14 28.39" class="cls-7"/><path d="M305.4 87.9q.285-.03.54.12M305.21 90.24l-28.19 78.25" class="cls-7"/><path d="M329.32 458.93c.04.1.04.18.01.28-.03.14-.09.25-.16.36-.13.19-.27.34-.44.49-.33.29-.68.51-1.07.7s-.77.33-1.18.4c-.21.04-.41.05-.62.03a.76.76 0 0 1-.35-.11c-.08-.05-.14-.1-.17-.2" class="cls-8"/><path d="M328.73 458.7c.07.18-.03.37-.12.5-.1.15-.22.27-.35.38-.26.23-.54.4-.84.55s-.61.26-.93.32a1.6 1.6 0 0 1-.49.02c-.14-.02-.34-.06-.41-.24M280.88 428.47c.04.09.04.18.01.28-.03.14-.09.25-.16.36-.13.19-.28.34-.44.49-.33.29-.68.51-1.07.7-.38.19-.77.33-1.18.4-.21.04-.41.05-.62.03a.76.76 0 0 1-.35-.11c-.08-.05-.14-.1-.17-.2" class="cls-8"/><path d="M280.29 428.24c.07.18-.03.37-.12.5-.1.15-.22.27-.35.38-.26.23-.54.4-.84.55s-.61.26-.93.31a1.6 1.6 0 0 1-.49.02c-.14-.02-.34-.06-.41-.24M110.03 487.55s-.02.01-.03.01c-.03 0-.05 0-.08-.01-.11-.02-.21-.06-.31-.09-.14-.05-.27-.1-.41-.15-.27-.11-.54-.22-.81-.34s-.53-.24-.8-.37c-.13-.07-.26-.13-.39-.2-.1-.05-.19-.11-.28-.17-.02-.02-.04-.03-.06-.05 0 0-.02-.02-.01-.03M59.13 456.05s-.03.01-.04.01c-.03 0-.07 0-.1-.01q-.195-.045-.39-.12c-.17-.06-.35-.13-.52-.19-.34-.14-.69-.28-1.03-.43s-.68-.31-1.01-.47c-.17-.08-.33-.17-.5-.26-.12-.07-.24-.13-.36-.22a.3.3 0 0 1-.08-.07s-.02-.02-.02-.04M58.87 455.38s-.02.01-.03.01c-.03 0-.05 0-.08-.01-.11-.02-.21-.06-.31-.09-.14-.05-.27-.1-.41-.15-.27-.11-.54-.22-.81-.34s-.53-.24-.8-.37c-.13-.07-.26-.13-.39-.2-.1-.05-.19-.11-.28-.17-.02-.02-.04-.03-.06-.05 0 0-.02-.02-.01-.03M58.86 455.35s.01.01.01.02M328.67 458.6s.05.06.07.1M328.64 458.55l.36.12M325.59 460.24s-.02-.08-.02-.12M329 458.67c.05.02.1.04.15.07M325.38 460.43c.06-.12.11-.25.17-.37M330.04 460.75c.02.06.04.13.05.2.03.21-.01.42-.09.6v.01c-.02.03-.03.07-.05.1-.1.19-.25.36-.43.53q-.24.225-.54.42c-.42.27-.89.47-1.34.58-.38.09-.72.1-1.01 0-.08-.02-.15-.06-.22-.1a.84.84 0 0 1-.34-.4M325.34 460.87c-.06-.15-.02-.31.04-.44M326.06 462.69l-.71-1.8M329.32 458.93l.72 1.82M329.15 458.73c.08.05.13.1.17.2M280.23 428.14s.05.06.07.1M280.2 428.09l.36.12M277.15 429.77s-.02-.08-.02-.12M281.6 430.29c.02.06.04.13.05.2.03.21-.01.42-.09.6v.01c-.02.03-.03.07-.05.1-.11.19-.25.37-.43.53q-.24.225-.54.42c-.42.27-.89.47-1.34.58-.38.09-.72.1-1.01 0-.08-.03-.15-.06-.22-.1a.84.84 0 0 1-.34-.4M280.56 428.21c.05.02.1.04.15.07M276.94 429.97c.05-.12.11-.25.17-.37M276.9 430.41c-.06-.15-.02-.31.04-.44M277.62 432.23l-.71-1.8M280.88 428.47l.72 1.82M280.71 428.27c.08.05.13.1.17.2M110.28 488.21s-.03.01-.04.01c-.03 0-.07 0-.1-.01q-.195-.045-.39-.12c-.18-.06-.35-.13-.52-.19-.34-.14-.69-.28-1.03-.43s-.68-.31-1.01-.47c-.17-.08-.33-.17-.5-.26-.12-.07-.24-.14-.36-.22a.3.3 0 0 1-.08-.07s-.02-.02-.02-.04M110.01 487.52s.01.01.01.02M110.03 487.54c.08.22.17.44.26.66M109.57 490.2c-.05.14-.15.25-.27.3-.08.04-.15.05-.22.05-.05 0-.1 0-.14-.01-.12-.02-.22-.06-.39-.11-.14-.05-.31-.11-.49-.19-.39-.15-.82-.35-1.23-.54-.42-.2-.73-.36-.94-.49-.07-.04-.13-.08-.19-.13a.53.53 0 0 1-.17-.24.56.56 0 0 1 0-.42M106.85 486.13h.02M110.28 488.2v.01M110.03 487.54v.01M106.25 486.41c.2-.09.4-.19.59-.28M105.53 488.4l.72-1.98M110.28 488.21l-.71 1.99M58.87 455.37c.08.22.17.44.26.66M55.7 453.96h.02M59.13 456.03v.01M55.1 454.24c.2-.09.4-.19.59-.28M58.41 458.03c-.05.14-.15.25-.27.3-.08.04-.15.05-.22.05-.05 0-.1 0-.14-.01-.12-.02-.22-.06-.39-.11-.14-.05-.31-.11-.49-.19-.39-.15-.82-.35-1.23-.54-.41-.2-.73-.36-.94-.49-.07-.04-.13-.08-.19-.13a.53.53 0 0 1-.17-.24.56.56 0 0 1 0-.42M54.38 456.24l.71-1.99M59.13 456.05l-.72 1.98M145.08 56.27l.09.06c.01 0 .03.02.04.03 0 0 .03.03.03.04M73.99 64.55c.07.18-.03.37-.12.49-.1.15-.21.27-.34.38-.26.23-.53.4-.83.54-.3.15-.6.25-.92.31-.16.03-.32.04-.48.02-.14-.02-.34-.06-.41-.24M136.6 232.61 70.9 66.08M142.05 246.45l-4.18-10.6M122.43 95.01c.07.18-.03.37-.12.5-.1.15-.21.27-.34.38-.26.23-.53.4-.83.54s-.6.25-.92.31c-.16.03-.32.04-.48.02-.14-.02-.34-.06-.41-.24M156.21 189.99l-36.87-93.45M186.18 265.97l-28.07-71.15M160 190.25l27.94 70.83M122.43 95.01l35.54 90.09M182.38 87.79c.07.18-.03.37-.12.5-.1.15-.21.27-.34.38-.26.23-.53.4-.83.54s-.6.25-.92.31c-.16.03-.32.04-.48.02-.14-.02-.34-.06-.41-.24M186.18 106.79l-6.89-17.48M216.16 182.77l-28.07-71.16M246.13 258.75l-28.07-71.15M325.66 460.34l-77.63-196.76M249.92 259.01l78.83 199.82M219.82 182.7l28.07 71.16M189.98 107.04l27.94 70.83M182.38 87.79l5.56 14.1M249.92 99.82l27.95 70.83M242.33 80.56l5.56 14.11M246.13 99.56l-6.89-17.47M276.1 175.54l-28.07-71.15M214.58 261.74l65.73 166.63M173.5 157.6l26.42 66.99M133.94 57.33l6.56 16.62M138.76 78.91l-7.91-20.06M196.4 225.01l-25.7-65.14M198.77 231.03l-.95-2.4M277.22 429.88l-66.17-167.71M137.91 235.93 58.84 455.39M185.12 94.75l10.83-30.06M55.7 454 136 231.1M159.37 190.22c-.4-.25-.44-.82-.24-1.23.21-.41.67-.66 1.07-.41M160.2 188.58c.32.2.42.64.32 1.01s-.38.68-.74.72" class="cls-8"/><path d="M159.79 190.31c-.15.02-.28 0-.42-.09M189.34 107.01c-.4-.25-.44-.82-.24-1.23.21-.41.67-.66 1.07-.41M190.18 105.38c.32.2.42.64.32 1.01s-.38.68-.74.72M189.76 107.11c-.15.02-.28 0-.42-.09M279.27 175.77c-.4-.25-.44-.82-.24-1.23s.67-.66 1.07-.41M280.1 174.14c.32.2.42.64.32 1.01s-.38.68-.74.72M279.68 175.86c-.15.02-.28 0-.42-.09M310.07 90.93c.32.2.42.64.32 1.01s-.38.68-.74.72M306.6 90.9l-1.62-1.01M305.81 88.25l1.42.89" class="cls-8"/><path d="M309.66 92.66c-.15.02-.28 0-.42-.09M249.29 258.98c-.4-.25-.44-.82-.24-1.23.21-.41.67-.66 1.07-.41M250.13 257.34c.32.2.42.64.32 1.01s-.38.68-.74.72M195.82 223.56c-.27.12-.46.39-.53.7s0 .65.21.87" class="cls-8"/><path d="M249.71 259.07c-.15.02-.28 0-.42-.09M189.34 266.2c-.4-.25-.44-.82-.24-1.23.21-.41.67-.66 1.07-.41M190.18 264.56c.32.2.42.64.32 1.01s-.38.68-.74.72M189.76 266.29c-.15.02-.28 0-.42-.09M245.07 87.52l16.92-46.96M215.1 170.73l10.83-30.05M195.5 225.13l.45-1.25M197.89 228.62l-3.92 10.87M214.17 183.43l-14.55 40.38M258.42 60.6l-11.44 31.75M249.66 259.07l-4.54 12.59M279.63 175.87l-29.38 81.57M241.98 270.26l71.16-197.53M152.06 201.51l41.19-114.34M159.73 190.31l-4.53 12.59M189.71 107.11l-29.39 81.57M106.86 486.16 253.2 79.95M189.71 266.3 110 487.56M249.66 99.89l-59.37 164.78M183.88 265.24c-.34-.21-.51-.62-.51-1.04M245.83 257.98l-55.54 6.69M191.72 260.71l52.68-6.35M244.46 254.5l-52.79 6.36M184.28 261.61c-.64.08-1.11.74-1.11 1.43" class="cls-8"/><path d="M183.37 263.16c0-.69.47-1.36 1.11-1.43M136.99 235.75c-.34-.21-.51-.62-.51-1.04M140.16 235.57l-2.58.31M199.72 228.4l-23.55 2.84M174.75 227.62l26.27-3.17M137.39 232.12l1.76-.21M139.21 232.05l-1.63.19M200.96 224.61l-26.16 3.15M137.39 232.12c-.64.08-1.11.74-1.11 1.43" class="cls-8"/><path d="M136.48 233.68c0-.69.47-1.36 1.11-1.43M193.89 50.1c.07.18-.03.37-.12.5-.1.15-.21.27-.34.38-.26.23-.53.4-.83.54-.3.15-.6.25-.92.31-.16.03-.32.04-.48.02-.14-.02-.34-.06-.41-.24M228.68 147.66 190.8 51.63M193.89 50.1l6.56 16.63M125.18 101.97 136 71.92M100.91 169.34l5.12-14.22M189.98 266.23l3.61 9.17M202.44 230.96l10.71 27.17M209.63 258.55l-8.96-22.7M168.8 155.05l-.15-.37M197.71 59.8l4.33-12.01M279.9 175.8l3.62 9.17M197.86 69.52l-10.83 30.06M125.31 111.67l-.18-.11M275.18 173.2l-.18-.11M242.98 93.35l.33-.93M197.71 218.99l13.56-37.63M184.51 261.72l-.04.01M123.08 107.8l.33-.94M137.76 67.02l4.33-12.01M105.9 154.8c-.27.12-.46.39-.53.7s0 .65.21.87M155.28 187.65l-.17-.11M109.43 158.82l-.89-.56M135.88 71.6c-.27.12-.46.39-.53.7s0 .65.21.87M185.26 104.44l-.18-.11M139.41 75.61l-.89-.56M137.91 76.75l-10.83 30.05M107.93 159.95l-3.88 10.79M309.61 92.66l-29.39 81.57M135.87 230.78c-.27.12-.46.39-.53.7s0 .65.21.87M185.88 265.2l-1.41.17M190.49 276.91l-2.4-6.11M242.33 80.56c.07.18-.03.37-.12.5-.1.15-.21.27-.34.38-.26.23-.53.4-.83.54s-.6.25-.92.31c-.16.03-.32.04-.48.02-.14-.02-.34-.06-.41-.24M280.42 186.48l-2.41-6.11M133.94 57.33c.07.18-.03.37-.12.5-.1.15-.21.27-.34.38-.26.23-.53.4-.83.54-.3.15-.6.25-.92.31-.16.03-.32.04-.48.02-.14-.02-.34-.06-.41-.24M141.89 236.67l3.26 8.27M73.99 64.55l6.56 16.62M70.89 66.06c-.07-.17.02-.35.1-.47.09-.14.2-.26.32-.37.24-.22.5-.39.78-.53s.56-.26.87-.33c.24-.05.66-.12.9.03M145.15 244.94c.07.18-.03.37-.12.5-.1.15-.21.27-.34.38-.26.23-.53.4-.83.54s-.6.25-.92.31c-.16.03-.32.04-.48.02-.14-.02-.34-.06-.41-.24M73.86 64.4c.06.04.1.08.13.15M119.33 96.52c-.07-.17.02-.35.1-.47.09-.14.2-.26.32-.37.24-.22.5-.39.78-.53s.56-.26.87-.33c.24-.06.66-.12.9.03M193.59 275.4c.07.18-.03.37-.12.5-.1.15-.21.27-.34.38-.26.23-.53.4-.83.54-.3.15-.6.25-.92.31-.16.03-.32.04-.48.02-.14-.02-.34-.06-.41-.24M122.3 94.86c.06.04.1.08.13.15M179.28 89.3c-.07-.17.02-.35.1-.47.09-.14.2-.26.32-.37.24-.22.5-.39.78-.53s.56-.26.87-.33c.24-.06.66-.12.9.03M182.25 87.63c.06.04.1.08.13.15M283.52 184.97c.07.18-.03.37-.12.5-.1.15-.21.27-.34.38-.26.23-.53.4-.83.54s-.6.25-.92.31c-.16.03-.32.04-.48.02-.14-.02-.34-.06-.41-.24M239.23 82.07c-.07-.17.02-.35.1-.47.09-.14.2-.26.32-.37.24-.22.5-.39.78-.53s.56-.26.87-.33c.24-.05.66-.12.9.03M242.2 80.41c.06.04.1.08.13.15M183.03 100.57l.33-.93M130.84 58.84c-.07-.17.02-.35.1-.47.09-.14.2-.26.32-.37.24-.22.5-.39.78-.53s.56-.26.87-.33c.24-.05.66-.12.9.03M133.81 57.17c.06.04.1.08.13.15M205.18 49.18s-.02.01-.03.01c-.03 0-.05 0-.08-.01-.1-.02-.2-.06-.31-.09-.14-.05-.27-.1-.4-.15-.27-.11-.53-.22-.8-.34-.26-.12-.53-.24-.79-.37-.13-.06-.26-.13-.39-.2-.1-.05-.19-.1-.28-.17-.02-.02-.04-.03-.06-.05 0 0-.02-.02-.01-.03" class="cls-8"/><path d="M202.04 47.79h.1c.1.02.19.05.29.08.13.04.25.09.38.14.25.1.5.2.75.31.38.17 1.11.5 1.47.73M205.18 49.18l-5.56 15.45M205.03 49.05l.09.06c.01 0 .03.02.04.03 0 0 .03.03.03.04M246.44 257.9h-.01M184.28 261.61l.17-.02M225.8 140.35c-.27.12-.46.39-.53.7s0 .65.21.87M229.33 144.37l-.89-.56M227.83 145.5 217 175.56M139.15 73.29l1.09.69M125.32 111.68v.01M190.83 238.1l3.25-9.02M256.04 57.08c-.34.01-.63.28-.76.62s-.09.76.17 1.02M259.31 61.17l-.89-.56M259.05 58.84l1.09.69M245.22 97.23v.01M128.04 113.38c-.4-.25-.44-.82-.24-1.23.21-.41.67-.66 1.07-.41M128.87 111.75c.32.2.42.64.32 1.01s-.38.68-.74.72" class="cls-8"/><path d="M128.46 113.48c-.15.02-.28 0-.42-.09M309.24 92.57c-.4-.25-.44-.82-.24-1.23.21-.41.67-.66 1.07-.41M261.99 40.56h.1c.1.02.19.05.29.08.13.04.25.09.38.14.25.1.5.2.75.31.38.17 1.11.5 1.47.73M193.97 239.49h-.11c-.1-.02-.2-.06-.31-.09-.14-.05-.27-.1-.4-.15-.27-.1-.53-.22-.8-.34-.26-.12-.53-.24-.79-.37-.13-.07-.26-.13-.39-.2-.1-.05-.19-.1-.28-.17-.02-.02-.04-.03-.06-.05 0 0-.02-.02-.01-.03M265.13 41.96s-.02.01-.03.01c-.03 0-.05 0-.08-.01-.1-.02-.2-.06-.31-.09-.14-.05-.27-.1-.4-.15-.27-.11-.53-.22-.8-.34-.26-.12-.53-.24-.79-.37-.13-.06-.26-.13-.39-.2-.1-.05-.19-.1-.28-.17-.02-.02-.04-.03-.06-.05 0 0-.02-.02-.01-.03M265.13 41.96l-6.08 16.88M264.98 41.83s.06.04.08.06c.01 0 .03.02.04.03 0 0 .03.03.03.04M245.12 271.66s-.02.01-.03.01c-.03 0-.05 0-.08-.01-.1-.02-.21-.06-.31-.09-.14-.05-.27-.1-.4-.15-.27-.11-.53-.22-.8-.34-.26-.12-.53-.24-.79-.37-.13-.06-.26-.13-.39-.2-.09-.05-.19-.1-.28-.17-.02-.02-.04-.03-.06-.05 0 0-.02-.02-.01-.03M316.28 74.12s-.02.01-.03.01c-.03 0-.05 0-.08-.01-.1-.02-.21-.06-.31-.09-.14-.05-.27-.1-.4-.15-.27-.11-.53-.22-.8-.34-.26-.12-.53-.24-.79-.37-.13-.07-.26-.13-.39-.2-.09-.05-.19-.1-.28-.17-.02-.02-.04-.03-.06-.05 0 0-.02-.02-.01-.03" class="cls-8"/><path d="M313.14 72.73h.1c.1.02.19.05.29.08.13.04.25.09.38.14.25.1.5.2.75.31.38.17 1.11.5 1.47.73M316.28 74.12l-6.08 16.91M316.13 73.99s.06.04.08.06c.01.01.03.02.04.03 0 0 .03.03.03.04M196.39 88.57l-6.09 16.9M256.34 81.35l-6.09 16.9M193.25 87.17h.1c.1.02.19.05.29.08.13.04.25.09.38.14.25.1.5.2.75.31.38.17 1.11.5 1.47.73M155.2 202.9s-.02.01-.03.01c-.03 0-.05 0-.08-.01-.1-.02-.2-.06-.31-.09-.14-.05-.27-.1-.4-.15-.27-.11-.53-.22-.8-.34-.26-.12-.53-.24-.79-.37-.13-.06-.26-.13-.39-.2-.09-.05-.19-.1-.28-.17-.02-.02-.04-.03-.06-.05 0 0-.02-.02-.01-.03M196.39 88.57h-.11c-.1-.02-.2-.06-.31-.09-.14-.05-.27-.1-.4-.15-.27-.1-.53-.22-.8-.34-.26-.12-.53-.24-.79-.37-.13-.07-.26-.13-.39-.2-.09-.05-.19-.1-.28-.17-.02-.02-.04-.03-.06-.05 0 0-.02-.02-.01-.03" class="cls-8"/><path d="M196.23 88.44s.06.04.08.06c.01.01.03.02.04.03 0 0 .03.03.03.04M253.2 79.95h.1c.1.02.19.05.29.08.13.04.25.09.38.14.25.1.5.2.75.31.38.17 1.11.5 1.47.73M256.34 81.35h-.11c-.1-.02-.21-.06-.31-.09-.14-.05-.27-.1-.4-.15-.27-.1-.53-.22-.8-.34-.26-.12-.53-.24-.79-.37-.13-.07-.26-.13-.39-.2-.09-.05-.19-.1-.28-.17-.02-.02-.04-.03-.06-.05 0 0-.02-.02-.01-.03" class="cls-8"/><path d="M256.18 81.22s.06.04.08.06c.01.01.03.02.04.03 0 0 .03.03.03.04M183.69 265.12s.07.04.1.05M183.88 265.24l-.19-.12M183.17 264.08c0 .42.17.82.51 1.04M184.47 265.37a.88.88 0 0 1-.59-.13M183.17 264.08v-1.04M183.37 263.16v1.04M136.8 235.63s.07.04.1.05M136.99 235.75l-.19-.12M136.28 234.59c0 .42.17.82.51 1.04M137.58 235.88a.88.88 0 0 1-.59-.13M136.28 234.59v-1.04M136.48 233.68v1.04M190.79 51.61c-.07-.17.02-.35.1-.47.09-.14.2-.26.32-.37.24-.22.5-.39.78-.53s.56-.26.87-.33c.24-.06.66-.12.9.03M193.76 49.95c.06.04.1.08.13.15M104.05 170.74s-.02 0-.03.01c-.03 0-.05 0-.08-.01-.1-.02-.21-.06-.31-.09-.14-.05-.27-.1-.4-.15-.27-.1-.53-.22-.8-.34-.26-.12-.53-.24-.79-.37-.13-.06-.26-.13-.39-.2-.1-.05-.19-.1-.28-.17-.02-.02-.04-.03-.06-.05 0 0-.02-.02-.01-.03M145.23 56.41s-.02.01-.03.01c-.03 0-.05 0-.08-.01-.1-.02-.21-.06-.31-.09-.14-.05-.27-.1-.4-.15-.27-.11-.53-.22-.8-.34-.26-.12-.53-.24-.79-.37-.13-.06-.26-.13-.39-.2-.1-.05-.19-.1-.28-.17-.02-.02-.04-.03-.06-.05 0 0-.02-.02-.01-.03M142.09 55.01h.1c.1.02.19.05.29.08.13.04.25.09.38.14.25.1.5.2.75.31.38.17 1.11.5 1.47.73M145.23 56.41l-5.56 15.44" class="cls-8"/></svg>