<svg xmlns="http://www.w3.org/2000/svg" viewBox="0 0 209.49 491.81"><defs><style>.cls-1,.cls-2{stroke-width:.25px;fill:#fff;stroke:#000;stroke-linecap:round;stroke-linejoin:round}.cls-2{stroke-width:.5px}.cls-3{fill:#333;font-family:ArialMT,Arial;font-size:17.02px}.cls-4{fill:none;stroke:#333;stroke-miterlimit:10;stroke-width:.15px}</style></defs><g id="cote"><path d="M49.04 487.52h-20.2M49.04 252.9h-20.2M29.41 488.37V378.34M29.41 362.13V252.05M28.49 486.73l1.7 1.7.14-.13-1.7-1.7-.14.13M30.33 253.68l-1.7-1.7-.14.14 1.7 1.7.14-.14M49.04 77.45h-20.2M49.04 60.17h-20.2M29.41 78.3v-5.67M29.41 65.11v-5.79M28.49 76.67l1.7 1.7.14-.14-1.7-1.7-.14.14M30.33 60.95l-1.7-1.7-.14.14 1.7 1.7.14-.14M29.13 487.52H8.93M29.13 60.24H8.94M9.5 488.37V285.34M9.5 263.59V59.39M8.58 486.73l1.7 1.7.14-.13-1.7-1.7-.14.13M10.42 61.02l-1.7-1.7-.14.13 1.7 1.7.14-.13M57.26 60.17V21.18M195.02 60.17V21.18M56.41 21.75h61.17M134.28 21.75h61.59M58.04 20.83l-1.7 1.7.14.14 1.7-1.7-.14-.14M194.24 22.67l1.7-1.7-.13-.14-1.71 1.7.14.14M49.32 60.17V21.18M57.26 60.17V21.18M48.47 21.75h1.06M56.99 21.75h1.12M50.1 20.83l-1.7 1.7.14.14 1.7-1.7-.14-.14" class="cls-4"/><path d="m56.48 22.67 1.7-1.7-.14-.14-1.7 1.7.14.14M195.02 60.17V21.18M202.96 60.17V21.18M194.17 21.75h1.06M202.69 21.75h1.12M195.81 20.83l-1.71 1.7.14.14 1.7-1.7-.13-.14M202.18 22.67l1.7-1.7-.14-.14-1.7 1.7.14.14M49.04 252.9h-20.2M49.04 77.45h-20.2M29.41 253.75v-80.38M29.41 157.23V76.6M28.49 252.12l1.7 1.7.14-.14-1.7-1.7-.14.14M30.33 78.23l-1.7-1.7-.14.14 1.7 1.7.14-.14" class="cls-4"/></g><g id="Calque_5" data-name="Calque 5"><text class="cls-3" transform="rotate(-90 207.02 171.94)"><tspan x="0" y="0">83</tspan></text><text class="cls-3" transform="rotate(-90 54.135 19.055)"><tspan x="0" y="0">6</tspan></text><text class="cls-3" transform="matrix(0 -1 1 0 15.17 287)"><tspan x="0" y="0">151</tspan></text><text class="cls-3" transform="translate(117.39 27.42)"><tspan x="0" y="0">49</tspan></text><text class="cls-3" transform="translate(48.91 27.42)"><tspan x="0" y="0">3</tspan></text><text class="cls-3" transform="translate(194.62 27.42)"><tspan x="0" y="0">3</tspan></text><text class="cls-3" transform="rotate(-90 104.505 69.425)"><tspan x="0" y="0">62</tspan></text></g><g id="Make2D::Visible"><path d="M194.94 160.92v3.2600000000000002M53.29 250.91v-84.74M57.26 60.17v17.28M192.19 77.45h2.83M57.26 77.45h2.84M60.09 79.44h-2.83M195.02 79.44h-2.83M200.69 79.44h-1.7M198.99 483.37V252.9M58.28 164.18v-3.4M58.28 169.57v-3.4M57.57 166.17v3.4M57.57 160.78v3.4M53.11 483.22l.48.4M53.86 484.07v2.08M57.83 484.07c0 .37-.47.62-.74.73-.34.14-.69.21-1.06.26-.69.09-1.49.06-2.17-.13M57.29 483.58c0 .32-.43.52-.66.6-.3.11-.6.17-.92.19-.58.05-1.3 0-1.86-.22M194.71 166.17v3.4M194.71 160.78s0 0 0 0v3.4M194 166.17v3.4M194 160.78v3.4M57.26 252.47v1.42M57.83 253.89v-1.42M57.26 249.92v1.42M57.83 251.34v-1.42M194.46 252.47v1.41s0 0 0 0M195.02 253.89v-1.42M194.46 249.92v1.42M195.02 251.34v-1.42M195.02 77.45V60.17M195.02 483.72V266.08M198.43 484.93c-.68.18-1.48.21-2.17.13-.37-.05-.72-.12-1.06-.26-.26-.11-.74-.35-.74-.73M198.43 484.16c-.55.22-1.28.27-1.86.22-.32-.03-.62-.08-.92-.19-.22-.08-.66-.28-.66-.6M200.98 487.52c-.6 0-1.16-.09-1.62-.28-.2-.08-.37-.18-.52-.3-.04-.03-.08-.07-.11-.1a.98.98 0 0 1-.3-.69M203.26 483.62c-.94-.77-3.64-.77-4.58 0M198.69 483.62l.48-.4M202.78 483.22l.48.4M198.42 486.15v-2.08M57.26 266.08v217.64M53.29 252.9v230.47M192.19 164.18h2.83M57.26 164.18h2.83M60.09 166.17h-2.83M195.02 166.17h-2.83M192.19 79.72v-2.56" class="cls-2"/><path d="M60.09 164.15V79.72M192.19 79.72v84.43" class="cls-1"/><path d="M60.09 77.17v2.56M192.19 166.45v-2.3M60.09 164.15v2.29" class="cls-2"/><path d="M60.09 250.88v-84.43M192.19 166.45v84.43" class="cls-1"/><path d="M60.09 250.88v2.3M192.19 253.18v-2.3M57.26 166.17v83.75M198.99 250.91v-71.56M202.96 179.35v71.56M202.96 252.9v230.47M57.34 166.17v3.2600000000000002M57.26 483.44s.03.09.03.14M57.26 483.37c.1.08.2.17.3.25M195.02 164.18V79.44M194.94 166.17v3.2600000000000002M57.83 250.91h2.27M202.96 250.91h1.7M194.46 252.9h-2.27M194 169.31h-1.81M58.28 161.04h1.81M57.26 79.44v84.74M198.99 266.08c0 .21-.18.35-.33.44-.17.1-.34.17-.53.22-.37.11-.75.14-1.13.14s-.76-.04-1.13-.14c-.19-.05-.36-.12-.53-.22-.15-.09-.33-.23-.33-.44M57.26 253.89v12.19M198.99 77.45h1.7M53.29 79.44h-1.7M53.29 60.17c0-.2.18-.35.33-.44.17-.1.34-.17.53-.22.37-.11.75-.14 1.13-.14M57.26 266.08c0 .21-.18.35-.33.44-.17.1-.34.17-.53.22-.37.11-.75.14-1.13.14s-.76-.04-1.13-.14c-.19-.05-.36-.12-.53-.22-.15-.09-.33-.23-.33-.44M57.26 60.17c0 .21-.18.35-.33.44-.17.1-.34.17-.53.22-.37.11-.75.14-1.13.14s-.76-.04-1.13-.14c-.19-.05-.36-.12-.53-.22-.15-.09-.33-.23-.33-.44M55.28 59.37c.39 0 .76.04 1.13.14.19.05.36.12.53.22.14.09.33.24.33.44M51.59 77.45s0 0 0 0v1.98M51.59 77.45h1.7M200.69 79.44v-1.98M57.57 169.43h-.23M57.34 160.92h.23M58.28 169.57h-.71M57.57 160.78h.71M57.34 160.92v3.2600000000000002M53.86 484.07c0-.19-.13-.35-.26-.46M198.99 60.17v17.28M57.83 486.15c0 .27-.12.51-.3.69-.04.04-.07.07-.11.1-.15.12-.33.22-.52.3-.46.18-1.02.28-1.62.28s-1.16-.09-1.62-.28c-.13-.05-.26-.12-.37-.19M57.56 483.62c.13.11.26.27.26.46M57.83 484.07v2.08M195.02 249.92v-83.75M194.71 169.57H194M194 160.78h.71M194.94 169.43h-.23M194.71 160.92h.23M57.83 253.89h-.57M57.83 249.92h-.57M57.26 252.47v-1.13M57.83 251.34v1.13M195.02 253.89h-.56M195.02 249.92h-.56M194.46 252.47v-1.13M195.02 251.34v1.13M195.02 60.17c0-.2.18-.35.33-.44.17-.1.34-.17.53-.22.37-.11.75-.14 1.13-.14M198.99 60.17c0 .21-.18.35-.33.44-.17.1-.34.17-.53.22-.37.11-.75.14-1.13.14s-.76-.04-1.13-.14c-.19-.05-.36-.12-.53-.22-.15-.09-.33-.23-.33-.44M195.02 266.08v-12.19" class="cls-2"/><path d="M197.01 59.37c.39 0 .76.04 1.13.14.18.05.36.12.53.22.14.09.33.24.33.44M60.09 252.9h-2.26M198.99 487.05a3 3 0 0 1-.37.19c-.46.18-1.02.28-1.62.28s-1.16-.09-1.62-.28c-.2-.08-.37-.18-.52-.3-.04-.03-.08-.07-.11-.1a.98.98 0 0 1-.3-.69M195 483.58s0-.09.03-.14M194.72 483.62c.1-.08.2-.17.3-.25M194.46 484.07c0-.19.13-.35.26-.46M194.46 486.15v-2.08M203.53 486.15c0 .27-.12.51-.3.69-.04.04-.07.07-.11.1-.15.12-.33.22-.52.3-.46.18-1.02.28-1.62.28M198.69 483.62c-.13.11-.26.27-.26.46M202.78 483.22c-.74-.61-2.87-.61-3.61 0M203.53 484.07c0-.19-.13-.35-.26-.46M203.53 484.07v2.08M192.19 79.72H60.09M192.19 250.91h2.27M204.66 252.9h-1.7M49.32 252.9h-1.7M204.66 250.91v1.99M47.62 250.91v1.99M47.62 250.91h1.7M204.66 252.9v-1.97h0v-.02M60.09 164.15h132.1M198.99 164.18V79.44M202.96 79.44v84.74M202.96 166.17v13.18M202.96 77.45h1.7M202.96 164.18h1.7M198.99 179.35c0 .2.18.35.33.44.17.1.34.17.53.22.37.11.75.14 1.13.14M202.96 179.35c0-.21-.18-.35-.33-.44-.17-.1-.34-.17-.53-.22-.37-.11-.75-.14-1.13-.14s-.76.04-1.13.14c-.19.05-.36.12-.53.22-.15.09-.33.24-.33.44" class="cls-2"/><path d="M202.96 60.17c0-.21-.18-.35-.33-.44-.17-.1-.34-.17-.53-.22-.37-.11-.75-.14-1.13-.14s-.76.04-1.13.14c-.19.05-.36.12-.53.22-.15.09-.33.24-.33.44M198.99 179.35v-13.18M202.96 60.17v17.28M200.98 180.15c.39 0 .76-.04 1.13-.14.19-.05.36-.12.53-.22.14-.09.33-.24.33-.44M204.66 79.44h-1.7M204.66 79.44v-1.98M204.66 166.17h-1.7M204.66 166.17v-1.98M60.09 169.31h-1.81M192.19 161.04H194M60.09 77.17h132.1M60.09 79.7h132.1M192.19 166.45H60.09M60.09 166.43h132.1M60.09 253.18h132.1M192.19 250.88H60.09M53.29 77.45V60.17M53.29 164.18V79.44M47.62 164.18s0 0 0 0v1.97h0v.01M47.62 164.18h1.7M49.32 166.17h-1.7M49.32 179.35c0 .2.18.35.33.44.17.1.34.17.53.22.37.11.75.14 1.13.14M53.29 179.35c0-.21-.18-.35-.33-.44-.17-.1-.34-.17-.53-.22-.37-.11-.75-.14-1.13-.14s-.76.04-1.13.14c-.19.05-.36.12-.53.22-.15.09-.33.24-.33.44M51.31 180.15c.39 0 .76-.04 1.13-.14.19-.05.36-.12.53-.22.14-.09.33-.24.33-.44M49.32 250.91v-71.56M49.32 179.35v-13.18M49.32 483.37V252.9M53.59 483.62c-.94-.77-3.64-.77-4.57 0" class="cls-2"/><path d="M49.02 483.62c.16-.13.32-.26.48-.4M49.02 483.62c-.13.11-.26.27-.26.46M53.11 483.22c-.74-.61-2.87-.61-3.61 0M51.31 487.52c-.6 0-1.16-.09-1.62-.28-.2-.08-.37-.18-.52-.3-.04-.03-.08-.07-.11-.1a.98.98 0 0 1-.3-.69M48.76 486.15v-2.08M53.86 486.15c0 .27-.12.51-.3.69-.03.04-.07.07-.11.1-.15.12-.33.22-.52.3-.46.18-1.02.28-1.62.28M49.32 79.44h-1.7M49.32 164.18V79.44M47.62 77.45s0 0 0 0v1.98M53.29 60.17c0-.21-.18-.35-.33-.44-.17-.1-.34-.17-.53-.22-.37-.11-.75-.14-1.13-.14s-.76.04-1.13.14c-.19.05-.36.12-.53.22-.15.09-.33.24-.33.44M47.62 77.45h1.7M49.32 77.45V60.17" class="cls-2"/></g></svg>