<svg xmlns="http://www.w3.org/2000/svg" viewBox="0 0 193.29 244.19"><defs><style>.cls-1{fill:#fff;stroke:#000;stroke-linecap:round;stroke-linejoin:round;stroke-width:.5px}.cls-2{fill:#333;font-family:ArialMT,Arial;font-size:17.02px}.cls-3{fill:none;stroke:#333;stroke-miterlimit:10;stroke-width:.15px}</style></defs><g id="cote"><path d="M30.89 33.66V9.18M38.82 33.66V9.18M30.04 9.75h1.06M38.55 9.75h1.12M31.67 8.83l-1.7 1.7.14.14 1.7-1.7-.14-.14M38.04 10.67l1.7-1.7-.13-.14-1.7 1.7.13.14M176.59 33.66V9.18M184.53 33.66V9.18M175.74 9.75h1.06M184.25 9.75h1.13M177.37 8.83l-1.7 1.7.14.14 1.7-1.7-.14-.14M183.74 10.67l1.7-1.7-.13-.14-1.7 1.7.13.14M30.6 50.02H10.41M30.6 32.74H10.41M10.98 50.87V45.2M10.98 37.68v-5.79M10.06 49.24l1.7 1.7.14-.14-1.7-1.7-.14.14M11.9 33.52l-1.7-1.7-.14.14 1.7 1.7.14-.14M30.61 223.48h-20.2M30.6 52H10.41M10.98 224.33v-78.39M10.98 129.67V51.15M10.06 222.7l1.7 1.7.13-.13-1.7-1.71-.13.14M11.89 52.79l-1.7-1.7-.13.13 1.7 1.7.13-.13M30.6 239.19H10.41M30.6 225.47H10.41M10.98 240.04v-3.95M10.98 228.51v-3.89M10.06 238.41l1.7 1.7.13-.13-1.7-1.71-.13.14M11.89 226.25l-1.7-1.7-.13.13 1.7 1.71.13-.14M38.82 33.66V9.18M176.59 33.66V9.18M37.97 9.75h61.17M115.84 9.75h61.6" class="cls-3"/><path d="m39.61 8.83-1.7 1.7.13.14 1.7-1.7-.13-.14M175.81 10.67l1.7-1.7-.14-.14-1.7 1.7.14.14" class="cls-3"/></g><g id="Calque_5" data-name="Calque 5"><text class="cls-2" transform="translate(30.48 15.42)"><tspan x="0" y="0">3</tspan></text><text class="cls-2" transform="translate(176.18 15.42)"><tspan x="0" y="0">3</tspan></text><text class="cls-2" transform="rotate(-90 31.2 14.55)"><tspan x="0" y="0">6</tspan></text><text class="cls-2" transform="rotate(-90 81.575 64.925)"><tspan x="0" y="0">60</tspan></text><text class="cls-2" transform="rotate(-90 126.68 110.03)"><tspan x="0" y="0">6</tspan></text><text class="cls-2" transform="translate(98.96 15.42)"><tspan x="0" y="0">50</tspan></text></g><g id="Make2D::Visible::Courbes"><path d="M176.87 239.19h7.94M31.17 239.19h7.94" class="cls-1"/></g><g id="Make2D::Visible"><path d="M182.26 52h-1.7M39.84 136.75v-3.4M39.84 142.14v-3.4M39.14 138.74v3.4M39.14 133.35v3.4M176.28 138.74v3.4M176.28 133.35s0 0 0 0v3.4M175.57 138.74v3.4M175.57 133.35s0 0 0 0v3.4M38.82 225.04v1.41s0 0 0 0M39.39 226.46v-1.42M38.82 222.49v1.42M39.39 223.91v-1.42M176.02 225.04v1.41s0 0 0 0M176.59 226.46v-1.42M176.02 222.49v1.42M176.59 223.91v-1.42M176.59 50.02V32.74M173.75 136.75h2.84M38.82 136.75h2.84M41.66 138.74h-2.83M176.59 138.74h-2.84M173.75 52.29v-2.56M41.66 136.72V52.29M173.75 52.29v84.43M41.66 49.74v2.56M173.75 139.02v-2.29M41.66 136.72v2.3M41.66 223.45v-84.43M173.75 139.02v84.43M41.66 223.45v2.3M173.75 225.75v-2.3M38.82 138.74v83.75M180.56 223.48v-71.56M184.53 151.92v71.56M38.91 138.74V142M176.59 136.75V52M176.5 138.74v3.25s0 0 0 0M39.39 223.48h2.27M184.53 223.48h1.7M176.02 225.47h-2.27M175.57 141.88h-1.82M39.85 133.61h1.81M38.82 52v84.75M180.56 238.65c0 .21-.18.35-.33.44-.17.1-.34.17-.53.22-.37.11-.75.14-1.13.14s-.76-.04-1.13-.14c-.19-.05-.36-.12-.53-.22-.15-.09-.33-.23-.33-.44M38.82 226.46v12.19M180.56 50.02h1.7M34.86 52h-1.7M34.86 32.74c0-.2.18-.35.33-.44.17-.1.34-.17.53-.22.37-.11.75-.14 1.13-.14M38.82 238.65c0 .21-.18.35-.33.44-.17.1-.34.17-.53.22-.37.11-.75.14-1.13.14s-.76-.04-1.13-.14c-.19-.05-.36-.12-.53-.22-.15-.09-.33-.23-.33-.44M38.82 32.74c0 .21-.18.35-.33.44-.17.1-.34.17-.53.22-.37.11-.75.14-1.13.14s-.76-.04-1.13-.14c-.19-.05-.36-.12-.53-.22-.15-.09-.33-.23-.33-.44" class="cls-1"/><path d="M36.84 31.94c.39 0 .76.04 1.13.14.19.05.36.12.53.22.14.09.33.24.33.44M33.16 50.02s0 0 0 0V52M33.16 50.02h1.7M182.26 52v-1.97h0v-.01M39.14 142h-.23M38.91 133.49h.23M39.84 142.14h-.7M39.14 133.35h.7M38.91 133.49v3.2600000000000002M180.56 32.74v17.28M176.59 222.49v-83.75M176.28 142.14h-.71M175.57 133.35h.71M176.5 142h-.22M176.28 133.49h.22M176.5 133.49s0 0 0 0v3.25M39.39 226.46h-.57M39.39 222.49h-.57M38.82 225.04v-1.13M39.39 223.91v1.13M176.59 226.46h-.57M176.59 222.49h-.57M176.02 225.04v-1.13M176.59 223.91v1.13M176.59 32.74c0-.2.18-.35.33-.44.17-.1.34-.17.53-.22.37-.11.75-.14 1.13-.14M180.56 32.74c0 .21-.18.35-.33.44-.17.1-.34.17-.53.22-.37.11-.75.14-1.13.14s-.76-.04-1.13-.14c-.19-.05-.36-.12-.53-.22-.15-.09-.33-.23-.33-.44M176.59 238.65v-12.19" class="cls-1"/><path d="M178.57 31.94c.39 0 .76.04 1.13.14.19.05.36.12.53.22.14.09.33.24.33.44M41.66 225.47h-2.27M173.75 52.29H41.66M173.76 223.48h2.26M186.23 225.47h-1.7M30.89 225.47h-1.7M186.23 223.48v1.98h0v.01M29.19 223.48v1.97h0v.01M29.19 223.48h1.7M186.23 225.47v-1.97h0v-.02M41.66 136.72h132.09M180.56 136.75V52M184.53 52v84.75M184.53 138.74v13.18M184.53 50.02h1.7M184.53 136.75h1.7M180.56 151.92c0 .2.18.35.33.44.17.1.34.17.53.22.37.11.75.14 1.13.14M184.53 151.92c0-.21-.18-.35-.33-.44-.17-.1-.34-.17-.53-.22-.37-.11-.75-.14-1.13-.14s-.76.04-1.13.14c-.19.05-.36.12-.53.22-.15.09-.33.24-.33.44" class="cls-1"/><path d="M184.53 32.74c0-.21-.18-.35-.33-.44-.17-.1-.34-.17-.53-.22-.37-.11-.75-.14-1.13-.14s-.76.04-1.13.14c-.19.05-.36.12-.53.22-.15.09-.33.24-.33.44M180.56 151.92v-13.18M184.53 32.74v17.28M182.54 152.72c.39 0 .76-.04 1.13-.14.19-.05.36-.12.53-.22.14-.09.33-.24.33-.44M186.23 52h-1.7M186.23 52v-1.97h0v-.01M186.23 138.74h-1.7M186.23 138.74v-1.97h0v-.01M41.66 141.88h-1.82M173.75 133.61h1.82M41.66 49.74h132.09M41.66 52.27h132.09M173.75 139.02H41.66M41.66 139h132.09M41.66 225.75h132.09M173.75 223.45H41.66M34.86 50.02V32.74M34.86 136.75V52M29.19 136.75v1.97h0v.01M29.19 136.75h1.7M30.89 138.74h-1.7M30.89 151.92c0 .2.18.35.33.44.17.1.34.17.53.22.37.11.75.14 1.13.14M34.86 151.92c0-.21-.18-.35-.33-.44-.17-.1-.34-.17-.53-.22-.37-.11-.75-.14-1.13-.14s-.76.04-1.13.14c-.19.05-.36.12-.53.22-.15.09-.33.24-.33.44" class="cls-1"/><path d="M32.87 152.72c.39 0 .76-.04 1.13-.14.19-.05.36-.12.53-.22.14-.09.33-.24.33-.44M30.89 223.48v-71.56M30.89 151.92v-13.18M30.89 52h-1.7M30.89 136.75V52M29.19 50.02V52M34.86 32.74c0-.21-.18-.35-.33-.44-.17-.1-.34-.17-.53-.22-.37-.11-.75-.14-1.13-.14s-.76.04-1.13.14c-.19.05-.36.12-.53.22-.15.09-.33.24-.33.44M29.19 50.02h1.7M30.89 50.02V32.74M180.56 239.19v-13.72M176.59 239.19v-.54M38.82 238.65v.54M34.86 225.47v13.72M184.53 225.47v13.72M30.89 239.19v-13.72M34.86 223.48v-84.74M38.82 32.74v17.28M173.75 50.02h2.84M38.83 50.02h2.83M41.66 52h-2.83M176.59 52h-2.84" class="cls-1"/></g></svg>