<?xml version="1.0" encoding="UTF-8"?>
<svg id="Calque_1" data-name="Calque 1" xmlns="http://www.w3.org/2000/svg" xmlns:xlink="http://www.w3.org/1999/xlink" viewBox="0 0 396.85 358.64">
  <defs>
    <style>
      .cls-1, .cls-2, .cls-3, .cls-4, .cls-5, .cls-6, .cls-7, .cls-8, .cls-9, .cls-10, .cls-11, .cls-12, .cls-13 {
        fill: none;
      }

      .cls-1, .cls-14, .cls-15, .cls-16, .cls-17, .cls-3, .cls-18, .cls-4, .cls-5, .cls-19, .cls-20, .cls-7, .cls-9, .cls-10, .cls-11, .cls-13 {
        stroke-miterlimit: 10;
      }

      .cls-1, .cls-16, .cls-17, .cls-3, .cls-20, .cls-7, .cls-9 {
        stroke: #000;
      }

      .cls-1, .cls-21, .cls-4, .cls-19, .cls-6, .cls-8, .cls-10, .cls-22, .cls-11 {
        stroke-width: .15px;
      }

      .cls-2, .cls-23, .cls-24 {
        stroke-width: 0px;
      }

      .cls-25 {
        letter-spacing: -.02em;
      }

      .cls-14 {
        fill: url(#Nouveau_motif_2-2);
      }

      .cls-14, .cls-15, .cls-18, .cls-21, .cls-5, .cls-19, .cls-8, .cls-11, .cls-12 {
        stroke: #333;
      }

      .cls-14, .cls-15, .cls-18, .cls-5 {
        stroke-width: .05px;
      }

      .cls-15 {
        fill: url(#Nouveau_motif_2-3);
      }

      .cls-16, .cls-17, .cls-21, .cls-19, .cls-22, .cls-24 {
        fill: #fff;
      }

      .cls-16, .cls-7 {
        stroke-width: .25px;
      }

      .cls-17, .cls-20, .cls-9 {
        stroke-width: .5px;
      }

      .cls-3 {
        stroke-width: 2px;
      }

      .cls-18 {
        fill: url(#Nouveau_motif);
      }

      .cls-21, .cls-6, .cls-8, .cls-22 {
        stroke-linecap: round;
        stroke-linejoin: round;
      }

      .cls-4, .cls-6, .cls-10, .cls-22 {
        stroke: #666;
      }

      .cls-20 {
        fill: #999;
      }

      .cls-26 {
        font-size: 3.48px;
      }

      .cls-26, .cls-27, .cls-28, .cls-29 {
        isolation: isolate;
      }

      .cls-26, .cls-29 {
        fill: #000;
        font-family: AvenirNext-UltraLight, 'Avenir Next';
        font-weight: 100;
      }

      .cls-27 {
        fill: #333;
        font-family: Avenir-Medium, Avenir;
        font-size: 6.23px;
        font-weight: 500;
      }

      .cls-10 {
        stroke-dasharray: 0 0 0 0 0 0 1.98 1.98;
      }

      .cls-29 {
        font-size: 6px;
      }

      .cls-23 {
        fill: url(#Nouveau_motif_2);
      }

      .cls-12 {
        stroke-miterlimit: 10;
        stroke-width: .15px;
      }

      .cls-13 {
        stroke: #696969;
        stroke-width: .1px;
      }
    </style>
    <pattern id="Nouveau_motif_2" data-name="Nouveau motif 2" x="0" y="0" width="34.23" height="27.94" patternTransform="translate(-8060.86 -7903.36) scale(.5 -.5)" patternUnits="userSpaceOnUse" viewBox="0 0 34.23 27.94">
      <g>
        <rect class="cls-2" width="34.23" height="27.94"/>
        <g>
          <rect class="cls-2" width="34.23" height="27.94"/>
          <rect class="cls-5" x="17.14" y="-2.3" width="34.18" height="4.61"/>
          <rect class="cls-5" x="-17.09" y="-2.3" width="34.18" height="4.61"/>
          <rect class="cls-5" x=".03" y="2.35" width="34.18" height="4.61"/>
          <rect class="cls-5" x="17.14" y="7.01" width="34.18" height="4.61"/>
          <rect class="cls-5" x="-17.09" y="7.01" width="34.18" height="4.61"/>
          <rect class="cls-5" x=".03" y="11.66" width="34.18" height="4.61"/>
          <rect class="cls-5" x="17.14" y="16.32" width="34.18" height="4.61"/>
          <rect class="cls-5" x="-17.09" y="16.32" width="34.18" height="4.61"/>
          <rect class="cls-5" x=".03" y="20.98" width="34.18" height="4.61"/>
          <rect class="cls-5" x="17.14" y="25.63" width="34.18" height="4.61"/>
          <rect class="cls-5" x="-17.09" y="25.63" width="34.18" height="4.61"/>
        </g>
      </g>
    </pattern>
    <pattern id="Nouveau_motif" data-name="Nouveau motif" x="0" y="0" width="8.64" height="11.39" patternTransform="translate(-10441.42 -6083.69) scale(.3 -.36)" patternUnits="userSpaceOnUse" viewBox="0 0 8.64 11.39">
      <g>
        <rect class="cls-2" width="8.64" height="11.39"/>
        <g>
          <rect class="cls-2" width="8.64" height="11.39"/>
          <polygon class="cls-5" points="10.78 11.36 10.78 .03 6.51 .03 6.51 11.36 10.78 11.36"/>
          <polygon class="cls-5" points="6.46 11.36 6.46 .03 2.19 .03 2.19 11.36 6.46 11.36"/>
          <polygon class="cls-5" points="2.14 11.36 2.14 .03 -2.14 .03 -2.14 11.36 2.14 11.36"/>
        </g>
      </g>
    </pattern>
    <pattern id="Nouveau_motif_2-2" data-name="Nouveau motif 2-2" x="0" y="0" width="34.23" height="27.94" patternTransform="translate(-8050.21 -7905.88) scale(.5 -.5)" patternUnits="userSpaceOnUse" viewBox="0 0 34.23 27.94">
      <g>
        <rect class="cls-2" width="34.23" height="27.94"/>
        <g>
          <rect class="cls-2" width="34.23" height="27.94"/>
          <rect class="cls-5" x="17.14" y="-2.3" width="34.18" height="4.61"/>
          <rect class="cls-5" x="-17.09" y="-2.3" width="34.18" height="4.61"/>
          <rect class="cls-5" x=".03" y="2.35" width="34.18" height="4.61"/>
          <rect class="cls-5" x="17.14" y="7.01" width="34.18" height="4.61"/>
          <rect class="cls-5" x="-17.09" y="7.01" width="34.18" height="4.61"/>
          <rect class="cls-5" x=".03" y="11.66" width="34.18" height="4.61"/>
          <rect class="cls-5" x="17.14" y="16.32" width="34.18" height="4.61"/>
          <rect class="cls-5" x="-17.09" y="16.32" width="34.18" height="4.61"/>
          <rect class="cls-5" x=".03" y="20.98" width="34.18" height="4.61"/>
          <rect class="cls-5" x="17.14" y="25.63" width="34.18" height="4.61"/>
          <rect class="cls-5" x="-17.09" y="25.63" width="34.18" height="4.61"/>
        </g>
      </g>
    </pattern>
    <pattern id="Nouveau_motif_2-3" data-name="Nouveau motif 2-3" x="0" y="0" width="34.23" height="27.94" patternTransform="translate(-8050.21 -7905.88) scale(.5 -.5)" patternUnits="userSpaceOnUse" viewBox="0 0 34.23 27.94">
      <g>
        <rect class="cls-2" width="34.23" height="27.94"/>
        <g>
          <rect class="cls-2" width="34.23" height="27.94"/>
          <rect class="cls-5" x="17.14" y="-2.3" width="34.18" height="4.61"/>
          <rect class="cls-5" x="-17.09" y="-2.3" width="34.18" height="4.61"/>
          <rect class="cls-5" x=".03" y="2.35" width="34.18" height="4.61"/>
          <rect class="cls-5" x="17.14" y="7.01" width="34.18" height="4.61"/>
          <rect class="cls-5" x="-17.09" y="7.01" width="34.18" height="4.61"/>
          <rect class="cls-5" x=".03" y="11.66" width="34.18" height="4.61"/>
          <rect class="cls-5" x="17.14" y="16.32" width="34.18" height="4.61"/>
          <rect class="cls-5" x="-17.09" y="16.32" width="34.18" height="4.61"/>
          <rect class="cls-5" x=".03" y="20.98" width="34.18" height="4.61"/>
          <rect class="cls-5" x="17.14" y="25.63" width="34.18" height="4.61"/>
          <rect class="cls-5" x="-17.09" y="25.63" width="34.18" height="4.61"/>
        </g>
      </g>
    </pattern>
  </defs>
  <g id="Calque_12" data-name="Calque 12">
    <g>
      <circle class="cls-7" cx="342.33" cy="343.88" r="9.92"/>
      <line class="cls-7" x1="342.25" y1="343.88" x2="335" y2="350.56"/>
      <line class="cls-3" x1="349.58" y1="337.11" x2="342.25" y2="343.88"/>
    </g>
  </g>
  <g id="trait_fin" data-name="trait fin">
    <g>
      <polyline class="cls-1" points="284.62 259.25 284.62 275.53 281.78 275.53 281.78 259.25"/>
      <line class="cls-1" x1="283.2" y1="259.25" x2="283.2" y2="275.53"/>
      <line class="cls-1" x1="283.2" y1="241.73" x2="283.2" y2="258.01"/>
      <polyline class="cls-1" points="281.78 258.01 281.78 241.73 284.62 241.73 284.62 258.01"/>
      <rect class="cls-21" x="281.78" y="240.49" width="2.84" height="1.24"/>
      <rect class="cls-21" x="281.78" y="275.53" width="2.84" height="1.24"/>
      <rect class="cls-21" x="281.78" y="258.01" width="2.84" height="1.24"/>
      <line class="cls-13" x1="287.45" y1="240.49" x2="287.45" y2="276.77"/>
    </g>
    <g>
      <polyline class="cls-1" points="281.78 164.75 281.78 148.47 284.62 148.47 284.62 164.75"/>
      <polyline class="cls-1" points="284.62 165.99 284.62 182.27 281.78 182.27 281.78 165.99"/>
      <line class="cls-1" x1="283.2" y1="165.99" x2="283.2" y2="182.27"/>
      <line class="cls-1" x1="283.2" y1="148.47" x2="283.2" y2="164.75"/>
      <rect class="cls-21" x="281.78" y="164.75" width="2.84" height="1.24"/>
      <rect class="cls-21" x="281.78" y="147.23" width="2.84" height="1.24"/>
      <line class="cls-13" x1="287.45" y1="147.23" x2="287.45" y2="183.65"/>
    </g>
    <g>
      <polyline class="cls-1" points="208.03 98.47 191.75 98.47 191.75 95.64 208.03 95.64"/>
      <polyline class="cls-1" points="209.27 95.64 225.55 95.64 225.55 98.47 209.27 98.47"/>
      <line class="cls-1" x1="209.27" y1="97.05" x2="225.55" y2="97.05"/>
      <line class="cls-1" x1="191.75" y1="97.05" x2="208.03" y2="97.05"/>
      <rect class="cls-21" x="225.55" y="95.64" width="1.24" height="2.84"/>
      <rect class="cls-21" x="208.03" y="95.64" width="1.24" height="2.84"/>
      <rect class="cls-21" x="190.51" y="95.64" width="1.24" height="2.84"/>
      <line class="cls-13" x1="190.51" y1="92.8" x2="226.79" y2="92.8"/>
    </g>
    <g>
      <line class="cls-1" x1="124.43" y1="97.05" x2="140.71" y2="97.05"/>
      <polyline class="cls-1" points="140.71 98.47 124.43 98.47 124.43 95.64 140.71 95.64"/>
      <polyline class="cls-1" points="141.95 95.64 158.23 95.64 158.23 98.47 141.95 98.47"/>
      <line class="cls-1" x1="141.95" y1="97.05" x2="158.23" y2="97.05"/>
      <rect class="cls-21" x="158.23" y="95.64" width="1.24" height="2.84"/>
      <rect class="cls-21" x="140.71" y="95.64" width="1.24" height="2.84"/>
      <rect class="cls-21" x="123.19" y="95.64" width="1.24" height="2.84"/>
      <line class="cls-13" x1="123.19" y1="92.8" x2="159.47" y2="92.8"/>
    </g>
    <rect class="cls-23" x="131.54" y="98.47" width="34.87" height="83.06"/>
    <polygon class="cls-18" points="170.95 233.68 170.95 269.34 187.46 269.34 187.46 277.12 206.38 277.12 206.38 233.68 185.41 233.54 185.28 234.85 173.08 234.83 173.08 233.68 170.95 233.68"/>
    <rect class="cls-14" x="210.63" y="200.52" width="70.87" height="83.06"/>
    <polygon class="cls-15" points="166.41 98.47 166.41 200.8 114.54 200.52 114.54 300.58 145.49 299.71 145.34 229.43 206.38 229.46 206.38 196.27 281.78 196.27 281.78 98.47 166.41 98.47"/>
    <polygon class="cls-24" points="271.01 223.93 260.07 222.38 260.65 215.19 274.07 215.48 271.01 223.93"/>
    <rect class="cls-24" x="215.71" y="178.9" width="4.23" height="12.39"/>
    <rect class="cls-24" x="258.75" y="178.9" width="4.23" height="12.39"/>
    <rect class="cls-24" x="217.89" y="177.74" width="42.97" height="18.86"/>
    <path class="cls-19" d="M248.1,210.38c1.43-.71,2-2.45,1.29-3.87s-2.45-2-3.87-1.29c-1.43.71-2,2.45-1.29,3.87.71,1.43,2.44,2,3.87,1.29Z"/>
    <rect class="cls-19" x="131.54" y="98.47" width="12.76" height="15.02"/>
    <path class="cls-11" d="M182.76,272.06c-.16-.59-.64-1.04-1.24-1.16"/>
    <path class="cls-11" d="M181.51,270.9c-.3-.06-.61-.1-.92-.12"/>
    <path class="cls-11" d="M182.06,275.26c.12,0,.24,0,.36-.02"/>
    <path class="cls-11" d="M182.43,275.24c.31-.03.54-.29.54-.59"/>
    <line class="cls-11" x1="179.2" y1="275.26" x2="182.06" y2="275.26"/>
    <path class="cls-11" d="M183.13,277.12c.18,0,.27-.07.29-.25"/>
    <line class="cls-11" x1="183.13" y1="277.12" x2="179.2" y2="277.12"/>
    <path class="cls-11" d="M183.68,274.11c.02-.76-.06-1.49-.27-2.23"/>
    <path class="cls-11" d="M183.42,276.87c.14-.92.23-1.83.26-2.76"/>
    <path class="cls-11" d="M181.65,270.23c-.33-.07-.67-.11-1.01-.14"/>
    <path class="cls-11" d="M183.42,271.88c-.23-.84-.91-1.48-1.77-1.65"/>
    <path class="cls-11" d="M180.59,270.78c-.46-.03-.93-.04-1.39-.04"/>
    <path class="cls-11" d="M180.64,270.1c-.48-.03-.96-.05-1.44-.05"/>
    <rect class="cls-11" x="170.95" y="269.34" width="16.51" height="7.79"/>
    <rect class="cls-11" x="187.46" y="277.12" width="18.92" height="22.33"/>
    <rect class="cls-11" x="188.56" y="281.88" width="17.01" height="17.01"/>
    <line class="cls-11" x1="245.3" y1="206.81" x2="240.88" y2="205.41"/>
    <rect class="cls-19" x="166.66" y="98.53" width="23.85" height="7.46"/>
    <path class="cls-11" d="M152.8,275.16c.43,0,.78-.35.78-.78s-.35-.78-.78-.78-.78.35-.78.78.35.78.78.78Z"/>
    <line class="cls-11" x1="154.98" y1="274.38" x2="162.43" y2="273.35"/>
    <line class="cls-11" x1="152.22" y1="271.29" x2="152.8" y2="263.55"/>
    <line class="cls-11" x1="154.73" y1="272.39" x2="157.7" y2="269.31"/>
    <rect class="cls-11" x="149.69" y="233.68" width="21.26" height="43.44"/>
    <rect class="cls-11" x="210.63" y="283.86" width="71.15" height="15.59"/>
    <rect class="cls-19" x="237.05" y="98.47" width="34.48" height="11.8"/>
    <rect class="cls-11" x="114.54" y="98.47" width="17.01" height="15.02"/>
    <rect class="cls-11" x="169.97" y="252.86" width=".97" height="24.26"/>
    <path class="cls-11" d="M177.49,276.15c0,.16.07.22.22.22s.22-.07.22-.22-.07-.22-.22-.22-.22.07-.22.22Z"/>
    <path class="cls-11" d="M180.47,276.15c0,.16.07.22.22.22s.22-.07.22-.22-.07-.22-.22-.22-.22.07-.22.22Z"/>
    <path class="cls-11" d="M179.2,270.05c-.48,0-.96.02-1.44.05"/>
    <path class="cls-11" d="M176.76,270.23c-.85.17-1.53.81-1.77,1.65"/>
    <path class="cls-11" d="M177.77,270.1c-.34.02-.68.07-1.01.14"/>
    <path class="cls-11" d="M174.72,274.11c.03.93.12,1.84.26,2.76"/>
    <path class="cls-11" d="M174.99,271.88c-.2.74-.29,1.47-.27,2.23"/>
    <line class="cls-11" x1="175.28" y1="277.12" x2="179.2" y2="277.12"/>
    <path class="cls-11" d="M174.98,276.87c.03.18.11.25.29.25"/>
    <line class="cls-11" x1="179.2" y1="275.26" x2="176.35" y2="275.26"/>
    <path class="cls-11" d="M175.44,274.65c0,.31.23.56.54.59"/>
    <path class="cls-11" d="M175.98,275.24c.12.01.24.02.36.02"/>
    <path class="cls-11" d="M177.81,270.78c-.31.02-.61.06-.92.12"/>
    <path class="cls-11" d="M179.2,270.74c-.46,0-.93.01-1.39.04"/>
    <path class="cls-11" d="M176.89,270.9c-.6.12-1.08.57-1.24,1.16"/>
    <path class="cls-11" d="M175.65,272.06c-.19.67-.26,1.33-.24,2.02"/>
    <path class="cls-11" d="M175.41,274.09c0,.19,0,.37.03.56"/>
    <path class="cls-11" d="M178.86,274.21c0,.24.1.34.34.34s.34-.1.34-.34-.1-.34-.34-.34-.34.1-.34.34Z"/>
    <path class="cls-11" d="M178.94,276.15c0,.18.08.26.26.26s.26-.08.26-.26-.08-.26-.26-.26-.26.08-.26.26Z"/>
    <path class="cls-11" d="M182.96,274.65c.03-.19.04-.37.03-.56"/>
    <path class="cls-11" d="M183,274.09c.02-.69-.06-1.36-.24-2.02"/>
    <line class="cls-11" x1="262.3" y1="191.64" x2="259.43" y2="191.64"/>
    <path class="cls-11" d="M262.3,191.64c.37,0,.61-.35.61-.69"/>
    <path class="cls-11" d="M258.82,190.94c0,.35.24.69.61.69"/>
    <path class="cls-11" d="M260.25,196.27c.37,0,.61-.35.61-.69"/>
    <line class="cls-11" x1="231.6" y1="192.79" x2="246.54" y2="192.79"/>
    <line class="cls-11" x1="232.21" y1="196.27" x2="246.54" y2="196.27"/>
    <line class="cls-11" x1="260.86" y1="192.79" x2="246.54" y2="192.79"/>
    <line class="cls-11" x1="260.25" y1="196.27" x2="246.54" y2="196.27"/>
    <line class="cls-11" x1="259.43" y1="178.9" x2="262.3" y2="178.9"/>
    <path class="cls-11" d="M262.91,179.59c0-.34-.24-.69-.61-.69"/>
    <line class="cls-11" x1="260.86" y1="178.44" x2="260.86" y2="178.9"/>
    <path class="cls-11" d="M259.43,178.9c-.37,0-.61.35-.61.69"/>
    <path class="cls-11" d="M260.86,178.44c0-.34-.24-.69-.61-.69"/>
    <line class="cls-11" x1="246.54" y1="177.74" x2="232.21" y2="177.74"/>
    <line class="cls-11" x1="246.54" y1="177.74" x2="260.25" y2="177.74"/>
    <line class="cls-11" x1="262.91" y1="179.59" x2="262.91" y2="190.94"/>
    <line class="cls-11" x1="258.82" y1="179.59" x2="258.82" y2="190.94"/>
    <line class="cls-11" x1="217.89" y1="192.79" x2="232.21" y2="192.79"/>
    <line class="cls-11" x1="218.5" y1="196.27" x2="232.21" y2="196.27"/>
    <line class="cls-11" x1="232.21" y1="177.74" x2="218.5" y2="177.74"/>
    <rect class="cls-19" x="210.73" y="224.22" width="7.42" height="7.42"/>
    <rect class="cls-19" x="210.63" y="233.34" width="53.75" height="39.7"/>
    <line class="cls-11" x1="230.83" y1="233.34" x2="230.83" y2="273.03"/>
    <path class="cls-11" d="M212.52,251.16c-.04-.82.14-2.44.21-3.77s.03-2.37.04-3.2c0-.83.05-1.46.12-1.95.06-.49.14-.84.13-1.2,0-.36-.1-.73-.23-1.06-.12-.33-.28-.6-.39-.85-.11-.24-.17-.46-.22-.7-.04-.24-.06-.5-.06-.7s0-.33.09-.41.22-.11.35-.12.27,0,.5.05c.23.04.56.11.82.18.26.07.45.13.7.21s.56.16.84.23c.28.07.53.12.9.12s.83-.07,1.65-.04c.82.02,1.98.13,2.71.21s1.02.11,1.27.14c.25.02.47.03.67,0,.2-.05.38-.15.78-.21.4-.07,1.01-.1,1.36-.18.35-.08.45-.19.63-.32.17-.12.42-.25.59-.41.17-.15.25-.33.42-.44s.43-.15.56-.09.14.21.15.36.04.3,0,.66c-.03.35-.11.91-.18,1.36-.08.45-.15.81-.22,1.12s-.12.6-.19,1.07-.16,1.12-.21,1.6c-.04.48-.04.8,0,1.27s.09,1.09.22,1.61c.13.51.33.91.36,1.3s-.09.77-.16,1.23-.1,1.01-.11,1.4,0,.64-.02,1.07c0,.42,0,1.02-.17,1.28s-.47.18-.68.08c-.21-.1-.32-.22-.48-.39-.16-.17-.38-.4-.63-.53s-.52-.17-.81-.2c-.29-.02-.6-.03-.92-.05-.33-.02-.67-.04-.97-.05-.3,0-.57-.02-.81-.05s-.47-.09-.73-.09-.57.04-.82,0-.44-.17-.77-.14-.8.2-1.18.36c-.38.16-.67.3-.99.33s-.65-.06-.96-.12c-.31-.06-.58-.1-.82-.04s-.46.2-.67.34c-.21.15-.42.29-.6.39-.18.1-.33.16-.53.17-.21,0-.48,0-.52-.83h-.02Z"/>
    <path class="cls-11" d="M214.33,243.42c.89-.9,1.62-.71,2.1-.52"/>
    <path class="cls-11" d="M225.64,247.28c-.51.73-1.02.38-1.83.47"/>
    <path class="cls-11" d="M223.06,239.47c.41.18.65.37.88.47.23.1.45.11.89-.04"/>
    <path class="cls-11" d="M214.33,261.82c.89-.9,1.62-.71,2.1-.52"/>
    <path class="cls-11" d="M225.64,265.69c-.51.73-1.02.38-1.83.47"/>
    <path class="cls-11" d="M223.06,257.88c.41.18.65.37.88.47.23.1.46.11.89-.04"/>
    <path class="cls-11" d="M212.9,269.49c.15-.82.71-2.44.97-3.77s.22-2.37.04-3.2-.51-1.46-.64-1.95c-.13-.49-.05-.84-.06-1.2,0-.36-.1-.73-.23-1.06s-.28-.6-.39-.85c-.11-.24-.17-.46-.22-.7-.04-.24-.06-.5-.07-.7,0-.2,0-.33.09-.41s.22-.11.35-.12c.14,0,.27,0,.5.05.23.04.56.11.82.18.26.07.45.13.69.21.25.08.56.16.84.23s.53.12.9.33.83.57,1.65.6,1.98-.29,2.71-.43c.73-.14,1.02-.1,1.27-.08.25.02.47.03.67-.01.2-.05.38-.15.78-.21.4-.07,1.01-.1,1.36-.18.36-.08.45-.19.63-.32.17-.12.42-.25.59-.41s.25-.33.42-.44.43-.15.56-.09.14.21.15.36.04.3,0,.66c-.03.35-.11.91-.18,1.36-.08.45-.15.81-.36,1.12s-.55.6-.71,1.07-.12,1.12-.02,1.6c.1.48.26.8.38,1.27.11.47.17,1.09.3,1.61.13.51.33.91.36,1.3s-.09.77-.16,1.23c-.07.46-.1,1.01-.11,1.4s0,.64-.02,1.07c0,.42,0,1.02-.17,1.28s-.47.18-.67.08c-.21-.1-.32-.22-.48-.39-.16-.17-.38-.4-.63-.62s-.52-.43-.81-.53-.6-.09-.92-.09-.67-.03-.97-.04-.57-.02-.81.03c-.24.05-.47.14-.73.21-.27.07-.57.12-.82.08s-.44-.17-.77-.14-.8.2-1.18.28c-.38.08-.67.05-.99,0s-.65-.14-.96-.2c-.31-.06-.58-.1-.82.04s-.46.45-.67.68c-.21.23-.42.38-.6.48-.18.1-.33.16-.53.17-.21.01-.48,0-.33-.83h0Z"/>
    <line class="cls-11" x1="224.3" y1="233.34" x2="224.3" y2="237.95"/>
    <line class="cls-11" x1="224.3" y1="250.98" x2="224.3" y2="256.31"/>
    <line class="cls-11" x1="224.3" y1="268.96" x2="224.3" y2="273.03"/>
    <path class="cls-11" d="M272.04,220.78c.75-1.72,1.23-3.46,1.48-5.31"/>
    <path class="cls-11" d="M260.47,215.47c-.12,1.04-.16,2.08-.12,3.12"/>
    <path class="cls-11" d="M262.29,219.89c2.28,1.27,4.9,1.76,7.48,1.4"/>
    <path class="cls-11" d="M260.99,222.22c2.78,1.55,5.99,2.15,9.14,1.71"/>
    <path class="cls-11" d="M270.13,223.93c.73-.1,1.24-.77,1.14-1.5-.1-.73-.77-1.24-1.5-1.14"/>
    <path class="cls-11" d="M271.01,221.81c.51-.22.82-.53,1.04-1.05"/>
    <path class="cls-11" d="M262.29,219.89c-.64-.36-1.46-.13-1.81.52s-.13,1.46.52,1.81"/>
    <path class="cls-11" d="M260.35,218.57c.02.56.19.96.59,1.36"/>
    <rect class="cls-19" x="253.84" y="200.52" width="27.94" height="14.95"/>
    <rect class="cls-12" x="259.33" y="205.34" width="6.77" height="4.89" transform="translate(-33.47 364.21) rotate(-66.18)"/>
    <rect class="cls-11" x="114.54" y="164.52" width="17.01" height="17.01"/>
    <rect class="cls-11" x="114.54" y="147.51" width="17.01" height="17.01"/>
    <rect class="cls-11" x="114.54" y="130.5" width="17.01" height="17.01"/>
    <rect class="cls-11" x="114.54" y="113.5" width="17.01" height="17.01"/>
    <line class="cls-11" x1="163.58" y1="192.41" x2="163.58" y2="193.28"/>
    <line class="cls-11" x1="163.58" y1="193.28" x2="130.13" y2="193.28"/>
    <line class="cls-11" x1="130.13" y1="192.41" x2="163.58" y2="192.41"/>
    <path class="cls-11" d="M160.77,199.64c1.17-4.95-.26-10.17-3.81-13.82"/>
    <path class="cls-11" d="M156.96,185.82c-.73-.77-1.84.41-1.02,1.09"/>
    <path class="cls-11" d="M159.34,199c2.54-4.26.99-9.78-3.41-12.09"/>
    <path class="cls-11" d="M159.34,199c-.65,1.03,1.09,1.81,1.43.64"/>
    <path class="cls-11" d="M149.12,199.46c2.45-4.47,2.45-9.87,0-14.34"/>
    <path class="cls-11" d="M149.12,185.12c-.5-.94-1.88-.09-1.28.78"/>
    <path class="cls-11" d="M147.92,198.46c3.58-3.43,3.55-9.17-.07-12.56"/>
    <path class="cls-11" d="M147.92,198.46c-.9.82.57,2.03,1.21.99"/>
    <path class="cls-11" d="M132.71,199.39c3.46-3.74,4.77-8.98,3.48-13.91"/>
    <path class="cls-11" d="M136.19,185.48c-.26-1.03-1.8-.54-1.43.45"/>
    <path class="cls-11" d="M131.79,198.13c4.31-2.46,5.67-8.04,2.98-12.2"/>
    <path class="cls-11" d="M131.79,198.13c-1.07.58.07,2.11.93,1.26"/>
    <path class="cls-11" d="M147.04,199.64c1.17-4.95-.26-10.17-3.81-13.82"/>
    <path class="cls-11" d="M143.23,185.82c-.73-.77-1.84.41-1.02,1.09"/>
    <path class="cls-11" d="M145.61,199c2.54-4.26.99-9.78-3.41-12.09"/>
    <path class="cls-11" d="M145.61,199c-.65,1.03,1.09,1.81,1.43.64"/>
    <path class="cls-11" d="M143.39,199.23c1.29-4.93-.02-10.17-3.48-13.91"/>
    <path class="cls-11" d="M139.91,185.32c-.71-.79-1.85.37-1.05,1.07"/>
    <path class="cls-11" d="M141.98,198.56c2.65-4.2,1.22-9.76-3.11-12.17"/>
    <path class="cls-11" d="M141.98,198.56c-.67,1.01,1.05,1.83,1.41.67"/>
    <path class="cls-11" d="M157.11,199.23c1.29-4.93-.02-10.17-3.47-13.91"/>
    <path class="cls-11" d="M153.64,185.32c-.71-.79-1.85.37-1.05,1.07"/>
    <path class="cls-11" d="M155.7,198.56c2.65-4.2,1.22-9.76-3.11-12.17"/>
    <path class="cls-11" d="M155.7,198.56c-.67,1.01,1.05,1.83,1.41.67"/>
    <line class="cls-11" x1="247.37" y1="208.17" x2="252.49" y2="208.17"/>
    <line class="cls-11" x1="247.37" y1="208.17" x2="251.05" y2="210.09"/>
    <line class="cls-11" x1="246.3" y1="208.28" x2="241.87" y2="209.31"/>
    <line class="cls-11" x1="245.34" y1="201.83" x2="246.44" y2="206.62"/>
    <line class="cls-11" x1="249.47" y1="204.3" x2="246.95" y2="204.31"/>
    <line class="cls-11" x1="250.46" y1="208.06" x2="250.2" y2="205.41"/>
    <line class="cls-11" x1="249.69" y1="211.05" x2="247.81" y2="211.56"/>
    <line class="cls-11" x1="245.52" y1="212.56" x2="244.12" y2="211.65"/>
    <line class="cls-11" x1="241.84" y1="206.07" x2="241.95" y2="208.58"/>
    <line class="cls-11" x1="244.75" y1="203.12" x2="243.38" y2="204.23"/>
    <line class="cls-11" x1="247.33" y1="206.85" x2="247.92" y2="201.94"/>
    <line class="cls-11" x1="247.37" y1="208.17" x2="252.12" y2="206.22"/>
    <line class="cls-11" x1="246.3" y1="208.28" x2="249.58" y2="213.29"/>
    <line class="cls-11" x1="246.3" y1="208.28" x2="243.46" y2="212.67"/>
    <line class="cls-11" x1="246.19" y1="207.62" x2="240.51" y2="207.8"/>
    <line class="cls-11" x1="246.78" y1="207.62" x2="243.13" y2="202.61"/>
    <rect class="cls-11" x="130.13" y="184.36" width="33.45" height="16.16"/>
    <rect class="cls-11" x="115.59" y="131.4" width="14.74" height="14.76" rx="1.35" ry="1.35"/>
    <path class="cls-11" d="M118.83,137.54c1.27,0,2.3-1.03,2.3-2.3s-1.03-2.3-2.3-2.3-2.3,1.03-2.3,2.3,1.03,2.3,2.3,2.3Z"/>
    <circle class="cls-11" cx="126.13" cy="135.31" r="2.64"/>
    <circle class="cls-11" cx="126.13" cy="142.64" r="2.64"/>
    <circle class="cls-11" cx="118.73" cy="141.95" r="2.33"/>
    <path class="cls-19" d="M258.82,163.82c3.07,0,5.56-2.49,5.56-5.56s-2.49-5.56-5.56-5.56-5.56,2.49-5.56,5.56,2.49,5.56,5.56,5.56Z"/>
    <rect class="cls-19" x="226.52" y="159.84" width="19.85" height="11.05"/>
    <rect class="cls-11" x="147.81" y="245.98" width="1.82" height="13.38"/>
    <rect class="cls-22" x="166.66" y="127.74" width="26.93" height="26.93"/>
    <path class="cls-19" d="M272.31,180.59c-.4.06-.08.73.11,1.16.19.44.24.63.28,1.38.04.74.06,2.04.21,2.99.15.95.43,1.56.84,1.85s.94.24,1.41.22.87,0,1.28-.1.82-.28,1.04-.52c.21-.24.22-.53.21-.84s-.02-.66-.22-1.16-.59-1.14-.83-1.76c-.25-.62-.35-1.23-.6-1.58s-.65-.46-1.42-.79c-.77-.33-1.9-.89-2.3-.84h0Z"/>
    <path class="cls-19" d="M273.66,178.87c.39.04.91.13,1.42.1.89-.06,1.76-.49,2.47-.83s1.27-.6,1.76-.66c.49-.06.9.06,1.08.43s.13.98-.06,1.49-.51.9-.97,1.22-1.06.58-1.48.7-.66.09-1.05.07c-.39-.03-.94-.06-1.39-.11s-.82-.12-1.1-.2-.48-.19-.79-.64c-.13-.19-.29-.45-.41-.69"/>
    <path class="cls-19" d="M270.56,179.69l-.04-.02c-.6-.3-1.39-.3-1.79.17-.39.47-.39,1.42-.51,2.22s-.35,1.43-.42,1.96c-.07.53.03.94.29,1,.26.05.7-.26,1.28-.42.59-.16,1.34-.18,1.73-.38.4-.2.44-.59.57-1.02.13-.43.34-.91.4-1.25.06-.33-.02-.54-.25-.91"/>
    <path class="cls-19" d="M271.31,177.91c-.31.87-.68,1.56-.89,2.14-.21.58-.27,1.05-.25,1.29.02.24.12.26.46.18.35-.08.94-.25,1.5-.68s1.1-1.12,1.54-2,.81-1.94.89-2.85-.11-1.65-.48-2.01c-.36-.35-.89-.31-1.24-.08-.35.22-.53.62-.74,1.35-.22.73-.48,1.79-.8,2.66h0Z"/>
    <path class="cls-19" d="M270.23,180.71c-.16,0-.31-.05-.46-.13-.33-.16-.67-.47-1.01-.78-.35-.31-.7-.64-.91-1.1-.2-.46-.25-1.07-.21-1.62.04-.55.16-1.06.22-1.46s.06-.7.21-1.06c.15-.37.45-.81,1.1,0,.62.77,1.55,2.67,1.92,3.93"/>
    <path class="cls-11" d="M275.75,178.86c-.08-1.09-.45-1.9-1.2-2.7"/>
    <path class="cls-11" d="M275.05,181.61c.07-.12.14-.24.21-.36"/>
    <path class="cls-11" d="M271.56,183.64c.4-.02.78-.09,1.15-.22"/>
    <path class="cls-11" d="M272.23,174.86c-.96-.2-1.77-.12-2.67.27"/>
    <path class="cls-11" d="M267.67,176.68c-1.22,1.76-1.01,4.14.5,5.66"/>
    <line class="cls-11" x1="239.07" y1="192.79" x2="239.07" y2="177.74"/>
    <line class="cls-11" x1="217.89" y1="191.64" x2="217.89" y2="195.57"/>
    <path class="cls-11" d="M219.32,191.64c.37,0,.61-.35.61-.69"/>
    <path class="cls-11" d="M215.84,190.94c0,.35.24.69.61.69"/>
    <line class="cls-11" x1="216.46" y1="191.64" x2="219.32" y2="191.64"/>
    <path class="cls-11" d="M217.89,195.57c0,.34.24.69.61.69"/>
    <path class="cls-11" d="M216.46,178.9c-.37,0-.61.35-.61.69"/>
    <line class="cls-11" x1="217.89" y1="178.44" x2="217.89" y2="178.9"/>
    <line class="cls-11" x1="219.32" y1="178.9" x2="216.46" y2="178.9"/>
    <path class="cls-11" d="M219.94,179.59c0-.34-.24-.69-.61-.69"/>
    <path class="cls-11" d="M218.5,177.74c-.37,0-.61.35-.61.69"/>
    <line class="cls-11" x1="219.94" y1="179.59" x2="219.94" y2="190.94"/>
    <line class="cls-11" x1="215.84" y1="179.59" x2="215.84" y2="190.94"/>
    <line class="cls-11" x1="260.86" y1="191.64" x2="260.86" y2="195.57"/>
    <line class="cls-8" x1="179.45" y1="292.93" x2="179.45" y2="290.71"/>
    <path class="cls-8" d="M177.99,290.71c0-1.6-1.15-2.97-2.73-3.24"/>
    <path class="cls-8" d="M169.62,288.02c-.72.8-1.03,1.6-1.03,2.69"/>
    <path class="cls-8" d="M171.81,286.53c-.91.29-1.59.76-2.2,1.49"/>
    <path class="cls-8" d="M175.5,286.34c-1.3-.33-2.43-.27-3.69.2"/>
    <path class="cls-8" d="M175.95,286.44c-.15-.04-.29-.08-.44-.11"/>
    <line class="cls-8" x1="169.92" y1="290.26" x2="169.92" y2="290.71"/>
    <path class="cls-8" d="M176.12,290.61c-.14-.25-.31-.41-.57-.53"/>
    <path class="cls-8" d="M176.9,290.71c0-.51-.42-.93-.93-.93s-.93.42-.93.93"/>
    <line class="cls-8" x1="179.45" y1="288.48" x2="179.45" y2="290.71"/>
    <line class="cls-8" x1="184.59" y1="290.71" x2="184.59" y2="285.12"/>
    <line class="cls-8" x1="179.49" y1="287.48" x2="175.95" y2="286.44"/>
    <line class="cls-8" x1="184.28" y1="284.82" x2="180.89" y2="284.82"/>
    <path class="cls-8" d="M184.59,285.12c0-.21-.09-.3-.3-.3"/>
    <line class="cls-8" x1="179.49" y1="287.42" x2="179.45" y2="288.48"/>
    <path class="cls-8" d="M179.75,286.42c-.16.32-.24.64-.26.99"/>
    <path class="cls-8" d="M180.37,285.15c-.24.41-.44.83-.62,1.27"/>
    <path class="cls-8" d="M180.89,284.82c-.26,0-.41.09-.52.33"/>
    <path class="cls-8" d="M175.54,290.07c-.13-.08-.21-.06-.3.06"/>
    <path class="cls-8" d="M170.23,289.09c-.22.37-.32.73-.32,1.16"/>
    <line class="cls-8" x1="179.49" y1="293.93" x2="175.95" y2="294.97"/>
    <line class="cls-8" x1="184.28" y1="296.59" x2="180.89" y2="296.59"/>
    <path class="cls-8" d="M184.28,296.59c.21,0,.3-.09.3-.3"/>
    <line class="cls-8" x1="184.59" y1="290.71" x2="184.59" y2="296.29"/>
    <path class="cls-8" d="M180.37,296.27c.12.24.26.33.52.33"/>
    <path class="cls-8" d="M179.75,294.99c.18.44.39.86.62,1.27"/>
    <path class="cls-8" d="M175.04,290.71c0,.51.42.93.93.93s.93-.42.93-.93"/>
    <path class="cls-8" d="M169.92,291.15c0,.43.1.79.32,1.16"/>
    <line class="cls-8" x1="169.92" y1="291.15" x2="169.92" y2="290.71"/>
    <path class="cls-8" d="M168.59,290.71c0,1.08.31,1.88,1.03,2.69"/>
    <path class="cls-8" d="M169.62,293.39c.61.73,1.29,1.19,2.2,1.49"/>
    <path class="cls-8" d="M171.81,294.88c1.26.47,2.39.53,3.69.2"/>
    <path class="cls-8" d="M175.5,295.08c.15-.03.3-.06.44-.11"/>
    <path class="cls-8" d="M170.23,292.32c.08.11.16.22.25.32"/>
    <path class="cls-8" d="M170.49,292.64c.47.57,1,.93,1.7,1.15"/>
    <path class="cls-8" d="M172.19,293.79c1.05.39,1.99.44,3.07.16"/>
    <path class="cls-8" d="M175.26,293.95c1.58-.27,2.73-1.64,2.73-3.24"/>
    <path class="cls-8" d="M170.49,288.77c-.09.1-.18.21-.25.32"/>
    <path class="cls-8" d="M172.19,287.62c-.71.22-1.23.58-1.7,1.15"/>
    <path class="cls-8" d="M175.26,287.46c-1.08-.28-2.02-.24-3.07.16"/>
    <path class="cls-8" d="M179.49,294c.02.36.1.67.26.99"/>
    <line class="cls-8" x1="179.49" y1="294" x2="179.45" y2="292.93"/>
    <path class="cls-8" d="M175.54,291.34c.26-.12.43-.28.57-.53"/>
    <path class="cls-8" d="M175.24,291.28c.09.12.17.13.3.06"/>
    <path class="cls-8" d="M176.14,290.71s0-.07-.02-.1"/>
    <path class="cls-8" d="M176.12,290.81s.02-.07.02-.1"/>
    <rect class="cls-11" x="173.08" y="233.68" width="12.33" height="1.2"/>
    <rect class="cls-8" x="115.64" y="114.35" width="14.65" height="15.31" rx="3.86" ry="3.86"/>
    <circle class="cls-11" cx="119.01" cy="121.83" r=".83"/>
    <rect class="cls-19" x="144.3" y="98.47" width="17.86" height="15.02"/>
    <rect class="cls-19" x="179.45" y="279.96" width="5.22" height="19.49"/>
    <rect class="cls-20" x="145.43" y="296.61" width="4.25" height="2.84"/>
    <rect class="cls-20" x="114.54" y="181.53" width="15.59" height="14.74"/>
    <rect class="cls-20" x="145.43" y="229.43" width="43.94" height="4.25"/>
    <polygon class="cls-20" points="130.13 181.53 166.41 181.53 166.41 200.52 163.58 200.52 163.58 184.36 130.13 184.36 130.13 181.53"/>
    <rect class="cls-17" x="115.95" y="182.94" width="12.76" height="11.91"/>
    <rect class="cls-20" x="206.38" y="222.73" width="4.25" height="76.72"/>
    <polygon class="cls-20" points="187.46 279.96 184.63 279.95 184.7 299.45 187.54 299.45 187.46 279.96"/>
    <line class="cls-9" x1="281.78" y1="196.27" x2="206.38" y2="196.27"/>
    <polygon class="cls-20" points="281.78 196.27 206.38 196.27 206.38 203 210.63 203 210.63 200.52 281.78 200.52 281.78 196.27"/>
    <polyline class="cls-20" points="146.8 279.96 146.8 264.25 148.33 264.25 148.33 279.96"/>
    <rect class="cls-20" x="149.69" y="277.12" width="37.77" height="2.84"/>
    <polyline class="cls-20" points="148.33 279.96 149.69 279.96 149.69 233.68 145.43 233.68 145.43 279.96 146.8 279.96"/>
    <polyline class="cls-20" points="114.54 200.52 130.13 200.52 130.13 196.27 114.54 196.27"/>
    <rect class="cls-16" x="146.8" y="271.36" width="1.53" height="16.66"/>
    <polygon class="cls-20" points="281.78 147.23 281.78 98.47 226.79 98.47 226.79 92.8 287.45 92.8 287.45 147.23 281.78 147.23"/>
    <polyline class="cls-20" points="281.78 276.77 287.45 276.77 287.45 305.12 108.87 305.12 108.87 92.8 123.19 92.8 123.19 98.47 114.54 98.47 114.54 299.45 281.78 299.45 281.78 276.77"/>
    <polygon class="cls-20" points="281.78 240.49 281.78 196.27 281.78 183.65 287.45 183.65 287.45 240.49 281.78 240.49"/>
    <line class="cls-9" x1="281.78" y1="196.27" x2="281.78" y2="183.65"/>
    <line class="cls-9" x1="281.78" y1="240.49" x2="281.78" y2="200.52"/>
    <polygon class="cls-20" points="190.51 98.47 162.16 98.47 159.47 98.47 159.47 92.8 190.51 92.8 190.51 98.47"/>
    <rect class="cls-21" x="281.78" y="182.27" width="2.84" height="1.24"/>
    <rect class="cls-24" x="114.54" y="299.17" width="19.84" height="5.95"/>
    <line class="cls-9" x1="114.54" y1="298.75" x2="114.54" y2="305.12"/>
    <line class="cls-9" x1="134.48" y1="299.45" x2="134.48" y2="305.12"/>
    <line class="cls-11" x1="224.8" y1="278.26" x2="224.8" y2="283.86"/>
    <path class="cls-11" d="M205.47,246.45c-9.03-.48-16.1-7.94-16.1-16.98"/>
    <polyline class="cls-11" points="206.38 246.45 206.38 229.46 205.47 229.46 205.47 246.45"/>
    <line class="cls-11" x1="205.47" y1="246.45" x2="206.38" y2="246.45"/>
    <line class="cls-11" x1="253.15" y1="278.26" x2="253.15" y2="283.86"/>
    <polyline class="cls-11" points="163.58 200.52 147.04 207.37 147.04 200.52"/>
    <polyline class="cls-11" points="130.13 200.52 146.67 207.37 146.67 200.52"/>
    <line class="cls-11" x1="253.15" y1="278.26" x2="253.15" y2="283.86"/>
    <line class="cls-11" x1="238.98" y1="283.86" x2="253.15" y2="278.26"/>
    <line class="cls-11" x1="224.8" y1="278.26" x2="224.8" y2="283.86"/>
    <line class="cls-11" x1="210.63" y1="283.86" x2="224.8" y2="278.26"/>
    <line class="cls-11" x1="267.32" y1="283.86" x2="281.5" y2="278.26"/>
    <line class="cls-11" x1="281.5" y1="278.26" x2="281.5" y2="283.86"/>
    <line class="cls-11" x1="238.98" y1="283.86" x2="224.8" y2="278.26"/>
    <line class="cls-11" x1="267.32" y1="283.86" x2="253.15" y2="278.26"/>
    <path class="cls-11" d="M226.19,204.06c-.56,10.53-9.27,18.79-19.81,18.79"/>
    <polyline class="cls-11" points="226.19 203 206.38 203 206.38 204.06 226.19 204.06"/>
    <line class="cls-11" x1="226.19" y1="204.06" x2="226.19" y2="203"/>
    <line class="cls-11" x1="115.59" y1="285.3" x2="114.54" y2="285.3"/>
    <path class="cls-11" d="M115.59,285.3c10.53.56,18.79,9.27,18.79,19.81"/>
    <polyline class="cls-11" points="114.54 285.3 114.54 305.12 115.59 305.12 115.59 285.3"/>
    <g>
      <g class="cls-28">
        <text class="cls-29" transform="translate(211.75 142.91)"><tspan x="0" y="0">Salon</tspan></text>
        <text class="cls-29" transform="translate(211.75 150.11)"><tspan x="0" y="0">14m</tspan></text>
      </g>
      <g class="cls-28">
        <text class="cls-26" transform="translate(223.81 148.11)"><tspan x="0" y="0">2</tspan></text>
      </g>
    </g>
    <g class="cls-28">
      <text class="cls-29" transform="translate(232.93 247.69)"><tspan x="0" y="0">Chamb</tspan><tspan class="cls-25" x="19.92" y="0">r</tspan><tspan x="21.71" y="0">e </tspan></text>
      <text class="cls-29" transform="translate(232.93 254.89)"><tspan x="0" y="0">9m²</tspan></text>
    </g>
    <g class="cls-28">
      <text class="cls-29" transform="translate(154.55 246.99)"><tspan x="0" y="0">Salle de bain</tspan></text>
      <text class="cls-29" transform="translate(154.55 254.19)"><tspan x="0" y="0">4m²</tspan></text>
    </g>
    <g class="cls-28">
      <text class="cls-29" transform="translate(153.55 289.27)"><tspan x="0" y="0">WC </tspan></text>
      <text class="cls-29" transform="translate(153.55 296.47)"><tspan x="0" y="0">1m²</tspan></text>
    </g>
    <g class="cls-28">
      <text class="cls-29" transform="translate(135.14 142.91)"><tspan x="0" y="0">Cuisine</tspan></text>
      <text class="cls-29" transform="translate(135.14 150.11)"><tspan x="0" y="0">5m²</tspan></text>
    </g>
    <g>
      <line class="cls-11" x1="89.84" y1="305.07" x2="89.84" y2="200.52"/>
      <rect class="cls-24" x="85.58" y="246.45" width="7.84" height="12.92"/>
      <line class="cls-11" x1="108.87" y1="305.05" x2="89.84" y2="305.05"/>
      <line class="cls-11" x1="108.87" y1="200.5" x2="89.84" y2="200.5"/>
      <polyline class="cls-11" points="88.62 304.02 90.88 306.26 91.07 306.08 88.8 303.84 88.62 304.02"/>
      <polyline class="cls-11" points="91.07 200.87 88.8 198.63 88.62 198.81 90.88 201.05 91.07 200.87"/>
      <g class="cls-28">
        <text class="cls-27" transform="translate(91.97 258.79) rotate(-90)"><tspan x="0" y="0">3.50</tspan></text>
      </g>
    </g>
    <g>
      <rect class="cls-22" x="158.18" y="132.01" width="8.47" height="16.03"/>
      <line class="cls-6" x1="158.18" y1="132.01" x2="165.55" y2="132.01"/>
      <line class="cls-6" x1="165.55" y1="132.01" x2="165.55" y2="133.62"/>
      <line class="cls-6" x1="165.55" y1="146.44" x2="165.55" y2="148.04"/>
      <line class="cls-6" x1="158.18" y1="148.04" x2="165.55" y2="148.04"/>
      <line class="cls-6" x1="159.79" y1="133.62" x2="159.79" y2="146.44"/>
      <line class="cls-6" x1="159.79" y1="133.62" x2="166.66" y2="133.62"/>
      <line class="cls-6" x1="159.79" y1="146.44" x2="166.66" y2="146.44"/>
    </g>
    <g>
      <rect class="cls-22" x="193.59" y="133.2" width="8.47" height="16.03"/>
      <line class="cls-6" x1="202.06" y1="149.22" x2="194.7" y2="149.22"/>
      <line class="cls-6" x1="194.7" y1="149.22" x2="194.7" y2="147.62"/>
      <line class="cls-6" x1="194.7" y1="134.8" x2="194.7" y2="133.19"/>
      <line class="cls-6" x1="202.06" y1="133.19" x2="194.7" y2="133.19"/>
      <line class="cls-6" x1="200.46" y1="147.62" x2="200.46" y2="134.8"/>
      <line class="cls-6" x1="200.46" y1="147.62" x2="193.59" y2="147.62"/>
      <line class="cls-6" x1="200.46" y1="134.8" x2="193.59" y2="134.8"/>
    </g>
    <g>
      <line class="cls-11" x1="89.72" y1="181.9" x2="89.72" y2="98.88"/>
      <line class="cls-11" x1="108.74" y1="181.53" x2="89.72" y2="181.53"/>
      <line class="cls-11" x1="108.74" y1="98.53" x2="89.72" y2="98.53"/>
      <polyline class="cls-11" points="88.49 180.5 90.76 182.74 90.94 182.56 88.67 180.32 88.49 180.5"/>
      <polyline class="cls-11" points="90.94 99.56 88.67 97.32 88.49 97.5 90.76 99.74 90.94 99.56"/>
      <g>
        <rect class="cls-24" x="85.45" y="133.54" width="7.84" height="12.92"/>
        <g class="cls-28">
          <text class="cls-27" transform="translate(91.84 146.44) rotate(-90)"><tspan x="0" y="0">2.90</tspan></text>
        </g>
      </g>
    </g>
    <g>
      <line class="cls-11" x1="306.52" y1="196.74" x2="306.52" y2="98.96"/>
      <line class="cls-11" x1="287.49" y1="196.6" x2="306.52" y2="196.6"/>
      <line class="cls-11" x1="287.49" y1="98.47" x2="306.52" y2="98.47"/>
      <polyline class="cls-11" points="307.75 195.57 305.48 197.81 305.3 197.63 307.56 195.39 307.75 195.57"/>
      <polyline class="cls-11" points="305.3 99.5 307.56 97.26 307.75 97.44 305.48 99.68 305.3 99.5"/>
      <g>
        <rect class="cls-24" x="302.95" y="141.39" width="7.84" height="12.92"/>
        <g class="cls-28">
          <text class="cls-27" transform="translate(309.34 153.74) rotate(-90)"><tspan x="0" y="0">3.45</tspan></text>
        </g>
      </g>
    </g>
    <g>
      <line class="cls-11" x1="306.82" y1="299.35" x2="306.82" y2="201.2"/>
      <line class="cls-11" x1="287.8" y1="299.45" x2="306.82" y2="299.45"/>
      <line class="cls-11" x1="287.8" y1="200.81" x2="306.82" y2="200.81"/>
      <polyline class="cls-11" points="308.22 298.28 305.95 300.52 305.77 300.35 308.04 298.1 308.22 298.28"/>
      <polyline class="cls-11" points="305.6 201.84 307.87 199.6 308.05 199.78 305.78 202.02 305.6 201.84"/>
      <g>
        <rect class="cls-24" x="303.25" y="243.82" width="7.84" height="12.92"/>
        <g class="cls-28">
          <text class="cls-27" transform="translate(309.64 256.17) rotate(-90)"><tspan x="0" y="0">3.50</tspan></text>
        </g>
      </g>
    </g>
    <g>
      <line class="cls-11" x1="166.42" y1="73.65" x2="281.48" y2="73.65"/>
      <line class="cls-11" x1="166.66" y1="92.68" x2="166.66" y2="73.65"/>
      <line class="cls-11" x1="282.06" y1="92.68" x2="282.06" y2="73.65"/>
      <polyline class="cls-11" points="167.44 72.43 165.2 74.7 165.38 74.88 167.62 72.61 167.44 72.43"/>
      <polyline class="cls-11" points="281.03 74.88 283.28 72.61 283.1 72.43 280.85 74.7 281.03 74.88"/>
      <g>
        <rect class="cls-24" x="217.48" y="69.39" width="12.92" height="7.84"/>
        <g class="cls-28">
          <text class="cls-27" transform="translate(218.06 75.78)"><tspan x="0" y="0">4.10</tspan></text>
        </g>
      </g>
    </g>
    <g>
      <line class="cls-11" x1="282.3" y1="324.53" x2="210.78" y2="324.53"/>
      <line class="cls-11" x1="282.02" y1="305.5" x2="282.02" y2="324.53"/>
      <line class="cls-11" x1="210.73" y1="305.5" x2="210.73" y2="324.53"/>
      <polyline class="cls-11" points="281.23 325.75 283.48 323.49 283.3 323.3 281.05 325.57 281.23 325.75"/>
      <polyline class="cls-11" points="211.66 323.3 209.42 325.57 209.6 325.75 211.84 323.49 211.66 323.3"/>
      <g>
        <rect class="cls-24" x="240.07" y="319.86" width="12.92" height="7.84"/>
        <g class="cls-28">
          <text class="cls-27" transform="translate(240.87 325.75)"><tspan x="0" y="0">2.50</tspan></text>
        </g>
      </g>
    </g>
    <g>
      <line class="cls-11" x1="206.04" y1="324.53" x2="114" y2="324.53"/>
      <line class="cls-11" x1="206.3" y1="305.5" x2="206.3" y2="324.53"/>
      <line class="cls-11" x1="114.54" y1="305.5" x2="114.54" y2="324.53"/>
      <polyline class="cls-11" points="205.51 325.75 207.75 323.49 207.58 323.3 205.33 325.57 205.51 325.75"/>
      <polyline class="cls-11" points="115.57 323.3 113.33 325.57 113.51 325.75 115.75 323.49 115.57 323.3"/>
      <g>
        <rect class="cls-24" x="153.55" y="319.86" width="12.92" height="7.84"/>
        <g class="cls-28">
          <text class="cls-27" transform="translate(154.14 326.25)"><tspan x="0" y="0">3.20</tspan></text>
        </g>
      </g>
    </g>
    <g>
      <line class="cls-11" x1="114.97" y1="73.65" x2="162.65" y2="73.65"/>
      <line class="cls-11" x1="114.54" y1="92.68" x2="114.54" y2="73.65"/>
      <line class="cls-11" x1="162.81" y1="92.68" x2="162.81" y2="73.65"/>
      <polyline class="cls-11" points="115.57 72.43 113.33 74.7 113.51 74.88 115.75 72.61 115.57 72.43"/>
      <polyline class="cls-11" points="161.77 74.88 164.02 72.61 163.84 72.43 161.59 74.7 161.77 74.88"/>
      <g>
        <rect class="cls-24" x="132.35" y="69.38" width="12.92" height="7.84"/>
        <g class="cls-28">
          <text class="cls-27" transform="translate(132.93 75.78)"><tspan x="0" y="0">1.70</tspan></text>
        </g>
      </g>
    </g>
    <g>
      <line class="cls-4" x1="162.16" y1="181.53" x2="162.16" y2="180.53"/>
      <line class="cls-10" x1="162.16" y1="178.55" x2="162.16" y2="100.46"/>
      <line class="cls-4" x1="162.16" y1="99.47" x2="162.16" y2="98.47"/>
    </g>
    <g>
      <line class="cls-4" x1="166.41" y1="98.47" x2="166.41" y2="99.47"/>
      <line class="cls-10" x1="166.41" y1="101.45" x2="166.41" y2="179.54"/>
      <line class="cls-4" x1="166.41" y1="180.53" x2="166.41" y2="181.53"/>
    </g>
  </g>
  <g id="Calque_13" data-name="Calque 13">
    <polyline class="cls-20" points="149.69 233.68 149.69 277.12 187.46 277.12 187.46 299.45 184.67 299.45 184.67 279.95 148.33 279.95 148.33 271.36 146.8 271.36 146.8 279.96 145.43 279.96 145.43 229.43 189.39 229.43"/>
    <polyline class="cls-20" points="189.39 229.43 189.37 233.68 149.69 233.68"/>
  </g>
</svg>