<svg xmlns="http://www.w3.org/2000/svg" xmlns:xlink="http://www.w3.org/1999/xlink" viewBox="0 0 396.85 396.85"><defs><pattern id="Nouveau_motif_2" width="34.23" height="27.94" x="0" y="0" data-name="Nouveau motif 2" patternTransform="matrix(.5 0 0 .5 -3368.96 -3671.24)" patternUnits="userSpaceOnUse"><path d="M0 0h34.23v27.94H0z" class="cls-3"/><path d="M17.14 25.63h34.18v4.61H17.14zM-17.09 25.63h34.18v4.61h-34.18zM.03 20.98h34.18v4.61H.03zM17.14 16.32h34.18v4.61H17.14zM-17.09 16.32h34.18v4.61h-34.18zM.03 11.67h34.18v4.61H.03zM17.14 7.01h34.18v4.61H17.14zM-17.09 7.01h34.18v4.61h-34.18zM.03 2.35h34.18v4.61H.03zM17.14-2.3h34.18v4.61H17.14zM-17.09-2.3h34.18v4.61h-34.18z" class="cls-5"/></pattern><pattern xlink:href="#Nouveau_motif_2" id="Nouveau_motif_2-2" data-name="Nouveau motif 2" patternTransform="matrix(.5 0 0 .5 -3368.96 -3667.73)"/><pattern id="Nouveau_motif" width="8.64" height="11.39" x="0" y="0" data-name="Nouveau motif" patternTransform="matrix(.28 0 0 .43 -4374.64 -3686.8)" patternUnits="userSpaceOnUse"><path d="M0 0h8.64v11.39H0z" class="cls-3"/><path d="M10.78.03v11.33H6.51V.03zM6.46.03v11.33H2.19V.03zM2.14.03v11.33h-4.28V.03z" class="cls-5"/></pattern><style>.cls-2,.cls-3,.cls-5,.cls-6,.cls-7,.cls-9{fill:none}.cls-10,.cls-13,.cls-14,.cls-16,.cls-2,.cls-5,.cls-6,.cls-7,.cls-9{stroke-miterlimit:10}.cls-10,.cls-13,.cls-16,.cls-17,.cls-2,.cls-6,.cls-9{stroke-width:.15px}.cls-14,.cls-16,.cls-2,.cls-7{stroke:#000}.cls-18,.cls-3{stroke-width:0}.cls-10{fill:url(#Nouveau_motif)}.cls-10,.cls-13,.cls-17,.cls-5,.cls-9{stroke:#333}.cls-5{stroke-width:.05px}.cls-13,.cls-17,.cls-18{fill:#fff}.cls-14{stroke-width:.5px}.cls-17{stroke-linecap:round;stroke-linejoin:round}.cls-19{fill:#333;font-family:Avenir-Medium,Avenir;font-size:6.23px;font-weight:500}.cls-14,.cls-16{fill:#999}.cls-20{fill:#000;font-family:AvenirNext-UltraLight,&quot;Avenir Next&quot;;font-size:6px;font-weight:100}.cls-6{stroke:#696969}.cls-7{stroke-width:.25px}</style></defs><g id="Calque_12" data-name="Calque 12"><path d="M209.04 95.61h16.27v2.83h-16.27M209.04 97.03h16.27M191.52 97.03h16.27" class="cls-2"/><path d="M225.31 95.61h1.24v2.84h-1.24zM207.79 95.61h1.24v2.84h-1.24z" class="cls-17"/><path d="M191.52 95.61h16.27v2.83h-16.27M191.52 97.03h16.27" class="cls-2"/><path d="M190.28 95.61h1.24v2.84h-1.24z" class="cls-17"/><path d="M190.28 92.77h36.28" class="cls-6"/><path d="M284.39 259.11v16.28h-2.84v-16.28M282.97 259.11v16.28M282.97 241.59v16.28" class="cls-2"/><path d="M281.55 275.39h2.84v1.24h-2.84zM281.55 257.87h2.84v1.24h-2.84z" class="cls-17"/><path d="M284.39 241.59v16.28h-2.84v-16.28M282.97 241.59v16.28" class="cls-2"/><path d="M281.55 240.35h2.84v1.24h-2.84z" class="cls-17"/><path d="M287.22 240.35v36.29" class="cls-6"/><path d="M210.4 201.15h71.15v98.24H210.4z" style="stroke-miterlimit:10;stroke:#333;stroke-width:.05px;fill:url(#Nouveau_motif_2)"/><path d="M166.13 98.59v102.24l-51.88-.28v99.97l30.96-.87-.16-70.21 61.05.03V196.3h75.4l.28-98.19z" style="stroke-miterlimit:10;stroke:#333;fill:url(#Nouveau_motif_2-2);stroke-width:.05px"/><path d="M166.48 233.66h39.67v65.78h-39.67z" class="cls-10"/><ellipse cx="199.36" cy="289.73" class="cls-18" rx="4.58" ry="6.3"/><path d="M193.47 294.45h11.77v4.97h-11.77z" class="cls-18"/><path d="M129.9 98.75h32.84v97.49H129.9z" class="cls-10"/><path d="M131.26 98.44h17.01v14.88h-17.01z" class="cls-13"/><path d="M148.26 98.44h13.66v14.88h-13.66z" class="cls-13"/><path d="M197.13 294.28h2.23M199.36 292.82c1.6 0 2.97-1.15 3.24-2.73M202.05 284.45c-.8-.72-1.6-1.03-2.69-1.03M203.53 286.65c-.29-.91-.76-1.59-1.49-2.2M203.73 290.34c.33-1.3.27-2.43-.2-3.69M203.62 290.78c.04-.15.08-.29.11-.44M199.81 284.75h-.45M199.46 290.95c.25-.14.41-.31.53-.57" class="cls-17"/><path d="M199.36 291.73c.51 0 .93-.42.93-.93s-.42-.93-.93-.93M201.59 294.28h-2.23M199.36 299.42h5.58M202.58 294.32l1.04-3.54M205.24 299.12v-3.39M204.94 299.42c.21 0 .3-.09.3-.3M202.65 294.32l-1.06-.04M203.64 294.58c-.32-.16-.64-.24-.99-.26M204.92 295.2c-.41-.24-.83-.44-1.27-.62M205.24 295.73c0-.26-.09-.41-.33-.52" class="cls-17"/><path d="M199.99 290.38c.08-.13.06-.21-.06-.3M200.97 285.07a2.16 2.16 0 0 0-1.16-.32M196.14 294.32l-1.04-3.54M193.47 299.12v-3.39M193.47 299.12c0 .21.09.3.3.3M199.36 299.42h-5.58M193.8 295.2c-.24.12-.33.26-.33.52M195.07 294.58c-.44.18-.86.39-1.27.62M199.36 289.87c-.51 0-.93.42-.93.93s.42.93.93.93M198.91 284.75c-.43 0-.79.1-1.16.32M198.91 284.75h.45M199.36 283.42c-1.08 0-1.88.31-2.69 1.03M196.67 284.45c-.73.61-1.19 1.29-1.49 2.2M195.19 286.65c-.47 1.26-.53 2.39-.2 3.69M194.99 290.34c.03.15.06.3.11.44M197.75 285.07c-.11.08-.22.16-.32.25M197.43 285.32c-.57.47-.93 1-1.15 1.7M196.27 287.02c-.39 1.05-.44 1.99-.16 3.07M196.11 290.09a3.284 3.284 0 0 0 3.24 2.73M201.29 285.32c-.1-.09-.21-.18-.32-.25M202.45 287.02c-.22-.71-.58-1.23-1.15-1.7M202.6 290.09c.28-1.08.24-2.02-.16-3.07M196.07 294.32c-.36.02-.67.1-.99.26M196.07 294.32l1.06-.04" class="cls-17"/><path d="M198.73 290.38c.12.26.28.43.53.57M198.78 290.08c-.12.09-.13.17-.06.3M199.36 290.97s.07 0 .1-.02M199.26 290.95s.07.02.1.02" class="cls-17"/><rect width="13.17" height="13.17" x="133.2" y="99.3" rx="1.91" ry="1.91" style="fill:none;stroke-width:.15px;stroke:#333;stroke-linecap:round;stroke-linejoin:round" transform="rotate(90 139.785 105.885)"/><circle cx="139.93" cy="102.77" r=".72" class="cls-9"/><path d="M166.18 255.47h19.54v43.8h-19.54z" class="cls-13"/><rect width="13.44" height="38.01" x="169.46" y="257.72" class="cls-9" rx="6.72" ry="6.72"/><path d="M205.24 246.42h.91M206.15 246.42v-16.99h-.91v16.99M205.24 246.42c-9.03-.48-16.1-7.94-16.1-16.98M155.2 180.68h1.06M156.26 180.68v19.81h-1.06v-19.81M155.2 180.68c-10.53.56-18.79 9.27-18.79 19.81M225.96 204.03c-.56 10.53-9.27 18.79-19.81 18.79M225.96 202.98h-19.81v1.05h19.81M225.96 204.03v-1.05M133.32 298.79v.63" class="cls-9"/><path d="M114.31 181.5h15.59v14.74h-15.59z" class="cls-14"/><path d="M281.55 196.24h-90.99M281.55 200.49H210.4" class="cls-16"/><path d="M206.15 222.7h4.25v76.72h-4.25zM145.2 229.4h43.94v4.25H145.2zM162.21 233.66h4.25v65.76h-4.25z" class="cls-14"/><path d="M145.2 233.66v65.76M161.93 196.24v-97.8" class="cls-16"/><path d="M115.72 182.92h12.76v11.91h-12.76z" style="stroke-miterlimit:10;stroke:#000;fill:#fff;stroke-width:.5px"/><path d="M166.18 98.44v97.8" class="cls-16"/><path d="M167.88 196.24h-11.62v4.25h11.62M114.31 200.49h22.11v-4.25h-22.11" class="cls-14"/><path d="M206.15 200.49v2.49h4.25v-2.49M167.88 196.24v4.25M190.56 200.49v-4.25M190.56 200.49h90.99" class="cls-16"/><path d="M161.93 98.44h4.25v97.8h-4.25zM190.56 196.24h90.99v5.49h-90.99z" class="cls-14"/><path d="M281.55 196.24v-12.62M281.55 240.46v-39.97" class="cls-16"/><path d="M210.4 299.42h71.15" class="cls-2"/><path d="M190.28 98.44h-31.04v-5.67h31.04z" class="cls-14"/><path d="M141.86 95.61h16.28v2.83h-16.28M141.86 97.03h16.28M124.35 97.03h16.27" class="cls-2"/><path d="M158.14 95.61h1.24v2.84h-1.24zM140.62 95.61h1.24v2.84h-1.24zM124.35 95.61h16.27v2.83h-16.27M124.35 97.03h16.27M123.1 95.61h1.24v2.84h-1.24z" class="cls-2"/><path d="M123.1 92.77h36.29" class="cls-6"/><path d="M284.39 165.96v16.28h-2.84v-16.28M282.97 165.96v16.28M282.97 148.44v16.28" class="cls-2"/><path d="M281.55 182.24h2.84v1.24h-2.84zM281.55 164.72h2.84v1.24h-2.84z" class="cls-17"/><path d="M284.39 148.44v16.28h-2.84v-16.28M282.97 148.44v16.28" class="cls-2"/><path d="M281.55 147.2h2.84v1.24h-2.84z" class="cls-17"/><path d="M287.22 147.2v36.28" class="cls-6"/><path d="M114.31 164.41h17.01v17.01h-17.01zM114.31 147.34h17.01v17.01h-17.01zM114.31 130.33h17.01v17.01h-17.01z" class="cls-13"/><path d="M114.31 113.33h17.01v17.01h-17.01zM114.31 98.44h17.01v14.88h-17.01z" class="cls-13"/><circle cx="176.31" cy="293.42" r=".87" class="cls-9"/><circle cx="342.33" cy="343.88" r="9.92" class="cls-7"/><path d="m342.25 343.88-7.25 6.68" class="cls-7"/><path d="m349.58 337.11-7.33 6.77" style="fill:none;stroke-miterlimit:10;stroke:#000;stroke-width:2px"/><path d="M281.55 276.74h5.67v28.35H108.64V92.77h14.32v5.67h-8.65v200.98h167.24v-22.68M281.55 147.2V98.44h-54.99v-5.67h60.66v54.43zM281.55 240.46v-56.839999999999996h5.67v56.84z" class="cls-14"/></g><g id="trait_fin" data-name="trait fin"><text class="cls-20" transform="translate(211.61 143.03)"><tspan x="0" y="0">Salon</tspan><tspan x="0" y="7.2">14m</tspan></text><text class="cls-20" transform="matrix(.58 0 0 .58 223.67 148.23)"><tspan x="0" y="0">2</tspan></text><text class="cls-20" transform="translate(225.63 150.23)"><tspan x="0" y="0"> </tspan></text><text class="cls-20" transform="translate(232.79 247.81)"><tspan x="0" y="0">Chamb</tspan><tspan x="19.92" y="0" style="letter-spacing:-.02em">r</tspan><tspan x="21.71" y="0">e </tspan><tspan x="0" y="7.2">9m² </tspan></text><text class="cls-20" transform="translate(168.18 247.11)"><tspan x="0" y="0">Salle de bain</tspan><tspan x="0" y="7.2">WC</tspan><tspan x="0" y="14.4">3m² </tspan></text><text class="cls-20" transform="translate(135 143.03)"><tspan x="0" y="0">Cuisine</tspan><tspan x="0" y="7.2">5m² </tspan></text><path d="M89.7 305.18V200.64" class="cls-9"/><path d="M85.44 246.56h7.84v12.92h-7.84z" class="cls-18"/><path d="M108.73 305.16H89.7M108.73 200.61H89.7M88.48 304.13l2.26 2.24.19-.18-2.27-2.24-.18.18M90.93 200.99l-2.27-2.24-.18.18 2.26 2.24.19-.18" class="cls-9"/><text class="cls-19" transform="matrix(0 -.99 1 0 91.83 258.91)"><tspan x="0" y="0">3.50</tspan></text><path d="M89.58 182.01V98.99M108.6 181.64H89.58M108.6 98.64H89.58M88.35 180.61l2.27 2.24.18-.17-2.27-2.25-.18.18M90.8 99.67l-2.27-2.24-.18.18 2.27 2.24.18-.18" class="cls-9"/><path d="M85.31 133.66h7.84v12.92h-7.84z" class="cls-18"/><text class="cls-19" transform="matrix(0 -.99 1 0 91.7 146.56)"><tspan x="0" y="0">2.90</tspan></text><path d="M306.38 196.85V99.08M287.35 196.71h19.03M287.35 98.59h19.03M307.6 195.68l-2.26 2.25-.18-.18 2.26-2.25.18.18M305.16 99.62l2.26-2.24.18.18-2.26 2.24-.18-.18" class="cls-9"/><path d="M302.81 141.51h7.84v12.92h-7.84z" class="cls-18"/><text class="cls-19" transform="matrix(0 -.99 1 0 309.2 153.86)"><tspan x="0" y="0">3.45</tspan></text><path d="M306.68 299.47v-98.15M287.66 299.57h19.02M287.66 200.92h19.02M308.08 298.4l-2.27 2.24-.18-.18 2.27-2.24.18.18M305.46 201.96l2.27-2.25.18.18-2.27 2.24-.18-.17" class="cls-9"/><path d="M303.11 243.94h7.84v12.92h-7.84z" class="cls-18"/><text class="cls-19" transform="matrix(0 -.99 1 0 309.5 256.28)"><tspan x="0" y="0">3.50</tspan></text><path d="M166.28 73.77h115.06M166.52 92.8V73.77M281.92 92.8V73.77M167.3 72.54l-2.24 2.27.18.18 2.24-2.26-.18-.19M280.89 74.99l2.25-2.26-.18-.19-2.25 2.27.18.18" class="cls-9"/><path d="M230.27 69.51v7.84h-12.92v-7.84z" class="cls-18"/><text class="cls-19" transform="matrix(.99 0 0 1 217.92 75.89)"><tspan x="0" y="0">4.10</tspan></text><path d="M282.16 324.65h-71.52M281.88 305.62v19.03M210.59 305.62v19.03M281.09 325.87l2.25-2.27-.18-.18-2.25 2.27.18.18M211.52 323.42l-2.24 2.27.18.18 2.24-2.27-.18-.18" class="cls-9"/><path d="M252.86 319.97v7.84h-12.92v-7.84z" class="cls-18"/><text class="cls-19" transform="matrix(.99 0 0 1 240.73 325.87)"><tspan x="0" y="0">2.50</tspan></text><path d="M205.9 324.65h-92.04M206.16 305.62v19.03M114.4 305.62v19.03M205.37 325.87l2.24-2.27-.17-.18-2.25 2.27.18.18M115.43 323.42l-2.24 2.27.18.18 2.24-2.27-.18-.18" class="cls-9"/><path d="M166.34 319.97v7.84h-12.92v-7.84z" class="cls-18"/><text class="cls-19" transform="matrix(.99 0 0 1 154 326.37)"><tspan x="0" y="0">3.20</tspan></text><path d="M114.83 73.77h47.68M114.4 92.8V73.77M162.66 92.8V73.77M115.43 72.54l-2.24 2.27.18.18 2.24-2.26-.18-.19M161.63 74.99l2.25-2.26-.18-.19-2.25 2.27.18.18" class="cls-9"/><path d="M145.13 69.5v7.84h-12.92V69.5z" class="cls-18"/><text class="cls-19" transform="matrix(.99 0 0 1 132.79 75.89)"><tspan x="0" y="0">1.70</tspan></text></g><g id="Calque_13" data-name="Calque 13"><path d="M161.93 98.44v97.44h-5.67v4.61h11.62v-4.25h-1.7V98.45zM206.15 201.73h4.25v1.24h-4.25z" class="cls-14"/><path d="M114.25 299.1h19.9v6.26h-19.9z" class="cls-18"/><path d="M115.36 285.27c10.53.56 18.79 9.27 18.79 19.81M114.31 285.27v19.82h1.05v-19.82M115.36 285.27h-1.05" class="cls-9"/><path d="M134.15 305.16v-5.99M114.31 305.09v-6.3" class="cls-14"/></g></svg>