<svg xmlns="http://www.w3.org/2000/svg" xmlns:xlink="http://www.w3.org/1999/xlink" viewBox="0 0 396.85 396.85"><defs><pattern id="Nouveau_motif_2" width="34.23" height="27.94" x="0" y="0" data-name="Nouveau motif 2" patternTransform="matrix(.5 0 0 .5 -4080.98 -3687.67)" patternUnits="userSpaceOnUse"><path d="M0 0h34.23v27.94H0z" class="cls-3"/><path d="M17.14 25.63h34.18v4.61H17.14zM-17.09 25.63h34.18v4.61h-34.18zM.03 20.98h34.18v4.61H.03zM17.14 16.32h34.18v4.61H17.14zM-17.09 16.32h34.18v4.61h-34.18zM.03 11.67h34.18v4.61H.03zM17.14 7.01h34.18v4.61H17.14zM-17.09 7.01h34.18v4.61h-34.18zM.03 2.35h34.18v4.61H.03zM17.14-2.3h34.18v4.61H17.14zM-17.09-2.3h34.18v4.61h-34.18z" class="cls-6"/></pattern><pattern id="Nouveau_motif" width="8.64" height="11.39" x="0" y="0" data-name="Nouveau motif" patternTransform="matrix(.3 0 0 .36 -4848 -4333.42)" patternUnits="userSpaceOnUse"><path d="M0 0h8.64v11.39H0z" class="cls-3"/><path d="M10.78.03v11.33H6.51V.03zM6.46.03v11.33H2.19V.03zM2.14.03v11.33h-4.28V.03z" class="cls-6"/></pattern><pattern xlink:href="#Nouveau_motif_2" id="Nouveau_motif_2-2" data-name="Nouveau motif 2" patternTransform="matrix(.5 0 0 .5 -4070.33 -3685.15)"/><pattern xlink:href="#Nouveau_motif_2" id="Nouveau_motif_2-3" data-name="Nouveau motif 2" patternTransform="matrix(.5 0 0 .5 -4070.33 -3685.15)"/><style>.cls-10,.cls-11,.cls-12,.cls-2,.cls-3,.cls-5,.cls-6,.cls-7,.cls-8,.cls-9{fill:none}.cls-10,.cls-11,.cls-12,.cls-18,.cls-19,.cls-2,.cls-5,.cls-6,.cls-7,.cls-9{stroke-miterlimit:10}.cls-19,.cls-2,.cls-7,.cls-9{stroke:#000}.cls-10,.cls-12,.cls-18,.cls-2,.cls-20,.cls-21,.cls-5,.cls-8{stroke-width:.15px}.cls-23,.cls-3{stroke-width:0}.cls-10,.cls-18,.cls-20,.cls-6,.cls-8{stroke:#333}.cls-6{stroke-width:.05px}.cls-18,.cls-20,.cls-21,.cls-23{fill:#fff}.cls-7{stroke-width:.25px}.cls-19,.cls-9{stroke-width:.5px}.cls-20,.cls-21,.cls-8{stroke-linecap:round;stroke-linejoin:round}.cls-24{fill:#333;font-family:Avenir-Medium,Avenir;font-size:6.23px;font-weight:500}.cls-12,.cls-21,.cls-5{stroke:#666}.cls-19{fill:#999}.cls-25{fill:#000;font-family:AvenirNext-UltraLight,&quot;Avenir Next&quot;;font-size:6px;font-weight:100}.cls-11{stroke:#696969;stroke-width:.1px}.cls-12{stroke-dasharray:0 0 1.98 1.98}</style></defs><g id="Calque_12" data-name="Calque 12"><circle cx="342.33" cy="343.88" r="9.92" class="cls-7"/><path d="m342.25 343.88-7.25 6.68" class="cls-7"/><path d="m349.58 337.11-7.33 6.77" style="fill:none;stroke-miterlimit:10;stroke:#000;stroke-width:2px"/></g><g id="trait_fin" data-name="trait fin"><path d="M284.62 259.25v16.28h-2.84v-16.28M283.2 259.25v16.28M283.2 241.73v16.28M281.78 258.01v-16.28h2.84v16.28" class="cls-2"/><path d="M281.78 240.49h2.84v1.24h-2.84zM281.78 275.53h2.84v1.24h-2.84zM281.78 258.01h2.84v1.24h-2.84z" class="cls-20"/><path d="M287.45 240.49v36.28" class="cls-11"/><path d="M281.78 164.75v-16.28h2.84v16.28M284.62 165.99v16.28h-2.84v-16.28M283.2 165.99v16.28M283.2 148.47v16.28" class="cls-2"/><path d="M281.78 164.75h2.84v1.24h-2.84zM281.78 147.23h2.84v1.24h-2.84z" class="cls-20"/><path d="M287.45 147.23v36.42" class="cls-11"/><path d="M208.03 98.47h-16.28v-2.83h16.28M209.27 95.64h16.28v2.83h-16.28M209.27 97.05h16.28M191.75 97.05h16.28" class="cls-2"/><path d="M225.55 95.64h1.24v2.84h-1.24zM208.03 95.64h1.24v2.84h-1.24zM190.51 95.64h1.24v2.84h-1.24z" class="cls-20"/><path d="M190.51 92.8h36.28" class="cls-11"/><path d="M124.43 97.05h16.28M140.71 98.47h-16.28v-2.83h16.28M141.95 95.64h16.28v2.83h-16.28M141.95 97.05h16.28" class="cls-2"/><path d="M158.23 95.64h1.24v2.84h-1.24zM140.71 95.64h1.24v2.84h-1.24zM123.19 95.64h1.24v2.84h-1.24z" class="cls-20"/><path d="M123.19 92.8h36.28" class="cls-11"/><path d="M131.54 98.47h34.87v83.06h-34.87z" style="stroke-width:0;fill:url(#Nouveau_motif_2)"/><path d="M170.95 233.68v35.66h16.51v7.78h18.92v-43.44l-20.97-.14-.13 1.31-12.2-.02v-1.15z" style="stroke-miterlimit:10;stroke:#333;stroke-width:.05px;fill:url(#Nouveau_motif)"/><path d="M210.63 200.52h70.87v83.06h-70.87z" style="stroke-miterlimit:10;fill:url(#Nouveau_motif_2-2);stroke:#333;stroke-width:.05px"/><path d="M166.41 98.47V200.8l-51.87-.28v100.06l30.95-.87-.15-70.28 61.04.03v-33.19h75.4v-97.8z" style="stroke-miterlimit:10;stroke:#333;stroke-width:.05px;fill:url(#Nouveau_motif_2-3)"/><path d="m271.01 223.93-10.94-1.55.58-7.19 13.42.29zM215.71 178.9h4.23v12.39h-4.23zM258.75 178.9h4.23v12.39h-4.23z" class="cls-23"/><path d="M217.89 177.74h42.97v18.86h-42.97z" class="cls-23"/><path d="M248.1 210.38c1.43-.71 2-2.45 1.29-3.87s-2.45-2-3.87-1.29c-1.43.71-2 2.45-1.29 3.87.71 1.43 2.44 2 3.87 1.29ZM131.54 98.47h12.76v15.02h-12.76z" class="cls-18"/><path d="M182.76 272.06c-.16-.59-.64-1.04-1.24-1.16M181.51 270.9c-.3-.06-.61-.1-.92-.12M182.06 275.26c.12 0 .24 0 .36-.02M182.43 275.24c.31-.03.54-.29.54-.59M179.2 275.26h2.86M183.13 277.12c.18 0 .27-.07.29-.25M183.13 277.12h-3.93M183.68 274.11c.02-.76-.06-1.49-.27-2.23M183.42 276.87c.14-.92.23-1.83.26-2.76M181.65 270.23c-.33-.07-.67-.11-1.01-.14M183.42 271.88c-.23-.84-.91-1.48-1.77-1.65M180.59 270.78a22 22 0 0 0-1.39-.04M180.64 270.1c-.48-.03-.96-.05-1.44-.05" class="cls-10"/><path d="M170.95 269.34h16.51v7.79h-16.51zM187.46 277.12h18.92v22.33h-18.92z" class="cls-10"/><path d="M188.56 281.88h17.01v17.01h-17.01zM245.3 206.81l-4.42-1.4" class="cls-10"/><path d="M166.66 98.53h23.85v7.46h-23.85z" class="cls-18"/><path d="M152.8 275.16a.781.781 0 0 0 0-1.56.781.781 0 0 0 0 1.56ZM154.98 274.38l7.45-1.03M152.22 271.29l.58-7.74M154.73 272.39l2.97-3.08" class="cls-10"/><path d="M149.69 233.68h21.26v43.44h-21.26zM210.63 283.86h71.15v15.59h-71.15z" class="cls-10"/><path d="M237.05 98.47h34.48v11.8h-34.48z" class="cls-18"/><path d="M114.54 98.47h17.01v15.02h-17.01zM169.97 252.86h.97v24.26h-.97zM177.49 276.15c0 .16.07.22.22.22s.22-.07.22-.22-.07-.22-.22-.22-.22.07-.22.22ZM180.47 276.15c0 .16.07.22.22.22s.22-.07.22-.22-.07-.22-.22-.22-.22.07-.22.22ZM179.2 270.05c-.48 0-.96.02-1.44.05M176.76 270.23c-.85.17-1.53.81-1.77 1.65M177.77 270.1c-.34.02-.68.07-1.01.14M174.72 274.11c.03.93.12 1.84.26 2.76M174.99 271.88c-.2.74-.29 1.47-.27 2.23M175.28 277.12h3.92M174.98 276.87c.03.18.11.25.29.25M179.2 275.26h-2.85M175.44 274.65c0 .31.23.56.54.59M175.98 275.24c.12.01.24.02.36.02M177.81 270.78c-.31.02-.61.06-.92.12M179.2 270.74c-.46 0-.93.01-1.39.04M176.89 270.9c-.6.12-1.08.57-1.24 1.16M175.65 272.06a6.6 6.6 0 0 0-.24 2.02M175.41 274.09c0 .19 0 .37.03.56M178.86 274.21c0 .24.1.34.34.34s.34-.1.34-.34-.1-.34-.34-.34-.34.1-.34.34ZM178.94 276.15c0 .18.08.26.26.26s.26-.08.26-.26-.08-.26-.26-.26-.26.08-.26.26ZM182.96 274.65c.03-.19.04-.37.03-.56M183 274.09c.02-.69-.06-1.36-.24-2.02M262.3 191.64h-2.87M262.3 191.64c.37 0 .61-.35.61-.69M258.82 190.94c0 .35.24.69.61.69M260.25 196.27c.37 0 .61-.35.61-.69M231.6 192.79h14.94M232.21 196.27h14.33M260.86 192.79h-14.32M260.25 196.27h-13.71M259.43 178.9h2.87M262.91 179.59c0-.34-.24-.69-.61-.69M260.86 178.44v.46M259.43 178.9c-.37 0-.61.35-.61.69M260.86 178.44c0-.34-.24-.69-.61-.69M246.54 177.74h-14.33M246.54 177.74h13.71M262.91 179.59v11.35M258.82 179.59v11.35M217.89 192.79h14.32M218.5 196.27h13.71M232.21 177.74H218.5" class="cls-10"/><path d="M210.73 224.22h7.42v7.42h-7.42zM210.63 233.34h53.75v39.7h-53.75z" class="cls-18"/><path d="M230.83 233.34v39.69M212.52 251.16c-.04-.82.14-2.44.21-3.77s.03-2.37.04-3.2c0-.83.05-1.46.12-1.95.06-.49.14-.84.13-1.2 0-.36-.1-.73-.23-1.06-.12-.33-.28-.6-.39-.85-.11-.24-.17-.46-.22-.7-.04-.24-.06-.5-.06-.7s.01-.33.09-.41.22-.11.35-.12.27.01.5.05a10 10 0 0 1 1.52.39c.25.08.56.16.84.23s.53.12.9.12c.36 0 .83-.07 1.65-.04.82.02 1.98.13 2.71.21s1.02.11 1.27.14c.25.02.47.03.67-.01.2-.05.38-.15.78-.21.4-.07 1.01-.1 1.36-.18s.45-.19.63-.32c.17-.12.42-.25.59-.41.17-.15.25-.33.42-.44s.43-.15.56-.09.14.21.15.36.04.3.01.66c-.03.35-.11.91-.18 1.36-.08.45-.15.81-.22 1.12s-.12.6-.19 1.07-.16 1.12-.21 1.6c-.04.48-.04.8-.01 1.27s.09 1.09.22 1.61c.13.51.33.91.36 1.3s-.09.77-.16 1.23-.1 1.01-.11 1.4-.01.64-.02 1.07c0 .42-.01 1.02-.17 1.28s-.47.18-.68.08-.32-.22-.48-.39-.38-.4-.63-.53-.52-.17-.81-.2c-.29-.02-.6-.03-.92-.05-.33-.02-.67-.04-.97-.05s-.57-.02-.81-.05-.47-.09-.73-.09c-.27 0-.57.04-.82 0s-.44-.17-.77-.14-.8.2-1.18.36-.67.3-.99.33-.65-.06-.96-.12-.58-.1-.82-.04-.46.2-.67.34c-.21.15-.42.29-.6.39s-.33.16-.53.17c-.21.01-.48 0-.52-.83Z" class="cls-10"/><path d="M214.33 243.42c.89-.9 1.62-.71 2.1-.52M225.64 247.28c-.51.73-1.02.38-1.83.47M223.06 239.47c.41.18.65.37.88.47s.45.11.89-.04M214.33 261.82c.89-.9 1.62-.71 2.1-.52M225.64 265.69c-.51.73-1.02.38-1.83.47M223.06 257.88c.41.18.65.37.88.47s.46.11.89-.04" class="cls-10"/><path d="M212.9 269.49c.15-.82.71-2.44.97-3.77s.22-2.37.04-3.2-.51-1.46-.64-1.95-.05-.84-.06-1.2c0-.36-.1-.73-.23-1.06s-.28-.6-.39-.85c-.11-.24-.17-.46-.22-.7-.04-.24-.06-.5-.07-.7 0-.2.01-.33.09-.41s.22-.11.35-.12c.14 0 .27.01.5.05s.56.11.82.18.45.13.69.21c.25.08.56.16.84.23s.53.12.9.33.83.57 1.65.6 1.98-.29 2.71-.43 1.02-.1 1.27-.08.47.03.67-.01c.2-.05.38-.15.78-.21.4-.07 1.01-.1 1.36-.18.36-.08.45-.19.63-.32.17-.12.42-.25.59-.41s.25-.33.42-.44.43-.15.56-.09.14.21.15.36.04.3.01.66c-.03.35-.11.91-.18 1.36-.08.45-.15.81-.36 1.12s-.55.6-.71 1.07-.12 1.12-.02 1.6.26.8.38 1.27c.11.47.17 1.09.3 1.61.13.51.33.91.36 1.3s-.09.77-.16 1.23-.1 1.01-.11 1.4-.01.64-.02 1.07c0 .42-.01 1.02-.17 1.28s-.47.18-.67.08c-.21-.1-.32-.22-.48-.39s-.38-.4-.63-.62-.52-.43-.81-.53-.6-.09-.92-.09-.67-.03-.97-.04-.57-.02-.81.03-.47.14-.73.21c-.27.07-.57.12-.82.08s-.44-.17-.77-.14-.8.2-1.18.28-.67.05-.99 0-.65-.14-.96-.2-.58-.1-.82.04-.46.45-.67.68-.42.38-.6.48-.33.16-.53.17c-.21.01-.48 0-.33-.83ZM224.3 233.34v4.61M224.3 250.98v5.33M224.3 268.96v4.07M272.04 220.78c.75-1.72 1.23-3.46 1.48-5.31M260.47 215.47q-.18 1.56-.12 3.12M262.29 219.89c2.28 1.27 4.9 1.76 7.48 1.4M260.99 222.22c2.78 1.55 5.99 2.15 9.14 1.71M270.13 223.93c.73-.1 1.24-.77 1.14-1.5a1.33 1.33 0 0 0-1.5-1.14" class="cls-10"/><path d="M271.01 221.81c.51-.22.82-.53 1.04-1.05M262.29 219.89c-.64-.36-1.46-.13-1.81.52s-.13 1.46.52 1.81" class="cls-10"/><path d="M260.35 218.57c.02.56.19.96.59 1.36" class="cls-10"/><path d="M253.84 200.52h27.94v14.95h-27.94z" class="cls-18"/><path d="m259.115 209.899 2.735-6.194 4.473 1.975-2.734 6.193zM114.54 164.52h17.01v17.01h-17.01zM114.54 147.51h17.01v17.01h-17.01zM114.54 130.5h17.01v17.01h-17.01z" class="cls-10"/><path d="M114.54 113.5h17.01v17.01h-17.01zM163.58 192.41v.87M163.58 193.28h-33.45M130.13 192.41h33.45M160.77 199.64a14.91 14.91 0 0 0-3.81-13.82M156.96 185.82c-.73-.77-1.84.41-1.02 1.09" class="cls-10"/><path d="M159.34 199c2.54-4.26.99-9.78-3.41-12.09M159.34 199c-.65 1.03 1.09 1.81 1.43.64M149.12 199.46c2.45-4.47 2.45-9.87 0-14.34M149.12 185.12c-.5-.94-1.88-.09-1.28.78" class="cls-10"/><path d="M147.92 198.46c3.58-3.43 3.55-9.17-.07-12.56M147.92 198.46c-.9.82.57 2.03 1.21.99M132.71 199.39c3.46-3.74 4.77-8.98 3.48-13.91M136.19 185.48c-.26-1.03-1.8-.54-1.43.45" class="cls-10"/><path d="M131.79 198.13c4.31-2.46 5.67-8.04 2.98-12.2M131.79 198.13c-1.07.58.07 2.11.93 1.26M147.04 199.64a14.91 14.91 0 0 0-3.81-13.82M143.23 185.82c-.73-.77-1.84.41-1.02 1.09" class="cls-10"/><path d="M145.61 199c2.54-4.26.99-9.78-3.41-12.09M145.61 199c-.65 1.03 1.09 1.81 1.43.64" class="cls-10"/><path d="M143.39 199.23c1.29-4.93-.02-10.17-3.48-13.91M139.91 185.32c-.71-.79-1.85.37-1.05 1.07" class="cls-10"/><path d="M141.98 198.56c2.65-4.2 1.22-9.76-3.11-12.17M141.98 198.56c-.67 1.01 1.05 1.83 1.41.67M157.11 199.23c1.29-4.93-.02-10.17-3.47-13.91M153.64 185.32c-.71-.79-1.85.37-1.05 1.07" class="cls-10"/><path d="M155.7 198.56c2.65-4.2 1.22-9.76-3.11-12.17M155.7 198.56c-.67 1.01 1.05 1.83 1.41.67M247.37 208.17h5.12M247.37 208.17l3.68 1.92M246.3 208.28l-4.43 1.03M245.34 201.83l1.1 4.79M249.47 204.3l-2.52.01M250.46 208.06l-.26-2.65M249.69 211.05l-1.88.51M245.52 212.56l-1.4-.91M241.84 206.07l.11 2.51M244.75 203.12l-1.37 1.11M247.33 206.85l.59-4.91M247.37 208.17l4.75-1.95M246.3 208.28l3.28 5.01M246.3 208.28l-2.84 4.39M246.19 207.62l-5.68.18M246.78 207.62l-3.65-5.01" class="cls-10"/><path d="M130.13 184.36h33.45v16.16h-33.45z" class="cls-10"/><rect width="14.74" height="14.76" x="115.59" y="131.4" class="cls-10" rx="1.35" ry="1.35"/><path d="M118.83 137.54a2.3 2.3 0 1 0 0-4.6 2.3 2.3 0 0 0 0 4.6Z" class="cls-10"/><circle cx="126.13" cy="135.31" r="2.64" class="cls-10"/><circle cx="126.13" cy="142.64" r="2.64" class="cls-10"/><circle cx="118.73" cy="141.95" r="2.33" class="cls-10"/><path d="M258.82 163.82a5.56 5.56 0 0 0 0-11.12 5.56 5.56 0 0 0 0 11.12ZM226.52 159.84h19.85v11.05h-19.85z" class="cls-18"/><path d="M147.81 245.98h1.82v13.38h-1.82z" class="cls-10"/><path d="M166.66 127.74h26.93v26.93h-26.93z" class="cls-21"/><path d="M272.31 180.59c-.4.06-.08.73.11 1.16.19.44.24.63.28 1.38.04.74.06 2.04.21 2.99s.43 1.56.84 1.85.94.24 1.41.22.87-.01 1.28-.1.82-.28 1.04-.52c.21-.24.22-.53.21-.84s-.02-.66-.22-1.16-.59-1.14-.83-1.76c-.25-.62-.35-1.23-.6-1.58s-.65-.46-1.42-.79-1.9-.89-2.3-.84ZM273.66 178.87c.39.04.91.13 1.42.1.89-.06 1.76-.49 2.47-.83s1.27-.6 1.76-.66.9.06 1.08.43.13.98-.06 1.49-.51.9-.97 1.22-1.06.58-1.48.7-.66.09-1.05.07c-.39-.03-.94-.06-1.39-.11s-.82-.12-1.1-.2-.48-.19-.79-.64c-.13-.19-.29-.45-.41-.69M270.56 179.69l-.04-.02c-.6-.3-1.39-.3-1.79.17-.39.47-.39 1.42-.51 2.22s-.35 1.43-.42 1.96.03.94.29 1c.26.05.7-.26 1.28-.42.59-.16 1.34-.18 1.73-.38.4-.2.44-.59.57-1.02s.34-.91.4-1.25c.06-.33-.02-.54-.25-.91" class="cls-18"/><path d="M271.31 177.91c-.31.87-.68 1.56-.89 2.14s-.27 1.05-.25 1.29.12.26.46.18c.35-.08.94-.25 1.5-.68s1.1-1.12 1.54-2 .81-1.94.89-2.85-.11-1.65-.48-2.01c-.36-.35-.89-.31-1.24-.08-.35.22-.53.62-.74 1.35-.22.73-.48 1.79-.8 2.66Z" class="cls-18"/><path d="M270.23 180.71a1 1 0 0 1-.46-.13c-.33-.16-.67-.47-1.01-.78-.35-.31-.7-.64-.91-1.1-.2-.46-.25-1.07-.21-1.62s.16-1.06.22-1.46.06-.7.21-1.06c.15-.37.45-.81 1.1 0 .62.77 1.55 2.67 1.92 3.93" class="cls-18"/><path d="M275.75 178.86c-.08-1.09-.45-1.9-1.2-2.7M275.05 181.61l.21-.36M271.56 183.64c.4-.02.78-.09 1.15-.22M272.23 174.86c-.96-.2-1.77-.12-2.67.27M267.67 176.68a4.44 4.44 0 0 0 .5 5.66M239.07 192.79v-15.05M217.89 191.64v3.93M219.32 191.64c.37 0 .61-.35.61-.69M215.84 190.94c0 .35.24.69.61.69M216.46 191.64h2.86M217.89 195.57c0 .34.24.69.61.69M216.46 178.9c-.37 0-.61.35-.61.69M217.89 178.44v.46M219.32 178.9h-2.86M219.94 179.59c0-.34-.24-.69-.61-.69M218.5 177.74c-.37 0-.61.35-.61.69M219.94 179.59v11.35M215.84 179.59v11.35M260.86 191.64v3.93" class="cls-10"/><path d="M179.45 292.93v-2.22M177.99 290.71c0-1.6-1.15-2.97-2.73-3.24M169.62 288.02c-.72.8-1.03 1.6-1.03 2.69M171.81 286.53c-.91.29-1.59.76-2.2 1.49M175.5 286.34c-1.3-.33-2.43-.27-3.69.2M175.95 286.44c-.15-.04-.29-.08-.44-.11M169.92 290.26v.45M176.12 290.61c-.14-.25-.31-.41-.57-.53" class="cls-8"/><path d="M176.9 290.71c0-.51-.42-.93-.93-.93s-.93.42-.93.93M179.45 288.48v2.23M184.59 290.71v-5.59M179.49 287.48l-3.54-1.04M184.28 284.82h-3.39M184.59 285.12c0-.21-.09-.3-.3-.3M179.49 287.42l-.04 1.06M179.75 286.42c-.16.32-.24.64-.26.99M180.37 285.15c-.24.41-.44.83-.62 1.27M180.89 284.82c-.26 0-.41.09-.52.33" class="cls-8"/><path d="M175.54 290.07c-.13-.08-.21-.06-.3.06M170.23 289.09c-.22.37-.32.73-.32 1.16M179.49 293.93l-3.54 1.04M184.28 296.59h-3.39M184.28 296.59c.21 0 .3-.09.3-.3M184.59 290.71v5.58M180.37 296.27c.12.24.26.33.52.33M179.75 294.99c.18.44.39.86.62 1.27M175.04 290.71c0 .51.42.93.93.93s.93-.42.93-.93M169.92 291.15c0 .43.1.79.32 1.16M169.92 291.15v-.44M168.59 290.71c0 1.08.31 1.88 1.03 2.69M169.62 293.39c.61.73 1.29 1.19 2.2 1.49M171.81 294.88c1.26.47 2.39.53 3.69.2M175.5 295.08c.15-.03.3-.06.44-.11M170.23 292.32c.08.11.16.22.25.32M170.49 292.64c.47.57 1 .93 1.7 1.15M172.19 293.79c1.05.39 1.99.44 3.07.16M175.26 293.95a3.284 3.284 0 0 0 2.73-3.24M170.49 288.77c-.09.1-.18.21-.25.32M172.19 287.62c-.71.22-1.23.58-1.7 1.15M175.26 287.46c-1.08-.28-2.02-.24-3.07.16M179.49 294c.02.36.1.67.26.99M179.49 294l-.04-1.07" class="cls-8"/><path d="M175.54 291.34c.26-.12.43-.28.57-.53" class="cls-8"/><path d="M175.24 291.28c.09.12.17.13.3.06M176.14 290.71s0-.07-.02-.1M176.12 290.81s.02-.07.02-.1" class="cls-8"/><path d="M173.08 233.68h12.33v1.2h-12.33z" class="cls-10"/><rect width="14.65" height="15.31" x="115.64" y="114.35" class="cls-8" rx="3.86" ry="3.86"/><circle cx="119.01" cy="121.83" r=".83" class="cls-10"/><path d="M144.3 98.47h17.86v15.02H144.3zM179.45 279.96h5.22v19.49h-5.22z" class="cls-18"/><path d="M145.43 296.61h4.25v2.84h-4.25zM114.54 181.53h15.59v14.74h-15.59zM145.43 229.43h43.94v4.25h-43.94zM130.13 181.53h36.28v18.99h-2.83v-16.16h-33.45z" class="cls-19"/><path d="M115.95 182.94h12.76v11.91h-12.76z" style="stroke-miterlimit:10;stroke:#000;fill:#fff;stroke-width:.5px"/><path d="M206.38 222.73h4.25v76.72h-4.25zM187.46 279.96l-2.83-.01.07 19.5h2.84zM281.78 196.27h-75.4M281.78 196.27h-75.4V203h4.25v-2.48h71.15zM146.8 279.96v-15.71h1.53v15.71" class="cls-19"/><path d="M149.69 277.12h37.77v2.84h-37.77z" class="cls-19"/><path d="M148.33 279.96h1.36v-46.28h-4.26v46.28h1.37M114.54 200.52h15.59v-4.25h-15.59" class="cls-19"/><path d="M146.8 271.36h1.53v16.66h-1.53z" style="stroke-miterlimit:10;stroke:#000;fill:#fff;stroke-width:.25px"/><path d="M281.78 276.77h5.67v28.35H108.87V92.8h14.32v5.67h-8.65v200.98h167.24v-22.68M281.78 196.27v-12.62M281.78 240.49v-39.97M190.51 98.47h-31.040000000000003V92.8h31.04z" class="cls-19"/><path d="M281.78 182.27h2.84v1.24h-2.84z" class="cls-20"/><path d="M114.54 299.17h19.84v5.95h-19.84z" class="cls-23"/><path d="M114.54 298.75v6.37M134.48 299.45v5.67" class="cls-9"/><path d="M224.8 278.26v5.6M205.47 246.45c-9.03-.48-16.1-7.94-16.1-16.98M206.38 246.45v-16.99h-.91v16.99M205.47 246.45h.91M253.15 278.26v5.6M163.58 200.52l-16.54 6.85v-6.85M130.13 200.52l16.54 6.85v-6.85M253.15 278.26v5.6M238.98 283.86l14.17-5.6M224.8 278.26v5.6M210.63 283.86l14.17-5.6M267.32 283.86l14.18-5.6M281.5 278.26v5.6M238.98 283.86l-14.18-5.6M267.32 283.86l-14.17-5.6M226.19 204.06c-.56 10.53-9.27 18.79-19.81 18.79M226.19 203h-19.81v1.06h19.81M226.19 204.06V203M115.59 285.3h-1.05M115.59 285.3c10.53.56 18.79 9.27 18.79 19.81M114.54 285.3v19.82h1.05V285.3" class="cls-10"/><text class="cls-25" transform="translate(211.75 142.91)"><tspan x="0" y="0">Salon</tspan><tspan x="0" y="7.2">14m</tspan></text><text class="cls-25" transform="matrix(.58 0 0 .58 223.81 148.11)"><tspan x="0" y="0">2</tspan></text><text class="cls-25" transform="translate(225.77 150.11)"><tspan x="0" y="0"> </tspan></text><text class="cls-25" transform="translate(232.93 247.69)"><tspan x="0" y="0">Chamb</tspan><tspan x="19.92" y="0" style="letter-spacing:-.02em">r</tspan><tspan x="21.71" y="0">e </tspan><tspan x="0" y="7.2">9m² </tspan></text><text class="cls-25" transform="translate(154.55 246.99)"><tspan x="0" y="0">Salle de bain</tspan><tspan x="0" y="7.2">4m² </tspan></text><text class="cls-25" transform="translate(153.55 289.27)"><tspan x="0" y="0">WC </tspan><tspan x="0" y="7.2">1m² </tspan></text><text class="cls-25" transform="translate(135.14 142.91)"><tspan x="0" y="0">Cuisine</tspan><tspan x="0" y="7.2">5m² </tspan></text><path d="M89.84 305.07V200.52" class="cls-10"/><path d="M85.58 246.45h7.84v12.92h-7.84z" class="cls-23"/><path d="M108.87 305.05H89.84M108.87 200.5H89.84M88.62 304.02l2.26 2.24.19-.18-2.27-2.24-.18.18M91.07 200.87l-2.27-2.24-.18.18 2.26 2.24.19-.18" class="cls-10"/><text class="cls-24" transform="matrix(0 -.99 1 0 91.97 258.79)"><tspan x="0" y="0">3.50</tspan></text><path d="M158.18 132.01h8.47v16.03h-8.47zM158.18 132.01h7.37M165.55 132.01v1.61M165.55 146.44v1.6M158.18 148.04h7.37M159.79 133.62v12.82M159.79 133.62h6.87M159.79 146.44h6.87M202.06 149.23h-8.47V133.2h8.47zM202.06 149.22h-7.36M194.7 149.22v-1.6M194.7 134.8v-1.61M202.06 133.19h-7.36M200.46 147.62V134.8M200.46 147.62h-6.87M200.46 134.8h-6.87" class="cls-21"/><path d="M89.72 181.9V98.88M108.74 181.53H89.72M108.74 98.53H89.72M88.49 180.5l2.27 2.24.18-.18-2.27-2.24-.18.18M90.94 99.56l-2.27-2.24-.18.18 2.27 2.24.18-.18" class="cls-10"/><path d="M85.45 133.54h7.84v12.92h-7.84z" class="cls-23"/><text class="cls-24" transform="matrix(0 -.99 1 0 91.84 146.44)"><tspan x="0" y="0">2.90</tspan></text><path d="M306.52 196.74V98.96M287.49 196.6h19.03M287.49 98.47h19.03M307.75 195.57l-2.27 2.24-.18-.18 2.26-2.24.19.18M305.3 99.5l2.26-2.24.19.18-2.27 2.24-.18-.18" class="cls-10"/><path d="M302.95 141.39h7.84v12.92h-7.84z" class="cls-23"/><text class="cls-24" transform="matrix(0 -.99 1 0 309.34 153.74)"><tspan x="0" y="0">3.45</tspan></text><path d="M306.82 299.35V201.2M287.8 299.45h19.02M287.8 200.81h19.02M308.22 298.28l-2.27 2.24-.18-.17 2.27-2.25.18.18M305.6 201.84l2.27-2.24.18.18-2.27 2.24-.18-.18" class="cls-10"/><path d="M303.25 243.82h7.84v12.92h-7.84z" class="cls-23"/><text class="cls-24" transform="matrix(0 -.99 1 0 309.64 256.17)"><tspan x="0" y="0">3.50</tspan></text><path d="M166.42 73.65h115.06M166.66 92.68V73.65M282.06 92.68V73.65M167.44 72.43l-2.24 2.27.18.18 2.24-2.27-.18-.18M281.03 74.88l2.25-2.27-.18-.18-2.25 2.27.18.18" class="cls-10"/><path d="M230.4 69.39v7.84h-12.92v-7.84z" class="cls-23"/><text class="cls-24" transform="matrix(.99 0 0 1 218.06 75.78)"><tspan x="0" y="0">4.10</tspan></text><path d="M282.3 324.53h-71.52M282.02 305.5v19.03M210.73 305.5v19.03M281.23 325.75l2.25-2.26-.18-.19-2.25 2.27.18.18M211.66 323.3l-2.24 2.27.18.18 2.24-2.26-.18-.19" class="cls-10"/><path d="M252.99 319.86v7.84h-12.92v-7.84z" class="cls-23"/><text class="cls-24" transform="matrix(.99 0 0 1 240.87 325.75)"><tspan x="0" y="0">2.50</tspan></text><path d="M206.04 324.53H114M206.3 305.5v19.03M114.54 305.5v19.03M205.51 325.75l2.24-2.26-.17-.19-2.25 2.27.18.18M115.57 323.3l-2.24 2.27.18.18 2.24-2.26-.18-.19" class="cls-10"/><path d="M166.47 319.86v7.84h-12.92v-7.84z" class="cls-23"/><text class="cls-24" transform="matrix(.99 0 0 1 154.14 326.25)"><tspan x="0" y="0">3.20</tspan></text><path d="M114.97 73.65h47.68M114.54 92.68V73.65M162.81 92.68V73.65M115.57 72.43l-2.24 2.27.18.18 2.24-2.27-.18-.18M161.77 74.88l2.25-2.27-.18-.18-2.25 2.27.18.18" class="cls-10"/><path d="M145.27 69.38v7.84h-12.92v-7.84z" class="cls-23"/><text class="cls-24" transform="matrix(.99 0 0 1 132.93 75.78)"><tspan x="0" y="0">1.70</tspan></text><path d="M162.16 181.53v-1" class="cls-5"/><path d="M162.16 178.55v-78.09" class="cls-12"/><path d="M162.16 99.47v-1M166.41 98.47v1" class="cls-5"/><path d="M166.41 101.45v78.09" class="cls-12"/><path d="M166.41 180.53v1" class="cls-5"/><path d="M281.78 240.49v-56.839999999999996h5.67v56.84zM281.78 147.23V98.47h-54.99V92.8h60.66v54.43z" class="cls-19"/></g><g id="Calque_13" data-name="Calque 13"><path d="M149.69 233.68v43.44h37.77v22.33h-2.79v-19.5h-36.34v-8.59h-1.53v8.6h-1.37v-50.53h43.96" class="cls-19"/><path d="m189.39 229.43-.02 4.25h-39.68" class="cls-19"/></g></svg>