<?xml version="1.0" encoding="UTF-8"?>
<svg id="Calque_2" data-name="Calque 2" xmlns="http://www.w3.org/2000/svg" viewBox="0 0 383.74 531.14">
  <defs>
    <style>
      .cls-1 {
        fill: #bfad4e;
      }

      .cls-1, .cls-2, .cls-3, .cls-4, .cls-5, .cls-6 {
        stroke-width: 0px;
      }

      .cls-2 {
        fill: #a6a58f;
      }

      .cls-7 {
        stroke-width: .25px;
      }

      .cls-7, .cls-8 {
        fill: none;
        stroke: #000;
        stroke-miterlimit: 10;
      }

      .cls-3 {
        fill: #eaa98c;
      }

      .cls-4 {
        fill: #662612;
      }

      .cls-8 {
        stroke-width: .5px;
      }

      .cls-5 {
        fill: #d86a3f;
      }

      .cls-6 {
        fill: #f7e457;
      }
    </style>
  </defs>
  <polygon class="cls-4" points="140.55 73.97 183.34 100.62 184.79 104.29 157.07 182.62 127.71 108.83 139.59 76 139.59 74.45 140.55 73.97"/>
  <polyline class="cls-3" points="155.43 187.89 156.13 189.64 151.92 201.73 155.31 203.22 157.89 194.53 184.25 261.37 183.02 262.72 139.42 235.01 139.69 233.38 110.87 160"/>
  <polygon class="cls-5" points="110.87 160 109.53 159 109.62 157.85 109.87 157.52 80.88 84.1 79.34 82.93 79.42 82 79.7 81.39 80.62 81.11 123.66 108.27 155.43 187.89 110.87 160"/>
  <polygon class="cls-3" points="260.6 59.51 305.28 87.74 304.47 88.95 304.47 90.68 277.25 167.96 249.75 99.62 250.37 99.51 250.37 98.44 250.32 97.76 256.46 81.19 253.25 79.66 259.51 61.74 259.34 60.89 259.45 59.99 259.85 59.71 260.6 59.51"/>
  <polygon class="cls-5" points="200.34 66.6 243.74 93.86 245.87 99.55 229.63 144.57 229.48 143.4 229.83 142.89 200.9 69.75 199.38 68.74 199.32 67.57 199.63 66.96 200.34 66.6"/>
  <polygon class="cls-5" points="248.19 104.87 274.79 172.96 232.83 146.83 248.19 104.87"/>
  <polygon class="cls-4" points="241.61 254.59 202.7 230.08 218.15 187.84 244.28 253.92 241.61 254.59"/>
  <polygon class="cls-4" points="232.83 146.83 219.96 182.78 246.66 251.06 274.79 172.96 232.83 146.83"/>
  <polygon class="cls-1" points="140.55 73.97 183.34 100.62 184.79 104.29 157.07 182.62 127.71 108.83 139.59 76 139.59 74.45 140.55 73.97"/>
  <polyline class="cls-6" points="155.43 187.89 156.13 189.64 151.92 201.73 155.31 203.22 157.89 194.53 184.25 261.37 183.02 262.72 139.42 235.01 139.69 233.38 110.87 160"/>
  <polygon class="cls-2" points="110.87 160 109.53 159 109.62 157.85 109.87 157.52 80.88 84.1 79.34 82.93 79.42 82 79.7 81.39 80.62 81.11 123.66 108.27 155.43 187.89 110.87 160"/>
  <polygon class="cls-6" points="260.6 59.51 305.28 87.74 304.47 88.95 304.47 90.68 277.25 167.96 249.75 99.62 250.37 99.51 250.37 98.44 250.32 97.76 256.46 81.19 253.25 79.66 259.51 61.74 259.34 60.89 259.45 59.99 259.85 59.71 260.6 59.51"/>
  <polygon class="cls-2" points="200.34 66.6 243.74 93.86 245.87 99.55 229.63 144.57 229.48 143.4 229.83 142.89 200.9 69.75 199.38 68.74 199.32 67.57 199.63 66.96 200.34 66.6"/>
  <polygon class="cls-2" points="248.19 104.87 274.79 172.96 232.83 146.83 248.19 104.87"/>
  <polygon class="cls-1" points="241.61 254.59 202.7 230.08 218.15 187.84 244.28 253.92 241.61 254.59"/>
  <polygon class="cls-1" points="232.83 146.83 219.96 182.78 246.66 251.06 274.79 172.96 232.83 146.83"/>
  <path class="cls-7" d="M167.86,154.34c-.12-.08-.24-.16-.35-.26"/>
  <path class="cls-7" d="M168.91,154.73c-.38-.06-.71-.19-1.05-.4"/>
  <path class="cls-7" d="M167.95,154.18c-.13-.08-.25-.17-.37-.28"/>
  <path class="cls-7" d="M170.18,146.67c.48.02.95.17,1.37.43"/>
  <path class="cls-7" d="M170.12,146.85c.47.01.93.15,1.35.41"/>
  <path class="cls-7" d="M154.99,187.77c-.25-.15-.4-.43-.45-.73-.05-.3.01-.62.15-.88"/>
  <line class="cls-7" x1="154.99" y1="187.77" x2="109.84" y2="159.38"/>
  <line class="cls-7" x1="183.22" y1="262.66" x2="139.82" y2="235.36"/>
  <path class="cls-7" d="M109.78,157.46c-.25.25-.4.61-.4.99,0,.37.16.74.46.93"/>
  <line class="cls-7" x1="139.76" y1="233.44" x2="110.77" y2="159.96"/>
  <path class="cls-7" d="M244.91,97.34c-.25-.15-.4-.43-.45-.73-.05-.3.01-.62.15-.88"/>
  <line class="cls-7" x1="244.91" y1="97.34" x2="199.77" y2="68.95"/>
  <path class="cls-7" d="M200.84,66.85c-.16-.1-.35-.14-.54-.12"/>
  <line class="cls-7" x1="200.84" y1="66.85" x2="243.91" y2="93.94"/>
  <line class="cls-7" x1="229.68" y1="143.02" x2="200.69" y2="69.54"/>
  <path class="cls-7" d="M200.3,66.73c-.46.06-.82.45-.95.93-.13.48,0,1.04.41,1.3"/>
  <path class="cls-7" d="M245.3,97.47c-.14,0-.27-.05-.39-.12"/>
  <path class="cls-7" d="M249.29,99.79c-.4-.25-.44-.82-.24-1.23s.67-.66,1.07-.41"/>
  <path class="cls-7" d="M250.13,98.15c.32.2.42.64.32,1.01-.1.37-.38.68-.74.72"/>
  <path class="cls-7" d="M249.71,99.88c-.15.02-.28,0-.42-.09"/>
  <path class="cls-7" d="M171.27,147.2c-.36-.23-.72-.35-1.13-.39"/>
  <line class="cls-7" x1="168.91" y1="154.72" x2="167.8" y2="154.02"/>
  <line class="cls-7" x1="213.38" y1="182.69" x2="171.88" y2="156.59"/>
  <path class="cls-7" d="M218.06,176.34s-.08-.05-.12-.08"/>
  <path class="cls-7" d="M218.39,176.56c-.07-.05-.14-.1-.21-.15"/>
  <path class="cls-7" d="M214.49,183.66c.38.24.76.37,1.19.42"/>
  <path class="cls-7" d="M218.18,176.42c-.31-.2-.63-.32-.99-.39"/>
  <path class="cls-7" d="M218.35,176.68s-.1-.07-.15-.1"/>
  <path class="cls-7" d="M218.2,176.58c-.3-.19-.6-.31-.93-.37"/>
  <path class="cls-7" d="M214.02,177.35c-.74.89-1.16,2.1-1.11,3.31.05,1.22.59,2.38,1.58,3"/>
  <path class="cls-7" d="M213.9,177.05c-.8.87-1.27,2.11-1.24,3.36.03,1.26.57,2.46,1.59,3.1"/>
  <path class="cls-7" d="M214.1,177.56c-.69.86-1.07,2.02-1,3.18.07,1.16.59,2.26,1.53,2.85"/>
  <path class="cls-7" d="M171.57,147.35c-.06-.05-.13-.1-.2-.15"/>
  <path class="cls-7" d="M168.42,154.41c-.17-.06-.32-.14-.48-.24"/>
  <line class="cls-7" x1="233.3" y1="145.29" x2="274.35" y2="171.11"/>
  <line class="cls-7" x1="245.2" y1="97.22" x2="245.03" y2="97.11"/>
  <line class="cls-7" x1="199.36" y1="68.39" x2="198.47" y2="67.83"/>
  <path class="cls-7" d="M214.06,177.47c-.7.86-1.1,2.03-1.04,3.2.06,1.17.58,2.28,1.53,2.88"/>
  <path class="cls-7" d="M167.59,153.87c.07.05.14.1.21.14"/>
  <path class="cls-7" d="M171.43,147.02s-.08-.05-.12-.08"/>
  <path class="cls-7" d="M171.55,147.09s.06.04.09.06"/>
  <path class="cls-7" d="M167.85,154.11c.12.07.25.13.38.18"/>
  <path class="cls-7" d="M171.47,147.26s.07.05.11.07"/>
  <line class="cls-7" x1="184.43" y1="261.54" x2="139.76" y2="233.44"/>
  <path class="cls-7" d="M167.5,154.11s.08.05.12.08"/>
  <path class="cls-7" d="M155.38,187.89c-.14,0-.27-.05-.39-.12"/>
  <path class="cls-7" d="M167.62,154.19s.08.05.12.07"/>
  <path class="cls-7" d="M171.31,146.94c-.34-.21-.69-.34-1.08-.4"/>
  <line class="cls-7" x1="167.86" y1="154.34" x2="167.62" y2="154.19"/>
  <line class="cls-7" x1="171.31" y1="146.94" x2="171.55" y2="147.09"/>
  <line class="cls-7" x1="167.95" y1="154.18" x2="167.75" y2="154.05"/>
  <path class="cls-7" d="M155.11,187.54c-.35-.22-.43-.7-.3-1.08"/>
  <path class="cls-7" d="M139.76,233.44c-.25.25-.4.61-.4.99,0,.37.16.74.46.93"/>
  <path class="cls-7" d="M245.03,97.11c-.35-.22-.43-.7-.3-1.09"/>
  <line class="cls-7" x1="229.68" y1="143.02" x2="230.33" y2="143.42"/>
  <line class="cls-7" x1="174.53" y1="149.24" x2="212.3" y2="173"/>
  <path class="cls-7" d="M217.94,176.26c-.25-.16-.51-.27-.79-.34"/>
  <path class="cls-7" d="M218.12,176.53c-.28-.17-.56-.29-.87-.36"/>
  <path class="cls-7" d="M195.82,64.37c-.27.12-.46.39-.53.7-.07.31,0,.65.21.87"/>
  <path class="cls-7" d="M214.25,183.51s.08.05.12.07"/>
  <path class="cls-7" d="M214.63,183.59c.35.22.7.34,1.09.39"/>
  <line class="cls-7" x1="171.27" y1="147.2" x2="171.56" y2="147.38"/>
  <line class="cls-7" x1="214.49" y1="183.66" x2="214.25" y2="183.51"/>
  <line class="cls-7" x1="217.94" y1="176.26" x2="218.18" y2="176.42"/>
  <path class="cls-7" d="M125.01,111.79c-.25-.15-.4-.43-.45-.73-.05-.3.01-.62.15-.88"/>
  <line class="cls-7" x1="125.01" y1="111.79" x2="79.87" y2="83.4"/>
  <path class="cls-7" d="M80.94,81.3c-.16-.1-.35-.14-.54-.12"/>
  <line class="cls-7" x1="80.94" y1="81.3" x2="124.01" y2="108.38"/>
  <line class="cls-7" x1="109.78" y1="157.46" x2="80.79" y2="83.98"/>
  <path class="cls-7" d="M80.4,81.18c-.46.05-.82.45-.95.93-.13.48,0,1.04.41,1.3"/>
  <path class="cls-7" d="M125.4,111.91c-.14,0-.27-.05-.39-.12"/>
  <path class="cls-7" d="M275,173.09c-.35-.22-.43-.7-.3-1.09"/>
  <path class="cls-7" d="M200.49,225.92c-.5-.05-.94.34-1.11.83-.17.5-.07,1.12.38,1.4"/>
  <path class="cls-7" d="M229.68,143.02c-.24.24-.39.59-.4.95,0,.36.12.72.4.93"/>
  <line class="cls-7" x1="218.3" y1="176.49" x2="229.68" y2="144.89"/>
  <line class="cls-7" x1="200.49" y1="225.92" x2="215.57" y2="184.06"/>
  <line class="cls-7" x1="243.96" y1="253.25" x2="203.56" y2="227.84"/>
  <path class="cls-7" d="M275.28,173.45s-.03,0-.05,0"/>
  <line class="cls-7" x1="200.59" y1="225.98" x2="200.49" y2="225.92"/>
  <line class="cls-7" x1="109.78" y1="157.46" x2="154.46" y2="185.56"/>
  <path class="cls-7" d="M125.13,111.56c-.35-.22-.43-.7-.3-1.08"/>
  <path class="cls-7" d="M274.83,173.28c-.47-.35-.5-1.06-.23-1.56"/>
  <line class="cls-7" x1="232.75" y1="146.82" x2="274.83" y2="173.28"/>
  <line class="cls-7" x1="241.94" y1="254.66" x2="202.77" y2="230.03"/>
  <line class="cls-7" x1="199.8" y1="228.16" x2="199.77" y2="228.14"/>
  <line class="cls-7" x1="229.68" y1="144.89" x2="229.78" y2="144.95"/>
  <line class="cls-7" x1="274.83" y1="173.28" x2="246.8" y2="251.08"/>
  <line class="cls-7" x1="275.23" y1="173.44" x2="247.04" y2="251.7"/>
  <path class="cls-7" d="M140.89,74.07c-.16-.1-.35-.14-.54-.12"/>
  <line class="cls-7" x1="140.89" y1="74.07" x2="183.96" y2="101.16"/>
  <line class="cls-7" x1="127.93" y1="108.96" x2="139.76" y2="76.14"/>
  <line class="cls-7" x1="184.9" y1="104.52" x2="156.87" y2="182.33"/>
  <line class="cls-7" x1="185.31" y1="104.69" x2="157.12" y2="182.94"/>
  <path class="cls-7" d="M140.35,73.95c-.44.05-.8.43-.94.89-.13.46-.04,1,.34,1.29"/>
  <path class="cls-7" d="M184.9,104.52c-.47-.35-.5-1.06-.23-1.56"/>
  <path class="cls-7" d="M260.25,59.51c-.44.05-.8.43-.94.89-.14.46-.04,1,.34,1.29"/>
  <line class="cls-7" x1="247.83" y1="94.51" x2="259.66" y2="61.69"/>
  <path class="cls-7" d="M304.98,89.89c-.4-.25-.44-.82-.24-1.23.21-.41.67-.66,1.07-.41"/>
  <path class="cls-7" d="M185.35,104.69s-.03,0-.05,0"/>
  <path class="cls-7" d="M185.08,104.33c-.35-.22-.43-.7-.3-1.09"/>
  <line class="cls-7" x1="139.76" y1="76.14" x2="184.9" y2="104.52"/>
  <line class="cls-7" x1="304.8" y1="90.08" x2="276.77" y2="167.88"/>
  <path class="cls-7" d="M304.8,90.08c-.38-.29-.48-.83-.34-1.29.13-.46.49-.84.94-.89"/>
  <path class="cls-7" d="M305.51,90.22c-.1.03-.2.03-.3.02"/>
  <line class="cls-7" x1="259.66" y1="61.69" x2="304.8" y2="90.08"/>
  <path class="cls-7" d="M305.93,88.02c.2.12.34.33.41.57"/>
  <path class="cls-7" d="M260.79,59.63c-.16-.1-.35-.14-.54-.12"/>
  <line class="cls-7" x1="260.79" y1="59.63" x2="305.93" y2="88.02"/>
  <path class="cls-7" d="M305.4,87.9c.19-.02.37.02.54.12"/>
  <line class="cls-7" x1="305.21" y1="90.24" x2="277.02" y2="168.49"/>
  <path class="cls-8" d="M329.32,458.93c.04.1.04.18.01.28-.03.14-.09.25-.16.36-.13.19-.27.34-.44.49-.33.29-.68.51-1.07.7s-.77.33-1.18.4c-.21.04-.41.05-.62.03-.12-.01-.24-.04-.35-.11-.08-.05-.14-.1-.17-.2"/>
  <path class="cls-8" d="M328.73,458.7c.07.18-.03.37-.12.5-.1.15-.22.27-.35.38-.26.23-.54.4-.84.55-.3.15-.61.26-.93.32-.16.03-.32.04-.49.02-.14-.02-.34-.06-.41-.24"/>
  <path class="cls-8" d="M280.88,428.47c.04.09.04.18.01.28-.03.14-.09.25-.16.36-.13.19-.28.34-.44.49-.33.29-.68.51-1.07.7-.38.19-.77.33-1.18.4-.21.04-.41.05-.62.03-.12-.01-.24-.04-.35-.11-.08-.05-.14-.1-.17-.2"/>
  <path class="cls-8" d="M280.29,428.24c.07.18-.03.37-.12.5-.1.15-.22.27-.35.38-.26.23-.54.4-.84.55s-.61.26-.93.31c-.16.03-.32.04-.49.02-.14-.02-.34-.06-.41-.24"/>
  <path class="cls-8" d="M110.03,487.55s-.02.01-.03.01c-.03,0-.05,0-.08-.01-.11-.02-.21-.06-.31-.09-.14-.05-.27-.1-.41-.15-.27-.11-.54-.22-.81-.34-.27-.12-.53-.24-.8-.37-.13-.07-.26-.13-.39-.2-.1-.05-.19-.11-.28-.17-.02-.02-.04-.03-.06-.05,0,0-.02-.02-.01-.03"/>
  <path class="cls-8" d="M59.13,456.05s-.03.01-.04.01c-.03,0-.07,0-.1-.01-.13-.03-.26-.07-.39-.12-.17-.06-.35-.13-.52-.19-.34-.14-.69-.28-1.03-.43-.34-.15-.68-.31-1.01-.47-.17-.08-.33-.17-.5-.26-.12-.07-.24-.13-.36-.22-.03-.02-.06-.04-.08-.07,0,0-.02-.02-.02-.04"/>
  <path class="cls-8" d="M55.69,453.97s0,0,0,0"/>
  <path class="cls-8" d="M58.87,455.38s-.02.01-.03.01c-.03,0-.05,0-.08-.01-.11-.02-.21-.06-.31-.09-.14-.05-.27-.1-.41-.15-.27-.11-.54-.22-.81-.34-.27-.12-.53-.24-.8-.37-.13-.07-.26-.13-.39-.2-.1-.05-.19-.11-.28-.17-.02-.02-.04-.03-.06-.05,0,0-.02-.02-.01-.03"/>
  <path class="cls-8" d="M58.86,455.35s.01.01.01.02"/>
  <path class="cls-8" d="M328.67,458.6s.05.06.07.1"/>
  <path class="cls-8" d="M328.64,458.55c.12.04.24.08.36.12"/>
  <path class="cls-8" d="M325.59,460.24s-.02-.08-.02-.12"/>
  <path class="cls-8" d="M329,458.67c.05.02.1.04.15.07"/>
  <path class="cls-8" d="M325.38,460.43c.06-.12.11-.25.17-.37"/>
  <path class="cls-8" d="M330.04,460.75c.02.06.04.13.05.2.03.21-.01.42-.09.6,0,0,0,0,0,.01-.02.03-.03.07-.05.1-.1.19-.25.36-.43.53-.16.15-.34.29-.54.42-.42.27-.89.47-1.34.58-.38.09-.72.1-1.01,0-.08-.02-.15-.06-.22-.1-.15-.09-.27-.23-.34-.4"/>
  <path class="cls-8" d="M325.34,460.87c-.06-.15-.02-.31.04-.44"/>
  <line class="cls-8" x1="326.06" y1="462.69" x2="325.35" y2="460.89"/>
  <line class="cls-8" x1="329.32" y1="458.93" x2="330.04" y2="460.75"/>
  <path class="cls-8" d="M329.15,458.73c.08.05.13.1.17.2"/>
  <path class="cls-8" d="M280.23,428.14s.05.06.07.1"/>
  <path class="cls-8" d="M280.2,428.09c.12.04.24.08.36.12"/>
  <path class="cls-8" d="M277.15,429.77s-.02-.08-.02-.12"/>
  <path class="cls-8" d="M281.6,430.29c.02.06.04.13.05.2.03.21-.01.42-.09.6,0,0,0,0,0,.01-.02.03-.03.07-.05.1-.11.19-.25.37-.43.53-.16.15-.34.29-.54.42-.42.27-.89.47-1.34.58-.38.09-.72.1-1.01,0-.08-.03-.15-.06-.22-.1-.15-.09-.27-.23-.34-.4"/>
  <path class="cls-8" d="M280.56,428.21c.05.02.1.04.15.07"/>
  <path class="cls-8" d="M276.94,429.97c.05-.12.11-.25.17-.37"/>
  <path class="cls-8" d="M276.9,430.41c-.06-.15-.02-.31.04-.44"/>
  <line class="cls-8" x1="277.62" y1="432.23" x2="276.91" y2="430.43"/>
  <line class="cls-8" x1="280.88" y1="428.47" x2="281.6" y2="430.29"/>
  <path class="cls-8" d="M280.71,428.27c.08.05.13.1.17.2"/>
  <path class="cls-8" d="M110.28,488.21s-.03.01-.04.01c-.03,0-.07,0-.1-.01-.13-.03-.26-.07-.39-.12-.18-.06-.35-.13-.52-.19-.34-.14-.69-.28-1.03-.43-.34-.15-.68-.31-1.01-.47-.17-.08-.33-.17-.5-.26-.12-.07-.24-.14-.36-.22-.03-.02-.06-.04-.08-.07,0,0-.02-.02-.02-.04"/>
  <path class="cls-8" d="M110.01,487.52s.01.01.01.02"/>
  <path class="cls-8" d="M110.03,487.54c.08.22.17.44.26.66"/>
  <path class="cls-8" d="M109.57,490.2c-.05.14-.15.25-.27.3-.08.04-.15.05-.22.05-.05,0-.1,0-.14-.01-.12-.02-.22-.06-.39-.11-.14-.05-.31-.11-.49-.19-.39-.15-.82-.35-1.23-.54-.42-.2-.73-.36-.94-.49-.07-.04-.13-.08-.19-.13-.06-.05-.12-.11-.17-.24-.05-.13-.06-.28,0-.42"/>
  <path class="cls-8" d="M106.85,486.13s.01,0,.02,0"/>
  <path class="cls-8" d="M110.28,488.2s0,0,0,.01"/>
  <path class="cls-8" d="M110.03,487.54s0,0,0,.01"/>
  <path class="cls-8" d="M106.25,486.41c.2-.09.4-.19.59-.28"/>
  <path class="cls-8" d="M106.25,486.42s0,0,0,0"/>
  <line class="cls-8" x1="105.53" y1="488.4" x2="106.25" y2="486.42"/>
  <line class="cls-8" x1="110.28" y1="488.21" x2="109.57" y2="490.2"/>
  <path class="cls-8" d="M106.84,486.13s0,0,0,0"/>
  <path class="cls-8" d="M58.87,455.37c.08.22.17.44.26.66"/>
  <path class="cls-8" d="M55.7,453.96s.02,0,.02,0"/>
  <path class="cls-8" d="M59.13,456.03s0,0,0,.01"/>
  <path class="cls-8" d="M58.87,455.37s0,0,0,0"/>
  <path class="cls-8" d="M55.1,454.24c.2-.09.4-.19.59-.28"/>
  <path class="cls-8" d="M58.41,458.03c-.05.14-.15.25-.27.3-.08.04-.15.05-.22.05-.05,0-.1,0-.14-.01-.12-.02-.22-.06-.39-.11-.14-.05-.31-.11-.49-.19-.39-.15-.82-.35-1.23-.54-.41-.2-.73-.36-.94-.49-.07-.04-.13-.08-.19-.13-.06-.05-.12-.11-.17-.24-.05-.13-.06-.28,0-.42"/>
  <path class="cls-8" d="M55.09,454.25s0,0,0,0"/>
  <line class="cls-8" x1="54.38" y1="456.24" x2="55.09" y2="454.25"/>
  <line class="cls-8" x1="59.13" y1="456.05" x2="58.41" y2="458.03"/>
  <path class="cls-8" d="M145.08,56.27s.06.04.09.06c.01,0,.03.02.04.03,0,0,.03.03.03.04"/>
  <path class="cls-8" d="M73.99,64.55c.07.18-.03.37-.12.49-.1.15-.21.27-.34.38-.26.23-.53.4-.83.54-.3.15-.6.25-.92.31-.16.03-.32.04-.48.02-.14-.02-.34-.06-.41-.24"/>
  <line class="cls-8" x1="136.6" y1="232.61" x2="70.9" y2="66.08"/>
  <line class="cls-8" x1="142.05" y1="246.45" x2="137.87" y2="235.85"/>
  <path class="cls-8" d="M122.43,95.01c.07.18-.03.37-.12.5-.1.15-.21.27-.34.38-.26.23-.53.4-.83.54s-.6.25-.92.31c-.16.03-.32.04-.48.02-.14-.02-.34-.06-.41-.24"/>
  <line class="cls-8" x1="156.21" y1="189.99" x2="119.34" y2="96.54"/>
  <line class="cls-8" x1="186.18" y1="265.97" x2="158.11" y2="194.82"/>
  <line class="cls-8" x1="160" y1="190.25" x2="187.94" y2="261.08"/>
  <line class="cls-8" x1="122.43" y1="95.01" x2="157.97" y2="185.1"/>
  <path class="cls-8" d="M182.38,87.79c.07.18-.03.37-.12.5-.1.15-.21.27-.34.38-.26.23-.53.4-.83.54-.3.14-.6.25-.92.31-.16.03-.32.04-.48.02-.14-.02-.34-.06-.41-.24"/>
  <line class="cls-8" x1="186.18" y1="106.79" x2="179.29" y2="89.31"/>
  <line class="cls-8" x1="216.16" y1="182.77" x2="188.09" y2="111.61"/>
  <line class="cls-8" x1="246.13" y1="258.75" x2="218.06" y2="187.6"/>
  <line class="cls-8" x1="325.66" y1="460.34" x2="248.03" y2="263.58"/>
  <line class="cls-8" x1="249.92" y1="259.01" x2="328.75" y2="458.83"/>
  <line class="cls-8" x1="219.82" y1="182.7" x2="247.89" y2="253.86"/>
  <line class="cls-8" x1="189.98" y1="107.04" x2="217.92" y2="177.87"/>
  <line class="cls-8" x1="182.38" y1="87.79" x2="187.94" y2="101.89"/>
  <line class="cls-8" x1="249.92" y1="99.82" x2="277.87" y2="170.65"/>
  <line class="cls-8" x1="242.33" y1="80.56" x2="247.89" y2="94.67"/>
  <line class="cls-8" x1="246.13" y1="99.56" x2="239.24" y2="82.09"/>
  <line class="cls-8" x1="276.1" y1="175.54" x2="248.03" y2="104.39"/>
  <line class="cls-8" x1="214.58" y1="261.74" x2="280.31" y2="428.37"/>
  <line class="cls-8" x1="173.5" y1="157.6" x2="199.92" y2="224.59"/>
  <line class="cls-8" x1="133.94" y1="57.33" x2="140.5" y2="73.95"/>
  <line class="cls-8" x1="138.76" y1="78.91" x2="130.85" y2="58.85"/>
  <line class="cls-8" x1="196.4" y1="225.01" x2="170.7" y2="159.87"/>
  <line class="cls-8" x1="198.77" y1="231.03" x2="197.82" y2="228.63"/>
  <line class="cls-8" x1="277.22" y1="429.88" x2="211.05" y2="262.17"/>
  <line class="cls-8" x1="137.91" y1="235.93" x2="58.84" y2="455.39"/>
  <line class="cls-8" x1="185.12" y1="94.75" x2="195.95" y2="64.69"/>
  <line class="cls-8" x1="55.7" y1="454" x2="136" y2="231.1"/>
  <path class="cls-8" d="M159.37,190.22c-.4-.25-.44-.82-.24-1.23.21-.41.67-.66,1.07-.41"/>
  <path class="cls-8" d="M160.2,188.58c.32.2.42.64.32,1.01-.1.37-.38.68-.74.72"/>
  <path class="cls-8" d="M159.79,190.31c-.15.02-.28,0-.42-.09"/>
  <path class="cls-8" d="M189.34,107.01c-.4-.25-.44-.82-.24-1.23.21-.41.67-.66,1.07-.41"/>
  <path class="cls-8" d="M190.18,105.38c.32.2.42.64.32,1.01-.1.37-.38.68-.74.72"/>
  <path class="cls-8" d="M189.76,107.11c-.15.02-.28,0-.42-.09"/>
  <path class="cls-8" d="M279.27,175.77c-.4-.25-.44-.82-.24-1.23s.67-.66,1.07-.41"/>
  <path class="cls-8" d="M280.1,174.14c.32.2.42.64.32,1.01-.1.37-.38.68-.74.72"/>
  <path class="cls-8" d="M279.68,175.86c-.15.02-.28,0-.42-.09"/>
  <path class="cls-8" d="M310.07,90.93c.32.2.42.64.32,1.01-.1.37-.38.68-.74.72"/>
  <line class="cls-8" x1="306.6" y1="90.9" x2="304.98" y2="89.89"/>
  <line class="cls-8" x1="305.81" y1="88.25" x2="307.23" y2="89.14"/>
  <path class="cls-8" d="M309.66,92.66c-.15.02-.28,0-.42-.09"/>
  <path class="cls-8" d="M249.29,258.98c-.4-.25-.44-.82-.24-1.23.21-.41.67-.66,1.07-.41"/>
  <path class="cls-8" d="M250.13,257.34c.32.2.42.64.32,1.01-.1.37-.38.68-.74.72"/>
  <path class="cls-8" d="M195.82,223.56c-.27.12-.46.39-.53.7-.07.31,0,.65.21.87"/>
  <path class="cls-8" d="M249.71,259.07c-.15.02-.28,0-.42-.09"/>
  <path class="cls-8" d="M189.34,266.2c-.4-.25-.44-.82-.24-1.23.21-.41.67-.66,1.07-.41"/>
  <path class="cls-8" d="M190.18,264.56c.32.2.42.64.32,1.01-.1.37-.38.68-.74.72"/>
  <path class="cls-8" d="M189.76,266.29c-.15.02-.28,0-.42-.09"/>
  <line class="cls-8" x1="245.07" y1="87.52" x2="261.99" y2="40.56"/>
  <line class="cls-8" x1="215.1" y1="170.73" x2="225.93" y2="140.68"/>
  <line class="cls-8" x1="195.5" y1="225.13" x2="195.95" y2="223.88"/>
  <line class="cls-8" x1="197.89" y1="228.62" x2="193.97" y2="239.49"/>
  <line class="cls-8" x1="214.17" y1="183.43" x2="199.62" y2="223.81"/>
  <line class="cls-8" x1="258.42" y1="60.6" x2="246.98" y2="92.35"/>
  <line class="cls-8" x1="249.66" y1="259.07" x2="245.12" y2="271.66"/>
  <line class="cls-8" x1="279.63" y1="175.87" x2="250.25" y2="257.44"/>
  <line class="cls-8" x1="241.98" y1="270.26" x2="313.14" y2="72.73"/>
  <line class="cls-8" x1="152.06" y1="201.51" x2="193.25" y2="87.17"/>
  <line class="cls-8" x1="159.73" y1="190.31" x2="155.2" y2="202.9"/>
  <line class="cls-8" x1="189.71" y1="107.11" x2="160.32" y2="188.68"/>
  <line class="cls-8" x1="106.86" y1="486.16" x2="253.2" y2="79.95"/>
  <line class="cls-8" x1="189.71" y1="266.3" x2="110" y2="487.56"/>
  <line class="cls-8" x1="249.66" y1="99.89" x2="190.29" y2="264.67"/>
  <path class="cls-8" d="M183.88,265.24c-.34-.21-.51-.62-.51-1.04"/>
  <line class="cls-8" x1="245.83" y1="257.98" x2="190.29" y2="264.67"/>
  <line class="cls-8" x1="191.72" y1="260.71" x2="244.4" y2="254.36"/>
  <line class="cls-8" x1="244.46" y1="254.5" x2="191.67" y2="260.86"/>
  <path class="cls-8" d="M184.28,261.61c-.64.08-1.11.74-1.11,1.43"/>
  <path class="cls-8" d="M183.37,263.16c0-.69.47-1.36,1.11-1.43"/>
  <path class="cls-8" d="M136.99,235.75c-.34-.21-.51-.62-.51-1.04"/>
  <line class="cls-8" x1="140.16" y1="235.57" x2="137.58" y2="235.88"/>
  <line class="cls-8" x1="199.72" y1="228.4" x2="176.17" y2="231.24"/>
  <line class="cls-8" x1="174.75" y1="227.62" x2="201.02" y2="224.45"/>
  <line class="cls-8" x1="137.39" y1="232.12" x2="139.15" y2="231.91"/>
  <line class="cls-8" x1="139.21" y1="232.05" x2="137.58" y2="232.24"/>
  <line class="cls-8" x1="200.96" y1="224.61" x2="174.8" y2="227.76"/>
  <path class="cls-8" d="M137.39,232.12c-.64.08-1.11.74-1.11,1.43"/>
  <path class="cls-8" d="M136.48,233.68c0-.69.47-1.36,1.11-1.43"/>
  <path class="cls-8" d="M193.89,50.1c.07.18-.03.37-.12.5-.1.15-.21.27-.34.38-.26.23-.53.4-.83.54-.3.15-.6.25-.92.31-.16.03-.32.04-.48.02-.14-.02-.34-.06-.41-.24"/>
  <line class="cls-8" x1="228.68" y1="147.66" x2="190.8" y2="51.63"/>
  <line class="cls-8" x1="193.89" y1="50.1" x2="200.45" y2="66.73"/>
  <line class="cls-8" x1="125.18" y1="101.97" x2="136" y2="71.92"/>
  <line class="cls-8" x1="100.91" y1="169.34" x2="106.03" y2="155.12"/>
  <line class="cls-8" x1="189.98" y1="266.23" x2="193.59" y2="275.4"/>
  <line class="cls-8" x1="202.44" y1="230.96" x2="213.15" y2="258.13"/>
  <line class="cls-8" x1="209.63" y1="258.55" x2="200.67" y2="235.85"/>
  <line class="cls-8" x1="168.8" y1="155.05" x2="168.65" y2="154.68"/>
  <line class="cls-8" x1="197.71" y1="59.8" x2="202.04" y2="47.79"/>
  <line class="cls-8" x1="279.9" y1="175.8" x2="283.52" y2="184.97"/>
  <line class="cls-8" x1="197.86" y1="69.52" x2="187.03" y2="99.58"/>
  <line class="cls-8" x1="125.31" y1="111.67" x2="125.13" y2="111.56"/>
  <line class="cls-8" x1="275.18" y1="173.2" x2="275" y2="173.09"/>
  <line class="cls-8" x1="242.98" y1="93.35" x2="243.31" y2="92.42"/>
  <line class="cls-8" x1="197.71" y1="218.99" x2="211.27" y2="181.36"/>
  <line class="cls-8" x1="184.51" y1="261.72" x2="184.47" y2="261.73"/>
  <line class="cls-8" x1="123.08" y1="107.8" x2="123.41" y2="106.86"/>
  <line class="cls-8" x1="137.76" y1="67.02" x2="142.09" y2="55.01"/>
  <path class="cls-8" d="M105.9,154.8c-.27.12-.46.39-.53.7s0,.65.21.87"/>
  <line class="cls-8" x1="155.28" y1="187.65" x2="155.11" y2="187.54"/>
  <line class="cls-8" x1="109.43" y1="158.82" x2="108.54" y2="158.26"/>
  <path class="cls-8" d="M135.88,71.6c-.27.12-.46.39-.53.7-.07.31,0,.65.21.87"/>
  <line class="cls-8" x1="185.26" y1="104.44" x2="185.08" y2="104.33"/>
  <line class="cls-8" x1="139.41" y1="75.61" x2="138.52" y2="75.05"/>
  <line class="cls-8" x1="137.91" y1="76.75" x2="127.08" y2="106.8"/>
  <line class="cls-8" x1="107.93" y1="159.95" x2="104.05" y2="170.74"/>
  <line class="cls-8" x1="309.61" y1="92.66" x2="280.22" y2="174.23"/>
  <path class="cls-8" d="M135.87,230.78c-.27.12-.46.39-.53.7-.07.31,0,.65.21.87"/>
  <line class="cls-8" x1="185.88" y1="265.2" x2="184.47" y2="265.37"/>
  <line class="cls-8" x1="190.49" y1="276.91" x2="188.09" y2="270.8"/>
  <path class="cls-8" d="M242.33,80.56c.07.18-.03.37-.12.5-.1.15-.21.27-.34.38-.26.23-.53.4-.83.54-.3.14-.6.25-.92.31-.16.03-.32.04-.48.02-.14-.02-.34-.06-.41-.24"/>
  <line class="cls-8" x1="280.42" y1="186.48" x2="278.01" y2="180.37"/>
  <path class="cls-8" d="M133.94,57.33c.07.18-.03.37-.12.5-.1.15-.21.27-.34.38-.26.23-.53.4-.83.54-.3.15-.6.25-.92.31-.16.03-.32.04-.48.02-.14-.02-.34-.06-.41-.24"/>
  <line class="cls-8" x1="141.89" y1="236.67" x2="145.15" y2="244.94"/>
  <line class="cls-8" x1="73.99" y1="64.55" x2="80.55" y2="81.17"/>
  <path class="cls-8" d="M70.89,66.06c-.07-.17.02-.35.1-.47.09-.14.2-.26.32-.37.24-.22.5-.39.78-.53s.56-.26.87-.33c.24-.05.66-.12.9.03"/>
  <path class="cls-8" d="M145.15,244.94c.07.18-.03.37-.12.5-.1.15-.21.27-.34.38-.26.23-.53.4-.83.54-.3.14-.6.25-.92.31-.16.03-.32.04-.48.02-.14-.02-.34-.06-.41-.24"/>
  <path class="cls-8" d="M73.86,64.4c.06.04.1.08.13.15"/>
  <path class="cls-8" d="M119.33,96.52c-.07-.17.02-.35.1-.47.09-.14.2-.26.32-.37.24-.22.5-.39.78-.53.28-.14.56-.26.87-.33.24-.06.66-.12.9.03"/>
  <path class="cls-8" d="M193.59,275.4c.07.18-.03.37-.12.5-.1.15-.21.27-.34.38-.26.23-.53.4-.83.54-.3.15-.6.25-.92.31-.16.03-.32.04-.48.02-.14-.02-.34-.06-.41-.24"/>
  <path class="cls-8" d="M122.3,94.86c.06.04.1.08.13.15"/>
  <path class="cls-8" d="M179.28,89.3c-.07-.17.02-.35.1-.47.09-.14.2-.26.32-.37.24-.22.5-.39.78-.53.28-.14.56-.26.87-.33.24-.06.66-.12.9.03"/>
  <path class="cls-8" d="M182.25,87.63c.06.04.1.08.13.15"/>
  <path class="cls-8" d="M283.52,184.97c.07.18-.03.37-.12.5-.1.15-.21.27-.34.38-.26.23-.53.4-.83.54-.3.14-.6.25-.92.31-.16.03-.32.04-.48.02-.14-.02-.34-.06-.41-.24"/>
  <path class="cls-8" d="M239.23,82.07c-.07-.17.02-.35.1-.47.09-.14.2-.26.32-.37.24-.22.5-.39.78-.53.28-.14.56-.26.87-.33.24-.05.66-.12.9.03"/>
  <path class="cls-8" d="M242.2,80.41c.06.04.1.08.13.15"/>
  <line class="cls-8" x1="183.03" y1="100.57" x2="183.36" y2="99.64"/>
  <path class="cls-8" d="M130.84,58.84c-.07-.17.02-.35.1-.47.09-.14.2-.26.32-.37.24-.22.5-.39.78-.53s.56-.26.87-.33c.24-.05.66-.12.9.03"/>
  <path class="cls-8" d="M133.81,57.17c.06.04.1.08.13.15"/>
  <path class="cls-8" d="M205.18,49.18s-.02.01-.03.01c-.03,0-.05,0-.08-.01-.1-.02-.2-.06-.31-.09-.14-.05-.27-.1-.4-.15-.27-.11-.53-.22-.8-.34-.26-.12-.53-.24-.79-.37-.13-.06-.26-.13-.39-.2-.1-.05-.19-.1-.28-.17-.02-.02-.04-.03-.06-.05,0,0-.02-.02-.01-.03"/>
  <path class="cls-8" d="M202.04,47.79s.09,0,.1,0c.1.02.19.05.29.08.13.04.25.09.38.14.25.1.5.2.75.31.38.17,1.11.5,1.47.73"/>
  <line class="cls-8" x1="205.18" y1="49.18" x2="199.62" y2="64.63"/>
  <path class="cls-8" d="M205.03,49.05s.06.04.09.06c.01,0,.03.02.04.03,0,0,.03.03.03.04"/>
  <line class="cls-8" x1="246.44" y1="257.9" x2="246.43" y2="257.9"/>
  <line class="cls-8" x1="184.28" y1="261.61" x2="184.45" y2="261.59"/>
  <path class="cls-8" d="M225.8,140.35c-.27.12-.46.39-.53.7s0,.65.21.87"/>
  <line class="cls-8" x1="229.33" y1="144.37" x2="228.44" y2="143.81"/>
  <line class="cls-8" x1="227.83" y1="145.5" x2="217" y2="175.56"/>
  <line class="cls-8" x1="139.15" y1="73.29" x2="140.24" y2="73.98"/>
  <line class="cls-8" x1="125.32" y1="111.68" x2="125.32" y2="111.69"/>
  <line class="cls-8" x1="190.83" y1="238.1" x2="194.08" y2="229.08"/>
  <path class="cls-8" d="M256.04,57.08c-.34.01-.63.28-.76.62-.13.34-.09.76.17,1.02"/>
  <line class="cls-8" x1="259.31" y1="61.17" x2="258.42" y2="60.61"/>
  <line class="cls-8" x1="259.05" y1="58.84" x2="260.14" y2="59.53"/>
  <line class="cls-8" x1="245.22" y1="97.23" x2="245.22" y2="97.24"/>
  <path class="cls-8" d="M128.04,113.38c-.4-.25-.44-.82-.24-1.23.21-.41.67-.66,1.07-.41"/>
  <path class="cls-8" d="M128.87,111.75c.32.2.42.64.32,1.01-.1.37-.38.68-.74.72"/>
  <path class="cls-8" d="M128.46,113.48c-.15.02-.28,0-.42-.09"/>
  <path class="cls-8" d="M309.24,92.57c-.4-.25-.44-.82-.24-1.23.21-.41.67-.66,1.07-.41"/>
  <path class="cls-8" d="M261.99,40.56s.09,0,.1,0c.1.02.19.05.29.08.13.04.25.09.38.14.25.1.5.2.75.31.38.17,1.11.5,1.47.73"/>
  <path class="cls-8" d="M193.97,239.49s-.02,0-.03,0c-.03,0-.05,0-.08,0-.1-.02-.2-.06-.31-.09-.14-.05-.27-.1-.4-.15-.27-.1-.53-.22-.8-.34-.26-.12-.53-.24-.79-.37-.13-.07-.26-.13-.39-.2-.1-.05-.19-.1-.28-.17-.02-.02-.04-.03-.06-.05,0,0-.02-.02-.01-.03"/>
  <path class="cls-8" d="M265.13,41.96s-.02.01-.03.01c-.03,0-.05,0-.08-.01-.1-.02-.2-.06-.31-.09-.14-.05-.27-.1-.4-.15-.27-.11-.53-.22-.8-.34-.26-.12-.53-.24-.79-.37-.13-.06-.26-.13-.39-.2-.1-.05-.19-.1-.28-.17-.02-.02-.04-.03-.06-.05,0,0-.02-.02-.01-.03"/>
  <line class="cls-8" x1="265.13" y1="41.96" x2="259.05" y2="58.84"/>
  <path class="cls-8" d="M264.98,41.83s.06.04.08.06c.01,0,.03.02.04.03,0,0,.03.03.03.04"/>
  <path class="cls-8" d="M245.12,271.66s-.02.01-.03.01c-.03,0-.05,0-.08-.01-.1-.02-.21-.06-.31-.09-.14-.05-.27-.1-.4-.15-.27-.11-.53-.22-.8-.34-.26-.12-.53-.24-.79-.37-.13-.06-.26-.13-.39-.2-.09-.05-.19-.1-.28-.17-.02-.02-.04-.03-.06-.05,0,0-.02-.02-.01-.03"/>
  <path class="cls-8" d="M316.28,74.12s-.02.01-.03.01c-.03,0-.05,0-.08-.01-.1-.02-.21-.06-.31-.09-.14-.05-.27-.1-.4-.15-.27-.11-.53-.22-.8-.34-.26-.12-.53-.24-.79-.37-.13-.07-.26-.13-.39-.2-.09-.05-.19-.1-.28-.17-.02-.02-.04-.03-.06-.05,0,0-.02-.02-.01-.03"/>
  <path class="cls-8" d="M313.14,72.73s.09,0,.1,0c.1.02.19.05.29.08.13.04.25.09.38.14.25.1.5.2.75.31.38.17,1.11.5,1.47.73"/>
  <line class="cls-8" x1="316.28" y1="74.12" x2="310.2" y2="91.03"/>
  <path class="cls-8" d="M316.13,73.99s.06.04.08.06c.01.01.03.02.04.03,0,0,.03.03.03.04"/>
  <line class="cls-8" x1="196.39" y1="88.57" x2="190.3" y2="105.47"/>
  <line class="cls-8" x1="256.34" y1="81.35" x2="250.25" y2="98.25"/>
  <path class="cls-8" d="M193.25,87.17s.09,0,.1,0c.1.02.19.05.29.08.13.04.25.09.38.14.25.1.5.2.75.31.38.17,1.11.5,1.47.73"/>
  <path class="cls-8" d="M155.2,202.9s-.02.01-.03.01c-.03,0-.05,0-.08-.01-.1-.02-.2-.06-.31-.09-.14-.05-.27-.1-.4-.15-.27-.11-.53-.22-.8-.34-.26-.12-.53-.24-.79-.37-.13-.06-.26-.13-.39-.2-.09-.05-.19-.1-.28-.17-.02-.02-.04-.03-.06-.05,0,0-.02-.02-.01-.03"/>
  <path class="cls-8" d="M196.39,88.57s-.02,0-.03,0c-.03,0-.05,0-.08,0-.1-.02-.2-.06-.31-.09-.14-.05-.27-.1-.4-.15-.27-.1-.53-.22-.8-.34-.26-.12-.53-.24-.79-.37-.13-.07-.26-.13-.39-.2-.09-.05-.19-.1-.28-.17-.02-.02-.04-.03-.06-.05,0,0-.02-.02-.01-.03"/>
  <path class="cls-8" d="M196.23,88.44s.06.04.08.06c.01.01.03.02.04.03,0,0,.03.03.03.04"/>
  <path class="cls-8" d="M253.2,79.95s.09,0,.1,0c.1.02.19.05.29.08.13.04.25.09.38.14.25.1.5.2.75.31.38.17,1.11.5,1.47.73"/>
  <path class="cls-8" d="M256.34,81.35s-.02,0-.03,0c-.03,0-.05,0-.08,0-.1-.02-.21-.06-.31-.09-.14-.05-.27-.1-.4-.15-.27-.1-.53-.22-.8-.34-.26-.12-.53-.24-.79-.37-.13-.07-.26-.13-.39-.2-.09-.05-.19-.1-.28-.17-.02-.02-.04-.03-.06-.05,0,0-.02-.02-.01-.03"/>
  <path class="cls-8" d="M256.18,81.22s.06.04.08.06c.01.01.03.02.04.03,0,0,.03.03.03.04"/>
  <path class="cls-8" d="M183.69,265.12s.07.04.1.05"/>
  <line class="cls-8" x1="183.88" y1="265.24" x2="183.69" y2="265.12"/>
  <path class="cls-8" d="M183.17,264.08c0,.42.17.82.51,1.04"/>
  <path class="cls-8" d="M184.47,265.37c-.21.03-.41-.02-.59-.13"/>
  <line class="cls-8" x1="183.17" y1="264.08" x2="183.17" y2="263.04"/>
  <line class="cls-8" x1="183.37" y1="263.16" x2="183.37" y2="264.2"/>
  <path class="cls-8" d="M136.8,235.63s.07.04.1.05"/>
  <line class="cls-8" x1="136.99" y1="235.75" x2="136.8" y2="235.63"/>
  <path class="cls-8" d="M136.28,234.59c0,.42.17.82.51,1.04"/>
  <path class="cls-8" d="M137.58,235.88c-.21.03-.41-.02-.59-.13"/>
  <line class="cls-8" x1="136.28" y1="234.59" x2="136.28" y2="233.55"/>
  <line class="cls-8" x1="136.48" y1="233.68" x2="136.48" y2="234.72"/>
  <path class="cls-8" d="M190.79,51.61c-.07-.17.02-.35.1-.47.09-.14.2-.26.32-.37.24-.22.5-.39.78-.53s.56-.26.87-.33c.24-.06.66-.12.9.03"/>
  <path class="cls-8" d="M193.76,49.95c.06.04.1.08.13.15"/>
  <path class="cls-8" d="M104.05,170.74s-.02,0-.03.01c-.03,0-.05,0-.08-.01-.1-.02-.21-.06-.31-.09-.14-.05-.27-.1-.4-.15-.27-.1-.53-.22-.8-.34-.26-.12-.53-.24-.79-.37-.13-.06-.26-.13-.39-.2-.1-.05-.19-.1-.28-.17-.02-.02-.04-.03-.06-.05,0,0-.02-.02-.01-.03"/>
  <path class="cls-8" d="M145.23,56.41s-.02.01-.03.01c-.03,0-.05,0-.08-.01-.1-.02-.21-.06-.31-.09-.14-.05-.27-.1-.4-.15-.27-.11-.53-.22-.8-.34-.26-.12-.53-.24-.79-.37-.13-.06-.26-.13-.39-.2-.1-.05-.19-.1-.28-.17-.02-.02-.04-.03-.06-.05,0,0-.02-.02-.01-.03"/>
  <path class="cls-8" d="M142.09,55.01s.09,0,.1,0c.1.02.19.05.29.08.13.04.25.09.38.14.25.1.5.2.75.31.38.17,1.11.5,1.47.73"/>
  <line class="cls-8" x1="145.23" y1="56.41" x2="139.67" y2="71.85"/>
</svg>