<svg xmlns="http://www.w3.org/2000/svg" id="Calque_2" data-name="Calque 2" viewBox="0 0 320.69 410.34"><defs><style>.cls-2,.cls-4{stroke-width:0}.cls-2{fill:#bfad4e}.cls-5,.cls-6{stroke-width:.25px;fill:none;stroke:#000;stroke-miterlimit:10}.cls-6{stroke-width:.5px}.cls-4{fill:#f7e457}</style></defs><path d="m212.17 149.25-31.69 8.39-1.07 3.06 33.3 86.56.13.67.49.18.76.8-.14.85-.58.63 33.83-8.62.4-.89v-.62l-.49-.63-.67-.27-33.51-87.45.53-.71v-.54l-.26-.62-.67-.45z" class="cls-2"/><path d="m182.02 337.89 31.01-8.11.31-.69-.46-1.66 33.21-85.23-32.72 8.19 4.59 12.96-3.26 1.67-3.79-8.57-30.33 79.01.83.99z" style="stroke-width:0;fill:#a6a58f"/><path d="m77.15 247.33 33.38-8.48 16.96 44.34-18.31 48.24zM129.81 289.26l13.96 36.84.82.37.38.76v.82l-.75.83-21.23 5.4-10.58-.08z" class="cls-2"/><path d="m143.83 148.1-31.54 8.19-1.26 2.82 14.28 38.45 18.22-46.48 1.11-.52.45-.67v-.67l-.3-.59zM108.57 165.43l14.58 38.15-12.61 33.22.57.72-.45.87-.13.46-33.38 8.48z" class="cls-4"/><path d="M108.3 155.09V61.27M173.42 156.73V61.81M212.49 149.6V63.46M144.12 147.41V57.42M177.9 234.86c.28-.07.57-.11.86-.1M146.68 244.91c.11.13.21.26.31.4M178.76 234.76c.17 0 .34.02.5.05M180.86 242.53c-.39.3-.79.5-1.24.62M147.56 242.63l30.34-7.77M179.62 243.15l-33.25 8.52M212.32 330.14c.09 0 .18 0 .27-.03M213.26 250.43a.8.8 0 0 1-.22.03M144.01 328.72c.09 0 .18 0 .26-.03M144.28 328.69c.62-.16.97-.86.84-1.53s-.7-1.16-1.33-1.03M212.73 247.87s.03 0 .05-.01M179.52 160.53l33.48-8.57M212.78 247.86l-33.26-87.33M143.74 150.89l-18.33 47.38M212.78 247.86c.07-.02.14-.02.22-.02M108.86 332.31l-32.17-84.47M77.26 246.35c0 .27-.1.52-.28.71M109.14 331.6l-32.08-84.23M179.73 159.51c0 .27-.1.52-.27.71M111.42 158.09c0 .27-.1.52-.28.71M77.45 245.88c.17.53.03 1.15-.39 1.49M213 327.8l-31.66 8.11M246.21 241.99 213 327.8M246.48 239.27c-.07 0-.15 0-.22.02M212.28 248.13c.14-.13.28-.21.46-.26M213 247.84c.59.01 1.06.54 1.13 1.17.07.64-.28 1.27-.86 1.41M212.59 330.11 181.8 338M212.59 330.11c.44-.11.77-.52.85-1.01s-.08-1-.44-1.31M246.74 241.85l-33.48 8.58" class="cls-5"/><path d="M246.74 241.85c.58-.15.93-.77.86-1.41s-.54-1.16-1.13-1.17M212.79 248.15c.49-.13.95.24 1.06.77s-.16 1.09-.65 1.21M110.54 238.8l17.12 44.95M129.64 288.95l14.16 37.18M77.06 247.37l33.48-8.57M143.8 326.13l-31.34 8.02M110.54 238.8c.62-.52.6-1.57 0-2.1M144.28 328.69l-22.11 5.67M213 151.96c.4-.34.55-.93.4-1.45s-.57-.91-1.08-.92M212.32 149.59c-.09 0-.18 0-.26.03M179.91 159.04c.17.53.03 1.15-.39 1.49M212.32 248.09l-33.17-87.1M212.78 247.86l33.48-8.57M213 151.96l33.26 87.33M180.42 157.72l31.64-8.1M144.01 148.17c-.09 0-.18 0-.27.03M111.6 157.62c.21.65-.05 1.39-.64 1.65M77.75 245.1l32.79-8.4M123.4 203.47l-12.86 33.23M112.11 156.3l31.64-8.1M144.28 150.75l-33.32 8.54M144.28 150.75c.58-.15.93-.77.86-1.41s-.54-1.16-1.13-1.17" class="cls-5"/><path d="M107.58 159.85c-.07.02-.14.02-.21.02M175.89 161.27c-.07.02-.14.03-.21.02M210.04 250.95c-.07.02-.14.03-.21.02M175.89 339.21c-.07.02-.14.03-.21.02M150.21 342.29c.34-.09 1.37-.56 1.69-.71.28-.13.55-.27.83-.4.14-.07.27-.14.41-.22.1-.05.2-.11.29-.17.02-.02.05-.03.07-.05 0 0 .02-.02.02-.03M150.13 342.3l-1.25-3.28M150.13 342.3h.08M179.29 350.01c.34-.09 1.37-.56 1.69-.71.28-.13.55-.26.83-.4.14-.07.27-.14.41-.22.1-.05.2-.11.29-.17.02-.02.05-.03.07-.05 0 0 .02-.02.02-.03M179.21 350.02h.08M102.8 138.93h-.03c-.03 0-.05.01-.08.02-.11.03-.22.08-.33.12-.14.06-.29.12-.43.18-.29.12-.57.25-.85.39-.28.13-.56.27-.84.41-.14.07-.28.14-.42.22-.1.06-.2.11-.3.18-.02.02-.05.03-.07.05 0 0-.02.02-.02.03M114.9 138.91c.21-.05.73.12.91.19.3.11.59.23.87.37s.56.29.83.46c.14.08.27.17.4.27.09.07.17.14.24.23.02.03.07.09.05.14M67.89 260.24l4.72-12.19M118.2 140.57c-.02.05-.09.06-.13.06-.11 0-.22-.02-.33-.04-.16-.03-.31-.08-.46-.14a10 10 0 0 1-1.75-.83c-.14-.09-.28-.18-.41-.28-.09-.07-.18-.14-.25-.24-.02-.03-.07-.09-.05-.15M71.27 261.85c-.02.05-.09.06-.13.06-.11 0-.22-.01-.33-.04-.16-.03-.31-.08-.46-.14a10 10 0 0 1-1.75-.83c-.14-.09-.28-.18-.41-.28-.09-.07-.18-.14-.25-.24-.03-.03-.07-.09-.05-.15" class="cls-6"/><path d="M114.82 138.96s.04-.04.07-.05M150.82 129.71c.21-.05.73.12.91.19.3.11.59.23.87.37s.56.29.83.46c.14.08.27.17.4.27.09.07.17.14.24.23.02.03.07.09.05.14M150.74 129.76s.04-.04.07-.05" class="cls-6"/><path d="M154.12 131.37c-.02.05-.09.06-.13.06-.11 0-.22-.01-.33-.04a3.5 3.5 0 0 1-.46-.14 10 10 0 0 1-1.75-.83c-.14-.09-.28-.18-.41-.28-.09-.07-.18-.14-.25-.24-.02-.03-.07-.09-.05-.15M177.89 234.59c.3-.08.6-.11.91-.11M179.54 243.44c-.45.11-.88.14-1.33.07M177.71 234.64l.18-.05" class="cls-6"/><path d="M177.71 234.64c.3-.08.6-.11.91-.11M179.5 243.24c-.2.05-.4.08-.61.1M252.67 255.45c.34-.09 1.37-.56 1.69-.71.28-.13.55-.27.83-.4.14-.07.27-.14.41-.21.1-.06.2-.11.3-.18.02-.02.05-.03.07-.05 0 0 .02-.02.02-.03M209.04 130.63l5.07 13.31M252.59 255.45l-4.35-11.43M209.04 130.63h-.03c-.03 0-.05.01-.08.02-.11.03-.22.08-.33.12-.14.06-.29.12-.43.18-.29.12-.57.25-.86.39-.28.13-.56.27-.84.41-.14.07-.28.14-.42.22-.1.06-.21.11-.31.18-.02.02-.05.03-.07.05 0 0-.02.02-.02.03M255.97 253.86h-.03c-.03 0-.05.01-.08.02-.11.03-.22.08-.33.12-.14.06-.29.12-.43.18-.29.12-.57.25-.85.39s-.57.27-.84.41c-.14.07-.28.14-.42.22-.1.06-.21.11-.31.18-.02.02-.05.03-.07.05 0 0-.02.02-.02.03M252.59 255.45h.08M214.74 265.17c.34-.09 1.37-.56 1.69-.71.28-.13.55-.26.83-.4.14-.07.27-.14.41-.21.1-.06.2-.11.3-.18.02-.02.05-.03.07-.05 0 0 .02-.02.02-.03M214.66 265.17h.08M171.11 140.35h-.03c-.03 0-.05.01-.08.02-.11.03-.22.08-.33.12-.14.06-.29.12-.43.18-.29.12-.57.25-.85.39-.28.13-.57.27-.84.41-.14.07-.28.14-.42.22-.1.06-.21.11-.31.18-.02.02-.05.03-.07.05 0 0-.02.02-.02.03M218.04 263.58h-.03c-.03 0-.05.01-.08.02-.11.03-.22.08-.33.12-.15.06-.29.12-.43.18-.29.12-.57.25-.85.39-.28.13-.56.27-.84.41-.14.07-.28.14-.42.22-.1.06-.21.11-.31.18-.02.02-.05.03-.07.05 0 0-.02.02-.02.03M173.73 352.95c-.02.05-.09.06-.13.06-.11 0-.22-.02-.32-.04a3.5 3.5 0 0 1-.46-.14 10 10 0 0 1-1.75-.83c-.14-.09-.28-.18-.41-.28-.09-.07-.17-.14-.25-.23-.03-.03-.07-.1-.05-.15M113.63 235.99l16.12 42.33M108.77 154.6l6.05-15.64M107.38 159.88c-.46 0-.82-.42-.88-.91-.05-.5.22-.98.67-1.1M107.17 157.86c.49-.13.95.24 1.06.77s-.16 1.09-.65 1.21M175.68 339.24c-.46 0-.82-.42-.88-.91-.05-.5.22-.98.67-1.1M175.48 337.23c.49-.13.95.24 1.06.77s-.16 1.09-.65 1.21M206.27 342.14l4.44-11.46M249.06 241.91c-.03.07-.16.06-.21.06-.08 0-.15-.02-.23-.03-.15-.03-.3-.08-.44-.13-.29-.1-.58-.22-.86-.35M209.65 343.75c-.02.05-.09.06-.13.06-.11 0-.22-.02-.32-.04a3.5 3.5 0 0 1-.46-.14 10 10 0 0 1-1.75-.83c-.14-.09-.28-.18-.41-.28-.09-.07-.17-.14-.25-.23-.03-.03-.07-.1-.05-.15M112.28 352.01c.34-.09 1.37-.56 1.69-.71.28-.13.55-.27.83-.4.14-.07.27-.14.41-.21.1-.05.2-.11.29-.17.02-.02.05-.03.07-.05 0 0 .02-.02.02-.03M67.61 224.45h-.03c-.03 0-.05.01-.08.02-.11.03-.22.08-.33.12-.14.06-.29.12-.43.18-.29.12-.57.25-.85.39s-.56.27-.84.41c-.14.07-.28.14-.42.22-.1.06-.2.11-.3.18-.02.02-.05.03-.07.05 0 0-.02.02-.02.03M115.58 350.42h-.03c-.03 0-.05.01-.08.02-.11.03-.22.08-.32.12-.15.06-.29.12-.43.18-.29.12-.57.25-.85.39-.28.13-.56.27-.84.41-.14.07-.28.14-.42.22-.1.06-.2.11-.3.18-.02.02-.05.03-.07.05 0 0-.02.02-.02.03M112.2 352.01h.08M183.21 140.33c.21-.05.73.12.91.19.3.11.59.23.87.37s.56.29.83.46c.14.08.27.17.4.27.09.07.17.14.24.23.03.03.07.09.05.15M183.13 140.38s.04-.04.07-.05" class="cls-6"/><path d="M186.51 141.99c-.02.05-.09.06-.13.06-.11 0-.22-.02-.32-.04a3.5 3.5 0 0 1-.46-.14 10 10 0 0 1-1.75-.83c-.14-.09-.28-.18-.41-.28-.09-.07-.17-.14-.25-.23-.03-.03-.07-.1-.05-.15M106.72 348.17c-.02.05-.09.06-.13.06-.11 0-.22-.02-.32-.04a3.5 3.5 0 0 1-.46-.14 10 10 0 0 1-1.75-.83c-.14-.09-.28-.18-.41-.28-.09-.07-.17-.14-.25-.23-.03-.03-.07-.1-.05-.15M106.29 336.68v-.2M180.4 339.68l-1.15-.03M180.83 339.61c.58-.15.97-.74.97-1.39M180.69 339.64c-.1.02-.19.04-.29.03M216.43 329.34v-1.16M215.17 326.7l-1.73-.04M142.32 329.26c-.06 0-.11 0-.17-.02M215.6 330.7c.58-.15.97-.74.97-1.39M215.46 330.74c-.1.03-.19.04-.29.03M106.74 337.8c-.29-.28-.45-.7-.45-1.12M213.45 326.62l1.86.04M108.75 342.94l-2.03 5.23M127.74 283.52l-16.12-42.34M143.61 325.17l-13.88-36.45M147.31 334.88l-1.53-4.02M74.62 242.86l32.14-83.07M76.46 247.83l32.14-83.07M179.03 243.3c.18-.01.36-.04.53-.08M177.83 234.82c-.17.05-.34.11-.51.19M177.17 235.04c.19-.09.38-.16.58-.21M213.21 250.14l-.26.07M152.9 339.11l.61 1.59M149.2 329.4l2.12 5.56M131.74 283.53l14.06 36.94M74.59 253.26l-3.32 8.59M246.43 239.27l-32.35-84.93M173.97 325.8l6.22.13M180.17 325.97l-6.18-.13M178.61 330.01l-3.06-.06M177.08 156.02l6.05-15.64M180.46 335.57h.08M175.68 161.3c-.46 0-.82-.42-.88-.91-.05-.5.22-.98.67-1.1M175.48 159.28c.49-.13.95.24 1.06.77s-.16 1.09-.65 1.21M181.66 338.25v-1.16M180.44 335.61c.7.04 1.22.72 1.22 1.48M217.21 340.3c.34-.09 1.37-.56 1.69-.71.28-.13.55-.27.83-.4.14-.07.27-.14.41-.21.1-.05.2-.11.29-.17.02-.02.05-.03.07-.05 0 0 .02-.02.02-.03M140.73 129.21l5.07 13.32M140.73 129.21h-.03c-.03 0-.05.01-.08.02-.11.03-.22.08-.32.12-.14.06-.29.12-.43.18-.29.12-.57.25-.85.39s-.57.27-.84.41c-.14.07-.28.14-.42.22-.1.06-.2.11-.3.18-.03.02-.05.03-.07.05 0 0-.02.02-.02.03M220.52 338.71h-.03c-.03 0-.05.01-.08.02q-.165.045-.33.12c-.14.06-.29.12-.43.18-.29.12-.57.25-.85.39s-.56.27-.84.41c-.14.07-.28.14-.42.22-.1.06-.2.11-.3.18-.02.02-.05.03-.07.05 0 0-.02.02-.02.03M217.14 340.3h.08M217.14 340.3l-3.06-8.02M219.12 131.13c.21-.05.73.12.91.19.3.11.59.23.87.37s.56.29.83.46c.14.08.27.17.4.27.09.07.17.14.24.23.03.03.07.09.05.15" class="cls-6"/><path d="M222.42 132.79c-.02.05-.09.06-.13.06-.11 0-.22-.02-.32-.04a3.5 3.5 0 0 1-.46-.14 10 10 0 0 1-1.75-.83c-.14-.09-.28-.18-.41-.28-.09-.07-.17-.14-.25-.23-.03-.03-.07-.1-.05-.15M142.64 338.97c-.03.07-.16.06-.21.06-.08 0-.15-.02-.22-.03-.15-.03-.29-.08-.44-.12M219.05 131.18s.04-.04.07-.05M107.38 337.82c-.46 0-.82-.42-.88-.91-.05-.5.22-.98.67-1.1" class="cls-6"/><path d="M107.17 335.81c.49-.13.95.24 1.06.77s-.16 1.09-.65 1.21M107.58 337.79c-.07.02-.14.03-.21.02M209.72 250.87c-.07.02-.14.03-.21.02M73.22 248.14c-.46 0-.82-.42-.88-.91-.05-.5.22-.98.67-1.1M73.01 246.12c.49-.13.95.24 1.07.77.11.53-.16 1.09-.65 1.21M73.43 248.11c-.07.02-.14.02-.21.02M69.82 246.87c-.46 0-.82-.42-.88-.91-.05-.5.22-.98.67-1.1M69.61 244.86l1.62-.42M69.61 244.86c.49-.13.95.24 1.06.77s-.16 1.09-.65 1.21M70.03 246.84c-.07.02-.14.03-.21.02M143.14 243.49l.1-.02M143.14 243.49s.07-.02.1-.02M195.2 203.14l-.09.23M216.09 149.15l39.88 104.71M212.1 149.14l-6.44-16.92M248.03 241.06q.3.165.57.36c.09.07.18.13.27.21l.12.12c.03.03.08.1.06.16M165.89 195.27l14.07 36.94M147.79 147.73l16.12 42.33M196.05 284.94l-15.88-41.7M216.57 328.34l3.95 10.37M182.7 239.42l15.36 40.32M161.9 195.26l-16.12-42.34M177 234.91l-13.12-34.45M140.28 334.73l2.12-5.47M212.17 248.15l.11-.02M142.68 243.64q.225-.09.45-.15M140.68 250.1c-.4-.8-.58-1.72-.52-2.63M145.79 251.8c1.11-.64 1.84-1.86 2.01-3.22s-.23-2.75-1.09-3.74M142.73 243.77c.12-.05.25-.09.38-.12" class="cls-6"/><path d="M140.71 250.01c-.36-.73-.53-1.55-.5-2.38M143.79 147.72l-6.44-16.92M71.96 246.35l-1.93.49M142.67 338.89l-.03.08M158.95 296.82l-11.01 28.44M179.61 243.42l-18.65 48.21M193.1 208.56l-10.92 28.23M193.13 198.16l.09-.23M178.97 234.77v-.01M158.98 286.42l16.31-42.16M209.84 250.98c-.46 0-.82-.42-.88-.91-.05-.5.22-.98.67-1.1M209.63 248.96c.49-.13.95.24 1.06.77s-.16 1.09-.65 1.21M153.51 340.71h-.03c-.03 0-.05.01-.08.02-.11.03-.22.08-.33.12-.14.06-.29.12-.43.18-.29.12-.57.25-.85.39s-.57.27-.84.41c-.14.07-.28.14-.42.22-.1.06-.2.11-.3.18-.03.02-.05.03-.07.05 0 0-.02.02-.02.03M179.21 350.02l-79.79-209.5M102.8 138.93l79.79 209.5M182.59 348.43h-.03c-.03 0-.05.01-.08.02-.11.03-.22.08-.32.12-.14.06-.29.12-.43.18-.29.12-.57.25-.85.39-.28.13-.56.27-.84.41-.14.07-.28.14-.42.22-.1.06-.2.11-.3.18-.02.02-.05.03-.07.05 0 0-.02.02-.02.03M118.2 140.57l-7.45 19.24" class="cls-6"/><path d="M108.75 165 76.6 248.07" style="fill:#6f06ad;stroke-width:0"/><path d="m143.59 148.24 7.15-18.48M154.12 131.37l-27.32 70.58M124.8 207.14l-13.27 34.27M178.63 234.53c2.03.04 3.65 1.84 3.88 4.04.11 1.07-.11 2.17-.65 3.07-.54.91-1.36 1.55-2.32 1.8" class="cls-6"/><path d="M178.81 234.48c2.03.04 3.65 1.84 3.88 4.04.11 1.07-.11 2.17-.65 3.07-.54.91-1.36 1.55-2.32 1.8" class="cls-6"/><path d="M178.63 234.73c1.94.04 3.48 1.76 3.7 3.86.22 2.11-.93 4.16-2.83 4.65M179.72 243.39l-.18.05M176.49 235.22c.38-.28.78-.47 1.22-.58M177.75 234.83l.15-.03M179.64 243.2l-.14.04M177.75 234.83c.29-.07.58-.11.87-.1M214.66 265.17l-5.46-14.34M208.69 249.49l-40.96-107.55M171.11 140.35l46.93 123.23M211.21 256.1l-32.15 83.07M177.05 344.36l-3.32 8.59M170.36 351.34l4.71-12.19M177.08 333.96l32.15-83.07M249.06 241.91l-32.94 85.11M214.67 330.76l-5.02 12.99M67.61 224.45l47.97 125.97M112.2 352.01 64.23 226.04M103.35 346.56l3.41-8.83M108.77 332.54l32.15-83.07M142.93 244.28l32.14-83.07M186.51 141.99l-7.45 19.23M177.05 166.42l-32.14 83.07M142.9 254.68l-32.15 83.07M181.8 337.05v1.16M181.8 337.05c0-.78-.54-1.47-1.26-1.48M112.15 334.15l61.5 1.28M173.67 335.47l-61.54-1.28M174.91 339.56l-63.97-1.33M180.54 339.64c.1 0 .2 0 .29-.03" class="cls-6"/><path d="M181.66 338.25c0 .65-.38 1.24-.97 1.39M180.83 339.61l-.14.03M216.57 328.14v1.17M216.57 328.14c0-.78-.54-1.46-1.26-1.48" class="cls-6"/><path d="M215.17 326.7c.72.02 1.26.7 1.26 1.48M143.43 325.17l26.53.55M169.97 325.76l-26.52-.55M215.17 330.77l-4.76-.1M171.53 329.86l-29.21-.6M215.31 330.73c.1 0 .2 0 .29-.03" class="cls-6"/><path d="M216.43 329.34c0 .65-.38 1.24-.97 1.39M215.6 330.7l-.14.04M222.42 132.79 214 154.57M146.36 329.34l-2.11 5.47M143.98 325.18l12.99-33.56M179.07 234.5l12.05-31.15M211.9 149.65l7.15-18.47M209.52 250.9c-.46 0-.82-.42-.88-.91-.05-.5.22-.98.67-1.1M209.31 248.89c.49-.13.95.24 1.06.77s-.16 1.09-.65 1.21M146.76 244.7c.9 1.02 1.33 2.47 1.16 3.88-.17 1.42-.92 2.69-2.08 3.35M143.18 243.63h-.01" class="cls-6"/><path d="M146.68 244.9c.83.99 1.22 2.36 1.06 3.7s-.87 2.54-1.95 3.19" class="cls-6"/><path d="M145.86 251.98c1.24-.63 2.06-1.95 2.24-3.43s-.29-2.99-1.28-4.02M143.11 243.65s.05-.01.07-.02" class="cls-6"/></svg>