<?xml version="1.0" encoding="UTF-8"?>
<svg id="Calque_2" data-name="Calque 2" xmlns="http://www.w3.org/2000/svg" viewBox="0 0 383.74 531.14">
  <defs>
    <style>
      .cls-1 {
        fill: #7b077d;
      }

      .cls-1, .cls-2, .cls-3, .cls-4, .cls-5, .cls-6, .cls-7, .cls-8 {
        stroke-width: 0px;
      }

      .cls-2 {
        fill: #ec9126;
      }

      .cls-3 {
        fill: #776c0a;
      }

      .cls-4 {
        fill: #d8d7e7;
      }

      .cls-5 {
        fill: #a6a58f;
      }

      .cls-9 {
        stroke-width: .25px;
      }

      .cls-9, .cls-10 {
        fill: none;
        stroke: #000;
        stroke-miterlimit: 10;
      }

      .cls-6 {
        fill: #eaa98c;
      }

      .cls-7 {
        fill: #662612;
      }

      .cls-10 {
        stroke-width: .5px;
      }

      .cls-8 {
        fill: #d86a3f;
      }
    </style>
  </defs>
  <polyline class="cls-6" points="154.78 188.22 155.48 189.97 151.27 202.06 154.66 203.55 157.25 194.86 183.6 261.7 182.38 263.05 138.77 235.34 139.04 233.71 110.23 160.33"/>
  <polygon class="cls-6" points="259.95 59.84 304.63 88.07 303.83 89.27 303.83 91.01 276.6 168.29 249.11 99.95 249.73 99.84 249.73 98.77 249.67 98.09 255.82 81.52 252.6 79.99 258.86 62.06 258.69 61.22 258.81 60.32 259.2 60.04 259.95 59.84"/>
  <polygon class="cls-8" points="199.69 66.93 243.09 94.19 245.22 99.88 228.98 144.9 228.83 143.73 229.18 143.22 200.25 70.08 198.73 69.07 198.68 67.9 198.98 67.29 199.69 66.93"/>
  <polygon class="cls-8" points="247.54 105.2 274.15 173.29 232.19 147.16 247.54 105.2"/>
  <polygon class="cls-7" points="240.96 254.92 202.05 230.41 217.5 188.17 243.63 254.25 240.96 254.92"/>
  <polygon class="cls-7" points="232.19 147.16 219.31 183.11 246.02 251.39 274.15 173.29 232.19 147.16"/>
  <polyline class="cls-4" points="154.78 188.22 155.48 189.97 151.27 202.06 154.66 203.55 157.25 194.86 183.6 261.7 182.38 263.05 138.77 235.34 139.04 233.71 110.23 160.33"/>
  <polygon class="cls-4" points="259.95 59.84 304.63 88.07 303.83 89.27 303.83 91.01 276.6 168.29 249.11 99.95 249.73 99.84 249.73 98.77 249.67 98.09 255.82 81.52 252.6 79.99 258.86 62.06 258.69 61.22 258.81 60.32 259.2 60.04 259.95 59.84"/>
  <polygon class="cls-5" points="199.69 66.93 243.09 94.19 245.22 99.88 228.98 144.9 228.83 143.73 229.18 143.22 200.25 70.08 198.73 69.07 198.68 67.9 198.98 67.29 199.69 66.93"/>
  <polygon class="cls-5" points="247.54 105.2 274.15 173.29 232.19 147.16 247.54 105.2"/>
  <polygon class="cls-3" points="139.91 74.3 182.69 100.95 184.14 104.62 156.42 182.95 127.06 109.16 138.94 76.33 138.94 74.78 139.91 74.3"/>
  <polyline class="cls-2" points="154.78 188.22 155.48 189.97 151.27 202.06 154.66 203.55 157.25 194.86 183.6 261.7 182.38 263.05 138.77 235.34 139.04 233.71 110.23 160.33"/>
  <polygon class="cls-1" points="110.23 160.33 108.88 159.33 108.97 158.18 109.22 157.85 80.23 84.43 78.69 83.26 78.77 82.33 79.05 81.72 79.98 81.44 123.01 108.6 154.78 188.22 110.23 160.33"/>
  <polygon class="cls-3" points="259.95 59.84 304.63 88.07 303.83 89.27 303.83 91.01 276.6 168.29 249.11 99.95 249.73 99.84 249.73 98.77 249.67 98.09 255.82 81.52 252.6 79.99 258.86 62.06 258.69 61.22 258.81 60.32 259.2 60.04 259.95 59.84"/>
  <polygon class="cls-2" points="199.69 66.93 243.09 94.19 245.22 99.88 228.98 144.9 228.83 143.73 229.18 143.22 200.25 70.08 198.73 69.07 198.68 67.9 198.98 67.29 199.69 66.93"/>
  <polygon class="cls-2" points="247.54 105.2 274.15 173.29 232.19 147.16 247.54 105.2"/>
  <polygon class="cls-1" points="240.96 254.92 202.05 230.41 217.5 188.17 243.63 254.25 240.96 254.92"/>
  <polygon class="cls-1" points="232.19 147.16 219.31 183.11 246.02 251.39 274.15 173.29 232.19 147.16"/>
  <path class="cls-9" d="M167.22,154.67c-.12-.08-.24-.16-.35-.26"/>
  <path class="cls-9" d="M168.26,155.06c-.38-.06-.71-.19-1.05-.4"/>
  <path class="cls-9" d="M167.3,154.5c-.13-.08-.25-.17-.37-.28"/>
  <path class="cls-9" d="M169.54,147c.48.02.95.17,1.37.43"/>
  <path class="cls-9" d="M169.47,147.18c.47.01.93.15,1.35.41"/>
  <path class="cls-9" d="M154.34,188.1c-.25-.15-.4-.43-.45-.73-.05-.3.01-.62.15-.88"/>
  <line class="cls-9" x1="154.34" y1="188.1" x2="109.2" y2="159.71"/>
  <line class="cls-9" x1="182.58" y1="262.99" x2="139.17" y2="235.69"/>
  <path class="cls-9" d="M109.14,157.79c-.25.25-.4.61-.4.99,0,.37.16.74.46.93"/>
  <line class="cls-9" x1="139.11" y1="233.77" x2="110.12" y2="160.29"/>
  <path class="cls-9" d="M244.27,97.67c-.25-.15-.4-.43-.45-.73-.05-.3.01-.62.15-.88"/>
  <line class="cls-9" x1="244.27" y1="97.67" x2="199.12" y2="69.28"/>
  <path class="cls-9" d="M200.19,67.18c-.16-.1-.35-.14-.54-.12"/>
  <line class="cls-9" x1="200.19" y1="67.18" x2="243.26" y2="94.27"/>
  <line class="cls-9" x1="229.03" y1="143.35" x2="200.05" y2="69.87"/>
  <path class="cls-9" d="M199.65,67.06c-.46.06-.82.45-.95.93-.13.48,0,1.04.41,1.3"/>
  <path class="cls-9" d="M244.66,97.8c-.14,0-.27-.05-.39-.12"/>
  <path class="cls-9" d="M248.65,100.12c-.4-.25-.44-.82-.24-1.23s.67-.66,1.07-.41"/>
  <path class="cls-9" d="M249.48,98.48c.32.2.42.64.32,1.01-.1.37-.38.68-.74.72"/>
  <path class="cls-9" d="M249.06,100.21c-.15.02-.28,0-.42-.09"/>
  <path class="cls-9" d="M170.62,147.53c-.36-.23-.72-.35-1.13-.39"/>
  <line class="cls-9" x1="168.27" y1="155.05" x2="167.15" y2="154.35"/>
  <line class="cls-9" x1="212.74" y1="183.02" x2="171.24" y2="156.92"/>
  <path class="cls-9" d="M217.41,176.67s-.08-.05-.12-.08"/>
  <path class="cls-9" d="M217.74,176.89c-.07-.05-.14-.1-.21-.15"/>
  <path class="cls-9" d="M213.84,183.99c.38.24.76.37,1.19.42"/>
  <path class="cls-9" d="M217.53,176.75c-.31-.2-.63-.32-.99-.39"/>
  <path class="cls-9" d="M217.7,177.01s-.1-.07-.15-.1"/>
  <path class="cls-9" d="M217.55,176.91c-.3-.19-.6-.31-.93-.37"/>
  <path class="cls-9" d="M213.37,177.67c-.74.89-1.16,2.1-1.11,3.31.05,1.22.59,2.38,1.58,3"/>
  <path class="cls-9" d="M213.25,177.38c-.8.87-1.27,2.11-1.24,3.36.03,1.26.57,2.46,1.59,3.1"/>
  <path class="cls-9" d="M213.45,177.89c-.69.86-1.07,2.02-1,3.18.07,1.16.59,2.26,1.53,2.85"/>
  <path class="cls-9" d="M170.92,147.68c-.06-.05-.13-.1-.2-.15"/>
  <path class="cls-9" d="M167.78,154.74c-.17-.06-.32-.14-.48-.24"/>
  <line class="cls-9" x1="232.65" y1="145.62" x2="273.71" y2="171.44"/>
  <line class="cls-9" x1="244.56" y1="97.55" x2="244.38" y2="97.44"/>
  <line class="cls-9" x1="198.71" y1="68.72" x2="197.82" y2="68.16"/>
  <path class="cls-9" d="M213.42,177.8c-.7.86-1.1,2.03-1.04,3.2.06,1.17.58,2.28,1.53,2.88"/>
  <path class="cls-9" d="M166.94,154.2c.07.05.14.1.21.14"/>
  <path class="cls-9" d="M170.78,147.35s-.08-.05-.12-.08"/>
  <path class="cls-9" d="M170.9,147.42s.06.04.09.06"/>
  <path class="cls-9" d="M167.2,154.44c.12.07.25.13.38.18"/>
  <path class="cls-9" d="M170.82,147.59s.07.05.11.07"/>
  <line class="cls-9" x1="183.78" y1="261.87" x2="139.11" y2="233.77"/>
  <path class="cls-9" d="M166.86,154.44s.08.05.12.08"/>
  <path class="cls-9" d="M154.73,188.22c-.14,0-.27-.05-.39-.12"/>
  <path class="cls-9" d="M166.97,154.52s.08.05.12.07"/>
  <path class="cls-9" d="M170.66,147.27c-.34-.21-.69-.34-1.08-.4"/>
  <line class="cls-9" x1="167.22" y1="154.67" x2="166.97" y2="154.52"/>
  <line class="cls-9" x1="170.66" y1="147.27" x2="170.9" y2="147.42"/>
  <line class="cls-9" x1="167.3" y1="154.5" x2="167.11" y2="154.38"/>
  <path class="cls-9" d="M154.46,187.87c-.35-.22-.43-.7-.3-1.08"/>
  <path class="cls-9" d="M139.11,233.77c-.25.25-.4.61-.4.99,0,.37.16.74.46.93"/>
  <path class="cls-9" d="M244.38,97.44c-.35-.22-.43-.7-.3-1.09"/>
  <line class="cls-9" x1="229.03" y1="143.35" x2="229.68" y2="143.75"/>
  <line class="cls-9" x1="173.88" y1="149.57" x2="211.65" y2="173.33"/>
  <path class="cls-9" d="M217.29,176.59c-.25-.16-.51-.27-.79-.34"/>
  <path class="cls-9" d="M217.47,176.86c-.28-.17-.56-.29-.87-.36"/>
  <path class="cls-9" d="M195.18,64.7c-.27.12-.46.39-.53.7-.07.31,0,.65.21.87"/>
  <path class="cls-9" d="M213.6,183.84s.08.05.12.07"/>
  <path class="cls-9" d="M213.98,183.92c.35.22.7.34,1.09.39"/>
  <line class="cls-9" x1="170.62" y1="147.53" x2="170.91" y2="147.71"/>
  <line class="cls-9" x1="213.84" y1="183.99" x2="213.6" y2="183.84"/>
  <line class="cls-9" x1="217.29" y1="176.59" x2="217.53" y2="176.75"/>
  <path class="cls-9" d="M124.37,112.12c-.25-.15-.4-.43-.45-.73-.05-.3.01-.62.15-.88"/>
  <line class="cls-9" x1="124.37" y1="112.12" x2="79.22" y2="83.73"/>
  <path class="cls-9" d="M80.29,81.63c-.16-.1-.35-.14-.54-.12"/>
  <line class="cls-9" x1="80.29" y1="81.63" x2="123.37" y2="108.71"/>
  <line class="cls-9" x1="109.14" y1="157.79" x2="80.15" y2="84.31"/>
  <path class="cls-9" d="M79.76,81.51c-.46.05-.82.45-.95.93-.13.48,0,1.04.41,1.3"/>
  <path class="cls-9" d="M124.76,112.24c-.14,0-.27-.05-.39-.12"/>
  <path class="cls-9" d="M274.36,173.42c-.35-.22-.43-.7-.3-1.09"/>
  <path class="cls-9" d="M199.85,226.25c-.5-.05-.94.34-1.11.83-.17.5-.07,1.12.38,1.4"/>
  <path class="cls-9" d="M229.03,143.35c-.24.24-.39.59-.4.95,0,.36.12.72.4.93"/>
  <line class="cls-9" x1="217.65" y1="176.82" x2="229.03" y2="145.22"/>
  <line class="cls-9" x1="199.85" y1="226.25" x2="214.92" y2="184.39"/>
  <line class="cls-9" x1="243.31" y1="253.58" x2="202.91" y2="228.17"/>
  <path class="cls-9" d="M274.63,173.78s-.03,0-.05,0"/>
  <line class="cls-9" x1="199.94" y1="226.31" x2="199.85" y2="226.25"/>
  <line class="cls-9" x1="109.14" y1="157.79" x2="153.81" y2="185.89"/>
  <path class="cls-9" d="M124.49,111.89c-.35-.22-.43-.7-.3-1.08"/>
  <path class="cls-9" d="M274.18,173.61c-.47-.35-.5-1.06-.23-1.56"/>
  <line class="cls-9" x1="232.1" y1="147.15" x2="274.18" y2="173.61"/>
  <line class="cls-9" x1="241.29" y1="254.99" x2="202.13" y2="230.36"/>
  <line class="cls-9" x1="199.16" y1="228.49" x2="199.12" y2="228.47"/>
  <line class="cls-9" x1="229.03" y1="145.22" x2="229.13" y2="145.28"/>
  <line class="cls-9" x1="274.18" y1="173.61" x2="246.15" y2="251.41"/>
  <line class="cls-9" x1="274.58" y1="173.77" x2="246.39" y2="252.03"/>
  <path class="cls-9" d="M140.24,74.4c-.16-.1-.35-.14-.54-.12"/>
  <line class="cls-9" x1="140.24" y1="74.4" x2="183.31" y2="101.49"/>
  <line class="cls-9" x1="127.29" y1="109.29" x2="139.11" y2="76.47"/>
  <line class="cls-9" x1="184.26" y1="104.85" x2="156.23" y2="182.66"/>
  <line class="cls-9" x1="184.66" y1="105.02" x2="156.47" y2="183.27"/>
  <path class="cls-9" d="M139.71,74.28c-.44.05-.8.43-.94.89-.13.46-.04,1,.34,1.29"/>
  <path class="cls-9" d="M184.26,104.85c-.47-.35-.5-1.06-.23-1.56"/>
  <path class="cls-9" d="M259.6,59.84c-.44.05-.8.43-.94.89-.14.46-.04,1,.34,1.29"/>
  <line class="cls-9" x1="247.18" y1="94.84" x2="259.01" y2="62.02"/>
  <path class="cls-9" d="M304.33,90.21c-.4-.25-.44-.82-.24-1.23.21-.41.67-.66,1.07-.41"/>
  <path class="cls-9" d="M184.71,105.02s-.03,0-.05,0"/>
  <path class="cls-9" d="M184.43,104.66c-.35-.22-.43-.7-.3-1.09"/>
  <line class="cls-9" x1="139.11" y1="76.47" x2="184.26" y2="104.85"/>
  <line class="cls-9" x1="304.15" y1="90.41" x2="276.13" y2="168.21"/>
  <path class="cls-9" d="M304.15,90.41c-.38-.29-.48-.83-.34-1.29.13-.46.49-.84.94-.89"/>
  <path class="cls-9" d="M304.86,90.55c-.1.03-.2.03-.3.02"/>
  <line class="cls-9" x1="259.01" y1="62.02" x2="304.15" y2="90.41"/>
  <path class="cls-9" d="M305.28,88.35c.2.12.34.33.41.57"/>
  <path class="cls-9" d="M260.14,59.96c-.16-.1-.35-.14-.54-.12"/>
  <line class="cls-9" x1="260.14" y1="59.96" x2="305.28" y2="88.35"/>
  <path class="cls-9" d="M304.75,88.23c.19-.02.37.02.54.12"/>
  <line class="cls-9" x1="304.56" y1="90.57" x2="276.37" y2="168.82"/>
  <path class="cls-10" d="M328.68,459.26c.04.1.04.18.01.28-.03.14-.09.25-.16.36-.13.19-.27.34-.44.49-.33.29-.68.51-1.07.7s-.77.33-1.18.4c-.21.04-.41.05-.62.03-.12-.01-.24-.04-.35-.11-.08-.05-.14-.1-.17-.2"/>
  <path class="cls-10" d="M328.09,459.03c.07.18-.03.37-.12.5-.1.15-.22.27-.35.38-.26.23-.54.4-.84.55-.3.15-.61.26-.93.32-.16.03-.32.04-.49.02-.14-.02-.34-.06-.41-.24"/>
  <path class="cls-10" d="M280.24,428.8c.04.09.04.18.01.28-.03.14-.09.25-.16.36-.13.19-.28.34-.44.49-.33.29-.68.51-1.07.7-.38.19-.77.33-1.18.4-.21.04-.41.05-.62.03-.12-.01-.24-.04-.35-.11-.08-.05-.14-.1-.17-.2"/>
  <path class="cls-10" d="M279.65,428.57c.07.18-.03.37-.12.5-.1.15-.22.27-.35.38-.26.23-.54.4-.84.55s-.61.26-.93.31c-.16.03-.32.04-.49.02-.14-.02-.34-.06-.41-.24"/>
  <path class="cls-10" d="M109.38,487.88s-.02.01-.03.01c-.03,0-.05,0-.08-.01-.11-.02-.21-.06-.31-.09-.14-.05-.27-.1-.41-.15-.27-.11-.54-.22-.81-.34-.27-.12-.53-.24-.8-.37-.13-.07-.26-.13-.39-.2-.1-.05-.19-.11-.28-.17-.02-.02-.04-.03-.06-.05,0,0-.02-.02-.01-.03"/>
  <path class="cls-10" d="M58.48,456.38s-.03.01-.04.01c-.03,0-.07,0-.1-.01-.13-.03-.26-.07-.39-.12-.17-.06-.35-.13-.52-.19-.34-.14-.69-.28-1.03-.43-.34-.15-.68-.31-1.01-.47-.17-.08-.33-.17-.5-.26-.12-.07-.24-.13-.36-.22-.03-.02-.06-.04-.08-.07,0,0-.02-.02-.02-.04"/>
  <path class="cls-10" d="M55.04,454.3s0,0,0,0"/>
  <path class="cls-10" d="M58.23,455.71s-.02.01-.03.01c-.03,0-.05,0-.08-.01-.11-.02-.21-.06-.31-.09-.14-.05-.27-.1-.41-.15-.27-.11-.54-.22-.81-.34-.27-.12-.53-.24-.8-.37-.13-.07-.26-.13-.39-.2-.1-.05-.19-.11-.28-.17-.02-.02-.04-.03-.06-.05,0,0-.02-.02-.01-.03"/>
  <path class="cls-10" d="M58.21,455.68s.01.01.01.02"/>
  <path class="cls-10" d="M328.02,458.93s.05.06.07.1"/>
  <path class="cls-10" d="M328,458.88c.12.04.24.08.36.12"/>
  <path class="cls-10" d="M324.94,460.57s-.02-.08-.02-.12"/>
  <path class="cls-10" d="M328.36,459c.05.02.1.04.15.07"/>
  <path class="cls-10" d="M324.73,460.76c.06-.12.11-.25.17-.37"/>
  <path class="cls-10" d="M329.39,461.08c.02.06.04.13.05.2.03.21-.01.42-.09.6,0,0,0,0,0,.01-.02.03-.03.07-.05.1-.1.19-.25.36-.43.53-.16.15-.34.29-.54.42-.42.27-.89.47-1.34.58-.38.09-.72.1-1.01,0-.08-.02-.15-.06-.22-.1-.15-.09-.27-.23-.34-.4"/>
  <path class="cls-10" d="M324.69,461.2c-.06-.15-.02-.31.04-.44"/>
  <line class="cls-10" x1="325.41" y1="463.02" x2="324.7" y2="461.22"/>
  <line class="cls-10" x1="328.68" y1="459.26" x2="329.39" y2="461.08"/>
  <path class="cls-10" d="M328.51,459.06c.08.05.13.1.17.2"/>
  <path class="cls-10" d="M279.58,428.47s.05.06.07.1"/>
  <path class="cls-10" d="M279.56,428.42c.12.04.24.08.36.12"/>
  <path class="cls-10" d="M276.5,430.1s-.02-.08-.02-.12"/>
  <path class="cls-10" d="M280.95,430.62c.02.06.04.13.05.2.03.21-.01.42-.09.6,0,0,0,0,0,.01-.02.03-.03.07-.05.1-.11.19-.25.37-.43.53-.16.15-.34.29-.54.42-.42.27-.89.47-1.34.58-.38.09-.72.1-1.01,0-.08-.03-.15-.06-.22-.1-.15-.09-.27-.23-.34-.4"/>
  <path class="cls-10" d="M279.92,428.54c.05.02.1.04.15.07"/>
  <path class="cls-10" d="M276.29,430.3c.05-.12.11-.25.17-.37"/>
  <path class="cls-10" d="M276.25,430.74c-.06-.15-.02-.31.04-.44"/>
  <line class="cls-10" x1="276.97" y1="432.56" x2="276.26" y2="430.76"/>
  <line class="cls-10" x1="280.24" y1="428.8" x2="280.95" y2="430.62"/>
  <path class="cls-10" d="M280.07,428.6c.08.05.13.1.17.2"/>
  <path class="cls-10" d="M109.64,488.54s-.03.01-.04.01c-.03,0-.07,0-.1-.01-.13-.03-.26-.07-.39-.12-.18-.06-.35-.13-.52-.19-.34-.14-.69-.28-1.03-.43-.34-.15-.68-.31-1.01-.47-.17-.08-.33-.17-.5-.26-.12-.07-.24-.14-.36-.22-.03-.02-.06-.04-.08-.07,0,0-.02-.02-.02-.04"/>
  <path class="cls-10" d="M109.37,487.85s.01.01.01.02"/>
  <path class="cls-10" d="M109.38,487.87c.08.22.17.44.26.66"/>
  <path class="cls-10" d="M108.92,490.53c-.05.14-.15.25-.27.3-.08.04-.15.05-.22.05-.05,0-.1,0-.14-.01-.12-.02-.22-.06-.39-.11-.14-.05-.31-.11-.49-.19-.39-.15-.82-.35-1.23-.54-.42-.2-.73-.36-.94-.49-.07-.04-.13-.08-.19-.13-.06-.05-.12-.11-.17-.24-.05-.13-.06-.28,0-.42"/>
  <path class="cls-10" d="M106.2,486.46s.01,0,.02,0"/>
  <path class="cls-10" d="M109.63,488.53s0,0,0,.01"/>
  <path class="cls-10" d="M109.38,487.87s0,0,0,.01"/>
  <path class="cls-10" d="M105.61,486.74c.2-.09.4-.19.59-.28"/>
  <path class="cls-10" d="M105.6,486.75s0,0,0,0"/>
  <line class="cls-10" x1="104.88" y1="488.73" x2="105.6" y2="486.75"/>
  <line class="cls-10" x1="109.64" y1="488.54" x2="108.92" y2="490.53"/>
  <path class="cls-10" d="M106.19,486.46s0,0,0,0"/>
  <path class="cls-10" d="M58.23,455.7c.08.22.17.44.26.66"/>
  <path class="cls-10" d="M55.05,454.29s.02,0,.02,0"/>
  <path class="cls-10" d="M58.48,456.36s0,0,0,.01"/>
  <path class="cls-10" d="M58.23,455.7s0,0,0,0"/>
  <path class="cls-10" d="M54.45,454.57c.2-.09.4-.19.59-.28"/>
  <path class="cls-10" d="M57.77,458.36c-.05.14-.15.25-.27.3-.08.04-.15.05-.22.05-.05,0-.1,0-.14-.01-.12-.02-.22-.06-.39-.11-.14-.05-.31-.11-.49-.19-.39-.15-.82-.35-1.23-.54-.41-.2-.73-.36-.94-.49-.07-.04-.13-.08-.19-.13-.06-.05-.12-.11-.17-.24-.05-.13-.06-.28,0-.42"/>
  <path class="cls-10" d="M54.45,454.58s0,0,0,0"/>
  <line class="cls-10" x1="53.73" y1="456.57" x2="54.45" y2="454.58"/>
  <line class="cls-10" x1="58.48" y1="456.38" x2="57.77" y2="458.36"/>
  <path class="cls-10" d="M144.43,56.6s.06.04.09.06c.01,0,.03.02.04.03,0,0,.03.03.03.04"/>
  <path class="cls-10" d="M73.34,64.88c.07.18-.03.37-.12.49-.1.15-.21.27-.34.38-.26.23-.53.4-.83.54-.3.15-.6.25-.92.31-.16.03-.32.04-.48.02-.14-.02-.34-.06-.41-.24"/>
  <line class="cls-10" x1="135.95" y1="232.94" x2="70.25" y2="66.41"/>
  <line class="cls-10" x1="141.41" y1="246.78" x2="137.23" y2="236.18"/>
  <path class="cls-10" d="M121.78,95.34c.07.18-.03.37-.12.5-.1.15-.21.27-.34.38-.26.23-.53.4-.83.54s-.6.25-.92.31c-.16.03-.32.04-.48.02-.14-.02-.34-.06-.41-.24"/>
  <line class="cls-10" x1="155.56" y1="190.32" x2="118.69" y2="96.87"/>
  <line class="cls-10" x1="185.53" y1="266.3" x2="157.46" y2="195.15"/>
  <line class="cls-10" x1="159.35" y1="190.58" x2="187.3" y2="261.41"/>
  <line class="cls-10" x1="121.78" y1="95.34" x2="157.32" y2="185.43"/>
  <path class="cls-10" d="M181.73,88.12c.07.18-.03.37-.12.5-.1.15-.21.27-.34.38-.26.23-.53.4-.83.54-.3.14-.6.25-.92.31-.16.03-.32.04-.48.02-.14-.02-.34-.06-.41-.24"/>
  <line class="cls-10" x1="185.53" y1="107.12" x2="178.64" y2="89.64"/>
  <line class="cls-10" x1="215.51" y1="183.1" x2="187.44" y2="111.94"/>
  <line class="cls-10" x1="245.48" y1="259.08" x2="217.41" y2="187.92"/>
  <line class="cls-10" x1="325.01" y1="460.67" x2="247.39" y2="263.91"/>
  <line class="cls-10" x1="249.28" y1="259.34" x2="328.11" y2="459.16"/>
  <line class="cls-10" x1="219.18" y1="183.03" x2="247.25" y2="254.19"/>
  <line class="cls-10" x1="189.33" y1="107.37" x2="217.27" y2="178.2"/>
  <line class="cls-10" x1="181.73" y1="88.12" x2="187.3" y2="102.22"/>
  <line class="cls-10" x1="249.28" y1="100.15" x2="277.22" y2="170.98"/>
  <line class="cls-10" x1="241.68" y1="80.89" x2="247.25" y2="95"/>
  <line class="cls-10" x1="245.48" y1="99.89" x2="238.59" y2="82.42"/>
  <line class="cls-10" x1="275.46" y1="175.87" x2="247.39" y2="104.72"/>
  <line class="cls-10" x1="213.93" y1="262.07" x2="279.67" y2="428.7"/>
  <line class="cls-10" x1="172.85" y1="157.93" x2="199.28" y2="224.92"/>
  <line class="cls-10" x1="133.29" y1="57.66" x2="139.85" y2="74.28"/>
  <line class="cls-10" x1="138.11" y1="79.24" x2="130.2" y2="59.18"/>
  <line class="cls-10" x1="195.75" y1="225.34" x2="170.05" y2="160.2"/>
  <line class="cls-10" x1="198.12" y1="231.36" x2="197.18" y2="228.96"/>
  <line class="cls-10" x1="276.57" y1="430.21" x2="210.41" y2="262.5"/>
  <line class="cls-10" x1="137.26" y1="236.26" x2="58.2" y2="455.72"/>
  <line class="cls-10" x1="184.48" y1="95.08" x2="195.3" y2="65.02"/>
  <line class="cls-10" x1="55.06" y1="454.33" x2="135.36" y2="231.43"/>
  <path class="cls-10" d="M158.72,190.55c-.4-.25-.44-.82-.24-1.23.21-.41.67-.66,1.07-.41"/>
  <path class="cls-10" d="M159.56,188.91c.32.2.42.64.32,1.01-.1.37-.38.68-.74.72"/>
  <path class="cls-10" d="M159.14,190.64c-.15.02-.28,0-.42-.09"/>
  <path class="cls-10" d="M188.7,107.34c-.4-.25-.44-.82-.24-1.23.21-.41.67-.66,1.07-.41"/>
  <path class="cls-10" d="M189.53,105.71c.32.2.42.64.32,1.01-.1.37-.38.68-.74.72"/>
  <path class="cls-10" d="M189.11,107.44c-.15.02-.28,0-.42-.09"/>
  <path class="cls-10" d="M278.62,176.1c-.4-.25-.44-.82-.24-1.23s.67-.66,1.07-.41"/>
  <path class="cls-10" d="M279.45,174.46c.32.2.42.64.32,1.01-.1.37-.38.68-.74.72"/>
  <path class="cls-10" d="M279.04,176.19c-.15.02-.28,0-.42-.09"/>
  <path class="cls-10" d="M309.43,91.26c.32.2.42.64.32,1.01-.1.37-.38.68-.74.72"/>
  <line class="cls-10" x1="305.95" y1="91.23" x2="304.33" y2="90.22"/>
  <line class="cls-10" x1="305.17" y1="88.58" x2="306.58" y2="89.47"/>
  <path class="cls-10" d="M309.01,92.99c-.15.02-.28,0-.42-.09"/>
  <path class="cls-10" d="M248.65,259.3c-.4-.25-.44-.82-.24-1.23.21-.41.67-.66,1.07-.41"/>
  <path class="cls-10" d="M249.48,257.67c.32.2.42.64.32,1.01-.1.37-.38.68-.74.72"/>
  <path class="cls-10" d="M195.18,223.89c-.27.12-.46.39-.53.7-.07.31,0,.65.21.87"/>
  <path class="cls-10" d="M249.06,259.4c-.15.02-.28,0-.42-.09"/>
  <path class="cls-10" d="M188.7,266.53c-.4-.25-.44-.82-.24-1.23.21-.41.67-.66,1.07-.41"/>
  <path class="cls-10" d="M189.53,264.89c.32.2.42.64.32,1.01-.1.37-.38.68-.74.72"/>
  <path class="cls-10" d="M189.11,266.62c-.15.02-.28,0-.42-.09"/>
  <line class="cls-10" x1="244.43" y1="87.85" x2="261.35" y2="40.89"/>
  <line class="cls-10" x1="214.45" y1="171.06" x2="225.28" y2="141.01"/>
  <line class="cls-10" x1="194.86" y1="225.46" x2="195.3" y2="224.21"/>
  <line class="cls-10" x1="197.24" y1="228.95" x2="193.32" y2="239.82"/>
  <line class="cls-10" x1="213.52" y1="183.76" x2="198.97" y2="224.14"/>
  <line class="cls-10" x1="257.77" y1="60.93" x2="246.33" y2="92.68"/>
  <line class="cls-10" x1="249.01" y1="259.4" x2="244.48" y2="271.99"/>
  <line class="cls-10" x1="278.99" y1="176.2" x2="249.6" y2="257.77"/>
  <line class="cls-10" x1="241.34" y1="270.59" x2="312.5" y2="73.06"/>
  <line class="cls-10" x1="151.41" y1="201.84" x2="192.6" y2="87.5"/>
  <line class="cls-10" x1="159.09" y1="190.64" x2="154.55" y2="203.23"/>
  <line class="cls-10" x1="189.06" y1="107.44" x2="159.68" y2="189.01"/>
  <line class="cls-10" x1="106.21" y1="486.49" x2="252.55" y2="80.28"/>
  <line class="cls-10" x1="189.06" y1="266.62" x2="109.35" y2="487.89"/>
  <line class="cls-10" x1="249.01" y1="100.22" x2="189.65" y2="265"/>
  <path class="cls-10" d="M183.23,265.57c-.34-.21-.51-.62-.51-1.04"/>
  <line class="cls-10" x1="245.18" y1="258.31" x2="189.65" y2="265"/>
  <line class="cls-10" x1="191.07" y1="261.04" x2="243.75" y2="254.69"/>
  <line class="cls-10" x1="243.81" y1="254.83" x2="191.02" y2="261.19"/>
  <path class="cls-10" d="M183.63,261.94c-.64.08-1.11.74-1.11,1.43"/>
  <path class="cls-10" d="M182.72,263.49c0-.69.47-1.36,1.11-1.43"/>
  <path class="cls-10" d="M136.34,236.08c-.34-.21-.51-.62-.51-1.04"/>
  <line class="cls-10" x1="139.51" y1="235.9" x2="136.94" y2="236.21"/>
  <line class="cls-10" x1="199.07" y1="228.73" x2="175.52" y2="231.56"/>
  <line class="cls-10" x1="174.1" y1="227.95" x2="200.37" y2="224.78"/>
  <line class="cls-10" x1="136.74" y1="232.45" x2="138.51" y2="232.24"/>
  <line class="cls-10" x1="138.56" y1="232.38" x2="136.94" y2="232.57"/>
  <line class="cls-10" x1="200.32" y1="224.94" x2="174.15" y2="228.09"/>
  <path class="cls-10" d="M136.74,232.45c-.64.08-1.11.74-1.11,1.43"/>
  <path class="cls-10" d="M135.83,234.01c0-.69.47-1.36,1.11-1.43"/>
  <path class="cls-10" d="M193.24,50.43c.07.18-.03.37-.12.5-.1.15-.21.27-.34.38-.26.23-.53.4-.83.54-.3.15-.6.25-.92.31-.16.03-.32.04-.48.02-.14-.02-.34-.06-.41-.24"/>
  <line class="cls-10" x1="228.04" y1="147.99" x2="190.15" y2="51.96"/>
  <line class="cls-10" x1="193.24" y1="50.43" x2="199.8" y2="67.06"/>
  <line class="cls-10" x1="124.53" y1="102.3" x2="135.36" y2="72.25"/>
  <line class="cls-10" x1="100.26" y1="169.67" x2="105.38" y2="155.45"/>
  <line class="cls-10" x1="189.33" y1="266.56" x2="192.95" y2="275.73"/>
  <line class="cls-10" x1="201.79" y1="231.29" x2="212.51" y2="258.46"/>
  <line class="cls-10" x1="208.98" y1="258.88" x2="200.03" y2="236.18"/>
  <line class="cls-10" x1="168.15" y1="155.38" x2="168" y2="155.01"/>
  <line class="cls-10" x1="197.07" y1="60.13" x2="201.4" y2="48.12"/>
  <line class="cls-10" x1="279.25" y1="176.13" x2="282.87" y2="185.3"/>
  <line class="cls-10" x1="197.21" y1="69.85" x2="186.38" y2="99.91"/>
  <line class="cls-10" x1="124.66" y1="112" x2="124.49" y2="111.89"/>
  <line class="cls-10" x1="274.53" y1="173.53" x2="274.36" y2="173.42"/>
  <line class="cls-10" x1="242.33" y1="93.68" x2="242.66" y2="92.75"/>
  <line class="cls-10" x1="197.07" y1="219.32" x2="210.62" y2="181.69"/>
  <line class="cls-10" x1="183.86" y1="262.05" x2="183.83" y2="262.06"/>
  <line class="cls-10" x1="122.43" y1="108.13" x2="122.77" y2="107.19"/>
  <line class="cls-10" x1="137.12" y1="67.35" x2="141.45" y2="55.34"/>
  <path class="cls-10" d="M105.25,155.13c-.27.12-.46.39-.53.7s0,.65.21.87"/>
  <line class="cls-10" x1="154.63" y1="187.98" x2="154.46" y2="187.87"/>
  <line class="cls-10" x1="108.79" y1="159.15" x2="107.9" y2="158.59"/>
  <path class="cls-10" d="M135.23,71.93c-.27.12-.46.39-.53.7-.07.31,0,.65.21.87"/>
  <line class="cls-10" x1="184.61" y1="104.77" x2="184.43" y2="104.66"/>
  <line class="cls-10" x1="138.76" y1="75.94" x2="137.87" y2="75.38"/>
  <line class="cls-10" x1="137.26" y1="77.08" x2="126.43" y2="107.13"/>
  <line class="cls-10" x1="107.29" y1="160.28" x2="103.4" y2="171.07"/>
  <line class="cls-10" x1="308.96" y1="92.99" x2="279.57" y2="174.56"/>
  <path class="cls-10" d="M135.23,231.11c-.27.12-.46.39-.53.7-.07.31,0,.65.21.87"/>
  <line class="cls-10" x1="185.23" y1="265.53" x2="183.83" y2="265.7"/>
  <line class="cls-10" x1="189.85" y1="277.24" x2="187.44" y2="271.13"/>
  <path class="cls-10" d="M241.68,80.89c.07.18-.03.37-.12.5-.1.15-.21.27-.34.38-.26.23-.53.4-.83.54-.3.14-.6.25-.92.31-.16.03-.32.04-.48.02-.14-.02-.34-.06-.41-.24"/>
  <line class="cls-10" x1="279.77" y1="186.81" x2="277.36" y2="180.7"/>
  <path class="cls-10" d="M133.29,57.66c.07.18-.03.37-.12.5-.1.15-.21.27-.34.38-.26.23-.53.4-.83.54-.3.15-.6.25-.92.31-.16.03-.32.04-.48.02-.14-.02-.34-.06-.41-.24"/>
  <line class="cls-10" x1="141.24" y1="237" x2="144.51" y2="245.27"/>
  <line class="cls-10" x1="73.34" y1="64.88" x2="79.9" y2="81.5"/>
  <path class="cls-10" d="M70.25,66.39c-.07-.17.02-.35.1-.47.09-.14.2-.26.32-.37.24-.22.5-.39.78-.53s.56-.26.87-.33c.24-.05.66-.12.9.03"/>
  <path class="cls-10" d="M144.51,245.27c.07.18-.03.37-.12.5-.1.15-.21.27-.34.38-.26.23-.53.4-.83.54-.3.14-.6.25-.92.31-.16.03-.32.04-.48.02-.14-.02-.34-.06-.41-.24"/>
  <path class="cls-10" d="M73.21,64.73c.06.04.1.08.13.15"/>
  <path class="cls-10" d="M118.68,96.85c-.07-.17.02-.35.1-.47.09-.14.2-.26.32-.37.24-.22.5-.39.78-.53.28-.14.56-.26.87-.33.24-.06.66-.12.9.03"/>
  <path class="cls-10" d="M192.95,275.73c.07.18-.03.37-.12.5-.1.15-.21.27-.34.38-.26.23-.53.4-.83.54-.3.15-.6.25-.92.31-.16.03-.32.04-.48.02-.14-.02-.34-.06-.41-.24"/>
  <path class="cls-10" d="M121.65,95.19c.06.04.1.08.13.15"/>
  <path class="cls-10" d="M178.63,89.63c-.07-.17.02-.35.1-.47.09-.14.2-.26.32-.37.24-.22.5-.39.78-.53.28-.14.56-.26.87-.33.24-.06.66-.12.9.03"/>
  <path class="cls-10" d="M181.6,87.96c.06.04.1.08.13.15"/>
  <path class="cls-10" d="M282.87,185.3c.07.18-.03.37-.12.5-.1.15-.21.27-.34.38-.26.23-.53.4-.83.54-.3.14-.6.25-.92.31-.16.03-.32.04-.48.02-.14-.02-.34-.06-.41-.24"/>
  <path class="cls-10" d="M238.58,82.4c-.07-.17.02-.35.1-.47.09-.14.2-.26.32-.37.24-.22.5-.39.78-.53.28-.14.56-.26.87-.33.24-.05.66-.12.9.03"/>
  <path class="cls-10" d="M241.55,80.74c.06.04.1.08.13.15"/>
  <line class="cls-10" x1="182.38" y1="100.9" x2="182.72" y2="99.97"/>
  <path class="cls-10" d="M130.19,59.17c-.07-.17.02-.35.1-.47.09-.14.2-.26.32-.37.24-.22.5-.39.78-.53s.56-.26.87-.33c.24-.05.66-.12.9.03"/>
  <path class="cls-10" d="M133.16,57.5c.06.04.1.08.13.15"/>
  <path class="cls-10" d="M204.54,49.51s-.02.01-.03.01c-.03,0-.05,0-.08-.01-.1-.02-.2-.06-.31-.09-.14-.05-.27-.1-.4-.15-.27-.11-.53-.22-.8-.34-.26-.12-.53-.24-.79-.37-.13-.06-.26-.13-.39-.2-.1-.05-.19-.1-.28-.17-.02-.02-.04-.03-.06-.05,0,0-.02-.02-.01-.03"/>
  <path class="cls-10" d="M201.4,48.12s.09,0,.1,0c.1.02.19.05.29.08.13.04.25.09.38.14.25.1.5.2.75.31.38.17,1.11.5,1.47.73"/>
  <line class="cls-10" x1="204.54" y1="49.51" x2="198.97" y2="64.96"/>
  <path class="cls-10" d="M204.38,49.38s.06.04.09.06c.01,0,.03.02.04.03,0,0,.03.03.03.04"/>
  <line class="cls-10" x1="245.79" y1="258.23" x2="245.79" y2="258.23"/>
  <line class="cls-10" x1="183.63" y1="261.94" x2="183.8" y2="261.92"/>
  <path class="cls-10" d="M225.15,140.68c-.27.12-.46.39-.53.7s0,.65.21.87"/>
  <line class="cls-10" x1="228.68" y1="144.7" x2="227.79" y2="144.14"/>
  <line class="cls-10" x1="227.18" y1="145.83" x2="216.36" y2="175.89"/>
  <line class="cls-10" x1="138.5" y1="73.62" x2="139.59" y2="74.31"/>
  <line class="cls-10" x1="124.68" y1="112.01" x2="124.67" y2="112.02"/>
  <line class="cls-10" x1="190.18" y1="238.43" x2="193.43" y2="229.41"/>
  <path class="cls-10" d="M255.39,57.41c-.34.01-.63.28-.76.62-.13.34-.09.76.17,1.02"/>
  <line class="cls-10" x1="258.66" y1="61.5" x2="257.77" y2="60.94"/>
  <line class="cls-10" x1="258.4" y1="59.17" x2="259.49" y2="59.86"/>
  <line class="cls-10" x1="244.57" y1="97.56" x2="244.57" y2="97.57"/>
  <path class="cls-10" d="M127.39,113.71c-.4-.25-.44-.82-.24-1.23.21-.41.67-.66,1.07-.41"/>
  <path class="cls-10" d="M128.22,112.08c.32.2.42.64.32,1.01-.1.37-.38.68-.74.72"/>
  <path class="cls-10" d="M127.81,113.81c-.15.02-.28,0-.42-.09"/>
  <path class="cls-10" d="M308.6,92.9c-.4-.25-.44-.82-.24-1.23.21-.41.67-.66,1.07-.41"/>
  <path class="cls-10" d="M261.35,40.89s.09,0,.1,0c.1.02.19.05.29.08.13.04.25.09.38.14.25.1.5.2.75.31.38.17,1.11.5,1.47.73"/>
  <path class="cls-10" d="M193.32,239.82s-.02,0-.03,0c-.03,0-.05,0-.08,0-.1-.02-.2-.06-.31-.09-.14-.05-.27-.1-.4-.15-.27-.1-.53-.22-.8-.34-.26-.12-.53-.24-.79-.37-.13-.07-.26-.13-.39-.2-.1-.05-.19-.1-.28-.17-.02-.02-.04-.03-.06-.05,0,0-.02-.02-.01-.03"/>
  <path class="cls-10" d="M264.49,42.29s-.02.01-.03.01c-.03,0-.05,0-.08-.01-.1-.02-.2-.06-.31-.09-.14-.05-.27-.1-.4-.15-.27-.11-.53-.22-.8-.34-.26-.12-.53-.24-.79-.37-.13-.06-.26-.13-.39-.2-.1-.05-.19-.1-.28-.17-.02-.02-.04-.03-.06-.05,0,0-.02-.02-.01-.03"/>
  <line class="cls-10" x1="264.49" y1="42.29" x2="258.4" y2="59.17"/>
  <path class="cls-10" d="M264.33,42.16s.06.04.08.06c.01,0,.03.02.04.03,0,0,.03.03.03.04"/>
  <path class="cls-10" d="M244.48,271.99s-.02.01-.03.01c-.03,0-.05,0-.08-.01-.1-.02-.21-.06-.31-.09-.14-.05-.27-.1-.4-.15-.27-.11-.53-.22-.8-.34-.26-.12-.53-.24-.79-.37-.13-.06-.26-.13-.39-.2-.09-.05-.19-.1-.28-.17-.02-.02-.04-.03-.06-.05,0,0-.02-.02-.01-.03"/>
  <path class="cls-10" d="M315.64,74.45s-.02.01-.03.01c-.03,0-.05,0-.08-.01-.1-.02-.21-.06-.31-.09-.14-.05-.27-.1-.4-.15-.27-.11-.53-.22-.8-.34-.26-.12-.53-.24-.79-.37-.13-.07-.26-.13-.39-.2-.09-.05-.19-.1-.28-.17-.02-.02-.04-.03-.06-.05,0,0-.02-.02-.01-.03"/>
  <path class="cls-10" d="M312.5,73.06s.09,0,.1,0c.1.02.19.05.29.08.13.04.25.09.38.14.25.1.5.2.75.31.38.17,1.11.5,1.47.73"/>
  <line class="cls-10" x1="315.64" y1="74.45" x2="309.55" y2="91.36"/>
  <path class="cls-10" d="M315.48,74.32s.06.04.08.06c.01.01.03.02.04.03,0,0,.03.03.03.04"/>
  <line class="cls-10" x1="195.74" y1="88.9" x2="189.65" y2="105.8"/>
  <line class="cls-10" x1="255.69" y1="81.68" x2="249.6" y2="98.58"/>
  <path class="cls-10" d="M192.6,87.5s.09,0,.1,0c.1.02.19.05.29.08.13.04.25.09.38.14.25.1.5.2.75.31.38.17,1.11.5,1.47.73"/>
  <path class="cls-10" d="M154.55,203.23s-.02.01-.03.01c-.03,0-.05,0-.08-.01-.1-.02-.2-.06-.31-.09-.14-.05-.27-.1-.4-.15-.27-.11-.53-.22-.8-.34-.26-.12-.53-.24-.79-.37-.13-.06-.26-.13-.39-.2-.09-.05-.19-.1-.28-.17-.02-.02-.04-.03-.06-.05,0,0-.02-.02-.01-.03"/>
  <path class="cls-10" d="M195.74,88.9s-.02,0-.03,0c-.03,0-.05,0-.08,0-.1-.02-.2-.06-.31-.09-.14-.05-.27-.1-.4-.15-.27-.1-.53-.22-.8-.34-.26-.12-.53-.24-.79-.37-.13-.07-.26-.13-.39-.2-.09-.05-.19-.1-.28-.17-.02-.02-.04-.03-.06-.05,0,0-.02-.02-.01-.03"/>
  <path class="cls-10" d="M195.59,88.77s.06.04.08.06c.01.01.03.02.04.03,0,0,.03.03.03.04"/>
  <path class="cls-10" d="M252.55,80.28s.09,0,.1,0c.1.02.19.05.29.08.13.04.25.09.38.14.25.1.5.2.75.31.38.17,1.11.5,1.47.73"/>
  <path class="cls-10" d="M255.69,81.68s-.02,0-.03,0c-.03,0-.05,0-.08,0-.1-.02-.21-.06-.31-.09-.14-.05-.27-.1-.4-.15-.27-.1-.53-.22-.8-.34-.26-.12-.53-.24-.79-.37-.13-.07-.26-.13-.39-.2-.09-.05-.19-.1-.28-.17-.02-.02-.04-.03-.06-.05,0,0-.02-.02-.01-.03"/>
  <path class="cls-10" d="M255.54,81.55s.06.04.08.06c.01.01.03.02.04.03,0,0,.03.03.03.04"/>
  <path class="cls-10" d="M183.04,265.45s.07.04.1.05"/>
  <line class="cls-10" x1="183.23" y1="265.57" x2="183.04" y2="265.45"/>
  <path class="cls-10" d="M182.53,264.41c0,.42.17.82.51,1.04"/>
  <path class="cls-10" d="M183.83,265.7c-.21.03-.41-.02-.59-.13"/>
  <line class="cls-10" x1="182.53" y1="264.41" x2="182.53" y2="263.37"/>
  <line class="cls-10" x1="182.72" y1="263.49" x2="182.72" y2="264.53"/>
  <path class="cls-10" d="M136.15,235.96s.07.04.1.05"/>
  <line class="cls-10" x1="136.34" y1="236.08" x2="136.15" y2="235.96"/>
  <path class="cls-10" d="M135.64,234.92c0,.42.17.82.51,1.04"/>
  <path class="cls-10" d="M136.94,236.21c-.21.03-.41-.02-.59-.13"/>
  <line class="cls-10" x1="135.64" y1="234.92" x2="135.64" y2="233.88"/>
  <line class="cls-10" x1="135.83" y1="234.01" x2="135.83" y2="235.05"/>
  <path class="cls-10" d="M190.14,51.94c-.07-.17.02-.35.1-.47.09-.14.2-.26.32-.37.24-.22.5-.39.78-.53s.56-.26.87-.33c.24-.06.66-.12.9.03"/>
  <path class="cls-10" d="M193.11,50.28c.06.04.1.08.13.15"/>
  <path class="cls-10" d="M103.4,171.07s-.02,0-.03.01c-.03,0-.05,0-.08-.01-.1-.02-.21-.06-.31-.09-.14-.05-.27-.1-.4-.15-.27-.1-.53-.22-.8-.34-.26-.12-.53-.24-.79-.37-.13-.06-.26-.13-.39-.2-.1-.05-.19-.1-.28-.17-.02-.02-.04-.03-.06-.05,0,0-.02-.02-.01-.03"/>
  <path class="cls-10" d="M144.59,56.74s-.02.01-.03.01c-.03,0-.05,0-.08-.01-.1-.02-.21-.06-.31-.09-.14-.05-.27-.1-.4-.15-.27-.11-.53-.22-.8-.34-.26-.12-.53-.24-.79-.37-.13-.06-.26-.13-.39-.2-.1-.05-.19-.1-.28-.17-.02-.02-.04-.03-.06-.05,0,0-.02-.02-.01-.03"/>
  <path class="cls-10" d="M141.45,55.34s.09,0,.1,0c.1.02.19.05.29.08.13.04.25.09.38.14.25.1.5.2.75.31.38.17,1.11.5,1.47.73"/>
  <line class="cls-10" x1="144.59" y1="56.74" x2="139.02" y2="72.18"/>
</svg>