<svg xmlns="http://www.w3.org/2000/svg" id="Calque_2" data-name="Calque 2" viewBox="0 0 383.74 531.14"><defs><style>.cls-1{fill:#7b077d}.cls-1,.cls-2,.cls-3,.cls-4,.cls-5,.cls-6,.cls-7,.cls-8{stroke-width:0}.cls-2{fill:#ec9126}.cls-3{fill:#776c0a}.cls-4{fill:#d8d7e7}.cls-5{fill:#a6a58f}.cls-9{stroke-width:.25px}.cls-10,.cls-9{fill:none;stroke:#000;stroke-miterlimit:10}.cls-6{fill:#eaa98c}.cls-7{fill:#662612}.cls-10{stroke-width:.5px}.cls-8{fill:#d86a3f}</style></defs><path d="m154.78 188.22.7 1.75-4.21 12.09 3.39 1.49 2.59-8.69 26.35 66.84-1.22 1.35-43.61-27.71.27-1.63-28.81-73.38M259.95 59.84l44.68 28.23-.8 1.2v1.74l-27.23 77.28-27.49-68.34.62-.11v-1.07l-.06-.68 6.15-16.57-3.22-1.53 6.26-17.93-.17-.84.12-.9.39-.28z" class="cls-6"/><path d="m199.69 66.93 43.4 27.26 2.13 5.69-16.24 45.02-.15-1.17.35-.51-28.93-73.14-1.52-1.01-.05-1.17.3-.61zM247.54 105.2l26.61 68.09-41.96-26.13z" class="cls-8"/><path d="m240.96 254.92-38.91-24.51 15.45-42.24 26.13 66.08zM232.19 147.16l-12.88 35.95 26.71 68.28 28.13-78.1z" class="cls-7"/><path d="m154.78 188.22.7 1.75-4.21 12.09 3.39 1.49 2.59-8.69 26.35 66.84-1.22 1.35-43.61-27.71.27-1.63-28.81-73.38M259.95 59.84l44.68 28.23-.8 1.2v1.74l-27.23 77.28-27.49-68.34.62-.11v-1.07l-.06-.68 6.15-16.57-3.22-1.53 6.26-17.93-.17-.84.12-.9.39-.28z" class="cls-4"/><path d="m199.69 66.93 43.4 27.26 2.13 5.69-16.24 45.02-.15-1.17.35-.51-28.93-73.14-1.52-1.01-.05-1.17.3-.61zM247.54 105.2l26.61 68.09-41.96-26.13z" class="cls-5"/><path d="m139.91 74.3 42.78 26.65 1.45 3.67-27.72 78.33-29.36-73.79 11.88-32.83v-1.55z" class="cls-3"/><path d="m154.78 188.22.7 1.75-4.21 12.09 3.39 1.49 2.59-8.69 26.35 66.84-1.22 1.35-43.61-27.71.27-1.63-28.81-73.38" class="cls-2"/><path d="m110.23 160.33-1.35-1 .09-1.15.25-.33-28.99-73.42-1.54-1.17.08-.93.28-.61.93-.28 43.03 27.16 31.77 79.62z" class="cls-1"/><path d="m259.95 59.84 44.68 28.23-.8 1.2v1.74l-27.23 77.28-27.49-68.34.62-.11v-1.07l-.06-.68 6.15-16.57-3.22-1.53 6.26-17.93-.17-.84.12-.9.39-.28z" class="cls-3"/><path d="m199.69 66.93 43.4 27.26 2.13 5.69-16.24 45.02-.15-1.17.35-.51-28.93-73.14-1.52-1.01-.05-1.17.3-.61zM247.54 105.2l26.61 68.09-41.96-26.13z" class="cls-2"/><path d="m240.96 254.92-38.91-24.51 15.45-42.24 26.13 66.08zM232.19 147.16l-12.88 35.95 26.71 68.28 28.13-78.1z" class="cls-1"/><path d="M167.22 154.67c-.12-.08-.24-.16-.35-.26M168.26 155.06c-.38-.06-.71-.19-1.05-.4M167.3 154.5a2.4 2.4 0 0 1-.37-.28M169.54 147c.48.02.95.17 1.37.43M169.47 147.18c.47.01.93.15 1.35.41M154.34 188.1c-.25-.15-.4-.43-.45-.73s.01-.62.15-.88M154.34 188.1l-45.14-28.39M182.58 262.99l-43.41-27.3M109.14 157.79c-.25.25-.4.61-.4.99 0 .37.16.74.46.93M139.11 233.77l-28.99-73.48M244.27 97.67c-.25-.15-.4-.43-.45-.73s.01-.62.15-.88M244.27 97.67l-45.15-28.39M200.19 67.18a.85.85 0 0 0-.54-.12M200.19 67.18l43.07 27.09M229.03 143.35l-28.98-73.48M199.65 67.06c-.46.06-.82.45-.95.93s0 1.04.41 1.3M244.66 97.8c-.14 0-.27-.05-.39-.12M248.65 100.12c-.4-.25-.44-.82-.24-1.23s.67-.66 1.07-.41M249.48 98.48c.32.2.42.64.32 1.01s-.38.68-.74.72" class="cls-9"/><path d="M249.06 100.21c-.15.02-.28 0-.42-.09M170.62 147.53c-.36-.23-.72-.35-1.13-.39M168.27 155.05l-1.12-.7M212.74 183.02l-41.5-26.1M217.41 176.67s-.08-.05-.12-.08M217.74 176.89l-.21-.15M213.84 183.99c.38.24.76.37 1.19.42M217.53 176.75c-.31-.2-.63-.32-.99-.39M217.7 177.01s-.1-.07-.15-.1M217.55 176.91c-.3-.19-.6-.31-.93-.37M213.37 177.67c-.74.89-1.16 2.1-1.11 3.31.05 1.22.59 2.38 1.58 3" class="cls-9"/><path d="M213.25 177.38c-.8.87-1.27 2.11-1.24 3.36.03 1.26.57 2.46 1.59 3.1" class="cls-9"/><path d="M213.45 177.89c-.69.86-1.07 2.02-1 3.18s.59 2.26 1.53 2.85M170.92 147.68c-.06-.05-.13-.1-.2-.15M167.78 154.74c-.17-.06-.32-.14-.48-.24M232.65 145.62l41.06 25.82M244.56 97.55l-.18-.11M198.71 68.72l-.89-.56" class="cls-9"/><path d="M213.42 177.8c-.7.86-1.1 2.03-1.04 3.2s.58 2.28 1.53 2.88M166.94 154.2c.07.05.14.1.21.14M170.78 147.35s-.08-.05-.12-.08M170.9 147.42l.09.06M167.2 154.44c.12.07.25.13.38.18M170.82 147.59s.07.05.11.07M183.78 261.87l-44.67-28.1M166.86 154.44s.08.05.12.08M154.73 188.22c-.14 0-.27-.05-.39-.12M166.97 154.52s.08.05.12.07M170.66 147.27c-.34-.21-.69-.34-1.08-.4M167.22 154.67l-.25-.15M170.66 147.27l.24.15M167.3 154.5l-.19-.12M154.46 187.87c-.35-.22-.43-.7-.3-1.08M139.11 233.77c-.25.25-.4.61-.4.99 0 .37.16.74.46.93M244.38 97.44c-.35-.22-.43-.7-.3-1.09M229.03 143.35l.65.4M173.88 149.57l37.77 23.76M217.29 176.59c-.25-.16-.51-.27-.79-.34M217.47 176.86c-.28-.17-.56-.29-.87-.36M195.18 64.7c-.27.12-.46.39-.53.7s0 .65.21.87M213.6 183.84s.08.05.12.07M213.98 183.92c.35.22.7.34 1.09.39M170.62 147.53l.29.18M213.84 183.99l-.24-.15M217.29 176.59l.24.16M124.37 112.12c-.25-.15-.4-.43-.45-.73s.01-.62.15-.88M124.37 112.12 79.22 83.73M80.29 81.63a.85.85 0 0 0-.54-.12M80.29 81.63l43.08 27.08M109.14 157.79 80.15 84.31" class="cls-9"/><path d="M79.76 81.51c-.46.05-.82.45-.95.93s0 1.04.41 1.3M124.76 112.24c-.14 0-.27-.05-.39-.12M274.36 173.42c-.35-.22-.43-.7-.3-1.09M199.85 226.25c-.5-.05-.94.34-1.11.83-.17.5-.07 1.12.38 1.4M229.03 143.35c-.24.24-.39.59-.4.95 0 .36.12.72.4.93M217.65 176.82l11.38-31.6M199.85 226.25l15.07-41.86M243.31 253.58l-40.4-25.41M274.63 173.78h-.05M199.94 226.31l-.09-.06M109.14 157.79l44.67 28.1M124.49 111.89c-.35-.22-.43-.7-.3-1.08" class="cls-9"/><path d="M274.18 173.61c-.47-.35-.5-1.06-.23-1.56M232.1 147.15l42.08 26.46M241.29 254.99l-39.16-24.63M199.16 228.49l-.04-.02M229.03 145.22l.1.06M274.18 173.61l-28.03 77.8M274.58 173.77l-28.19 78.26M140.24 74.4a.85.85 0 0 0-.54-.12M140.24 74.4l43.07 27.09M127.29 109.29l11.82-32.82M184.26 104.85l-28.03 77.81M184.66 105.02l-28.19 78.25" class="cls-9"/><path d="M139.71 74.28c-.44.05-.8.43-.94.89-.13.46-.04 1 .34 1.29M184.26 104.85c-.47-.35-.5-1.06-.23-1.56M259.6 59.84c-.44.05-.8.43-.94.89s-.04 1 .34 1.29M247.18 94.84l11.83-32.82M304.33 90.21c-.4-.25-.44-.82-.24-1.23.21-.41.67-.66 1.07-.41M184.71 105.02h-.05" class="cls-9"/><path d="M184.43 104.66c-.35-.22-.43-.7-.3-1.09M139.11 76.47l45.15 28.38M304.15 90.41l-28.02 77.8M304.15 90.41c-.38-.29-.48-.83-.34-1.29.13-.46.49-.84.94-.89M304.86 90.55c-.1.03-.2.03-.3.02M259.01 62.02l45.14 28.39M305.28 88.35c.2.12.34.33.41.57M260.14 59.96a.85.85 0 0 0-.54-.12M260.14 59.96l45.14 28.39M304.75 88.23q.285-.03.54.12M304.56 90.57l-28.19 78.25" class="cls-9"/><path d="M328.68 459.26c.04.1.04.18.01.28-.03.14-.09.25-.16.36-.13.19-.27.34-.44.49-.33.29-.68.51-1.07.7s-.77.33-1.18.4c-.21.04-.41.05-.62.03a.76.76 0 0 1-.35-.11c-.08-.05-.14-.1-.17-.2" class="cls-10"/><path d="M328.09 459.03c.07.18-.03.37-.12.5-.1.15-.22.27-.35.38-.26.23-.54.4-.84.55s-.61.26-.93.32a1.6 1.6 0 0 1-.49.02c-.14-.02-.34-.06-.41-.24M280.24 428.8c.04.09.04.18.01.28-.03.14-.09.25-.16.36-.13.19-.28.34-.44.49-.33.29-.68.51-1.07.7-.38.19-.77.33-1.18.4-.21.04-.41.05-.62.03a.76.76 0 0 1-.35-.11c-.08-.05-.14-.1-.17-.2" class="cls-10"/><path d="M279.65 428.57c.07.18-.03.37-.12.5-.1.15-.22.27-.35.38-.26.23-.54.4-.84.55s-.61.26-.93.31a1.6 1.6 0 0 1-.49.02c-.14-.02-.34-.06-.41-.24M109.38 487.88s-.02.01-.03.01c-.03 0-.05 0-.08-.01-.11-.02-.21-.06-.31-.09-.14-.05-.27-.1-.41-.15-.27-.11-.54-.22-.81-.34s-.53-.24-.8-.37c-.13-.07-.26-.13-.39-.2-.1-.05-.19-.11-.28-.17-.02-.02-.04-.03-.06-.05 0 0-.02-.02-.01-.03M58.48 456.38s-.03.01-.04.01c-.03 0-.07 0-.1-.01q-.195-.045-.39-.12c-.17-.06-.35-.13-.52-.19-.34-.14-.69-.28-1.03-.43s-.68-.31-1.01-.47c-.17-.08-.33-.17-.5-.26-.12-.07-.24-.13-.36-.22a.3.3 0 0 1-.08-.07s-.02-.02-.02-.04M58.23 455.71s-.02.01-.03.01c-.03 0-.05 0-.08-.01-.11-.02-.21-.06-.31-.09-.14-.05-.27-.1-.41-.15-.27-.11-.54-.22-.81-.34s-.53-.24-.8-.37c-.13-.07-.26-.13-.39-.2-.1-.05-.19-.11-.28-.17-.02-.02-.04-.03-.06-.05 0 0-.02-.02-.01-.03M58.21 455.68s.01.01.01.02M328.02 458.93s.05.06.07.1M328 458.88l.36.12M324.94 460.57s-.02-.08-.02-.12M328.36 459c.05.02.1.04.15.07M324.73 460.76c.06-.12.11-.25.17-.37M329.39 461.08c.02.06.04.13.05.2.03.21-.01.42-.09.6v.01c-.02.03-.03.07-.05.1-.1.19-.25.36-.43.53q-.24.225-.54.42c-.42.27-.89.47-1.34.58-.38.09-.72.1-1.01 0-.08-.02-.15-.06-.22-.1a.84.84 0 0 1-.34-.4M324.69 461.2c-.06-.15-.02-.31.04-.44M325.41 463.02l-.71-1.8M328.68 459.26l.71 1.82M328.51 459.06c.08.05.13.1.17.2" class="cls-10"/><path d="M279.58 428.47s.05.06.07.1M279.56 428.42l.36.12M276.5 430.1s-.02-.08-.02-.12M280.95 430.62c.02.06.04.13.05.2.03.21-.01.42-.09.6v.01c-.02.03-.03.07-.05.1-.11.19-.25.37-.43.53q-.24.225-.54.42c-.42.27-.89.47-1.34.58-.38.09-.72.1-1.01 0-.08-.03-.15-.06-.22-.1a.84.84 0 0 1-.34-.4M279.92 428.54c.05.02.1.04.15.07M276.29 430.3c.05-.12.11-.25.17-.37M276.25 430.74c-.06-.15-.02-.31.04-.44M276.97 432.56l-.71-1.8M280.24 428.8l.71 1.82M280.07 428.6c.08.05.13.1.17.2M109.64 488.54s-.03.01-.04.01c-.03 0-.07 0-.1-.01q-.195-.045-.39-.12c-.18-.06-.35-.13-.52-.19-.34-.14-.69-.28-1.03-.43s-.68-.31-1.01-.47c-.17-.08-.33-.17-.5-.26-.12-.07-.24-.14-.36-.22a.3.3 0 0 1-.08-.07s-.02-.02-.02-.04M109.37 487.85s.01.01.01.02M109.38 487.87c.08.22.17.44.26.66M108.92 490.53c-.05.14-.15.25-.27.3-.08.04-.15.05-.22.05-.05 0-.1 0-.14-.01-.12-.02-.22-.06-.39-.11-.14-.05-.31-.11-.49-.19-.39-.15-.82-.35-1.23-.54-.42-.2-.73-.36-.94-.49-.07-.04-.13-.08-.19-.13a.53.53 0 0 1-.17-.24.56.56 0 0 1 0-.42M106.2 486.46h.02M109.63 488.53v.01M109.38 487.87v.01M105.61 486.74c.2-.09.4-.19.59-.28M104.88 488.73l.72-1.98M109.64 488.54l-.72 1.99M58.23 455.7c.08.22.17.44.26.66M55.05 454.29h.02M58.48 456.36v.01M54.45 454.57c.2-.09.4-.19.59-.28M57.77 458.36c-.05.14-.15.25-.27.3-.08.04-.15.05-.22.05-.05 0-.1 0-.14-.01-.12-.02-.22-.06-.39-.11-.14-.05-.31-.11-.49-.19-.39-.15-.82-.35-1.23-.54-.41-.2-.73-.36-.94-.49-.07-.04-.13-.08-.19-.13a.53.53 0 0 1-.17-.24.56.56 0 0 1 0-.42M53.73 456.57l.72-1.99M58.48 456.38l-.71 1.98M144.43 56.6l.09.06c.01 0 .03.02.04.03 0 0 .03.03.03.04M73.34 64.88c.07.18-.03.37-.12.49-.1.15-.21.27-.34.38-.26.23-.53.4-.83.54-.3.15-.6.25-.92.31-.16.03-.32.04-.48.02-.14-.02-.34-.06-.41-.24M135.95 232.94 70.25 66.41M141.41 246.78l-4.18-10.6M121.78 95.34c.07.18-.03.37-.12.5-.1.15-.21.27-.34.38-.26.23-.53.4-.83.54s-.6.25-.92.31c-.16.03-.32.04-.48.02-.14-.02-.34-.06-.41-.24M155.56 190.32l-36.87-93.45M185.53 266.3l-28.07-71.15M159.35 190.58l27.95 70.83M121.78 95.34l35.54 90.09M181.73 88.12c.07.18-.03.37-.12.5-.1.15-.21.27-.34.38-.26.23-.53.4-.83.54s-.6.25-.92.31c-.16.03-.32.04-.48.02-.14-.02-.34-.06-.41-.24M185.53 107.12l-6.89-17.48M215.51 183.1l-28.07-71.16M245.48 259.08l-28.07-71.16M325.01 460.67l-77.62-196.76M249.28 259.34l78.83 199.82M219.18 183.03l28.07 71.16M189.33 107.37l27.94 70.83M181.73 88.12l5.57 14.1M249.28 100.15l27.94 70.83M241.68 80.89 247.25 95M245.48 99.89l-6.89-17.47M275.46 175.87l-28.07-71.15M213.93 262.07l65.74 166.63M172.85 157.93l26.43 66.99M133.29 57.66l6.56 16.62M138.11 79.24l-7.91-20.06M195.75 225.34l-25.7-65.14M198.12 231.36l-.94-2.4M276.57 430.21 210.41 262.5M137.26 236.26 58.2 455.72M184.48 95.08l10.82-30.06M55.06 454.33l80.3-222.9M158.72 190.55c-.4-.25-.44-.82-.24-1.23.21-.41.67-.66 1.07-.41M159.56 188.91c.32.2.42.64.32 1.01s-.38.68-.74.72" class="cls-10"/><path d="M159.14 190.64c-.15.02-.28 0-.42-.09M188.7 107.34c-.4-.25-.44-.82-.24-1.23.21-.41.67-.66 1.07-.41M189.53 105.71c.32.2.42.64.32 1.01s-.38.68-.74.72" class="cls-10"/><path d="M189.11 107.44c-.15.02-.28 0-.42-.09M278.62 176.1c-.4-.25-.44-.82-.24-1.23s.67-.66 1.07-.41M279.45 174.46c.32.2.42.64.32 1.01s-.38.68-.74.72" class="cls-10"/><path d="M279.04 176.19c-.15.02-.28 0-.42-.09M309.43 91.26c.32.2.42.64.32 1.01s-.38.68-.74.72M305.95 91.23l-1.62-1.01M305.17 88.58l1.41.89M309.01 92.99c-.15.02-.28 0-.42-.09M248.65 259.3c-.4-.25-.44-.82-.24-1.23.21-.41.67-.66 1.07-.41M249.48 257.67c.32.2.42.64.32 1.01s-.38.68-.74.72M195.18 223.89c-.27.12-.46.39-.53.7s0 .65.21.87" class="cls-10"/><path d="M249.06 259.4c-.15.02-.28 0-.42-.09M188.7 266.53c-.4-.25-.44-.82-.24-1.23.21-.41.67-.66 1.07-.41M189.53 264.89c.32.2.42.64.32 1.01s-.38.68-.74.72" class="cls-10"/><path d="M189.11 266.62c-.15.02-.28 0-.42-.09M244.43 87.85l16.92-46.96M214.45 171.06l10.83-30.05M194.86 225.46l.44-1.25M197.24 228.95l-3.92 10.87M213.52 183.76l-14.55 40.38M257.77 60.93l-11.44 31.75M249.01 259.4l-4.53 12.59M278.99 176.2l-29.39 81.57M241.34 270.59 312.5 73.06M151.41 201.84 192.6 87.5M159.09 190.64l-4.54 12.59M189.06 107.44l-29.38 81.57M106.21 486.49 252.55 80.28M189.06 266.62l-79.71 221.27M249.01 100.22 189.65 265M183.23 265.57c-.34-.21-.51-.62-.51-1.04M245.18 258.31 189.65 265M191.07 261.04l52.68-6.35M243.81 254.83l-52.79 6.36M183.63 261.94c-.64.08-1.11.74-1.11 1.43" class="cls-10"/><path d="M182.72 263.49c0-.69.47-1.36 1.11-1.43M136.34 236.08c-.34-.21-.51-.62-.51-1.04M139.51 235.9l-2.57.31M199.07 228.73l-23.55 2.83M174.1 227.95l26.27-3.17M136.74 232.45l1.77-.21M138.56 232.38l-1.62.19M200.32 224.94l-26.17 3.15M136.74 232.45c-.64.08-1.11.74-1.11 1.43" class="cls-10"/><path d="M135.83 234.01c0-.69.47-1.36 1.11-1.43M193.24 50.43c.07.18-.03.37-.12.5-.1.15-.21.27-.34.38-.26.23-.53.4-.83.54-.3.15-.6.25-.92.31-.16.03-.32.04-.48.02-.14-.02-.34-.06-.41-.24M228.04 147.99l-37.89-96.03M193.24 50.43l6.56 16.63M124.53 102.3l10.83-30.05M100.26 169.67l5.12-14.22M189.33 266.56l3.62 9.17M201.79 231.29l10.72 27.17M208.98 258.88l-8.95-22.7M168.15 155.38l-.15-.37M197.07 60.13l4.33-12.01M279.25 176.13l3.62 9.17M197.21 69.85l-10.83 30.06M124.66 112l-.17-.11M274.53 173.53l-.17-.11M242.33 93.68l.33-.93M197.07 219.32l13.55-37.63M183.86 262.05l-.03.01M122.43 108.13l.34-.94M137.12 67.35l4.33-12.01M105.25 155.13c-.27.12-.46.39-.53.7s0 .65.21.87M154.63 187.98l-.17-.11M108.79 159.15l-.89-.56M135.23 71.93c-.27.12-.46.39-.53.7s0 .65.21.87M184.61 104.77l-.18-.11M138.76 75.94l-.89-.56M137.26 77.08l-10.83 30.05M107.29 160.28l-3.89 10.79M308.96 92.99l-29.39 81.57M135.23 231.11c-.27.12-.46.39-.53.7s0 .65.21.87M185.23 265.53l-1.4.17M189.85 277.24l-2.41-6.11M241.68 80.89c.07.18-.03.37-.12.5-.1.15-.21.27-.34.38-.26.23-.53.4-.83.54s-.6.25-.92.31c-.16.03-.32.04-.48.02-.14-.02-.34-.06-.41-.24M279.77 186.81l-2.41-6.11M133.29 57.66c.07.18-.03.37-.12.5-.1.15-.21.27-.34.38-.26.23-.53.4-.83.54-.3.15-.6.25-.92.31-.16.03-.32.04-.48.02-.14-.02-.34-.06-.41-.24M141.24 237l3.27 8.27M73.34 64.88 79.9 81.5M70.25 66.39c-.07-.17.02-.35.1-.47.09-.14.2-.26.32-.37.24-.22.5-.39.78-.53s.56-.26.87-.33c.24-.05.66-.12.9.03M144.51 245.27c.07.18-.03.37-.12.5-.1.15-.21.27-.34.38-.26.23-.53.4-.83.54s-.6.25-.92.31c-.16.03-.32.04-.48.02-.14-.02-.34-.06-.41-.24M73.21 64.73c.06.04.1.08.13.15M118.68 96.85c-.07-.17.02-.35.1-.47.09-.14.2-.26.32-.37.24-.22.5-.39.78-.53s.56-.26.87-.33c.24-.06.66-.12.9.03M192.95 275.73c.07.18-.03.37-.12.5-.1.15-.21.27-.34.38-.26.23-.53.4-.83.54-.3.15-.6.25-.92.31-.16.03-.32.04-.48.02-.14-.02-.34-.06-.41-.24M121.65 95.19c.06.04.1.08.13.15M178.63 89.63c-.07-.17.02-.35.1-.47.09-.14.2-.26.32-.37.24-.22.5-.39.78-.53s.56-.26.87-.33c.24-.06.66-.12.9.03M181.6 87.96c.06.04.1.08.13.15M282.87 185.3c.07.18-.03.37-.12.5-.1.15-.21.27-.34.38-.26.23-.53.4-.83.54s-.6.25-.92.31c-.16.03-.32.04-.48.02-.14-.02-.34-.06-.41-.24M238.58 82.4c-.07-.17.02-.35.1-.47.09-.14.2-.26.32-.37.24-.22.5-.39.78-.53s.56-.26.87-.33c.24-.05.66-.12.9.03M241.55 80.74c.06.04.1.08.13.15M182.38 100.9l.34-.93M130.19 59.17c-.07-.17.02-.35.1-.47.09-.14.2-.26.32-.37.24-.22.5-.39.78-.53s.56-.26.87-.33c.24-.05.66-.12.9.03M133.16 57.5c.06.04.1.08.13.15M204.54 49.51s-.02.01-.03.01c-.03 0-.05 0-.08-.01-.1-.02-.2-.06-.31-.09-.14-.05-.27-.1-.4-.15-.27-.11-.53-.22-.8-.34-.26-.12-.53-.24-.79-.37-.13-.06-.26-.13-.39-.2-.1-.05-.19-.1-.28-.17-.02-.02-.04-.03-.06-.05 0 0-.02-.02-.01-.03" class="cls-10"/><path d="M201.4 48.12h.1c.1.02.19.05.29.08.13.04.25.09.38.14.25.1.5.2.75.31.38.17 1.11.5 1.47.73M204.54 49.51l-5.57 15.45M204.38 49.38l.09.06c.01 0 .03.02.04.03 0 0 .03.03.03.04M183.63 261.94l.17-.02M225.15 140.68c-.27.12-.46.39-.53.7s0 .65.21.87M228.68 144.7l-.89-.56M227.18 145.83l-10.82 30.06M138.5 73.62l1.09.69M124.68 112.01l-.01.01M190.18 238.43l3.25-9.02M255.39 57.41c-.34.01-.63.28-.76.62s-.09.76.17 1.02M258.66 61.5l-.89-.56M258.4 59.17l1.09.69M244.57 97.56v.01M127.39 113.71c-.4-.25-.44-.82-.24-1.23.21-.41.67-.66 1.07-.41M128.22 112.08c.32.2.42.64.32 1.01s-.38.68-.74.72" class="cls-10"/><path d="M127.81 113.81c-.15.02-.28 0-.42-.09M308.6 92.9c-.4-.25-.44-.82-.24-1.23.21-.41.67-.66 1.07-.41M261.35 40.89h.1c.1.02.19.05.29.08.13.04.25.09.38.14.25.1.5.2.75.31.38.17 1.11.5 1.47.73M193.32 239.82h-.11c-.1-.02-.2-.06-.31-.09-.14-.05-.27-.1-.4-.15-.27-.1-.53-.22-.8-.34-.26-.12-.53-.24-.79-.37-.13-.07-.26-.13-.39-.2-.1-.05-.19-.1-.28-.17-.02-.02-.04-.03-.06-.05 0 0-.02-.02-.01-.03M264.49 42.29s-.02.01-.03.01c-.03 0-.05 0-.08-.01-.1-.02-.2-.06-.31-.09-.14-.05-.27-.1-.4-.15-.27-.11-.53-.22-.8-.34-.26-.12-.53-.24-.79-.37-.13-.06-.26-.13-.39-.2-.1-.05-.19-.1-.28-.17-.02-.02-.04-.03-.06-.05 0 0-.02-.02-.01-.03M264.49 42.29l-6.09 16.88" class="cls-10"/><path d="M264.33 42.16s.06.04.08.06c.01 0 .03.02.04.03 0 0 .03.03.03.04M244.48 271.99s-.02.01-.03.01c-.03 0-.05 0-.08-.01-.1-.02-.21-.06-.31-.09-.14-.05-.27-.1-.4-.15-.27-.11-.53-.22-.8-.34-.26-.12-.53-.24-.79-.37-.13-.06-.26-.13-.39-.2-.09-.05-.19-.1-.28-.17-.02-.02-.04-.03-.06-.05 0 0-.02-.02-.01-.03M315.64 74.45s-.02.01-.03.01c-.03 0-.05 0-.08-.01-.1-.02-.21-.06-.31-.09-.14-.05-.27-.1-.4-.15-.27-.11-.53-.22-.8-.34-.26-.12-.53-.24-.79-.37-.13-.07-.26-.13-.39-.2-.09-.05-.19-.1-.28-.17-.02-.02-.04-.03-.06-.05 0 0-.02-.02-.01-.03" class="cls-10"/><path d="M312.5 73.06h.1c.1.02.19.05.29.08.13.04.25.09.38.14.25.1.5.2.75.31.38.17 1.11.5 1.47.73M315.64 74.45l-6.09 16.91M315.48 74.32s.06.04.08.06c.01.01.03.02.04.03 0 0 .03.03.03.04M195.74 88.9l-6.09 16.9M255.69 81.68l-6.09 16.9M192.6 87.5h.1c.1.02.19.05.29.08.13.04.25.09.38.14.25.1.5.2.75.31.38.17 1.11.5 1.47.73M154.55 203.23s-.02.01-.03.01c-.03 0-.05 0-.08-.01-.1-.02-.2-.06-.31-.09-.14-.05-.27-.1-.4-.15-.27-.11-.53-.22-.8-.34-.26-.12-.53-.24-.79-.37-.13-.06-.26-.13-.39-.2-.09-.05-.19-.1-.28-.17-.02-.02-.04-.03-.06-.05 0 0-.02-.02-.01-.03M195.74 88.9h-.11c-.1-.02-.2-.06-.31-.09-.14-.05-.27-.1-.4-.15-.27-.1-.53-.22-.8-.34-.26-.12-.53-.24-.79-.37-.13-.07-.26-.13-.39-.2-.09-.05-.19-.1-.28-.17-.02-.02-.04-.03-.06-.05 0 0-.02-.02-.01-.03M195.59 88.77s.06.04.08.06c.01.01.03.02.04.03 0 0 .03.03.03.04M252.55 80.28h.1c.1.02.19.05.29.08.13.04.25.09.38.14.25.1.5.2.75.31.38.17 1.11.5 1.47.73M255.69 81.68h-.11c-.1-.02-.21-.06-.31-.09-.14-.05-.27-.1-.4-.15-.27-.1-.53-.22-.8-.34-.26-.12-.53-.24-.79-.37-.13-.07-.26-.13-.39-.2-.09-.05-.19-.1-.28-.17-.02-.02-.04-.03-.06-.05 0 0-.02-.02-.01-.03M255.54 81.55s.06.04.08.06c.01.01.03.02.04.03 0 0 .03.03.03.04M183.04 265.45s.07.04.1.05M183.23 265.57l-.19-.12M182.53 264.41c0 .42.17.82.51 1.04M183.83 265.7a.88.88 0 0 1-.59-.13M182.53 264.41v-1.04M182.72 263.49v1.04M136.15 235.96s.07.04.1.05M136.34 236.08l-.19-.12M135.64 234.92c0 .42.17.82.51 1.04M136.94 236.21a.88.88 0 0 1-.59-.13M135.64 234.92v-1.04M135.83 234.01v1.04M190.14 51.94c-.07-.17.02-.35.1-.47.09-.14.2-.26.32-.37.24-.22.5-.39.78-.53s.56-.26.87-.33c.24-.06.66-.12.9.03M193.11 50.28c.06.04.1.08.13.15M103.4 171.07s-.02 0-.03.01c-.03 0-.05 0-.08-.01-.1-.02-.21-.06-.31-.09-.14-.05-.27-.1-.4-.15-.27-.1-.53-.22-.8-.34-.26-.12-.53-.24-.79-.37-.13-.06-.26-.13-.39-.2-.1-.05-.19-.1-.28-.17-.02-.02-.04-.03-.06-.05 0 0-.02-.02-.01-.03M144.59 56.74s-.02.01-.03.01c-.03 0-.05 0-.08-.01-.1-.02-.21-.06-.31-.09-.14-.05-.27-.1-.4-.15-.27-.11-.53-.22-.8-.34-.26-.12-.53-.24-.79-.37-.13-.06-.26-.13-.39-.2-.1-.05-.19-.1-.28-.17-.02-.02-.04-.03-.06-.05 0 0-.02-.02-.01-.03M141.45 55.34h.1c.1.02.19.05.29.08.13.04.25.09.38.14.25.1.5.2.75.31.38.17 1.11.5 1.47.73M144.59 56.74l-5.57 15.44" class="cls-10"/></svg>