<?xml version="1.0" encoding="UTF-8"?>
<svg id="Calque_2" data-name="Calque 2" xmlns="http://www.w3.org/2000/svg" viewBox="0 0 320.69 410.34">
  <defs>
    <style>
      .cls-1 {
        fill: #6f06ad;
      }

      .cls-1, .cls-2, .cls-3, .cls-4 {
        stroke-width: 0px;
      }

      .cls-2 {
        fill: #bfad4e;
      }

      .cls-3 {
        fill: #a6a58f;
      }

      .cls-5 {
        stroke-width: .25px;
      }

      .cls-5, .cls-6 {
        fill: none;
        stroke: #000;
        stroke-miterlimit: 10;
      }

      .cls-6 {
        stroke-width: .5px;
      }

      .cls-4 {
        fill: #f7e457;
      }
    </style>
  </defs>
  <polygon class="cls-2" points="212.17 149.25 180.48 157.64 179.41 160.7 212.71 247.26 212.84 247.93 213.33 248.11 214.09 248.91 213.95 249.76 213.37 250.39 247.2 241.77 247.6 240.88 247.6 240.26 247.11 239.63 246.44 239.36 212.93 151.91 213.46 151.2 213.46 150.66 213.2 150.04 212.53 149.59 212.17 149.25"/>
  <polygon class="cls-3" points="182.02 337.89 213.03 329.78 213.34 329.09 212.88 327.43 246.09 242.2 213.37 250.39 217.96 263.35 214.7 265.02 210.91 256.45 180.58 335.46 181.41 336.45 182.02 337.89"/>
  <polygon class="cls-2" points="77.15 247.33 110.53 238.85 127.49 283.19 109.18 331.43 77.15 247.33"/>
  <polygon class="cls-2" points="129.81 289.26 143.77 326.1 144.59 326.47 144.97 327.23 144.97 328.05 144.22 328.88 122.99 334.28 112.41 334.2 129.81 289.26"/>
  <polygon class="cls-4" points="143.83 148.1 112.29 156.29 111.03 159.11 125.31 197.56 143.53 151.08 144.64 150.56 145.09 149.89 145.09 149.22 144.79 148.63 143.83 148.1"/>
  <polygon class="cls-4" points="108.57 165.43 123.15 203.58 110.54 236.8 111.11 237.52 110.66 238.39 110.53 238.85 77.15 247.33 108.57 165.43"/>
  <line class="cls-5" x1="108.3" y1="155.09" x2="108.3" y2="61.27"/>
  <line class="cls-5" x1="173.42" y1="156.73" x2="173.42" y2="61.81"/>
  <line class="cls-5" x1="212.49" y1="149.6" x2="212.49" y2="63.46"/>
  <line class="cls-5" x1="144.12" y1="147.41" x2="144.12" y2="57.42"/>
  <path class="cls-5" d="M177.9,234.86c.28-.07.57-.11.86-.1"/>
  <path class="cls-5" d="M146.68,244.91c.11.13.21.26.31.4"/>
  <path class="cls-5" d="M178.76,234.76c.17,0,.34.02.5.05"/>
  <path class="cls-5" d="M180.86,242.53c-.39.3-.79.5-1.24.62"/>
  <line class="cls-5" x1="147.56" y1="242.63" x2="177.9" y2="234.86"/>
  <line class="cls-5" x1="179.62" y1="243.15" x2="146.37" y2="251.67"/>
  <path class="cls-5" d="M212.32,330.14c.09,0,.18,0,.27-.03"/>
  <path class="cls-5" d="M213.26,250.43c-.07.02-.14.03-.22.03"/>
  <path class="cls-5" d="M144.01,328.72c.09,0,.18,0,.26-.03"/>
  <path class="cls-5" d="M144.28,328.69c.62-.16.97-.86.84-1.53s-.7-1.16-1.33-1.03"/>
  <path class="cls-5" d="M212.73,247.87s.03,0,.05-.01"/>
  <line class="cls-5" x1="179.52" y1="160.53" x2="213" y2="151.96"/>
  <line class="cls-5" x1="212.78" y1="247.86" x2="179.52" y2="160.53"/>
  <line class="cls-5" x1="246.16" y1="239.31" x2="246.16" y2="239.31"/>
  <line class="cls-5" x1="143.74" y1="150.89" x2="125.41" y2="198.27"/>
  <path class="cls-5" d="M212.78,247.86c.07-.02.14-.02.22-.02"/>
  <line class="cls-5" x1="108.86" y1="332.31" x2="76.69" y2="247.84"/>
  <path class="cls-5" d="M77.26,246.35c0,.27-.1.52-.28.71"/>
  <line class="cls-5" x1="109.14" y1="331.6" x2="77.06" y2="247.37"/>
  <path class="cls-5" d="M179.73,159.51c0,.27-.1.52-.27.71"/>
  <path class="cls-5" d="M111.42,158.09c0,.27-.1.52-.28.71"/>
  <path class="cls-5" d="M77.45,245.88c.17.53.03,1.15-.39,1.49"/>
  <line class="cls-5" x1="213" y1="327.8" x2="181.34" y2="335.91"/>
  <line class="cls-5" x1="246.21" y1="241.99" x2="213" y2="327.8"/>
  <path class="cls-5" d="M246.48,239.27c-.07,0-.15,0-.22.02"/>
  <path class="cls-5" d="M212.28,248.13c.14-.13.28-.21.46-.26"/>
  <path class="cls-5" d="M213,247.84c.59.01,1.06.54,1.13,1.17.07.64-.28,1.27-.86,1.41"/>
  <line class="cls-5" x1="212.59" y1="330.11" x2="181.8" y2="338"/>
  <path class="cls-5" d="M212.59,330.11c.44-.11.77-.52.85-1.01.08-.49-.08-1-.44-1.31"/>
  <line class="cls-5" x1="246.74" y1="241.85" x2="213.26" y2="250.43"/>
  <path class="cls-5" d="M246.74,241.85c.58-.15.93-.77.86-1.41-.07-.64-.54-1.16-1.13-1.17"/>
  <path class="cls-5" d="M212.79,248.15c.49-.13.95.24,1.06.77.11.53-.16,1.09-.65,1.21"/>
  <line class="cls-5" x1="110.54" y1="238.8" x2="127.66" y2="283.75"/>
  <line class="cls-5" x1="129.64" y1="288.95" x2="143.8" y2="326.13"/>
  <line class="cls-5" x1="77.06" y1="247.37" x2="110.54" y2="238.8"/>
  <line class="cls-5" x1="143.8" y1="326.13" x2="112.46" y2="334.15"/>
  <path class="cls-5" d="M110.54,238.8c.62-.52.6-1.57,0-2.1"/>
  <line class="cls-5" x1="144.28" y1="328.69" x2="122.17" y2="334.36"/>
  <path class="cls-5" d="M213,151.96c.4-.34.55-.93.4-1.45-.15-.52-.57-.91-1.08-.92"/>
  <path class="cls-5" d="M212.32,149.59c-.09,0-.18,0-.26.03"/>
  <path class="cls-5" d="M179.91,159.04c.17.53.03,1.15-.39,1.49"/>
  <line class="cls-5" x1="212.32" y1="248.09" x2="179.15" y2="160.99"/>
  <line class="cls-5" x1="212.78" y1="247.86" x2="246.26" y2="239.29"/>
  <line class="cls-5" x1="213" y1="151.96" x2="246.26" y2="239.29"/>
  <line class="cls-5" x1="180.42" y1="157.72" x2="212.06" y2="149.62"/>
  <path class="cls-5" d="M144.01,148.17c-.09,0-.18,0-.27.03"/>
  <path class="cls-5" d="M111.6,157.62c.21.65-.05,1.39-.64,1.65"/>
  <line class="cls-5" x1="77.75" y1="245.1" x2="110.54" y2="236.7"/>
  <line class="cls-5" x1="123.4" y1="203.47" x2="110.54" y2="236.7"/>
  <line class="cls-5" x1="112.11" y1="156.3" x2="143.75" y2="148.2"/>
  <line class="cls-5" x1="144.28" y1="150.75" x2="110.96" y2="159.29"/>
  <path class="cls-5" d="M144.28,150.75c.58-.15.93-.77.86-1.41-.07-.64-.54-1.16-1.13-1.17"/>
  <path class="cls-6" d="M107.58,159.85c-.07.02-.14.02-.21.02"/>
  <path class="cls-6" d="M175.89,161.27c-.07.02-.14.03-.21.02"/>
  <path class="cls-6" d="M210.04,250.95c-.07.02-.14.03-.21.02"/>
  <path class="cls-6" d="M175.89,339.21c-.07.02-.14.03-.21.02"/>
  <path class="cls-6" d="M150.21,342.29c.34-.09,1.37-.56,1.69-.71.28-.13.55-.27.83-.4.14-.07.27-.14.41-.22.1-.05.2-.11.29-.17.02-.02.05-.03.07-.05,0,0,.02-.02.02-.03"/>
  <line class="cls-6" x1="150.13" y1="342.3" x2="148.88" y2="339.02"/>
  <path class="cls-6" d="M150.13,342.3s.03,0,.04,0c.01,0,.03,0,.04,0"/>
  <path class="cls-6" d="M179.29,350.01c.34-.09,1.37-.56,1.69-.71.28-.13.55-.26.83-.4.14-.07.27-.14.41-.22.1-.05.2-.11.29-.17.02-.02.05-.03.07-.05,0,0,.02-.02.02-.03"/>
  <path class="cls-6" d="M179.21,350.02s.03,0,.04,0c.01,0,.03,0,.04,0"/>
  <path class="cls-6" d="M102.8,138.93s-.03,0-.03,0c-.03,0-.05.01-.08.02-.11.03-.22.08-.33.12-.14.06-.29.12-.43.18-.29.12-.57.25-.85.39-.28.13-.56.27-.84.41-.14.07-.28.14-.42.22-.1.06-.2.11-.3.18-.02.02-.05.03-.07.05,0,0-.02.02-.02.03"/>
  <path class="cls-6" d="M114.9,138.91c.21-.05.73.12.91.19.3.11.59.23.87.37.28.14.56.29.83.46.14.08.27.17.4.27.09.07.17.14.24.23.02.03.07.09.05.14"/>
  <line class="cls-6" x1="67.89" y1="260.24" x2="72.61" y2="248.05"/>
  <path class="cls-6" d="M118.2,140.57c-.02.05-.09.06-.13.06-.11,0-.22-.02-.33-.04-.16-.03-.31-.08-.46-.14-.3-.11-.6-.23-.89-.37-.29-.14-.58-.29-.86-.46-.14-.09-.28-.18-.41-.28-.09-.07-.18-.14-.25-.24-.02-.03-.07-.09-.05-.15"/>
  <path class="cls-6" d="M71.27,261.85c-.02.05-.09.06-.13.06-.11,0-.22-.01-.33-.04-.16-.03-.31-.08-.46-.14-.3-.11-.6-.23-.89-.37s-.58-.29-.86-.46c-.14-.09-.28-.18-.41-.28-.09-.07-.18-.14-.25-.24-.03-.03-.07-.09-.05-.15"/>
  <path class="cls-6" d="M114.82,138.96s.04-.04.07-.05"/>
  <path class="cls-6" d="M150.82,129.71c.21-.05.73.12.91.19.3.11.59.23.87.37.28.14.56.29.83.46.14.08.27.17.4.27.09.07.17.14.24.23.02.03.07.09.05.14"/>
  <path class="cls-6" d="M150.74,129.76s.04-.04.07-.05"/>
  <path class="cls-6" d="M154.12,131.37c-.02.05-.09.06-.13.06-.11,0-.22-.01-.33-.04-.16-.04-.31-.08-.46-.14-.3-.11-.6-.23-.89-.37s-.58-.29-.86-.46c-.14-.09-.28-.18-.41-.28-.09-.07-.18-.14-.25-.24-.02-.03-.07-.09-.05-.15"/>
  <path class="cls-6" d="M177.89,234.59c.3-.08.6-.11.91-.11"/>
  <path class="cls-6" d="M179.54,243.44c-.45.11-.88.14-1.33.07"/>
  <line class="cls-6" x1="177.71" y1="234.64" x2="177.89" y2="234.59"/>
  <path class="cls-6" d="M177.71,234.64c.3-.08.6-.11.91-.11"/>
  <path class="cls-6" d="M179.5,243.24c-.2.05-.4.08-.61.1"/>
  <path class="cls-6" d="M252.67,255.45c.34-.09,1.37-.56,1.69-.71.28-.13.55-.27.83-.4.14-.07.27-.14.41-.21.1-.06.2-.11.3-.18.02-.02.05-.03.07-.05,0,0,.02-.02.02-.03"/>
  <line class="cls-6" x1="209.04" y1="130.63" x2="214.11" y2="143.94"/>
  <line class="cls-6" x1="252.59" y1="255.45" x2="248.24" y2="244.02"/>
  <path class="cls-6" d="M209.04,130.63s-.02,0-.03,0c-.03,0-.05.01-.08.02-.11.03-.22.08-.33.12-.14.06-.29.12-.43.18-.29.12-.57.25-.86.39-.28.13-.56.27-.84.41-.14.07-.28.14-.42.22-.1.06-.21.11-.31.18-.02.02-.05.03-.07.05,0,0-.02.02-.02.03"/>
  <path class="cls-6" d="M255.97,253.86s-.02,0-.03,0c-.03,0-.05.01-.08.02-.11.03-.22.08-.33.12-.14.06-.29.12-.43.18-.29.12-.57.25-.85.39s-.57.27-.84.41c-.14.07-.28.14-.42.22-.1.06-.21.11-.31.18-.02.02-.05.03-.07.05,0,0-.02.02-.02.03"/>
  <path class="cls-6" d="M252.59,255.45s.03,0,.04,0c.01,0,.03,0,.04,0"/>
  <path class="cls-6" d="M214.74,265.17c.34-.09,1.37-.56,1.69-.71.28-.13.55-.26.83-.4.14-.07.27-.14.41-.21.1-.06.2-.11.3-.18.02-.02.05-.03.07-.05,0,0,.02-.02.02-.03"/>
  <path class="cls-6" d="M214.66,265.17s.03,0,.04,0c.01,0,.03,0,.04,0"/>
  <path class="cls-6" d="M171.11,140.35s-.02,0-.03,0c-.03,0-.05.01-.08.02-.11.03-.22.08-.33.12-.14.06-.29.12-.43.18-.29.12-.57.25-.85.39-.28.13-.57.27-.84.41-.14.07-.28.14-.42.22-.1.06-.21.11-.31.18-.02.02-.05.03-.07.05,0,0-.02.02-.02.03"/>
  <path class="cls-6" d="M218.04,263.58s-.02,0-.03,0c-.03,0-.05.01-.08.02-.11.03-.22.08-.33.12-.15.06-.29.12-.43.18-.29.12-.57.25-.85.39-.28.13-.56.27-.84.41-.14.07-.28.14-.42.22-.1.06-.21.11-.31.18-.02.02-.05.03-.07.05,0,0-.02.02-.02.03"/>
  <path class="cls-6" d="M173.73,352.95c-.02.05-.09.06-.13.06-.11,0-.22-.02-.32-.04-.16-.04-.31-.08-.46-.14-.3-.11-.6-.23-.89-.37-.29-.14-.58-.29-.86-.46-.14-.09-.28-.18-.41-.28-.09-.07-.17-.14-.25-.23-.03-.03-.07-.1-.05-.15"/>
  <line class="cls-6" x1="113.63" y1="235.99" x2="129.75" y2="278.32"/>
  <line class="cls-6" x1="108.77" y1="154.6" x2="114.82" y2="138.96"/>
  <path class="cls-6" d="M107.38,159.88c-.46,0-.82-.42-.88-.91-.05-.5.22-.98.67-1.1"/>
  <path class="cls-6" d="M107.17,157.86c.49-.13.95.24,1.06.77.11.53-.16,1.09-.65,1.21"/>
  <path class="cls-6" d="M175.68,339.24c-.46,0-.82-.42-.88-.91-.05-.5.22-.98.67-1.1"/>
  <path class="cls-6" d="M175.48,337.23c.49-.13.95.24,1.06.77.11.53-.16,1.09-.65,1.21"/>
  <line class="cls-6" x1="206.27" y1="342.14" x2="210.71" y2="330.68"/>
  <path class="cls-6" d="M249.06,241.91c-.03.07-.16.06-.21.06-.08,0-.15-.02-.23-.03-.15-.03-.3-.08-.44-.13-.29-.1-.58-.22-.86-.35"/>
  <path class="cls-6" d="M209.65,343.75c-.02.05-.09.06-.13.06-.11,0-.22-.02-.32-.04-.16-.04-.31-.08-.46-.14-.3-.11-.6-.23-.89-.37-.29-.14-.58-.29-.86-.46-.14-.09-.28-.18-.41-.28-.09-.07-.17-.14-.25-.23-.03-.03-.07-.1-.05-.15"/>
  <path class="cls-6" d="M112.28,352.01c.34-.09,1.37-.56,1.69-.71.28-.13.55-.27.83-.4.14-.07.27-.14.41-.21.1-.05.2-.11.29-.17.02-.02.05-.03.07-.05,0,0,.02-.02.02-.03"/>
  <path class="cls-6" d="M67.61,224.45s-.03,0-.03,0c-.03,0-.05.01-.08.02-.11.03-.22.08-.33.12-.14.06-.29.12-.43.18-.29.12-.57.25-.85.39s-.56.27-.84.41c-.14.07-.28.14-.42.22-.1.06-.2.11-.3.18-.02.02-.05.03-.07.05,0,0-.02.02-.02.03"/>
  <path class="cls-6" d="M115.58,350.42s-.03,0-.03,0c-.03,0-.05.01-.08.02-.11.03-.22.08-.32.12-.15.06-.29.12-.43.18-.29.12-.57.25-.85.39-.28.13-.56.27-.84.41-.14.07-.28.14-.42.22-.1.06-.2.11-.3.18-.02.02-.05.03-.07.05,0,0-.02.02-.02.03"/>
  <path class="cls-6" d="M112.2,352.01s.03,0,.04,0c.01,0,.03,0,.04,0"/>
  <path class="cls-6" d="M183.21,140.33c.21-.05.73.12.91.19.3.11.59.23.87.37.28.14.56.29.83.46.14.08.27.17.4.27.09.07.17.14.24.23.03.03.07.09.05.15"/>
  <path class="cls-6" d="M183.13,140.38s.04-.04.07-.05"/>
  <path class="cls-6" d="M186.51,141.99c-.02.05-.09.06-.13.06-.11,0-.22-.02-.32-.04-.16-.04-.31-.08-.46-.14-.3-.11-.6-.23-.89-.37-.29-.14-.58-.29-.86-.46-.14-.09-.28-.18-.41-.28-.09-.07-.17-.14-.25-.23-.03-.03-.07-.1-.05-.15"/>
  <path class="cls-6" d="M106.72,348.17c-.02.05-.09.06-.13.06-.11,0-.22-.02-.32-.04-.16-.04-.31-.08-.46-.14-.3-.11-.6-.23-.89-.37-.29-.14-.58-.29-.86-.46-.14-.09-.28-.18-.41-.28-.09-.07-.17-.14-.25-.23-.03-.03-.07-.1-.05-.15"/>
  <line class="cls-6" x1="106.29" y1="336.68" x2="106.29" y2="336.48"/>
  <line class="cls-6" x1="180.4" y1="339.68" x2="179.25" y2="339.65"/>
  <path class="cls-6" d="M180.83,339.61c.58-.15.97-.74.97-1.39"/>
  <path class="cls-6" d="M180.69,339.64c-.1.02-.19.04-.29.03"/>
  <line class="cls-6" x1="216.43" y1="329.34" x2="216.43" y2="328.18"/>
  <line class="cls-6" x1="215.17" y1="326.7" x2="213.44" y2="326.66"/>
  <path class="cls-6" d="M142.32,329.26c-.06,0-.11,0-.17-.02"/>
  <path class="cls-6" d="M215.6,330.7c.58-.15.97-.74.97-1.39"/>
  <path class="cls-6" d="M215.46,330.74c-.1.03-.19.04-.29.03"/>
  <path class="cls-6" d="M106.74,337.8c-.29-.28-.45-.7-.45-1.12"/>
  <line class="cls-6" x1="213.45" y1="326.62" x2="215.31" y2="326.66"/>
  <line class="cls-6" x1="108.75" y1="342.94" x2="106.72" y2="348.17"/>
  <line class="cls-6" x1="127.74" y1="283.52" x2="111.62" y2="241.18"/>
  <line class="cls-6" x1="143.61" y1="325.17" x2="129.73" y2="288.72"/>
  <line class="cls-6" x1="147.31" y1="334.88" x2="145.78" y2="330.86"/>
  <line class="cls-6" x1="74.62" y1="242.86" x2="106.76" y2="159.79"/>
  <line class="cls-6" x1="76.46" y1="247.83" x2="108.6" y2="164.76"/>
  <path class="cls-6" d="M179.03,243.3c.18-.01.36-.04.53-.08"/>
  <path class="cls-6" d="M177.83,234.82c-.17.05-.34.11-.51.19"/>
  <path class="cls-6" d="M177.17,235.04c.19-.09.38-.16.58-.21"/>
  <line class="cls-6" x1="213.21" y1="250.14" x2="212.95" y2="250.21"/>
  <line class="cls-6" x1="152.9" y1="339.11" x2="153.51" y2="340.7"/>
  <line class="cls-6" x1="149.2" y1="329.4" x2="151.32" y2="334.96"/>
  <line class="cls-6" x1="131.74" y1="283.53" x2="145.8" y2="320.47"/>
  <line class="cls-6" x1="74.59" y1="253.26" x2="71.27" y2="261.85"/>
  <line class="cls-6" x1="246.43" y1="239.27" x2="214.08" y2="154.34"/>
  <line class="cls-6" x1="173.97" y1="325.8" x2="180.19" y2="325.93"/>
  <line class="cls-6" x1="180.17" y1="325.97" x2="173.99" y2="325.84"/>
  <line class="cls-6" x1="178.61" y1="330.01" x2="175.55" y2="329.95"/>
  <line class="cls-6" x1="177.08" y1="156.02" x2="183.13" y2="140.38"/>
  <line class="cls-6" x1="180.46" y1="335.57" x2="180.54" y2="335.57"/>
  <path class="cls-6" d="M175.68,161.3c-.46,0-.82-.42-.88-.91-.05-.5.22-.98.67-1.1"/>
  <path class="cls-6" d="M175.48,159.28c.49-.13.95.24,1.06.77.11.53-.16,1.09-.65,1.21"/>
  <line class="cls-6" x1="181.66" y1="338.25" x2="181.66" y2="337.09"/>
  <path class="cls-6" d="M180.44,335.61c.7.04,1.22.72,1.22,1.48"/>
  <path class="cls-6" d="M217.21,340.3c.34-.09,1.37-.56,1.69-.71.28-.13.55-.27.83-.4.14-.07.27-.14.41-.21.1-.05.2-.11.29-.17.02-.02.05-.03.07-.05,0,0,.02-.02.02-.03"/>
  <line class="cls-6" x1="140.73" y1="129.21" x2="145.8" y2="142.53"/>
  <path class="cls-6" d="M140.73,129.21s-.03,0-.03,0c-.03,0-.05.01-.08.02-.11.03-.22.08-.32.12-.14.06-.29.12-.43.18-.29.12-.57.25-.85.39s-.57.27-.84.41c-.14.07-.28.14-.42.22-.1.06-.2.11-.3.18-.03.02-.05.03-.07.05,0,0-.02.02-.02.03"/>
  <path class="cls-6" d="M220.52,338.71s-.03,0-.03,0c-.03,0-.05.01-.08.02-.11.03-.22.07-.33.12-.14.06-.29.12-.43.18-.29.12-.57.25-.85.39s-.56.27-.84.41c-.14.07-.28.14-.42.22-.1.06-.2.11-.3.18-.02.02-.05.03-.07.05,0,0-.02.02-.02.03"/>
  <path class="cls-6" d="M217.14,340.3s.03,0,.04,0c.01,0,.03,0,.04,0"/>
  <line class="cls-6" x1="217.14" y1="340.3" x2="214.08" y2="332.28"/>
  <path class="cls-6" d="M219.12,131.13c.21-.05.73.12.91.19.3.11.59.23.87.37.28.14.56.29.83.46.14.08.27.17.4.27.09.07.17.14.24.23.03.03.07.09.05.15"/>
  <path class="cls-6" d="M222.42,132.79c-.02.05-.09.06-.13.06-.11,0-.22-.02-.32-.04-.16-.04-.31-.08-.46-.14-.3-.11-.6-.23-.89-.37-.29-.14-.58-.29-.86-.46-.14-.09-.28-.18-.41-.28-.09-.07-.17-.14-.25-.23-.03-.03-.07-.1-.05-.15"/>
  <path class="cls-6" d="M142.64,338.97c-.03.07-.16.06-.21.06-.08,0-.15-.02-.22-.03-.15-.03-.29-.08-.44-.12"/>
  <path class="cls-6" d="M219.05,131.18s.04-.04.07-.05"/>
  <path class="cls-6" d="M107.38,337.82c-.46,0-.82-.42-.88-.91-.05-.5.22-.98.67-1.1"/>
  <path class="cls-6" d="M107.17,335.81c.49-.13.95.24,1.06.77.11.53-.16,1.09-.65,1.21"/>
  <path class="cls-6" d="M107.58,337.79c-.07.02-.14.03-.21.02"/>
  <path class="cls-6" d="M209.72,250.87c-.07.02-.14.03-.21.02"/>
  <path class="cls-6" d="M73.22,248.14c-.46,0-.82-.42-.88-.91-.05-.5.22-.98.67-1.1"/>
  <path class="cls-6" d="M73.01,246.12c.49-.13.95.24,1.07.77.11.53-.16,1.09-.65,1.21"/>
  <path class="cls-6" d="M73.43,248.11c-.07.02-.14.02-.21.02"/>
  <path class="cls-6" d="M69.82,246.87c-.46,0-.82-.42-.88-.91-.05-.5.22-.98.67-1.1"/>
  <line class="cls-6" x1="69.61" y1="244.86" x2="71.23" y2="244.44"/>
  <path class="cls-6" d="M69.61,244.86c.49-.13.95.24,1.06.77.11.53-.16,1.09-.65,1.21"/>
  <path class="cls-6" d="M70.03,246.84c-.07.02-.14.03-.21.02"/>
  <line class="cls-6" x1="143.14" y1="243.49" x2="143.24" y2="243.47"/>
  <path class="cls-6" d="M143.14,243.49s.07-.02.1-.02"/>
  <line class="cls-6" x1="195.2" y1="203.14" x2="195.11" y2="203.37"/>
  <line class="cls-6" x1="216.09" y1="149.15" x2="255.97" y2="253.86"/>
  <line class="cls-6" x1="212.1" y1="149.14" x2="205.66" y2="132.22"/>
  <path class="cls-6" d="M248.03,241.06c.2.11.39.23.57.36.09.07.18.13.27.21.04.04.08.08.12.12.03.03.08.1.06.16"/>
  <line class="cls-6" x1="165.89" y1="195.27" x2="179.96" y2="232.21"/>
  <line class="cls-6" x1="147.79" y1="147.73" x2="163.91" y2="190.06"/>
  <line class="cls-6" x1="196.05" y1="284.94" x2="180.17" y2="243.24"/>
  <line class="cls-6" x1="216.57" y1="328.34" x2="220.52" y2="338.71"/>
  <line class="cls-6" x1="182.7" y1="239.42" x2="198.06" y2="279.74"/>
  <line class="cls-6" x1="161.9" y1="195.26" x2="145.78" y2="152.92"/>
  <line class="cls-6" x1="177" y1="234.91" x2="163.88" y2="200.46"/>
  <line class="cls-6" x1="140.28" y1="334.73" x2="142.4" y2="329.26"/>
  <line class="cls-6" x1="212.17" y1="248.15" x2="212.28" y2="248.13"/>
  <path class="cls-6" d="M142.68,243.64c.15-.06.3-.11.45-.15"/>
  <path class="cls-6" d="M140.68,250.1c-.4-.8-.58-1.72-.52-2.63"/>
  <path class="cls-6" d="M145.79,251.8c1.11-.64,1.84-1.86,2.01-3.22.17-1.36-.23-2.75-1.09-3.74"/>
  <path class="cls-6" d="M142.73,243.77c.12-.05.25-.09.38-.12"/>
  <path class="cls-6" d="M140.71,250.01c-.36-.73-.53-1.55-.5-2.38"/>
  <line class="cls-6" x1="143.79" y1="147.72" x2="137.35" y2="130.8"/>
  <line class="cls-6" x1="71.96" y1="246.35" x2="70.03" y2="246.84"/>
  <line class="cls-6" x1="142.67" y1="338.89" x2="142.64" y2="338.97"/>
  <line class="cls-6" x1="158.95" y1="296.82" x2="147.94" y2="325.26"/>
  <line class="cls-6" x1="179.61" y1="243.42" x2="160.96" y2="291.63"/>
  <line class="cls-6" x1="193.1" y1="208.56" x2="182.18" y2="236.79"/>
  <line class="cls-6" x1="193.13" y1="198.16" x2="193.22" y2="197.93"/>
  <line class="cls-6" x1="178.97" y1="234.77" x2="178.97" y2="234.76"/>
  <line class="cls-6" x1="158.98" y1="286.42" x2="175.29" y2="244.26"/>
  <path class="cls-6" d="M209.84,250.98c-.46,0-.82-.42-.88-.91-.05-.5.22-.98.67-1.1"/>
  <path class="cls-6" d="M209.63,248.96c.49-.13.95.24,1.06.77.11.53-.16,1.09-.65,1.21"/>
  <path class="cls-6" d="M153.51,340.71s-.03,0-.03,0c-.03,0-.05.01-.08.02-.11.03-.22.08-.33.12-.14.06-.29.12-.43.18-.29.12-.57.25-.85.39s-.57.27-.84.41c-.14.07-.28.14-.42.22-.1.06-.2.11-.3.18-.03.02-.05.03-.07.05,0,0-.02.02-.02.03"/>
  <line class="cls-6" x1="179.21" y1="350.02" x2="99.42" y2="140.52"/>
  <line class="cls-6" x1="102.8" y1="138.93" x2="182.59" y2="348.43"/>
  <path class="cls-6" d="M182.59,348.43s-.03,0-.03,0c-.03,0-.05.01-.08.02-.11.03-.22.08-.32.12-.14.06-.29.12-.43.18-.29.12-.57.25-.85.39-.28.13-.56.27-.84.41-.14.07-.28.14-.42.22-.1.06-.2.11-.3.18-.02.02-.05.03-.07.05,0,0-.02.02-.02.03"/>
  <line class="cls-6" x1="118.2" y1="140.57" x2="110.75" y2="159.81"/>
  <line class="cls-1" x1="108.75" y1="165" x2="76.6" y2="248.07"/>
  <line class="cls-6" x1="143.59" y1="148.24" x2="150.74" y2="129.76"/>
  <line class="cls-6" x1="154.12" y1="131.37" x2="126.8" y2="201.95"/>
  <line class="cls-6" x1="124.8" y1="207.14" x2="111.53" y2="241.41"/>
  <path class="cls-6" d="M178.63,234.53c2.03.04,3.65,1.84,3.88,4.04.11,1.07-.11,2.17-.65,3.07-.54.91-1.36,1.55-2.32,1.8"/>
  <path class="cls-6" d="M178.81,234.48c2.03.04,3.65,1.84,3.88,4.04.11,1.07-.11,2.17-.65,3.07-.54.91-1.36,1.55-2.32,1.8"/>
  <path class="cls-6" d="M178.63,234.73c1.94.04,3.48,1.76,3.7,3.86.22,2.11-.93,4.16-2.83,4.65"/>
  <line class="cls-6" x1="179.72" y1="243.39" x2="179.54" y2="243.44"/>
  <path class="cls-6" d="M176.49,235.22c.38-.28.78-.47,1.22-.58"/>
  <line class="cls-6" x1="177.75" y1="234.83" x2="177.9" y2="234.8"/>
  <line class="cls-6" x1="179.64" y1="243.2" x2="179.5" y2="243.24"/>
  <path class="cls-6" d="M177.75,234.83c.29-.07.58-.11.87-.1"/>
  <line class="cls-6" x1="214.66" y1="265.17" x2="209.2" y2="250.83"/>
  <line class="cls-6" x1="208.69" y1="249.49" x2="167.73" y2="141.94"/>
  <line class="cls-6" x1="171.11" y1="140.35" x2="218.04" y2="263.58"/>
  <line class="cls-6" x1="211.21" y1="256.1" x2="179.06" y2="339.17"/>
  <line class="cls-6" x1="177.05" y1="344.36" x2="173.73" y2="352.95"/>
  <line class="cls-6" x1="170.36" y1="351.34" x2="175.07" y2="339.15"/>
  <line class="cls-6" x1="177.08" y1="333.96" x2="209.23" y2="250.89"/>
  <line class="cls-6" x1="249.06" y1="241.91" x2="216.12" y2="327.02"/>
  <line class="cls-6" x1="214.67" y1="330.76" x2="209.65" y2="343.75"/>
  <line class="cls-6" x1="67.61" y1="224.45" x2="115.58" y2="350.42"/>
  <line class="cls-6" x1="112.2" y1="352.01" x2="64.23" y2="226.04"/>
  <line class="cls-6" x1="103.35" y1="346.56" x2="106.76" y2="337.73"/>
  <line class="cls-6" x1="108.77" y1="332.54" x2="140.92" y2="249.47"/>
  <line class="cls-6" x1="142.93" y1="244.28" x2="175.07" y2="161.21"/>
  <line class="cls-6" x1="186.51" y1="141.99" x2="179.06" y2="161.22"/>
  <line class="cls-6" x1="177.05" y1="166.42" x2="144.91" y2="249.49"/>
  <line class="cls-6" x1="142.9" y1="254.68" x2="110.75" y2="337.75"/>
  <line class="cls-6" x1="181.8" y1="337.05" x2="181.8" y2="338.21"/>
  <path class="cls-6" d="M181.8,337.05c0-.78-.54-1.47-1.26-1.48"/>
  <line class="cls-6" x1="112.15" y1="334.15" x2="173.65" y2="335.43"/>
  <line class="cls-6" x1="173.67" y1="335.47" x2="112.13" y2="334.19"/>
  <line class="cls-6" x1="174.91" y1="339.56" x2="110.94" y2="338.23"/>
  <path class="cls-6" d="M180.54,339.64c.1,0,.2,0,.29-.03"/>
  <path class="cls-6" d="M181.66,338.25c0,.65-.38,1.24-.97,1.39"/>
  <line class="cls-6" x1="180.83" y1="339.61" x2="180.69" y2="339.64"/>
  <line class="cls-6" x1="216.57" y1="328.14" x2="216.57" y2="329.31"/>
  <path class="cls-6" d="M216.57,328.14c0-.78-.54-1.46-1.26-1.48"/>
  <path class="cls-6" d="M215.17,326.7c.72.02,1.26.7,1.26,1.48"/>
  <line class="cls-6" x1="143.43" y1="325.17" x2="169.96" y2="325.72"/>
  <line class="cls-6" x1="169.97" y1="325.76" x2="143.45" y2="325.21"/>
  <line class="cls-6" x1="215.17" y1="330.77" x2="210.41" y2="330.67"/>
  <line class="cls-6" x1="171.53" y1="329.86" x2="142.32" y2="329.26"/>
  <path class="cls-6" d="M215.31,330.73c.1,0,.2,0,.29-.03"/>
  <path class="cls-6" d="M216.43,329.34c0,.65-.38,1.24-.97,1.39"/>
  <line class="cls-6" x1="215.6" y1="330.7" x2="215.46" y2="330.74"/>
  <line class="cls-6" x1="222.42" y1="132.79" x2="214" y2="154.57"/>
  <line class="cls-6" x1="146.36" y1="329.34" x2="144.25" y2="334.81"/>
  <line class="cls-6" x1="143.98" y1="325.18" x2="156.97" y2="291.62"/>
  <line class="cls-6" x1="179.07" y1="234.5" x2="191.12" y2="203.35"/>
  <line class="cls-6" x1="211.9" y1="149.65" x2="219.05" y2="131.18"/>
  <path class="cls-6" d="M209.52,250.9c-.46,0-.82-.42-.88-.91-.05-.5.22-.98.67-1.1"/>
  <path class="cls-6" d="M209.31,248.89c.49-.13.95.24,1.06.77.11.53-.16,1.09-.65,1.21"/>
  <path class="cls-6" d="M146.76,244.7c.9,1.02,1.33,2.47,1.16,3.88-.17,1.42-.92,2.69-2.08,3.35"/>
  <path class="cls-6" d="M143.18,243.63s0,0-.01,0"/>
  <path class="cls-6" d="M146.68,244.9c.83.99,1.22,2.36,1.06,3.7-.16,1.34-.87,2.54-1.95,3.19"/>
  <path class="cls-6" d="M145.86,251.98c1.24-.63,2.06-1.95,2.24-3.43.18-1.48-.29-2.99-1.28-4.02"/>
  <path class="cls-6" d="M143.11,243.65s.05-.01.07-.02"/>
</svg>