<?xml version="1.0" encoding="UTF-8"?>
<svg id="Calque_2" data-name="Calque 2" xmlns="http://www.w3.org/2000/svg" viewBox="0 0 383.74 531.14">
  <defs>
    <style>
      .cls-1 {
        stroke-width: .25px;
      }

      .cls-1, .cls-2 {
        fill: none;
        stroke: #000;
        stroke-miterlimit: 10;
      }

      .cls-3 {
        fill: #eaa98c;
      }

      .cls-3, .cls-4, .cls-5 {
        stroke-width: 0px;
      }

      .cls-4 {
        fill: #662612;
      }

      .cls-2 {
        stroke-width: .5px;
      }

      .cls-5 {
        fill: #d86a3f;
      }
    </style>
  </defs>
  <polygon class="cls-4" points="140.2 73.31 182.99 99.96 184.43 103.63 156.72 181.96 127.36 108.17 139.24 75.34 139.24 73.79 140.2 73.31"/>
  <polyline class="cls-3" points="155.08 187.23 155.78 188.98 151.56 201.07 154.96 202.56 157.54 193.87 183.9 260.71 182.67 262.06 139.07 234.35 139.34 232.72 110.52 159.34"/>
  <polygon class="cls-5" points="110.52 159.34 109.18 158.34 109.26 157.19 109.52 156.86 80.52 83.44 78.99 82.27 79.07 81.34 79.35 80.73 80.27 80.45 123.31 107.61 155.08 187.23 110.52 159.34"/>
  <polygon class="cls-3" points="260.25 58.86 304.92 87.08 304.12 88.29 304.12 90.02 276.9 167.3 249.4 98.96 250.02 98.85 250.02 97.78 249.97 97.1 256.11 80.53 252.9 79 259.16 61.08 258.99 60.23 259.1 59.33 259.5 59.05 260.25 58.86"/>
  <polygon class="cls-5" points="199.99 65.94 243.39 93.2 245.52 98.89 229.28 143.91 229.12 142.74 229.48 142.23 200.55 69.09 199.02 68.08 198.97 66.91 199.28 66.3 199.99 65.94"/>
  <polygon class="cls-5" points="247.84 104.21 274.44 172.3 232.48 146.17 247.84 104.21"/>
  <polygon class="cls-4" points="241.26 253.93 202.35 229.42 217.8 187.18 243.93 253.26 241.26 253.93"/>
  <polygon class="cls-4" points="232.48 146.17 219.61 182.12 246.31 250.4 274.44 172.3 232.48 146.17"/>
  <path class="cls-1" d="M167.51,153.68c-.12-.08-.24-.16-.35-.26"/>
  <path class="cls-1" d="M168.56,154.07c-.38-.06-.71-.19-1.05-.4"/>
  <path class="cls-1" d="M167.59,153.52c-.13-.08-.25-.17-.37-.28"/>
  <path class="cls-1" d="M169.83,146.01c.48.02.95.17,1.37.43"/>
  <path class="cls-1" d="M169.77,146.19c.47.01.93.15,1.35.41"/>
  <path class="cls-1" d="M154.64,187.11c-.25-.15-.4-.43-.45-.73-.05-.3.01-.62.15-.88"/>
  <line class="cls-1" x1="154.64" y1="187.11" x2="109.49" y2="158.72"/>
  <line class="cls-1" x1="182.87" y1="262" x2="139.47" y2="234.7"/>
  <path class="cls-1" d="M109.43,156.8c-.25.25-.4.61-.4.99,0,.37.16.74.46.93"/>
  <line class="cls-1" x1="139.41" y1="232.78" x2="110.42" y2="159.3"/>
  <path class="cls-1" d="M244.56,96.68c-.25-.15-.4-.43-.45-.73-.05-.3.01-.62.15-.88"/>
  <line class="cls-1" x1="244.56" y1="96.68" x2="199.41" y2="68.29"/>
  <path class="cls-1" d="M200.49,66.19c-.16-.1-.35-.14-.54-.12"/>
  <line class="cls-1" x1="200.49" y1="66.19" x2="243.56" y2="93.28"/>
  <line class="cls-1" x1="229.33" y1="142.36" x2="200.34" y2="68.88"/>
  <path class="cls-1" d="M199.95,66.07c-.46.06-.82.45-.95.93-.13.48,0,1.04.41,1.3"/>
  <path class="cls-1" d="M244.95,96.81c-.14,0-.27-.05-.39-.12"/>
  <path class="cls-1" d="M248.94,99.13c-.4-.25-.44-.82-.24-1.23s.67-.66,1.07-.41"/>
  <path class="cls-1" d="M249.77,97.49c.32.2.42.64.32,1.01-.1.37-.38.68-.74.72"/>
  <path class="cls-1" d="M249.36,99.22c-.15.02-.28,0-.42-.09"/>
  <path class="cls-1" d="M170.92,146.54c-.36-.23-.72-.35-1.13-.39"/>
  <line class="cls-1" x1="168.56" y1="154.06" x2="167.44" y2="153.36"/>
  <line class="cls-1" x1="213.03" y1="182.03" x2="171.53" y2="155.93"/>
  <path class="cls-1" d="M217.71,175.68s-.08-.05-.12-.08"/>
  <path class="cls-1" d="M218.04,175.9c-.07-.05-.14-.1-.21-.15"/>
  <path class="cls-1" d="M214.14,183c.38.24.76.37,1.19.42"/>
  <path class="cls-1" d="M217.83,175.76c-.31-.2-.63-.32-.99-.39"/>
  <path class="cls-1" d="M218,176.02s-.1-.07-.15-.1"/>
  <path class="cls-1" d="M217.85,175.92c-.3-.19-.6-.31-.93-.37"/>
  <path class="cls-1" d="M213.67,176.69c-.74.89-1.16,2.1-1.11,3.31.05,1.22.59,2.38,1.58,3"/>
  <path class="cls-1" d="M213.55,176.39c-.8.87-1.27,2.11-1.24,3.36.03,1.26.57,2.46,1.59,3.1"/>
  <path class="cls-1" d="M213.75,176.9c-.69.86-1.07,2.02-1,3.18.07,1.16.59,2.26,1.53,2.85"/>
  <path class="cls-1" d="M171.22,146.69c-.06-.05-.13-.1-.2-.15"/>
  <path class="cls-1" d="M168.07,153.75c-.17-.06-.32-.14-.48-.24"/>
  <line class="cls-1" x1="232.95" y1="144.63" x2="274" y2="170.45"/>
  <line class="cls-1" x1="244.85" y1="96.56" x2="244.68" y2="96.45"/>
  <line class="cls-1" x1="199.01" y1="67.73" x2="198.11" y2="67.17"/>
  <path class="cls-1" d="M213.71,176.81c-.7.86-1.1,2.03-1.04,3.2.06,1.17.58,2.28,1.53,2.88"/>
  <path class="cls-1" d="M167.24,153.21c.07.05.14.1.21.14"/>
  <path class="cls-1" d="M171.08,146.36s-.08-.05-.12-.08"/>
  <path class="cls-1" d="M171.2,146.43s.06.04.09.06"/>
  <path class="cls-1" d="M167.5,153.45c.12.07.25.13.38.18"/>
  <path class="cls-1" d="M171.12,146.6s.07.05.11.07"/>
  <line class="cls-1" x1="184.08" y1="260.88" x2="139.41" y2="232.78"/>
  <path class="cls-1" d="M167.15,153.45s.08.05.12.08"/>
  <path class="cls-1" d="M155.03,187.24c-.14,0-.27-.05-.39-.12"/>
  <path class="cls-1" d="M167.27,153.53s.08.05.12.07"/>
  <path class="cls-1" d="M170.96,146.28c-.34-.21-.69-.34-1.08-.4"/>
  <line class="cls-1" x1="167.51" y1="153.68" x2="167.27" y2="153.53"/>
  <line class="cls-1" x1="170.96" y1="146.28" x2="171.2" y2="146.43"/>
  <line class="cls-1" x1="167.59" y1="153.52" x2="167.4" y2="153.39"/>
  <path class="cls-1" d="M154.76,186.88c-.35-.22-.43-.7-.3-1.08"/>
  <path class="cls-1" d="M139.41,232.78c-.25.25-.4.61-.4.99,0,.37.16.74.46.93"/>
  <path class="cls-1" d="M244.68,96.45c-.35-.22-.43-.7-.3-1.09"/>
  <line class="cls-1" x1="229.33" y1="142.36" x2="229.98" y2="142.76"/>
  <line class="cls-1" x1="174.18" y1="148.59" x2="211.95" y2="172.34"/>
  <path class="cls-1" d="M217.59,175.6c-.25-.16-.51-.27-.79-.34"/>
  <path class="cls-1" d="M217.77,175.87c-.28-.17-.56-.29-.87-.36"/>
  <path class="cls-1" d="M195.47,63.71c-.27.12-.46.39-.53.7-.07.31,0,.65.21.87"/>
  <path class="cls-1" d="M213.9,182.85s.08.05.12.07"/>
  <path class="cls-1" d="M214.28,182.93c.35.22.7.34,1.09.39"/>
  <line class="cls-1" x1="170.92" y1="146.54" x2="171.21" y2="146.72"/>
  <line class="cls-1" x1="214.14" y1="183" x2="213.9" y2="182.85"/>
  <line class="cls-1" x1="217.59" y1="175.6" x2="217.83" y2="175.76"/>
  <path class="cls-1" d="M124.66,111.13c-.25-.15-.4-.43-.45-.73-.05-.3.01-.62.15-.88"/>
  <line class="cls-1" x1="124.66" y1="111.13" x2="79.52" y2="82.74"/>
  <path class="cls-1" d="M80.59,80.64c-.16-.1-.35-.14-.54-.12"/>
  <line class="cls-1" x1="80.59" y1="80.64" x2="123.66" y2="107.72"/>
  <line class="cls-1" x1="109.43" y1="156.8" x2="80.44" y2="83.32"/>
  <path class="cls-1" d="M80.05,80.52c-.46.05-.82.45-.95.93-.13.48,0,1.04.41,1.3"/>
  <path class="cls-1" d="M125.05,111.25c-.14,0-.27-.05-.39-.12"/>
  <path class="cls-1" d="M274.65,172.43c-.35-.22-.43-.7-.3-1.09"/>
  <path class="cls-1" d="M200.14,225.26c-.5-.05-.94.34-1.11.83-.17.5-.07,1.12.38,1.4"/>
  <path class="cls-1" d="M229.33,142.36c-.24.24-.39.59-.4.95,0,.36.12.72.4.93"/>
  <line class="cls-1" x1="217.95" y1="175.83" x2="229.33" y2="144.23"/>
  <line class="cls-1" x1="200.14" y1="225.26" x2="215.22" y2="183.4"/>
  <line class="cls-1" x1="243.61" y1="252.59" x2="203.21" y2="227.19"/>
  <path class="cls-1" d="M274.93,172.79s-.03,0-.05,0"/>
  <line class="cls-1" x1="200.24" y1="225.32" x2="200.14" y2="225.26"/>
  <line class="cls-1" x1="109.43" y1="156.8" x2="154.11" y2="184.9"/>
  <path class="cls-1" d="M124.78,110.9c-.35-.22-.43-.7-.3-1.08"/>
  <path class="cls-1" d="M274.47,172.62c-.47-.35-.5-1.06-.23-1.56"/>
  <line class="cls-1" x1="232.4" y1="146.16" x2="274.47" y2="172.62"/>
  <line class="cls-1" x1="241.59" y1="254" x2="202.42" y2="229.37"/>
  <line class="cls-1" x1="199.45" y1="227.5" x2="199.41" y2="227.48"/>
  <line class="cls-1" x1="229.33" y1="144.23" x2="229.43" y2="144.3"/>
  <line class="cls-1" x1="274.47" y1="172.62" x2="246.45" y2="250.42"/>
  <line class="cls-1" x1="274.88" y1="172.78" x2="246.69" y2="251.04"/>
  <path class="cls-1" d="M140.54,73.41c-.16-.1-.35-.14-.54-.12"/>
  <line class="cls-1" x1="140.54" y1="73.41" x2="183.61" y2="100.5"/>
  <line class="cls-1" x1="127.58" y1="108.3" x2="139.41" y2="75.48"/>
  <line class="cls-1" x1="184.55" y1="103.87" x2="156.52" y2="181.67"/>
  <line class="cls-1" x1="184.96" y1="104.03" x2="156.77" y2="182.28"/>
  <path class="cls-1" d="M140,73.3c-.44.05-.8.43-.94.89-.13.46-.04,1,.34,1.29"/>
  <path class="cls-1" d="M184.55,103.87c-.47-.35-.5-1.06-.23-1.56"/>
  <path class="cls-1" d="M259.9,58.85c-.44.05-.8.43-.94.89-.14.46-.04,1,.34,1.29"/>
  <line class="cls-1" x1="247.48" y1="93.85" x2="259.3" y2="61.03"/>
  <path class="cls-1" d="M304.63,89.23c-.4-.25-.44-.82-.24-1.23.21-.41.67-.66,1.07-.41"/>
  <path class="cls-1" d="M185,104.03s-.03,0-.05,0"/>
  <path class="cls-1" d="M184.73,103.67c-.35-.22-.43-.7-.3-1.09"/>
  <line class="cls-1" x1="139.41" y1="75.48" x2="184.55" y2="103.87"/>
  <line class="cls-1" x1="304.45" y1="89.42" x2="276.42" y2="167.22"/>
  <path class="cls-1" d="M304.45,89.42c-.38-.29-.48-.83-.34-1.29.13-.46.49-.84.94-.89"/>
  <path class="cls-1" d="M305.16,89.56c-.1.03-.2.03-.3.02"/>
  <line class="cls-1" x1="259.3" y1="61.03" x2="304.45" y2="89.42"/>
  <path class="cls-1" d="M305.58,87.36c.2.12.34.33.41.57"/>
  <path class="cls-1" d="M260.43,58.97c-.16-.1-.35-.14-.54-.12"/>
  <line class="cls-1" x1="260.43" y1="58.97" x2="305.58" y2="87.36"/>
  <path class="cls-1" d="M305.04,87.24c.19-.02.37.02.54.12"/>
  <line class="cls-1" x1="304.85" y1="89.58" x2="276.66" y2="167.83"/>
  <path class="cls-2" d="M328.97,458.27c.04.1.04.18.01.28-.03.14-.09.25-.16.36-.13.19-.27.34-.44.49-.33.29-.68.51-1.07.7s-.77.33-1.18.4c-.21.04-.41.05-.62.03-.12-.01-.24-.04-.35-.11-.08-.05-.14-.1-.17-.2"/>
  <path class="cls-2" d="M328.38,458.05c.07.18-.03.37-.12.5-.1.15-.22.27-.35.38-.26.23-.54.4-.84.55-.3.15-.61.26-.93.32-.16.03-.32.04-.49.02-.14-.02-.34-.06-.41-.24"/>
  <path class="cls-2" d="M280.53,427.81c.04.09.04.18.01.28-.03.14-.09.25-.16.36-.13.19-.28.34-.44.49-.33.29-.68.51-1.07.7-.38.19-.77.33-1.18.4-.21.04-.41.05-.62.03-.12-.01-.24-.04-.35-.11-.08-.05-.14-.1-.17-.2"/>
  <path class="cls-2" d="M279.94,427.58c.07.18-.03.37-.12.5-.1.15-.22.27-.35.38-.26.23-.54.4-.84.55s-.61.26-.93.31c-.16.03-.32.04-.49.02-.14-.02-.34-.06-.41-.24"/>
  <path class="cls-2" d="M109.68,486.89s-.02.01-.03.01c-.03,0-.05,0-.08-.01-.11-.02-.21-.06-.31-.09-.14-.05-.27-.1-.41-.15-.27-.11-.54-.22-.81-.34-.27-.12-.53-.24-.8-.37-.13-.07-.26-.13-.39-.2-.1-.05-.19-.11-.28-.17-.02-.02-.04-.03-.06-.05,0,0-.02-.02-.01-.03"/>
  <path class="cls-2" d="M58.78,455.39s-.03.01-.04.01c-.03,0-.07,0-.1-.01-.13-.03-.26-.07-.39-.12-.17-.06-.35-.13-.52-.19-.34-.14-.69-.28-1.03-.43-.34-.15-.68-.31-1.01-.47-.17-.08-.33-.17-.5-.26-.12-.07-.24-.13-.36-.22-.03-.02-.06-.04-.08-.07,0,0-.02-.02-.02-.04"/>
  <path class="cls-2" d="M55.34,453.31s0,0,0,0"/>
  <path class="cls-2" d="M58.52,454.72s-.02.01-.03.01c-.03,0-.05,0-.08-.01-.11-.02-.21-.06-.31-.09-.14-.05-.27-.1-.41-.15-.27-.11-.54-.22-.81-.34-.27-.12-.53-.24-.8-.37-.13-.07-.26-.13-.39-.2-.1-.05-.19-.11-.28-.17-.02-.02-.04-.03-.06-.05,0,0-.02-.02-.01-.03"/>
  <path class="cls-2" d="M58.51,454.69s.01.01.01.02"/>
  <path class="cls-2" d="M328.31,457.94s.05.06.07.1"/>
  <path class="cls-2" d="M328.29,457.89c.12.04.24.08.36.12"/>
  <path class="cls-2" d="M325.24,459.58s-.02-.08-.02-.12"/>
  <path class="cls-2" d="M328.65,458.01c.05.02.1.04.15.07"/>
  <path class="cls-2" d="M325.03,459.77c.06-.12.11-.25.17-.37"/>
  <path class="cls-2" d="M329.69,460.09c.02.06.04.13.05.2.03.21-.01.42-.09.6,0,0,0,0,0,.01-.02.03-.03.07-.05.1-.1.19-.25.36-.43.53-.16.15-.34.29-.54.42-.42.27-.89.47-1.34.58-.38.09-.72.1-1.01,0-.08-.02-.15-.06-.22-.1-.15-.09-.27-.23-.34-.4"/>
  <path class="cls-2" d="M324.99,460.21c-.06-.15-.02-.31.04-.44"/>
  <line class="cls-2" x1="325.71" y1="462.03" x2="325" y2="460.23"/>
  <line class="cls-2" x1="328.97" y1="458.27" x2="329.69" y2="460.09"/>
  <path class="cls-2" d="M328.8,458.07c.08.05.13.1.17.2"/>
  <path class="cls-2" d="M279.88,427.48s.05.06.07.1"/>
  <path class="cls-2" d="M279.85,427.43c.12.04.24.08.36.12"/>
  <path class="cls-2" d="M276.8,429.12s-.02-.08-.02-.12"/>
  <path class="cls-2" d="M281.25,429.63c.02.06.04.13.05.2.03.21-.01.42-.09.6,0,0,0,0,0,.01-.02.03-.03.07-.05.1-.11.19-.25.37-.43.53-.16.15-.34.29-.54.42-.42.27-.89.47-1.34.58-.38.09-.72.1-1.01,0-.08-.03-.15-.06-.22-.1-.15-.09-.27-.23-.34-.4"/>
  <path class="cls-2" d="M280.21,427.55c.05.02.1.04.15.07"/>
  <path class="cls-2" d="M276.59,429.31c.05-.12.11-.25.17-.37"/>
  <path class="cls-2" d="M276.55,429.75c-.06-.15-.02-.31.04-.44"/>
  <line class="cls-2" x1="277.27" y1="431.57" x2="276.56" y2="429.77"/>
  <line class="cls-2" x1="280.53" y1="427.81" x2="281.25" y2="429.63"/>
  <path class="cls-2" d="M280.36,427.61c.08.05.13.1.17.2"/>
  <path class="cls-2" d="M109.93,487.55s-.03.01-.04.01c-.03,0-.07,0-.1-.01-.13-.03-.26-.07-.39-.12-.18-.06-.35-.13-.52-.19-.34-.14-.69-.28-1.03-.43-.34-.15-.68-.31-1.01-.47-.17-.08-.33-.17-.5-.26-.12-.07-.24-.14-.36-.22-.03-.02-.06-.04-.08-.07,0,0-.02-.02-.02-.04"/>
  <path class="cls-2" d="M109.66,486.86s.01.01.01.02"/>
  <path class="cls-2" d="M109.67,486.88c.08.22.17.44.26.66"/>
  <path class="cls-2" d="M109.21,489.54c-.05.14-.15.25-.27.3-.08.04-.15.05-.22.05-.05,0-.1,0-.14-.01-.12-.02-.22-.06-.39-.11-.14-.05-.31-.11-.49-.19-.39-.15-.82-.35-1.23-.54-.42-.2-.73-.36-.94-.49-.07-.04-.13-.08-.19-.13-.06-.05-.12-.11-.17-.24-.05-.13-.06-.28,0-.42"/>
  <path class="cls-2" d="M106.5,485.47s.01,0,.02,0"/>
  <path class="cls-2" d="M109.93,487.54s0,0,0,.01"/>
  <path class="cls-2" d="M109.67,486.88s0,0,0,.01"/>
  <path class="cls-2" d="M105.9,485.75c.2-.09.4-.19.59-.28"/>
  <path class="cls-2" d="M105.89,485.76s0,0,0,0"/>
  <line class="cls-2" x1="105.18" y1="487.74" x2="105.89" y2="485.76"/>
  <line class="cls-2" x1="109.93" y1="487.55" x2="109.21" y2="489.54"/>
  <path class="cls-2" d="M106.49,485.47s0,0,0,0"/>
  <path class="cls-2" d="M58.52,454.71c.08.22.17.44.26.66"/>
  <path class="cls-2" d="M55.34,453.3s.02,0,.02,0"/>
  <path class="cls-2" d="M58.78,455.37s0,0,0,.01"/>
  <path class="cls-2" d="M58.52,454.71s0,0,0,0"/>
  <path class="cls-2" d="M54.75,453.58c.2-.09.4-.19.59-.28"/>
  <path class="cls-2" d="M58.06,457.38c-.05.14-.15.25-.27.3-.08.04-.15.05-.22.05-.05,0-.1,0-.14-.01-.12-.02-.22-.06-.39-.11-.14-.05-.31-.11-.49-.19-.39-.15-.82-.35-1.23-.54-.41-.2-.73-.36-.94-.49-.07-.04-.13-.08-.19-.13-.06-.05-.12-.11-.17-.24-.05-.13-.06-.28,0-.42"/>
  <path class="cls-2" d="M54.74,453.59s0,0,0,0"/>
  <line class="cls-2" x1="54.02" y1="455.58" x2="54.74" y2="453.59"/>
  <line class="cls-2" x1="58.78" y1="455.39" x2="58.06" y2="457.38"/>
  <path class="cls-2" d="M144.73,55.61s.06.04.09.06c.01,0,.03.02.04.03,0,0,.03.03.03.04"/>
  <path class="cls-2" d="M73.64,63.89c.07.18-.03.37-.12.49-.1.15-.21.27-.34.38-.26.23-.53.4-.83.54-.3.15-.6.25-.92.31-.16.03-.32.04-.48.02-.14-.02-.34-.06-.41-.24"/>
  <line class="cls-2" x1="136.25" y1="231.95" x2="70.55" y2="65.42"/>
  <line class="cls-2" x1="141.7" y1="245.79" x2="137.52" y2="235.19"/>
  <path class="cls-2" d="M122.08,94.35c.07.18-.03.37-.12.5-.1.15-.21.27-.34.38-.26.23-.53.4-.83.54s-.6.25-.92.31c-.16.03-.32.04-.48.02-.14-.02-.34-.06-.41-.24"/>
  <line class="cls-2" x1="155.85" y1="189.33" x2="118.99" y2="95.88"/>
  <line class="cls-2" x1="185.83" y1="265.31" x2="157.76" y2="194.16"/>
  <line class="cls-2" x1="159.65" y1="189.59" x2="187.59" y2="260.42"/>
  <line class="cls-2" x1="122.08" y1="94.35" x2="157.62" y2="184.44"/>
  <path class="cls-2" d="M182.03,87.13c.07.18-.03.37-.12.5-.1.15-.21.27-.34.38-.26.23-.53.4-.83.54-.3.14-.6.25-.92.31-.16.03-.32.04-.48.02-.14-.02-.34-.06-.41-.24"/>
  <line class="cls-2" x1="185.83" y1="106.13" x2="178.94" y2="88.65"/>
  <line class="cls-2" x1="215.8" y1="182.11" x2="187.73" y2="110.95"/>
  <line class="cls-2" x1="245.78" y1="258.09" x2="217.71" y2="186.94"/>
  <line class="cls-2" x1="325.31" y1="459.68" x2="247.68" y2="262.92"/>
  <line class="cls-2" x1="249.57" y1="258.35" x2="328.4" y2="458.17"/>
  <line class="cls-2" x1="219.47" y1="182.04" x2="247.54" y2="253.2"/>
  <line class="cls-2" x1="189.62" y1="106.38" x2="217.57" y2="177.22"/>
  <line class="cls-2" x1="182.03" y1="87.13" x2="187.59" y2="101.23"/>
  <line class="cls-2" x1="249.57" y1="99.16" x2="277.52" y2="169.99"/>
  <line class="cls-2" x1="241.98" y1="79.9" x2="247.54" y2="94.01"/>
  <line class="cls-2" x1="245.78" y1="98.9" x2="238.88" y2="81.43"/>
  <line class="cls-2" x1="275.75" y1="174.89" x2="247.68" y2="103.73"/>
  <line class="cls-2" x1="214.23" y1="261.08" x2="279.96" y2="427.71"/>
  <line class="cls-2" x1="173.15" y1="156.95" x2="199.57" y2="223.93"/>
  <line class="cls-2" x1="133.59" y1="56.67" x2="140.15" y2="73.29"/>
  <line class="cls-2" x1="138.41" y1="78.25" x2="130.5" y2="58.19"/>
  <line class="cls-2" x1="196.05" y1="224.35" x2="170.35" y2="159.21"/>
  <line class="cls-2" x1="198.42" y1="230.37" x2="197.47" y2="227.97"/>
  <line class="cls-2" x1="276.87" y1="429.22" x2="210.7" y2="261.51"/>
  <line class="cls-2" x1="137.56" y1="235.27" x2="58.49" y2="454.73"/>
  <line class="cls-2" x1="184.77" y1="94.09" x2="195.6" y2="64.03"/>
  <line class="cls-2" x1="55.35" y1="453.34" x2="135.65" y2="230.44"/>
  <path class="cls-2" d="M159.02,189.56c-.4-.25-.44-.82-.24-1.23.21-.41.67-.66,1.07-.41"/>
  <path class="cls-2" d="M159.85,187.92c.32.2.42.64.32,1.01-.1.37-.38.68-.74.72"/>
  <path class="cls-2" d="M159.44,189.65c-.15.02-.28,0-.42-.09"/>
  <path class="cls-2" d="M188.99,106.35c-.4-.25-.44-.82-.24-1.23.21-.41.67-.66,1.07-.41"/>
  <path class="cls-2" d="M189.83,104.72c.32.2.42.64.32,1.01-.1.37-.38.68-.74.72"/>
  <path class="cls-2" d="M189.41,106.45c-.15.02-.28,0-.42-.09"/>
  <path class="cls-2" d="M278.92,175.11c-.4-.25-.44-.82-.24-1.23s.67-.66,1.07-.41"/>
  <path class="cls-2" d="M279.75,173.48c.32.2.42.64.32,1.01-.1.37-.38.68-.74.72"/>
  <path class="cls-2" d="M279.33,175.2c-.15.02-.28,0-.42-.09"/>
  <path class="cls-2" d="M309.72,90.27c.32.2.42.64.32,1.01-.1.37-.38.68-.74.72"/>
  <line class="cls-2" x1="306.25" y1="90.24" x2="304.63" y2="89.23"/>
  <line class="cls-2" x1="305.46" y1="87.59" x2="306.88" y2="88.48"/>
  <path class="cls-2" d="M309.31,92c-.15.02-.28,0-.42-.09"/>
  <path class="cls-2" d="M248.94,258.32c-.4-.25-.44-.82-.24-1.23.21-.41.67-.66,1.07-.41"/>
  <path class="cls-2" d="M249.77,256.68c.32.2.42.64.32,1.01-.1.37-.38.68-.74.72"/>
  <path class="cls-2" d="M195.47,222.9c-.27.12-.46.39-.53.7-.07.31,0,.65.21.87"/>
  <path class="cls-2" d="M249.36,258.41c-.15.02-.28,0-.42-.09"/>
  <path class="cls-2" d="M188.99,265.54c-.4-.25-.44-.82-.24-1.23.21-.41.67-.66,1.07-.41"/>
  <path class="cls-2" d="M189.83,263.9c.32.2.42.64.32,1.01-.1.37-.38.68-.74.72"/>
  <path class="cls-2" d="M189.41,265.63c-.15.02-.28,0-.42-.09"/>
  <line class="cls-2" x1="244.72" y1="86.87" x2="261.64" y2="39.9"/>
  <line class="cls-2" x1="214.75" y1="170.07" x2="225.57" y2="140.02"/>
  <line class="cls-2" x1="195.15" y1="224.47" x2="195.6" y2="223.22"/>
  <line class="cls-2" x1="197.54" y1="227.96" x2="193.62" y2="238.84"/>
  <line class="cls-2" x1="213.82" y1="182.77" x2="199.27" y2="223.15"/>
  <line class="cls-2" x1="258.06" y1="59.95" x2="246.63" y2="91.69"/>
  <line class="cls-2" x1="249.31" y1="258.41" x2="244.77" y2="271"/>
  <line class="cls-2" x1="279.28" y1="175.21" x2="249.9" y2="256.78"/>
  <line class="cls-2" x1="241.63" y1="269.6" x2="312.79" y2="72.07"/>
  <line class="cls-2" x1="151.71" y1="200.85" x2="192.89" y2="86.52"/>
  <line class="cls-2" x1="159.38" y1="189.65" x2="154.85" y2="202.24"/>
  <line class="cls-2" x1="189.36" y1="106.45" x2="159.97" y2="188.02"/>
  <line class="cls-2" x1="106.51" y1="485.5" x2="252.84" y2="79.29"/>
  <line class="cls-2" x1="189.36" y1="265.64" x2="109.65" y2="486.9"/>
  <line class="cls-2" x1="249.31" y1="99.23" x2="189.94" y2="264.01"/>
  <path class="cls-2" d="M183.53,264.58c-.34-.21-.51-.62-.51-1.04"/>
  <line class="cls-2" x1="245.47" y1="257.32" x2="189.94" y2="264.01"/>
  <line class="cls-2" x1="191.37" y1="260.05" x2="244.05" y2="253.7"/>
  <line class="cls-2" x1="244.1" y1="253.84" x2="191.31" y2="260.2"/>
  <path class="cls-2" d="M183.93,260.95c-.64.08-1.11.74-1.11,1.43"/>
  <path class="cls-2" d="M183.02,262.5c0-.69.47-1.36,1.11-1.43"/>
  <path class="cls-2" d="M136.64,235.09c-.34-.21-.51-.62-.51-1.04"/>
  <line class="cls-2" x1="139.8" y1="234.92" x2="137.23" y2="235.22"/>
  <line class="cls-2" x1="199.37" y1="227.74" x2="175.82" y2="230.58"/>
  <line class="cls-2" x1="174.39" y1="226.96" x2="200.67" y2="223.79"/>
  <line class="cls-2" x1="137.04" y1="231.46" x2="138.8" y2="231.25"/>
  <line class="cls-2" x1="138.85" y1="231.39" x2="137.23" y2="231.58"/>
  <line class="cls-2" x1="200.61" y1="223.95" x2="174.45" y2="227.1"/>
  <path class="cls-2" d="M137.04,231.46c-.64.08-1.11.74-1.11,1.43"/>
  <path class="cls-2" d="M136.13,233.02c0-.69.47-1.36,1.11-1.43"/>
  <path class="cls-2" d="M193.54,49.44c.07.18-.03.37-.12.5-.1.15-.21.27-.34.38-.26.23-.53.4-.83.54-.3.15-.6.25-.92.31-.16.03-.32.04-.48.02-.14-.02-.34-.06-.41-.24"/>
  <line class="cls-2" x1="228.33" y1="147" x2="190.45" y2="50.97"/>
  <line class="cls-2" x1="193.54" y1="49.44" x2="200.09" y2="66.07"/>
  <line class="cls-2" x1="124.82" y1="101.31" x2="135.65" y2="71.26"/>
  <line class="cls-2" x1="100.55" y1="168.68" x2="105.68" y2="154.46"/>
  <line class="cls-2" x1="189.62" y1="265.57" x2="193.24" y2="274.74"/>
  <line class="cls-2" x1="202.09" y1="230.3" x2="212.8" y2="257.47"/>
  <line class="cls-2" x1="209.28" y1="257.89" x2="200.32" y2="235.19"/>
  <line class="cls-2" x1="168.44" y1="154.39" x2="168.3" y2="154.02"/>
  <line class="cls-2" x1="197.36" y1="59.14" x2="201.69" y2="47.13"/>
  <line class="cls-2" x1="279.55" y1="175.14" x2="283.16" y2="184.31"/>
  <line class="cls-2" x1="197.5" y1="68.86" x2="186.68" y2="98.92"/>
  <line class="cls-2" x1="124.96" y1="111.01" x2="124.78" y2="110.9"/>
  <line class="cls-2" x1="274.83" y1="172.54" x2="274.65" y2="172.43"/>
  <line class="cls-2" x1="242.62" y1="92.69" x2="242.96" y2="91.76"/>
  <line class="cls-2" x1="197.36" y1="218.33" x2="210.92" y2="180.7"/>
  <line class="cls-2" x1="184.15" y1="261.06" x2="184.12" y2="261.07"/>
  <line class="cls-2" x1="122.73" y1="107.14" x2="123.06" y2="106.21"/>
  <line class="cls-2" x1="137.41" y1="66.37" x2="141.74" y2="54.35"/>
  <path class="cls-2" d="M105.55,154.14c-.27.12-.46.39-.53.7s0,.65.21.87"/>
  <line class="cls-2" x1="154.93" y1="186.99" x2="154.76" y2="186.88"/>
  <line class="cls-2" x1="109.08" y1="158.16" x2="108.19" y2="157.6"/>
  <path class="cls-2" d="M135.52,70.94c-.27.12-.46.39-.53.7-.07.31,0,.65.21.87"/>
  <line class="cls-2" x1="184.9" y1="103.78" x2="184.73" y2="103.67"/>
  <line class="cls-2" x1="139.06" y1="74.95" x2="138.17" y2="74.39"/>
  <line class="cls-2" x1="137.56" y1="76.09" x2="126.73" y2="106.14"/>
  <line class="cls-2" x1="107.58" y1="159.29" x2="103.69" y2="170.08"/>
  <line class="cls-2" x1="309.26" y1="92" x2="279.87" y2="173.57"/>
  <path class="cls-2" d="M135.52,230.12c-.27.12-.46.39-.53.7-.07.31,0,.65.21.87"/>
  <line class="cls-2" x1="185.53" y1="264.54" x2="184.12" y2="264.71"/>
  <line class="cls-2" x1="190.14" y1="276.25" x2="187.73" y2="270.14"/>
  <path class="cls-2" d="M241.98,79.9c.07.18-.03.37-.12.5-.1.15-.21.27-.34.38-.26.23-.53.4-.83.54-.3.14-.6.25-.92.31-.16.03-.32.04-.48.02-.14-.02-.34-.06-.41-.24"/>
  <line class="cls-2" x1="280.07" y1="185.82" x2="277.66" y2="179.71"/>
  <path class="cls-2" d="M133.59,56.67c.07.18-.03.37-.12.5-.1.15-.21.27-.34.38-.26.23-.53.4-.83.54-.3.15-.6.25-.92.31-.16.03-.32.04-.48.02-.14-.02-.34-.06-.41-.24"/>
  <line class="cls-2" x1="141.54" y1="236.01" x2="144.8" y2="244.28"/>
  <line class="cls-2" x1="73.64" y1="63.89" x2="80.2" y2="80.51"/>
  <path class="cls-2" d="M70.54,65.4c-.07-.17.02-.35.1-.47.09-.14.2-.26.32-.37.24-.22.5-.39.78-.53s.56-.26.87-.33c.24-.05.66-.12.9.03"/>
  <path class="cls-2" d="M144.8,244.28c.07.18-.03.37-.12.5-.1.15-.21.27-.34.38-.26.23-.53.4-.83.54-.3.14-.6.25-.92.31-.16.03-.32.04-.48.02-.14-.02-.34-.06-.41-.24"/>
  <path class="cls-2" d="M73.51,63.74c.06.04.1.08.13.15"/>
  <path class="cls-2" d="M118.98,95.86c-.07-.17.02-.35.1-.47.09-.14.2-.26.32-.37.24-.22.5-.39.78-.53.28-.14.56-.26.87-.33.24-.06.66-.12.9.03"/>
  <path class="cls-2" d="M193.24,274.74c.07.18-.03.37-.12.5-.1.15-.21.27-.34.38-.26.23-.53.4-.83.54-.3.15-.6.25-.92.31-.16.03-.32.04-.48.02-.14-.02-.34-.06-.41-.24"/>
  <path class="cls-2" d="M121.95,94.2c.06.04.1.08.13.15"/>
  <path class="cls-2" d="M178.93,88.64c-.07-.17.02-.35.1-.47.09-.14.2-.26.32-.37.24-.22.5-.39.78-.53.28-.14.56-.26.87-.33.24-.06.66-.12.9.03"/>
  <path class="cls-2" d="M181.9,86.98c.06.04.1.08.13.15"/>
  <path class="cls-2" d="M283.16,184.31c.07.18-.03.37-.12.5-.1.15-.21.27-.34.38-.26.23-.53.4-.83.54-.3.14-.6.25-.92.31-.16.03-.32.04-.48.02-.14-.02-.34-.06-.41-.24"/>
  <path class="cls-2" d="M238.88,81.41c-.07-.17.02-.35.1-.47.09-.14.2-.26.32-.37.24-.22.5-.39.78-.53.28-.14.56-.26.87-.33.24-.05.66-.12.9.03"/>
  <path class="cls-2" d="M241.84,79.75c.06.04.1.08.13.15"/>
  <line class="cls-2" x1="182.68" y1="99.91" x2="183.01" y2="98.98"/>
  <path class="cls-2" d="M130.49,58.18c-.07-.17.02-.35.1-.47.09-.14.2-.26.32-.37.24-.22.5-.39.78-.53s.56-.26.87-.33c.24-.05.66-.12.9.03"/>
  <path class="cls-2" d="M133.46,56.51c.06.04.1.08.13.15"/>
  <path class="cls-2" d="M204.83,48.52s-.02.01-.03.01c-.03,0-.05,0-.08-.01-.1-.02-.2-.06-.31-.09-.14-.05-.27-.1-.4-.15-.27-.11-.53-.22-.8-.34-.26-.12-.53-.24-.79-.37-.13-.06-.26-.13-.39-.2-.1-.05-.19-.1-.28-.17-.02-.02-.04-.03-.06-.05,0,0-.02-.02-.01-.03"/>
  <path class="cls-2" d="M201.69,47.13s.09,0,.1,0c.1.02.19.05.29.08.13.04.25.09.38.14.25.1.5.2.75.31.38.17,1.11.5,1.47.73"/>
  <line class="cls-2" x1="204.83" y1="48.52" x2="199.27" y2="63.97"/>
  <path class="cls-2" d="M204.68,48.39s.06.04.09.06c.01,0,.03.02.04.03,0,0,.03.03.03.04"/>
  <line class="cls-2" x1="246.08" y1="257.24" x2="246.08" y2="257.24"/>
  <line class="cls-2" x1="183.93" y1="260.95" x2="184.1" y2="260.93"/>
  <path class="cls-2" d="M225.45,139.69c-.27.12-.46.39-.53.7s0,.65.21.87"/>
  <line class="cls-2" x1="228.98" y1="143.71" x2="228.09" y2="143.15"/>
  <line class="cls-2" x1="227.48" y1="144.84" x2="216.65" y2="174.9"/>
  <line class="cls-2" x1="138.8" y1="72.63" x2="139.89" y2="73.32"/>
  <line class="cls-2" x1="124.97" y1="111.02" x2="124.97" y2="111.03"/>
  <line class="cls-2" x1="190.48" y1="237.44" x2="193.73" y2="228.42"/>
  <path class="cls-2" d="M255.69,56.42c-.34.01-.63.28-.76.62-.13.34-.09.76.17,1.02"/>
  <line class="cls-2" x1="258.95" y1="60.51" x2="258.06" y2="59.95"/>
  <line class="cls-2" x1="258.7" y1="58.18" x2="259.79" y2="58.87"/>
  <line class="cls-2" x1="244.87" y1="96.57" x2="244.86" y2="96.58"/>
  <path class="cls-2" d="M127.69,112.72c-.4-.25-.44-.82-.24-1.23.21-.41.67-.66,1.07-.41"/>
  <path class="cls-2" d="M128.52,111.09c.32.2.42.64.32,1.01-.1.37-.38.68-.74.72"/>
  <path class="cls-2" d="M128.1,112.82c-.15.02-.28,0-.42-.09"/>
  <path class="cls-2" d="M308.89,91.91c-.4-.25-.44-.82-.24-1.23.21-.41.67-.66,1.07-.41"/>
  <path class="cls-2" d="M261.64,39.9s.09,0,.1,0c.1.02.19.05.29.08.13.04.25.09.38.14.25.1.5.2.75.31.38.17,1.11.5,1.47.73"/>
  <path class="cls-2" d="M193.62,238.84s-.02,0-.03,0c-.03,0-.05,0-.08,0-.1-.02-.2-.06-.31-.09-.14-.05-.27-.1-.4-.15-.27-.1-.53-.22-.8-.34-.26-.12-.53-.24-.79-.37-.13-.07-.26-.13-.39-.2-.1-.05-.19-.1-.28-.17-.02-.02-.04-.03-.06-.05,0,0-.02-.02-.01-.03"/>
  <path class="cls-2" d="M264.78,41.3s-.02.01-.03.01c-.03,0-.05,0-.08-.01-.1-.02-.2-.06-.31-.09-.14-.05-.27-.1-.4-.15-.27-.11-.53-.22-.8-.34-.26-.12-.53-.24-.79-.37-.13-.06-.26-.13-.39-.2-.1-.05-.19-.1-.28-.17-.02-.02-.04-.03-.06-.05,0,0-.02-.02-.01-.03"/>
  <line class="cls-2" x1="264.78" y1="41.3" x2="258.7" y2="58.18"/>
  <path class="cls-2" d="M264.63,41.17s.06.04.08.06c.01,0,.03.02.04.03,0,0,.03.03.03.04"/>
  <path class="cls-2" d="M244.77,271s-.02.01-.03.01c-.03,0-.05,0-.08-.01-.1-.02-.21-.06-.31-.09-.14-.05-.27-.1-.4-.15-.27-.11-.53-.22-.8-.34-.26-.12-.53-.24-.79-.37-.13-.06-.26-.13-.39-.2-.09-.05-.19-.1-.28-.17-.02-.02-.04-.03-.06-.05,0,0-.02-.02-.01-.03"/>
  <path class="cls-2" d="M315.93,73.47s-.02.01-.03.01c-.03,0-.05,0-.08-.01-.1-.02-.21-.06-.31-.09-.14-.05-.27-.1-.4-.15-.27-.11-.53-.22-.8-.34-.26-.12-.53-.24-.79-.37-.13-.07-.26-.13-.39-.2-.09-.05-.19-.1-.28-.17-.02-.02-.04-.03-.06-.05,0,0-.02-.02-.01-.03"/>
  <path class="cls-2" d="M312.79,72.07s.09,0,.1,0c.1.02.19.05.29.08.13.04.25.09.38.14.25.1.5.2.75.31.38.17,1.11.5,1.47.73"/>
  <line class="cls-2" x1="315.93" y1="73.47" x2="309.84" y2="90.37"/>
  <path class="cls-2" d="M315.78,73.33s.06.04.08.06c.01.01.03.02.04.03,0,0,.03.03.03.04"/>
  <line class="cls-2" x1="196.04" y1="87.91" x2="189.95" y2="104.81"/>
  <line class="cls-2" x1="255.98" y1="80.69" x2="249.9" y2="97.59"/>
  <path class="cls-2" d="M192.89,86.52s.09,0,.1,0c.1.02.19.05.29.08.13.04.25.09.38.14.25.1.5.2.75.31.38.17,1.11.5,1.47.73"/>
  <path class="cls-2" d="M154.85,202.24s-.02.01-.03.01c-.03,0-.05,0-.08-.01-.1-.02-.2-.06-.31-.09-.14-.05-.27-.1-.4-.15-.27-.11-.53-.22-.8-.34-.26-.12-.53-.24-.79-.37-.13-.06-.26-.13-.39-.2-.09-.05-.19-.1-.28-.17-.02-.02-.04-.03-.06-.05,0,0-.02-.02-.01-.03"/>
  <path class="cls-2" d="M196.04,87.91s-.02,0-.03,0c-.03,0-.05,0-.08,0-.1-.02-.2-.06-.31-.09-.14-.05-.27-.1-.4-.15-.27-.1-.53-.22-.8-.34-.26-.12-.53-.24-.79-.37-.13-.07-.26-.13-.39-.2-.09-.05-.19-.1-.28-.17-.02-.02-.04-.03-.06-.05,0,0-.02-.02-.01-.03"/>
  <path class="cls-2" d="M195.88,87.78s.06.04.08.06c.01.01.03.02.04.03,0,0,.03.03.03.04"/>
  <path class="cls-2" d="M252.84,79.29s.09,0,.1,0c.1.02.19.05.29.08.13.04.25.09.38.14.25.1.5.2.75.31.38.17,1.11.5,1.47.73"/>
  <path class="cls-2" d="M255.98,80.69s-.02,0-.03,0c-.03,0-.05,0-.08,0-.1-.02-.21-.06-.31-.09-.14-.05-.27-.1-.4-.15-.27-.1-.53-.22-.8-.34-.26-.12-.53-.24-.79-.37-.13-.07-.26-.13-.39-.2-.09-.05-.19-.1-.28-.17-.02-.02-.04-.03-.06-.05,0,0-.02-.02-.01-.03"/>
  <path class="cls-2" d="M255.83,80.56s.06.04.08.06c.01.01.03.02.04.03,0,0,.03.03.03.04"/>
  <path class="cls-2" d="M183.33,264.46s.07.04.1.05"/>
  <line class="cls-2" x1="183.53" y1="264.58" x2="183.33" y2="264.46"/>
  <path class="cls-2" d="M182.82,263.42c0,.42.17.82.51,1.04"/>
  <path class="cls-2" d="M184.12,264.71c-.21.03-.41-.02-.59-.13"/>
  <line class="cls-2" x1="182.82" y1="263.42" x2="182.82" y2="262.38"/>
  <line class="cls-2" x1="183.02" y1="262.5" x2="183.02" y2="263.54"/>
  <path class="cls-2" d="M136.44,234.97s.07.04.1.05"/>
  <line class="cls-2" x1="136.64" y1="235.09" x2="136.44" y2="234.97"/>
  <path class="cls-2" d="M135.93,233.94c0,.42.17.82.51,1.04"/>
  <path class="cls-2" d="M137.23,235.22c-.21.03-.41-.02-.59-.13"/>
  <line class="cls-2" x1="135.93" y1="233.94" x2="135.93" y2="232.9"/>
  <line class="cls-2" x1="136.13" y1="233.02" x2="136.13" y2="234.06"/>
  <path class="cls-2" d="M190.44,50.95c-.07-.17.02-.35.1-.47.09-.14.2-.26.32-.37.24-.22.5-.39.78-.53s.56-.26.87-.33c.24-.06.66-.12.9.03"/>
  <path class="cls-2" d="M193.4,49.29c.06.04.1.08.13.15"/>
  <path class="cls-2" d="M103.69,170.08s-.02,0-.03.01c-.03,0-.05,0-.08-.01-.1-.02-.21-.06-.31-.09-.14-.05-.27-.1-.4-.15-.27-.1-.53-.22-.8-.34-.26-.12-.53-.24-.79-.37-.13-.06-.26-.13-.39-.2-.1-.05-.19-.1-.28-.17-.02-.02-.04-.03-.06-.05,0,0-.02-.02-.01-.03"/>
  <path class="cls-2" d="M144.88,55.75s-.02.01-.03.01c-.03,0-.05,0-.08-.01-.1-.02-.21-.06-.31-.09-.14-.05-.27-.1-.4-.15-.27-.11-.53-.22-.8-.34-.26-.12-.53-.24-.79-.37-.13-.06-.26-.13-.39-.2-.1-.05-.19-.1-.28-.17-.02-.02-.04-.03-.06-.05,0,0-.02-.02-.01-.03"/>
  <path class="cls-2" d="M141.74,54.35s.09,0,.1,0c.1.02.19.05.29.08.13.04.25.09.38.14.25.1.5.2.75.31.38.17,1.11.5,1.47.73"/>
  <line class="cls-2" x1="144.88" y1="55.75" x2="139.32" y2="71.19"/>
</svg>