<?xml version="1.0" encoding="UTF-8"?>
<svg id="Calque_2" data-name="Calque 2" xmlns="http://www.w3.org/2000/svg" viewBox="0 0 320.69 410.34">
  <defs>
    <style>
      .cls-1 {
        fill: #6f06ad;
      }

      .cls-1, .cls-2, .cls-3, .cls-4 {
        stroke-width: 0px;
      }

      .cls-2 {
        fill: #7b077d;
      }

      .cls-3 {
        fill: #ec9126;
      }

      .cls-4 {
        fill: #776c0a;
      }

      .cls-5 {
        stroke-width: .25px;
      }

      .cls-5, .cls-6 {
        fill: none;
        stroke: #000;
        stroke-miterlimit: 10;
      }

      .cls-6 {
        stroke-width: .5px;
      }
    </style>
  </defs>
  <polygon class="cls-2" points="212.1 149.2 180.41 157.59 179.34 160.65 212.64 247.22 212.77 247.88 213.26 248.06 214.02 248.87 213.88 249.71 213.3 250.34 247.12 241.73 247.53 240.83 247.53 240.21 247.03 239.58 246.37 239.32 212.86 151.86 213.39 151.15 213.39 150.61 213.12 149.99 212.45 149.54 212.1 149.2"/>
  <polygon class="cls-3" points="181.95 337.84 212.96 329.73 213.26 329.05 212.81 327.38 246.02 242.15 213.3 250.34 217.89 263.3 214.63 264.97 210.84 256.4 180.51 335.41 181.34 336.4 181.95 337.84"/>
  <polygon class="cls-2" points="77.08 247.28 110.46 238.8 127.42 283.14 109.11 331.38 77.08 247.28"/>
  <polygon class="cls-2" points="129.74 289.22 143.69 326.05 144.52 326.43 144.9 327.18 144.9 328 144.14 328.83 122.91 334.23 112.34 334.15 129.74 289.22"/>
  <polygon class="cls-4" points="143.75 148.06 112.22 156.24 110.96 159.06 125.24 197.51 143.46 151.03 144.57 150.51 145.02 149.84 145.02 149.17 144.72 148.58 143.75 148.06"/>
  <polygon class="cls-4" points="108.5 165.38 123.08 203.54 110.47 236.75 111.04 237.47 110.59 238.34 110.46 238.8 77.08 247.28 108.5 165.38"/>
  <line class="cls-5" x1="108.23" y1="155.04" x2="108.23" y2="61.22"/>
  <line class="cls-5" x1="173.35" y1="156.69" x2="173.35" y2="61.77"/>
  <line class="cls-5" x1="212.42" y1="149.55" x2="212.42" y2="63.41"/>
  <line class="cls-5" x1="144.05" y1="147.36" x2="144.05" y2="57.38"/>
  <path class="cls-5" d="M177.82,234.81c.28-.07.57-.11.86-.1"/>
  <path class="cls-5" d="M146.61,244.86c.11.13.21.26.31.4"/>
  <path class="cls-5" d="M178.68,234.71c.17,0,.34.02.5.05"/>
  <path class="cls-5" d="M180.79,242.48c-.39.3-.79.5-1.24.62"/>
  <line class="cls-5" x1="147.49" y1="242.58" x2="177.82" y2="234.81"/>
  <line class="cls-5" x1="179.54" y1="243.1" x2="146.3" y2="251.62"/>
  <path class="cls-5" d="M212.25,330.1c.09,0,.18,0,.27-.03"/>
  <path class="cls-5" d="M213.19,250.38c-.07.02-.14.03-.22.03"/>
  <path class="cls-5" d="M143.94,328.68c.09,0,.18,0,.26-.03"/>
  <path class="cls-5" d="M144.21,328.65c.62-.16.97-.86.84-1.53s-.7-1.16-1.33-1.03"/>
  <path class="cls-5" d="M212.66,247.82s.03,0,.05-.01"/>
  <line class="cls-5" x1="179.45" y1="160.48" x2="212.93" y2="151.91"/>
  <line class="cls-5" x1="212.71" y1="247.81" x2="179.45" y2="160.48"/>
  <line class="cls-5" x1="246.09" y1="239.26" x2="246.09" y2="239.26"/>
  <line class="cls-5" x1="143.67" y1="150.84" x2="125.33" y2="198.23"/>
  <path class="cls-5" d="M212.71,247.81c.07-.02.14-.02.22-.02"/>
  <line class="cls-5" x1="108.79" y1="332.26" x2="76.62" y2="247.79"/>
  <path class="cls-5" d="M77.19,246.3c0,.27-.1.52-.28.71"/>
  <line class="cls-5" x1="109.07" y1="331.55" x2="76.99" y2="247.33"/>
  <path class="cls-5" d="M179.66,159.46c0,.27-.1.52-.27.71"/>
  <path class="cls-5" d="M111.35,158.04c0,.27-.1.52-.28.71"/>
  <path class="cls-5" d="M77.38,245.83c.17.53.03,1.15-.39,1.49"/>
  <line class="cls-5" x1="212.93" y1="327.75" x2="181.26" y2="335.86"/>
  <line class="cls-5" x1="246.13" y1="241.94" x2="212.93" y2="327.75"/>
  <path class="cls-5" d="M246.4,239.22c-.07,0-.15,0-.22.02"/>
  <path class="cls-5" d="M212.2,248.08c.14-.13.28-.21.46-.26"/>
  <path class="cls-5" d="M212.93,247.79c.59.01,1.06.54,1.13,1.17.07.64-.28,1.27-.86,1.41"/>
  <line class="cls-5" x1="212.51" y1="330.07" x2="181.73" y2="337.95"/>
  <path class="cls-5" d="M212.51,330.07c.44-.11.77-.52.85-1.01.08-.49-.08-1-.44-1.31"/>
  <line class="cls-5" x1="246.67" y1="241.8" x2="213.19" y2="250.38"/>
  <path class="cls-5" d="M246.67,241.8c.58-.15.93-.77.86-1.41-.07-.64-.54-1.16-1.13-1.17"/>
  <path class="cls-5" d="M212.72,248.11c.49-.13.95.24,1.06.77.11.53-.16,1.09-.65,1.21"/>
  <line class="cls-5" x1="110.46" y1="238.75" x2="127.58" y2="283.7"/>
  <line class="cls-5" x1="129.57" y1="288.9" x2="143.72" y2="326.08"/>
  <line class="cls-5" x1="76.99" y1="247.33" x2="110.46" y2="238.75"/>
  <line class="cls-5" x1="143.72" y1="326.08" x2="112.39" y2="334.11"/>
  <path class="cls-5" d="M110.46,238.75c.62-.52.6-1.57,0-2.1"/>
  <line class="cls-5" x1="144.21" y1="328.65" x2="122.1" y2="334.31"/>
  <path class="cls-5" d="M212.93,151.91c.4-.34.55-.93.4-1.45-.15-.52-.57-.91-1.08-.92"/>
  <path class="cls-5" d="M212.25,149.54c-.09,0-.18,0-.26.03"/>
  <path class="cls-5" d="M179.84,158.99c.17.53.03,1.15-.39,1.49"/>
  <line class="cls-5" x1="212.25" y1="248.04" x2="179.08" y2="160.95"/>
  <line class="cls-5" x1="212.71" y1="247.81" x2="246.19" y2="239.24"/>
  <line class="cls-5" x1="212.93" y1="151.91" x2="246.19" y2="239.24"/>
  <line class="cls-5" x1="180.35" y1="157.67" x2="211.98" y2="149.57"/>
  <path class="cls-5" d="M143.94,148.12c-.09,0-.18,0-.27.03"/>
  <path class="cls-5" d="M111.53,157.57c.21.65-.05,1.39-.64,1.65"/>
  <line class="cls-5" x1="77.68" y1="245.05" x2="110.46" y2="236.65"/>
  <line class="cls-5" x1="123.33" y1="203.42" x2="110.46" y2="236.65"/>
  <line class="cls-5" x1="112.04" y1="156.25" x2="143.68" y2="148.15"/>
  <line class="cls-5" x1="144.21" y1="150.7" x2="110.88" y2="159.24"/>
  <path class="cls-5" d="M144.21,150.7c.58-.15.93-.77.86-1.41-.07-.64-.54-1.16-1.13-1.17"/>
  <path class="cls-6" d="M107.51,159.8c-.07.02-.14.02-.21.02"/>
  <path class="cls-6" d="M175.82,161.22c-.07.02-.14.03-.21.02"/>
  <path class="cls-6" d="M209.97,250.9c-.07.02-.14.03-.21.02"/>
  <path class="cls-6" d="M175.82,339.17c-.07.02-.14.03-.21.02"/>
  <path class="cls-6" d="M150.13,342.24c.34-.09,1.37-.56,1.69-.71.28-.13.55-.27.83-.4.14-.07.27-.14.41-.22.1-.05.2-.11.29-.17.02-.02.05-.03.07-.05,0,0,.02-.02.02-.03"/>
  <line class="cls-6" x1="150.06" y1="342.25" x2="148.81" y2="338.97"/>
  <path class="cls-6" d="M150.06,342.25s.03,0,.04,0c.01,0,.03,0,.04,0"/>
  <path class="cls-6" d="M179.21,349.97c.34-.09,1.37-.56,1.69-.71.28-.13.55-.26.83-.4.14-.07.27-.14.41-.22.1-.05.2-.11.29-.17.02-.02.05-.03.07-.05,0,0,.02-.02.02-.03"/>
  <path class="cls-6" d="M179.14,349.97s.03,0,.04,0c.01,0,.03,0,.04,0"/>
  <path class="cls-6" d="M102.73,138.88s-.03,0-.03,0c-.03,0-.05.01-.08.02-.11.03-.22.08-.33.12-.14.06-.29.12-.43.18-.29.12-.57.25-.85.39-.28.13-.56.27-.84.41-.14.07-.28.14-.42.22-.1.06-.2.11-.3.18-.02.02-.05.03-.07.05,0,0-.02.02-.02.03"/>
  <path class="cls-6" d="M114.83,138.86c.21-.05.73.12.91.19.3.11.59.23.87.37.28.14.56.29.83.46.14.08.27.17.4.27.09.07.17.14.24.23.02.03.07.09.05.14"/>
  <line class="cls-6" x1="67.82" y1="260.19" x2="72.54" y2="248"/>
  <path class="cls-6" d="M118.13,140.52c-.02.05-.09.06-.13.06-.11,0-.22-.02-.33-.04-.16-.03-.31-.08-.46-.14-.3-.11-.6-.23-.89-.37-.29-.14-.58-.29-.86-.46-.14-.09-.28-.18-.41-.28-.09-.07-.18-.14-.25-.24-.02-.03-.07-.09-.05-.15"/>
  <path class="cls-6" d="M71.19,261.8c-.02.05-.09.06-.13.06-.11,0-.22-.01-.33-.04-.16-.03-.31-.08-.46-.14-.3-.11-.6-.23-.89-.37s-.58-.29-.86-.46c-.14-.09-.28-.18-.41-.28-.09-.07-.18-.14-.25-.24-.03-.03-.07-.09-.05-.15"/>
  <path class="cls-6" d="M114.75,138.91s.04-.04.07-.05"/>
  <path class="cls-6" d="M150.74,129.66c.21-.05.73.12.91.19.3.11.59.23.87.37.28.14.56.29.83.46.14.08.27.17.4.27.09.07.17.14.24.23.02.03.07.09.05.14"/>
  <path class="cls-6" d="M150.67,129.71s.04-.04.07-.05"/>
  <path class="cls-6" d="M154.04,131.32c-.02.05-.09.06-.13.06-.11,0-.22-.01-.33-.04-.16-.04-.31-.08-.46-.14-.3-.11-.6-.23-.89-.37s-.58-.29-.86-.46c-.14-.09-.28-.18-.41-.28-.09-.07-.18-.14-.25-.24-.02-.03-.07-.09-.05-.15"/>
  <path class="cls-6" d="M177.82,234.54c.3-.08.6-.11.91-.11"/>
  <path class="cls-6" d="M179.47,243.39c-.45.11-.88.14-1.33.07"/>
  <line class="cls-6" x1="177.64" y1="234.59" x2="177.82" y2="234.54"/>
  <path class="cls-6" d="M177.64,234.59c.3-.08.6-.11.91-.11"/>
  <path class="cls-6" d="M179.43,243.19c-.2.05-.4.08-.61.1"/>
  <path class="cls-6" d="M252.6,255.4c.34-.09,1.37-.56,1.69-.71.28-.13.55-.27.83-.4.14-.07.27-.14.41-.21.1-.06.2-.11.3-.18.02-.02.05-.03.07-.05,0,0,.02-.02.02-.03"/>
  <line class="cls-6" x1="208.97" y1="130.59" x2="214.04" y2="143.9"/>
  <line class="cls-6" x1="252.52" y1="255.41" x2="248.17" y2="243.97"/>
  <path class="cls-6" d="M208.97,130.59s-.02,0-.03,0c-.03,0-.05.01-.08.02-.11.03-.22.08-.33.12-.14.06-.29.12-.43.18-.29.12-.57.25-.86.39-.28.13-.56.27-.84.41-.14.07-.28.14-.42.22-.1.06-.21.11-.31.18-.02.02-.05.03-.07.05,0,0-.02.02-.02.03"/>
  <path class="cls-6" d="M255.9,253.82s-.02,0-.03,0c-.03,0-.05.01-.08.02-.11.03-.22.08-.33.12-.14.06-.29.12-.43.18-.29.12-.57.25-.85.39s-.57.27-.84.41c-.14.07-.28.14-.42.22-.1.06-.21.11-.31.18-.02.02-.05.03-.07.05,0,0-.02.02-.02.03"/>
  <path class="cls-6" d="M252.52,255.41s.03,0,.04,0c.01,0,.03,0,.04,0"/>
  <path class="cls-6" d="M214.67,265.12c.34-.09,1.37-.56,1.69-.71.28-.13.55-.26.83-.4.14-.07.27-.14.41-.21.1-.06.2-.11.3-.18.02-.02.05-.03.07-.05,0,0,.02-.02.02-.03"/>
  <path class="cls-6" d="M214.59,265.12s.03,0,.04,0c.01,0,.03,0,.04,0"/>
  <path class="cls-6" d="M171.04,140.3s-.02,0-.03,0c-.03,0-.05.01-.08.02-.11.03-.22.08-.33.12-.14.06-.29.12-.43.18-.29.12-.57.25-.85.39-.28.13-.57.27-.84.41-.14.07-.28.14-.42.22-.1.06-.21.11-.31.18-.02.02-.05.03-.07.05,0,0-.02.02-.02.03"/>
  <path class="cls-6" d="M217.97,263.53s-.02,0-.03,0c-.03,0-.05.01-.08.02-.11.03-.22.08-.33.12-.15.06-.29.12-.43.18-.29.12-.57.25-.85.39-.28.13-.56.27-.84.41-.14.07-.28.14-.42.22-.1.06-.21.11-.31.18-.02.02-.05.03-.07.05,0,0-.02.02-.02.03"/>
  <path class="cls-6" d="M173.66,352.9c-.02.05-.09.06-.13.06-.11,0-.22-.02-.32-.04-.16-.04-.31-.08-.46-.14-.3-.11-.6-.23-.89-.37-.29-.14-.58-.29-.86-.46-.14-.09-.28-.18-.41-.28-.09-.07-.17-.14-.25-.23-.03-.03-.07-.1-.05-.15"/>
  <line class="cls-6" x1="113.56" y1="235.94" x2="129.68" y2="278.28"/>
  <line class="cls-6" x1="108.7" y1="154.55" x2="114.75" y2="138.91"/>
  <path class="cls-6" d="M107.3,159.83c-.46,0-.82-.42-.88-.91-.05-.5.22-.98.67-1.1"/>
  <path class="cls-6" d="M107.1,157.82c.49-.13.95.24,1.06.77.11.53-.16,1.09-.65,1.21"/>
  <path class="cls-6" d="M175.61,339.19c-.46,0-.82-.42-.88-.91-.05-.5.22-.98.67-1.1"/>
  <path class="cls-6" d="M175.41,337.18c.49-.13.95.24,1.06.77.11.53-.16,1.09-.65,1.21"/>
  <line class="cls-6" x1="206.2" y1="342.09" x2="210.64" y2="330.63"/>
  <path class="cls-6" d="M248.98,241.86c-.03.07-.16.06-.21.06-.08,0-.15-.02-.23-.03-.15-.03-.3-.08-.44-.13-.29-.1-.58-.22-.86-.35"/>
  <path class="cls-6" d="M209.58,343.7c-.02.05-.09.06-.13.06-.11,0-.22-.02-.32-.04-.16-.04-.31-.08-.46-.14-.3-.11-.6-.23-.89-.37-.29-.14-.58-.29-.86-.46-.14-.09-.28-.18-.41-.28-.09-.07-.17-.14-.25-.23-.03-.03-.07-.1-.05-.15"/>
  <path class="cls-6" d="M112.21,351.96c.34-.09,1.37-.56,1.69-.71.28-.13.55-.27.83-.4.14-.07.27-.14.41-.21.1-.05.2-.11.29-.17.02-.02.05-.03.07-.05,0,0,.02-.02.02-.03"/>
  <path class="cls-6" d="M67.53,224.4s-.03,0-.03,0c-.03,0-.05.01-.08.02-.11.03-.22.08-.33.12-.14.06-.29.12-.43.18-.29.12-.57.25-.85.39s-.56.27-.84.41c-.14.07-.28.14-.42.22-.1.06-.2.11-.3.18-.02.02-.05.03-.07.05,0,0-.02.02-.02.03"/>
  <path class="cls-6" d="M115.51,350.37s-.03,0-.03,0c-.03,0-.05.01-.08.02-.11.03-.22.08-.32.12-.15.06-.29.12-.43.18-.29.12-.57.25-.85.39-.28.13-.56.27-.84.41-.14.07-.28.14-.42.22-.1.06-.2.11-.3.18-.02.02-.05.03-.07.05,0,0-.02.02-.02.03"/>
  <path class="cls-6" d="M112.13,351.96s.03,0,.04,0c.01,0,.03,0,.04,0"/>
  <path class="cls-6" d="M183.13,140.28c.21-.05.73.12.91.19.3.11.59.23.87.37.28.14.56.29.83.46.14.08.27.17.4.27.09.07.17.14.24.23.03.03.07.09.05.15"/>
  <path class="cls-6" d="M183.06,140.33s.04-.04.07-.05"/>
  <path class="cls-6" d="M186.43,141.94c-.02.05-.09.06-.13.06-.11,0-.22-.02-.32-.04-.16-.04-.31-.08-.46-.14-.3-.11-.6-.23-.89-.37-.29-.14-.58-.29-.86-.46-.14-.09-.28-.18-.41-.28-.09-.07-.17-.14-.25-.23-.03-.03-.07-.1-.05-.15"/>
  <path class="cls-6" d="M106.65,348.13c-.02.05-.09.06-.13.06-.11,0-.22-.02-.32-.04-.16-.04-.31-.08-.46-.14-.3-.11-.6-.23-.89-.37-.29-.14-.58-.29-.86-.46-.14-.09-.28-.18-.41-.28-.09-.07-.17-.14-.25-.23-.03-.03-.07-.1-.05-.15"/>
  <line class="cls-6" x1="106.22" y1="336.63" x2="106.22" y2="336.44"/>
  <line class="cls-6" x1="180.33" y1="339.63" x2="179.18" y2="339.61"/>
  <path class="cls-6" d="M180.76,339.56c.58-.15.97-.74.97-1.39"/>
  <path class="cls-6" d="M180.62,339.59c-.1.02-.19.04-.29.03"/>
  <line class="cls-6" x1="216.35" y1="329.3" x2="216.35" y2="328.13"/>
  <line class="cls-6" x1="215.09" y1="326.65" x2="213.37" y2="326.62"/>
  <path class="cls-6" d="M142.25,329.21c-.06,0-.11,0-.17-.02"/>
  <path class="cls-6" d="M215.53,330.65c.58-.15.97-.74.97-1.39"/>
  <path class="cls-6" d="M215.39,330.69c-.1.03-.19.04-.29.03"/>
  <path class="cls-6" d="M106.67,337.76c-.29-.28-.45-.7-.45-1.12"/>
  <line class="cls-6" x1="213.38" y1="326.58" x2="215.24" y2="326.62"/>
  <line class="cls-6" x1="108.67" y1="342.89" x2="106.65" y2="348.13"/>
  <line class="cls-6" x1="127.67" y1="283.47" x2="111.55" y2="241.13"/>
  <line class="cls-6" x1="143.54" y1="325.13" x2="129.66" y2="288.67"/>
  <line class="cls-6" x1="147.23" y1="334.83" x2="145.7" y2="330.82"/>
  <line class="cls-6" x1="74.55" y1="242.81" x2="106.69" y2="159.74"/>
  <line class="cls-6" x1="76.39" y1="247.78" x2="108.53" y2="164.71"/>
  <path class="cls-6" d="M178.96,243.25c.18-.01.36-.04.53-.08"/>
  <path class="cls-6" d="M177.76,234.77c-.17.05-.34.11-.51.19"/>
  <path class="cls-6" d="M177.1,235c.19-.09.38-.16.58-.21"/>
  <line class="cls-6" x1="213.13" y1="250.1" x2="212.88" y2="250.16"/>
  <line class="cls-6" x1="152.83" y1="339.06" x2="153.44" y2="340.66"/>
  <line class="cls-6" x1="149.13" y1="329.35" x2="151.25" y2="334.91"/>
  <line class="cls-6" x1="131.66" y1="283.48" x2="145.73" y2="320.42"/>
  <line class="cls-6" x1="74.52" y1="253.21" x2="71.19" y2="261.8"/>
  <line class="cls-6" x1="246.36" y1="239.22" x2="214.01" y2="154.29"/>
  <line class="cls-6" x1="173.9" y1="325.76" x2="180.12" y2="325.89"/>
  <line class="cls-6" x1="180.1" y1="325.92" x2="173.92" y2="325.8"/>
  <line class="cls-6" x1="178.54" y1="329.96" x2="175.48" y2="329.9"/>
  <line class="cls-6" x1="177.01" y1="155.97" x2="183.06" y2="140.33"/>
  <line class="cls-6" x1="180.39" y1="335.52" x2="180.47" y2="335.52"/>
  <path class="cls-6" d="M175.61,161.25c-.46,0-.82-.42-.88-.91-.05-.5.22-.98.67-1.1"/>
  <path class="cls-6" d="M175.41,159.24c.49-.13.95.24,1.06.77.11.53-.16,1.09-.65,1.21"/>
  <line class="cls-6" x1="181.59" y1="338.2" x2="181.59" y2="337.04"/>
  <path class="cls-6" d="M180.37,335.56c.7.04,1.22.72,1.22,1.48"/>
  <path class="cls-6" d="M217.14,340.25c.34-.09,1.37-.56,1.69-.71.28-.13.55-.27.83-.4.14-.07.27-.14.41-.21.1-.05.2-.11.29-.17.02-.02.05-.03.07-.05,0,0,.02-.02.02-.03"/>
  <line class="cls-6" x1="140.66" y1="129.17" x2="145.73" y2="142.48"/>
  <path class="cls-6" d="M140.66,129.17s-.03,0-.03,0c-.03,0-.05.01-.08.02-.11.03-.22.08-.32.12-.14.06-.29.12-.43.18-.29.12-.57.25-.85.39s-.57.27-.84.41c-.14.07-.28.14-.42.22-.1.06-.2.11-.3.18-.03.02-.05.03-.07.05,0,0-.02.02-.02.03"/>
  <path class="cls-6" d="M220.45,338.66s-.03,0-.03,0c-.03,0-.05.01-.08.02-.11.03-.22.07-.33.12-.14.06-.29.12-.43.18-.29.12-.57.25-.85.39s-.56.27-.84.41c-.14.07-.28.14-.42.22-.1.06-.2.11-.3.18-.02.02-.05.03-.07.05,0,0-.02.02-.02.03"/>
  <path class="cls-6" d="M217.07,340.25s.03,0,.04,0c.01,0,.03,0,.04,0"/>
  <line class="cls-6" x1="217.07" y1="340.25" x2="214.01" y2="332.24"/>
  <path class="cls-6" d="M219.05,131.08c.21-.05.73.12.91.19.3.11.59.23.87.37.28.14.56.29.83.46.14.08.27.17.4.27.09.07.17.14.24.23.03.03.07.09.05.15"/>
  <path class="cls-6" d="M222.35,132.74c-.02.05-.09.06-.13.06-.11,0-.22-.02-.32-.04-.16-.04-.31-.08-.46-.14-.3-.11-.6-.23-.89-.37-.29-.14-.58-.29-.86-.46-.14-.09-.28-.18-.41-.28-.09-.07-.17-.14-.25-.23-.03-.03-.07-.1-.05-.15"/>
  <path class="cls-6" d="M142.57,338.93c-.03.07-.16.06-.21.06-.08,0-.15-.02-.22-.03-.15-.03-.29-.08-.44-.12"/>
  <path class="cls-6" d="M218.98,131.13s.04-.04.07-.05"/>
  <path class="cls-6" d="M107.3,337.77c-.46,0-.82-.42-.88-.91-.05-.5.22-.98.67-1.1"/>
  <path class="cls-6" d="M107.1,335.76c.49-.13.95.24,1.06.77.11.53-.16,1.09-.65,1.21"/>
  <path class="cls-6" d="M107.51,337.75c-.07.02-.14.03-.21.02"/>
  <path class="cls-6" d="M209.65,250.83c-.07.02-.14.03-.21.02"/>
  <path class="cls-6" d="M73.15,248.09c-.46,0-.82-.42-.88-.91-.05-.5.22-.98.67-1.1"/>
  <path class="cls-6" d="M72.94,246.08c.49-.13.95.24,1.07.77.11.53-.16,1.09-.65,1.21"/>
  <path class="cls-6" d="M73.36,248.07c-.07.02-.14.02-.21.02"/>
  <path class="cls-6" d="M69.75,246.82c-.46,0-.82-.42-.88-.91-.05-.5.22-.98.67-1.1"/>
  <line class="cls-6" x1="69.54" y1="244.81" x2="71.16" y2="244.39"/>
  <path class="cls-6" d="M69.54,244.81c.49-.13.95.24,1.06.77.11.53-.16,1.09-.65,1.21"/>
  <path class="cls-6" d="M69.95,246.8c-.07.02-.14.03-.21.02"/>
  <line class="cls-6" x1="143.07" y1="243.44" x2="143.17" y2="243.42"/>
  <path class="cls-6" d="M143.07,243.44s.07-.02.1-.02"/>
  <line class="cls-6" x1="195.13" y1="203.09" x2="195.04" y2="203.32"/>
  <line class="cls-6" x1="216.02" y1="149.1" x2="255.9" y2="253.82"/>
  <line class="cls-6" x1="212.03" y1="149.09" x2="205.59" y2="132.18"/>
  <path class="cls-6" d="M247.96,241.01c.2.11.39.23.57.36.09.07.18.13.27.21.04.04.08.08.12.12.03.03.08.1.06.16"/>
  <line class="cls-6" x1="165.82" y1="195.22" x2="179.89" y2="232.16"/>
  <line class="cls-6" x1="147.71" y1="147.68" x2="163.84" y2="190.02"/>
  <line class="cls-6" x1="195.98" y1="284.89" x2="180.1" y2="243.19"/>
  <line class="cls-6" x1="216.5" y1="328.29" x2="220.45" y2="338.66"/>
  <line class="cls-6" x1="182.63" y1="239.37" x2="197.99" y2="279.7"/>
  <line class="cls-6" x1="161.83" y1="195.21" x2="145.7" y2="152.87"/>
  <line class="cls-6" x1="176.93" y1="234.86" x2="163.81" y2="200.41"/>
  <line class="cls-6" x1="140.21" y1="334.68" x2="142.33" y2="329.21"/>
  <line class="cls-6" x1="212.1" y1="248.11" x2="212.2" y2="248.08"/>
  <path class="cls-6" d="M142.61,243.59c.15-.06.3-.11.45-.15"/>
  <path class="cls-6" d="M140.6,250.05c-.4-.8-.58-1.72-.52-2.63"/>
  <path class="cls-6" d="M145.72,251.75c1.11-.64,1.84-1.86,2.01-3.22.17-1.36-.23-2.75-1.09-3.74"/>
  <path class="cls-6" d="M142.66,243.72c.12-.05.25-.09.38-.12"/>
  <path class="cls-6" d="M140.64,249.96c-.36-.73-.53-1.55-.5-2.38"/>
  <line class="cls-6" x1="143.72" y1="147.67" x2="137.28" y2="130.76"/>
  <line class="cls-6" x1="71.89" y1="246.3" x2="69.95" y2="246.8"/>
  <line class="cls-6" x1="142.6" y1="338.84" x2="142.57" y2="338.93"/>
  <line class="cls-6" x1="158.88" y1="296.77" x2="147.87" y2="325.21"/>
  <line class="cls-6" x1="179.54" y1="243.37" x2="160.89" y2="291.58"/>
  <line class="cls-6" x1="193.03" y1="208.51" x2="182.11" y2="236.74"/>
  <line class="cls-6" x1="193.06" y1="198.12" x2="193.15" y2="197.88"/>
  <line class="cls-6" x1="178.89" y1="234.72" x2="178.9" y2="234.71"/>
  <line class="cls-6" x1="158.91" y1="286.38" x2="175.22" y2="244.21"/>
  <path class="cls-6" d="M209.77,250.93c-.46,0-.82-.42-.88-.91-.05-.5.22-.98.67-1.1"/>
  <path class="cls-6" d="M209.56,248.92c.49-.13.95.24,1.06.77.11.53-.16,1.09-.65,1.21"/>
  <path class="cls-6" d="M153.44,340.66s-.03,0-.03,0c-.03,0-.05.01-.08.02-.11.03-.22.08-.33.12-.14.06-.29.12-.43.18-.29.12-.57.25-.85.39s-.57.27-.84.41c-.14.07-.28.14-.42.22-.1.06-.2.11-.3.18-.03.02-.05.03-.07.05,0,0-.02.02-.02.03"/>
  <line class="cls-6" x1="179.14" y1="349.97" x2="99.35" y2="140.47"/>
  <line class="cls-6" x1="102.73" y1="138.88" x2="182.52" y2="348.38"/>
  <path class="cls-6" d="M182.52,348.38s-.03,0-.03,0c-.03,0-.05.01-.08.02-.11.03-.22.08-.32.12-.14.06-.29.12-.43.18-.29.12-.57.25-.85.39-.28.13-.56.27-.84.41-.14.07-.28.14-.42.22-.1.06-.2.11-.3.18-.02.02-.05.03-.07.05,0,0-.02.02-.02.03"/>
  <line class="cls-6" x1="118.13" y1="140.52" x2="110.68" y2="159.76"/>
  <line class="cls-1" x1="108.67" y1="164.95" x2="76.53" y2="248.02"/>
  <line class="cls-6" x1="143.52" y1="148.19" x2="150.67" y2="129.71"/>
  <line class="cls-6" x1="154.04" y1="131.32" x2="126.73" y2="201.9"/>
  <line class="cls-6" x1="124.72" y1="207.09" x2="111.46" y2="241.37"/>
  <path class="cls-6" d="M178.56,234.48c2.03.04,3.65,1.84,3.88,4.04.11,1.07-.11,2.17-.65,3.07-.54.91-1.36,1.55-2.32,1.8"/>
  <path class="cls-6" d="M178.73,234.44c2.03.04,3.65,1.84,3.88,4.04.11,1.07-.11,2.17-.65,3.07-.54.91-1.36,1.55-2.32,1.8"/>
  <path class="cls-6" d="M178.56,234.69c1.94.04,3.48,1.76,3.7,3.86.22,2.11-.93,4.16-2.83,4.65"/>
  <line class="cls-6" x1="179.65" y1="243.34" x2="179.47" y2="243.39"/>
  <path class="cls-6" d="M176.42,235.17c.38-.28.78-.47,1.22-.58"/>
  <line class="cls-6" x1="177.68" y1="234.79" x2="177.83" y2="234.75"/>
  <line class="cls-6" x1="179.57" y1="243.15" x2="179.43" y2="243.19"/>
  <path class="cls-6" d="M177.68,234.79c.29-.07.58-.11.87-.1"/>
  <line class="cls-6" x1="214.59" y1="265.12" x2="209.13" y2="250.78"/>
  <line class="cls-6" x1="208.62" y1="249.45" x2="167.66" y2="141.89"/>
  <line class="cls-6" x1="171.04" y1="140.3" x2="217.97" y2="263.53"/>
  <line class="cls-6" x1="211.14" y1="256.05" x2="178.99" y2="339.12"/>
  <line class="cls-6" x1="176.98" y1="344.31" x2="173.66" y2="352.9"/>
  <line class="cls-6" x1="170.28" y1="351.29" x2="175" y2="339.11"/>
  <line class="cls-6" x1="177.01" y1="333.91" x2="209.15" y2="250.85"/>
  <line class="cls-6" x1="248.98" y1="241.86" x2="216.05" y2="326.97"/>
  <line class="cls-6" x1="214.6" y1="330.71" x2="209.58" y2="343.7"/>
  <line class="cls-6" x1="67.53" y1="224.4" x2="115.51" y2="350.37"/>
  <line class="cls-6" x1="112.13" y1="351.96" x2="64.15" y2="225.99"/>
  <line class="cls-6" x1="103.28" y1="346.51" x2="106.69" y2="337.69"/>
  <line class="cls-6" x1="108.7" y1="332.49" x2="140.85" y2="249.42"/>
  <line class="cls-6" x1="142.86" y1="244.23" x2="175" y2="161.16"/>
  <line class="cls-6" x1="186.43" y1="141.94" x2="178.99" y2="161.18"/>
  <line class="cls-6" x1="176.98" y1="166.37" x2="144.84" y2="249.44"/>
  <line class="cls-6" x1="142.83" y1="254.63" x2="110.68" y2="337.7"/>
  <line class="cls-6" x1="181.73" y1="337" x2="181.73" y2="338.16"/>
  <path class="cls-6" d="M181.73,337c0-.78-.54-1.47-1.26-1.48"/>
  <line class="cls-6" x1="112.08" y1="334.1" x2="173.58" y2="335.38"/>
  <line class="cls-6" x1="173.6" y1="335.42" x2="112.06" y2="334.14"/>
  <line class="cls-6" x1="174.84" y1="339.52" x2="110.87" y2="338.19"/>
  <path class="cls-6" d="M180.47,339.59c.1,0,.2,0,.29-.03"/>
  <path class="cls-6" d="M181.59,338.2c0,.65-.38,1.24-.97,1.39"/>
  <line class="cls-6" x1="180.76" y1="339.56" x2="180.62" y2="339.59"/>
  <line class="cls-6" x1="216.5" y1="328.1" x2="216.5" y2="329.26"/>
  <path class="cls-6" d="M216.5,328.1c0-.78-.54-1.46-1.26-1.48"/>
  <path class="cls-6" d="M215.09,326.65c.72.02,1.26.7,1.26,1.48"/>
  <line class="cls-6" x1="143.36" y1="325.12" x2="169.89" y2="325.67"/>
  <line class="cls-6" x1="169.9" y1="325.71" x2="143.37" y2="325.16"/>
  <line class="cls-6" x1="215.09" y1="330.72" x2="210.34" y2="330.62"/>
  <line class="cls-6" x1="171.46" y1="329.82" x2="142.25" y2="329.21"/>
  <path class="cls-6" d="M215.24,330.69c.1,0,.2,0,.29-.03"/>
  <path class="cls-6" d="M216.35,329.3c0,.65-.38,1.24-.97,1.39"/>
  <line class="cls-6" x1="215.53" y1="330.65" x2="215.39" y2="330.69"/>
  <line class="cls-6" x1="222.35" y1="132.74" x2="213.92" y2="154.52"/>
  <line class="cls-6" x1="146.29" y1="329.29" x2="144.18" y2="334.77"/>
  <line class="cls-6" x1="143.91" y1="325.13" x2="156.9" y2="291.57"/>
  <line class="cls-6" x1="179" y1="234.45" x2="191.05" y2="203.31"/>
  <line class="cls-6" x1="211.83" y1="149.61" x2="218.98" y2="131.13"/>
  <path class="cls-6" d="M209.44,250.85c-.46,0-.82-.42-.88-.91-.05-.5.22-.98.67-1.1"/>
  <path class="cls-6" d="M209.24,248.84c.49-.13.95.24,1.06.77.11.53-.16,1.09-.65,1.21"/>
  <path class="cls-6" d="M146.69,244.65c.9,1.02,1.33,2.47,1.16,3.88-.17,1.42-.92,2.69-2.08,3.35"/>
  <path class="cls-6" d="M143.11,243.58s0,0-.01,0"/>
  <path class="cls-6" d="M146.61,244.85c.83.99,1.22,2.36,1.06,3.7-.16,1.34-.87,2.54-1.95,3.19"/>
  <path class="cls-6" d="M145.79,251.93c1.24-.63,2.06-1.95,2.24-3.43.18-1.48-.29-2.99-1.28-4.02"/>
  <path class="cls-6" d="M143.04,243.6s.05-.01.07-.02"/>
</svg>