<?xml version="1.0" encoding="UTF-8"?>
<svg xmlns="http://www.w3.org/2000/svg" viewBox="0 0 379.43 532.03">
  <defs>
    <style>
      .cls-1 {
        fill: #fff;
        stroke: #000;
        stroke-linecap: round;
        stroke-linejoin: round;
        stroke-width: .5px;
      }

      .cls-2 {
        fill: #333;
        font-family: ArialMT, Arial;
        font-size: 17.02px;
      }

      .cls-3 {
        fill: none;
        stroke: #333;
        stroke-miterlimit: 10;
        stroke-width: .15px;
      }
    </style>
  </defs>
  <g id="cote">
    <line class="cls-3" x1="65.91" y1="251.3" x2="45.71" y2="251.3"/>
    <line class="cls-3" x1="65.91" y1="75.85" x2="45.71" y2="75.85"/>
    <line class="cls-3" x1="46.28" y1="252.15" x2="46.28" y2="171.77"/>
    <line class="cls-3" x1="46.28" y1="155.62" x2="46.28" y2="75"/>
    <polyline class="cls-3" points="45.36 250.51 47.06 252.21 47.2 252.08 45.5 250.38 45.36 250.51"/>
    <polyline class="cls-3" points="47.2 76.63 45.5 74.93 45.36 75.07 47.06 76.77 47.2 76.63"/>
    <line class="cls-3" x1="65.9" y1="485.91" x2="45.71" y2="485.91"/>
    <line class="cls-3" x1="65.9" y1="251.3" x2="45.71" y2="251.3"/>
    <line class="cls-3" x1="46.28" y1="486.76" x2="46.28" y2="376.74"/>
    <line class="cls-3" x1="46.28" y1="360.53" x2="46.28" y2="250.44"/>
    <polyline class="cls-3" points="45.36 485.13 47.06 486.83 47.2 486.7 45.5 485 45.36 485.13"/>
    <polyline class="cls-3" points="47.2 252.08 45.5 250.38 45.36 250.51 47.06 252.21 47.2 252.08"/>
    <line class="cls-3" x1="349.65" y1="484.59" x2="349.65" y2="504.78"/>
    <line class="cls-3" x1="62.56" y1="484.59" x2="62.56" y2="504.78"/>
    <line class="cls-3" x1="350.5" y1="504.22" x2="217.57" y2="504.22"/>
    <line class="cls-3" x1="195.82" y1="504.22" x2="61.71" y2="504.22"/>
    <polyline class="cls-3" points="348.87 505.14 350.57 503.44 350.44 503.3 348.73 505 348.87 505.14"/>
    <polyline class="cls-3" points="63.34 503.3 61.64 505 61.78 505.14 63.48 503.44 63.34 503.3"/>
    <line class="cls-3" x1="65.91" y1="75.85" x2="45.71" y2="75.85"/>
    <line class="cls-3" x1="65.91" y1="58.57" x2="45.71" y2="58.57"/>
    <line class="cls-3" x1="46.28" y1="76.7" x2="46.28" y2="71.03"/>
    <line class="cls-3" x1="46.28" y1="63.51" x2="46.28" y2="57.72"/>
    <polyline class="cls-3" points="45.36 75.07 47.06 76.77 47.2 76.63 45.5 74.93 45.36 75.07"/>
    <polyline class="cls-3" points="47.2 59.35 45.5 57.65 45.36 57.79 47.06 59.49 47.2 59.35"/>
    <line class="cls-3" x1="84.66" y1="58.83" x2="84.66" y2="38.63"/>
    <line class="cls-3" x1="157.81" y1="58.83" x2="157.81" y2="38.63"/>
    <line class="cls-3" x1="83.81" y1="39.2" x2="112.92" y2="39.2"/>
    <line class="cls-3" x1="129.31" y1="39.2" x2="158.66" y2="39.2"/>
    <polyline class="cls-3" points="85.44 38.28 83.74 39.98 83.88 40.12 85.58 38.42 85.44 38.28"/>
    <polyline class="cls-3" points="157.03 40.12 158.73 38.42 158.59 38.28 156.89 39.98 157.03 40.12"/>
    <line class="cls-3" x1="254.4" y1="58.83" x2="254.4" y2="38.63"/>
    <line class="cls-3" x1="327.55" y1="58.83" x2="327.55" y2="38.63"/>
    <line class="cls-3" x1="253.55" y1="39.2" x2="282.66" y2="39.2"/>
    <line class="cls-3" x1="299.05" y1="39.2" x2="328.4" y2="39.2"/>
    <polyline class="cls-3" points="255.18 38.28 253.48 39.98 253.62 40.12 255.32 38.42 255.18 38.28"/>
    <polyline class="cls-3" points="326.77 40.12 328.47 38.42 328.34 38.28 326.64 39.98 326.77 40.12"/>
    <line class="cls-3" x1="178.33" y1="58.83" x2="178.33" y2="38.63"/>
    <line class="cls-3" x1="234.59" y1="58.83" x2="234.59" y2="38.63"/>
    <line class="cls-3" x1="177.48" y1="39.2" x2="198.14" y2="39.2"/>
    <line class="cls-3" x1="214.53" y1="39.2" x2="235.45" y2="39.2"/>
    <polyline class="cls-3" points="179.11 38.28 177.41 39.98 177.55 40.12 179.25 38.42 179.11 38.28"/>
    <polyline class="cls-3" points="233.81 40.12 235.51 38.42 235.38 38.28 233.68 39.98 233.81 40.12"/>
    <line class="cls-3" x1="45.99" y1="485.91" x2="25.8" y2="485.91"/>
    <line class="cls-3" x1="45.99" y1="58.63" x2="25.8" y2="58.63"/>
    <line class="cls-3" x1="26.37" y1="486.76" x2="26.37" y2="283.74"/>
    <line class="cls-3" x1="26.37" y1="261.98" x2="26.37" y2="57.78"/>
    <polyline class="cls-3" points="25.45 485.13 27.15 486.83 27.29 486.7 25.59 485 25.45 485.13"/>
    <polyline class="cls-3" points="27.29 59.42 25.59 57.71 25.45 57.85 27.15 59.55 27.29 59.42"/>
  </g>
  <g id="Calque_5" data-name="Calque 5">
    <text class="cls-2" transform="translate(51.95 172.32) rotate(-90)"><tspan x="0" y="0">62</tspan></text>
    <text class="cls-2" transform="translate(51.94 377.35) rotate(-90)"><tspan x="0" y="0">83</tspan></text>
    <text class="cls-2" transform="translate(194.15 509.64)"><tspan x="0" y="0">101</tspan></text>
    <text class="cls-2" transform="translate(51.95 71.59) rotate(-90)"><tspan x="0" y="0">6</tspan></text>
    <text class="cls-2" transform="translate(112.48 44.87)"><tspan x="0" y="0">26</tspan></text>
    <text class="cls-2" transform="translate(282.22 44.87)"><tspan x="0" y="0">26</tspan></text>
    <text class="cls-2" transform="translate(197.71 44.87)"><tspan x="0" y="0">20</tspan></text>
    <text class="cls-2" transform="translate(32.04 285.4) rotate(-90)"><tspan x="0" y="0">151</tspan></text>
  </g>
  <g id="Make2D::Visible::Courbes">
    <line class="cls-1" x1="244.5" y1="83.09" x2="208.28" y2="164.92"/>
    <line class="cls-1" x1="206.11" y1="169.82" x2="169.88" y2="251.65"/>
    <line class="cls-1" x1="121.24" y1="178.29" x2="127.15" y2="164.92"/>
    <path class="cls-1" d="M124.86,179.89s0,0,0,0c0,0-.01,0-.02,0-.03-.01-.05-.02-.08-.04-.12-.05-.23-.1-.35-.15-.15-.07-.3-.13-.45-.2-.3-.13-.6-.27-.91-.4s-.6-.27-.91-.4c-.15-.07-.3-.13-.45-.2-.11-.05-.23-.1-.34-.15-.03-.01-.05-.02-.08-.04,0,0-.01,0-.02,0,0,0,0,0,0,0"/>
    <line class="cls-1" x1="177.62" y1="60.72" x2="169.88" y2="78.19"/>
    <path class="cls-1" d="M177.62,60.72s0,0,0,0h-.02s-.05-.03-.08-.05c-.11-.05-.23-.1-.34-.15-.15-.07-.3-.13-.45-.2-.3-.13-.6-.27-.91-.4s-.61-.27-.91-.4c-.15-.07-.3-.13-.45-.2-.11-.05-.23-.1-.35-.15-.03-.01-.05-.02-.08-.04h-.02s0-.02,0-.01"/>
    <path class="cls-1" d="M175.8,265.02s0,0,0,0c0,0-.01,0-.02,0-.03.01-.05.02-.08.04-.11.05-.23.1-.35.15-.15.07-.3.13-.45.2-.3.13-.61.27-.91.4-.3.13-.61.27-.91.4-.15.07-.3.13-.45.2-.11.05-.23.1-.35.15-.03.01-.05.02-.08.04,0,0-.01,0-.02,0,0,0,0,0,0,0"/>
    <path class="cls-1" d="M84.66,59.11s0,0,0,0h-.02s-.05.03-.08.05c-.11.05-.23.1-.35.15-.15.07-.3.13-.45.2-.3.13-.6.27-.91.4s-.61.27-.91.4c-.15.07-.3.13-.45.2-.11.05-.23.1-.35.15-.03.01-.05.02-.08.04,0,0-.02,0-.03.01"/>
    <path class="cls-1" d="M349.65,484.31s0,0,0,0c0,0-.01,0-.02,0-.03.01-.05.02-.08.04-.11.05-.23.1-.34.15-.15.07-.3.13-.45.2-.3.13-.6.27-.91.4s-.6.27-.91.4c-.15.07-.3.13-.45.2-.11.05-.23.1-.34.15-.04.02-.07.03-.11.05"/>
    <path class="cls-1" d="M161.44,59.11s0,0,0,0h-.02s-.05.03-.08.05c-.11.05-.23.1-.35.15-.15.07-.3.13-.45.2-.3.13-.61.27-.91.4-.3.13-.61.27-.91.4-.15.07-.3.13-.45.2-.11.05-.23.1-.35.15-.03.01-.05.02-.08.04,0,0-.02,0-.03.01"/>
    <line class="cls-1" x1="167.72" y1="73.28" x2="173.99" y2="59.11"/>
    <line class="cls-1" x1="129.32" y1="160.01" x2="165.55" y2="78.19"/>
    <line class="cls-1" x1="129.32" y1="169.82" x2="124.86" y2="179.89"/>
    <line class="cls-1" x1="167.72" y1="83.09" x2="131.49" y2="164.92"/>
    <line class="cls-1" x1="331.18" y1="60.72" x2="285.06" y2="164.92"/>
    <path class="cls-1" d="M331.18,60.72s0,0,0,0c0,0-.01,0-.02,0-.03-.01-.05-.02-.08-.04-.11-.05-.23-.1-.35-.15-.15-.07-.3-.13-.45-.2-.3-.13-.61-.27-.91-.4-.3-.13-.61-.27-.91-.4-.15-.07-.3-.13-.45-.2-.11-.05-.23-.1-.35-.15-.03-.01-.05-.02-.08-.04,0,0-.01,0-.02,0,0,0,0,0,0,0"/>
    <path class="cls-1" d="M240.04,266.62s0,0,0,0c0,0-.01,0-.02,0-.03-.01-.05-.02-.08-.04-.11-.05-.23-.1-.34-.15-.15-.07-.3-.13-.45-.2-.3-.13-.6-.27-.91-.4-.3-.13-.61-.27-.91-.4-.15-.07-.3-.13-.45-.2-.11-.05-.23-.1-.34-.15-.03-.01-.06-.02-.08-.04,0,0-.01,0-.02,0,0,0,0,0,0,0"/>
    <path class="cls-1" d="M290.98,178.29s0,0,0,0c0,0-.01,0-.02,0-.03.01-.05.02-.08.04-.11.05-.23.1-.35.15-.15.07-.3.13-.45.2-.3.13-.61.27-.91.4-.3.13-.6.27-.91.4-.15.07-.3.13-.45.2-.12.05-.23.1-.35.15-.03.01-.05.02-.08.04,0,0-.01,0-.02,0,0,0,0,0,0,0"/>
    <path class="cls-1" d="M238.22,59.11s0,0,0,0h-.02s-.05.03-.08.05c-.11.05-.23.1-.35.15-.15.07-.3.13-.45.2-.3.13-.61.27-.91.4-.3.13-.61.27-.91.4-.15.07-.3.13-.45.2-.11.05-.23.1-.35.15-.03.01-.05.02-.08.04,0,0-.02,0-.03.01"/>
    <line class="cls-1" x1="282.89" y1="160.01" x2="327.55" y2="59.11"/>
    <line class="cls-1" x1="244.5" y1="246.75" x2="280.72" y2="164.92"/>
    <line class="cls-1" x1="244.5" y1="256.55" x2="240.04" y2="266.62"/>
    <line class="cls-1" x1="248.47" y1="252.22" x2="248.47" y2="251.08"/>
    <path class="cls-1" d="M163.75,251.08c0-.6.38-1.14.95-1.34"/>
    <line class="cls-1" x1="163.75" y1="252.22" x2="163.75" y2="251.08"/>
    <path class="cls-1" d="M248.47,252.22c0,.6-.38,1.14-.95,1.34"/>
    <path class="cls-1" d="M90.93,79.18c-.55,0-.99-.44-.99-.99s.44-.99.99-.99.99.44.99.99-.44.99-.99.99Z"/>
    <path class="cls-1" d="M321.28,79.18c-.55,0-.99-.44-.99-.99s.44-.99.99-.99.99.44.99.99-.44.99-.99.99Z"/>
    <circle class="cls-1" cx="244.5" cy="251.65" r=".99"/>
    <path class="cls-1" d="M282.89,165.91c-.55,0-.99-.44-.99-.99s.44-.99.99-.99.99.44.99.99-.44.99-.99.99Z"/>
    <path class="cls-1" d="M254.4,60.72s0,0,0,0c0,0-.01,0-.02,0-.03-.01-.05-.02-.08-.04-.11-.05-.23-.1-.34-.15-.15-.07-.3-.13-.45-.2-.3-.13-.6-.27-.91-.4s-.61-.27-.91-.4c-.15-.07-.3-.13-.45-.2-.11-.05-.23-.1-.35-.15-.03-.01-.05-.02-.08-.04,0,0-.01,0-.02,0,0,0,0,0,0,0"/>
    <path class="cls-1" d="M66.19,485.91s0,0,0,0c0,0-.01,0-.02,0-.03-.01-.06-.02-.08-.04-.11-.05-.23-.1-.35-.15-.15-.07-.3-.13-.45-.2-.3-.13-.61-.27-.91-.4-.3-.13-.6-.27-.91-.4-.15-.07-.3-.13-.45-.2-.15-.07-.3-.13-.45-.2"/>
    <path class="cls-1" d="M164.7,253.55c-.57-.2-.95-.74-.95-1.34"/>
    <path class="cls-1" d="M244.5,79.18c-.55,0-.99-.44-.99-.99s.44-.99.99-.99.99.44.99.99-.44.99-.99.99Z"/>
    <path class="cls-1" d="M167.72,79.18c-.55,0-.99-.44-.99-.99s.44-.99.99-.99.99.44.99.99-.44.99-.99.99Z"/>
    <circle class="cls-1" cx="167.72" cy="251.65" r=".99"/>
    <circle class="cls-1" cx="129.32" cy="164.92" r=".99"/>
    <path class="cls-1" d="M202.71,167.7c-1.32-1.62-1.32-3.95,0-5.56"/>
    <path class="cls-1" d="M209.51,162.14c1.32,1.62,1.32,3.94,0,5.56"/>
    <path class="cls-1" d="M202.77,167.55c-1.22-1.54-1.22-3.73,0-5.27"/>
    <path class="cls-1" d="M209.44,162.28c1.22,1.54,1.22,3.73,0,5.27"/>
    <line class="cls-1" x1="254.4" y1="60.72" x2="246.67" y2="78.18"/>
    <path class="cls-1" d="M247.51,249.74c.57.2.95.74.95,1.34"/>
    <line class="cls-1" x1="241.45" y1="249.66" x2="170.76" y2="249.66"/>
    <line class="cls-1" x1="241.45" y1="253.63" x2="170.76" y2="253.63"/>
    <line class="cls-1" x1="244.5" y1="73.28" x2="250.77" y2="59.11"/>
    <line class="cls-1" x1="206.11" y1="160.01" x2="242.33" y2="78.18"/>
    <line class="cls-1" x1="167.72" y1="256.55" x2="66.19" y2="485.91"/>
    <line class="cls-1" x1="172.17" y1="266.62" x2="81.03" y2="60.72"/>
    <line class="cls-1" x1="84.66" y1="59.11" x2="175.8" y2="265.02"/>
    <line class="cls-1" x1="346.02" y1="485.91" x2="157.81" y2="60.72"/>
    <line class="cls-1" x1="161.44" y1="59.11" x2="349.65" y2="484.31"/>
    <line class="cls-1" x1="236.41" y1="265.02" x2="242.33" y2="251.65"/>
    <line class="cls-1" x1="282.89" y1="169.82" x2="246.67" y2="251.65"/>
    <line class="cls-1" x1="287.35" y1="179.89" x2="234.59" y2="60.72"/>
    <line class="cls-1" x1="238.22" y1="59.11" x2="290.98" y2="178.29"/>
    <line class="cls-1" x1="62.56" y1="484.31" x2="165.55" y2="251.65"/>
    <line class="cls-1" x1="167.72" y1="246.74" x2="203.94" y2="164.92"/>
  </g>
</svg>