<?xml version="1.0" encoding="UTF-8"?>
<svg xmlns="http://www.w3.org/2000/svg" viewBox="0 0 262.98 303.54">
  <defs>
    <style>
      .cls-1 {
        fill: #fff;
        stroke: #000;
        stroke-linecap: round;
        stroke-linejoin: round;
        stroke-width: .5px;
      }

      .cls-2 {
        fill: #333;
        font-family: ArialMT, Arial;
        font-size: 17.02px;
      }

      .cls-3 {
        fill: none;
        stroke: #333;
        stroke-miterlimit: 10;
        stroke-width: .15px;
      }
    </style>
  </defs>
  <g id="cote">
    <line class="cls-3" x1="64.24" y1="59.89" x2="64.24" y2="39.69"/>
    <line class="cls-3" x1="72.17" y1="59.89" x2="72.17" y2="39.69"/>
    <line class="cls-3" x1="63.39" y1="40.26" x2="64.45" y2="40.26"/>
    <line class="cls-3" x1="71.9" y1="40.26" x2="73.02" y2="40.26"/>
    <polyline class="cls-3" points="65.02 39.34 63.32 41.04 63.45 41.18 65.15 39.48 65.02 39.34"/>
    <polyline class="cls-3" points="71.39 41.18 73.09 39.48 72.96 39.34 71.25 41.04 71.39 41.18"/>
    <line class="cls-3" x1="209.94" y1="59.89" x2="209.94" y2="39.69"/>
    <line class="cls-3" x1="217.87" y1="59.89" x2="217.87" y2="39.69"/>
    <line class="cls-3" x1="209.09" y1="40.26" x2="210.15" y2="40.26"/>
    <line class="cls-3" x1="217.6" y1="40.26" x2="218.73" y2="40.26"/>
    <polyline class="cls-3" points="210.72 39.34 209.02 41.04 209.16 41.18 210.86 39.48 210.72 39.34"/>
    <polyline class="cls-3" points="217.09 41.18 218.79 39.48 218.66 39.34 216.96 41.04 217.09 41.18"/>
    <line class="cls-3" x1="63.95" y1="77.45" x2="43.76" y2="77.45"/>
    <line class="cls-3" x1="63.95" y1="60.17" x2="43.76" y2="60.17"/>
    <line class="cls-3" x1="44.33" y1="78.3" x2="44.33" y2="72.63"/>
    <line class="cls-3" x1="44.33" y1="65.11" x2="44.33" y2="59.32"/>
    <polyline class="cls-3" points="43.41 76.67 45.11 78.37 45.25 78.23 43.54 76.53 43.41 76.67"/>
    <polyline class="cls-3" points="45.25 60.95 43.54 59.25 43.41 59.39 45.11 61.09 45.25 60.95"/>
    <line class="cls-3" x1="63.95" y1="250.91" x2="43.76" y2="250.91"/>
    <line class="cls-3" x1="63.95" y1="79.44" x2="43.76" y2="79.44"/>
    <line class="cls-3" x1="44.33" y1="251.77" x2="44.33" y2="173.37"/>
    <line class="cls-3" x1="44.33" y1="157.1" x2="44.33" y2="78.59"/>
    <polyline class="cls-3" points="43.41 250.13 45.11 251.83 45.24 251.7 43.54 250 43.41 250.13"/>
    <polyline class="cls-3" points="45.24 80.22 43.54 78.52 43.41 78.65 45.11 80.35 45.24 80.22"/>
    <line class="cls-3" x1="63.95" y1="266.62" x2="43.76" y2="266.62"/>
    <line class="cls-3" x1="63.95" y1="252.9" x2="43.76" y2="252.9"/>
    <line class="cls-3" x1="44.33" y1="267.47" x2="44.33" y2="263.52"/>
    <line class="cls-3" x1="44.33" y1="255.94" x2="44.33" y2="252.05"/>
    <polyline class="cls-3" points="43.41 265.84 45.11 267.54 45.24 267.41 43.54 265.71 43.41 265.84"/>
    <polyline class="cls-3" points="45.24 253.68 43.54 251.98 43.41 252.12 45.11 253.82 45.24 253.68"/>
    <line class="cls-3" x1="72.17" y1="59.89" x2="72.17" y2="39.69"/>
    <line class="cls-3" x1="209.94" y1="59.89" x2="209.94" y2="39.69"/>
    <line class="cls-3" x1="71.32" y1="40.26" x2="132.49" y2="40.26"/>
    <line class="cls-3" x1="149.19" y1="40.26" x2="210.79" y2="40.26"/>
    <polyline class="cls-3" points="72.96 39.34 71.25 41.04 71.39 41.18 73.09 39.48 72.96 39.34"/>
    <polyline class="cls-3" points="209.16 41.18 210.86 39.48 210.72 39.34 209.02 41.04 209.16 41.18"/>
  </g>
  <g id="Calque_5" data-name="Calque 5">
    <text class="cls-2" transform="translate(63.83 45.93)"><tspan x="0" y="0">3</tspan></text>
    <text class="cls-2" transform="translate(209.53 45.93)"><tspan x="0" y="0">3</tspan></text>
    <text class="cls-2" transform="translate(50 73.19) rotate(-90)"><tspan x="0" y="0">6</tspan></text>
    <text class="cls-2" transform="translate(50 173.93) rotate(-90)"><tspan x="0" y="0">60</tspan></text>
    <text class="cls-2" transform="translate(50 264.14) rotate(-90)"><tspan x="0" y="0">6</tspan></text>
    <text class="cls-2" transform="translate(132.31 45.93)"><tspan x="0" y="0">50</tspan></text>
  </g>
  <g id="Make2D::Visible::Courbes">
    <line class="cls-1" x1="210.22" y1="266.62" x2="218.16" y2="266.62"/>
    <line class="cls-1" x1="64.52" y1="266.62" x2="72.46" y2="266.62"/>
  </g>
  <g id="Make2D::Visible">
    <line class="cls-1" x1="215.61" y1="79.44" x2="213.9" y2="79.44"/>
    <path class="cls-1" d="M73.19,164.18v-3.38s0-.02,0-.02"/>
    <path class="cls-1" d="M73.19,169.57s0-.02,0-.02v-3.38"/>
    <path class="cls-1" d="M72.49,166.17v3.38s0,.04,0,.02"/>
    <path class="cls-1" d="M72.49,160.78s0,.02,0,.02v3.38"/>
    <path class="cls-1" d="M209.63,166.17v3.38s0,.04,0,.02"/>
    <path class="cls-1" d="M209.63,160.78s0,0,0,0v3.4"/>
    <path class="cls-1" d="M208.92,166.17v3.38s0,.02,0,.02"/>
    <path class="cls-1" d="M208.92,160.78s0,0,0,0v3.4"/>
    <path class="cls-1" d="M72.17,252.47v1.41s0,0,0,0"/>
    <path class="cls-1" d="M72.74,253.89s0,0,0-.01v-1.41"/>
    <path class="cls-1" d="M72.17,249.92s0,0,0,.01v1.41"/>
    <path class="cls-1" d="M72.74,251.34v-1.41s0-.02,0-.01"/>
    <path class="cls-1" d="M209.37,252.47v1.41s0,0,0,0"/>
    <path class="cls-1" d="M209.94,253.89s0,0,0-.01v-1.41"/>
    <path class="cls-1" d="M209.37,249.92s0,0,0,.01v1.41"/>
    <path class="cls-1" d="M209.94,251.34v-1.41s0-.01,0-.01"/>
    <line class="cls-1" x1="209.94" y1="77.45" x2="209.94" y2="60.17"/>
    <line class="cls-1" x1="207.1" y1="164.18" x2="209.94" y2="164.18"/>
    <line class="cls-1" x1="72.17" y1="164.18" x2="75.01" y2="164.18"/>
    <line class="cls-1" x1="75.01" y1="166.17" x2="72.18" y2="166.17"/>
    <line class="cls-1" x1="209.94" y1="166.17" x2="207.1" y2="166.17"/>
    <path class="cls-1" d="M207.1,79.72s0-.01,0-.02v-1.26c0-.43,0-.85,0-1.28"/>
    <line class="cls-1" x1="75.01" y1="164.15" x2="75.01" y2="79.72"/>
    <line class="cls-1" x1="207.1" y1="79.72" x2="207.1" y2="164.15"/>
    <path class="cls-1" d="M75.01,77.17s0,.05,0,.08v2.16c0,.11,0,.21,0,.32"/>
    <path class="cls-1" d="M207.1,166.45c0-.19,0-.38,0-.57v-1.72"/>
    <path class="cls-1" d="M75.01,164.15v1.15c0,.38,0,.77,0,1.15"/>
    <line class="cls-1" x1="75.01" y1="250.88" x2="75.01" y2="166.45"/>
    <line class="cls-1" x1="207.1" y1="166.45" x2="207.1" y2="250.88"/>
    <path class="cls-1" d="M75.01,250.88v2.23s0,.05,0,.07"/>
    <path class="cls-1" d="M207.1,253.18s0-.01,0-.02v-2.28"/>
    <line class="cls-1" x1="72.17" y1="166.17" x2="72.17" y2="249.92"/>
    <line class="cls-1" x1="213.91" y1="250.91" x2="213.91" y2="179.35"/>
    <line class="cls-1" x1="217.87" y1="179.35" x2="217.87" y2="250.91"/>
    <path class="cls-1" d="M72.26,166.17v3.24s0,.04,0,.02"/>
    <line class="cls-1" x1="209.94" y1="164.18" x2="209.94" y2="79.44"/>
    <path class="cls-1" d="M209.85,166.17v3.25s0,0,0,0"/>
    <line class="cls-1" x1="72.74" y1="250.91" x2="75.01" y2="250.91"/>
    <line class="cls-1" x1="217.87" y1="250.91" x2="219.58" y2="250.91"/>
    <line class="cls-1" x1="209.37" y1="252.9" x2="207.1" y2="252.9"/>
    <line class="cls-1" x1="208.92" y1="169.31" x2="207.1" y2="169.31"/>
    <line class="cls-1" x1="73.19" y1="161.04" x2="75.01" y2="161.04"/>
    <line class="cls-1" x1="72.17" y1="79.44" x2="72.17" y2="164.18"/>
    <path class="cls-1" d="M213.91,266.08c0,.21-.18.35-.33.44-.17.1-.34.17-.53.22-.37.11-.75.14-1.13.14s-.76-.04-1.13-.14c-.19-.05-.36-.12-.53-.22-.15-.09-.33-.23-.33-.44"/>
    <line class="cls-1" x1="72.17" y1="253.89" x2="72.17" y2="266.08"/>
    <line class="cls-1" x1="213.91" y1="77.45" x2="215.61" y2="77.45"/>
    <line class="cls-1" x1="68.2" y1="79.44" x2="66.5" y2="79.44"/>
    <path class="cls-1" d="M68.2,60.17c0-.2.18-.35.33-.44.17-.1.34-.17.53-.22.37-.11.75-.14,1.13-.14"/>
    <path class="cls-1" d="M72.17,266.08c0,.21-.18.35-.33.44-.17.1-.34.17-.53.22-.37.11-.75.14-1.13.14s-.76-.04-1.13-.14c-.19-.05-.36-.12-.53-.22-.15-.09-.33-.23-.33-.44"/>
    <path class="cls-1" d="M72.17,60.17c0,.21-.18.35-.33.44-.17.1-.34.17-.53.22-.37.11-.75.14-1.13.14s-.76-.04-1.13-.14c-.19-.05-.36-.12-.53-.22-.15-.09-.33-.23-.33-.44"/>
    <path class="cls-1" d="M70.19,59.37c.39,0,.76.04,1.13.14.19.05.36.12.53.22.14.09.33.24.33.44"/>
    <path class="cls-1" d="M66.5,77.45s0,0,0,0h0v1.97s0,0,0,.01"/>
    <line class="cls-1" x1="66.5" y1="77.45" x2="68.2" y2="77.45"/>
    <path class="cls-1" d="M215.61,79.44s0,0,0-.01v-1.96h0s0-.02,0-.01"/>
    <line class="cls-1" x1="72.49" y1="169.43" x2="72.26" y2="169.43"/>
    <line class="cls-1" x1="72.26" y1="160.92" x2="72.49" y2="160.92"/>
    <line class="cls-1" x1="73.19" y1="169.57" x2="72.49" y2="169.57"/>
    <line class="cls-1" x1="72.49" y1="160.78" x2="73.19" y2="160.78"/>
    <path class="cls-1" d="M72.26,160.92s0,.02,0,.02v3.24"/>
    <line class="cls-1" x1="213.91" y1="60.17" x2="213.91" y2="77.45"/>
    <line class="cls-1" x1="209.94" y1="249.92" x2="209.94" y2="166.17"/>
    <line class="cls-1" x1="209.63" y1="169.57" x2="208.92" y2="169.57"/>
    <line class="cls-1" x1="208.92" y1="160.78" x2="209.63" y2="160.78"/>
    <line class="cls-1" x1="209.85" y1="169.43" x2="209.63" y2="169.43"/>
    <line class="cls-1" x1="209.63" y1="160.92" x2="209.85" y2="160.92"/>
    <path class="cls-1" d="M209.85,160.92s0,0,0,0v3.25"/>
    <line class="cls-1" x1="72.74" y1="253.89" x2="72.17" y2="253.89"/>
    <line class="cls-1" x1="72.74" y1="249.92" x2="72.17" y2="249.92"/>
    <line class="cls-1" x1="72.17" y1="252.47" x2="72.17" y2="251.34"/>
    <line class="cls-1" x1="72.74" y1="251.34" x2="72.74" y2="252.47"/>
    <line class="cls-1" x1="209.94" y1="253.89" x2="209.37" y2="253.89"/>
    <line class="cls-1" x1="209.94" y1="249.92" x2="209.37" y2="249.92"/>
    <line class="cls-1" x1="209.37" y1="252.47" x2="209.37" y2="251.34"/>
    <line class="cls-1" x1="209.94" y1="251.34" x2="209.94" y2="252.47"/>
    <path class="cls-1" d="M209.94,60.17c0-.2.18-.35.33-.44.17-.1.34-.17.53-.22.37-.11.75-.14,1.13-.14"/>
    <path class="cls-1" d="M213.91,60.17c0,.21-.18.35-.33.44-.17.1-.34.17-.53.22-.37.11-.75.14-1.13.14s-.76-.04-1.13-.14c-.19-.05-.36-.12-.53-.22-.15-.09-.33-.23-.33-.44"/>
    <line class="cls-1" x1="209.94" y1="266.08" x2="209.94" y2="253.89"/>
    <path class="cls-1" d="M211.92,59.37c.39,0,.76.04,1.13.14.19.05.36.12.53.22.14.09.33.24.33.44"/>
    <line class="cls-1" x1="75.01" y1="252.9" x2="72.74" y2="252.9"/>
    <line class="cls-1" x1="72.18" y1="77.45" x2="72.18" y2="77.45"/>
    <line class="cls-1" x1="207.1" y1="79.72" x2="75.01" y2="79.72"/>
    <line class="cls-1" x1="207.1" y1="250.91" x2="209.37" y2="250.91"/>
    <line class="cls-1" x1="219.58" y1="252.9" x2="217.87" y2="252.9"/>
    <line class="cls-1" x1="64.24" y1="252.9" x2="62.54" y2="252.9"/>
    <path class="cls-1" d="M219.58,250.91s0,0,0,.02v1.96h0s0,.01,0,.01"/>
    <path class="cls-1" d="M62.54,250.91s0,.04,0,.06v1.91h0s0,.01,0,.01"/>
    <line class="cls-1" x1="62.54" y1="250.91" x2="64.24" y2="250.91"/>
    <path class="cls-1" d="M219.58,252.9s0,0,0-.01v-1.96h0s0-.02,0-.02"/>
    <line class="cls-1" x1="75.01" y1="164.15" x2="207.1" y2="164.15"/>
    <line class="cls-1" x1="213.91" y1="164.18" x2="213.91" y2="79.44"/>
    <line class="cls-1" x1="217.87" y1="79.44" x2="217.87" y2="164.18"/>
    <line class="cls-1" x1="217.87" y1="166.17" x2="217.87" y2="179.35"/>
    <line class="cls-1" x1="217.87" y1="77.45" x2="219.58" y2="77.45"/>
    <line class="cls-1" x1="217.87" y1="164.18" x2="219.58" y2="164.18"/>
    <path class="cls-1" d="M213.91,179.35c0,.2.18.35.33.44.17.1.34.17.53.22.37.11.75.14,1.13.14"/>
    <path class="cls-1" d="M217.87,179.35c0-.21-.18-.35-.33-.44-.17-.1-.34-.17-.53-.22-.37-.11-.75-.14-1.13-.14s-.76.04-1.13.14c-.19.05-.36.12-.53.22-.15.09-.33.24-.33.44"/>
    <path class="cls-1" d="M217.87,60.17c0-.21-.18-.35-.33-.44-.17-.1-.34-.17-.53-.22-.37-.11-.75-.14-1.13-.14s-.76.04-1.13.14c-.19.05-.36.12-.53.22-.15.09-.33.24-.33.44"/>
    <line class="cls-1" x1="213.91" y1="179.35" x2="213.91" y2="166.17"/>
    <line class="cls-1" x1="217.87" y1="60.17" x2="217.87" y2="77.45"/>
    <path class="cls-1" d="M215.89,180.15c.39,0,.76-.04,1.13-.14.19-.05.36-.12.53-.22.14-.09.33-.24.33-.44"/>
    <line class="cls-1" x1="219.58" y1="79.44" x2="217.87" y2="79.44"/>
    <path class="cls-1" d="M219.58,79.44s0,0,0-.01v-1.96h0s0-.01,0-.01"/>
    <line class="cls-1" x1="219.58" y1="166.17" x2="217.88" y2="166.17"/>
    <path class="cls-1" d="M219.58,166.17s0,0,0-.01v-1.96h0s0-.02,0-.01"/>
    <line class="cls-1" x1="75.01" y1="169.31" x2="73.19" y2="169.31"/>
    <line class="cls-1" x1="207.1" y1="161.04" x2="208.92" y2="161.04"/>
    <line class="cls-1" x1="75.01" y1="77.17" x2="207.1" y2="77.17"/>
    <line class="cls-1" x1="75.01" y1="79.7" x2="207.1" y2="79.7"/>
    <line class="cls-1" x1="207.1" y1="166.45" x2="75.01" y2="166.45"/>
    <line class="cls-1" x1="75.01" y1="166.43" x2="207.1" y2="166.43"/>
    <line class="cls-1" x1="75.01" y1="253.18" x2="207.1" y2="253.18"/>
    <line class="cls-1" x1="207.1" y1="250.88" x2="75.01" y2="250.88"/>
    <line class="cls-1" x1="68.2" y1="77.45" x2="68.2" y2="60.17"/>
    <line class="cls-1" x1="68.2" y1="164.18" x2="68.2" y2="79.44"/>
    <path class="cls-1" d="M62.54,164.18s0,0,0,.01v1.96h0s0,.01,0,.01"/>
    <line class="cls-1" x1="62.54" y1="164.18" x2="64.24" y2="164.18"/>
    <line class="cls-1" x1="64.24" y1="166.17" x2="62.54" y2="166.17"/>
    <path class="cls-1" d="M64.24,179.35c0,.2.18.35.33.44.17.1.34.17.53.22.37.11.75.14,1.13.14"/>
    <path class="cls-1" d="M68.2,179.35c0-.21-.18-.35-.33-.44-.17-.1-.34-.17-.53-.22-.37-.11-.75-.14-1.13-.14s-.76.04-1.13.14c-.19.05-.36.12-.53.22-.15.09-.33.24-.33.44"/>
    <path class="cls-1" d="M66.22,180.15c.39,0,.76-.04,1.13-.14.19-.05.36-.12.53-.22.14-.09.33-.24.33-.44"/>
    <line class="cls-1" x1="64.24" y1="250.91" x2="64.24" y2="179.35"/>
    <line class="cls-1" x1="64.24" y1="179.35" x2="64.24" y2="166.17"/>
    <line class="cls-1" x1="64.24" y1="79.44" x2="62.54" y2="79.44"/>
    <line class="cls-1" x1="64.24" y1="164.18" x2="64.24" y2="79.44"/>
    <path class="cls-1" d="M62.54,77.45s0,0,0,.01v1.96s0,0,0,.01"/>
    <path class="cls-1" d="M68.2,60.17c0-.21-.18-.35-.33-.44-.17-.1-.34-.17-.53-.22-.37-.11-.75-.14-1.13-.14s-.76.04-1.13.14c-.19.05-.36.12-.53.22-.15.09-.33.24-.33.44"/>
    <line class="cls-1" x1="62.54" y1="77.45" x2="64.24" y2="77.45"/>
    <line class="cls-1" x1="64.24" y1="77.45" x2="64.24" y2="60.17"/>
    <line class="cls-1" x1="213.91" y1="266.62" x2="213.91" y2="252.9"/>
    <line class="cls-1" x1="209.94" y1="266.62" x2="209.94" y2="266.08"/>
    <line class="cls-1" x1="72.17" y1="266.08" x2="72.17" y2="266.62"/>
    <line class="cls-1" x1="68.2" y1="252.9" x2="68.2" y2="266.62"/>
    <line class="cls-1" x1="217.87" y1="252.9" x2="217.87" y2="266.62"/>
    <line class="cls-1" x1="64.24" y1="266.62" x2="64.24" y2="252.9"/>
    <line class="cls-1" x1="68.2" y1="250.91" x2="68.2" y2="166.17"/>
    <line class="cls-1" x1="72.17" y1="60.17" x2="72.17" y2="77.45"/>
    <line class="cls-1" x1="207.1" y1="77.45" x2="209.94" y2="77.45"/>
    <line class="cls-1" x1="72.18" y1="77.45" x2="75.01" y2="77.45"/>
    <line class="cls-1" x1="75.01" y1="79.44" x2="72.18" y2="79.44"/>
    <line class="cls-1" x1="209.94" y1="79.44" x2="207.1" y2="79.44"/>
  </g>
</svg>