<svg xmlns="http://www.w3.org/2000/svg" viewBox="0 0 205.34 244.19"><defs><style>.cls-1{fill:#fff}.cls-1,.cls-2{stroke:#000;stroke-linecap:round;stroke-linejoin:round;stroke-width:.5px}.cls-2,.cls-3{fill:none}.cls-4{fill:#333;font-family:ArialMT,Arial;font-size:17.02px}.cls-3{stroke:#333;stroke-miterlimit:10;stroke-width:.15px}</style></defs><g id="cote"><path d="M29.44 238.05H9.25M29.44 33.28H9.25M9.81 238.9v-95.22M9.81 127.72V32.43M8.9 237.27l1.7 1.7.13-.14-1.7-1.7-.13.14M10.73 34.07l-1.7-1.7-.13.13 1.7 1.7.13-.13M37.56 29.2V9M195.47 29.2V9M36.71 9.57h71.67M124.59 9.57h71.73M38.34 8.65l-1.7 1.7.14.14 1.7-1.7-.14-.14M194.69 10.49l1.7-1.7-.14-.14-1.7 1.7.14.14" class="cls-3"/></g><g id="Calque_5" data-name="Calque 5"><text class="cls-4" transform="rotate(-90 79.95 64.47)"><tspan x="0" y="0">72</tspan></text><text class="cls-4" transform="translate(107.77 15.24)"><tspan x="0" y="0">56</tspan></text></g><g id="Make2D::Visible::Courbes"><path d="M164.81 33.28s0 0 0 0h-.02s-.05-.03-.08-.05c-.11-.05-.23-.1-.34-.15-.15-.07-.3-.13-.45-.2-.3-.13-.6-.27-.91-.4s-.6-.27-.91-.4c-.15-.07-.3-.13-.45-.2-.11-.05-.23-.1-.34-.15a.3.3 0 0 1-.08-.04h-.02v-.01M31.64 150.86l5.92-13.38M35.27 152.46s0 0 0 0h-.02c-.03-.01-.06-.02-.08-.04-.11-.05-.23-.1-.35-.15-.15-.07-.3-.13-.45-.2-.3-.13-.61-.27-.91-.4s-.6-.27-.91-.4c-.15-.07-.3-.13-.45-.2-.12-.05-.23-.1-.35-.15a.3.3 0 0 1-.08-.04h-.02q0 0 0 0M88.03 33.28l-7.74 17.47M88.03 33.28s0 0 0 0h-.02a.3.3 0 0 1-.08-.04c-.12-.05-.23-.1-.35-.15-.15-.07-.3-.13-.45-.2-.3-.13-.6-.27-.91-.4s-.6-.27-.91-.4c-.15-.07-.3-.13-.45-.2-.11-.05-.23-.1-.34-.15a.3.3 0 0 1-.08-.04h-.02v-.01M86.21 237.59s-.02 0-.03.01a.3.3 0 0 0-.08.04c-.11.05-.23.1-.34.15-.15.07-.3.13-.45.2-.3.13-.6.27-.91.4-.3.13-.61.27-.91.4-.15.07-.3.13-.45.2-.11.05-.23.1-.35.15a.3.3 0 0 0-.08.04h-.02q0 0 0 0M71.85 31.68s0 0 0 0h-.02s-.05.03-.08.05c-.11.05-.23.1-.34.15-.15.07-.3.13-.45.2-.3.13-.6.27-.91.4s-.6.27-.91.4c-.15.07-.3.13-.45.2-.11.05-.23.1-.34.15-.03.01-.06.02-.08.04 0 0-.02 0-.03.01M78.12 45.85l6.28-14.17M39.73 132.58l36.22-81.83M39.73 142.39l-4.46 10.07M78.12 55.66 41.9 137.49M150.45 239.19s0 0 0 0h-.02a.3.3 0 0 1-.08-.04c-.12-.05-.23-.1-.35-.15-.15-.07-.3-.13-.45-.2-.3-.13-.6-.27-.91-.4-.3-.13-.6-.27-.91-.4-.15-.07-.3-.13-.45-.2-.11-.05-.23-.1-.34-.15a.3.3 0 0 1-.08-.04h-.02q0 0 0 0M201.38 150.86s-.02 0-.03.01a.3.3 0 0 0-.08.04c-.11.05-.23.1-.35.15-.15.07-.3.13-.45.2-.3.13-.61.27-.91.4s-.61.27-.91.4c-.15.07-.3.13-.45.2-.11.05-.23.1-.35.15a.3.3 0 0 0-.08.04h-.02q0 0 0 0M148.63 31.68s0 0 0 0h-.02s-.05.03-.08.05c-.11.05-.23.1-.34.15-.15.07-.3.13-.45.2-.3.13-.6.27-.91.4s-.61.27-.91.4c-.15.07-.3.13-.45.2-.11.05-.23.1-.35.15a.3.3 0 0 0-.08.04h-.02q0 0 0 0M154.9 219.31l36.23-81.82M154.9 229.12l-4.45 10.07M158.87 224.78v-1.13M74.15 223.65c0-.6.38-1.14.95-1.34M74.15 224.78v-1.13M158.87 224.78c0 .6-.38 1.14-.95 1.34" class="cls-1"/><circle cx="154.9" cy="224.22" r=".99" class="cls-1"/><circle cx="193.3" cy="137.49" r=".99" class="cls-1"/><path d="M75.11 226.12c-.57-.2-.95-.74-.95-1.34M154.9 51.75c-.55 0-.99-.44-.99-.99s.44-.99.99-.99.99.44.99.99-.44.99-.99.99M78.12 51.75c-.55 0-.99-.44-.99-.99s.44-.99.99-.99.99.44.99.99-.44.99-.99.99" class="cls-1"/><circle cx="78.12" cy="224.22" r=".99" class="cls-1"/><circle cx="39.73" cy="137.49" r=".99" class="cls-1"/><path d="M113.11 140.27a4.4 4.4 0 0 1 0-5.56M119.91 134.7a4.4 4.4 0 0 1 0 5.56" class="cls-1"/><path d="M113.18 140.12a4.25 4.25 0 0 1 0-5.27M119.85 134.85a4.25 4.25 0 0 1 0 5.27M164.81 33.28l-7.73 17.47M157.92 222.31c.57.2.95.74.95 1.34M151.86 222.23H81.17M151.86 226.2H81.17M154.9 45.85l6.28-14.17M116.51 132.58l36.23-81.83M146.82 237.59l5.92-13.37M193.3 142.39l-36.22 81.83M78.12 219.31l36.22-81.82M154.9 55.66l-36.22 81.83M116.51 142.39l-36.22 81.83M39.73 132.58l46.48 105.01M82.58 239.19l-45.02-101.7" class="cls-1"/><circle cx="193.3" cy="137.49" r=".99" class="cls-1"/><path d="m148.63 31.68 44.67 100.9M195.47 137.49l5.91 13.37" class="cls-1"/><path d="m197.76 152.46-4.46-10.07 2.22-4.68 2.23-5.03 4.58-10.36" class="cls-2"/><path d="m78.12 229.12-4.46 10.07M159.36 239.19 68.22 33.28M70.03 237.59l5.92-13.37M71.85 31.68l91.14 205.91M37.74 137.71l-2.23-5.03-4.58-10.36" class="cls-1"/><path d="m198.6 120.67-3.08 6.97-2.23 5.04-2.16 4.81L145 33.28" class="cls-2"/><path d="m202.33 122.32-3.73-1.65M39.97 132.68l-2.23-5.04-3.08-6.97M30.93 122.32l3.73-1.65M159.36 239.19l3.63-1.6M73.66 239.19l-3.63-1.6" class="cls-1"/></g></svg>