<svg xmlns="http://www.w3.org/2000/svg" viewBox="0 0 337.95 491.81"><defs><style>.cls-1{fill:#fff;stroke:#000;stroke-linecap:round;stroke-linejoin:round;stroke-width:.5px}.cls-2{fill:#333;font-family:ArialMT,Arial;font-size:17.02px}.cls-3{fill:none;stroke:#333;stroke-miterlimit:10;stroke-width:.15px}</style></defs><g id="cote"><path d="M49.53 253.3h-20.2M49.53 77.85h-20.2M29.9 254.15v-80.38M29.9 157.62V77M28.98 252.51l1.7 1.7.14-.13-1.7-1.7-.14.13M30.82 78.63l-1.7-1.7-.14.14 1.7 1.7.14-.14M49.53 487.91h-20.2M49.53 253.3h-20.2M29.9 488.76V378.74M29.9 362.53V252.44M28.98 487.13l1.7 1.7.14-.13-1.7-1.7-.14.13" class="cls-3"/><path d="m30.82 254.08-1.7-1.7-.14.13 1.7 1.7.14-.13M49.53 77.85h-20.2M49.53 60.57h-20.2M29.9 78.7v-5.67M29.9 65.51v-5.79M28.98 77.07l1.7 1.7.14-.14-1.7-1.7-.14.14M30.82 61.35l-1.7-1.7-.14.14 1.7 1.7.14-.14M68.28 60.83v-20.2M141.44 60.83v-20.2M67.43 41.2h29.11M112.93 41.2h29.36M69.06 40.28l-1.7 1.7.14.14 1.7-1.7-.14-.14M140.65 42.12l1.7-1.7-.13-.14-1.7 1.7.13.14M238.02 60.83v-20.2M311.18 60.83v-20.2M237.17 41.2h29.11M282.67 41.2h29.36M238.81 40.28l-1.71 1.7.14.14 1.7-1.7-.13-.14M310.39 42.12l1.7-1.7-.13-.14-1.7 1.7.13.14M161.95 60.83v-20.2M218.22 60.83v-20.2M161.1 41.2h20.67M198.16 41.2h20.91M162.73 40.28l-1.7 1.7.14.14 1.7-1.7-.14-.14M217.43 42.12l1.71-1.7-.14-.14-1.7 1.7.13.14M29.62 487.91H9.42M29.62 60.63H9.42M9.99 488.76V285.74M9.99 263.98V59.78M9.07 487.13l1.7 1.7.14-.13-1.7-1.7-.14.13M10.91 61.42l-1.7-1.71-.14.14 1.7 1.7.14-.13" class="cls-3"/></g><g id="Calque_5" data-name="Calque 5"><text class="cls-2" transform="rotate(-90 104.945 69.375)"><tspan x="0" y="0">62</tspan></text><text class="cls-2" transform="rotate(-90 207.46 171.89)"><tspan x="0" y="0">83</tspan></text><path d="M46.18 41.2V21.01M333.28 41.2V21.01M45.33 21.57h132.94M200.02 21.57h134.11M46.97 20.66l-1.71 1.7.14.13 1.7-1.7-.13-.13M332.49 22.49l1.7-1.7-.13-.13-1.7 1.7.13.13" class="cls-3"/><text class="cls-2" transform="translate(173.28 25.23)"><tspan x="0" y="0">101</tspan></text><text class="cls-2" transform="rotate(-90 54.58 19.01)"><tspan x="0" y="0">6</tspan></text><text class="cls-2" transform="translate(96.11 46.87)"><tspan x="0" y="0">26</tspan></text><text class="cls-2" transform="translate(265.85 46.87)"><tspan x="0" y="0">26</tspan></text><text class="cls-2" transform="translate(181.33 46.87)"><tspan x="0" y="0">20</tspan></text><text class="cls-2" transform="rotate(-90 151.53 135.87)"><tspan x="0" y="0">151</tspan></text></g><g id="Make2D::Visible::Courbes"><path d="m228.12 85.09-36.22 81.83M189.73 171.82l-36.22 81.83M104.86 180.29l5.92-13.37M108.49 181.89s0 0 0 0h-.02a.3.3 0 0 1-.08-.04c-.12-.05-.23-.1-.35-.15-.15-.07-.3-.13-.45-.2-.3-.13-.6-.27-.91-.4s-.6-.27-.91-.4c-.15-.07-.3-.13-.45-.2-.11-.05-.23-.1-.34-.15a.3.3 0 0 1-.08-.04h-.02q0 0 0 0M161.24 62.72l-7.73 17.47M161.24 62.72s0 0 0 0h-.02s-.05-.03-.08-.05c-.11-.05-.23-.1-.34-.15-.15-.07-.3-.13-.45-.2-.3-.13-.6-.27-.91-.4s-.61-.27-.91-.4c-.15-.07-.3-.13-.45-.2-.11-.05-.23-.1-.35-.15a.3.3 0 0 1-.08-.04h-.02v-.01M159.43 267.02s0 0 0 0h-.02a.3.3 0 0 0-.08.04c-.11.05-.23.1-.35.15-.15.07-.3.13-.45.2-.3.13-.61.27-.91.4s-.61.27-.91.4c-.15.07-.3.13-.45.2-.11.05-.23.1-.35.15a.3.3 0 0 0-.08.04h-.02q0 0 0 0M68.28 61.11s0 0 0 0h-.02s-.05.03-.08.05c-.11.05-.23.1-.35.15-.15.07-.3.13-.45.2-.3.13-.6.27-.91.4s-.61.27-.91.4c-.15.07-.3.13-.45.2-.11.05-.23.1-.35.15a.3.3 0 0 0-.08.04s-.02 0-.03.01M333.28 486.31s0 0 0 0h-.02a.3.3 0 0 0-.08.04c-.11.05-.23.1-.34.15-.15.07-.3.13-.45.2-.3.13-.6.27-.91.4s-.6.27-.91.4c-.15.07-.3.13-.45.2-.11.05-.23.1-.34.15-.04.02-.07.03-.11.05M145.06 61.11s0 0 0 0h-.02s-.05.03-.08.05c-.11.05-.23.1-.35.15-.15.07-.3.13-.45.2-.3.13-.61.27-.91.4s-.61.27-.91.4c-.15.07-.3.13-.45.2-.11.05-.23.1-.35.15a.3.3 0 0 0-.08.04s-.02 0-.03.01M151.34 75.28l6.27-14.17M112.95 162.01l36.22-81.82M112.95 171.82l-4.46 10.07M151.34 85.09l-36.22 81.83M314.81 62.72l-46.13 104.2M314.81 62.72s0 0 0 0h-.02a.3.3 0 0 1-.08-.04c-.11-.05-.23-.1-.35-.15-.15-.07-.3-.13-.45-.2-.3-.13-.61-.27-.91-.4s-.61-.27-.91-.4c-.15-.07-.3-.13-.45-.2-.11-.05-.23-.1-.35-.15a.3.3 0 0 1-.08-.04h-.02q0 0 0 0M223.66 268.62s0 0 0 0h-.02a.3.3 0 0 1-.08-.04c-.11-.05-.23-.1-.34-.15-.15-.07-.3-.13-.45-.2-.3-.13-.6-.27-.91-.4-.3-.13-.61-.27-.91-.4-.15-.07-.3-.13-.45-.2-.11-.05-.23-.1-.34-.15-.03-.01-.06-.02-.08-.04h-.02q0 0 0 0M274.6 180.29s0 0 0 0h-.02a.3.3 0 0 0-.08.04c-.11.05-.23.1-.35.15-.15.07-.3.13-.45.2-.3.13-.61.27-.91.4s-.6.27-.91.4c-.15.07-.3.13-.45.2-.12.05-.23.1-.35.15a.3.3 0 0 0-.08.04h-.02q0 0 0 0M221.85 61.11s0 0 0 0h-.02s-.05.03-.08.05c-.11.05-.23.1-.35.15-.15.07-.3.13-.45.2-.3.13-.61.27-.91.4s-.61.27-.91.4c-.15.07-.3.13-.45.2-.11.05-.23.1-.35.15a.3.3 0 0 0-.08.04s-.02 0-.03.01M266.51 162.01l44.67-100.9M228.12 248.75l36.22-81.83M228.12 258.55l-4.46 10.07M232.09 254.22v-1.14M147.37 253.08c0-.6.38-1.14.95-1.34M147.37 254.22v-1.14M232.09 254.22c0 .6-.38 1.14-.95 1.34M74.56 81.18c-.55 0-.99-.44-.99-.99s.44-.99.99-.99.99.44.99.99-.44.99-.99.99M304.9 81.18c-.55 0-.99-.44-.99-.99s.44-.99.99-.99.99.44.99.99-.44.99-.99.99" class="cls-1"/><circle cx="228.12" cy="253.65" r=".99" class="cls-1"/><path d="M266.51 167.91c-.55 0-.99-.44-.99-.99s.44-.99.99-.99.99.44.99.99-.44.99-.99.99M238.02 62.72s0 0 0 0H238a.3.3 0 0 1-.08-.04c-.11-.05-.23-.1-.34-.15-.15-.07-.3-.13-.45-.2-.3-.13-.6-.27-.91-.4s-.61-.27-.91-.4c-.15-.07-.3-.13-.45-.2-.11-.05-.23-.1-.35-.15a.3.3 0 0 1-.08-.04h-.02q0 0 0 0M49.81 487.91s0 0 0 0h-.02c-.03-.01-.06-.02-.08-.04-.11-.05-.23-.1-.35-.15-.15-.07-.3-.13-.45-.2-.3-.13-.61-.27-.91-.4s-.6-.27-.91-.4c-.15-.07-.3-.13-.45-.2s-.3-.13-.45-.2M148.32 255.55c-.57-.2-.95-.74-.95-1.34M228.12 81.18c-.55 0-.99-.44-.99-.99s.44-.99.99-.99.99.44.99.99-.44.99-.99.99M151.34 81.18c-.55 0-.99-.44-.99-.99s.44-.99.99-.99.99.44.99.99-.44.99-.99.99" class="cls-1"/><circle cx="151.34" cy="253.65" r=".99" class="cls-1"/><circle cx="112.95" cy="166.92" r=".99" class="cls-1"/><path d="M186.33 169.7a4.4 4.4 0 0 1 0-5.56M193.13 164.14a4.4 4.4 0 0 1 0 5.56" class="cls-1"/><path d="M186.39 169.55a4.25 4.25 0 0 1 0-5.27M193.07 164.28a4.25 4.25 0 0 1 0 5.27M238.02 62.72l-7.73 17.46M231.13 251.74c.57.2.95.74.95 1.34M225.07 251.66h-70.68M225.07 255.63h-70.68M228.12 75.28l6.27-14.17M189.73 162.01l36.22-81.83M151.34 258.55 49.81 487.91M155.8 268.62 64.65 62.72M68.28 61.11l91.15 205.91M329.65 487.91 141.44 62.72M145.06 61.11l188.22 425.2M220.03 267.02l5.92-13.37M266.51 171.82l-36.22 81.83M270.97 181.89 218.22 62.72M221.85 61.11l52.75 119.18M46.18 486.31l102.99-232.66M151.34 248.74l36.22-81.82" class="cls-1"/></g></svg>