<?xml version="1.0" encoding="UTF-8"?>
<svg xmlns="http://www.w3.org/2000/svg" viewBox="0 0 262.98 303.54">
  <defs>
    <style>
      .cls-1 {
        fill: #fff;
        stroke: #000;
        stroke-linecap: round;
        stroke-linejoin: round;
        stroke-width: .5px;
      }

      .cls-2 {
        fill: #333;
        font-family: ArialMT, Arial;
        font-size: 17.02px;
      }

      .cls-3 {
        fill: none;
        stroke: #333;
        stroke-miterlimit: 10;
        stroke-width: .15px;
      }
    </style>
  </defs>
  <g id="cote">
    <line class="cls-3" x1="56.48" y1="265.48" x2="36.28" y2="265.48"/>
    <line class="cls-3" x1="56.47" y1="60.72" x2="36.28" y2="60.72"/>
    <line class="cls-3" x1="36.85" y1="266.33" x2="36.85" y2="171.11"/>
    <line class="cls-3" x1="36.85" y1="155.15" x2="36.85" y2="59.87"/>
    <polyline class="cls-3" points="35.93 264.7 37.63 266.4 37.77 266.26 36.06 264.56 35.93 264.7"/>
    <polyline class="cls-3" points="37.77 61.5 36.06 59.8 35.93 59.93 37.63 61.63 37.77 61.5"/>
    <line class="cls-3" x1="64.59" y1="56.63" x2="64.59" y2="36.44"/>
    <line class="cls-3" x1="222.5" y1="56.63" x2="222.5" y2="36.44"/>
    <line class="cls-3" x1="63.74" y1="37" x2="135.41" y2="37"/>
    <line class="cls-3" x1="151.62" y1="37" x2="223.35" y2="37"/>
    <polyline class="cls-3" points="65.38 36.08 63.68 37.78 63.81 37.92 65.51 36.22 65.38 36.08"/>
    <polyline class="cls-3" points="221.72 37.92 223.42 36.22 223.28 36.09 221.58 37.79 221.72 37.92"/>
  </g>
  <g id="Calque_5" data-name="Calque 5">
    <text class="cls-2" transform="translate(42.52 171.85) rotate(-90)"><tspan x="0" y="0">72</tspan></text>
    <text class="cls-2" transform="translate(134.8 42.67)"><tspan x="0" y="0">56</tspan></text>
  </g>
  <g id="Make2D::Visible::Courbes">
    <path class="cls-1" d="M191.84,60.72s0,0,0,0h-.02s-.05-.03-.08-.05c-.11-.05-.23-.1-.34-.15-.15-.07-.3-.13-.45-.2-.3-.13-.6-.27-.91-.4s-.6-.27-.91-.4c-.15-.07-.3-.13-.45-.2-.11-.05-.23-.1-.34-.15-.03-.01-.05-.02-.08-.04h-.02s0-.02,0-.01"/>
    <line class="cls-1" x1="58.68" y1="178.29" x2="64.59" y2="164.92"/>
    <path class="cls-1" d="M62.31,179.89s0,0,0,0c0,0-.01,0-.02,0-.03-.01-.06-.02-.08-.04-.11-.05-.23-.1-.35-.15-.15-.07-.3-.13-.45-.2-.3-.13-.61-.27-.91-.4-.3-.13-.6-.27-.91-.4-.15-.07-.3-.13-.45-.2-.12-.05-.23-.1-.35-.15-.03-.01-.05-.02-.08-.04,0,0-.01,0-.02,0,0,0,0,0,0,0"/>
    <line class="cls-1" x1="115.06" y1="60.72" x2="107.33" y2="78.19"/>
    <path class="cls-1" d="M115.06,60.72s0,0,0,0c0,0-.01,0-.02,0-.03-.01-.05-.02-.08-.04-.12-.05-.23-.1-.35-.15-.15-.07-.3-.13-.45-.2-.3-.13-.6-.27-.91-.4s-.6-.27-.91-.4c-.15-.07-.3-.13-.45-.2-.11-.05-.23-.1-.34-.15-.03-.01-.05-.02-.08-.04h-.02s0-.01,0-.01"/>
    <path class="cls-1" d="M113.24,265.02s-.02,0-.03.01c-.03.01-.05.02-.08.04-.11.05-.23.1-.34.15-.15.07-.3.13-.45.2-.3.13-.6.27-.91.4-.3.13-.61.27-.91.4-.15.07-.3.13-.45.2-.11.05-.23.1-.35.15-.03.01-.05.02-.08.04,0,0-.01,0-.02,0,0,0,0,0,0,0"/>
    <path class="cls-1" d="M98.88,59.11s0,0,0,0h-.02s-.05.03-.08.05c-.11.05-.23.1-.34.15-.15.07-.3.13-.45.2-.3.13-.6.27-.91.4s-.6.27-.91.4c-.15.07-.3.13-.45.2-.11.05-.23.1-.34.15-.03.01-.06.02-.08.04,0,0-.02,0-.03.01"/>
    <line class="cls-1" x1="105.16" y1="73.28" x2="111.43" y2="59.11"/>
    <line class="cls-1" x1="66.76" y1="160.01" x2="102.99" y2="78.19"/>
    <line class="cls-1" x1="66.76" y1="169.82" x2="62.31" y2="179.89"/>
    <line class="cls-1" x1="105.16" y1="83.09" x2="68.93" y2="164.92"/>
    <path class="cls-1" d="M177.48,266.62s0,0,0,0c0,0-.01,0-.02,0-.03-.01-.05-.02-.08-.04-.12-.05-.23-.1-.35-.15-.15-.07-.3-.13-.45-.2-.3-.13-.6-.27-.91-.4-.3-.13-.6-.27-.91-.4-.15-.07-.3-.13-.45-.2-.11-.05-.23-.1-.34-.15-.03-.01-.05-.02-.08-.04,0,0-.01,0-.02,0,0,0,0,0,0,0"/>
    <path class="cls-1" d="M228.42,178.29s-.02,0-.03.01c-.03.01-.05.02-.08.04-.11.05-.23.1-.35.15-.15.07-.3.13-.45.2-.3.13-.61.27-.91.4-.3.13-.61.27-.91.4-.15.07-.3.13-.45.2-.11.05-.23.1-.35.15-.03.01-.05.02-.08.04,0,0-.01,0-.02,0,0,0,0,0,0,0"/>
    <path class="cls-1" d="M175.66,59.11s0,0,0,0h-.02s-.05.03-.08.05c-.11.05-.23.1-.34.15-.15.07-.3.13-.45.2-.3.13-.6.27-.91.4s-.61.27-.91.4c-.15.07-.3.13-.45.2-.11.05-.23.1-.35.15-.03.01-.05.02-.08.04,0,0-.01,0-.02,0,0,0,0,0,0,0"/>
    <line class="cls-1" x1="181.94" y1="246.75" x2="218.16" y2="164.92"/>
    <line class="cls-1" x1="181.94" y1="256.55" x2="177.48" y2="266.62"/>
    <line class="cls-1" x1="185.91" y1="252.22" x2="185.91" y2="251.08"/>
    <path class="cls-1" d="M101.19,251.08c0-.6.38-1.14.95-1.34"/>
    <line class="cls-1" x1="101.19" y1="252.22" x2="101.19" y2="251.08"/>
    <path class="cls-1" d="M185.91,252.22c0,.6-.38,1.14-.95,1.34"/>
    <circle class="cls-1" cx="181.94" cy="251.65" r=".99"/>
    <circle class="cls-1" cx="220.33" cy="164.92" r=".99"/>
    <path class="cls-1" d="M102.14,253.55c-.57-.2-.95-.74-.95-1.34"/>
    <path class="cls-1" d="M181.94,79.18c-.55,0-.99-.44-.99-.99s.44-.99.99-.99.99.44.99.99-.44.99-.99.99Z"/>
    <path class="cls-1" d="M105.16,79.18c-.55,0-.99-.44-.99-.99s.44-.99.99-.99.99.44.99.99-.44.99-.99.99Z"/>
    <circle class="cls-1" cx="105.16" cy="251.65" r=".99"/>
    <circle class="cls-1" cx="66.76" cy="164.92" r=".99"/>
    <path class="cls-1" d="M140.15,167.7c-1.32-1.62-1.32-3.95,0-5.56"/>
    <path class="cls-1" d="M146.95,162.14c1.32,1.62,1.32,3.94,0,5.56"/>
    <path class="cls-1" d="M140.21,167.55c-1.22-1.54-1.22-3.73,0-5.27"/>
    <path class="cls-1" d="M146.88,162.28c1.22,1.54,1.22,3.73,0,5.27"/>
    <line class="cls-1" x1="191.84" y1="60.72" x2="184.11" y2="78.18"/>
    <path class="cls-1" d="M184.95,249.74c.57.2.95.74.95,1.34"/>
    <line class="cls-1" x1="178.89" y1="249.66" x2="108.2" y2="249.66"/>
    <line class="cls-1" x1="178.89" y1="253.63" x2="108.2" y2="253.63"/>
    <line class="cls-1" x1="181.94" y1="73.28" x2="188.21" y2="59.11"/>
    <line class="cls-1" x1="143.55" y1="160.01" x2="179.77" y2="78.18"/>
    <line class="cls-1" x1="173.85" y1="265.02" x2="179.77" y2="251.65"/>
    <line class="cls-1" x1="220.33" y1="169.82" x2="184.11" y2="251.65"/>
    <line class="cls-1" x1="105.16" y1="246.74" x2="141.38" y2="164.92"/>
    <line class="cls-1" x1="181.94" y1="83.09" x2="145.72" y2="164.92"/>
    <line class="cls-1" x1="143.55" y1="169.82" x2="107.32" y2="251.65"/>
    <line class="cls-1" x1="66.76" y1="160.01" x2="113.24" y2="265.02"/>
    <line class="cls-1" x1="109.61" y1="266.62" x2="64.59" y2="164.92"/>
    <circle class="cls-1" cx="220.33" cy="164.92" r=".99"/>
    <line class="cls-1" x1="175.66" y1="59.11" x2="220.33" y2="160.02"/>
    <line class="cls-1" x1="222.5" y1="164.92" x2="228.42" y2="178.29"/>
    <line class="cls-1" x1="224.79" y1="179.89" x2="220.33" y2="169.82"/>
    <line class="cls-1" x1="218.16" y1="164.92" x2="172.03" y2="60.72"/>
    <line class="cls-1" x1="105.16" y1="256.55" x2="100.7" y2="266.62"/>
    <line class="cls-1" x1="186.4" y1="266.62" x2="95.25" y2="60.72"/>
    <line class="cls-1" x1="97.07" y1="265.02" x2="102.99" y2="251.65"/>
    <line class="cls-1" x1="98.88" y1="59.11" x2="190.03" y2="265.02"/>
    <polyline class="cls-1" points="64.78 165.14 62.55 160.11 57.96 149.75"/>
    <polyline class="cls-1" points="222.55 165.14 224.78 160.11 229.36 149.75"/>
    <polyline class="cls-1" points="220.32 160.11 222.55 155.07 225.63 148.1"/>
    <line class="cls-1" x1="229.36" y1="149.75" x2="225.63" y2="148.1"/>
    <polyline class="cls-1" points="67.01 160.11 64.78 155.07 61.69 148.1"/>
    <line class="cls-1" x1="57.96" y1="149.75" x2="61.69" y2="148.1"/>
    <line class="cls-1" x1="186.4" y1="266.63" x2="190.03" y2="265.02"/>
    <line class="cls-1" x1="100.7" y1="266.63" x2="97.07" y2="265.02"/>
  </g>
</svg>