<?xml version="1.0" encoding="UTF-8"?>
<svg xmlns="http://www.w3.org/2000/svg" viewBox="0 0 245.17 532.03">
  <defs>
    <style>
      .cls-1 {
        stroke-width: .25px;
      }

      .cls-1, .cls-2 {
        fill: #fff;
        stroke: #000;
        stroke-linecap: round;
        stroke-linejoin: round;
      }

      .cls-2 {
        stroke-width: .5px;
      }

      .cls-3 {
        fill: #333;
        font-family: ArialMT, Arial;
        font-size: 17.02px;
      }

      .cls-4 {
        fill: none;
        stroke: #333;
        stroke-miterlimit: 10;
        stroke-width: .15px;
      }
    </style>
  </defs>
  <g id="cote">
    <line class="cls-4" x1="58.8" y1="487.52" x2="38.61" y2="487.52"/>
    <line class="cls-4" x1="58.8" y1="252.9" x2="38.61" y2="252.9"/>
    <line class="cls-4" x1="39.17" y1="488.37" x2="39.17" y2="378.34"/>
    <line class="cls-4" x1="39.17" y1="362.13" x2="39.17" y2="252.05"/>
    <polyline class="cls-4" points="38.25 486.73 39.95 488.43 40.09 488.3 38.39 486.6 38.25 486.73"/>
    <polyline class="cls-4" points="40.09 253.68 38.39 251.98 38.25 252.12 39.95 253.82 40.09 253.68"/>
    <line class="cls-4" x1="58.8" y1="77.45" x2="38.61" y2="77.45"/>
    <line class="cls-4" x1="58.8" y1="60.17" x2="38.61" y2="60.17"/>
    <line class="cls-4" x1="39.17" y1="78.3" x2="39.17" y2="72.63"/>
    <line class="cls-4" x1="39.17" y1="65.11" x2="39.17" y2="59.32"/>
    <polyline class="cls-4" points="38.25 76.67 39.95 78.37 40.09 78.23 38.39 76.53 38.25 76.67"/>
    <polyline class="cls-4" points="40.09 60.95 38.39 59.25 38.25 59.39 39.95 61.09 40.09 60.95"/>
    <line class="cls-4" x1="38.89" y1="487.52" x2="18.69" y2="487.52"/>
    <line class="cls-4" x1="38.89" y1="60.24" x2="18.7" y2="60.24"/>
    <line class="cls-4" x1="19.26" y1="488.37" x2="19.26" y2="285.34"/>
    <line class="cls-4" x1="19.26" y1="263.59" x2="19.26" y2="59.39"/>
    <polyline class="cls-4" points="18.34 486.73 20.04 488.43 20.18 488.3 18.48 486.6 18.34 486.73"/>
    <polyline class="cls-4" points="20.18 61.02 18.48 59.32 18.34 59.45 20.05 61.15 20.18 61.02"/>
    <line class="cls-4" x1="67.02" y1="59.89" x2="67.02" y2="39.69"/>
    <line class="cls-4" x1="204.78" y1="59.89" x2="204.78" y2="39.69"/>
    <line class="cls-4" x1="66.17" y1="40.26" x2="127.34" y2="40.26"/>
    <line class="cls-4" x1="144.04" y1="40.26" x2="205.63" y2="40.26"/>
    <polyline class="cls-4" points="67.8 39.34 66.1 41.04 66.24 41.18 67.94 39.48 67.8 39.34"/>
    <polyline class="cls-4" points="204 41.18 205.7 39.48 205.57 39.34 203.86 41.04 204 41.18"/>
    <line class="cls-4" x1="59.08" y1="59.89" x2="59.08" y2="39.69"/>
    <line class="cls-4" x1="67.02" y1="59.89" x2="67.02" y2="39.69"/>
    <line class="cls-4" x1="58.23" y1="40.26" x2="59.29" y2="40.26"/>
    <line class="cls-4" x1="66.75" y1="40.26" x2="67.87" y2="40.26"/>
    <polyline class="cls-4" points="59.87 39.34 58.16 41.04 58.3 41.18 60 39.48 59.87 39.34"/>
    <polyline class="cls-4" points="66.24 41.18 67.94 39.48 67.8 39.34 66.1 41.04 66.24 41.18"/>
    <line class="cls-4" x1="204.78" y1="59.89" x2="204.78" y2="39.69"/>
    <line class="cls-4" x1="212.72" y1="59.89" x2="212.72" y2="39.69"/>
    <line class="cls-4" x1="203.93" y1="40.26" x2="204.99" y2="40.26"/>
    <line class="cls-4" x1="212.45" y1="40.26" x2="213.57" y2="40.26"/>
    <polyline class="cls-4" points="205.57 39.34 203.86 41.04 204 41.18 205.7 39.48 205.57 39.34"/>
    <polyline class="cls-4" points="211.94 41.18 213.64 39.48 213.5 39.34 211.8 41.04 211.94 41.18"/>
    <line class="cls-4" x1="58.8" y1="252.9" x2="38.61" y2="252.9"/>
    <line class="cls-4" x1="58.8" y1="77.45" x2="38.61" y2="77.45"/>
    <line class="cls-4" x1="39.17" y1="253.75" x2="39.17" y2="173.37"/>
    <line class="cls-4" x1="39.17" y1="157.23" x2="39.17" y2="76.6"/>
    <polyline class="cls-4" points="38.25 252.12 39.95 253.82 40.09 253.68 38.39 251.98 38.25 252.12"/>
    <polyline class="cls-4" points="40.09 78.23 38.39 76.53 38.25 76.67 39.95 78.37 40.09 78.23"/>
  </g>
  <g id="Calque_5" data-name="Calque 5">
    <text class="cls-3" transform="translate(44.84 378.96) rotate(-90)"><tspan x="0" y="0">83</tspan></text>
    <text class="cls-3" transform="translate(44.84 73.19) rotate(-90)"><tspan x="0" y="0">6</tspan></text>
    <text class="cls-3" transform="translate(24.93 287) rotate(-90)"><tspan x="0" y="0">151</tspan></text>
    <text class="cls-3" transform="translate(127.15 45.93)"><tspan x="0" y="0">49</tspan></text>
    <text class="cls-3" transform="translate(58.67 45.93)"><tspan x="0" y="0">3</tspan></text>
    <text class="cls-3" transform="translate(204.38 45.93)"><tspan x="0" y="0">3</tspan></text>
    <text class="cls-3" transform="translate(44.84 173.93) rotate(-90)"><tspan x="0" y="0">62</tspan></text>
  </g>
  <g id="Make2D::Visible">
    <path class="cls-2" d="M204.7,160.92s0,.02,0,.02v3.24"/>
    <line class="cls-2" x1="63.05" y1="250.91" x2="63.05" y2="166.17"/>
    <line class="cls-2" x1="67.02" y1="60.17" x2="67.02" y2="77.45"/>
    <line class="cls-2" x1="201.95" y1="77.45" x2="204.78" y2="77.45"/>
    <line class="cls-2" x1="67.02" y1="77.45" x2="69.86" y2="77.45"/>
    <line class="cls-2" x1="69.86" y1="79.44" x2="67.02" y2="79.44"/>
    <line class="cls-2" x1="204.78" y1="79.44" x2="201.95" y2="79.44"/>
    <line class="cls-2" x1="210.45" y1="79.44" x2="208.75" y2="79.44"/>
    <line class="cls-2" x1="208.75" y1="483.37" x2="208.75" y2="252.9"/>
    <path class="cls-2" d="M68.04,164.18v-3.3s0-.07,0-.1"/>
    <path class="cls-2" d="M68.04,169.57s0-.02,0-.02v-3.38"/>
    <path class="cls-2" d="M67.33,166.17v3.38s0,.04,0,.02"/>
    <path class="cls-2" d="M67.33,160.78s0,.07,0,.1v3.3"/>
    <path class="cls-2" d="M62.87,483.22l.48.4"/>
    <line class="cls-2" x1="63.62" y1="484.07" x2="63.62" y2="486.15"/>
    <path class="cls-2" d="M67.59,484.07c0,.37-.47.62-.74.73-.34.14-.69.21-1.06.26-.69.09-1.49.06-2.17-.13"/>
    <path class="cls-2" d="M67.05,483.58c0,.32-.43.52-.66.6-.3.11-.6.17-.92.19-.58.05-1.3,0-1.86-.22"/>
    <path class="cls-2" d="M204.47,166.17v3.38s0,.04,0,.02"/>
    <path class="cls-2" d="M204.47,160.78s0,0,0,0v3.4"/>
    <path class="cls-2" d="M203.76,166.17v3.38s0,.02,0,.02"/>
    <path class="cls-2" d="M203.76,160.78s0,.02,0,.02v3.38"/>
    <path class="cls-2" d="M67.02,252.47v1.38s0,.03,0,.04"/>
    <path class="cls-2" d="M67.59,253.89s0,0,0-.01v-1.41"/>
    <path class="cls-2" d="M67.02,249.92s0,.03,0,.04v1.38"/>
    <path class="cls-2" d="M67.59,251.34v-1.41s0-.02,0-.01"/>
    <path class="cls-2" d="M204.22,252.47v1.41s0,0,0,0"/>
    <path class="cls-2" d="M204.78,253.89s0,0,0-.01v-1.41"/>
    <path class="cls-2" d="M204.22,249.92s0,.03,0,.04v1.38"/>
    <path class="cls-2" d="M204.78,251.34v-1.41s0-.02,0-.01"/>
    <line class="cls-2" x1="204.78" y1="77.45" x2="204.78" y2="60.17"/>
    <line class="cls-2" x1="204.78" y1="483.72" x2="204.78" y2="266.08"/>
    <path class="cls-2" d="M208.19,484.93c-.68.18-1.48.21-2.17.13-.37-.05-.72-.12-1.06-.26-.26-.11-.74-.35-.74-.73"/>
    <path class="cls-2" d="M208.19,484.16c-.55.22-1.28.27-1.86.22-.32-.03-.62-.08-.92-.19-.22-.08-.66-.28-.66-.6"/>
    <path class="cls-2" d="M210.74,487.52c-.6,0-1.16-.09-1.62-.28-.2-.08-.37-.18-.52-.3-.04-.03-.08-.07-.11-.1-.18-.18-.3-.42-.3-.69"/>
    <path class="cls-2" d="M213.02,483.62c-.94-.77-3.64-.77-4.58,0"/>
    <path class="cls-2" d="M208.45,483.62l.48-.4"/>
    <path class="cls-2" d="M212.54,483.22l.48.4"/>
    <line class="cls-2" x1="208.18" y1="486.15" x2="208.18" y2="484.07"/>
    <line class="cls-2" x1="67.02" y1="266.08" x2="67.02" y2="483.72"/>
    <line class="cls-2" x1="63.05" y1="252.9" x2="63.05" y2="483.37"/>
    <line class="cls-2" x1="201.95" y1="164.18" x2="204.78" y2="164.18"/>
    <line class="cls-2" x1="67.02" y1="164.18" x2="69.86" y2="164.18"/>
    <line class="cls-2" x1="69.86" y1="166.17" x2="67.02" y2="166.17"/>
    <line class="cls-2" x1="204.78" y1="166.17" x2="201.95" y2="166.17"/>
    <path class="cls-2" d="M201.95,79.72c0-.43,0-.85,0-1.28v-1.2s0-.05,0-.08"/>
    <line class="cls-1" x1="69.86" y1="164.15" x2="69.86" y2="79.72"/>
    <line class="cls-1" x1="201.95" y1="79.72" x2="201.95" y2="164.15"/>
    <path class="cls-2" d="M69.86,77.17s0,.05,0,.08v2.16c0,.11,0,.21,0,.32"/>
    <path class="cls-2" d="M201.95,166.45c0-.38,0-.77,0-1.15v-1.15"/>
    <path class="cls-2" d="M69.86,164.15v1.72c0,.19,0,.38,0,.57"/>
    <line class="cls-1" x1="69.86" y1="250.88" x2="69.86" y2="166.45"/>
    <line class="cls-1" x1="201.95" y1="166.45" x2="201.95" y2="250.88"/>
    <path class="cls-2" d="M69.86,250.88v2.23s0,.05,0,.07"/>
    <path class="cls-2" d="M201.95,253.18s0-.05,0-.07v-2.23"/>
    <line class="cls-2" x1="67.02" y1="166.17" x2="67.02" y2="249.92"/>
    <line class="cls-2" x1="208.75" y1="250.91" x2="208.75" y2="179.35"/>
    <line class="cls-2" x1="212.72" y1="179.35" x2="212.72" y2="250.91"/>
    <line class="cls-2" x1="212.72" y1="252.9" x2="212.72" y2="483.37"/>
    <path class="cls-2" d="M67.1,166.17v3.24s0,.04,0,.02"/>
    <path class="cls-2" d="M67.02,483.44s.03.09.03.14"/>
    <path class="cls-2" d="M67.02,483.37c.1.08.2.17.3.25"/>
    <line class="cls-2" x1="204.78" y1="164.18" x2="204.78" y2="79.44"/>
    <path class="cls-2" d="M204.7,166.17v3.24s0,.04,0,.02"/>
    <line class="cls-2" x1="67.59" y1="250.91" x2="69.86" y2="250.91"/>
    <line class="cls-2" x1="212.72" y1="250.91" x2="214.42" y2="250.91"/>
    <line class="cls-2" x1="204.22" y1="252.9" x2="201.95" y2="252.9"/>
    <line class="cls-2" x1="203.76" y1="169.31" x2="201.95" y2="169.31"/>
    <line class="cls-2" x1="68.04" y1="161.04" x2="69.86" y2="161.04"/>
    <line class="cls-2" x1="67.02" y1="79.44" x2="67.02" y2="164.18"/>
    <path class="cls-2" d="M208.75,266.08c0,.21-.18.35-.33.44-.17.1-.34.17-.53.22-.37.11-.75.14-1.13.14s-.76-.04-1.13-.14c-.19-.05-.36-.12-.53-.22-.15-.09-.33-.23-.33-.44"/>
    <line class="cls-2" x1="67.02" y1="253.89" x2="67.02" y2="266.08"/>
    <line class="cls-2" x1="208.75" y1="77.45" x2="210.45" y2="77.45"/>
    <line class="cls-2" x1="63.05" y1="79.44" x2="61.35" y2="79.44"/>
    <path class="cls-2" d="M63.05,60.17c0-.2.18-.35.33-.44.17-.1.34-.17.53-.22.37-.11.75-.14,1.13-.14"/>
    <path class="cls-2" d="M67.02,266.08c0,.21-.18.35-.33.44-.17.1-.34.17-.53.22-.37.11-.75.14-1.13.14s-.76-.04-1.13-.14c-.19-.05-.36-.12-.53-.22-.15-.09-.33-.23-.33-.44"/>
    <path class="cls-2" d="M67.02,60.17c0,.21-.18.35-.33.44-.17.1-.34.17-.53.22-.37.11-.75.14-1.13.14s-.76-.04-1.13-.14c-.19-.05-.36-.12-.53-.22-.15-.09-.33-.23-.33-.44"/>
    <path class="cls-2" d="M65.04,59.37c.39,0,.76.04,1.13.14.19.05.36.12.53.22.14.09.33.24.33.44"/>
    <path class="cls-2" d="M61.35,77.45s0,0,0,0h0v1.92s0,.04,0,.06"/>
    <line class="cls-2" x1="61.35" y1="77.45" x2="63.05" y2="77.45"/>
    <path class="cls-2" d="M210.45,79.44s0,0,0-.01v-1.96s0-.02,0-.01"/>
    <line class="cls-2" x1="67.33" y1="169.43" x2="67.1" y2="169.43"/>
    <line class="cls-2" x1="67.1" y1="160.92" x2="67.33" y2="160.92"/>
    <line class="cls-2" x1="68.04" y1="169.57" x2="67.33" y2="169.57"/>
    <line class="cls-2" x1="67.33" y1="160.78" x2="68.04" y2="160.78"/>
    <path class="cls-2" d="M67.1,160.92c0,.14,0,.27,0,.41v2.85"/>
    <path class="cls-2" d="M63.62,484.07c0-.19-.13-.35-.26-.46"/>
    <line class="cls-2" x1="208.75" y1="60.17" x2="208.75" y2="77.45"/>
    <path class="cls-2" d="M67.59,486.15c0,.27-.12.51-.3.69-.04.04-.07.07-.11.1-.15.12-.33.22-.52.3-.46.18-1.02.28-1.62.28s-1.16-.09-1.62-.28c-.13-.05-.26-.12-.37-.19"/>
    <path class="cls-2" d="M67.32,483.62c.13.11.26.27.26.46"/>
    <line class="cls-2" x1="67.59" y1="484.07" x2="67.59" y2="486.15"/>
    <line class="cls-2" x1="204.78" y1="249.92" x2="204.78" y2="166.17"/>
    <line class="cls-2" x1="204.47" y1="169.57" x2="203.76" y2="169.57"/>
    <line class="cls-2" x1="203.76" y1="160.78" x2="204.47" y2="160.78"/>
    <line class="cls-2" x1="204.7" y1="169.43" x2="204.47" y2="169.43"/>
    <line class="cls-2" x1="204.47" y1="160.92" x2="204.7" y2="160.92"/>
    <line class="cls-2" x1="67.59" y1="253.89" x2="67.02" y2="253.89"/>
    <line class="cls-2" x1="67.59" y1="249.92" x2="67.02" y2="249.92"/>
    <line class="cls-2" x1="67.02" y1="252.47" x2="67.02" y2="251.34"/>
    <line class="cls-2" x1="67.59" y1="251.34" x2="67.59" y2="252.47"/>
    <line class="cls-2" x1="204.78" y1="253.89" x2="204.22" y2="253.89"/>
    <line class="cls-2" x1="204.78" y1="249.92" x2="204.22" y2="249.92"/>
    <line class="cls-2" x1="204.22" y1="252.47" x2="204.22" y2="251.34"/>
    <line class="cls-2" x1="204.78" y1="251.34" x2="204.78" y2="252.47"/>
    <path class="cls-2" d="M204.78,60.17c0-.2.18-.35.33-.44.17-.1.34-.17.53-.22.37-.11.75-.14,1.13-.14"/>
    <path class="cls-2" d="M208.75,60.17c0,.21-.18.35-.33.44-.17.1-.34.17-.53.22-.37.11-.75.14-1.13.14s-.76-.04-1.13-.14c-.19-.05-.36-.12-.53-.22-.15-.09-.33-.23-.33-.44"/>
    <line class="cls-2" x1="204.78" y1="266.08" x2="204.78" y2="253.89"/>
    <path class="cls-2" d="M206.77,59.37c.39,0,.76.04,1.13.14.18.05.36.12.53.22.14.09.33.24.33.44"/>
    <line class="cls-2" x1="69.86" y1="252.9" x2="67.59" y2="252.9"/>
    <line class="cls-2" x1="67.02" y1="77.45" x2="67.02" y2="77.45"/>
    <path class="cls-2" d="M208.75,487.05c-.11.07-.24.13-.37.19-.46.18-1.02.28-1.62.28s-1.16-.09-1.62-.28c-.2-.08-.37-.18-.52-.3-.04-.03-.08-.07-.11-.1-.18-.18-.3-.42-.3-.69"/>
    <path class="cls-2" d="M204.76,483.58s0-.09.03-.14"/>
    <path class="cls-2" d="M204.48,483.62c.1-.08.2-.17.3-.25"/>
    <path class="cls-2" d="M204.22,484.07c0-.19.13-.35.26-.46"/>
    <line class="cls-2" x1="204.22" y1="486.15" x2="204.22" y2="484.07"/>
    <path class="cls-2" d="M213.29,486.15c0,.27-.12.51-.3.69-.04.04-.07.07-.11.1-.15.12-.33.22-.52.3-.46.18-1.02.28-1.62.28"/>
    <path class="cls-2" d="M208.45,483.62c-.13.11-.26.27-.26.46"/>
    <path class="cls-2" d="M212.54,483.22c-.74-.61-2.87-.61-3.61,0"/>
    <path class="cls-2" d="M213.29,484.07c0-.19-.13-.35-.26-.46"/>
    <line class="cls-2" x1="213.29" y1="484.07" x2="213.29" y2="486.15"/>
    <line class="cls-2" x1="201.95" y1="79.72" x2="69.86" y2="79.72"/>
    <line class="cls-2" x1="201.95" y1="250.91" x2="204.22" y2="250.91"/>
    <line class="cls-2" x1="214.42" y1="252.9" x2="212.72" y2="252.9"/>
    <line class="cls-2" x1="59.08" y1="252.9" x2="57.38" y2="252.9"/>
    <path class="cls-2" d="M214.42,250.91s0,0,0,.02v1.96s0,.01,0,.01"/>
    <path class="cls-2" d="M57.38,250.91s0,0,0,.02v1.96s0,0,0,.01"/>
    <line class="cls-2" x1="57.38" y1="250.91" x2="59.08" y2="250.91"/>
    <path class="cls-2" d="M214.42,252.9s0,0,0-.01v-1.96h0s0-.02,0-.02"/>
    <line class="cls-2" x1="69.86" y1="164.15" x2="201.95" y2="164.15"/>
    <line class="cls-2" x1="208.75" y1="164.18" x2="208.75" y2="79.44"/>
    <line class="cls-2" x1="212.72" y1="79.44" x2="212.72" y2="164.18"/>
    <line class="cls-2" x1="212.72" y1="166.17" x2="212.72" y2="179.35"/>
    <line class="cls-2" x1="212.72" y1="77.45" x2="214.42" y2="77.45"/>
    <line class="cls-2" x1="212.72" y1="164.18" x2="214.42" y2="164.18"/>
    <path class="cls-2" d="M208.75,179.35c0,.2.18.35.33.44.17.1.34.17.53.22.37.11.75.14,1.13.14"/>
    <path class="cls-2" d="M212.72,179.35c0-.21-.18-.35-.33-.44-.17-.1-.34-.17-.53-.22-.37-.11-.75-.14-1.13-.14s-.76.04-1.13.14c-.19.05-.36.12-.53.22-.15.09-.33.24-.33.44"/>
    <path class="cls-2" d="M212.72,60.17c0-.21-.18-.35-.33-.44-.17-.1-.34-.17-.53-.22-.37-.11-.75-.14-1.13-.14s-.76.04-1.13.14c-.19.05-.36.12-.53.22-.15.09-.33.24-.33.44"/>
    <line class="cls-2" x1="208.75" y1="179.35" x2="208.75" y2="166.17"/>
    <line class="cls-2" x1="212.72" y1="60.17" x2="212.72" y2="77.45"/>
    <path class="cls-2" d="M210.74,180.15c.39,0,.76-.04,1.13-.14.19-.05.36-.12.53-.22.14-.09.33-.24.33-.44"/>
    <line class="cls-2" x1="214.42" y1="79.44" x2="212.72" y2="79.44"/>
    <path class="cls-2" d="M214.42,79.44s0,0,0-.01v-1.96s0-.02,0-.01"/>
    <line class="cls-2" x1="214.42" y1="166.17" x2="212.72" y2="166.17"/>
    <path class="cls-2" d="M214.42,166.17s0,0,0-.01v-1.96s0-.02,0-.01"/>
    <line class="cls-2" x1="69.86" y1="169.31" x2="68.04" y2="169.31"/>
    <line class="cls-2" x1="201.95" y1="161.04" x2="203.76" y2="161.04"/>
    <line class="cls-2" x1="69.86" y1="77.17" x2="201.95" y2="77.17"/>
    <line class="cls-2" x1="69.86" y1="79.7" x2="201.95" y2="79.7"/>
    <line class="cls-2" x1="201.95" y1="166.45" x2="69.86" y2="166.45"/>
    <line class="cls-2" x1="69.86" y1="166.43" x2="201.95" y2="166.43"/>
    <line class="cls-2" x1="69.86" y1="253.18" x2="201.95" y2="253.18"/>
    <line class="cls-2" x1="201.95" y1="250.88" x2="69.86" y2="250.88"/>
    <line class="cls-2" x1="63.05" y1="77.45" x2="63.05" y2="60.17"/>
    <line class="cls-2" x1="63.05" y1="164.18" x2="63.05" y2="79.44"/>
    <path class="cls-2" d="M57.38,164.18s0,0,0,0h0v1.97h0s0,.02,0,.01"/>
    <line class="cls-2" x1="57.38" y1="164.18" x2="59.08" y2="164.18"/>
    <line class="cls-2" x1="59.08" y1="166.17" x2="57.38" y2="166.17"/>
    <path class="cls-2" d="M59.08,179.35c0,.2.18.35.33.44.17.1.34.17.53.22.37.11.75.14,1.13.14"/>
    <path class="cls-2" d="M63.05,179.35c0-.21-.18-.35-.33-.44-.17-.1-.34-.17-.53-.22-.37-.11-.75-.14-1.13-.14s-.76.04-1.13.14c-.19.05-.36.12-.53.22-.15.09-.33.24-.33.44"/>
    <path class="cls-2" d="M61.07,180.15c.39,0,.76-.04,1.13-.14.19-.05.36-.12.53-.22.14-.09.33-.24.33-.44"/>
    <line class="cls-2" x1="59.08" y1="250.91" x2="59.08" y2="179.35"/>
    <line class="cls-2" x1="59.08" y1="179.35" x2="59.08" y2="166.17"/>
    <line class="cls-2" x1="59.08" y1="483.37" x2="59.08" y2="252.9"/>
    <path class="cls-2" d="M63.35,483.62c-.94-.77-3.64-.77-4.57,0"/>
    <path class="cls-2" d="M58.78,483.62c.16-.13.32-.26.48-.4"/>
    <path class="cls-2" d="M58.78,483.62c-.13.11-.26.27-.26.46"/>
    <path class="cls-2" d="M62.87,483.22c-.74-.61-2.87-.61-3.61,0"/>
    <path class="cls-2" d="M61.07,487.52c-.6,0-1.16-.09-1.62-.28-.2-.08-.37-.18-.52-.3-.04-.03-.08-.07-.11-.1-.18-.18-.3-.42-.3-.69"/>
    <line class="cls-2" x1="58.52" y1="486.15" x2="58.52" y2="484.07"/>
    <path class="cls-2" d="M63.62,486.15c0,.27-.12.51-.3.69-.03.04-.07.07-.11.1-.15.12-.33.22-.52.3-.46.18-1.02.28-1.62.28"/>
    <line class="cls-2" x1="59.08" y1="79.44" x2="57.38" y2="79.44"/>
    <line class="cls-2" x1="59.08" y1="164.18" x2="59.08" y2="79.44"/>
    <path class="cls-2" d="M57.38,77.45s0,0,0,0h0v1.97s0,0,0,.01"/>
    <path class="cls-2" d="M63.05,60.17c0-.21-.18-.35-.33-.44-.17-.1-.34-.17-.53-.22-.37-.11-.75-.14-1.13-.14s-.76.04-1.13.14c-.19.05-.36.12-.53.22-.15.09-.33.24-.33.44"/>
    <line class="cls-2" x1="57.38" y1="77.45" x2="59.08" y2="77.45"/>
    <line class="cls-2" x1="59.08" y1="77.45" x2="59.08" y2="60.17"/>
  </g>
</svg>