<svg xmlns="http://www.w3.org/2000/svg" shape-rendering="crispEdges" viewBox="0 0 224.54 733.5"><defs><style>.cls-1{stroke:#000;stroke-linecap:round;stroke-linejoin:round;stroke-width:.5px}.cls-1,.cls-2{fill:none}.cls-3{fill:#333;font-family:ArialMT,Arial;font-size:17.02px}.cls-2{stroke:#333;stroke-miterlimit:10;stroke-width:.15px}</style></defs><g id="D_faut" data-name="Défaut"><path d="M181.54 419.99h26.67v11.35H60.67v-11.35h117.46M66.35 550.47h136.19v6.3H66.35zM202.53 670.23v5.68M202.53 437.01h5.68" class="cls-1"/><path d="M66.35 437.01h136.19v233.22H66.35z" class="cls-1"/><path d="M60.67 431.34h147.54v244.57H60.67zM83.37 84.63h83.41M83.37 200.95h83.41M83.37 317.28h83.41M166.78 305.93h11.35v11.35h-11.35zM72.02 305.93h11.35v11.35H72.02zM166.78 189.6h11.35v11.35h-11.35zM72.02 189.6h11.35v11.35H72.02zM166.78 73.28h11.35v11.35h-11.35zM72.02 73.28h11.35v11.35H72.02zM66.35 670.23v5.68M66.35 437.01h-5.68M178.13 189.6H72.02v-11.35h106.11M181.54 178.25h6.81v11.35h-6.81M181.54 294.58h6.81v11.35h-6.81M178.13 305.93H72.02v-11.35h106.11M181.54 306.21v-3.69h-3.41v120.96h3.41zM181.54 189.6v-3.4h-3.41v111.6h3.41zM181.54 73.28v-3.41h-3.41v111.61h3.41z" class="cls-1"/><path d="M178.13 73.28H72.02V61.93h116.33v11.35h-6.81M60.67 61.93h11.35v358.06H60.67z" class="cls-1"/></g><g id="cote"><path d="M124.79 305.93h-12.32M124.79 419.99h-12.32M113.04 305.08v49.3M113.04 371.04v49.8M113.96 306.71l-1.71-1.7-.13.14 1.7 1.7.14-.14M112.12 419.2l1.7 1.71.14-.14-1.71-1.7-.13.13M60.39 61.93h-21.3M60.39 419.99h-21.3M39.66 61.08v168.4M39.66 253.42v167.42M40.58 62.71l-1.7-1.7-.14.13 1.7 1.71.14-.14M38.74 419.2l1.7 1.71.14-.14-1.7-1.7-.14.13M66.35 550.19v-20.47M202.53 550.19v-20.47M65.49 530.29h60.38M142.58 530.29h60.8M67.13 529.37l-1.7 1.7.13.14 1.7-1.71-.13-.13M201.75 531.21l1.7-1.71-.13-.13-1.71 1.7.14.14M132.74 556.77h-19.01M132.74 670.23h-19.01M114.3 555.92v49.01M114.3 621.58v49.5M115.21 557.55l-1.7-1.7-.13.14 1.7 1.7.13-.14M113.38 669.45l1.7 1.7.13-.14-1.7-1.7-.13.14M132.74 437.01h-20.27M132.74 550.47h-20.27M113.04 436.16v49.01M113.04 501.82v49.5M113.96 437.79l-1.71-1.7-.13.14 1.7 1.7.14-.14M112.12 549.69l1.7 1.7.14-.13-1.71-1.71-.13.14M124.79 189.6h-12.32M124.79 294.58h-12.32M113.04 188.75v45.2M113.04 250.17v45.26M113.96 190.39l-1.71-1.71-.13.14 1.7 1.7.14-.13M112.12 293.8l1.7 1.7.14-.14-1.71-1.7-.13.14M124.79 73.28h-12.32M124.79 178.25h-12.32M113.04 72.42v45.2M113.04 133.84v45.27M113.96 74.06l-1.71-1.7-.13.13 1.7 1.7.14-.13M112.12 177.47l1.7 1.7.14-.13-1.71-1.71-.13.14M73.71 732.65H14.35M73.71 61.93H14.35M14.92 733.5V409.99M14.92 384.83V61.08M14 731.87l1.7 1.7.14-.14-1.7-1.7-.14.14M15.84 62.71l-1.7-1.7-.14.13 1.7 1.71.14-.14M60.39 434.17h-21.3M60.39 675.91h-21.3M39.66 433.32V546.9M39.66 563.24v113.52M40.58 434.96l-1.7-1.71-.14.14 1.7 1.7.14-.13M38.74 675.12l1.7 1.7.14-.13-1.7-1.7-.14.13M73.71 732.65H39.09M73.71 675.91H39.09M39.66 733.5v-20.89M39.66 696.2v-21.15M38.74 731.87l1.7 1.7.14-.14-1.7-1.7-.14.14" class="cls-2"/><path d="m40.58 676.69-1.7-1.7-.14.13 1.7 1.7.14-.13M188.35 62.85V7.05M60.67 62.85V7.05M189.2 7.61h-56.12M116.3 7.61H59.82M187.56 8.53l1.71-1.7-.14-.13-1.7 1.7.13.13M61.45 6.7l-1.7 1.7.14.13 1.7-1.7-.14-.13" class="cls-2"/></g><g id="Calque_7" data-name="Calque 7"><text class="cls-3" transform="rotate(-90 244.845 126.375)"><tspan x="0" y="0">40</tspan></text><text class="cls-3" transform="rotate(-90 150.085 104.995)"><tspan x="0" y="0">126</tspan></text><text class="cls-3" transform="translate(125.68 535.96)"><tspan x="0" y="0">48</tspan></text><text class="cls-3" transform="rotate(-90 370.745 251.015)"><tspan x="0" y="0">40</tspan></text><text class="cls-3" transform="rotate(-90 310.24 191.77)"><tspan x="0" y="0">40</tspan></text><text class="cls-3" transform="rotate(-90 184.63 66.16)"><tspan x="0" y="0">37</tspan></text><text class="cls-3" transform="rotate(-90 126.465 7.995)"><tspan x="0" y="0">37</tspan></text><text class="cls-3" transform="rotate(-90 215.51 194.92)"><tspan x="0" y="0">236</tspan></text><text class="cls-3" transform="rotate(-90 304.475 259.385)"><tspan x="0" y="0">85</tspan></text><text class="cls-3" transform="rotate(-90 379.19 333.85)"><tspan x="0" y="0">20</tspan></text><text class="cls-3" transform="translate(116.12 13.04)"><tspan x="0" y="0">45</tspan></text></g><g id="Calque_01" data-name="Calque 01"><path d="M91.84 675.91h9.92v1.41h-9.92zM66.52 675.91h9.92v1.41h-9.92zM192.44 675.91h9.92v1.41h-9.92zM167.12 675.91h9.92v1.41h-9.92zM91.84 675.91h-15.4M82.34 732.65h3.6M91.84 675.91l-5.9 56.74M76.44 675.91l5.9 56.74M177.04 675.91h15.4M186.54 732.65h-3.6M177.04 675.91l5.9 56.74M192.44 675.91l-5.9 56.74M216.21 457.67h2.09v4.32h-2.09zM208.21 459h8v2.07h-8z" class="cls-1"/></g></svg>