<svg xmlns="http://www.w3.org/2000/svg" shape-rendering="crispEdges" viewBox="0 0 903.12 530.57"><defs><style>.cls-1{stroke-dasharray:0 0 14.17 14.17;stroke-width:.25px}.cls-1,.cls-2{stroke:#000;stroke-linecap:round;stroke-linejoin:round}.cls-1,.cls-2,.cls-3{fill:none}.cls-2{stroke-width:.5px}.cls-4{fill:#333;font-family:ArialMT,Arial;font-size:17.02px}.cls-3{stroke:#333;stroke-miterlimit:10;stroke-width:.15px}</style></defs><g id="D_faut" data-name="Défaut"><path d="M897.97 180.32v5.1M897.97 49.52v-5.68h-5.4v5.68M897.97 49.23v131.09M892.57 49.23v131.09M755.53 54.63v125.4M760.92 54.63v125.4M615.37 54.63v125.4M620.76 54.63v125.4M483.44 54.63v125.4M478.05 54.63v125.4M478.05 54.63v125.4M472.66 54.63v125.4M340.72 54.63v125.4M335.33 54.63v125.4M200.57 54.63v125.4M195.17 54.63v125.4M58.14 180.03v5.39M63.53 49.23v-5.67h-5.39v5.67M63.53 48.95v131.08M58.14 48.95v131.08M80.83 483.39H473.7M485.05 483.39h392.86M148.22 479.99h195.77v3.4H148.22zM80.83 479.99h808.43M479.37 491.34v25.53M479.37 386.36v93.63M473.7 479.99h11.35v11.35H473.7zM473.7 375.01h11.35v11.35H473.7zM877.91 479.99h11.35v11.35h-11.35zM69.48 479.99h11.35v11.35H69.48zM877.91 375.01h11.35v11.35h-11.35zM69.48 375.01h11.35v11.35H69.48z" class="cls-2"/><path d="M59.46 375.01h839.82v141.86H59.46zM892.57 185.42h5.4M58.14 180.03h834.43M58.14 185.42h834.43M63.53 49.23h829.04M63.53 54.63h829.04M892.57 43.84v141.58" class="cls-2"/></g><g id="Calque_02" data-name="Calque 02"><path d="M176.15 248.2c16.21-15.58 23.43-38.56 21.67-68.95" class="cls-1"/><path d="m60.742 184.63 2.79-4.61 112.633 68.158-2.79 4.612zM219.5 248.2c-16.21-15.58-23.43-38.56-21.67-68.95M340.91 184.624l2.79-4.611 112.632 68.159-2.79 4.61zM456.33 248.2c16.21-15.58 23.43-38.56 21.67-68.95M499.68 248.223l112.633-68.16 2.79 4.612-112.632 68.159z" class="cls-1"/><path d="M499.67 248.2c-16.21-15.58-23.43-38.56-21.67-68.95M621.061 184.626l2.79-4.611 112.633 68.158-2.79 4.612zM736.51 248.2c16.21-15.58 23.43-38.56 21.67-68.95M779.867 248.235 892.5 180.076l2.79 4.612-112.632 68.159z" class="cls-1"/><path d="M779.85 248.2c-16.21-15.58-23.43-38.56-21.67-68.95M219.484 248.21l112.633-68.16 2.79 4.612-112.632 68.159z" class="cls-1"/></g><g id="Calque_01" data-name="Calque 01"><path d="M108.32 516.92h4.35v9.91h-4.35zM145.62 516.92h4.35v9.91h-4.35z" class="cls-2"/><path d="M112.67 524.83h33.08v2h-33.08zM247.63 516.92h4.35v9.91h-4.35zM284.93 516.92h4.35v9.91h-4.35z" class="cls-2"/><path d="M251.98 524.83h33.08v2h-33.08zM388.92 516.92h4.35v9.91h-4.35zM426.23 516.92h4.35v9.91h-4.35z" class="cls-2"/><path d="M393.27 524.83h33.08v2h-33.08zM528.23 516.92h4.35v9.91h-4.35zM565.54 516.92h4.35v9.91h-4.35z" class="cls-2"/><path d="M532.58 524.83h33.08v2h-33.08zM667.54 516.92h4.35v9.91h-4.35zM704.84 516.92h4.35v9.91h-4.35z" class="cls-2"/><path d="M671.89 524.83h33.08v2h-33.08zM806.85 516.92h4.35v9.91h-4.35zM844.15 516.92h4.35v9.91h-4.35z" class="cls-2"/><path d="M811.2 524.83h33.08v2H811.2z" class="cls-2"/></g><g id="Calque_8" data-name="Calque 8"><path d="M612.18 171.57h2.12v8.17h-2.12zM614.31 173.8h1.06v3.71h-1.06zM621.82 171.57h2.12v8.17h-2.12zM620.76 173.8h1.06v3.71h-1.06zM332.15 171.57h2.12v8.17h-2.12zM334.27 173.8h1.06v3.71h-1.06zM341.79 171.57h2.12v8.17h-2.12zM340.72 173.8h1.06v3.71h-1.06zM64.59 171.57h2.12v8.17h-2.12zM63.53 173.8h1.06v3.71h-1.06zM59.46 374.73v-25.9M479.37 374.73v-25.9M58.61 349.4h199.33M281.94 349.4h198.28M60.24 348.48l-1.7 1.7.14.14 1.7-1.7-.14-.14M478.59 350.32l1.7-1.7-.13-.14-1.71 1.7.14.14M479.37 374.73v-25.9M899.28 374.73v-25.9M478.52 349.4h199.34M701.85 349.4h198.29" class="cls-3"/><path d="m480.16 348.48-1.71 1.7.14.14 1.7-1.7-.13-.14M898.5 350.32l1.7-1.7-.13-.14-1.7 1.7.13.14M59.46 374.73v-50.35M899.28 374.73v-50.35M58.61 324.95h408.06M491.83 324.95h408.31M60.24 324.03l-1.7 1.7.14.14 1.7-1.7-.14-.14M898.5 325.87l1.7-1.7-.13-.14-1.7 1.7.13.14M59.46 374.73v-10.85M69.48 374.73v-10.85M58.61 364.45h1.67M68.11 364.45h2.23M60.24 363.53l-1.7 1.7.14.14 1.7-1.71-.14-.13M68.7 365.37l1.7-1.71-.13-.13-1.7 1.7.13.14M69.48 374.73v-10.85M80.83 374.73v-10.85M68.63 364.45h2.34M78.8 364.45h2.88" class="cls-3"/><path d="m70.27 363.53-1.7 1.7.13.14 1.7-1.71-.13-.13M80.05 365.37l1.7-1.71-.13-.13-1.71 1.7.14.14M69.2 375.01H48.68M69.2 386.36H48.68M49.24 374.16v2.33M49.24 384.33v2.88M50.16 375.79l-1.7-1.7-.14.14 1.71 1.7.13-.14M48.32 385.58l1.71 1.7.13-.14-1.7-1.7-.14.14M69.2 386.36H48.68M69.2 479.99H48.68M49.24 385.51v39.52M49.24 441.26v39.58" class="cls-3"/><path d="m50.16 387.14-1.7-1.7-.14.14 1.71 1.7.13-.14M48.32 479.21l1.71 1.7.13-.14-1.7-1.7-.14.14M69.2 491.34H48.68M69.2 479.99H48.68M49.24 492.19v-2.33M49.24 482.02v-2.88M48.32 490.56l1.71 1.7.13-.14-1.7-1.7-.14.14" class="cls-3"/><path d="m50.16 480.77-1.7-1.7-.14.14 1.71 1.7.13-.14M69.2 491.34H48.68M69.2 516.87H48.68M49.24 490.49v9.85M49.24 507.87v9.86M50.16 492.12l-1.7-1.7-.14.14 1.71 1.7.13-.14M48.32 516.09l1.71 1.7.13-.13-1.7-1.71-.14.14M148.22 479.71v-10.32M343.99 479.71v-10.32M147.37 469.96h90.54M254.25 469.96h90.6M149.01 469.04l-1.7 1.7.13.14 1.7-1.7-.13-.14M343.21 470.88l1.7-1.7-.13-.14-1.7 1.7.13.14M59.46 375.01H8.55M59.46 516.87H8.55M9.83 374.16v63.64M9.83 454.02v63.71M11.9 375.79l-3.83-1.7-.31.14 3.83 1.7.31-.14M7.76 516.09l3.83 1.7.31-.13-3.83-1.71-.31.14M63.53 114.77v3.13M195.17 114.77v3.13M62.67 117.33h58.11M137.43 117.33h58.59M64.31 116.41l-1.7 1.7.13.14 1.71-1.7-.14-.14M194.39 118.25l1.7-1.7-.13-.14-1.71 1.7.14.14M200.57 117.04v-.28M335.33 117.04v-.28M199.71 117.33h59.67M276.09 117.33h60.09M201.35 116.41l-1.7 1.7.13.14 1.7-1.7-.13-.14M334.55 118.25l1.7-1.7-.13-.14-1.71 1.7.14.14M340.72 117.04v-.28M472.66 117.04v-.28M339.87 117.33h58.25M414.77 117.33h58.74M341.51 116.41l-1.7 1.7.13.14 1.7-1.7-.13-.14M471.87 118.25l1.71-1.7-.14-.14-1.7 1.7.13.14M483.44 117.04v-.28M615.37 117.04v-.28M482.59 117.33h58.24M557.48 117.33h58.74M484.22 116.41l-1.7 1.7.13.14 1.71-1.7-.14-.14M614.59 118.25l1.7-1.7-.14-.14-1.7 1.7.14.14M620.76 117.04v-.28M755.53 117.04v-.28M619.91 117.33h59.66M696.29 117.33h60.09M621.54 116.41l-1.7 1.7.14.14 1.7-1.7-.14-.14M754.75 118.25l1.7-1.7-.14-.14-1.7 1.7.14.14M760.92 117.04v-.28M892.57 117.04v-.28M760.07 117.33h58.1M834.83 117.33h58.59M761.7 116.41l-1.7 1.7.14.14 1.7-1.7-.14-.14M891.79 118.25l1.7-1.7-.13-.14-1.71 1.7.14.14M195.17 54.91v7.75M200.57 54.91v7.75M195.96 61.17l-1.71 1.7.14.14 1.7-1.7-.13-.14M199.78 63.01l1.7-1.7-.13-.14-1.7 1.7.13.14M58.14 43.28V30.11M63.53 43.28V30.11M58.92 29.76l-1.7 1.7.13.13 1.7-1.7-.13-.13M62.74 31.59l1.71-1.7-.14-.13-1.7 1.7.13.13M63.53 48.95V30.11M478.05 48.95V30.11M62.67 30.68h196.65M283.25 30.68H478.9" class="cls-3"/><path d="m64.31 29.76-1.7 1.7.13.13 1.71-1.7-.14-.13M477.27 31.59l1.7-1.7-.14-.13-1.7 1.7.14.13M478.05 48.95l.01-18.84M892.57 49.23l.02-18.84M477.21 30.67l196.64.14M697.78 30.83l195.66.13" class="cls-3"/><path d="m478.85 29.76-1.71 1.7.14.13 1.7-1.7-.13-.13M891.8 31.88l1.71-1.7-.14-.14-1.7 1.7.13.14M897.97 43.56V30.39M892.57 43.56V30.39M897.18 31.88l1.7-1.7-.13-.14-1.7 1.7.13.14" class="cls-3"/><path d="m893.36 30.04-1.71 1.7.14.14 1.7-1.7-.13-.14M897.97 43.56l.01-33.67M58.14 43.28l.01-33.67M898.83 10.46l-408.06-.14M465.6 10.31l-408.3-.13M897.19 11.38l1.71-1.7-.14-.14-1.7 1.7.13.14M58.93 9.26l-1.7 1.7.13.14 1.71-1.7-.14-.14M47.49 185.42H37.33M47.49 180.03H37.33M36.97 184.64l1.71 1.7.13-.13-1.7-1.71-.14.14M38.81 180.81l-1.7-1.7-.14.14 1.71 1.7.13-.14M47.49 180.03h-6.71M47.49 43.56h-6.71M41.35 180.88v-60.51M41.35 103.65V42.71M40.43 179.25l1.7 1.7.14-.14-1.7-1.7-.14.14M42.27 44.34l-1.7-1.7-.14.14 1.7 1.7.14-.14M63.53 43.56H8M63.53 185.42H8M8.56 42.71v63.64M8.56 122.57v63.7M9.48 44.34l-1.7-1.7-.14.14 1.71 1.7.13-.14M7.64 184.64l1.71 1.7.13-.13-1.7-1.71-.14.14" class="cls-3"/></g><g id="Calque_9" data-name="Calque 9"><text class="cls-4" transform="translate(256.28 355.08)"><tspan x="0" y="0">148</tspan></text><text class="cls-4" transform="translate(676.19 355.08)"><tspan x="0" y="0">148</tspan></text><text class="cls-4" transform="translate(466.24 330.63)"><tspan x="0" y="0">296</tspan></text><text class="cls-4" transform="translate(60.09 370.12)"><tspan x="0" y="0">4</tspan></text><text class="cls-4" transform="translate(70.78 370.12)"><tspan x="0" y="0">4</tspan></text><text class="cls-4" transform="rotate(-90 219.715 164.795)"><tspan x="0" y="0">4</tspan></text><text class="cls-4" transform="rotate(-90 248.27 193.6)"><tspan x="0" y="0">33</tspan></text><text class="cls-4" transform="rotate(-90 272.48 217.56)"><tspan x="0" y="0">4</tspan></text><text class="cls-4" transform="rotate(-90 281.58 226.91)"><tspan x="0" y="0">9</tspan></text><text class="cls-4" transform="translate(237.35 475.63)"><tspan x="0" y="0">69</tspan></text><text class="cls-4" transform="rotate(-90 234.375 220.265)"><tspan x="0" y="0">50</tspan></text><text class="cls-4" transform="translate(120.59 123)"><tspan x="0" y="0">46</tspan></text><text class="cls-4" transform="translate(259.19 123)"><tspan x="0" y="0">48</tspan></text><text class="cls-4" transform="translate(397.94 123)"><tspan x="0" y="0">46</tspan></text><text class="cls-4" transform="translate(540.65 123)"><tspan x="0" y="0">46</tspan></text><text class="cls-4" transform="translate(679.39 123)"><tspan x="0" y="0">48</tspan></text><text class="cls-4" transform="translate(817.99 123)"><tspan x="0" y="0">46</tspan></text><text class="cls-4" transform="translate(193.49 67.76)"><tspan x="0" y="0">2</tspan></text><text class="cls-4" transform="translate(56.45 36.35)"><tspan x="0" y="0">2</tspan></text><text class="cls-4" transform="translate(257.65 36.35)"><tspan x="0" y="0">146</tspan></text><text class="cls-4" transform="rotate(.04 -51931.978 962859.457)"><tspan x="0" y="0">146</tspan></text><text class="cls-4" transform="translate(891.26 36.63)"><tspan x="0" y="0">2</tspan></text><text class="cls-4" transform="rotate(.02 -44859.193 1332621.744)"><tspan x="0" y="0">296</tspan></text><text class="cls-4" transform="rotate(-90 115.34 71.77)"><tspan x="0" y="0">2</tspan></text><text class="cls-4" transform="rotate(-90 83.795 36.765)"><tspan x="0" y="0">48</tspan></text><text class="cls-4" transform="rotate(-90 68.59 54.6)"><tspan x="0" y="0">50</tspan></text></g></svg>