<svg xmlns="http://www.w3.org/2000/svg" id="Calque_1" data-name="Calque 1" version="1.1" viewBox="0 0 882.46 327.55"><defs><style>.cls-1,.cls-2,.cls-3,.cls-5,.cls-6{stroke-miterlimit:10}.cls-1,.cls-3{stroke-width:.5px}.cls-1,.cls-3,.cls-5,.cls-6{fill:none}.cls-1,.cls-5{stroke:#343434}.cls-2{stroke:#686868;stroke-width:2px;fill:#fff}.cls-3,.cls-6{stroke:#010101}.cls-5,.cls-6{stroke-width:.15px}</style></defs><path d="m217.87 91.4 13.89 8.19-1.23 1.59M243.18 110.97l13.89 8.19-1.24 1.59M255.83 120.75l13.89 8.19-1.23 1.6M167.26 52.26l-11.99 10.78 1.53 1.31M268.49 130.54l13.88 8.19-1.23 1.59M688.59 86.24c-.41-.59-.51-1.38-.35-2.06.16-.66.64-1.36 1.39-1.47.78-.11 1.38.46 1.65 1.12.27.65.26 1.45-.04 2.09M281.14 140.32l13.88 8.19-1.23 1.6M689.81 84.82v-2.1M293.79 150.11l13.89 8.19-1.24 1.59" class="cls-1"/><path d="m689.97 84.82 12.14 9.08-1.32 1.37M700.79 95.27l12.14 9.07-1.31 1.37M306.44 159.89l13.89 8.19-1.23 1.6M319.1 169.68l13.88 8.19-1.23 1.59" class="cls-1"/><path d="m711.62 105.71 12.13 9.08-1.31 1.36M722.44 116.15l12.14 9.08-1.32 1.36M733.26 126.59l12.14 9.08-1.32 1.37M156.8 64.35l-11.99 10.78 1.52 1.32M744.08 137.04l12.14 9.07-1.31 1.37M754.91 147.48l12.13 9.08-1.31 1.36" class="cls-1"/><path d="m765.73 157.92 12.14 9.08-1.32 1.36M776.55 168.36l12.14 9.08-1.32 1.37M787.37 178.81l12.14 9.07-1.32 1.37M798.19 189.25l12.14 9.08-1.31 1.36M331.75 179.46l13.89 8.19-1.24 1.6M344.4 189.25l13.89 8.19-1.23 1.59M357.06 199.03l13.88 8.19-1.23 1.6" class="cls-1"/><path d="m369.14 208.14 10.06 5.87-.89 1.14M689.81 84.82 677.75 94l1.33 1.36M809.04 199.71l10.49 7.49-1.32 1.36M582.47 190.15l-12.06 9.18 1.33 1.35M679.08 95.36l-12.06 9.18 1.33 1.35M668.35 105.89l-12.07 9.18 1.33 1.35M657.61 116.42l-12.06 9.18 1.33 1.35M646.88 126.95l-12.07 9.18 1.33 1.36M636.14 137.49l-12.06 9.18 1.33 1.35M625.41 148.02l-12.06 9.18 1.32 1.35M614.67 158.55l-12.06 9.18 1.33 1.35M571.74 200.68l-9.35 6.52 1.32 1.35M603.94 169.08l-12.06 9.18 1.32 1.36M593.2 179.62l-12.06 9.18 1.33 1.35M146.33 76.45l-11.99 10.78 1.53 1.32M135.87 88.55l-11.99 10.77 1.52 1.32M125.4 100.64l-11.99 10.78 1.53 1.32M114.94 112.74l-11.99 10.78 1.52 1.32M104.47 124.84l-11.99 10.77 1.53 1.32M94.01 136.93l-11.99 10.78 1.52 1.32M83.54 149.03l-11.99 10.78 1.53 1.31M165.96 53.77c-.44-.62-.55-1.46-.37-2.19.17-.71.68-1.45 1.48-1.57.83-.12 1.47.49 1.75 1.19.29.69.27 1.54-.05 2.22M167.26 52.26v-2.24M73.08 161.12 61.09 171.9l1.52 1.32" class="cls-1"/><path d="M62.61 172.93 51 183.33l1.48 1.27M167.26 52.26l13.89 8.19-1.23 1.59M179.92 62.04l13.88 8.19-1.23 1.6M192.57 71.83l13.88 8.19-1.23 1.59M205.22 81.61l13.89 8.19-1.24 1.6M230.53 101.18l13.88 8.19-1.23 1.6" class="cls-1"/><path d="M165.73 67.62v113.7" class="cls-5"/><path d="M806.63 208.96h8.03v82.59h-8.03z" class="cls-1"/><path d="m692.68 99.19 113.95 109.77" class="cls-5"/><path d="m689.81 84.82 128.42 123.71M816.3 210.54l1.93-2.01M689.83 88.71 816.3 210.54" class="cls-3"/><path d="M579.19 291.55v-85.99M687.11 99.19 578.7 205.56" class="cls-5"/><path d="M570.7 205.56h8.49v85.99h-8.49zM689.83 88.71 565.66 210.54M689.81 84.82l-126.1 123.73M565.66 210.54l-1.95-1.99" class="cls-1"/><path d="M359.61 212.25 171.3 66.62" class="cls-5"/><path d="M347.56 212.25h21.74v79.31h-21.74z" class="cls-3"/><path d="M165.73 67.62h5.22" class="cls-5"/><path d="m376.09 217.49 1.81-2.34M376.09 217.49 167.67 56.32M377.9 215.15 167.26 52.26M167.26 52.26 52.77 184.6M167.67 56.32 55.01 186.54M55.01 186.54l-2.24-1.94" class="cls-1"/><path d="M165.73 67.62 62.85 186.54" class="cls-5"/><path d="M845.11 291.55H519.69M390.47 291.55H25.16" class="cls-2"/><path d="M649.31 228.3h4.34M669.17 241.12h-4.35M662.08 235.27h-1.52M670.56 245.86h4.34M677.64 251.71h4.65M690.35 258.62h-3.32M697.43 264.47h-4.34M698.83 269.2h4.34M705.91 275.06h4.34M713 280.91h4.34M724.42 286.76h-4.34M687.03 261.63l36.23 29.92M687.03 259.46l38.85 32.09M687.03 255.87l43.19 35.68M687.03 253.7l45.82 37.85M660.56 239.76l21.73 17.95M660.56 237.59l21.73 17.96M660.56 234.01l21.73 17.95M660.56 231.84l21.73 17.95M641.28 223.84l14.54 12.01M648.25 223.84l7.57 6.26M643.91 223.84l11.91 9.84M650.88 223.84l4.94 4.09M655 229.42h-4.34M660.56 234.15h.17M663.48 240h4.34M676.25 246.97h-4.34M682.29 252.82h-3.3M682.29 251.71h-4.65M687.03 257.5H689M691.74 263.35h4.34M696.08 263.35h-4.34M703.17 269.2h-4.34M704.52 270.32h-4.34M711.76 276.17h-4.5M718.73 282.02h-4.39M718.73 285.64h4.34M710.25 275.06h-4.34M717.34 280.91H713M687.03 291.55v-67.71M682.29 291.55v-67.71M660.56 291.55v-67.71M655.82 291.55v-67.71M630.18 291.55v-67.71M634.92 291.55v-67.71M165.73 75.32 69.51 186.54M201.28 181.32H74.03M62.61 186.54H75.5M170.95 186.54v105.01M165.73 186.54v105.01M196.42 186.54l-25.47 34.03M189.9 186.54l-18.95 25.32M170.95 181.32h-5.22M140.26 186.54l25.47 34.03M146.78 186.54l18.95 25.32M103.95 146.73l25.88 34.59M107.45 142.69l28.9 38.63M235.99 123.25l-43.45 58.07M231.86 120.05l-45.84 61.27M201.28 186.54H75.5M170.95 67.62v113.7" class="cls-5"/><path d="M55.01 186.54H75.5v105.02H55.01zM211.46 290.29h136.1v1.26h-136.1z" class="cls-3"/><path d="M579.04 290.37h227.59v1.19H579.04z" style="stroke-miterlimit:10;stroke-width:.5px;fill:#fff;stroke:#010101"/><path d="M739.41 144.21h-66.18M673.23 112.56v78.96M664.87 120.62v70.9M664.87 135.85h-15.82M664.87 144.21h-23.64M664.87 173.47h-53.64M664.87 165.11h-45.29M776.94 180.37l-3.95 12.04M772.97 176.54l-5.21 15.87M311.08 181.32H203.82M275.64 189.61h41.15l15.82 12.23h-66.12z" class="cls-5"/><path d="M274.11 186.54h43.72l23.77 18.37h-81.25zM247.9 186.54l7.23 9.66M692.68 99.19v36.66M687.11 99.19v36.66" class="cls-5"/><path d="m170.95 72.94 137.73 106.52 2.18 1.69 40.22 31.1M347.56 216.94h-87.21M241.38 186.54l13.75 18.37M267.59 186.54l-7.24 9.66M274.11 186.54l-13.76 18.37M255.08 186.54v103.75M260.35 186.54v103.75M317.83 186.54H203.82M347.56 211.72h-87.21M789.45 290.37v-97.96M789.45 192.41H592.1M789.45 202.16H582.47M769.78 173.47h-96.55M761.1 165.11h-87.87M730.73 135.85h-57.5" class="cls-5"/><path d="M203.82 184.28v29.69M202.55 184.28v29.69M201.28 184.28v29.69" class="cls-6"/><path d="m785.147 188.251 3.786-4.085 4.085 3.786-3.786 4.085zM297.64 164.31l3.627-4.69 4.691 3.628-3.628 4.69zM692.68 91.45v7.74h-5.57v-7.81M689.77 88.77h.12M171.3 59.04v8.58h-5.93v-8.74M756.806 160.96l3.864-4.012 4.011 3.865-3.864 4.011zM726.433 131.702l3.864-4.012 4.012 3.865-3.865 4.011zM615.7 161.516l3.977-3.9 3.9 3.976-3.976 3.9zM345.672 201.48l3.628-4.69 4.691 3.628-3.628 4.69zM645.776 131.941l3.975-3.901 3.901 3.975-3.975 3.902zM575.32 201.055l3.977-3.9 3.9 3.975-3.976 3.9zM802.146 204.633l3.865-4.011 4.011 3.864-3.864 4.012zM116.137 115.86l3.879-4.485 4.485 3.88-3.88 4.485zM579.19 217.99h2.79v5.85h-2.79zM235.277 116.1l3.628-4.69 4.69 3.628-3.628 4.69zM74.442 164.081l3.88-4.484 4.484 3.88-3.88 4.485zM687.03 217.99H579.19M293.39 175.78h2.18v5.53h-2.18zM278.1 175.78h2.18v5.53h-2.18zM262.8 175.78h2.18v5.53h-2.18zM247.51 175.78h2.18v5.53h-2.18zM232.22 175.78h2.18v5.53h-2.18zM687.03 223.84H579.19M687.03 216.6H579.19M685.89 191.52h1.14v25.08h-1.14zM687.03 223.84v-7.24M216.93 175.78h2.18v5.53h-2.18zM201.64 175.78h2.18v5.53h-2.18zM201.28 181.32h2.54v2.96h-2.54zM593.99 217.99h2.79v5.85h-2.79zM608.45 217.99h2.79v5.85h-2.79zM626.03 217.99h2.79v5.85h-2.79zM643.02 217.99h2.79v5.85h-2.79zM656.5 217.99h2.79v5.85h-2.79zM670.95 217.99h2.79v5.85h-2.79zM684.24 217.99h2.79v5.85h-2.79zM201.28 213.97h2.54v2.96h-2.54zM303.96 175.78H200.82v-5.53h95.95zM201.28 216.94h10.18v74.62h-10.18z" class="cls-3"/></svg>