<svg xmlns="http://www.w3.org/2000/svg" xmlns:xlink="http://www.w3.org/1999/xlink" viewBox="0 0 828.94 465.1"><defs><linearGradient id="Dégradé_sans_nom_12" x1="357.94" x2="357.94" y1="429.65" y2="462.23" data-name="Dégradé sans nom 12" gradientUnits="userSpaceOnUse"><stop offset="0" stop-color="#fff"/><stop offset="1" stop-color="#626161" stop-opacity=".3"/></linearGradient><linearGradient xlink:href="#Dégradé_sans_nom_12" id="Dégradé_sans_nom_12-2" x1="168.34" x2="168.34" y1="166.06" y2="186.51" data-name="Dégradé sans nom 12"/><linearGradient xlink:href="#Dégradé_sans_nom_12" id="Dégradé_sans_nom_12-3" x1="-1471.35" x2="-1471.35" y1="166.06" y2="186.51" data-name="Dégradé sans nom 12" gradientTransform="matrix(-1 0 0 1 -991.87 0)"/><linearGradient xlink:href="#Dégradé_sans_nom_12" id="Dégradé_sans_nom_12-4" x1="-1623.7" x2="-1623.7" y1="166.06" y2="186.65" data-name="Dégradé sans nom 12" gradientTransform="matrix(-1 0 0 1 -991.87 0)"/><linearGradient xlink:href="#Dégradé_sans_nom_12" id="Dégradé_sans_nom_12-5" x1="-1352.99" x2="-1352.99" y1="77.82" y2="110.57" data-name="Dégradé sans nom 12" gradientTransform="matrix(-1 0 0 1 -991.87 0)"/><linearGradient xlink:href="#Dégradé_sans_nom_12" id="Dégradé_sans_nom_12-6" x1="-1095.11" x2="-1095.11" y1="77.91" y2="110.59" data-name="Dégradé sans nom 12" gradientTransform="matrix(-1 0 0 1 -991.87 0)"/><linearGradient xlink:href="#Dégradé_sans_nom_12" id="Dégradé_sans_nom_12-7" x1="626.02" x2="626.02" y1="77.84" y2="110.53" data-name="Dégradé sans nom 12" gradientTransform="translate(-11)"/><clipPath id="clippath"><path d="M406.97 405.49h100.67v50.44H406.97z" class="cls-3"/></clipPath><clipPath id="clippath-1"><path d="M187.88 397.52h103.65v51.93H187.88z" class="cls-3"/></clipPath><clipPath id="clippath-2"><path d="M20.19 400.5h103.65v61.99H20.19z" class="cls-3"/></clipPath><clipPath id="clippath-3"><path d="M244.01 449.45H140.36v-51.93h103.65z" class="cls-3"/></clipPath><clipPath id="clippath-4"><path d="m654.14 110.57 20.94 56.17 19.31 28.69.37.67h8.52l-.25 1.02-.72 1.51-1.02.86-.94.59-1.32.25h-1.29l-.99-.68-1.35-1.37-.67-1.02v253.96h63.79l53.54-82.52-17-268.36-62.88-28.07z" class="cls-3"/></clipPath><pattern id="Nouveau_motif" width="17.34" height="10.88" x="0" y="0" data-name="Nouveau motif" patternTransform="translate(8521.25 7239.99)scale(2.25)" patternUnits="userSpaceOnUse"><path d="M0 0h17.34v10.88H0z" class="cls-3"/><path d="M5.81 7.41c.13-.31 1.18.05 2.88.04.4 0 .59-.02 1.07 0 .8.04.82.12 1.43.15.92.05 1.81.1 2.46-.17.09-.04.36-.16.53-.04.02.02.09.07.14.31s.02.39 0 .63c-.01.2 0 .1 0 .73 0 .54-.02.44-.01.64.01.44.06.54-.03.68s-.24.2-.41.27c-.14.06-.29.09-.53.1-.36.02-.54-.01-.85-.03-.27-.01-.39 0-.81.03-.81.04-.8 0-1.85.04-.87.03-.93.06-1.47.05-.63 0-.57-.05-1.06-.04-.17 0-.43.01-.76-.05-.4-.08-.5-.18-.55-.26-.03-.04-.06-.11-.08-.41-.02-.28 0-.49 0-.57.02-.49-.06-.44-.05-.99 0-.37.05-.5 0-.81-.04-.25-.08-.26-.05-.32ZM23.09 10.73c-.13.31-1.18-.05-2.88-.04-.4 0-.62-.26-1.1-.29-.8-.04-.79.16-1.4.13-.92-.05-1.78-.31-2.42-.04-.09.04-.4.37-.57.25-.02-.02-.09-.07-.14-.31s.16-.3.18-.55c.01-.2-.03-.16-.03-.8 0-.54-.03-.43-.04-.64-.01-.44-.16-.56-.08-.71.09-.14.24-.2.41-.27.14-.06.29-.09.53-.1.36-.02.54.01.85.03.27.01.49.17.91.15.81-.04.73-.07 1.78-.1.87-.03 1.03.06 1.56.06.63 0 .45-.18.94-.19.17 0 .43-.01.76.05.4.08.5.18.55.26.03.04.06.11.08.41.02.28-.06.29-.07.36-.02.49-.13.52-.14 1.07 0 .37.21.62.26.94.04.25.08.26.05.32ZM5.75 10.73c-.13.31-1.18-.05-2.88-.04-.4 0-.62-.26-1.1-.29-.8-.04-.79.16-1.4.13-.92-.05-1.78-.31-2.42-.04-.09.04-.4.37-.57.25-.02-.02-.09-.07-.14-.31s.16-.3.18-.55c.01-.2-.03-.16-.03-.8 0-.54-.03-.43-.04-.64-.01-.44-.16-.56-.08-.71.09-.14.24-.2.41-.27.14-.06.29-.09.53-.1.36-.02.54.01.85.03.27.01.49.17.91.15.81-.04.73-.07 1.78-.1.87-.03 1.03.06 1.56.06.63 0 .45-.18.94-.19.17 0 .43-.01.76.05.4.08.5.18.55.26.03.04.06.11.08.41.02.28-.06.29-.07.36-.02.49-.13.52-.14 1.07 0 .37.21.62.26.94.04.25.08.26.05.32ZM.03 3.78c.13-.31 1.18.05 2.88.04.4 0 .59-.02 1.07 0 .8.04.82.12 1.43.15.92.05 1.81.1 2.46-.17.09-.04.36-.16.53-.04.02.02.09.07.14.31s.02.39 0 .63c-.01.2 0 .1 0 .73 0 .54-.02.44-.01.64.01.44.06.54-.03.68s-.24.2-.41.27c-.14.06-.29.09-.53.1-.36.02-.54-.01-.85-.03-.27-.01-.39 0-.81.03-.81.04-.8 0-1.85.04-.87.03-.93.06-1.47.05-.63 0-.57-.05-1.06-.04-.17 0-.43.01-.76-.05-.4-.08-.5-.18-.55-.26-.03-.04-.06-.11-.08-.41-.02-.28 0-.49 0-.57.02-.49-.06-.44-.05-.99 0-.37.05-.5 0-.81-.04-.25-.08-.26-.05-.32ZM17.31 7.1c-.13.31-1.18-.05-2.88-.04-.4 0-.62-.26-1.1-.29-.8-.04-.79.16-1.4.13-.92-.05-1.78-.31-2.42-.04-.09.04-.4.37-.57.25-.02-.02-.09-.07-.14-.31s.16-.3.18-.55c.01-.2-.03-.16-.03-.8 0-.54-.03-.43-.04-.64-.01-.44-.16-.56-.08-.71.09-.14.24-.2.41-.27.14-.06.29-.09.53-.1.36-.02.54.01.85.03.27.01.49.17.91.15.81-.04.73-.07 1.78-.1.87-.03 1.03.06 1.56.06.63 0 .45-.18.94-.19.17 0 .43-.01.76.05.4.08.5.18.55.26.03.04.06.11.08.41.02.28-.06.29-.07.36-.02.49-.13.52-.14 1.07 0 .37.21.62.26.94.04.25.08.26.05.32ZM11.6.15c.13-.31 1.18.05 2.88.04.4 0 .59-.02 1.07 0 .8.04.82.12 1.43.15.92.05 1.81.1 2.46-.17.09-.04.36-.16.53-.04.02.02.09.07.14.31s.02.39 0 .63c-.01.2 0 .1 0 .73 0 .54-.02.44-.01.64.01.44.06.54-.03.68s-.24.2-.41.27c-.14.06-.29.09-.53.1-.36.02-.54-.01-.85-.03-.27-.01-.39 0-.81.03-.81.04-.8 0-1.85.04-.87.03-.93.06-1.47.05-.63 0-.57-.05-1.06-.04-.17 0-.43.01-.76-.05-.4-.08-.5-.18-.55-.26-.03-.04-.06-.11-.08-.41-.02-.28 0-.49 0-.57.02-.49-.06-.44-.05-.99 0-.37.05-.5 0-.81-.04-.25-.08-.26-.05-.32ZM-5.75.15c.13-.31 1.18.05 2.88.04.4 0 .59-.02 1.07 0 .8.04.82.12 1.43.15.92.05 1.81.1 2.46-.17.09-.04.36-.16.53-.04.02.02.09.07.14.31s.02.39 0 .63c-.01.2 0 .1 0 .73 0 .54-.02.44-.01.64.01.44.06.54-.03.68s-.24.2-.41.27c-.14.06-.29.09-.53.1-.36.02-.54-.01-.85-.03-.27-.01-.39 0-.81.03-.81.04-.8 0-1.85.04-.87.03-.93.06-1.47.05-.63 0-.57-.05-1.06-.04-.17 0-.43.01-.76-.05-.4-.08-.5-.18-.55-.26-.03-.04-.06-.11-.08-.41-.02-.28 0-.49 0-.57.02-.49-.06-.44-.05-.99 0-.37.05-.5 0-.81-.04-.25-.08-.26-.05-.32ZM11.53 3.48c-.13.31-1.18-.05-2.88-.04-.4 0-.62-.26-1.1-.29-.8-.04-.79.16-1.4.13-.92-.05-1.78-.31-2.42-.04-.09.04-.4.37-.57.25-.02-.02-.09-.07-.14-.31s.16-.3.18-.55c.01-.2-.03-.16-.03-.8 0-.54-.03-.43-.04-.64-.01-.44-.16-.56-.08-.71.09-.14.24-.2.41-.27.14-.06.29-.09.53-.1.36-.02.54.01.85.03.27.01.49.17.91.15.81-.04.73-.07 1.78-.1.87-.03 1.03.06 1.56.06.63 0 .45-.18.94-.19.17 0 .43-.01.76.05.4.08.5.18.55.26.03.04.06.11.08.41.02.28-.06.29-.07.36-.02.49-.13.52-.14 1.07 0 .37.21.62.26.94.04.25.08.26.05.32Z" class="cls-7"/></pattern><pattern id="Lignes_de_cercle" width="85.5" height="93" x="0" y="0" data-name="Lignes de cercle" patternTransform="matrix(.75 0 0 .75 120.72 -1804.67)" patternUnits="userSpaceOnUse"><path d="M0 0h85.5v93H0z" class="cls-3"/><path d="M85.5 3.71c19.29-.73 40.5-.71 69 .29 4.34.15 11.31-.3 16.5-.29M85.5 10.56c24.5-2.56 45.73 1.22 63-.56 3.67-.38 12.75.46 22.5.56M85.5 17.49c21.5-1.49 27.3 1.4 59-1.24 9-.75 23.49 1.42 26.5 1.24M85.5 22.9c14.41.72 30.66 2.35 49.63.4 9.76-1 22.62-.14 35.88-.4M85.5 36.71c18.07-.27 22.29-1.93 56-.21 14.75.75 22.5 1 29.5.21M85.5 42.94c12.85.5 24.5-1.44 45.62.11 16.54 1.21 29.92-1.42 39.88-.11M85.5 56.38c20.5-.38 17.51-.75 45 .12 31.5 1 40.01-.13 40.5-.12M85.5 63.66c20.94-.32 17.61 1.03 50.25-.91 2.06-.12 26.25 2.25 35.25.91M85.5 68.9c14.34.97 32 1.6 50.62.65 9.51-.48 20.38.45 34.88-.65M85.5 75.9c20.94.53 52.5-.4 73.5.35 1.41.05 10.49-.28 12-.35M85.5 83.41c30-1.91 65 1.09 79.5.09 1.76-.12 4.1-.04 6-.09M85.5 89.53c10.68.16 21.46-1.1 38.5-.03 24 1.5 41.78.12 47 .03M85.5 50.29c22.15-.63 46.5-1.79 57.75-.79 13.84 1.23 26.95.81 27.75.79M85.5 29.71c18.07-.27 22-1.21 46-.21 21.48.89 30.5 1 39.5.21M0 3.71C19.29 2.98 40.5 3 69 4c4.34.15 11.31-.3 16.5-.29M0 10.56C24.5 8 45.73 11.78 63 10c3.67-.38 12.75.46 22.5.56M0 17.49c21.5-1.49 27.3 1.4 59-1.24 9-.75 23.49 1.42 26.5 1.24" class="cls-2"/><path d="M0 22.9c14.41.72 30.66 2.35 49.63.4 9.76-1 22.62-.14 35.88-.4M0 36.71c18.07-.27 22.29-1.93 56-.21 14.75.75 22.5 1 29.5.21M0 42.94c12.85.5 24.5-1.44 45.62.11 16.54 1.21 29.92-1.42 39.88-.11M0 56.38c20.5-.38 17.51-.75 45 .12 31.5 1 40.01-.13 40.5-.12M0 63.66c20.94-.32 17.61 1.03 50.25-.91 2.06-.12 26.25 2.25 35.25.91M0 68.9c14.34.97 32 1.6 50.62.65 9.51-.48 20.38.45 34.88-.65M0 75.9c20.94.53 52.5-.4 73.5.35 1.41.05 10.49-.28 12-.35M0 83.41c30-1.91 65 1.09 79.5.09 1.76-.12 4.1-.04 6-.09M0 89.53c10.68.16 21.46-1.1 38.5-.03 24 1.5 41.78.12 47 .03M0 50.29c22.15-.63 46.5-1.79 57.75-.79 13.84 1.23 26.95.81 27.75.79M0 29.71c18.07-.27 22-1.21 46-.21 21.48.89 30.5 1 39.5.21M-85.5 3.71C-66.21 2.98-45 3-16.5 4c4.34.15 11.31-.3 16.5-.29M-85.5 10.56C-61 8-39.77 11.78-22.5 10c3.67-.38 12.75.46 22.5.56M-85.5 17.49c21.5-1.49 27.3 1.4 59-1.24 9-.75 23.49 1.42 26.5 1.24" class="cls-2"/><path d="M-85.5 22.9c14.41.72 30.66 2.35 49.63.4 9.76-1 22.62-.14 35.88-.4M-85.5 36.71c18.07-.27 22.29-1.93 56-.21 14.75.75 22.5 1 29.5.21M-85.5 42.94c12.85.5 24.5-1.44 45.62.11 16.54 1.21 29.92-1.42 39.88-.11M-85.5 56.38c20.5-.38 17.51-.75 45 .12 31.5 1 40.01-.13 40.5-.12M-85.5 63.66c20.94-.32 17.61 1.03 50.25-.91C-33.19 62.63-9 65 0 63.66M-85.5 68.9c14.34.97 32 1.6 50.62.65 9.51-.48 20.38.45 34.88-.65M-85.5 75.9c20.94.53 52.5-.4 73.5.35 1.41.05 10.49-.28 12-.35M-85.5 83.41c30-1.91 65 1.09 79.5.09 1.76-.12 4.1-.04 6-.09M-85.5 89.53c10.68.16 21.46-1.1 38.5-.03 24 1.5 41.78.12 47 .03M-85.5 50.29c22.15-.63 46.5-1.79 57.75-.79 13.84 1.23 26.95.81 27.75.79M-85.5 29.71c18.07-.27 22-1.21 46-.21 21.48.89 30.5 1 39.5.21" class="cls-2"/></pattern><style>.cls-1{stroke-width:.09px}.cls-1,.cls-2,.cls-3,.cls-4,.cls-5,.cls-6,.cls-7{fill:none}.cls-1,.cls-2,.cls-5,.cls-6,.cls-7,.cls-9{stroke-miterlimit:10}.cls-1,.cls-5,.cls-6,.cls-9{stroke:#010101}.cls-10{fill:#bec5b0}.cls-10,.cls-11,.cls-12,.cls-14,.cls-22,.cls-23,.cls-24,.cls-25,.cls-3{stroke-width:0}.cls-2{stroke:#1e1e1c;stroke-dasharray:0 0 0 0 0 0 .1 3 .1 3 .1 6}.cls-2,.cls-4{stroke-linecap:round}.cls-11{fill:#9a9999}.cls-12{fill:#cdcccc}.cls-14{fill:#a3b28e}.cls-23,.cls-9{fill:#fff}.cls-4{stroke:#343434;stroke-linejoin:round;stroke-width:.1px}.cls-5{stroke-width:.3px}.cls-31{opacity:.5}.cls-6,.cls-9{stroke-width:.15px}.cls-7{stroke:#676767;stroke-width:.05px}.cls-22{fill:url(#Lignes_de_cercle)}.cls-24{fill:#afbd9f}.cls-25{fill:#343434}</style></defs><g id="Calque_1" data-name="Calque 1"><path d="M23.84 196.66h670.95v260.46H23.84z" style="stroke-width:0;fill:url(#Nouveau_motif)"/><path d="M23.45 285.28h11.03v17.69H23.45zM23.45 303.27h15.4v17.69h-15.4zM23.45 249.45h11.03v17.69H23.45zM23.45 267.45h15.4v17.69h-15.4zM23.45 213.76h11.03v17.69H23.45zM23.45 231.76h15.4v17.69h-15.4z" class="cls-9"/><path d="M23.45 196.08h15.4v17.69h-15.4zM23.45 321.35h11.03v17.69H23.45zM23.45 339.35h15.4v17.69h-15.4zM23.45 357.42h11.03v17.69H23.45zM23.45 375.42h15.4v17.69h-15.4zM23.45 393.42h11.03v17.69H23.45zM23.45 411.41h15.4v17.69h-15.4zM23.45 429.41h11.03v17.69H23.45zM23.45 447.41h15.4v17.69h-15.4zM694.39 302.33h-11.03v-17.69h11.03zM694.39 320.32h-15.4v-17.69h15.4zM694.39 266.5h-11.03v-17.69h11.03zM694.39 284.49h-15.4V266.8h15.4zM694.39 230.82h-11.03v-17.69h11.03zM694.39 248.81h-15.4v-17.69h15.4zM694.39 213.13h-15.4v-17.69h15.4zM694.39 338.39h-11.03V320.7h11.03zM694.39 356.4h-15.4v-17.69h15.4zM694.39 374.47h-11.03v-17.69h11.03zM694.39 392.46h-15.4v-17.69h15.4zM694.39 410.47h-11.03v-17.69h11.03zM694.39 428.46h-15.4v-17.69h15.4zM694.39 446.46h-11.03v-17.69h11.03z" class="cls-9"/><path d="M249.23 34.08h222.39l76.03 31.87v44.5H515.4l-5.1-3.07-5.1 3.07H213.74l-5.05-3.07-5.06 3.07h-27.99V64.22l71.91-30.14zM142.21 77.91v32.68H112.2l-5.07-3.08-5.07 3.06-38 .02zM575.87 77.78l-.04 32.72 30.1.07 5.11-3.08 5.12 3.08h37.98z" class="cls-22"/><path d="m64.06 110.59-20.94 55.49 263.86-.02 52.13-34.38 52.21 34.38h136.33v-55.61zM575.83 110.5l78.31.07 20.95 55.51-99.22-.02z" class="cls-22"/><path d="m29.7 186.51 13.42-20.43 263.86-.02-31 20.45zM411.32 166.06h136.33v20.45H442.2zM575.87 166.06l99.22.02 13.51 19.48-112.73.95z" class="cls-22"/><path d="M494.27 125.19h31.87v39.58h-31.87zM188.71 239.66h38.24v70.54h-38.24z" class="cls-23"/><path d="M186.59 237.54h42.49v74.78h-42.49zM394.58 406.92c0-22.4-18.16-40.56-40.56-40.56s-40.56 18.16-40.56 40.56v44.3h81.12zM799.97 301.7l72.44 63.32M492.99 123.91h34.42v42.13h-34.42zM90.07 239.66h38.24v70.54H90.07z" class="cls-23"/><path d="M87.94 237.54h42.49v74.78H87.94zM81.57 224.5v6.44l27.62-3.79 27.62 3.79v-6.44l-27.62-3.79zM81.57 312.32v6.37h55.24v-6.37M180.21 224.5v6.44l27.62-3.79 27.62 3.79v-6.44l-27.62-3.79zM799.17 303.82l72.44 63.32M385.82 240.75c6.81-2.99 13.7-3.22 19.99-3.22 6.33 0 13.26.24 19.97 3.24.42.19.84.37 1.26.56 0 23.66-.01 47.33-.02 70.99-14.16 0-28.33-.01-42.49-.02 0-23.67.01-47.33.02-71 .42-.19.85-.37 1.27-.56ZM191.9 125.21h31.87v39.58H191.9zM405.81 239.66l-.04 70.54M180.21 312.32v6.37h55.24v-6.37M606.57 406.92c0-22.4-18.16-40.56-40.56-40.56s-40.56 18.16-40.56 40.56v44.3h81.12zM339.99 224.52v6.43l-27.62-3.8-27.62 3.77v-6.43l27.62-3.78z" class="cls-23"/><path d="M252.2 21.5c0 .82-1.03 1.26-1.61 1.45-.75.25-1.49.34-2.27.34s-1.52-.09-2.27-.34c-.58-.19-1.61-.63-1.61-1.45s1.03-1.26 1.61-1.45c.75-.25 1.49-.34 2.27-.34s1.52.09 2.27.34c.58.19 1.61.63 1.61 1.45Z" class="cls-6"/><path d="M247.56 15.63h1.84v19.03h-1.84z" class="cls-6"/><path d="m275.98 186.51 83.13-54.83 83.14 54.83" class="cls-23"/><path d="m280.24 186.51 78.87-52.02 78.87 52.02M596.29 346.54l-.01 8.54-30.26-5.05-30.26 5.02v-8.55l30.27-5.01z" class="cls-23"/><path d="M468.31 14.31h1.84v19.03h-1.84z" class="cls-6"/><path d="M465.51 20.17c0 .82 1.03 1.26 1.61 1.45.75.25 1.49.34 2.27.34s1.52-.09 2.27-.34c.58-.19 1.61-.63 1.61-1.45s-1.03-1.26-1.61-1.45c-.75-.25-1.49-.34-2.27-.34s-1.52.09-2.27.34c-.58.19-1.61.63-1.61 1.45ZM252.2 21.5c0 .82-1.03 1.26-1.61 1.45-.75.25-1.49.34-2.27.34s-1.52-.09-2.27-.34c-.58-.19-1.61-.63-1.61-1.45s1.03-1.26 1.61-1.45c.75-.25 1.49-.34 2.27-.34s1.52.09 2.27.34c.58.19 1.61.63 1.61 1.45Z" class="cls-6"/><path d="M292.37 240.75c6.81-2.99 13.7-3.22 19.99-3.22 6.33 0 13.26.24 19.97 3.24.42.19.84.37 1.26.56 0 23.66-.01 47.33-.02 70.99-14.16 0-28.33-.01-42.49-.02 0-23.67.01-47.33.02-71 .42-.19.85-.37 1.27-.56ZM433.44 224.52l-.01 6.43-27.61-3.8-27.62 3.77v-6.43l27.62-3.78zM89.92 123.94h34.42v42.13H89.92zM359.11 181.96c3.44 0 6.3-1.97 8.19-4.64 1.89-2.68 2.78-6.01 2.78-9.24s-.9-6.56-2.78-9.24c-1.89-2.68-4.75-4.64-8.19-4.64s-6.3 1.97-8.19 4.64c-1.89 2.68-2.78 6.01-2.78 9.24s.9 6.56 2.78 9.24c1.89 2.68 4.75 4.64 8.19 4.64" class="cls-23"/><path d="M91.2 125.21h31.87v39.58H91.2zM190.62 123.94h34.42v42.13h-34.42zM312.36 239.66l-.03 70.54M384.3 346.54v8.54l-30.26-5.05-30.27 5.02v-8.55l30.27-5.01zM593.83 123.91h34.42v42.13h-34.42zM491.04 239.74h38.24v70.54h-38.24z" class="cls-23"/><path d="M488.92 237.61h42.49v74.78h-42.49zM482.54 224.58v6.43l27.62-3.79 27.62 3.79v-6.43l-27.62-3.79zM482.54 312.4v6.37h55.24v-6.37M595.11 125.19h31.87v39.58h-31.87zM589.91 239.66h38.24v70.54h-38.24z" class="cls-23"/><path d="M587.79 237.54h42.49v74.78h-42.49zM581.42 224.5v6.44l27.62-3.79 27.61 3.79v-6.44l-27.61-3.79zM581.42 312.32v6.37h55.23v-6.37M633.03 276.05l18.5 31.16M648.83 307.3l-18.55-31.25M633.03 242.55l18.5 31.16M648.83 273.8l-18.55-31.25M630.28 307.3h21.25v2.25h-21.25zM630.28 240.3h21.25v2.25h-21.25z" class="cls-23"/><path d="M630.28 237.54h21.25v74.78h-21.25z" class="cls-23"/><path d="M630.28 273.8h21.25v2.25h-21.25zM636.65 237.54v-6.38h-55.23v6.38M486.17 276.13l-18.5 31.16M470.37 307.38l18.55-31.25M486.17 242.63l-18.5 31.16M470.37 273.88l18.55-31.25M467.67 307.37h21.25v2.25h-21.25zM467.67 240.38h21.25v2.25h-21.25z" class="cls-23"/><path d="M467.67 237.61h21.25v74.78h-21.25z" class="cls-23"/><path d="M467.67 273.88h21.25v2.25h-21.25zM534.16 276.13l18.49 31.16M549.96 307.38l-18.55-31.25M534.16 242.63l18.49 31.16M549.96 273.88l-18.55-31.25M531.41 307.37h21.25v2.25h-21.25zM531.41 240.38h21.25v2.25h-21.25z" class="cls-23"/><path d="M531.41 237.61h21.25v74.78h-21.25z" class="cls-23"/><path d="M531.41 273.88h21.25v2.25h-21.25zM537.78 237.61v-6.37h-55.24v6.37M183.84 276.05l-18.5 31.16M168.04 307.3l18.55-31.25M183.84 242.55l-18.5 31.16M168.04 273.8l18.55-31.25M165.34 307.3h21.25v2.25h-21.25zM165.34 240.3h21.25v2.25h-21.25z" class="cls-23"/><path d="M165.34 237.54h21.25v74.78h-21.25z" class="cls-23"/><path d="M165.34 273.8h21.25v2.25h-21.25zM231.83 276.05l18.49 31.16M247.63 307.3l-18.55-31.25M231.83 242.55l18.49 31.16M247.63 273.8l-18.55-31.25M229.08 307.3h21.25v2.25h-21.25zM229.08 240.3h21.25v2.25h-21.25z" class="cls-23"/><path d="M229.08 237.54h21.25v74.78h-21.25z" class="cls-23"/><path d="M229.08 273.8h21.25v2.25h-21.25zM235.45 237.54v-6.38h-55.24v6.38M282.68 186.51l76.43-50.41 76.44 50.41" class="cls-23"/><path d="m284.51 186.51 74.6-49.21 74.61 49.21M85.2 276.05l-18.5 31.16M69.4 307.3l18.54-31.25M85.2 242.55l-18.5 31.16M69.4 273.8l18.54-31.25M66.7 307.3h21.25v2.25H66.7zM66.7 240.3h21.25v2.25H66.7z" class="cls-23"/><path d="M66.7 237.54h21.25v74.78H66.7z" class="cls-23"/><path d="M66.7 273.8h21.25v2.25H66.7zM133.18 276.05l18.5 31.16M148.99 307.3l-18.55-31.25M133.18 242.55l18.5 31.16M148.99 273.8l-18.55-31.25M130.44 307.3h21.25v2.25h-21.25zM130.44 240.3h21.25v2.25h-21.25z" class="cls-23"/><path d="M130.44 237.54h21.25v74.78h-21.25z" class="cls-23"/><path d="M130.44 273.8h21.25v2.25h-21.25zM136.81 237.54v-6.38H81.57v6.38M619.32 451.22v-44.3c0-29.44-23.87-53.31-53.31-53.31s-53.31 23.87-53.31 53.31v44.3M606.57 436.32l12.75.09M597.75 381.67l9.97-7.94M604.33 393.12l12-4.32M586.12 371.7l6.33-11.07M525.45 436.32l-12.75.09M534.28 381.67l-9.98-7.94M527.69 393.12l-11.99-4.32M545.9 371.7l-6.32-11.07M559.23 366.93l-2.13-12.56M571.76 366.77l1.81-12.62M561.76 438.62v-72.04M553.26 438.62l.01-70.2M549.02 438.62V370.1M544.77 438.62v-66.25M540.52 438.62v-63.24M527.77 438.62v-45.47M570.26 438.62v-72.04M578.76 438.62v-70.2M583.01 438.62V370.1M587.26 438.62v-66.25M591.51 438.62v-63.24M379.52 438.62v-63.24M375.27 438.62v-66.25M371.02 438.62V370.1M358.28 438.62l-.01-72.04M315.78 438.62v-45.47M328.53 438.62v-63.24M332.78 438.62v-66.25M337.03 438.62V370.1M341.28 438.62v-70.2M349.78 438.62v-72.04M359.78 366.77l1.8-12.62M347.24 366.93l-2.13-12.56M333.91 371.7l-6.32-11.07M315.7 393.12l-11.99-4.32M322.29 381.67l-9.98-7.94M313.46 436.32l-12.74.09M374.14 371.7l6.32-11.07M392.35 393.12l11.99-4.32M385.76 381.67l9.98-7.94M394.59 436.32l12.74.09M407.33 451.22v-44.3c0-29.44-23.87-53.31-53.31-53.31s-53.31 23.87-53.31 53.31v44.3M334.88 240.77c6.81-2.99 13.69-3.23 19.99-3.23v74.78h-21.25c0-23.67 0-47.33-.01-71 .42-.19.85-.37 1.27-.56Z" class="cls-23"/><path d="M335.99 240.3h18.88v2.26h-21.25v-1.24M336.37 276.06l18.5 31.16M352.17 307.31l-18.55-31.25M336.37 242.56l18.5 31.16M352.17 273.81l-18.55-31.25M333.62 307.3h21.25v2.25h-21.25zM333.62 273.81h21.25v2.25h-21.25zM289.87 240.78c-6.81-2.99-13.69-3.23-19.99-3.23v74.78h21.24c0-23.67 0-47.33.01-71-.42-.19-.85-.37-1.27-.56Z" class="cls-23"/><path d="M288.76 240.31h-18.88v2.26h21.25v-1.24M288.38 276.07l-18.49 31.16M272.58 307.32l18.55-31.25M288.38 242.57l-18.49 31.16M272.58 273.82l18.55-31.25M269.88 307.31h21.25v2.25h-21.25zM269.88 273.82h21.25v2.25h-21.25zM340 239v-1.84c-1.69-.74-3.39-1.49-5.08-2.23-3.79-1.66-7.84-2.69-11.94-3.22-3.52-.45-7.07-.54-10.61-.54-1.71 0-3.41.02-5.11.09-1.85.08-3.7.21-5.54.45-4.1.53-8.15 1.56-11.92 3.25-1.68.75-3.35 1.5-5.03 2.25v1.81M383.29 240.76c-6.81-2.99-13.69-3.23-19.99-3.24-.01 24.93-.02 49.86-.04 74.78 7.08 0 14.16 0 21.25.01.02-23.67.03-47.33.05-71-.42-.19-.85-.37-1.27-.56Z" class="cls-23"/><path d="m382.18 240.29-18.88-.01v2.26l21.25.01v-1.24M368.62 237.63v2.65M373.93 238.13v2.16M379.2 309.54v2.77M379.22 284.99l-.02 22.3M373.89 309.54v2.77M373.9 293.94l-.01 13.35M368.58 309.54v2.77M368.58 302.88v4.4M368.6 276.04l-.01 22.22M373.91 276.04l-.01 13.27M379.22 276.05v4.32M379.23 251.49l-.01 22.3M373.92 260.44l-.01 13.35M368.6 269.38v4.41M368.61 242.54l-.01 22.21M373.93 242.54l-.01 13.27M379.24 242.54l-.01 4.32M381.78 276.05l-18.51 31.15M365.97 307.29l18.56-31.24M381.8 242.54l-18.51 31.16M365.98 273.79l18.57-31.24M363.27 307.29h21.25v2.25h-21.25zM363.29 273.79h21.25v2.25h-21.25zM428.3 240.79c6.81-2.99 13.7-3.22 19.99-3.22-.01 24.93-.02 49.86-.04 74.78-7.08 0-14.16 0-21.24-.01 0-23.67.01-47.33.02-71 .42-.19.85-.37 1.27-.56Z" class="cls-23"/><path d="M429.41 240.33h18.88v2.26l-21.25-.01v-1.24M442.98 237.68v2.65M437.66 238.17v2.16M432.35 239.32v1.01M432.32 309.58v2.77M432.33 285.03l-.01 22.3M437.63 309.58v2.77M437.64 293.98l-.01 13.35M442.94 309.58v2.77M442.94 302.93v4.4M442.96 276.09l-.01 22.21M437.65 276.08l-.01 13.27M432.33 276.08v4.32M432.35 251.53l-.01 22.3M437.65 260.48v13.35M442.96 269.43v4.41M442.97 242.59l-.01 22.21M437.66 242.58v13.27M432.35 242.58v4.32M429.77 276.08l18.48 31.17M445.56 307.34l-18.54-31.26M429.79 242.58l18.48 31.17M445.57 273.84l-18.53-31.26M427.01 307.33h21.25v2.25h-21.25zM378.18 238.99v-1.84c1.69-.74 3.39-1.49 5.08-2.23 3.79-1.66 7.84-2.69 11.94-3.22 3.52-.45 7.07-.54 10.61-.54 1.71 0 3.41.02 5.11.09 1.85.08 3.7.21 5.54.45 4.1.53 8.14 1.57 11.92 3.25 1.68.75 3.35 1.5 5.03 2.25v1.81M129.19 120.8l-22.06-13.29M85.07 120.8l22.06-13.29M107.13 123.94H85.07v-3.14h44.12v3.14zM427.02 273.83h21.25v2.25h-21.25zM643.23 129.46l-14.98 31.16M630.43 160.71l15.03-31.25M628.25 127.21h17.21v2.25h-17.21zM628.25 160.71h17.21v2.25h-17.21z" class="cls-23"/><path d="M628.25 123.94h17.21v42.13h-17.21zM578.85 129.46l14.99 31.16M591.65 160.71l-15.02-31.25M576.63 127.21h17.21v2.25h-17.21zM576.63 160.71h17.21v2.25h-17.21z" class="cls-23"/><path d="M576.63 123.94h17.21v42.13h-17.21zM542.39 129.46l-14.98 31.16M529.59 160.71l15.03-31.25M527.41 127.21h17.21v2.25h-17.21zM527.41 160.71h17.21v2.25h-17.21z" class="cls-23"/><path d="M527.41 123.94h17.21v42.13h-17.21zM478.02 129.46 493 160.62M490.82 160.71l-15.03-31.25M475.79 127.21H493v2.25h-17.21zM475.79 160.71H493v2.25h-17.21z" class="cls-23"/><path d="M475.79 123.94H493v42.13h-17.21zM139.32 129.48l-14.98 31.17M126.52 160.73l15.02-31.25M124.33 127.23h17.21v2.25h-17.21zM124.33 160.73h17.21v2.25h-17.21z" class="cls-23"/><path d="M124.33 123.96h17.21v42.13h-17.21zM74.94 129.48l14.98 31.17M87.74 160.73l-15.02-31.25M72.72 127.23h17.21v2.25H72.72zM72.72 160.73h17.21v2.25H72.72z" class="cls-23"/><path d="M72.72 123.96h17.21v42.13H72.72zM240.02 129.46l-14.98 31.16M227.22 160.71l15.03-31.25M225.04 127.21h17.21v2.25h-17.21zM225.04 160.71h17.21v2.25h-17.21z" class="cls-23"/><path d="M225.04 123.94h17.21v42.13h-17.21zM175.64 129.46l14.99 31.16M188.44 160.71l-15.02-31.25M173.42 127.21h17.21v2.25h-17.21zM173.42 160.71h17.21v2.25h-17.21z" class="cls-23"/><path d="M173.42 123.94h17.21v42.13h-17.21zM289.85 240.76c-6.81-2.99-13.69-3.23-19.99-3.24-.01 24.93-.02 49.86-.04 74.78 7.08 0 14.16 0 21.24.01.02-23.67.03-47.33.05-71-.42-.19-.85-.37-1.27-.56Z" class="cls-23"/><path d="m288.74 240.29-18.88-.01v2.26l21.24.01v-1.24M275.17 237.63v2.65M280.48 238.13v2.16M285.76 309.54v2.77M285.77 284.99l-.01 22.3M280.44 309.54v2.77M280.45 293.94v13.35M275.13 309.54v2.77M275.14 302.88l-.01 4.4M275.15 276.04l-.01 22.22M280.46 276.04v13.27M285.77 276.05v4.32M285.79 251.49l-.02 22.3M280.47 260.44l-.01 13.35M275.15 269.38v4.41M275.17 242.54l-.01 22.21M280.48 242.54l-.01 13.27M285.79 242.54v4.32M288.34 276.05l-18.52 31.15M272.52 307.29l18.56-31.24M288.35 242.54l-18.51 31.16M272.54 273.79l18.56-31.24M269.82 307.29h21.25v2.25h-21.25zM269.84 273.79h21.25v2.25h-21.25zM334.85 240.79c6.81-2.99 13.7-3.22 19.99-3.22-.01 24.93-.02 49.86-.04 74.78-7.08 0-14.16 0-21.24-.01 0-23.67.01-47.33.02-71 .42-.19.85-.37 1.27-.56Z" class="cls-23"/><path d="M335.96 240.33h18.88v2.26l-21.25-.01v-1.24M349.53 237.68v2.65M344.22 238.17v2.16M338.91 239.32v1.01M338.87 309.58v2.77M338.88 285.03l-.01 22.3M344.18 309.58v2.77M344.19 293.98l-.01 13.35M349.49 309.58v2.77M349.5 302.93l-.01 4.4M349.51 276.09l-.01 22.21M344.2 276.08l-.01 13.27M338.89 276.08l-.01 4.32M338.9 251.53l-.01 22.3M344.21 260.48l-.01 13.35M349.51 269.43v4.41M349.53 242.59l-.01 22.21M344.22 242.58l-.01 13.27M338.9 242.58v4.32M336.32 276.08l18.48 31.17M352.11 307.34l-18.53-31.26M336.34 242.58l18.48 31.17M352.13 273.84l-18.54-31.26M333.56 307.33h21.25v2.25h-21.25zM333.58 273.83h21.25v2.25h-21.25zM284.73 238.99v-1.84c1.69-.74 3.39-1.49 5.08-2.23 3.79-1.66 7.84-2.69 11.94-3.22 3.52-.45 7.07-.54 10.61-.54 1.71 0 3.41.02 5.11.09 1.85.08 3.7.21 5.54.45 4.1.53 8.14 1.57 11.92 3.25 1.68.75 3.35 1.5 5.03 2.25v1.81M585.04 276.05l-18.49 31.16M569.24 307.3l18.55-31.25M585.04 242.55l-18.49 31.16M569.24 273.8l18.55-31.25M566.54 307.3h21.25v2.25h-21.25zM566.54 240.3h21.25v2.25h-21.25z" class="cls-23"/><path d="M566.54 237.54h21.25v74.78h-21.25z" class="cls-23"/><path d="M566.54 273.8h21.25v2.25h-21.25zM229.89 120.8l-22.06-13.29M185.78 120.8l22.05-13.29M207.83 123.94h-22.05v-3.14h44.11v3.14zM532.26 120.77l-22.06-13.28M488.15 120.77l22.05-13.28M510.2 123.91h-22.05v-3.14h44.11v3.14zM633.1 120.77l-22.06-13.28M588.99 120.77l22.05-13.28M611.04 123.91h-22.05v-3.14h44.11v3.14zM284.46 238.93v-52.42h-8.48v51.19M359.11 185.46c1.94 0 3.87-.48 5.61-1.35.94-.47 1.82-1.05 2.63-1.72.84-.69 1.6-1.48 2.27-2.33 1.37-1.73 2.38-3.73 3.04-5.83.62-1.99.93-4.07.93-6.16s-.31-4.17-.93-6.16c-.66-2.1-1.67-4.1-3.04-5.83-.67-.85-1.44-1.64-2.27-2.33-.81-.67-1.69-1.25-2.63-1.72-1.73-.87-3.67-1.35-5.61-1.35s-3.88.48-5.61 1.35c-.94.47-1.82 1.05-2.63 1.72-.84.69-1.6 1.48-2.27 2.33-1.37 1.73-2.38 3.73-3.04 5.83-.62 1.99-.93 4.07-.93 6.15s.31 4.17.93 6.16c.66 2.1 1.67 4.1 3.04 5.83.67.85 1.43 1.64 2.27 2.33.81.67 1.69 1.25 2.63 1.72 1.73.87 3.67 1.35 5.61 1.35Z" class="cls-23"/><path d="M348.91 161.99h6.46v.76h-6.46zM348.91 173.4h6.46v.75h-6.46zM362.84 161.99h6.46v.76h-6.46zM362.84 173.4h6.46v.75h-6.46zM442.2 237.72v-51.21h-8.48v52.44M448.25 312.34H275.99v6.34H442.2M147.39 23.35h22.76v10.72h-22.76zM633.03 276.05l18.5 31.16M648.83 307.3l-18.55-31.25M633.03 242.55l18.5 31.16M648.83 273.8l-18.55-31.25M630.28 307.3h21.25v2.25h-21.25zM630.28 240.3h21.25v2.25h-21.25z" class="cls-23"/><path d="M630.28 237.54h21.25v74.78h-21.25z" class="cls-23"/><path d="M630.28 273.8h21.25v2.25h-21.25zM636.65 237.54v-6.38h-55.23v6.38M486.17 276.13l-18.5 31.16M470.37 307.38l18.55-31.25M486.17 242.63l-18.5 31.16M470.37 273.88l18.55-31.25M467.67 307.37h21.25v2.25h-21.25zM467.67 240.38h21.25v2.25h-21.25z" class="cls-23"/><path d="M467.67 237.61h21.25v74.78h-21.25z" class="cls-23"/><path d="M467.67 273.88h21.25v2.25h-21.25zM534.16 276.13l18.49 31.16M549.96 307.38l-18.55-31.25M534.16 242.63l18.49 31.16M549.96 273.88l-18.55-31.25M531.41 307.37h21.25v2.25h-21.25zM531.41 240.38h21.25v2.25h-21.25z" class="cls-23"/><path d="M531.41 237.61h21.25v74.78h-21.25z" class="cls-23"/><path d="M531.41 273.88h21.25v2.25h-21.25zM537.78 237.61v-6.37h-55.24v6.37M183.84 276.05l-18.5 31.16M168.04 307.3l18.55-31.25M183.84 242.55l-18.5 31.16M168.04 273.8l18.55-31.25M165.34 307.3h21.25v2.25h-21.25zM165.34 240.3h21.25v2.25h-21.25z" class="cls-23"/><path d="M165.34 237.54h21.25v74.78h-21.25z" class="cls-23"/><path d="M165.34 273.8h21.25v2.25h-21.25zM231.83 276.05l18.49 31.16M247.63 307.3l-18.55-31.25M231.83 242.55l18.49 31.16M247.63 273.8l-18.55-31.25M229.08 307.3h21.25v2.25h-21.25zM229.08 240.3h21.25v2.25h-21.25z" class="cls-23"/><path d="M229.08 237.54h21.25v74.78h-21.25z" class="cls-23"/><path d="M229.08 273.8h21.25v2.25h-21.25zM235.45 237.54v-6.38h-55.24v6.38M282.68 186.51l76.43-50.41 76.44 50.41" class="cls-23"/><path d="m284.51 186.51 74.6-49.21 74.61 49.21M85.2 276.05l-18.5 31.16M69.4 307.3l18.54-31.25M85.2 242.55l-18.5 31.16M69.4 273.8l18.54-31.25M66.7 307.3h21.25v2.25H66.7zM66.7 240.3h21.25v2.25H66.7z" class="cls-23"/><path d="M66.7 237.54h21.25v74.78H66.7z" class="cls-23"/><path d="M66.7 273.8h21.25v2.25H66.7zM133.18 276.05l18.5 31.16M148.99 307.3l-18.55-31.25M133.18 242.55l18.5 31.16M148.99 273.8l-18.55-31.25M130.44 307.3h21.25v2.25h-21.25zM130.44 240.3h21.25v2.25h-21.25z" class="cls-23"/><path d="M130.44 237.54h21.25v74.78h-21.25z" class="cls-23"/><path d="M130.44 273.8h21.25v2.25h-21.25zM136.81 237.54v-6.38H81.57v6.38M619.32 451.22v-44.3c0-29.44-23.87-53.31-53.31-53.31s-53.31 23.87-53.31 53.31v44.3M606.57 436.32l12.75.09M597.75 381.67l9.97-7.94M604.33 393.12l12-4.32M586.12 371.7l6.33-11.07M525.45 436.32l-12.75.09M534.28 381.67l-9.98-7.94M527.69 393.12l-11.99-4.32M545.9 371.7l-6.32-11.07M559.23 366.93l-2.13-12.56M571.76 366.77l1.81-12.62M561.76 438.62v-72.04M553.26 438.62l.01-70.2M549.02 438.62V370.1M544.77 438.62v-66.25M540.52 438.62v-63.24M527.77 438.62v-45.47M570.26 438.62v-72.04M578.76 438.62v-70.2M583.01 438.62V370.1M587.26 438.62v-66.25M591.51 438.62v-63.24M379.52 438.62v-63.24M375.27 438.62v-66.25M371.02 438.62V370.1M358.28 438.62l-.01-72.04M315.78 438.62v-45.47M328.53 438.62v-63.24M332.78 438.62v-66.25M337.03 438.62V370.1M341.28 438.62v-70.2M349.78 438.62v-72.04M359.78 366.77l1.8-12.62M347.24 366.93l-2.13-12.56M333.91 371.7l-6.32-11.07M315.7 393.12l-11.99-4.32M322.29 381.67l-9.98-7.94M313.46 436.32l-12.74.09M374.14 371.7l6.32-11.07M392.35 393.12l11.99-4.32M385.76 381.67l9.98-7.94M394.59 436.32l12.74.09M407.33 451.22v-44.3c0-29.44-23.87-53.31-53.31-53.31s-53.31 23.87-53.31 53.31v44.3M334.88 240.77c6.81-2.99 13.69-3.23 19.99-3.23v74.78h-21.25c0-23.67 0-47.33-.01-71 .42-.19.85-.37 1.27-.56Z" class="cls-23"/><path d="M335.99 240.3h18.88v2.26h-21.25v-1.24M336.37 276.06l18.5 31.16M352.17 307.31l-18.55-31.25M336.37 242.56l18.5 31.16M352.17 273.81l-18.55-31.25M333.62 307.3h21.25v2.25h-21.25zM333.62 273.81h21.25v2.25h-21.25zM289.87 240.78c-6.81-2.99-13.69-3.23-19.99-3.23v74.78h21.24c0-23.67 0-47.33.01-71-.42-.19-.85-.37-1.27-.56Z" class="cls-23"/><path d="M288.76 240.31h-18.88v2.26h21.25v-1.24M288.38 276.07l-18.49 31.16M272.58 307.32l18.55-31.25M288.38 242.57l-18.49 31.16M272.58 273.82l18.55-31.25M269.88 307.31h21.25v2.25h-21.25zM269.88 273.82h21.25v2.25h-21.25zM340 239v-1.84c-1.69-.74-3.39-1.49-5.08-2.23-3.79-1.66-7.84-2.69-11.94-3.22-3.52-.45-7.07-.54-10.61-.54-1.71 0-3.41.02-5.11.09-1.85.08-3.7.21-5.54.45-4.1.53-8.15 1.56-11.92 3.25-1.68.75-3.35 1.5-5.03 2.25v1.81M383.29 240.76c-6.81-2.99-13.69-3.23-19.99-3.24-.01 24.93-.02 49.86-.04 74.78 7.08 0 14.16 0 21.25.01.02-23.67.03-47.33.05-71-.42-.19-.85-.37-1.27-.56Z" class="cls-23"/><path d="m382.18 240.29-18.88-.01v2.26l21.25.01v-1.24M368.62 237.63v2.65M373.93 238.13v2.16M379.2 309.54v2.77M379.22 284.99l-.02 22.3M373.89 309.54v2.77M373.9 293.94l-.01 13.35M368.58 309.54v2.77M368.58 302.88v4.4M368.6 276.04l-.01 22.22M373.91 276.04l-.01 13.27M379.22 276.05v4.32M379.23 251.49l-.01 22.3M373.92 260.44l-.01 13.35M368.6 269.38v4.41M368.61 242.54l-.01 22.21M373.93 242.54l-.01 13.27M379.24 242.54l-.01 4.32M381.78 276.05l-18.51 31.15M365.97 307.29l18.56-31.24M381.8 242.54l-18.51 31.16M365.98 273.79l18.57-31.24M363.27 307.29h21.25v2.25h-21.25zM363.29 273.79h21.25v2.25h-21.25zM428.3 240.79c6.81-2.99 13.7-3.22 19.99-3.22-.01 24.93-.02 49.86-.04 74.78-7.08 0-14.16 0-21.24-.01 0-23.67.01-47.33.02-71 .42-.19.85-.37 1.27-.56Z" class="cls-23"/><path d="M429.41 240.33h18.88v2.26l-21.25-.01v-1.24M442.98 237.68v2.65M437.66 238.17v2.16M432.35 239.32v1.01M432.32 309.58v2.77M432.33 285.03l-.01 22.3M437.63 309.58v2.77M437.64 293.98l-.01 13.35M442.94 309.58v2.77M442.94 302.93v4.4M442.96 276.09l-.01 22.21M437.65 276.08l-.01 13.27M432.33 276.08v4.32M432.35 251.53l-.01 22.3M437.65 260.48v13.35M442.96 269.43v4.41M442.97 242.59l-.01 22.21M437.66 242.58v13.27M432.35 242.58v4.32M429.77 276.08l18.48 31.17M445.56 307.34l-18.54-31.26M429.79 242.58l18.48 31.17M445.57 273.84l-18.53-31.26M427.01 307.33h21.25v2.25h-21.25zM378.18 238.99v-1.84c1.69-.74 3.39-1.49 5.08-2.23 3.79-1.66 7.84-2.69 11.94-3.22 3.52-.45 7.07-.54 10.61-.54 1.71 0 3.41.02 5.11.09 1.85.08 3.7.21 5.54.45 4.1.53 8.14 1.57 11.92 3.25 1.68.75 3.35 1.5 5.03 2.25v1.81M129.19 120.8l-22.06-13.29M107.13 123.94H85.07v-3.14h44.12v3.14zM427.02 273.83h21.25v2.25h-21.25zM643.23 129.46l-14.98 31.16M630.43 160.71l15.03-31.25M628.25 127.21h17.21v2.25h-17.21zM628.25 160.71h17.21v2.25h-17.21z" class="cls-23"/><path d="M628.25 123.94h17.21v42.13h-17.21zM578.85 129.46l14.99 31.16M591.65 160.71l-15.02-31.25M576.63 127.21h17.21v2.25h-17.21zM576.63 160.71h17.21v2.25h-17.21z" class="cls-23"/><path d="M576.63 123.94h17.21v42.13h-17.21zM542.39 129.46l-14.98 31.16M529.59 160.71l15.03-31.25M527.41 127.21h17.21v2.25h-17.21zM527.41 160.71h17.21v2.25h-17.21z" class="cls-23"/><path d="M527.41 123.94h17.21v42.13h-17.21zM478.02 129.46 493 160.62M490.82 160.71l-15.03-31.25M475.79 127.21H493v2.25h-17.21zM475.79 160.71H493v2.25h-17.21z" class="cls-23"/><path d="M475.79 123.94H493v42.13h-17.21zM139.32 129.48l-14.98 31.17M126.52 160.73l15.02-31.25M124.33 127.23h17.21v2.25h-17.21zM124.33 160.73h17.21v2.25h-17.21z" class="cls-23"/><path d="M124.33 123.96h17.21v42.13h-17.21zM74.94 129.48l14.98 31.17M87.74 160.73l-15.02-31.25M72.72 127.23h17.21v2.25H72.72zM72.72 160.73h17.21v2.25H72.72z" class="cls-23"/><path d="M72.72 123.96h17.21v42.13H72.72zM240.02 129.46l-14.98 31.16M227.22 160.71l15.03-31.25M225.04 127.21h17.21v2.25h-17.21zM225.04 160.71h17.21v2.25h-17.21z" class="cls-23"/><path d="M225.04 123.94h17.21v42.13h-17.21zM175.64 129.46l14.99 31.16M188.44 160.71l-15.02-31.25M173.42 127.21h17.21v2.25h-17.21zM173.42 160.71h17.21v2.25h-17.21z" class="cls-23"/><path d="M173.42 123.94h17.21v42.13h-17.21zM289.85 240.76c-6.81-2.99-13.69-3.23-19.99-3.24-.01 24.93-.02 49.86-.04 74.78 7.08 0 14.16 0 21.24.01.02-23.67.03-47.33.05-71-.42-.19-.85-.37-1.27-.56Z" class="cls-23"/><path d="m288.74 240.29-18.88-.01v2.26l21.24.01v-1.24M275.17 237.63v2.65M280.48 238.13v2.16M285.76 309.54v2.77M285.77 284.99l-.01 22.3M280.44 309.54v2.77M280.45 293.94v13.35M275.13 309.54v2.77M275.14 302.88l-.01 4.4M275.15 276.04l-.01 22.22M280.46 276.04v13.27M285.77 276.05v4.32M285.79 251.49l-.02 22.3M280.47 260.44l-.01 13.35M275.15 269.38v4.41M275.17 242.54l-.01 22.21M280.48 242.54l-.01 13.27M285.79 242.54v4.32M288.34 276.05l-18.52 31.15M272.52 307.29l18.56-31.24M288.35 242.54l-18.51 31.16M272.54 273.79l18.56-31.24M269.82 307.29h21.25v2.25h-21.25zM269.84 273.79h21.25v2.25h-21.25zM334.85 240.79c6.81-2.99 13.7-3.22 19.99-3.22-.01 24.93-.02 49.86-.04 74.78-7.08 0-14.16 0-21.24-.01 0-23.67.01-47.33.02-71 .42-.19.85-.37 1.27-.56Z" class="cls-23"/><path d="M335.96 240.33h18.88v2.26l-21.25-.01v-1.24M349.53 237.68v2.65M344.22 238.17v2.16M338.91 239.32v1.01M338.87 309.58v2.77M338.88 285.03l-.01 22.3M344.18 309.58v2.77M344.19 293.98l-.01 13.35M349.49 309.58v2.77M349.5 302.93l-.01 4.4M349.51 276.09l-.01 22.21M344.2 276.08l-.01 13.27M338.89 276.08l-.01 4.32M338.9 251.53l-.01 22.3M344.21 260.48l-.01 13.35M349.51 269.43v4.41M349.53 242.59l-.01 22.21M344.22 242.58l-.01 13.27M338.9 242.58v4.32M336.32 276.08l18.48 31.17M352.11 307.34l-18.53-31.26M336.34 242.58l18.48 31.17M352.13 273.84l-18.54-31.26M333.56 307.33h21.25v2.25h-21.25zM333.58 273.83h21.25v2.25h-21.25zM284.73 238.99v-1.84c1.69-.74 3.39-1.49 5.08-2.23 3.79-1.66 7.84-2.69 11.94-3.22 3.52-.45 7.07-.54 10.61-.54 1.71 0 3.41.02 5.11.09 1.85.08 3.7.21 5.54.45 4.1.53 8.14 1.57 11.92 3.25 1.68.75 3.35 1.5 5.03 2.25v1.81M585.04 276.05l-18.49 31.16M569.24 307.3l18.55-31.25M585.04 242.55l-18.49 31.16M569.24 273.8l18.55-31.25M566.54 307.3h21.25v2.25h-21.25zM566.54 240.3h21.25v2.25h-21.25z" class="cls-23"/><path d="M566.54 237.54h21.25v74.78h-21.25z" class="cls-23"/><path d="M566.54 273.8h21.25v2.25h-21.25zM229.89 120.8l-22.06-13.29M185.78 120.8l22.05-13.29M207.83 123.94h-22.05v-3.14h44.11v3.14zM532.26 120.77l-22.06-13.28M488.15 120.77l22.05-13.28M510.2 123.91h-22.05v-3.14h44.11v3.14zM633.1 120.77l-22.06-13.28M588.99 120.77l22.05-13.28M611.04 123.91h-22.05v-3.14h44.11v3.14zM284.46 238.93v-52.42h-8.48v51.19M359.11 185.46c1.94 0 3.87-.48 5.61-1.35.94-.47 1.82-1.05 2.63-1.72.84-.69 1.6-1.48 2.27-2.33 1.37-1.73 2.38-3.73 3.04-5.83.62-1.99.93-4.07.93-6.16s-.31-4.17-.93-6.16c-.66-2.1-1.67-4.1-3.04-5.83-.67-.85-1.44-1.64-2.27-2.33-.81-.67-1.69-1.25-2.63-1.72-1.73-.87-3.67-1.35-5.61-1.35s-3.88.48-5.61 1.35c-.94.47-1.82 1.05-2.63 1.72-.84.69-1.6 1.48-2.27 2.33-1.37 1.73-2.38 3.73-3.04 5.83-.62 1.99-.93 4.07-.93 6.15s.31 4.17.93 6.16c.66 2.1 1.67 4.1 3.04 5.83.67.85 1.43 1.64 2.27 2.33.81.67 1.69 1.25 2.63 1.72 1.73.87 3.67 1.35 5.61 1.35Z" class="cls-23"/><path d="M348.91 161.99h6.46v.76h-6.46zM348.91 173.4h6.46v.75h-6.46zM362.84 161.99h6.46v.76h-6.46zM362.84 173.4h6.46v.75h-6.46zM442.2 237.72v-51.21h-8.48v52.44M448.25 312.34H275.99v6.34H442.2M85.07 120.8l22.06-13.29 22.06 13.29zM185.78 120.8l22.05-13.29 22.06 13.29zM488.15 120.77l22.05-13.28 22.06 13.28zM588.99 120.77l22.05-13.28 22.06 13.28z" class="cls-23"/><path d="M81.57 318.69h55.24v.65H81.57zM87.94 237.42h42.49v2.88H87.94zM151.69 312.32v-74.75h1.17v74.75z" class="cls-11"/><path d="M109.19 310.18v-72.61h1.17v72.61zM207.99 310.19v-72.61h1.17v72.61zM312.82 310.18v-72.61h1.17v72.61zM406.27 310.18v-72.61h1.17v72.61zM510.64 310.18v-72.61h1.17v72.61zM609.75 310.19v-72.61h1.17v72.61zM127.75 312.32v-74.75h2.68v74.75zM180.18 318.69h55.24v.65h-55.24z" class="cls-11"/><path d="M186.56 237.42h42.49v2.88h-42.49zM250.3 312.31v-74.75h1.17v74.75z" class="cls-11"/><path d="M226.36 312.32v-74.75h2.68v74.75zM354.87 312.34v-74.75h1.17v74.75zM448.29 312.38v-74.75h1.17v74.75zM482.55 318.6h55.24v.65h-55.24zM488.92 237.33h42.49v2.88h-42.49zM552.66 312.23v-74.75h1.17v74.75z" class="cls-11"/><path d="M528.72 312.23v-74.75h2.68v74.75zM581.42 318.6h55.24v.65h-55.24zM587.79 237.33h42.49v2.88h-42.49zM651.53 312.23v-74.75h1.17v74.75z" class="cls-11"/><path d="M627.59 312.23v-74.75h2.68v74.75zM275.99 318.68h166.2v.65h-166.2zM330.88 312.33v-70.87h2.68v70.87zM424.32 312.32v-70.87H427v70.87zM81.52 231.41l27.62-3.79 27.62 3.79v-.46l-27.62-3.79-27.62 3.79zM180.18 231.41l27.62-3.79 27.62 3.79v-.46l-27.62-3.79-27.62 3.79zM284.72 231.41l27.62-3.79 27.62 3.79v-.46l-27.62-3.79-27.62 3.79zM378.15 231.39l27.62-3.79 27.62 3.79v-.46l-27.62-3.79-27.62 3.79zM482.54 231.55l27.62-3.79 27.62 3.79v-.46l-27.62-3.79-27.62 3.79zM581.42 231.39l27.62-3.79 27.61 3.79v-.46l-27.61-3.79-27.62 3.79zM89.99 123.94h34.35v2.88H89.99zM121.72 166.09v-39.27h2.68v39.27zM190.63 123.92h34.35v2.88h-34.35zM222.36 166.08v-39.27h2.68v39.27zM493 123.9h34.35v2.88H493zM524.72 166.05v-39.27h2.68v39.27zM593.84 124.01h34.35v2.88h-34.35z" class="cls-11"/><path d="M625.56 166.16v-39.27h2.68v39.27zM323.77 355.78l30.27-5.05 30.26 5.05v-.62l-30.26-5.04-30.27 5.04zM535.75 355.69l30.26-5.05 30.27 5.05v-.61l-30.27-5.05-30.26 5.05zM23.69 196.08h252.29v2.88H23.69zM441.9 196.08h252.29v2.88H441.9zM285.1 196.08h148.62v2.88H285.1z" class="cls-11"/><path d="m284.51 187.4 74.5-48.9 74.3 48.77 1.8-.02-76.1-49.95-76.12 49.97z" class="cls-25"/><path d="M354.03 452.19v-85.78h1.17v85.78zM566.02 452.71v-85.78h1.17v85.78zM89.92 166.09h34.41v.65H89.92zM142.19 123.93v42.38h-.65v-42.38zM190.63 166.09h34.41v.65h-34.41zM242.9 123.93v42.38h-.65v-42.38zM492.94 166.09h34.41v.65h-34.41zM545.21 123.92v42.38h-.65v-42.38zM593.88 166.09h34.41v.65h-34.41zM646.16 123.92v42.38h-.65v-42.38zM186.59 59.24v51.2h-11.88V64.22zM588.61 83.12v103.8h-13.12V77.78z" class="cls-11"/><path d="M394.58 406.92c0-22.4-18.16-40.56-40.56-40.56-13.54 0-25.52 6.64-32.89 16.84 7.44-8.53 18.37-13.92 30.57-13.92 22.4 0 40.56 18.16 40.56 40.56v41.39h2.32v-44.3ZM606.57 407.14c0-22.4-18.16-40.56-40.56-40.56-13.54 0-25.52 6.64-32.89 16.84 7.44-8.53 18.37-13.92 30.57-13.92 22.4 0 40.56 18.16 40.56 40.56v41.39h2.32v-44.3Z" class="cls-11"/><path d="M359.11 155.56c3.44 0 6.3 1.97 8.19 4.64 1.75 2.49 2.64 5.55 2.76 8.55 0-.23.02-.45.02-.68 0-3.23-.9-6.56-2.78-9.24-1.89-2.68-4.75-4.64-8.19-4.64s-6.3 1.97-8.19 4.64c-1.89 2.68-2.78 6.01-2.78 9.24 0 .23.01.45.02.68.12-3.01 1-6.07 2.76-8.55 1.89-2.68 4.75-4.64 8.19-4.64" class="cls-25"/><path d="M292.37 243.5c6.81-2.99 13.7-3.22 19.99-3.22 6.33 0 13.26.24 19.97 3.24.42.19.84.37 1.26.56v-2.75c-.42-.19-.84-.37-1.26-.56-6.71-3-13.64-3.24-19.97-3.24-6.29 0-13.18.23-19.99 3.22-.42.19-.85.37-1.27.56 0 23.67-.01 47.33-.02 71 0-22.75.01-45.5.02-68.25.42-.19.85-.37 1.27-.56M385.81 243.5c6.81-2.99 13.7-3.22 19.99-3.22 6.33 0 13.26.24 19.97 3.24.42.19.84.37 1.26.56v-2.75c-.42-.19-.84-.37-1.26-.56-6.71-3-13.64-3.24-19.97-3.24-6.29 0-13.18.23-19.99 3.22-.42.19-.85.37-1.27.56 0 23.67-.01 47.33-.02 71 0-22.75.01-45.5.02-68.25.42-.19.85-.37 1.27-.56M433.7 195.81v42.96l-2.69.89v-43.85zM276.54 195.81v42.96l-2.69.89v-43.85zM359.11 129.42l82.32 54.54.69 2.61L359 131.58z" class="cls-11"/><path d="m359.11 129.42-82.43 54.54-.7 2.61 83.12-54.99z" class="cls-11"/><path d="M22.39 429.65h671.1v27.48l-671.1 5.1z" style="stroke-width:0;fill:url(#Dégradé_sans_nom_12);opacity:.2"/><path d="m43.74 166.15 263.24-.09-31 20.45-246.28-.95z" style="stroke-width:0;opacity:.2;fill:url(#Dégradé_sans_nom_12-2)"/><path d="m547.65 166.11-136.33-.05 31 20.45 105.02-.4z" style="stroke-width:0;opacity:.2;fill:url(#Dégradé_sans_nom_12-3)"/><path d="m675.08 166.1-100.01-.04.8 20.45 112.73.14z" style="stroke-width:0;opacity:.2;fill:url(#Dégradé_sans_nom_12-4)"/><path d="m547.34 77.91-372.75-.09.12 31.66 372.94 1.09z" style="stroke-width:0;opacity:.2;fill:url(#Dégradé_sans_nom_12-5)"/><path d="m142.21 77.91-78.15 32.68 78.37-.02z" style="stroke-width:0;opacity:.2;fill:url(#Dégradé_sans_nom_12-6)"/><path d="m576.06 77.84 78.14 32.69-78.37-.03z" style="stroke-width:0;opacity:.2;fill:url(#Dégradé_sans_nom_12-7)"/><g class="cls-31" style="clip-path:url(#clippath)"><path d="M494.39 461.06c1.76-2.23-1.46-3-1.86-4.6 1.16-.11 2.42 0 3.46-.37 2.02-.72 2.66-3.59.98-3.96-5.48-1.23-3.38-3.99-2.24-6.71.7-1.69.91-3.36-1.97-3.78-.02-1.32-.18-2.64 1.27-4.3-2.48.79-4.04 1.56-4.03 3.11 0 1.22 1.61 1.14 2.76 1.18.18 3-2.2 3.71-5.01 4.02-.98.11-2.31-.26-2.66.9-.39 1.28-.42 3.17-2.48 2.67-1.76-.42-.6-2.34-.88-3.56-.09-.41-.09-.84-.15-1.42-.64.89-1.01 1.76-1.72 2.29-.8.6.1 3.01-2.09 1.86-1.53-.8-4.25-1.97-2.45-4.14 1.37-1.64-.05-3.22.65-4.8.43-.96-.95-1.37-1.81-1.05-2.84 1.03-6.49.88-7.83 4.11-1.31-1.44-1.34-2.74-.81-4.07.7-1.75-.91-2.48-2.15-3.13-1.59-.83-1.96.34-2.24 1.38-.18.66-.8.84-1.49.84-.56 0-1.15-.23-1.01-.74.21-.76 1.5-1.72-.64-1.76-.57 0-1.37.29-1.67.67-.74.93-.07 1.82.81 2.28 3.51 1.82 1.58 3.45-.73 5.66 1.99-.71 2.6.3 3.53.82-.32 1.43-3.62 1.76-2.02 3.96.12.17-.32.78-1.27.67-2.91-.31-5.39.56-7.23 2.58-2.33.62-4.66 1.23-3.88 4.02-.86.36-1.62.82-1.48 1.74.18 1.12 1.33.71 2.13.93 3.02.85 5.47-.57 8.08-1.33.35-.07.7-.15 1.04-.22 3.11-.38 2.32-3.86 5.02-4.57.32.04.64.08.96.11-.52 1.72 1.24 3.99-1.18 5.19-4.23 2.11-6.2 4.8-4.3 8.94 2.51 1.82 6.43 2.16 7.6 5.45.17.47.81-.42 1.02-.86h.71c5.54 1.89 7.63 1.15 8.49-3.23.27 1.01 3.09-1.17 2.2 1.28.41 1.76-.05 3.02-3 2.93 1.56 1.68 2.84.75 4.1.58 2.29-.32 4.88-.38 5.42 2 .53 2.33-1.88 2.96-4.06 3.04-2.29.08-3.79 1.35-5.62 2.16-1.14.51-2.51 1.31-3.59 1.14-4.76-.75-4.06 1.94-3.69 4.14.98 5.82.84 11.65.4 17.48-.29 0-.59 0-.88.01-.22-6.88-.61-13.77-.58-20.65 0-2.2-1.3-3.31-3.01-4.29-1.75-1-3.67-.6-3.84 1.24-.32 3.68-3.08 4.24-6.47 4.33-1.05.03-2.1.08-3.14-.02-2.48-.24-5.26-.36-6.27-2.71-1.05-2.44 1.69-3.41 3.26-4.78.73-.48.56-.91-.13-1.29-.06-2.95 1.61-5.04 4.48-6.53.72-.37 2.14-.48 1.46-1.5-.74-1.11-1.73-.32-2.59.22-3.15 1.98-6.39 3.64-10.19 1.07-1.21-.82-1.89-.07-2.64.54-1.02.83-.31 1.3.52 1.8.97.58 1.83 1.27 1.9 2.38-1.18.48-.57 1.63-1.2 2.32-3.74 1.46-10.79.52-13.57-1.83-.36-.31-.97-.86-.86-1.05 2.42-4.22-4.41-7.43-1.71-11.65.59-.92-.22-.99-.99-1.28-5.73-2.16-7.73-5.83-5.76-10.41 1.65-3.84 8.72-6.74 13.47-5.23 2.05.65 3.77.91 5.95.45 2.1-.44 4.45-.49 6.41.82.55.37 1.06 1.29 1.89.6.93-.78.04-1.5-.64-1.95-3.55-2.34-4.49-5.58-4.53-9.15-.07-5.78 4.04-9.34 9.44-11.75 5.44-2.42 11.31-2.49 16.27.95 2.54 1.76 3.46 1.37 4.82-.76 2.38-3.75 5.56-6.51 10.97-7.3 7.99-1.17 16.59 5.43 15.18 12.28-.47 2.27 1.76 3.45 1.9 5.21.23 2.85 2.62 2.15 4.51 2.45 8.7 1.4 10.88 6.02 5.78 12.25-1.08 1.32-2.7 2.28-1.45 4.37 1.14 1.9 2.83 1.18 4.38 1.29 4.95.35 7.11 2.89 5.51 6.9-1.76 4.42-5.01 7.77-10.41 9.34-3.76 1.09-7.31-.34-8.63-3.55 3.18-1.04 3.17-1.67-.03-4.67Zm-47.28 12.75c-.1-.21-.23-.49-.37-.76-.13.15-.36.29-.37.45-.02.29-.02.76.17.86.48.24.42-.23.57-.54Z" class="cls-24"/><path d="M492.75 441.63c2.88.42 2.67 2.1 1.97 3.78-1.13 2.72-3.23 5.47 2.24 6.71 1.68.38 1.04 3.25-.98 3.96-1.03.37-2.3.26-3.46.37-2.05-2.12-4.57-1.48-7.08-.86-.6.02-1.2.04-1.8.05l-.46-.58c1.51-.62 2.13-1.61 1.32-2.91-.41-.67-1.51-1.28-2.23-.73-1.07.82-.6 1.99-.07 3.02.1.2.21.39.32.59-4.33-.27-7.37-1.9-8.44-5.69-.14-.52-.42-1.35-.8-1.42-4.55-.9-8.59-3.23-13.37-3.47-.93-.52-1.54-1.53-3.53-.82 2.3-2.2 4.24-3.83.73-5.66-.88-.46-1.55-1.35-.81-2.28.3-.38 1.1-.68 1.67-.67 2.14.03.85 1 .64 1.76-.14.51.45.74 1.01.74.69 0 1.31-.18 1.49-.84.28-1.04.65-2.21 2.24-1.38 1.24.65 2.85 1.38 2.15 3.13-.53 1.33-.5 2.63.81 4.07 1.34-3.23 4.99-3.08 7.83-4.11.87-.32 2.25.09 1.81 1.05-.71 1.58.72 3.16-.65 4.8-1.81 2.16.92 3.33 2.45 4.14 2.19 1.15 1.29-1.26 2.09-1.86.71-.54 1.08-1.41 1.72-2.29.06.58.06 1.01.15 1.42.28 1.23-.88 3.14.88 3.56 2.06.5 2.09-1.39 2.48-2.67.35-1.16 1.68-.79 2.66-.9 2.81-.31 5.18-1.02 5.01-4.02Zm1.38 12.07-.17-.26c-.07.07-.2.15-.21.22 0 .08.1.17.15.26l.22-.22ZM455.8 466.5c-1.9-4.14.06-6.84 4.3-8.94 2.42-1.2.67-3.47 1.18-5.19 1-.02 2.12.35 2.27 1.04 1.1 4.84 7.5 5.15 10.16 8.68.52.69 2.54 1.39 3.51.42 1.62-1.62 4.59-2.21 4.75-4.73 2.38 1.92 2.01 4.56 3.06 6.78-.02.33-.13.68-.05 1 1.03 4.16-.43 5.39-5.45 4.49-1.26-.22-2.48-.59-3.72-.9.89-2.45-1.93-.28-2.2-1.28-1.56-.87-2.22-2.73-4.71-2.61-5.08.25-3.52 3.44-3.79 5.84h-.71c-.04-1.11-.02-2.22-.12-3.32-.1-1.03.31-2.27-1.55-2.66-1.61-.34-3.11-1.2-4.62.28-.55.54-1.54.75-2.33 1.11Z" class="cls-14"/><path d="M485.04 464.54c-1.05-2.22-.67-4.86-3.06-6.78-.16 2.52-3.14 3.11-4.75 4.73-.97.97-2.99.27-3.51-.42-2.66-3.53-9.07-3.83-10.16-8.68-.16-.69-1.27-1.06-2.27-1.04-.32-.04-.64-.08-.96-.11 2.57-1.94 5.73-1.81 8.5-.98 5.38 1.63 6.57 5.65 6.42 10.35.92-4.38 5-4.84 8.41-5.98.6-.02 1.2-.03 1.8-.05.11.79.62 1.38 1.17 2.01 2.54 2.85 2.03 4.98-1.59 6.94ZM451.03 454.35c-2.53-1.62-3.5 1.41-5.52 1.34-.78-2.79 1.56-3.4 3.88-4.02.54.89 1.09 1.79 1.63 2.68ZM454.25 457.04c-.82-.68-1.64-1.35-2.46-2.03 1.86-.37 3.47-.38 3.5 1.81-.35.07-.69.14-1.04.22M455.39 452.66c.08.08.23.17.22.22-.06.17-.17.32-.27.47-.08-.07-.24-.15-.23-.2.06-.17.17-.32.28-.49" class="cls-10"/><path d="m451.82 455.03-.8-.68c.53 0 .82.21.8.68" class="cls-10"/></g><g class="cls-31" style="clip-path:url(#clippath-1)"><path d="M266.6 445.66c1.46-1.86-1.22-2.5-1.55-3.84.97-.09 2.02 0 2.88-.31 1.69-.6 2.22-2.99.82-3.31-4.57-1.03-2.82-3.32-1.87-5.59.58-1.41.76-2.8-1.64-3.16-.01-1.1-.15-2.21 1.06-3.58-2.07.66-3.37 1.3-3.36 2.6 0 1.02 1.34.95 2.3.98.15 2.5-1.83 3.09-4.18 3.35-.82.09-1.93-.22-2.22.75-.32 1.07-.35 2.64-2.07 2.23-1.47-.35-.5-1.95-.73-2.97-.08-.34-.08-.7-.13-1.18-.53.74-.84 1.46-1.44 1.91-.67.5.08 2.51-1.75 1.55-1.27-.67-3.54-1.65-2.04-3.45 1.14-1.37-.04-2.68.55-4 .36-.8-.79-1.14-1.51-.88-2.36.86-5.41.74-6.53 3.43-1.09-1.2-1.12-2.28-.68-3.39.58-1.46-.76-2.07-1.79-2.61-1.32-.69-1.63.28-1.87 1.15-.15.55-.67.7-1.25.7-.47 0-.96-.19-.84-.62.18-.63 1.25-1.44-.53-1.46-.47 0-1.14.24-1.39.56-.62.77-.06 1.52.68 1.9 2.93 1.52 1.31 2.88-.61 4.72 1.66-.59 2.17.25 2.94.69-.27 1.19-3.02 1.47-1.69 3.31.1.14-.26.65-1.06.56-2.43-.26-4.5.47-6.03 2.15-1.94.51-3.89 1.03-3.24 3.35-.72.3-1.35.69-1.23 1.45.15.93 1.11.59 1.78.78 2.52.71 4.56-.47 6.74-1.11l.87-.18c2.59-.32 1.94-3.22 4.19-3.81.27.03.53.06.8.1-.43 1.44 1.03 3.33-.99 4.33-3.53 1.76-5.17 4-3.58 7.46 2.09 1.51 5.36 1.8 6.33 4.55.14.39.67-.35.85-.72h.59c4.62 1.58 6.36.96 7.08-2.69.23.84 2.58-.97 1.84 1.07.34 1.46-.04 2.52-2.5 2.44 1.3 1.4 2.37.63 3.42.48 1.91-.27 4.07-.32 4.52 1.67.44 1.94-1.56 2.47-3.38 2.53-1.91.07-3.16 1.13-4.69 1.8-.95.42-2.09 1.09-2.99.95-3.97-.63-3.39 1.62-3.08 3.45.82 4.86.7 9.71.34 14.58-.24 0-.49 0-.74.01-.19-5.74-.51-11.48-.49-17.22 0-1.83-1.08-2.76-2.51-3.58-1.46-.84-3.06-.5-3.2 1.03-.27 3.07-2.57 3.54-5.39 3.61-.87.02-1.75.07-2.62-.01-2.07-.2-4.39-.3-5.23-2.26-.87-2.03 1.41-2.85 2.72-3.98.61-.4.47-.76-.11-1.08-.05-2.46 1.35-4.2 3.73-5.44.6-.31 1.79-.4 1.22-1.25-.62-.92-1.44-.27-2.16.18-2.63 1.65-5.33 3.03-8.5.89-1.01-.68-1.58-.05-2.2.45-.85.69-.26 1.09.43 1.5.81.48 1.53 1.06 1.58 1.99-.98.4-.47 1.36-1 1.94-3.12 1.22-9 .43-11.32-1.53-.3-.26-.81-.72-.71-.88 2.02-3.52-3.67-6.2-1.43-9.72.49-.77-.19-.82-.83-1.07-4.78-1.8-6.44-4.86-4.8-8.68 1.38-3.2 7.27-5.62 11.24-4.36 1.71.55 3.15.76 4.96.37 1.75-.37 3.71-.41 5.34.68.46.31.88 1.08 1.57.5.77-.65.03-1.25-.53-1.63-2.96-1.95-3.74-4.65-3.78-7.63-.06-4.82 3.37-7.79 7.87-9.8 4.53-2.02 9.43-2.07 13.57.79 2.11 1.46 2.89 1.15 4.02-.64 1.99-3.12 4.64-5.43 9.15-6.09 6.66-.97 13.83 4.53 12.66 10.24-.39 1.89 1.47 2.88 1.59 4.35.19 2.38 2.18 1.79 3.76 2.05 7.26 1.17 9.07 5.02 4.82 10.22-.9 1.1-2.25 1.9-1.21 3.64.95 1.59 2.36.98 3.65 1.07 4.13.29 5.93 2.41 4.6 5.75-1.47 3.69-4.17 6.48-8.68 7.79-3.13.91-6.1-.29-7.2-2.96 2.65-.87 2.65-1.39-.02-3.9Zm-39.43 10.64c-.09-.18-.19-.41-.3-.64-.11.12-.3.24-.31.37-.02.24-.02.64.14.71.4.2.35-.19.47-.45Z" class="cls-24"/><path d="M265.24 429.46c2.4.35 2.23 1.75 1.64 3.16-.94 2.27-2.7 4.57 1.87 5.59 1.4.32.87 2.71-.82 3.31-.86.31-1.91.22-2.88.31-1.71-1.77-3.81-1.23-5.9-.72-.5.01-1 .03-1.5.04-.13-.16-.26-.32-.39-.49 1.26-.52 1.78-1.34 1.1-2.43-.35-.56-1.26-1.07-1.86-.61-.89.68-.5 1.66-.06 2.52.09.17.18.33.27.49-3.61-.23-6.15-1.58-7.04-4.74-.12-.43-.35-1.12-.67-1.18-3.8-.75-7.16-2.7-11.15-2.9-.77-.43-1.29-1.28-2.94-.69 1.92-1.84 3.54-3.2.61-4.72-.74-.38-1.29-1.13-.68-1.9.25-.32.92-.57 1.39-.56 1.79.03.71.83.53 1.46-.12.42.37.62.84.62.58 0 1.1-.15 1.25-.7.24-.87.55-1.84 1.87-1.15 1.04.54 2.37 1.15 1.79 2.61-.44 1.11-.41 2.19.68 3.39 1.12-2.69 4.17-2.57 6.53-3.43.72-.26 1.87.07 1.51.88-.59 1.32.6 2.63-.55 4-1.51 1.8.77 2.78 2.04 3.45 1.83.96 1.08-1.05 1.75-1.55.6-.45.9-1.17 1.44-1.91.05.49.05.84.13 1.18.23 1.02-.73 2.62.73 2.97 1.72.41 1.74-1.16 2.07-2.23.29-.97 1.4-.66 2.22-.75 2.35-.26 4.32-.85 4.18-3.35Zm1.15 10.07c-.05-.07-.09-.14-.14-.22-.06.06-.16.12-.17.19 0 .07.08.14.13.21.06-.06.12-.12.18-.19ZM234.42 450.2c-1.58-3.45.05-5.7 3.58-7.46 2.02-1 .55-2.89.99-4.33.83-.02 1.77.29 1.9.86.92 4.04 6.26 4.29 8.48 7.23.43.57 2.12 1.16 2.93.35 1.35-1.35 3.83-1.85 3.96-3.95 1.99 1.6 1.68 3.8 2.55 5.65-.02.28-.11.57-.05.83.86 3.47-.36 4.49-4.54 3.75-1.05-.19-2.07-.5-3.1-.75.74-2.04-1.61-.23-1.83-1.07-1.3-.73-1.86-2.28-3.92-2.18-4.23.21-2.93 2.87-3.16 4.87h-.59c-.03-.92-.01-1.85-.1-2.77-.08-.86.26-1.89-1.29-2.22-1.34-.28-2.59-1-3.85.24-.46.45-1.28.63-1.94.93Z" class="cls-14"/><path d="M258.8 448.57c-.87-1.85-.56-4.05-2.55-5.65-.13 2.1-2.61 2.59-3.96 3.95-.81.81-2.49.22-2.93-.35-2.22-2.94-7.56-3.2-8.48-7.23-.13-.58-1.06-.88-1.9-.86l-.8-.09c2.15-1.62 4.78-1.51 7.09-.81 4.49 1.36 5.48 4.71 5.35 8.63.77-3.65 4.17-4.04 7.02-4.99.5-.01 1-.03 1.5-.04.09.66.51 1.15.98 1.67 2.12 2.38 1.69 4.15-1.32 5.79ZM225.19 456.82c.58.32.72.67.11 1.08-2-.37-3.9-1.56-6 .15-.88.72-1.18-.22-1-.96.53-.58.02-1.54 1.01-1.94 1.96.56 3.92 1.12 5.89 1.68ZM230.44 440.07c-2.11-1.35-2.92 1.18-4.6 1.11-.65-2.32 1.3-2.84 3.24-3.35.45.75.91 1.49 1.36 2.24M233.13 442.31c-.68-.56-1.36-1.13-2.05-1.69 1.55-.31 2.89-.32 2.92 1.51zM227.17 456.3c-.13.26-.07.65-.47.45-.16-.08-.16-.47-.14-.71 0-.13.2-.25.31-.37.11.23.22.46.3.64ZM234.08 438.66c.07.06.2.14.18.18-.05.14-.15.26-.22.39-.07-.06-.2-.13-.19-.16.05-.14.15-.26.23-.41" class="cls-10"/><path d="M231.1 440.63c-.22-.19-.45-.38-.67-.57.44 0 .69.18.67.57" class="cls-10"/></g><g class="cls-31" style="clip-path:url(#clippath-2)"><path d="M103.57 455.56c1.73-2.19-1.44-2.96-1.83-4.53 1.14-.11 2.38 0 3.4-.37 1.99-.71 2.62-3.53.97-3.9-5.39-1.22-3.32-3.92-2.21-6.6.69-1.66.9-3.31-1.94-3.72-.02-1.29-.18-2.6 1.25-4.23-2.44.77-3.98 1.54-3.97 3.06 0 1.2 1.58 1.13 2.72 1.16.17 2.96-2.16 3.65-4.93 3.96-.97.11-2.27-.26-2.62.89-.38 1.26-.41 3.12-2.44 2.63-1.73-.41-.59-2.3-.87-3.51-.09-.4-.09-.82-.15-1.4-.63.87-.99 1.73-1.7 2.25-.79.59.09 2.96-2.06 1.83-1.5-.79-4.18-1.94-2.41-4.07 1.35-1.62-.05-3.17.64-4.72.43-.95-.93-1.34-1.79-1.03-2.79 1.02-6.38.87-7.71 4.05-1.29-1.42-1.32-2.69-.8-4.01.68-1.72-.89-2.45-2.12-3.08-1.56-.82-1.93.33-2.21 1.36-.18.65-.79.82-1.47.83-.55 0-1.14-.23-1-.73.21-.75 1.48-1.69-.63-1.73-.56 0-1.34.29-1.64.66-.73.91-.07 1.79.8 2.25 3.46 1.79 1.55 3.4-.71 5.57 1.96-.7 2.56.3 3.47.81-.32 1.41-3.56 1.73-1.99 3.9.12.16-.31.76-1.25.66-2.86-.31-5.31.55-7.12 2.54-2.29.61-4.59 1.21-3.82 3.95-.85.35-1.6.81-1.45 1.72.18 1.1 1.31.7 2.1.92 2.97.84 5.38-.56 7.96-1.31l1.03-.21c3.06-.38 2.29-3.8 4.94-4.5.31.04.63.07.94.11-.51 1.7 1.22 3.93-1.16 5.11-4.17 2.07-6.1 4.72-4.23 8.8 2.47 1.79 6.33 2.12 7.48 5.37.16.46.79-.41 1.01-.85h.7c5.46 1.86 7.51 1.13 8.36-3.18.27.99 3.04-1.15 2.17 1.26.4 1.73-.05 2.97-2.95 2.88 1.53 1.66 2.8.74 4.04.57 2.25-.32 4.8-.38 5.33 1.97.52 2.29-1.85 2.92-3.99 2.99-2.26.08-3.73 1.33-5.53 2.12-1.12.5-2.47 1.29-3.53 1.12-4.68-.74-4 1.91-3.64 4.07.97 5.73.83 11.46.4 17.21-.29 0-.58 0-.87.01-.22-6.78-.6-13.55-.57-20.33 0-2.16-1.28-3.26-2.96-4.23-1.72-.99-3.62-.59-3.78 1.22-.32 3.62-3.03 4.17-6.37 4.26-1.03.03-2.07.08-3.09-.02-2.44-.24-5.18-.36-6.17-2.66-1.03-2.4 1.66-3.36 3.21-4.7.72-.48.55-.89-.13-1.27-.06-2.9 1.59-4.96 4.41-6.43.71-.37 2.11-.48 1.44-1.47-.73-1.09-1.7-.32-2.55.21-3.1 1.95-6.29 3.58-10.03 1.05-1.19-.8-1.86-.06-2.59.53-1 .82-.31 1.28.51 1.77.96.57 1.8 1.25 1.87 2.35-1.16.47-.56 1.61-1.18 2.28-3.68 1.43-10.62.51-13.36-1.8-.36-.3-.95-.85-.84-1.04 2.38-4.15-4.34-7.32-1.69-11.47.58-.91-.22-.97-.98-1.26-5.64-2.12-7.61-5.73-5.67-10.25 1.62-3.78 8.58-6.63 13.26-5.14 2.02.64 3.71.9 5.85.44 2.06-.44 4.38-.49 6.31.8.54.36 1.04 1.27 1.86.59.91-.77.04-1.48-.63-1.92-3.49-2.3-4.41-5.49-4.46-9.01-.07-5.69 3.98-9.19 9.29-11.56 5.35-2.39 11.13-2.45 16.02.94 2.5 1.73 3.41 1.35 4.75-.75 2.34-3.69 5.47-6.4 10.8-7.18 7.86-1.15 16.33 5.34 14.95 12.08-.46 2.23 1.73 3.4 1.87 5.13.23 2.8 2.57 2.12 4.44 2.42 8.56 1.38 10.71 5.92 5.69 12.06-1.06 1.3-2.66 2.24-1.42 4.3 1.12 1.87 2.78 1.16 4.31 1.27 4.88.34 7 2.84 5.43 6.79-1.74 4.35-4.93 7.65-10.24 9.2-3.7 1.08-7.2-.34-8.49-3.5 3.13-1.02 3.12-1.64-.03-4.6Zm-46.54 12.55-.36-.75c-.13.15-.36.29-.37.44-.02.29-.02.75.17.84.48.23.41-.22.56-.53" class="cls-24"/><path d="M101.96 436.43c2.84.41 2.63 2.06 1.94 3.72-1.11 2.68-3.18 5.39 2.21 6.6 1.65.37 1.02 3.2-.97 3.9-1.02.36-2.26.26-3.4.37-2.02-2.09-4.5-1.45-6.97-.85-.59.02-1.18.03-1.77.05-.15-.19-.3-.38-.46-.57 1.48-.61 2.1-1.58 1.3-2.86-.41-.66-1.48-1.26-2.19-.71-1.05.8-.59 1.96-.07 2.97.1.2.21.39.32.58-4.26-.27-7.26-1.87-8.3-5.6-.14-.51-.41-1.32-.79-1.4-4.48-.88-8.46-3.18-13.16-3.42-.91-.51-1.52-1.51-3.48-.81 2.27-2.17 4.17-3.77.71-5.57-.87-.45-1.52-1.33-.8-2.25.3-.38 1.09-.67 1.64-.66 2.11.03.84.98.63 1.73-.14.5.44.73 1 .73.68 0 1.29-.18 1.47-.83.28-1.02.64-2.17 2.21-1.36 1.22.64 2.8 1.36 2.12 3.08-.52 1.31-.49 2.58.8 4.01 1.32-3.18 4.92-3.03 7.71-4.05.85-.31 2.21.09 1.79 1.03-.7 1.56.7 3.11-.64 4.72-1.78 2.13.9 3.28 2.41 4.07 2.16 1.13 1.27-1.24 2.06-1.83.7-.53 1.07-1.38 1.7-2.25.06.57.06.99.15 1.4.28 1.21-.86 3.09.87 3.51 2.03.49 2.06-1.37 2.44-2.63.35-1.14 1.65-.78 2.62-.89 2.77-.31 5.1-1 4.93-3.96Zm1.35 11.89c-.05-.08-.11-.17-.16-.25-.07.07-.19.14-.2.22 0 .08.1.17.15.25.07-.07.14-.15.22-.22ZM65.59 460.91c-1.87-4.08.06-6.73 4.23-8.8 2.38-1.18.65-3.41 1.16-5.11.98-.02 2.08.34 2.24 1.02 1.08 4.77 7.38 5.06 10 8.54.51.68 2.5 1.37 3.45.42 1.59-1.6 4.52-2.18 4.68-4.66 2.35 1.89 1.98 4.49 3.01 6.67-.02.33-.13.67-.05.98 1.01 4.09-.42 5.3-5.36 4.42-1.24-.22-2.44-.59-3.66-.89.88-2.41-1.9-.27-2.16-1.26-1.53-.86-2.19-2.69-4.63-2.57-5 .25-3.46 3.38-3.73 5.75h-.7c-.04-1.09-.02-2.19-.12-3.27-.1-1.02.31-2.23-1.52-2.62-1.58-.33-3.06-1.18-4.55.28-.54.53-1.52.74-2.29 1.1" class="cls-14"/><path d="M94.36 458.99c-1.03-2.18-.66-4.78-3.01-6.67-.16 2.48-3.09 3.06-4.68 4.66-.95.96-2.94.26-3.45-.42-2.62-3.47-8.92-3.77-10-8.54-.15-.68-1.25-1.04-2.24-1.02-.31-.04-.63-.07-.94-.11 2.53-1.91 5.64-1.79 8.37-.96 5.3 1.6 6.47 5.56 6.32 10.19.91-4.31 4.92-4.76 8.28-5.89.59-.02 1.18-.03 1.77-.05.11.78.61 1.36 1.16 1.97 2.5 2.81 2 4.9-1.56 6.83ZM60.89 448.96c-2.49-1.59-3.45 1.39-5.43 1.32-.77-2.74 1.53-3.35 3.82-3.95.54.88 1.07 1.76 1.61 2.64ZM64.06 451.6c-.81-.66-1.61-1.33-2.42-1.99 1.83-.36 3.42-.38 3.44 1.78-.34.07-.68.14-1.03.21ZM65.18 447.29c.08.08.23.16.21.21-.06.16-.17.31-.27.46-.08-.07-.24-.15-.22-.19.06-.16.17-.31.28-.48" class="cls-10"/><path d="m61.67 449.62-.79-.67c.52 0 .81.21.79.67" class="cls-10"/></g><g class="cls-31" style="clip-path:url(#clippath-3)"><path d="M165.27 449.56c-1.1 2.68-4.06 3.88-7.2 2.96-4.5-1.31-7.21-4.11-8.68-7.79-1.33-3.34.46-5.46 4.6-5.75 1.3-.09 2.7.51 3.65-1.07 1.05-1.74-.31-2.54-1.21-3.64-4.25-5.2-2.43-9.05 4.82-10.22 1.58-.25 3.56.33 3.76-2.05.12-1.47 1.97-2.46 1.59-4.35-1.17-5.71 6-11.21 12.66-10.24 4.51.66 7.16 2.96 9.15 6.09 1.13 1.78 1.91 2.1 4.02.64 4.14-2.87 9.04-2.81 13.57-.79 4.5 2.01 7.93 4.98 7.87 9.8-.04 2.98-.82 5.68-3.78 7.63-.56.37-1.3.97-.53 1.63.69.58 1.11-.19 1.57-.5 1.63-1.09 3.59-1.05 5.34-.68 1.81.38 3.25.17 4.96-.37 3.96-1.26 9.86 1.16 11.24 4.36 1.64 3.82-.02 6.88-4.8 8.68-.64.24-1.32.3-.83 1.07 2.24 3.52-3.45 6.2-1.43 9.72.09.16-.41.62-.71.88-2.32 1.96-8.2 2.74-11.32 1.53-.53-.57-.02-1.53-1-1.94.06-.93.77-1.5 1.58-1.99.69-.41 1.28-.8.43-1.5-.62-.5-1.19-1.13-2.2-.45-3.17 2.14-5.87.75-8.5-.89-.72-.45-1.54-1.1-2.16-.18-.57.84.62.94 1.22 1.25 2.39 1.24 3.78 2.99 3.73 5.44-.58.32-.72.67-.11 1.08 1.31 1.14 3.59 1.95 2.72 3.98-.84 1.96-3.16 2.06-5.23 2.26-.86.08-1.74.04-2.62.01-2.83-.07-5.12-.54-5.39-3.61-.13-1.54-1.74-1.87-3.2-1.03-1.42.82-2.51 1.75-2.51 3.58.02 5.74-.3 11.48-.49 17.22-.25 0-.49 0-.74-.01-.37-4.87-.48-9.72.34-14.58.31-1.84.89-4.08-3.08-3.45-.9.14-2.04-.53-2.99-.95-1.52-.67-2.77-1.73-4.69-1.8-1.82-.06-3.82-.59-3.38-2.53.45-1.99 2.61-1.94 4.52-1.67 1.05.15 2.12.92 3.42-.48-2.46.08-2.84-.98-2.5-2.44-.74-2.04 1.61-.23 1.84-1.07.72 3.66 2.46 4.27 7.08 2.69h.59c.18.37.71 1.11.85.72.97-2.75 4.24-3.03 6.33-4.55 1.58-3.45-.05-5.7-3.58-7.46-2.02-1-.55-2.89-.99-4.33.27-.03.53-.06.8-.1 2.25.59 1.6 3.49 4.19 3.81l.87.18c2.18.63 4.23 1.82 6.74 1.11.66-.19 1.63.16 1.78-.78.12-.77-.51-1.16-1.23-1.45.65-2.32-1.3-2.84-3.24-3.35-1.54-1.68-3.61-2.41-6.03-2.15-.8.09-1.16-.42-1.06-.56 1.33-1.84-1.42-2.11-1.69-3.31.77-.43 1.29-1.28 2.94-.69-1.92-1.84-3.54-3.2-.61-4.72.74-.38 1.29-1.13.68-1.9-.25-.32-.92-.57-1.39-.56-1.79.03-.71.83-.53 1.46.12.42-.37.62-.84.62-.58 0-1.1-.15-1.25-.7-.24-.87-.55-1.84-1.87-1.15-1.04.54-2.37 1.15-1.79 2.61.44 1.11.41 2.19-.68 3.39-1.12-2.69-4.17-2.57-6.53-3.43-.72-.26-1.87.07-1.51.88.59 1.32-.6 2.63.55 4 1.51 1.8-.77 2.78-2.04 3.45-1.83.96-1.08-1.05-1.75-1.55-.6-.45-.9-1.17-1.44-1.91-.05.49-.05.84-.13 1.18-.23 1.02.73 2.62-.73 2.97-1.72.41-1.74-1.16-2.07-2.23-.29-.97-1.4-.66-2.22-.75-2.35-.26-4.32-.85-4.18-3.35.97-.03 2.3.04 2.3-.98 0-1.29-1.29-1.94-3.36-2.6 1.21 1.38 1.08 2.48 1.06 3.58-2.4.35-2.23 1.75-1.64 3.16.94 2.27 2.7 4.57-1.87 5.59-1.4.32-.87 2.71.82 3.31.86.31 1.91.22 2.88.31-.34 1.33-3.02 1.98-1.55 3.84-2.67 2.51-2.67 3.03-.02 3.9Zm39.92 7.19c.16-.08.16-.47.14-.71 0-.13-.2-.25-.31-.37-.11.23-.22.46-.3.64.13.26.07.65.47.45Z" class="cls-11"/><path d="M166.65 429.46c-.15 2.5 1.83 3.09 4.18 3.35.82.09 1.93-.22 2.22.75.32 1.07.35 2.64 2.07 2.23 1.47-.35.5-1.95.73-2.97.08-.34.08-.7.13-1.18.53.74.84 1.46 1.44 1.91.67.5-.08 2.51 1.75 1.55 1.27-.67 3.54-1.65 2.04-3.45-1.14-1.37.04-2.68-.55-4-.36-.8.79-1.14 1.51-.88 2.36.86 5.41.74 6.53 3.43 1.09-1.2 1.12-2.28.68-3.39-.58-1.46.76-2.07 1.79-2.61 1.32-.69 1.63.28 1.87 1.15.15.55.67.7 1.25.7.47 0 .96-.19.84-.62-.18-.63-1.25-1.44.53-1.46.47 0 1.14.24 1.39.56.62.77.06 1.52-.68 1.9-2.93 1.52-1.31 2.88.61 4.72-1.66-.59-2.17.25-2.94.69-3.99.2-7.35 2.15-11.15 2.9-.32.06-.55.75-.67 1.18-.89 3.16-3.43 4.52-7.04 4.74.09-.16.18-.33.27-.49.44-.86.83-1.84-.06-2.52-.6-.46-1.51.05-1.86.61-.67 1.08-.15 1.91 1.1 2.43-.13.16-.26.32-.39.49-.5-.01-1-.03-1.5-.04-2.09-.51-4.19-1.05-5.9.72-.97-.09-2.02 0-2.88-.31-1.69-.6-2.22-2.99-.82-3.31 4.57-1.03 2.82-3.32 1.87-5.59-.58-1.41-.76-2.8 1.64-3.16Zm-.96 10.25c.05-.07.13-.15.13-.21 0-.07-.11-.12-.17-.19-.05.07-.09.14-.14.22.06.06.12.12.18.19ZM197.47 450.2c1.58-3.45-.05-5.7-3.58-7.46-2.02-1-.55-2.89-.99-4.33-.83-.02-1.77.29-1.9.86-.92 4.04-6.26 4.29-8.48 7.23-.43.57-2.12 1.16-2.93.35-1.35-1.35-3.83-1.85-3.96-3.95-1.99 1.6-1.68 3.8-2.55 5.65.02.28.11.57.05.83-.86 3.47.36 4.49 4.54 3.75 1.05-.19 2.07-.5 3.1-.75-.74-2.04 1.61-.23 1.83-1.07 1.3-.73 1.86-2.28 3.92-2.18 4.23.21 2.93 2.87 3.16 4.87h.59c.03-.92.01-1.85.1-2.77.08-.86-.26-1.89 1.29-2.22 1.34-.28 2.59-1 3.85.24.46.45 1.28.63 1.94.93Z" class="cls-11"/><path d="M173.09 448.57c.87-1.85.56-4.05 2.55-5.65.13 2.1 2.61 2.59 3.96 3.95.81.81 2.49.22 2.93-.35 2.22-2.94 7.56-3.2 8.48-7.23.13-.58 1.06-.88 1.9-.86l.8-.09c-2.15-1.62-4.78-1.51-7.09-.81-4.49 1.36-5.48 4.71-5.35 8.63-.77-3.65-4.17-4.04-7.02-4.99-.5-.01-1-.03-1.5-.04-.09.66-.51 1.15-.98 1.67-2.12 2.38-1.69 4.15 1.32 5.79ZM206.7 456.82c-.58.32-.72.67-.11 1.08 2-.37 3.9-1.56 6 .15.88.72 1.18-.22 1-.96-.53-.58-.02-1.54-1.01-1.94-1.96.56-3.92 1.12-5.89 1.68ZM201.45 440.07c2.11-1.35 2.92 1.18 4.6 1.11.65-2.32-1.3-2.84-3.24-3.35-.45.75-.91 1.49-1.36 2.24M198.76 442.31c.68-.56 1.36-1.13 2.05-1.69-1.55-.31-2.89-.32-2.92 1.51zM204.72 456.3c.13.26.07.65.47.45.16-.08.16-.47.14-.71 0-.13-.2-.25-.31-.37-.11.23-.22.46-.3.64ZM197.81 438.66c-.07.06-.2.14-.18.18.05.14.15.26.22.39.07-.06.2-.13.19-.16-.05-.14-.15-.26-.23-.41" class="cls-11"/><path d="M200.79 440.63c.22-.19.45-.38.67-.57-.44 0-.69.18-.67.57" class="cls-11"/></g><path d="M209.96 239.66h17v17h-17zM209.96 257.51h17v17h-17zM209.96 275.35h17v17h-17zM209.96 293.2h17v17h-17zM491.04 293.28h17v17h-17zM491.04 275.43h17v17h-17zM491.04 257.58h17v17h-17zM491.04 239.74h17v17h-17zM512.29 239.74h17v17h-17zM512.29 257.58h17v17h-17zM512.29 275.43h17v17h-17zM512.29 293.28h17v17h-17zM589.91 293.2h17v17h-17zM589.91 275.35h17v17h-17zM589.91 257.51h17v17h-17zM293.23 242.7c6.37-2.79 12.9-3.04 19.14-3.04 6.28 0 12.86.26 19.11 3.06 0 22.5-.01 44.99-.02 67.49-12.75 0-25.49-.01-38.24-.02 0-22.5.01-44.99.02-67.49Z" class="cls-1"/><path d="m331.46 256.67-16.98-.01.01-17M293.21 293.19h17v17h-17zM589.91 239.66h17v17h-17zM611.16 239.66h17v17h-17zM611.16 257.51h17v17h-17zM611.16 275.35h17v17h-17zM611.16 293.2h17v17h-17zM314.46 293.2h17v17h-17zM314.46 275.36h17v17h-17zM407.9 293.2h17v17h-17zM407.91 275.36h17v17h-17zM407.92 257.51h17v17h-17zM386.67 257.5h17v17h-17zM293.22 275.35h17v17h-17zM310.24 239.67l-.01 16.98h-17l.01-13.96M386.67 275.35h17v17h-17zM386.66 293.19h17v17h-17zM403.68 239.67v16.98h-17l.01-13.96M424.91 256.67l-16.99-.01.01-17" class="cls-1"/><path d="M386.67 242.7c6.37-2.79 12.9-3.04 19.14-3.04 6.28 0 12.86.26 19.11 3.06 0 22.5-.01 44.99-.02 67.49-12.75 0-25.49-.01-38.24-.02 0-22.5.01-44.99.02-67.49ZM90.07 293.2h17v17h-17zM90.07 275.35h17v17h-17zM90.07 257.51h17v17h-17zM90.07 239.66h17v17h-17zM111.31 239.66h17v17h-17zM111.31 257.51h17v17h-17zM111.31 275.35h17v17h-17zM111.31 293.2h17v17h-17zM188.71 293.2h17v17h-17zM188.71 275.35h17v17h-17zM293.23 257.5h17v17h-17zM314.47 257.51h17v17h-17zM188.71 257.51h17v17h-17zM188.71 239.66h17v17h-17z" class="cls-1"/><path d="M-122.49 461.76c52.48-10.53 92.11-4.74 123.55-1.84s54.68 2.9 70.3.97 23.6-5.8 31.17-7.73 14.74-1.93 33.34-1.93h78.05c29.38 0 58.09 0 83.92 1.23s48.79 3.68 68.77 4.67c19.99.99 37.01.52 50.81-.77s24.36-3.41 42.5-3.41 43.85 2.11 84.26 2.04c40.4-.07 95.5-2.32 133.78-3.09 38.28-.76 59.73-.04 76.92-1.08 17.19-1.05 30.1-3.86 42.61-6.56 12.5-2.7 24.6-5.28 38.57-8.96s29.82-8.45 55.54-10.83c25.71-2.38 61.29-2.38 103.85-2.38v55.53H-122.49z" style="stroke-miterlimit:10;stroke:#676766;stroke-width:2px;fill:#fff"/><path d="M646.22 302.9v4.4M646.22 276.05v22.22M640.9 276.05v13.27M635.59 276.05v4.32M635.59 251.5v22.3M640.9 260.45v13.35M646.22 269.39v4.41M646.22 242.55v22.22M640.9 242.55v13.27M635.59 242.55v4.32M635.59 237.54v2.76M640.9 237.54v2.76M646.22 237.54v2.76M633.03 276.05l18.5 31.16M648.83 307.3l-18.55-31.25M633.03 242.55l18.5 31.16M648.83 273.8l-18.55-31.25M630.28 307.3h21.25v2.25h-21.25zM630.28 240.3h21.25v2.25h-21.25z" class="cls-4"/><path d="M630.28 237.54h21.25v74.78h-21.25z" class="cls-4"/><path d="M630.28 273.8h21.25v2.25h-21.25zM636.65 237.54v-6.38h-55.23v6.38M483.61 309.63v2.77M483.61 285.08v22.29M478.3 309.63v2.77M478.3 294.03v13.34M472.98 309.63v2.77M472.98 302.97v4.4M472.98 276.13v22.22M478.3 276.13v13.27M483.61 276.13v4.32M483.61 251.58v22.3M478.3 260.52v13.36M472.98 269.47v4.41M472.98 242.63v22.21M478.3 242.63v13.27M483.61 242.63v4.32M483.61 237.61v2.77M478.3 237.61v2.77M472.98 237.61v2.77M486.17 276.13l-18.5 31.16M470.37 307.38l18.55-31.25M486.17 242.63l-18.5 31.16M470.37 273.88l18.55-31.25M467.67 307.37h21.25v2.25h-21.25zM467.67 240.38h21.25v2.25h-21.25z" class="cls-4"/><path d="M467.67 237.61h21.25v74.78h-21.25z" class="cls-4"/><path d="M467.67 273.88h21.25v2.25h-21.25zM536.72 309.63v2.77M536.72 285.08v22.29M542.03 309.63v2.77M542.03 294.03v13.34M547.34 309.63v2.77M547.34 302.97v4.4M547.34 276.13v22.22M542.03 276.13v13.27M536.72 276.13v4.32M536.72 251.58v22.3M542.03 260.52v13.36M547.34 269.47v4.41M547.34 242.63v22.21M542.03 242.63v13.27M536.72 242.63v4.32M536.72 237.61v2.77M542.03 237.61v2.77M547.34 237.61v2.77M534.16 276.13l18.49 31.16M549.96 307.38l-18.55-31.25M534.16 242.63l18.49 31.16M549.96 273.88l-18.55-31.25M531.41 307.37h21.25v2.25h-21.25zM531.41 240.38h21.25v2.25h-21.25z" class="cls-4"/><path d="M531.41 237.61h21.25v74.78h-21.25z" class="cls-4"/><path d="M531.41 273.88h21.25v2.25h-21.25zM537.78 237.61v-6.37h-55.24v6.37M181.28 309.55v2.77M181.28 285v22.3M175.97 309.55v2.77M175.97 293.95v13.35M170.65 309.55v2.77M170.65 302.9v4.4M170.65 276.05v22.22M175.97 276.05v13.27M181.28 276.05v4.32M181.28 251.5v22.3M175.97 260.45v13.35M170.65 269.39v4.41M170.65 242.55v22.22M175.97 242.55v13.27M181.28 242.55v4.32M181.28 237.54v2.76M175.97 237.54v2.76M170.65 237.54v2.76M183.84 276.05l-18.5 31.16M168.04 307.3l18.55-31.25M183.84 242.55l-18.5 31.16M168.04 273.8l18.55-31.25M165.34 307.3h21.25v2.25h-21.25zM165.34 240.3h21.25v2.25h-21.25z" class="cls-4"/><path d="M165.34 237.54h21.25v74.78h-21.25z" class="cls-4"/><path d="M165.34 273.8h21.25v2.25h-21.25zM234.39 309.55v2.77M234.39 285v22.3M239.7 309.55v2.77M239.7 293.95v13.35M245.01 309.55v2.77M245.01 302.9v4.4M245.01 276.05v22.22M239.7 276.05v13.27M234.39 276.05v4.32M234.39 251.5v22.3M239.7 260.45v13.35M245.01 269.39v4.41M245.01 242.55v22.22M239.7 242.55v13.27M234.39 242.55v4.32M234.39 237.54v2.76M239.7 237.54v2.76M245.01 237.54v2.76M231.83 276.05l18.49 31.16M247.63 307.3l-18.55-31.25M231.83 242.55l18.49 31.16M247.63 273.8l-18.55-31.25M229.08 307.3h21.25v2.25h-21.25zM229.08 240.3h21.25v2.25h-21.25z" class="cls-4"/><path d="M229.08 237.54h21.25v74.78h-21.25z" class="cls-4"/><path d="M229.08 273.8h21.25v2.25h-21.25zM235.45 237.54v-6.38h-55.24v6.38M282.68 186.51l76.43-50.41 76.44 50.41" class="cls-4"/><path d="m284.51 186.51 74.6-49.21 74.61 49.21M82.63 309.55v2.77M82.63 285v22.3M77.32 309.55v2.77M77.32 293.95v13.35M72.01 309.55v2.77M72.01 302.9v4.4M72.01 276.05v22.22M77.32 276.05v13.27M82.63 276.05v4.32M82.63 251.5v22.3M77.32 260.45v13.35M72.01 269.39v4.41M72.01 242.55v22.22M77.32 242.55v13.27M82.63 242.55v4.32M82.63 237.54v2.76M77.32 237.54v2.76M72.01 237.54v2.76M85.2 276.05l-18.5 31.16M69.4 307.3l18.54-31.25M85.2 242.55l-18.5 31.16M69.4 273.8l18.54-31.25M66.7 307.3h21.25v2.25H66.7zM66.7 240.3h21.25v2.25H66.7z" class="cls-4"/><path d="M66.7 237.54h21.25v74.78H66.7z" class="cls-4"/><path d="M66.7 273.8h21.25v2.25H66.7zM135.75 309.55v2.77M135.75 285v22.3M141.06 309.55v2.77M141.06 293.95v13.35M146.37 309.55v2.77M146.37 302.9v4.4M146.37 276.05v22.22M141.06 276.05v13.27M135.75 276.05v4.32M135.75 251.5v22.3M141.06 260.45v13.35M146.37 269.39v4.41M146.37 242.55v22.22M141.06 242.55v13.27M135.75 242.55v4.32M135.75 237.54v2.76M141.06 237.54v2.76M146.37 237.54v2.76M133.18 276.05l18.5 31.16M148.99 307.3l-18.55-31.25M133.18 242.55l18.5 31.16M148.99 273.8l-18.55-31.25M130.44 307.3h21.25v2.25h-21.25zM130.44 240.3h21.25v2.25h-21.25z" class="cls-4"/><path d="M130.44 237.54h21.25v74.78h-21.25z" class="cls-4"/><path d="M130.44 273.8h21.25v2.25h-21.25zM136.81 237.54v-6.38H81.57v6.38M619.32 451.22v-44.3c0-29.44-23.87-53.31-53.31-53.31s-53.31 23.87-53.31 53.31v44.3M606.57 451.22h12.75M606.57 436.35h12.75M606.57 421.48h12.75M606.57 406.61h12.75M606.57 436.32l12.75.09M597.75 381.67l9.97-7.94M604.33 393.12l12-4.32M586.12 371.7l6.33-11.07M525.45 451.22h-12.74M525.45 436.35h-12.74M525.45 421.48h-12.74M525.45 406.61h-12.74M525.45 436.32l-12.75.09M534.28 381.67l-9.98-7.94M527.69 393.12l-11.99-4.32M545.9 371.7l-6.32-11.07M559.23 366.93l-2.13-12.56M571.76 366.77l1.81-12.62M561.76 438.62v-72.04M557.51 438.62v-71.36M553.26 438.62l.01-70.2M549.02 438.62V370.1M544.77 438.62v-66.25M540.52 438.62v-63.24M536.27 438.62v-59.27M527.77 438.62v-45.47M532.02 438.62V384.8M570.26 438.62v-72.04M574.51 438.62v-71.36M578.76 438.62v-70.2M583.01 438.62V370.1M587.26 438.62v-66.25M591.51 438.62v-63.24M595.76 438.62v-59.27M604.25 438.62v-45.47M600.01 438.62V384.8M388.02 438.62V384.8M392.27 438.62v-45.47M383.77 438.62v-59.27M379.52 438.62v-63.24M375.27 438.62v-66.25M371.02 438.62V370.1M366.77 438.62v-70.2M362.52 438.62v-71.36M358.28 438.62l-.01-72.04M320.03 438.62V384.8M315.78 438.62v-45.47M324.28 438.62v-59.27M328.53 438.62v-63.24M332.78 438.62v-66.25M337.03 438.62V370.1M341.28 438.62v-70.2M345.53 438.62v-71.36M349.78 438.62v-72.04M359.78 366.77l1.8-12.62M347.24 366.93l-2.13-12.56M333.91 371.7l-6.32-11.07M315.7 393.12l-11.99-4.32M322.29 381.67l-9.98-7.94M313.46 436.32l-12.74.09M313.47 406.61h-12.75M313.47 421.48h-12.75M313.47 436.35h-12.75M313.47 451.22h-12.75M374.14 371.7l6.32-11.07M392.35 393.12l11.99-4.32M385.76 381.67l9.98-7.94M394.59 436.32l12.74.09M394.58 406.61h12.75M394.58 421.48h12.75M394.58 436.35h12.75M394.58 451.22h12.75M407.33 451.22v-44.3c0-29.44-23.87-53.31-53.31-53.31s-53.31 23.87-53.31 53.31v44.3M334.88 240.77c6.81-2.99 13.69-3.23 19.99-3.23h0v74.78h-21.25c0-23.67 0-47.33-.01-71 .42-.19.85-.37 1.27-.56Z" class="cls-4"/><path d="M335.99 240.3h18.88v2.26h-21.25v-1.24M349.56 237.65v2.65M344.24 238.15v2.15M338.93 239.29v1.01M338.93 309.56v2.77M338.93 285.01v22.29M344.24 309.56v2.77M344.24 293.96v13.34M349.56 309.56v2.77M349.56 302.9v4.4M349.56 276.06v22.22M344.24 276.06v13.27M338.93 276.06v4.32M338.93 251.5v22.31M344.24 260.45v13.36M349.56 269.4v4.41M349.56 242.56v22.21M344.24 242.56v13.26M338.93 242.56v4.32M336.37 276.06l18.5 31.16M352.17 307.31l-18.55-31.25M336.37 242.56l18.5 31.16M352.17 273.81l-18.55-31.25M333.62 307.3h21.25v2.25h-21.25zM333.62 273.81h21.25v2.25h-21.25zM289.87 240.78c-6.81-2.99-13.69-3.23-19.99-3.23h0v74.78h21.24c0-23.67 0-47.33.01-71-.42-.19-.85-.37-1.27-.56Z" class="cls-4"/><path d="M288.76 240.31h-18.88v2.26h21.25v-1.24M275.2 237.66v2.65M280.51 238.16v2.15M285.82 239.3v1.01M285.82 309.56v2.78M285.82 285.02v22.29M280.51 309.56v2.78M280.51 293.97v13.34M275.2 309.56v2.78M275.2 302.91v4.4M275.2 276.07v22.21M280.51 276.07v13.27M285.82 276.07v4.32M285.82 251.51v22.31M280.51 260.46v13.36M275.2 269.41v4.41M275.2 242.57v22.21M280.51 242.57v13.26M285.82 242.57v4.32M288.38 276.07l-18.49 31.16M272.58 307.32l18.55-31.25M288.38 242.57l-18.49 31.16M272.58 273.82l18.55-31.25M269.88 307.31h21.25v2.25h-21.25zM269.88 273.82h21.25v2.25h-21.25zM340 239v-1.84c-1.69-.74-3.39-1.49-5.08-2.23-3.79-1.66-7.84-2.69-11.94-3.22-3.52-.45-7.07-.54-10.61-.54-1.71 0-3.41.02-5.11.09-1.85.08-3.7.21-5.54.45-4.1.53-8.15 1.56-11.92 3.25-1.68.75-3.35 1.5-5.03 2.25v1.81M383.29 240.76c-6.81-2.99-13.69-3.23-19.99-3.24h0c-.01 24.93-.02 49.86-.04 74.78 7.08 0 14.16 0 21.25.01.02-23.67.03-47.33.05-71-.42-.19-.85-.37-1.27-.56Z" class="cls-4"/><path d="m382.18 240.29-18.88-.01v2.26l21.25.01v-1.24M368.62 237.63v2.65M373.93 238.13v2.16M379.24 239.28v1.01M379.2 309.54v2.77M379.22 284.99l-.02 22.3M373.89 309.54v2.77M373.9 293.94l-.01 13.35M368.58 309.54v2.77M368.58 302.88v4.4M368.6 276.04l-.01 22.22M373.91 276.04l-.01 13.27M379.22 276.05v4.32M379.23 251.49l-.01 22.3M373.92 260.44l-.01 13.35M368.6 269.38v4.41M368.61 242.54l-.01 22.21M373.93 242.54l-.01 13.27M379.24 242.54l-.01 4.32M381.78 276.05l-18.51 31.15M365.97 307.29l18.56-31.24M381.8 242.54l-18.51 31.16M365.98 273.79l18.57-31.24M363.27 307.29h21.25v2.25h-21.25zM363.29 273.79h21.25v2.25h-21.25zM428.3 240.79c6.81-2.99 13.7-3.22 19.99-3.22h0c-.01 24.93-.02 49.86-.04 74.78-7.08 0-14.16 0-21.24-.01 0-23.67.01-47.33.02-71 .42-.19.85-.37 1.27-.56Z" class="cls-4"/><path d="M429.41 240.33h18.88v2.26l-21.25-.01v-1.24M442.98 237.68v2.65M437.66 238.17v2.16M432.35 239.32v1.01M432.32 309.58v2.77M432.33 285.03l-.01 22.3M437.63 309.58v2.77M437.64 293.98l-.01 13.35M442.94 309.58v2.77M442.94 302.93v4.4M442.96 276.09l-.01 22.21M437.65 276.08l-.01 13.27M432.33 276.08v4.32M432.35 251.53l-.01 22.3M437.65 260.48v13.35M442.96 269.43v4.41M442.97 242.59l-.01 22.21M437.66 242.58v13.27M432.35 242.58v4.32M429.77 276.08l18.48 31.17M445.56 307.34l-18.54-31.26M429.79 242.58l18.48 31.17M445.57 273.84l-18.53-31.26M427.01 307.33h21.25v2.25h-21.25zM632.55 127.21v24.46M378.18 238.99v-1.84c1.69-.74 3.39-1.49 5.08-2.23 3.79-1.66 7.84-2.69 11.94-3.22 3.52-.45 7.07-.54 10.61-.54 1.71 0 3.41.02 5.11.09 1.85.08 3.7.21 5.54.45 4.1.53 8.14 1.57 11.92 3.25 1.68.75 3.35 1.5 5.03 2.25v1.81M129.19 120.8l-22.06-13.29M85.07 120.8l22.06-13.29M107.13 123.94H85.07v-3.14h44.12v3.14zM427.02 273.83h21.25v2.25h-21.25zM636.85 129.46v13.27M636.85 142.73v17.98M632.55 151.67v9.04M643.23 129.46l-14.98 31.16M630.43 160.71l15.03-31.25M632.55 123.94v3.27M636.85 123.94v3.27M641.15 129.46v4.32M641.15 123.94v3.27M641.15 138.41v22.3M628.25 127.21h17.21v2.25h-17.21zM628.25 160.71h17.21v2.25h-17.21z" class="cls-4"/><path d="M628.25 123.94h17.21v42.13h-17.21zM589.54 127.21v24.46M585.23 129.46v13.27M585.23 142.73v17.98M589.54 151.67v9.04M578.85 129.46l14.99 31.16M591.65 160.71l-15.02-31.25M589.54 123.94v3.27M585.23 123.94v3.27M580.93 129.46v4.32M580.93 123.94v3.27M580.93 138.41v22.3M576.63 127.21h17.21v2.25h-17.21zM576.63 160.71h17.21v2.25h-17.21z" class="cls-4"/><path d="M576.63 123.94h17.21v42.13h-17.21zM531.71 127.21v24.46M536.01 129.46v13.27M536.01 142.73v17.98M531.71 151.67v9.04M542.39 129.46l-14.98 31.16M529.59 160.71l15.03-31.25M531.71 123.94v3.27M536.01 123.94v3.27M540.32 129.46v4.32M540.32 123.94v3.27M540.32 138.41v22.3M527.41 127.21h17.21v2.25h-17.21zM527.41 160.71h17.21v2.25h-17.21z" class="cls-4"/><path d="M527.41 123.94h17.21v42.13h-17.21zM488.7 127.21v24.46M484.39 129.46v13.27M484.39 142.73v17.98M488.7 151.67v9.04M478.02 129.46 493 160.62M490.82 160.71l-15.03-31.25M488.7 123.94v3.27M484.39 123.94v3.27M480.09 129.46v4.32M480.09 123.94v3.27M480.09 138.41v22.3M475.79 127.21H493v2.25h-17.21zM475.79 160.71H493v2.25h-17.21z" class="cls-4"/><path d="M475.79 123.94H493v42.13h-17.21zM128.64 127.23v24.47M132.94 129.48v13.27M132.94 142.75v17.98M128.64 151.7v9.030000000000001M139.32 129.48l-14.98 31.17M126.52 160.73l15.02-31.25M128.64 123.96v3.27M132.94 123.96v3.27M137.24 129.48v4.32M137.24 123.96v3.27M137.24 138.43v22.3M124.33 127.23h17.21v2.25h-17.21zM124.33 160.73h17.21v2.25h-17.21z" class="cls-4"/><path d="M124.33 123.96h17.21v42.13h-17.21zM85.62 127.23v24.47M81.32 129.48v13.27M81.32 142.75v17.98M85.62 151.7v9.030000000000001M74.94 129.48l14.98 31.17M87.74 160.73l-15.02-31.25M85.62 123.96v3.27M81.32 123.96v3.27M77.02 129.48v4.32M77.02 123.96v3.27M77.02 138.43v22.3M72.72 127.23h17.21v2.25H72.72zM72.72 160.73h17.21v2.25H72.72z" class="cls-4"/><path d="M72.72 123.96h17.21v42.13H72.72zM229.34 127.21v24.46M233.64 129.46v13.27M233.64 142.73v17.98M229.34 151.67v9.04M240.02 129.46l-14.98 31.16M227.22 160.71l15.03-31.25M229.34 123.94v3.27M233.64 123.94v3.27M237.95 129.46v4.32M237.95 123.94v3.27M237.95 138.41v22.3M225.04 127.21h17.21v2.25h-17.21zM225.04 160.71h17.21v2.25h-17.21z" class="cls-4"/><path d="M225.04 123.94h17.21v42.13h-17.21zM186.33 127.21v24.46M182.02 129.46v13.27M182.02 142.73v17.98M186.33 151.67v9.04M175.64 129.46l14.99 31.16M188.44 160.71l-15.02-31.25M186.33 123.94v3.27M182.02 123.94v3.27M177.72 129.46v4.32M177.72 123.94v3.27M177.72 138.41v22.3M173.42 127.21h17.21v2.25h-17.21zM173.42 160.71h17.21v2.25h-17.21z" class="cls-4"/><path d="M173.42 123.94h17.21v42.13h-17.21zM233.64 160.71v5.35M237.95 160.71v5.35M229.34 162.96v3.1M289.85 240.76c-6.81-2.99-13.69-3.23-19.99-3.24h0c-.01 24.93-.02 49.86-.04 74.78 7.08 0 14.16 0 21.24.01.02-23.67.03-47.33.05-71-.42-.19-.85-.37-1.27-.56Z" class="cls-4"/><path d="m288.74 240.29-18.88-.01v2.26l21.24.01v-1.24M275.17 237.63v2.65M280.48 238.13v2.16M285.79 239.28v1.01M285.76 309.54v2.77M285.77 284.99l-.01 22.3M280.44 309.54v2.77M280.45 293.94v13.35M275.13 309.54v2.77M275.14 302.88l-.01 4.4M275.15 276.04l-.01 22.22M280.46 276.04v13.27M285.77 276.05v4.32M285.79 251.49l-.02 22.3M280.47 260.44l-.01 13.35M275.15 269.38v4.41M275.17 242.54l-.01 22.21M280.48 242.54l-.01 13.27M285.79 242.54v4.32M288.34 276.05l-18.52 31.15M272.52 307.29l18.56-31.24M288.35 242.54l-18.51 31.16M272.54 273.79l18.56-31.24M269.82 307.29h21.25v2.25h-21.25zM269.84 273.79h21.25v2.25h-21.25zM334.85 240.79c6.81-2.99 13.7-3.22 19.99-3.22h0c-.01 24.93-.02 49.86-.04 74.78-7.08 0-14.16 0-21.24-.01 0-23.67.01-47.33.02-71 .42-.19.85-.37 1.27-.56Z" class="cls-4"/><path d="M335.96 240.33h18.88v2.26l-21.25-.01v-1.24M349.53 237.68v2.65M344.22 238.17v2.16M338.91 239.32v1.01M338.87 309.58v2.77M338.88 285.03l-.01 22.3M344.18 309.58v2.77M344.19 293.98l-.01 13.35M349.49 309.58v2.77M349.5 302.93l-.01 4.4M349.51 276.09l-.01 22.21M344.2 276.08l-.01 13.27M338.89 276.08l-.01 4.32M338.9 251.53l-.01 22.3M344.21 260.48l-.01 13.35M349.51 269.43v4.41M349.53 242.59l-.01 22.21M344.22 242.58l-.01 13.27M338.9 242.58v4.32M336.32 276.08l18.48 31.17M352.11 307.34l-18.53-31.26M336.34 242.58l18.48 31.17M352.13 273.84l-18.54-31.26M333.56 307.33h21.25v2.25h-21.25zM333.58 273.83h21.25v2.25h-21.25zM284.73 238.99v-1.84c1.69-.74 3.39-1.49 5.08-2.23 3.79-1.66 7.84-2.69 11.94-3.22 3.52-.45 7.07-.54 10.61-.54 1.71 0 3.41.02 5.11.09 1.85.08 3.7.21 5.54.45 4.1.53 8.14 1.57 11.92 3.25 1.68.75 3.35 1.5 5.03 2.25v1.81M582.48 309.55v2.77M582.48 285v22.3M577.17 309.55v2.77M577.17 293.95v13.35M571.86 309.55v2.77M571.86 302.9v4.4M571.86 276.05v22.22M577.17 276.05v13.27M582.48 276.05v4.32M582.48 251.5v22.3M577.17 260.45v13.35M571.86 269.39v4.41M571.86 242.55v22.22M577.17 242.55v13.27M582.48 242.55v4.32M582.48 237.54v2.76M577.17 237.54v2.76M571.86 237.54v2.76M585.04 276.05l-18.49 31.16M569.24 307.3l18.55-31.25M585.04 242.55l-18.49 31.16M569.24 273.8l18.55-31.25M566.54 307.3h21.25v2.25h-21.25zM566.54 240.3h21.25v2.25h-21.25z" class="cls-4"/><path d="M566.54 237.54h21.25v74.78h-21.25z" class="cls-4"/><path d="M566.54 273.8h21.25v2.25h-21.25zM635.59 309.55v2.77M635.59 285v22.3M640.9 309.55v2.77M640.9 293.95v13.35M646.22 309.55v2.77M229.89 120.8l-22.06-13.29M185.78 120.8l22.05-13.29M207.83 123.94h-22.05v-3.14h44.11v3.14zM532.26 120.77l-22.06-13.28M488.15 120.77l22.05-13.28M510.2 123.91h-22.05v-3.14h44.11v3.14zM633.1 120.77l-22.06-13.28M588.99 120.77l22.05-13.28M611.04 123.91h-22.05v-3.14h44.11v3.14zM284.46 238.93v-52.42h-8.48v51.19M360.27 154.2v27.76M359.11 185.46c1.94 0 3.87-.48 5.61-1.35.94-.47 1.82-1.05 2.63-1.72.84-.69 1.6-1.48 2.27-2.33 1.37-1.73 2.38-3.73 3.04-5.83.62-1.99.93-4.07.93-6.16s-.31-4.17-.93-6.16c-.66-2.1-1.67-4.1-3.04-5.83-.67-.85-1.44-1.64-2.27-2.33-.81-.67-1.69-1.25-2.63-1.72-1.73-.87-3.67-1.35-5.61-1.35s-3.88.48-5.61 1.35c-.94.47-1.82 1.05-2.63 1.72-.84.69-1.6 1.48-2.27 2.33-1.37 1.73-2.38 3.73-3.04 5.83-.62 1.99-.93 4.07-.93 6.15s.31 4.17.93 6.16c.66 2.1 1.67 4.1 3.04 5.83.67.85 1.43 1.64 2.27 2.33.81.67 1.69 1.25 2.63 1.72 1.73.87 3.67 1.35 5.61 1.35ZM359.11 154.2v27.76M357.94 154.2v27.76" class="cls-4"/><path d="M348.91 161.99h6.46v.76h-6.46zM348.91 173.4h6.46v.75h-6.46zM362.84 161.99h6.46v.76h-6.46zM362.84 173.4h6.46v.75h-6.46zM442.2 237.72v-51.21h-8.48v52.44M442.2 318.68v-6.33M448.25 312.34H275.99v6.34H442.2M44.93 166.06h262.05M411.25 166.06h136.4M575.87 166.06h99.21" class="cls-4"/><path d="M526.14 151.58h-14.66M510.2 125.19v39.57M511.48 125.19v39.57M508.93 125.19v39.57M494.27 125.19h31.87v39.58h-31.87zM526.14 152.43h-14.66M508.92 152.43h-14.66M188.71 239.66h38.24v70.54h-38.24z" class="cls-1"/><path d="M186.59 237.54h42.49v74.78h-42.49zM207.83 239.66v70.54M508.92 138.39h-14.66M394.58 406.92c0-22.4-18.16-40.56-40.56-40.56s-40.56 18.16-40.56 40.56v44.3h81.12zM526.14 137.54h-14.66M206.55 151.6h-14.66M799.97 301.7l72.44 63.32M508.92 137.54h-14.66M526.14 150.73h-14.66M508.92 150.73h-14.66M492.99 123.91h34.42v42.13h-34.42zM223.77 139.27h-14.66M206.55 139.27h-14.66M90.07 239.66h38.24v70.54H90.07z" class="cls-1"/><path d="M87.94 237.54h42.49v74.78H87.94zM109.19 239.66v70.54M81.57 224.5v6.44l27.62-3.79 27.62 3.79v-6.44l-27.62-3.79zM81.57 312.32v6.37h55.24v-6.37M180.21 224.5v6.44l27.62-3.79 27.62 3.79v-6.44l-27.62-3.79zM799.17 303.82l72.44 63.32M694.78 303.82h104.39M784.02 344.19v-40.37M775.52 344.19v-40.37M767.02 344.19v-40.37M758.52 344.19v-40.37M750.02 344.19v-40.37M741.52 344.19v-40.37M733.03 344.19v-40.37M724.53 344.19v-40.37M716.03 344.19v-40.37M707.53 344.19v-40.37M699.03 344.19v-40.37M795.06 353.85v-50.03M803.56 361.27v-53.61M812.06 368.7v-53.61M820.56 376.13v-53.61M774.67 344.19v-40.37M766.17 344.19v-40.37M757.67 344.19v-40.37M749.17 344.19v-40.37M223.77 151.6h-14.66M385.82 240.75c6.81-2.99 13.7-3.22 19.99-3.22 6.33 0 13.26.24 19.97 3.24.42.19.84.37 1.26.56 0 23.66-.01 47.33-.02 70.99-14.16 0-28.33-.01-42.49-.02 0-23.67.01-47.33.02-71 .42-.19.85-.37 1.27-.56ZM207.83 125.21v39.58M209.11 125.21v39.58M206.56 125.21v39.58M191.9 125.21h31.87v39.58H191.9zM223.77 152.45h-14.66M206.55 152.45h-14.66M206.55 138.42h-14.66M223.77 138.42h-14.66M405.81 239.66l-.04 70.54M740.67 344.19v-40.37M732.18 344.19v-40.37M723.68 344.19v-40.37M715.18 344.19v-40.37M706.68 344.19v-40.37M698.18 344.19v-40.37M794.21 353.1v-49.28M828.21 382.82V329.2M819.71 375.39v-53.62M811.21 367.96v-53.62M802.71 361.27v-54.35M784.87 344.93v-41.11M694.78 301.7h105.19M180.21 312.32v6.37h55.24v-6.37M606.57 406.92c0-22.4-18.16-40.56-40.56-40.56s-40.56 18.16-40.56 40.56v44.3h81.12zM339.99 224.52v6.43l-27.62-3.8-27.62 3.77v-6.43l27.62-3.78z" class="cls-1"/><path d="M252.2 21.5c0 .82-1.03 1.26-1.61 1.45-.75.25-1.49.34-2.27.34s-1.52-.09-2.27-.34c-.58-.19-1.61-.63-1.61-1.45s1.03-1.26 1.61-1.45c.75-.25 1.49-.34 2.27-.34s1.52.09 2.27.34c.58.19 1.61.63 1.61 1.45Z" class="cls-6"/><path d="M247.56 15.63h1.84v19.03h-1.84z" class="cls-6"/><path d="m275.98 186.51 83.13-54.83 83.14 54.83" class="cls-1"/><path d="m280.24 186.51 78.87-52.02 78.87 52.02M596.29 346.54l-.01 8.54-30.26-5.05-30.26 5.02v-8.55l30.27-5.01z" class="cls-1"/><path d="M468.31 14.31h1.84v19.03h-1.84z" class="cls-6"/><path d="M465.51 20.17c0 .82 1.03 1.26 1.61 1.45.75.25 1.49.34 2.27.34s1.52-.09 2.27-.34c.58-.19 1.61-.63 1.61-1.45s-1.03-1.26-1.61-1.45c-.75-.25-1.49-.34-2.27-.34s-1.52.09-2.27.34c-.58.19-1.61.63-1.61 1.45ZM252.2 21.5c0 .82-1.03 1.26-1.61 1.45-.75.25-1.49.34-2.27.34s-1.52-.09-2.27-.34c-.58-.19-1.61-.63-1.61-1.45s1.03-1.26 1.61-1.45c.75-.25 1.49-.34 2.27-.34s1.52.09 2.27.34c.58.19 1.61.63 1.61 1.45Z" class="cls-9"/><path d="M566.01 366.36v84.86M525.45 438.62h81.12M526.14 138.39h-14.66M292.37 240.75c6.81-2.99 13.7-3.22 19.99-3.22 6.33 0 13.26.24 19.97 3.24.42.19.84.37 1.26.56 0 23.66-.01 47.33-.02 70.99-14.16 0-28.33-.01-42.49-.02 0-23.67.01-47.33.02-71 .42-.19.85-.37 1.27-.56ZM433.44 224.52l-.01 6.43-27.61-3.8-27.62 3.77v-6.43l27.62-3.78zM89.92 123.94h34.42v42.13H89.92zM105.85 150.75H91.19M123.06 150.75H108.4M105.85 137.57H91.19M123.06 137.57H108.4M123.06 138.42H108.4M105.85 138.42H91.19M105.85 152.45H91.19M123.06 152.45H108.4M359.11 181.96c3.44 0 6.3-1.97 8.19-4.64 1.89-2.68 2.78-6.01 2.78-9.24s-.9-6.56-2.78-9.24c-1.89-2.68-4.75-4.64-8.19-4.64s-6.3 1.97-8.19 4.64c-1.89 2.68-2.78 6.01-2.78 9.24s.9 6.56 2.78 9.24c1.89 2.68 4.75 4.64 8.19 4.64ZM626.98 139.24h-14.66M609.76 139.24H595.1" class="cls-1"/><path d="M91.2 125.21h31.87v39.58H91.2zM105.85 125.21v39.58M108.4 125.21v39.58M107.13 125.21v39.58M123.06 151.6H108.4M105.85 151.6H91.19M105.85 139.27H91.19M123.06 139.27H108.4M190.62 123.94h34.42v42.13h-34.42zM206.55 150.75h-14.66M223.77 150.75h-14.66M206.55 137.57h-14.66M609.76 151.58H595.1M223.77 137.57h-14.66M312.36 239.66l-.03 70.54M384.3 346.54v8.54l-30.26-5.05-30.27 5.02v-8.55l30.27-5.01zM626.98 151.58h-14.66M611.04 125.19v39.57M612.32 125.19v39.57M609.77 125.19v39.57M626.98 138.39h-14.66M626.98 137.54h-14.66M609.76 137.54H595.1M626.98 150.73h-14.66M609.76 150.73H595.1M593.83 123.91h34.42v42.13h-34.42zM526.14 139.24h-14.66M508.92 139.24h-14.66M491.04 239.74h38.24v70.54h-38.24z" class="cls-1"/><path d="M488.92 237.61h42.49v74.78h-42.49zM510.16 239.74v70.53M482.54 224.58v6.43l27.62-3.79 27.62 3.79v-6.43l-27.62-3.79zM482.54 312.4v6.37h55.24v-6.37M595.11 125.19h31.87v39.58h-31.87zM626.98 152.43h-14.66M609.76 152.43H595.1M313.46 438.62h81.12M354.03 366.36v84.86M609.76 138.39H595.1M589.91 239.66h38.24v70.54h-38.24z" class="cls-1"/><path d="M587.79 237.54h42.49v74.78h-42.49zM609.04 239.66v70.54M581.42 224.5v6.44l27.62-3.79 27.61 3.79v-6.44l-27.61-3.79zM581.42 312.32v6.37h55.23v-6.37M508.92 151.58h-14.66" class="cls-1"/><path d="M433.72 186.51H688.5M694.78 196.18v255.04M694.78 344.19h89.24M694.78 196.08v255.14M174.71 64.22l72.09-30.21M64.06 110.59l78.76-33.01M547.65 65.95l-76.22-31.94M654.16 110.59l-78.29-32.81M27.42 189.99h248.56M471.43 34.01H246.8M694.78 196.08l-19.69-30-20.95-55.51M29.7 186.51h254.81M284.46 189.99h.05M23.42 196.08l19.7-30 20.94-55.49M442.2 189.99h248.59M23.42 196.18v263.51M23.42 196.08h252.56M442.2 196.08h252.58M433.72 186.51H284.51M433.72 189.99H284.51M284.46 196.08h149.26M784.02 344.19l93.7 81.91M23.42 196.08v265.5M694.78 196.08c0 2.35 1.9 4.25 4.25 4.25s4.25-1.9 4.25-4.25M694.78 196.08h8.5M616.16 110.57h37.98M174.71 109.48V34.07h-31.89v75.41M575.87 110.57h30.06M212.9 110.57h292.19M64.03 110.57h38.03M515.32 110.57h32.33M112.2 110.57h90.56M547.65 35.16h28.22v151.35h-28.22z" class="cls-5"/><path d="M549.17 32.92h25.19v2.25h-25.19zM550.47 27.58h22.59v5.34h-22.59z" class="cls-5"/><path d="M547.65 35.16h28.22v151.35h-28.22z" class="cls-5"/><path d="M549.17 32.92h25.19v2.25h-25.19zM550.47 27.58h22.59v5.34h-22.59zM147.39 23.35h22.76v10.72h-22.76z" class="cls-5"/></g><g id="Calque_2" class="cls-31" data-name="Calque 2" style="clip-path:url(#clippath-4)"><path d="M766.63 269.5c-3.42 6.2-9.06 10.36-14.21 14.87-3.74 3.27-6.99 6.87-9.99 10.75-3.48 4.5-3.85 9.14-1.32 14.37 6.31 13.02 5.33 15.64-7.35 22.74-8.02 4.49-16.5 7.99-25.22 10.74-12.92 4.08-17.89 13.07-18.76 26.05-1.6 23.88-.37 47.78-1.23 71.65-.12 3.47.28 7.09-3.19 11.24-3.03-9.05-1.59-17.32-1.42-25.5.56-26.23 3.23-52.55-6.82-78-5.2-13.19-14.19-20.62-27.77-23.14-1.31-.24-2.7-.17-3.64-1.36 1.6-8.4-2.38-16.56-.47-25.19 2.88-13.02 11.88-21.9 19.35-31.9 2.15-2.88 9.88-6.43-.94-7.94-1.28-.18-3.14-1.7-2.43-3.45.84-2.1 2.62-.64 4.02-.3 2.16.53 4.29 1.25 6.48 1.57 3.54.52 5.28-1.89 6.53-4.65 1.15-2.52 3.78-5.08 1.38-7.95-1.87-2.25-4.56-1.89-7.42-1.31-4.91 1.01-9.96 2.25-13.87-3.11-1.65-2.26-4.56-2.85-6.01 1.24-1.32 3.72-5.8 4.3-7.51 2.79-2.28-2.02-7.55-4.47-5.36-8.18 4.71-7.94-.34-7.76-5.56-8.11 8.2-13.17 11.68-28.4 18.41-42.24 10.85-22.32 21.68-44.56 40.25-61.83 5.47-5.08 11.65-8.96 18.8-11.22 12.16-3.84 20.13-1.25 28.09 8.9 7.57 9.65 10.67 20.9 12.16 32.78 1.48 11.77 1.52 23.6 1.29 35.42-.1 4.87 1.45 8.48 5.17 11.65 7.21 6.14 13.16 13.31 16.23 22.5-6.34-1.37-12.58-1.96-19.11-.38-4.37 1.06-9.66 1.93-13.59.43-6.19-2.37-10.28-.97-13.84 3.72-1.71 2.25-3.73 4.03-6.02 2.1-4.99-4.21-9.1-2.14-13.96.31-4.88 2.46-9.63 5.29-15.11 6.67-5.46 1.38-7.12 9.95-2.42 13.06 4.41 2.91 4.61 5.12-1.08 8.68 7.67.33 13.53-.56 19.36-.61 5.1-.04 6.16.96 4.75 5.51-1.36 4.39-.25 6.27 4.77 4.89 2.63-.72 5.99.15 7.36 2.17 2.08 3.06-2.51 3.37-3.46 5.39-.47 1-1.15 1.91-1.77 2.83-3.84 5.61 1.64 7.97 4.25 10.83 2.87 3.15 7.29 1.5 8.63-1.28 2.45-5.1 6.98-7.2 11.28-8.52 4.52-1.39 4.55-7 9.51-7.62 3.72-.46 8.12.19 10.83-4.24.9-1.47 1.58 1.09 1.95 2.19Z" class="cls-12"/><path d="M633.92 227.43c5.23.35 10.27.17 5.56 8.11-2.2 3.71 3.07 6.16 5.36 8.18 1.71 1.52 6.19.93 7.51-2.79 1.45-4.09 4.35-3.51 6.01-1.24 3.92 5.37 8.96 4.12 13.87 3.11 2.86-.59 5.54-.94 7.42 1.31 2.39 2.87-.24 5.43-1.38 7.95-1.26 2.76-2.99 5.17-6.53 4.65-2.19-.32-4.32-1.04-6.48-1.57-1.4-.34-3.17-1.8-4.02.3-.7 1.76 1.16 3.27 2.43 3.45 10.82 1.51 3.09 5.06.94 7.94-7.47 10-16.47 18.88-19.35 31.9-1.91 8.63 2.07 16.79.47 25.19-11.9-1.75-23.51-3.88-34.29-10.12-15.57-9.02-20.21-23.42-21.96-39.72-.21-1.99-.1-4.01-.1-6.02 0-14.53 5.9-22.65 19.9-27.3 9-2.99 18.92-4.27 24.63-13.32Zm6.06 16.85c.18.07.37.13.55.2.06-.16.2-.42.15-.47-.14-.12-.35-.15-.54-.21-.06.16-.11.32-.17.48ZM766.63 269.5c-.37-1.1-1.05-3.66-1.95-2.19-2.71 4.43-7.12 3.78-10.83 4.24-4.95.62-4.99 6.23-9.51 7.62-4.29 1.32-8.82 3.43-11.28 8.52-1.34 2.79-5.76 4.43-8.63 1.28-2.61-2.85-8.08-5.21-4.25-10.83.63-.92 1.3-1.83 1.77-2.83.95-2.02 5.54-2.33 3.46-5.39-1.38-2.02-4.74-2.89-7.36-2.17-5.02 1.38-6.12-.5-4.77-4.89 1.41-4.56.35-5.55-4.75-5.51-5.83.05-11.7.94-19.36.61 5.69-3.56 5.49-5.77 1.08-8.68-4.7-3.1-3.04-11.68 2.42-13.06 5.48-1.38 10.23-4.21 15.11-6.67 4.86-2.45 8.96-4.53 13.96-.31 2.29 1.94 4.31.15 6.02-2.1 3.56-4.68 7.65-6.09 13.84-3.72 3.93 1.5 9.21.63 13.59-.43 6.54-1.58 12.77-.99 19.11.38 6.46 16.87 6.52 32.68-7.68 46.11Zm6.06-41.16c-.36-.16-.81-.52-1.07-.42s-.54.75-.44 1.01.75.55 1.01.44.35-.67.51-1.04Z" class="cls-12"/><path d="M639.98 244.28c.06-.16.11-.32.17-.48.18.07.4.1.54.21.05.04-.1.3-.15.47l-.55-.2ZM772.69 228.34c-.16.37-.24.93-.51 1.03-.26.1-.91-.18-1.01-.44-.1-.27.18-.91.44-1.01s.71.26 1.07.42Z" class="cls-12"/></g></svg>