<svg xmlns="http://www.w3.org/2000/svg" id="Calque_1" data-name="Calque 1" viewBox="0 0 828.94 464.79"><defs><pattern id="Lignes_de_cercle" width="85.5" height="93" x="0" y="0" data-name="Lignes de cercle" patternTransform="matrix(.8 0 0 .8 2844.18 2562.02)" patternUnits="userSpaceOnUse"><path d="M0 0h85.5v93H0z" class="cls-9"/><path d="M85.5 3.71c19.29-.73 40.5-.71 69 .29 4.34.15 11.31-.3 16.5-.29M85.5 10.56c24.5-2.56 45.73 1.22 63-.56 3.67-.38 12.75.46 22.5.56M85.5 17.49c21.5-1.49 27.3 1.4 59-1.24 9-.75 23.49 1.42 26.5 1.24M85.5 22.9c14.41.72 30.66 2.35 49.63.4 9.76-1 22.62-.14 35.88-.4M85.5 36.71c18.07-.27 22.29-1.93 56-.21 14.75.75 22.5 1 29.5.21M85.5 42.94c12.85.5 24.5-1.44 45.62.11 16.54 1.21 29.92-1.42 39.88-.11M85.5 56.38c20.5-.38 17.51-.75 45 .12 31.5 1 40.01-.13 40.5-.12M85.5 63.66c20.94-.32 17.61 1.03 50.25-.91 2.06-.12 26.25 2.25 35.25.91M85.5 68.9c14.34.97 32 1.6 50.62.65 9.51-.48 20.38.45 34.88-.65M85.5 75.9c20.94.53 52.5-.4 73.5.35 1.41.05 10.49-.28 12-.35M85.5 83.41c30-1.91 65 1.09 79.5.09 1.76-.12 4.1-.04 6-.09M85.5 89.53c10.68.16 21.46-1.1 38.5-.03 24 1.5 41.78.12 47 .03M85.5 50.29c22.15-.63 46.5-1.79 57.75-.79 13.84 1.23 26.95.81 27.75.79M85.5 29.71c18.07-.27 22-1.21 46-.21 21.48.89 30.5 1 39.5.21M0 3.71C19.29 2.98 40.5 3 69 4c4.34.15 11.31-.3 16.5-.29M0 10.56C24.5 8 45.73 11.78 63 10c3.67-.38 12.75.46 22.5.56M0 17.49c21.5-1.49 27.3 1.4 59-1.24 9-.75 23.49 1.42 26.5 1.24" class="cls-4"/><path d="M0 22.9c14.41.72 30.66 2.35 49.63.4 9.76-1 22.62-.14 35.88-.4M0 36.71c18.07-.27 22.29-1.93 56-.21 14.75.75 22.5 1 29.5.21M0 42.94c12.85.5 24.5-1.44 45.62.11 16.54 1.21 29.92-1.42 39.88-.11M0 56.38c20.5-.38 17.51-.75 45 .12 31.5 1 40.01-.13 40.5-.12M0 63.66c20.94-.32 17.61 1.03 50.25-.91 2.06-.12 26.25 2.25 35.25.91M0 68.9c14.34.97 32 1.6 50.62.65 9.51-.48 20.38.45 34.88-.65M0 75.9c20.94.53 52.5-.4 73.5.35 1.41.05 10.49-.28 12-.35M0 83.41c30-1.91 65 1.09 79.5.09 1.76-.12 4.1-.04 6-.09M0 89.53c10.68.16 21.46-1.1 38.5-.03 24 1.5 41.78.12 47 .03M0 50.29c22.15-.63 46.5-1.79 57.75-.79 13.84 1.23 26.95.81 27.75.79M0 29.71c18.07-.27 22-1.21 46-.21 21.48.89 30.5 1 39.5.21M-85.5 3.71C-66.21 2.98-45 3-16.5 4c4.34.15 11.31-.3 16.5-.29M-85.5 10.56C-61 8-39.77 11.78-22.5 10c3.67-.38 12.75.46 22.5.56M-85.5 17.49c21.5-1.49 27.3 1.4 59-1.24 9-.75 23.49 1.42 26.5 1.24" class="cls-4"/><path d="M-85.5 22.9c14.41.72 30.66 2.35 49.63.4 9.76-1 22.62-.14 35.88-.4M-85.5 36.71c18.07-.27 22.29-1.93 56-.21 14.75.75 22.5 1 29.5.21M-85.5 42.94c12.85.5 24.5-1.44 45.62.11 16.54 1.21 29.92-1.42 39.88-.11M-85.5 56.38c20.5-.38 17.51-.75 45 .12 31.5 1 40.01-.13 40.5-.12M-85.5 63.66c20.94-.32 17.61 1.03 50.25-.91C-33.19 62.63-9 65 0 63.66M-85.5 68.9c14.34.97 32 1.6 50.62.65 9.51-.48 20.38.45 34.88-.65M-85.5 75.9c20.94.53 52.5-.4 73.5.35 1.41.05 10.49-.28 12-.35M-85.5 83.41c30-1.91 65 1.09 79.5.09 1.76-.12 4.1-.04 6-.09M-85.5 89.53c10.68.16 21.46-1.1 38.5-.03 24 1.5 41.78.12 47 .03M-85.5 50.29c22.15-.63 46.5-1.79 57.75-.79 13.84 1.23 26.95.81 27.75.79M-85.5 29.71c18.07-.27 22-1.21 46-.21 21.48.89 30.5 1 39.5.21" class="cls-4"/></pattern><pattern id="Nouveau_motif" width="17.34" height="10.88" x="0" y="0" data-name="Nouveau motif" patternTransform="translate(7310.65 7239.68)scale(2.25)" patternUnits="userSpaceOnUse"><path d="M0 0h17.34v10.88H0z" class="cls-9"/><path d="M5.81 7.41c.13-.31 1.18.05 2.88.04.4 0 .59-.02 1.07 0 .8.04.82.12 1.43.15.92.05 1.81.1 2.46-.17.09-.04.36-.16.53-.04.02.02.09.07.14.31s.02.39 0 .63c-.01.2 0 .1 0 .73 0 .54-.02.44-.01.64.01.44.06.54-.03.68s-.24.2-.41.27c-.14.06-.29.09-.53.1-.36.02-.54-.01-.85-.03-.27-.01-.39 0-.81.03-.81.04-.8 0-1.85.04-.87.03-.93.06-1.47.05-.63 0-.57-.05-1.06-.04-.17 0-.43.01-.76-.05-.4-.08-.5-.18-.55-.26-.03-.04-.06-.11-.08-.41-.02-.28 0-.49 0-.57.02-.49-.06-.44-.05-.99 0-.37.05-.5 0-.81-.04-.25-.08-.26-.05-.32ZM23.09 10.73c-.13.31-1.18-.05-2.88-.04-.4 0-.62-.26-1.1-.29-.8-.04-.79.16-1.4.13-.92-.05-1.78-.31-2.42-.04-.09.04-.4.37-.57.25-.02-.02-.09-.07-.14-.31s.16-.3.18-.55c.01-.2-.03-.16-.03-.8 0-.54-.03-.43-.04-.64-.01-.44-.16-.56-.08-.71.09-.14.24-.2.41-.27.14-.06.29-.09.53-.1.36-.02.54.01.85.03.27.01.49.17.91.15.81-.04.73-.07 1.78-.1.87-.03 1.03.06 1.56.06.63 0 .45-.18.94-.19.17 0 .43-.01.76.05.4.08.5.18.55.26.03.04.06.11.08.41.02.28-.06.29-.07.36-.02.49-.13.52-.14 1.07 0 .37.21.62.26.94.04.25.08.26.05.32ZM5.75 10.73c-.13.31-1.18-.05-2.88-.04-.4 0-.62-.26-1.1-.29-.8-.04-.79.16-1.4.13-.92-.05-1.78-.31-2.42-.04-.09.04-.4.37-.57.25-.02-.02-.09-.07-.14-.31s.16-.3.18-.55c.01-.2-.03-.16-.03-.8 0-.54-.03-.43-.04-.64-.01-.44-.16-.56-.08-.71.09-.14.24-.2.41-.27.14-.06.29-.09.53-.1.36-.02.54.01.85.03.27.01.49.17.91.15.81-.04.73-.07 1.78-.1.87-.03 1.03.06 1.56.06.63 0 .45-.18.94-.19.17 0 .43-.01.76.05.4.08.5.18.55.26.03.04.06.11.08.41.02.28-.06.29-.07.36-.02.49-.13.52-.14 1.07 0 .37.21.62.26.94.04.25.08.26.05.32ZM.03 3.78c.13-.31 1.18.05 2.88.04.4 0 .59-.02 1.07 0 .8.04.82.12 1.43.15.92.05 1.81.1 2.46-.17.09-.04.36-.16.53-.04.02.02.09.07.14.31s.02.39 0 .63c-.01.2 0 .1 0 .73 0 .54-.02.44-.01.64.01.44.06.54-.03.68s-.24.2-.41.27c-.14.06-.29.09-.53.1-.36.02-.54-.01-.85-.03-.27-.01-.39 0-.81.03-.81.04-.8 0-1.85.04-.87.03-.93.06-1.47.05-.63 0-.57-.05-1.06-.04-.17 0-.43.01-.76-.05-.4-.08-.5-.18-.55-.26-.03-.04-.06-.11-.08-.41-.02-.28 0-.49 0-.57.02-.49-.06-.44-.05-.99 0-.37.05-.5 0-.81-.04-.25-.08-.26-.05-.32ZM17.31 7.1c-.13.31-1.18-.05-2.88-.04-.4 0-.62-.26-1.1-.29-.8-.04-.79.16-1.4.13-.92-.05-1.78-.31-2.42-.04-.09.04-.4.37-.57.25-.02-.02-.09-.07-.14-.31s.16-.3.18-.55c.01-.2-.03-.16-.03-.8 0-.54-.03-.43-.04-.64-.01-.44-.16-.56-.08-.71.09-.14.24-.2.41-.27.14-.06.29-.09.53-.1.36-.02.54.01.85.03.27.01.49.17.91.15.81-.04.73-.07 1.78-.1.87-.03 1.03.06 1.56.06.63 0 .45-.18.94-.19.17 0 .43-.01.76.05.4.08.5.18.55.26.03.04.06.11.08.41.02.28-.06.29-.07.36-.02.49-.13.52-.14 1.07 0 .37.21.62.26.94.04.25.08.26.05.32ZM11.6.15c.13-.31 1.18.05 2.88.04.4 0 .59-.02 1.07 0 .8.04.82.12 1.43.15.92.05 1.81.1 2.46-.17.09-.04.36-.16.53-.04.02.02.09.07.14.31s.02.39 0 .63c-.01.2 0 .1 0 .73 0 .54-.02.44-.01.64.01.44.06.54-.03.68s-.24.2-.41.27c-.14.06-.29.09-.53.1-.36.02-.54-.01-.85-.03-.27-.01-.39 0-.81.03-.81.04-.8 0-1.85.04-.87.03-.93.06-1.47.05-.63 0-.57-.05-1.06-.04-.17 0-.43.01-.76-.05-.4-.08-.5-.18-.55-.26-.03-.04-.06-.11-.08-.41-.02-.28 0-.49 0-.57.02-.49-.06-.44-.05-.99 0-.37.05-.5 0-.81-.04-.25-.08-.26-.05-.32ZM-5.75.15c.13-.31 1.18.05 2.88.04.4 0 .59-.02 1.07 0 .8.04.82.12 1.43.15.92.05 1.81.1 2.46-.17.09-.04.36-.16.53-.04.02.02.09.07.14.31s.02.39 0 .63c-.01.2 0 .1 0 .73 0 .54-.02.44-.01.64.01.44.06.54-.03.68s-.24.2-.41.27c-.14.06-.29.09-.53.1-.36.02-.54-.01-.85-.03-.27-.01-.39 0-.81.03-.81.04-.8 0-1.85.04-.87.03-.93.06-1.47.05-.63 0-.57-.05-1.06-.04-.17 0-.43.01-.76-.05-.4-.08-.5-.18-.55-.26-.03-.04-.06-.11-.08-.41-.02-.28 0-.49 0-.57.02-.49-.06-.44-.05-.99 0-.37.05-.5 0-.81-.04-.25-.08-.26-.05-.32ZM11.53 3.48c-.13.31-1.18-.05-2.88-.04-.4 0-.62-.26-1.1-.29-.8-.04-.79.16-1.4.13-.92-.05-1.78-.31-2.42-.04-.09.04-.4.37-.57.25-.02-.02-.09-.07-.14-.31s.16-.3.18-.55c.01-.2-.03-.16-.03-.8 0-.54-.03-.43-.04-.64-.01-.44-.16-.56-.08-.71.09-.14.24-.2.41-.27.14-.06.29-.09.53-.1.36-.02.54.01.85.03.27.01.49.17.91.15.81-.04.73-.07 1.78-.1.87-.03 1.03.06 1.56.06.63 0 .45-.18.94-.19.17 0 .43-.01.76.05.4.08.5.18.55.26.03.04.06.11.08.41.02.28-.06.29-.07.36-.02.49-.13.52-.14 1.07 0 .37.21.62.26.94.04.25.08.26.05.32Z" class="cls-8"/></pattern><clipPath id="clippath"><path d="M90.01 447.01H15.08v-37.54h74.93z" class="cls-9"/></clipPath><style>.cls-1,.cls-2,.cls-4,.cls-5,.cls-7,.cls-8{stroke-miterlimit:10}.cls-1,.cls-2,.cls-5,.cls-7{stroke:#010101}.cls-1,.cls-10,.cls-2,.cls-4,.cls-5,.cls-7,.cls-8,.cls-9{fill:none}.cls-1,.cls-10{stroke-width:.09px}.cls-2,.cls-8{stroke-width:.05px}.cls-5{stroke-width:.25px}.cls-11,.cls-12{fill:#fff}.cls-4{stroke:#1e1e1c;stroke-dasharray:0 0 0 0 0 0 .1 3 .1 3 .1 6}.cls-10,.cls-11,.cls-4{stroke-linecap:round}.cls-12,.cls-14,.cls-16,.cls-9{stroke-width:0}.cls-14{fill:#9a9999}.cls-10,.cls-11{stroke-linejoin:round}.cls-11{stroke:#6a6a6a;stroke-width:.18px}.cls-10{stroke:#343434}.cls-7{stroke-width:.3px}.cls-8{stroke:#676767}.cls-16{fill:url(#Lignes_de_cercle)}</style></defs><path d="m470.91 182.27 4-3.83L596.78 45.21l78.69 93.72 83.45 68.78v170.16" class="cls-5"/><path d="M477.08 45.21h20.4v108.55l-20.4 22.3zM709.79 104.16h26.61v84.98l-26.61-21.92z" class="cls-5"/><path d="m844.28 184.27-29.41-20.94-46.79-41.08-25.85 41.08-12.03 12.92" class="cls-5"/><path d="m46.09 114.34 204.76-80.65 203.6 80.65h-82.7l-4.17-2.51-4.17 2.51-106.69-.05-5.47-2.44-5.4 2.49H144.73l-4.32-2.51-4.03 2.51zM21.22 195.85h458.1l-15.26-21.76-429.64.02z" class="cls-16"/><path d="M18.83 199.3h463.26" class="cls-7"/><path d="m46.09 114.34-11.67 59.77 429.64-.02-9.61-59.75z" class="cls-16"/><path d="M14.24 206.03h472.27V453.7H14.24z" style="stroke-width:0;fill:url(#Nouveau_motif)"/><path d="M366.22 157.81h-15.59M64.27 27.45h24.02v5.68H64.27zM62.89 33.13h26.79v2.39H62.89zM184.14 363.52c.02-43.03.03-86.05.05-129.08-2.33-.55-4.65-1.09-6.98-1.64-12.02-2.82-24.82-4.03-36.45-4.04-11.62 0-24.4 1.21-36.41 4.04-2.32.55-4.65 1.09-6.97 1.64-.02 43.03-.03 86.05-.05 129.08M411.17 363.52c.02-43.03.03-86.05.05-129.08-2.33-.55-4.65-1.09-6.98-1.64-12.02-2.82-24.82-4.03-36.45-4.04-11.62 0-24.4 1.21-36.41 4.04-2.32.55-4.65 1.09-6.97 1.64-.02 43.03-.03 86.05-.05 129.08M259.83 296.6c1.39 0 1.8-1.83 1.8-2.87s-.41-2.87-1.8-2.87-1.8 1.83-1.8 2.87.41 2.87 1.8 2.87M246.41 264.02h7.19v51.52h-7.19z" class="cls-12"/><path d="M244.15 261.76h11.71v56.04h-11.71zM266.24 326.44h7.21v22.71h-7.21z" class="cls-12"/><path d="M263.98 324.18h11.73v27.22h-11.73zM246.39 326.44h7.21v22.71h-7.21z" class="cls-12"/><path d="M244.13 324.18h11.73v27.22h-11.73zM266.24 264.02h7.19v51.52h-7.19z" class="cls-12"/><path d="M263.98 261.76h11.71v56.04h-11.71z" class="cls-12"/><path d="M240.71 259.5h38.41v98.28h-38.41zM228.99 326.44h7.21v22.71h-7.21z" class="cls-12"/><path d="M226.73 324.18h11.73v27.22h-11.73zM229.01 264.02h7.19v51.52h-7.19z" class="cls-12"/><path d="M226.75 261.76h11.71v56.04h-11.71zM237.7 239.64v13.71M238.44 239.54v13.81M251.44 238.72l-.01 14.62M252.17 238.72v14.62M265.83 239.63v13.71M265.09 239.54v13.8M224.49 253.35l54.67-.01M224.49 253.8h54.67M224.49 255.27h54.67M224.49 255.8h54.67M224.49 256.47h54.67" class="cls-12"/><path d="M279.13 357.78c.01-38.48.03-76.97.04-115.45-9.03-2.53-18-3.61-27.36-3.61-9.34 0-18.3 1.08-27.32 3.61-.01 38.49-.03 76.99-.04 115.48" class="cls-12"/><path d="M279.87 357.78c.01-38.72.03-77.45.04-116.17-17.62-5.06-38.52-5.07-56.15 0-.01 38.73-.03 77.46-.04 116.2" class="cls-12"/><path d="M224.49 259.5h16.23v98.3h-16.23zM216.88 357.8h68.73v5.72h-68.73zM216.88 357.8l68.74-.02M350.52 239.64v13.7M351.42 239.54v13.8M367.33 238.72v14.62M368.23 238.72v14.62M384.95 239.63v13.71M384.05 239.54v13.8M334.35 253.34h66.92M334.35 253.8h66.92M334.35 255.27h66.92M334.35 255.8h66.92M334.35 256.47h66.92M367.81 259.5v98.3M334.34 259.5h66.93M333.4 357.8h68.73v5.72H333.4z" class="cls-12"/><path d="M401.23 357.78c.01-38.48.03-76.97.04-115.45-11.09-2.53-22.13-3.61-33.49-3.61-11.34 0-22.36 1.07-33.44 3.61-.01 38.49-.03 76.99-.04 115.48" class="cls-12"/><path d="M402.14 357.78c.01-38.72.03-77.45.04-116.17-21.58-5.06-47.16-5.07-68.74 0-.01 38.73-.03 77.46-.04 116.2M333.4 357.8l68.74-.02" class="cls-12"/><path d="M340.56 328.7h19.99v21.97h-19.99z" class="cls-12"/><path d="M337.85 325.98h25.41v27.4h-25.41zM337.85 325.98h25.41M337.85 302.88h25.41" class="cls-12"/><path d="M337.85 264.02h25.41v89.36h-25.41zM337.85 283.45h25.41M337.85 322.31h25.41M337.85 284.35h25.41M337.85 303.78h25.41M375.08 328.7h19.99v21.97h-19.99z" class="cls-12"/><path d="M372.37 325.98h25.41v27.4h-25.41zM397.78 325.98h-25.41M397.78 302.88h-25.41" class="cls-12"/><path d="M372.37 264.02h25.41v89.36h-25.41zM397.78 283.45h-25.41M397.78 322.31h-25.41M397.78 284.35h-25.41M397.78 303.78h-25.41M123.49 239.64v13.7M124.39 239.54v13.8M140.3 238.72v14.62M141.2 238.72v14.62M157.92 239.63v13.71M157.02 239.54v13.8M107.32 253.34h66.92M107.32 253.8h66.92M107.32 255.27h66.92M107.32 255.8h66.92M107.32 256.47h66.92M140.78 259.5v98.3M107.31 259.5h66.93M106.37 357.8h68.73v5.72h-68.73z" class="cls-12"/><path d="M174.2 357.78c.01-38.48.03-76.97.04-115.45-11.09-2.53-22.13-3.61-33.49-3.61-11.34 0-22.36 1.07-33.44 3.61-.01 38.49-.03 76.99-.04 115.48" class="cls-12"/><path d="M175.11 357.78c.01-38.72.03-77.45.04-116.17-21.58-5.06-47.16-5.07-68.74 0-.01 38.73-.03 77.46-.04 116.2M106.37 357.8l68.74-.02" class="cls-12"/><path d="M113.53 328.7h19.99v21.97h-19.99z" class="cls-12"/><path d="M110.82 325.98h25.41v27.4h-25.41zM110.82 325.98h25.41M110.82 302.88h25.41" class="cls-12"/><path d="M110.82 264.02h25.41v89.36h-25.41zM110.82 283.45h25.41M110.82 322.31h25.41M110.82 284.35h25.41M110.82 303.78h25.41M148.05 328.7h19.99v21.97h-19.99z" class="cls-12"/><path d="M145.34 325.98h25.41v27.4h-25.41zM170.75 325.98h-25.41M170.75 302.88h-25.41" class="cls-12"/><path d="M145.34 264.02h25.41v89.36h-25.41zM170.75 283.45h-25.41M170.75 322.31h-25.41M170.75 284.35h-25.41M170.75 303.78h-25.41M212.76 363.52h76.96v7.53h-76.96zM212.76 371.06h76.96v7.53h-76.96zM212.76 378.59h76.96v7.53h-76.96zM212.76 386.12h76.96v7.53h-76.96zM212.76 393.65h76.96v7.53h-76.96zM212.76 401.18h76.96v7.53h-76.96zM212.76 408.71h76.96v7.53h-76.96zM212.76 416.24h76.96v7.53h-76.96zM212.76 423.77h76.96v7.53h-76.96zM212.76 431.3h76.96v7.53h-76.96zM212.76 438.83h76.96v7.53h-76.96zM214.72 246.92v6.94M288.94 242.25v-7.44c-2.18-.63-4.36-1.25-6.55-1.88-10.11-2.9-20.83-4.15-30.58-4.15-9.74 0-20.45 1.24-30.55 4.15-2.18.63-4.36 1.25-6.54 1.88v7.44M288.94 253.86v-6.94" class="cls-12"/><path d="M207.61 363.52h5.16v82.84h-5.16zM289.73 363.52h5.16v82.84h-5.16zM288.9 357.79l.01-17.45M288.91 338.88l.03-81.9M214.71 256.98l-.02 81.9M214.69 340.34l-.01 17.46M384.53 145.59h-15.59M366.22 145.59h-15.59M366.22 158.71h-15.59M384.53 158.71h-15.59M367.58 130.65v42.08M368.94 130.65v42.08M366.23 130.65v42.08M350.64 130.65h33.89v42.09h-33.89zM384.53 159.61h-15.59M366.22 159.61h-15.59M366.22 144.69h-15.59M384.53 144.69h-15.59M384.53 143.79h-15.59M366.22 143.79h-15.59M384.53 157.81h-15.59" class="cls-12"/><path d="M349.28 129.29h36.6v44.8h-36.6zM157.5 145.59h-15.59M139.19 145.59H123.6M139.19 158.71H123.6M157.5 158.71h-15.59M140.55 130.65v42.08M141.91 130.65v42.08M139.2 130.65v42.08M123.61 130.65h33.89v42.09h-33.89zM157.5 159.61h-15.59M139.19 159.61H123.6M139.19 144.69H123.6M157.5 144.69h-15.59M157.5 143.79h-15.59M139.19 143.79H123.6M157.5 157.81h-15.59M139.19 157.81H123.6" class="cls-12"/><path d="M122.25 129.29h36.6v44.8h-36.6zM268.19 145.62H252.6M249.88 145.62h-15.59M249.88 158.74h-15.59M268.19 158.74H252.6M268.19 159.64H252.6M249.88 159.64h-15.59M249.88 144.72h-15.59M268.19 144.72H252.6M268.19 143.81H252.6M249.88 143.81h-15.59M268.19 157.83H252.6M249.88 157.83h-15.59M268.19 130.67c-5.64-3.06-11.43-3.33-16.96-3.33-5.56 0-11.39.28-16.93 3.33v42.09h33.89zM251.25 127.34v45.42M252.6 127.35v45.41M249.89 127.35v45.41M254.72 19.85c0 .87-1.1 1.34-1.71 1.54-.79.26-1.58.36-2.41.36s-1.62-.09-2.41-.36c-.62-.21-1.71-.67-1.71-1.54s1.1-1.34 1.71-1.54c.79-.26 1.58-.36 2.41-.36s1.62.1 2.41.36c.62.21 1.71.67 1.71 1.54" class="cls-12"/><path d="M249.78 13.61h1.95v20.24h-1.95zM61.28 108.36V35.52h30.01v61.02M205.21 255.42h9.72v1.56h-9.72zM117.68 132.77v26.02M158.85 129.29h18.3v44.8h-18.3z" class="cls-12"/><path d="M158.85 168.39h18.3v2.4h-18.3zM158.85 132.77h18.3v2.4h-18.3zM172.58 144.68v23.71M172.58 129.29v3.48M172.58 135.16v4.6M168 129.29v3.48M163.43 129.29v3.48M161.17 168.39l15.98-33.23M174.78 135.16l-15.93 33.14M163.43 158.79v9.6M168 149.27v19.119999999999997M168 135.16v14.11M163.43 132.77v26.02M330.98 129.29h18.3v44.8h-18.3z" class="cls-12"/><path d="M330.98 168.39h18.3v2.4h-18.3zM330.98 132.77h18.3v2.4h-18.3zM335.56 144.68v23.71M335.56 129.29v3.48M335.56 135.16v4.6M340.13 129.29v3.48M344.71 129.29v3.48M346.96 168.39l-15.98-33.23M333.35 135.16l15.93 33.14M344.71 158.79v9.6M340.13 149.27v19.119999999999997M340.13 135.16v14.11M344.71 132.77v26.02M385.88 129.29h18.3v44.8h-18.3z" class="cls-12"/><path d="M385.88 168.39h18.3v2.4h-18.3zM385.88 132.77h18.3v2.4h-18.3zM399.61 144.68v23.71M399.61 129.29v3.48M399.61 135.16v4.6M395.03 129.29v3.48M390.46 129.29v3.48M388.2 168.39l15.98-33.23M401.81 135.16l-15.93 33.14M390.46 156.07v12.32M395.03 149.27v19.119999999999997M395.03 135.16v14.11M390.46 132.77v26.02M486.51 371.16H294.89M207.61 371.16H14.03M362.79 422.53c0 1.17.96 1.98 1.86 2.44 1.01.51 2.01.69 3.13.69s2.12-.18 3.13-.69c.91-.46 1.86-1.27 1.86-2.44s-.96-1.98-1.86-2.44c-1.01-.51-2.01-.69-3.13-.69s-2.12.18-3.13.69c-.91.46-1.86 1.27-1.86 2.44M135.52 422.53c0 1.17.96 1.98 1.86 2.44 1.01.51 2.01.69 3.13.69s2.12-.18 3.13-.69c.91-.46 1.86-1.27 1.86-2.44s-.96-1.98-1.86-2.44c-1.01-.51-2.01-.69-3.13-.69s-2.12.18-3.13.69c-.91.46-1.86 1.27-1.86 2.44M413.48 70.2h29.04v8.75h-29.04z" class="cls-12"/><path d="M397.31 446.44v-30.46c0-8.59-2.46-17.45-7.57-24.51-5.1-7.04-12.86-12.14-21.95-12.14s-16.85 5.1-21.95 12.14c-5.12 7.06-7.58 15.92-7.58 24.51v30.46" class="cls-12"/><path d="M390.25 415.98c0-6.54-1.87-13.27-5.76-18.65-3.88-5.36-9.79-9.24-16.7-9.24-6.92 0-12.82 3.88-16.7 9.23-3.89 5.37-5.76 12.11-5.76 18.65v30.46h44.93v-30.46ZM390.25 446.44h7.06M390.25 436.21h7.06M390.25 425.99h7.06M390.25 415.77h7.06M390.25 436.19l7.06.06M385.36 398.62l5.53-5.46M389.01 406.5l6.64-2.97M378.92 391.77l3.5-7.61M345.32 446.44h-7.07M345.32 436.21h-7.07M345.32 425.99h-7.07M345.32 415.77h-7.07M345.31 436.19l-7.06.06M350.2 398.62l-5.52-5.46M346.55 406.5l-6.64-2.97M356.64 391.77l-3.5-7.61M364.02 388.49l-1.18-8.64M370.97 388.38l1-8.67M170.05 446.44v-30.46c0-8.59-2.46-17.45-7.57-24.51-5.1-7.04-12.86-12.14-21.95-12.14s-16.85 5.1-21.95 12.14c-5.12 7.06-7.58 15.92-7.58 24.51v30.46" class="cls-12"/><path d="M162.99 415.98c0-6.54-1.87-13.27-5.76-18.65-3.88-5.36-9.79-9.24-16.7-9.24s-12.82 3.88-16.7 9.23c-3.89 5.37-5.76 12.11-5.76 18.65v30.46H163v-30.46ZM162.99 446.44h7.06M162.99 436.21h7.06M162.99 425.99h7.06M162.99 415.77h7.06M162.99 436.19l7.06.06M158.1 398.62l5.52-5.46M161.75 406.5l6.64-2.97M151.66 391.77l3.5-7.61M118.05 446.44h-7.06M118.05 436.21h-7.06M118.05 425.99h-7.06M118.05 415.77h-7.06M118.05 436.19l-7.06.06M122.94 398.62l-5.53-5.46M119.29 406.5l-6.64-2.97M129.38 391.77l-3.5-7.61M136.76 388.49l-1.18-8.64M143.7 388.38l1.01-8.67M225.15 136.19v13.25M225.15 149.44v17.97M229.73 158.38v9.030000000000001M277.34 131.14v2.8M227.42 122.83l23.83-10.98M218.37 136.19l15.93 31.13M204.97 338.88h10.5v1.46h-10.5zM288.2 338.88h10.5v1.46h-10.5zM297.96 338.88v-81.9M275.04 122.81l-23.79-10.96M216 167.41h18.3v2.25H216zM288.94 256.98v81.9M288.94 340.34v23.18h9.02v-23.18M272.71 122.83h2.33M228.64 122.83v2.03h45.18v-1.99M214.72 338.88v-81.9M205.71 256.98v81.9M205.71 340.34v23.18h9.01v-23.18M224.46 355.63h54.67M247.91 207.6h7.63v7.63h-7.63z" class="cls-12"/><path d="M229.75 124.86v52.42h42.96v-52.42M272.71 122.86l-45.29-.03" class="cls-12"/><path d="M234.44 130.6c-6.06 0-12.4.28-18.44 3.33M231.98 167.41 216 136.19" class="cls-12"/><path d="M216 133.94v38.82h18.3v-42.09h-3.95M140.55 129.29H117.1v-3.34h46.91v3.34z" class="cls-12"/><path d="m140.55 111.83-23.45 14.12h46.91zM251.25 111.83l-23.46 10.98h46.91zM207.61 373.89H14.03M367.58 129.29h-23.45v-3.34h46.91v3.34zM344.13 125.95l23.45-14.12M391.04 125.95l-23.46-14.12M229.73 130.67v3.27M220.58 136.19v4.32M220.58 145.13v22.28M216 133.94h18.3v2.25H216zM486.51 373.89H294.89M220.58 132.13v1.81M225.15 131.13v2.81M255.54 210.57l33.36.06M288.9 226.75h-74.18M288.9 224.96h-74.18M214.72 206.03h74.18v9.2h-74.18zM247.91 210.57h-33.19M204.15 242.25h11.84v1.56h-11.84z" class="cls-12"/><path d="M204.72 243.8h10.7v1.56h-10.7zM205.21 245.36h9.72v1.56h-9.72zM204.72 253.86h10.7v1.56h-10.7zM287.39 242.25h11.84v1.56h-11.84z" class="cls-12"/><path d="M287.96 243.8h10.7v1.56h-10.7zM288.45 245.36h9.72v1.56h-9.72zM288.45 255.42h9.72v1.56h-9.72z" class="cls-12"/><path d="M287.96 253.86h10.7v1.56h-10.7zM205.71 246.92v6.94M214.72 242.25v-36.22h-9.01v36.22M214.72 253.86v-6.94M286.49 133.94v38.82h-18.3v-42.09h3.93M297.96 242.25v-36.22h-9.02v36.22" class="cls-12"/><path d="M268.03 130.6c6.06 0 12.4.28 18.44 3.33M281.91 132.13v1.81M288.94 246.92v6.94M297.96 253.86v-6.94M229.73 133.94v24.44M268.19 167.41h18.3v2.25h-18.3zM268.19 133.94h18.3v2.25h-18.3zM281.91 145.13v22.28M281.91 136.19v4.32M272.77 130.67v3.27M270.51 167.41l15.98-31.22M284.12 136.19l-15.93 31.13M272.77 158.38v9.030000000000001M277.34 149.44v17.97M277.34 136.19v13.25M272.77 133.94v24.44M103.95 129.29h18.3v44.8h-18.3z" class="cls-12"/><path d="M103.95 168.39h18.3v2.4h-18.3zM103.95 132.77h18.3v2.4h-18.3zM108.53 144.68v23.71M108.53 129.29v3.48M108.53 135.16v4.6M113.1 129.29v3.48M117.68 129.29v3.48M119.93 168.39l-15.98-33.23M106.32 135.16l15.93 33.14M117.68 158.79v9.6M113.1 149.27v19.119999999999997M113.1 135.16v14.11M367.58 111.83l-23.45 14.12h46.9zM205.21 215.23h92.75v148.31h-92.75z" class="cls-12"/><path d="M14.03 363.52h193.58v10.36H14.03zM294.89 363.47h191.62v10.41H294.89z" class="cls-12"/><path d="M272.7 177.96h-42.96v-.69h42.96zM158.79 174.81h-36.54v-.69h36.54zM385.85 174.77h-36.54v-.69h36.54zM349.29 129.39h36.52v3.06h-36.52z" class="cls-14"/><path d="M383.02 174.21v-41.76h2.85v41.76zM122.49 129.39h36.52v3.06h-36.52zM156.22 174.22v-41.76h2.85v41.76zM276.27 357.78V259.5h2.85v98.28zM411.27 363.48V234.46h1.43v129.02zM398.31 357.78V259.5h2.85v98.28z" class="cls-14"/><path d="M398.77 262.35H334.3v-2.85h64.47zM276.39 262.35h-51.9v-2.85h51.9zM287.51 438.83h-74.74v-1.43h74.74zM287.51 431.3h-74.74v-1.43h74.74zM287.51 423.77h-74.74v-1.43h74.74zM287.51 416.24h-74.74v-1.43h74.74zM287.51 408.71h-74.74v-1.43h74.74zM287.51 401.18h-74.74v-1.43h74.74zM287.51 393.65h-74.74v-1.43h74.74zM287.51 386.12h-74.74v-1.43h74.74zM287.51 378.58h-74.74v-1.43h74.74zM287.51 371.05h-74.74v-1.43h74.74zM171.75 262.35h-64.47v-2.85h64.47z" class="cls-14"/><path d="M171.2 357.78V259.5h2.85v98.28zM177.84 129.22v45.07h-.69v-45.07zM287.18 133.94v38.82h-.69v-38.82zM404.87 129.24v45.07h-.69v-45.07zM351.11 400.07c3.88-5.36 9.79-9.23 16.7-9.23 6.92 0 12.82 3.88 16.7 9.24 3.71 5.12 5.57 11.49 5.73 17.74v-1.83c0-6.54-1.87-13.27-5.76-18.65-3.88-5.36-9.79-9.24-16.7-9.24-6.92 0-12.82 3.88-16.7 9.23-3.89 5.37-5.76 12.11-5.76 18.65v30.46h.03v-27.72c0-6.54 1.87-13.28 5.76-18.65" class="cls-14"/><path d="M390.25 417.81v28.63h-44.9v2.73h44.93v-30.46c0-.3-.02-.6-.03-.91ZM124.1 400.07c3.88-5.36 9.79-9.23 16.7-9.23 6.92 0 12.82 3.88 16.7 9.24 3.71 5.12 5.57 11.49 5.73 17.74v-1.83c0-6.54-1.87-13.27-5.76-18.65-3.88-5.36-9.79-9.24-16.7-9.24-6.92 0-12.82 3.88-16.7 9.23-3.89 5.37-5.76 12.11-5.76 18.65v30.46h.03v-27.72c0-6.54 1.87-13.28 5.76-18.65" class="cls-14"/><path d="M163.23 417.81v28.63h-44.9v2.73h44.93v-30.46c0-.3-.02-.6-.03-.91ZM14.24 206.07h473.04v3.06H14.24zM14.24 373.89h193.37v3.06H14.24zM295.48 373.89h191.45v3.06H295.48zM289.73 320.77h197.21v3.06H289.73zM14.93 320.77h197.21v3.06H14.93zM268.19 130.67c-5.64-3.06-11.43-3.33-16.96-3.33-5.56 0-11.39.28-16.93 3.33v.91c4.67-1.81 9.46-2.03 14.08-2.03 5.53 0 11.32.28 16.96 3.34v39.86h2.85v-42.09ZM279.9 241.61c-17.62-5.06-38.52-5.07-56.15 0v1.24c17.24-4.57 37.31-4.4 54.34.48-.01 38.15-.03 76.3-.04 114.45h1.81c.01-38.72.03-77.45.04-116.17" class="cls-14"/><path d="M140.58 363.4v-104h1.25v104zM240.67 357.8v-98.4h1.25v98.4zM367.82 363.52v-104h1.25v104z" class="cls-14"/><path d="M175.15 241.61c-21.58-5.06-47.16-5.07-68.74 0v1.99c21.03-4.5 45.47-4.31 66.21.55-.01 37.88-.03 75.76-.04 113.64h2.53c.01-38.72.03-77.45.04-116.17ZM402.18 241.61c-21.58-5.06-47.16-5.07-68.74 0v1.99c21.03-4.5 45.47-4.31 66.21.55-.01 37.88-.03 75.76-.04 113.64h2.53c.01-38.72.03-77.45.04-116.17ZM140.58 172.81v-42.2h1.25v42.2zM251.35 172.81v-44.83h1.25v44.83zM367.58 175.48v-44.83h1.25v44.83zM287.51 444.84v-81.37h2.52v81.37zM204.97 447.74v-84.27h2.52v84.27zM367.55 111.68h2.69l23.46 14.12v3.44h-2.53v-3.33zM140.28 111.83h2.7l23.45 14.12v3.44h-2.52v-3.33zM273.82 124.86v-1.99l1.22-.06-23.94-10.98h3.54l22.61 10.38v8.93l-2.21-.28-2.27-.19-.06-5.81zM207.79 363.52v-43.04h1.25v43.04zM198.94 363.52v-43.04h1.25v43.04zM189 363.52v-43.04h1.25v43.04zM179.96 363.52v-43.04h1.25v43.04z" class="cls-14"/><path d="M161.89 363.53v-43.04h1.25v43.04zM152.85 363.52v-43.04h1.25v43.04zM143.82 363.53v-43.04h1.25v43.04zM134.78 363.53v-43.04h1.25v43.04zM125.74 363.52v-43.04h1.25v43.04zM116.7 363.53v-43.04h1.25v43.04zM106.42 363.52v-43.04h1.25v43.04zM97.38 363.52v-43.04h1.25v43.04zM88.35 363.53v-43.04h1.25v43.04zM79.65 363.98v-43.04h1.25v43.04zM70.62 363.98v-43.04h1.25v43.04zM61.58 363.97v-43.04h1.25v43.04zM52.54 363.98v-43.04h1.25v43.04zM43.51 363.98v-43.04h1.25v43.04zM34.47 363.97v-43.04h1.25v43.04zM25.43 363.98v-43.04h1.25v43.04zM16.4 363.98v-43.04h1.25v43.04zM353.29 363.53v-43.04h1.25v43.04zM344.25 363.52v-43.04h1.25v43.04zM335.21 363.52v-43.04h1.25v43.04zM326.18 363.53v-43.04h1.25v43.04zM317.14 363.52v-43.04h1.25v43.04zM308.1 363.52v-43.04h1.25v43.04zM299.06 363.53v-43.04h1.25v43.04zM290.03 363.53v-43.04h1.25v43.04zM426.66 363.53v-43.04h1.25v43.04zM417.63 363.53v-43.04h1.25v43.04zM408.59 363.52v-43.04h1.25v43.04zM399.55 363.53v-43.04h1.25v43.04zM390.52 363.53v-43.04h1.25v43.04zM381.48 363.52v-43.04h1.25v43.04zM372.44 363.53v-43.04h1.25v43.04zM363.41 363.53v-43.04h1.25v43.04zM481.87 363.52v-43.04h1.25v43.04zM472.62 363.52v-43.04h1.25v43.04zM462.55 363.53v-43.04h1.25v43.04zM453.51 363.52v-43.04h1.25v43.04zM444.47 363.52v-43.04h1.25v43.04zM435.44 363.53v-43.04h1.25v43.04zM287.51 365.05V207.6h1.43v157.45z" class="cls-14"/><path d="M286.04 242.28h1.79v1.46h-1.79zM286.43 243.74h1.79v1.62h-1.79zM286.93 245.36h1.79v1.46h-1.79zM204.17 363.48V207.61h1.43v155.87z" class="cls-14"/><path d="M202.7 241.93h1.79v1.45h-1.79zM203.1 243.38h1.79v1.6h-1.79zM203.6 244.98h1.79v1.45h-1.79zM203.6 253.45h1.79v1.45h-1.79zM203.83 254.99h1.79v1.45h-1.79zM214.7 215.23h74.24v1.85H214.7zM214.7 226.84h74.24v1.85H214.7zM412.56 232.85c-2.33-.55-4.65-1.09-6.98-1.64-12.02-2.82-24.82-4.03-36.45-4.04-11.62 0-24.4 1.21-36.41 4.04-2.32.55-4.65 1.09-6.97 1.64v1.28l5.63-1.32c12.02-2.82 24.79-4.04 36.41-4.04 11.64 0 24.43 1.22 36.45 4.04 2.33.55 4.65 1.09 6.98 1.64-.02 42.5-.03 84.99-.05 127.48h1.34c.02-43.03.03-86.05.05-129.08M185.31 232.85c-2.33-.55-4.65-1.09-6.98-1.64-12.02-2.82-24.82-4.03-36.45-4.04-11.62 0-24.4 1.21-36.41 4.04-2.32.55-4.65 1.09-6.97 1.64v1.28l5.63-1.32c12.02-2.82 24.79-4.04 36.41-4.04 11.64 0 24.43 1.22 36.45 4.04 2.33.55 4.65 1.09 6.98 1.64-.02 42.5-.03 84.99-.05 127.48h1.34c.02-43.03.03-86.05.05-129.08" class="cls-14"/><g style="opacity:.5"><g style="clip-path:url(#clippath)"><path d="M33.08 447.09c-.79 1.93-2.94 2.8-5.2 2.14-3.26-.95-5.21-2.97-6.27-5.63-.96-2.42.34-3.95 3.32-4.16.94-.07 1.95.37 2.64-.78.76-1.26-.22-1.84-.87-2.63-3.07-3.76-1.76-6.54 3.49-7.39 1.14-.18 2.58.24 2.72-1.48.09-1.06 1.43-1.78 1.15-3.14-.85-4.13 4.34-8.11 9.15-7.4 3.26.48 5.18 2.14 6.61 4.4.82 1.29 1.38 1.52 2.91.46 2.99-2.07 6.53-2.03 9.81-.57 3.25 1.45 5.74 3.6 5.69 7.08-.03 2.15-.59 4.11-2.73 5.52-.41.27-.94.7-.38 1.17.5.42.81-.14 1.14-.36 1.18-.79 2.6-.76 3.86-.49 1.31.28 2.35.12 3.59-.27 2.87-.91 7.13.84 8.12 3.15 1.19 2.76-.02 4.97-3.47 6.28-.47.18-.95.22-.6.77 1.62 2.54-2.49 4.48-1.03 7.02.07.12-.3.45-.52.64-1.68 1.42-5.93 1.98-8.18 1.1-.38-.41-.01-1.11-.72-1.4.04-.67.56-1.09 1.14-1.44.5-.3.93-.58.31-1.08-.45-.37-.86-.82-1.59-.33-2.29 1.55-4.24.55-6.14-.65-.52-.32-1.11-.8-1.56-.13-.41.61.45.68.88.9 1.73.9 2.74 2.16 2.7 3.94-.42.23-.52.49-.08.78.95.82 2.6 1.41 1.97 2.88-.61 1.41-2.28 1.49-3.78 1.63-.62.06-1.26.03-1.89.01-2.04-.05-3.7-.39-3.9-2.61-.1-1.11-1.26-1.35-2.31-.75-1.03.59-1.82 1.26-1.81 2.59.02 4.15-.22 8.3-.35 12.45h-.53c-.27-3.52-.35-7.03.24-10.54.22-1.33.64-2.95-2.23-2.5-.65.1-1.48-.38-2.16-.69-1.1-.49-2-1.25-3.39-1.3-1.32-.04-2.76-.43-2.45-1.83.32-1.44 1.89-1.4 3.27-1.21.76.11 1.54.67 2.47-.35-1.78.06-2.05-.71-1.81-1.76-.53-1.47 1.17-.16 1.33-.77.52 2.64 1.78 3.09 5.12 1.95h.43c.13.27.52.8.62.52.7-1.99 3.07-2.19 4.58-3.29 1.15-2.5-.04-4.12-2.59-5.39-1.46-.73-.4-2.09-.71-3.13.19-.02.39-.05.58-.07 1.63.43 1.16 2.52 3.03 2.75.21.04.42.09.63.13 1.58.46 3.06 1.31 4.87.8.48-.14 1.18.11 1.28-.56.09-.56-.37-.84-.89-1.05.47-1.68-.94-2.05-2.34-2.42-1.11-1.22-2.61-1.74-4.36-1.55-.58.06-.84-.31-.77-.41.96-1.33-1.03-1.53-1.22-2.39.56-.31.93-.92 2.13-.5-1.39-1.33-2.56-2.31-.44-3.41.53-.28.93-.82.49-1.38-.18-.23-.66-.41-1.01-.4-1.29.02-.51.6-.38 1.06.09.31-.27.45-.61.44-.42 0-.79-.11-.9-.51-.17-.63-.39-1.33-1.35-.83-.75.39-1.72.83-1.3 1.89.32.8.3 1.58-.49 2.45-.81-1.95-3.01-1.85-4.72-2.48-.52-.19-1.35.05-1.09.63.43.95-.43 1.9.39 2.89 1.09 1.3-.55 2.01-1.47 2.49-1.32.69-.78-.76-1.26-1.12-.43-.32-.65-.85-1.04-1.38-.04.35-.04.61-.09.86-.17.74.53 1.9-.53 2.15-1.24.3-1.26-.84-1.49-1.61-.21-.7-1.01-.48-1.6-.54-1.7-.19-3.13-.61-3.02-2.42.7-.02 1.66.03 1.67-.71 0-.93-.94-1.4-2.43-1.88.88 1 .78 1.8.77 2.59-1.74.25-1.61 1.26-1.19 2.28.68 1.64 1.95 3.3-1.35 4.04-1.01.23-.63 1.96.59 2.39.62.22 1.38.16 2.08.22-.24.96-2.18 1.43-1.12 2.77-1.93 1.81-1.93 2.19-.02 2.82Zm28.87 5.2c.12-.06.11-.34.1-.52 0-.09-.15-.18-.22-.27-.08.17-.16.33-.22.46.09.19.05.47.34.33" class="cls-14"/><path d="M34.08 432.56c-.11 1.81 1.32 2.23 3.02 2.42.59.07 1.39-.16 1.6.54.23.77.25 1.91 1.49 1.61 1.06-.25.36-1.41.53-2.15.06-.25.06-.51.09-.86.39.53.61 1.06 1.04 1.38.48.36-.06 1.81 1.26 1.12.92-.48 2.56-1.19 1.47-2.49-.83-.99.03-1.94-.39-2.89-.26-.58.57-.82 1.09-.63 1.71.62 3.91.53 4.72 2.48.79-.87.81-1.65.49-2.45-.42-1.05.55-1.5 1.3-1.89.96-.5 1.18.21 1.35.83.11.4.48.51.9.51.34 0 .7-.14.61-.44-.13-.46-.91-1.04.38-1.06.34 0 .82.17 1.01.4.44.56.04 1.1-.49 1.38-2.12 1.1-.95 2.08.44 3.41-1.2-.43-1.57.18-2.13.5-2.88.15-5.32 1.55-8.06 2.09-.23.05-.4.55-.48.86-.64 2.28-2.48 3.27-5.09 3.43.06-.12.13-.24.19-.36.32-.62.6-1.33-.05-1.82-.43-.33-1.09.04-1.34.44-.49.78-.11 1.38.8 1.75-.09.12-.19.23-.28.35l-1.08-.03c-1.51-.37-3.03-.76-4.27.52-.7-.07-1.46 0-2.08-.22-1.22-.43-1.6-2.16-.59-2.39 3.3-.74 2.04-2.4 1.35-4.04-.42-1.02-.55-2.03 1.19-2.28Zm-.69 7.41c.03-.05.1-.11.09-.15 0-.05-.08-.09-.12-.14-.03.05-.07.1-.1.16zM56.36 447.56c1.15-2.5-.04-4.12-2.59-5.39-1.46-.73-.4-2.09-.71-3.13-.6-.01-1.28.21-1.37.63-.66 2.92-4.52 3.1-6.13 5.23-.31.42-1.53.84-2.12.25-.97-.98-2.77-1.34-2.87-2.85-1.44 1.16-1.21 2.75-1.84 4.09.01.2.08.41.03.6-.62 2.51.26 3.25 3.29 2.71.76-.14 1.5-.36 2.24-.54-.54-1.48 1.16-.17 1.33-.77.94-.52 1.34-1.65 2.84-1.57 3.06.15 2.12 2.07 2.28 3.52h.43c.02-.67 0-1.34.07-2 .06-.62-.19-1.37.93-1.61.97-.2 1.88-.72 2.78.17.33.33.93.45 1.4.67Z" class="cls-14"/><path d="M38.74 446.38c.63-1.34.41-2.93 1.84-4.09.1 1.52 1.89 1.87 2.87 2.85.58.59 1.8.16 2.12-.25 1.6-2.13 5.47-2.31 6.13-5.23.09-.42.77-.64 1.37-.63.19-.02.39-.05.58-.07-1.55-1.17-3.46-1.09-5.13-.59-3.24.98-3.96 3.41-3.87 6.24-.56-2.64-3.01-2.92-5.07-3.61l-1.08-.03c-.07.48-.37.83-.71 1.21-1.53 1.72-1.22 3 .96 4.19ZM63.04 452.34c-.42.23-.52.49-.08.78 1.44-.27 2.82-1.13 4.34.11.64.52.85-.16.72-.7-.38-.42-.02-1.11-.73-1.4-1.42.41-2.84.81-4.26 1.22ZM59.24 440.23c1.53-.98 2.11.85 3.33.81.47-1.68-.94-2.05-2.34-2.42-.33.54-.66 1.08-.98 1.62ZM57.3 441.85c.49-.41.99-.81 1.48-1.22-1.12-.22-2.09-.23-2.11 1.09.21.04.42.09.63.13M61.6 451.96c.09.19.05.47.34.33.12-.06.11-.34.1-.52 0-.09-.15-.18-.22-.27-.08.17-.16.33-.22.46M56.61 439.21s-.14.1-.13.13c.03.1.11.19.16.28.05-.04.15-.09.14-.12-.04-.1-.1-.19-.17-.3Z" class="cls-14"/><path d="M58.76 440.64c.16-.14.32-.27.48-.41-.32 0-.5.13-.48.41" class="cls-14"/></g></g><path d="M205.21 255.42h9.72v1.56h-9.72zM117.68 132.77v26.02M158.85 129.29h18.3v44.8h-18.3z" class="cls-10"/><path d="M158.85 168.39h18.3v2.4h-18.3zM158.85 132.77h18.3v2.4h-18.3zM172.58 144.68v23.71M172.58 129.29v3.48M172.58 135.16v4.6M168 129.29v3.48M163.43 129.29v3.48M161.17 168.39l15.98-33.23M174.78 135.16l-15.93 33.14M163.43 158.79v9.6M168 149.27v19.119999999999997M168 135.16v14.11M163.43 132.77v26.02M330.98 129.29h18.3v44.8h-18.3z" class="cls-10"/><path d="M330.98 168.39h18.3v2.4h-18.3zM330.98 132.77h18.3v2.4h-18.3zM335.56 144.68v23.71M335.56 129.29v3.48M335.56 135.16v4.6M340.13 129.29v3.48M344.71 129.29v3.48M346.96 168.39l-15.98-33.23M333.35 135.16l15.93 33.14M344.71 158.79v9.6M340.13 149.27v19.119999999999997M340.13 135.16v14.11M344.71 132.77v26.02M385.88 129.29h18.3v44.8h-18.3z" class="cls-10"/><path d="M385.88 168.39h18.3v2.4h-18.3zM385.88 132.77h18.3v2.4h-18.3zM399.61 144.68v23.71M399.61 129.29v3.48M399.61 135.16v4.6M395.03 129.29v3.48M390.46 129.29v3.48M388.2 168.39l15.98-33.23M401.81 135.16l-15.93 33.14M390.46 156.07v12.32M395.03 149.27v19.119999999999997M395.03 135.16v14.11M390.46 132.77v26.02M486.51 371.16H294.89M207.61 371.16H14.03M362.79 422.53c0 1.17.96 1.98 1.86 2.44 1.01.51 2.01.69 3.13.69s2.12-.18 3.13-.69c.91-.46 1.86-1.27 1.86-2.44s-.96-1.98-1.86-2.44c-1.01-.51-2.01-.69-3.13-.69s-2.12.18-3.13.69c-.91.46-1.86 1.27-1.86 2.44M135.52 422.53c0 1.17.96 1.98 1.86 2.44 1.01.51 2.01.69 3.13.69s2.12-.18 3.13-.69c.91-.46 1.86-1.27 1.86-2.44s-.96-1.98-1.86-2.44c-1.01-.51-2.01-.69-3.13-.69s-2.12.18-3.13.69c-.91.46-1.86 1.27-1.86 2.44" class="cls-10"/><path d="M413.48 70.2h29.04v8.75h-29.04z" class="cls-7"/><path d="M397.31 446.44v-30.46c0-8.59-2.46-17.45-7.57-24.51-5.1-7.04-12.86-12.14-21.95-12.14s-16.85 5.1-21.95 12.14c-5.12 7.06-7.58 15.92-7.58 24.51v30.46" class="cls-10"/><path d="M390.25 415.98c0-6.54-1.87-13.27-5.76-18.65-3.88-5.36-9.79-9.24-16.7-9.24-6.92 0-12.82 3.88-16.7 9.23-3.89 5.37-5.76 12.11-5.76 18.65v30.46h44.93v-30.46ZM390.25 446.44h7.06M390.25 436.21h7.06M390.25 425.99h7.06M390.25 415.77h7.06M390.25 436.19l7.06.06M385.36 398.62l5.53-5.46M389.01 406.5l6.64-2.97M378.92 391.77l3.5-7.61M345.32 446.44h-7.07M345.32 436.21h-7.07M345.32 425.99h-7.07M345.32 415.77h-7.07M345.31 436.19l-7.06.06M350.2 398.62l-5.52-5.46M346.55 406.5l-6.64-2.97M356.64 391.77l-3.5-7.61M364.02 388.49l-1.18-8.64M370.97 388.38l1-8.67M170.05 446.44v-30.46c0-8.59-2.46-17.45-7.57-24.51-5.1-7.04-12.86-12.14-21.95-12.14s-16.85 5.1-21.95 12.14c-5.12 7.06-7.58 15.92-7.58 24.51v30.46" class="cls-10"/><path d="M162.99 415.98c0-6.54-1.87-13.27-5.76-18.65-3.88-5.36-9.79-9.24-16.7-9.24s-12.82 3.88-16.7 9.23c-3.89 5.37-5.76 12.11-5.76 18.65v30.46H163v-30.46ZM162.99 446.44h7.06M162.99 436.21h7.06M162.99 425.99h7.06M162.99 415.77h7.06M162.99 436.19l7.06.06M158.1 398.62l5.52-5.46M161.75 406.5l6.64-2.97M151.66 391.77l3.5-7.61M118.05 446.44h-7.06M118.05 436.21h-7.06M118.05 425.99h-7.06M118.05 415.77h-7.06M118.05 436.19l-7.06.06M122.94 398.62l-5.53-5.46M119.29 406.5l-6.64-2.97M129.38 391.77l-3.5-7.61M136.76 388.49l-1.18-8.64M143.7 388.38l1.01-8.67M225.15 136.19v13.25M225.15 149.44v17.97M229.73 158.38v9.030000000000001M277.34 131.14v2.8M227.42 122.83l23.83-10.98M218.37 136.19l15.93 31.13M204.97 338.88h10.5v1.46h-10.5zM288.2 338.88h10.5v1.46h-10.5zM297.96 338.88v-81.9M275.04 122.81l-23.79-10.96M216 167.41h18.3v2.25H216zM288.94 256.98v81.9M288.94 340.34v23.18h9.02v-23.18M272.71 122.83h2.33M228.64 122.83v2.03h45.18v-1.99M214.72 338.88v-81.9M205.71 256.98v81.9M205.71 340.34v23.18h9.01v-23.18M224.46 355.63h54.67M247.91 207.6h7.63v7.63h-7.63zM272.71 133.94v-9.08M272.72 167.41l.05-31.22" class="cls-10"/><path d="M229.75 124.86v52.42h42.96l.01-7.62M272.71 122.86l-45.29-.03" class="cls-10"/><path d="M234.44 130.6c-6.06 0-12.4.28-18.44 3.33M231.98 167.41 216 136.19" class="cls-10"/><path d="M216 133.94v38.82h18.3v-42.09h-3.95M140.55 129.29H117.1v-3.34h46.91v3.34zM117.1 125.95l23.45-14.12M164.01 125.95l-23.46-14.12M207.61 373.89H14.03M367.58 129.29h-23.45v-3.34h46.91v3.34zM344.13 125.95l23.45-14.12M391.04 125.95l-23.46-14.12M229.73 130.67v3.27M220.58 136.19v4.32M220.58 145.13v22.28" class="cls-10"/><path d="M216 133.94h18.3v2.25H216zM486.51 373.89H294.89M220.58 132.13v1.81M225.15 131.13v2.81M255.54 210.57l33.36.06M288.9 226.75h-74.18M288.9 224.96h-74.18M214.72 206.03h74.18v9.2h-74.18zM247.91 210.57h-33.19M204.15 242.25h11.84v1.56h-11.84z" class="cls-10"/><path d="M204.72 243.8h10.7v1.56h-10.7zM205.21 245.36h9.72v1.56h-9.72zM204.72 253.86h10.7v1.56h-10.7zM287.39 242.25h11.84v1.56h-11.84z" class="cls-10"/><path d="M287.96 243.8h10.7v1.56h-10.7zM288.45 245.36h9.72v1.56h-9.72zM288.45 255.42h9.72v1.56h-9.72z" class="cls-10"/><path d="M287.96 253.86h10.7v1.56h-10.7zM205.71 246.92v6.94M214.72 242.25v-36.22h-9.01v36.22M214.72 253.86v-6.94M286.49 133.94v38.82h-18.3v-42.09h3.93M297.96 242.25v-36.22h-9.02v36.22" class="cls-10"/><path d="M268.03 130.6c6.06 0 12.4.28 18.44 3.33M281.91 132.13v1.81M288.94 246.92v6.94M297.96 253.86v-6.94M229.73 133.94v24.44M268.19 167.41h18.3v2.25h-18.3zM268.19 133.94h18.3v2.25h-18.3zM281.91 145.13v22.28M281.91 136.19v4.32M272.77 130.67v3.27M270.51 167.41l15.98-31.22M284.12 136.19l-15.93 31.13M272.77 158.38v9.030000000000001M277.34 149.44v17.97M277.34 136.19v13.25M272.77 136.19v22.189999999999998M103.95 129.29h18.3v44.8h-18.3z" class="cls-10"/><path d="M103.95 168.39h18.3v2.4h-18.3zM103.95 132.77h18.3v2.4h-18.3zM108.53 144.68v23.71M108.53 129.29v3.48M108.53 135.16v4.6M113.1 129.29v3.48M117.68 129.29v3.48M119.93 168.39l-15.98-33.23M106.32 135.16l15.93 33.14M117.68 158.79v9.6M113.1 149.27v19.119999999999997M113.1 135.16v14.11" class="cls-10"/><path d="M366.22 157.81h-15.59" class="cls-1"/><path d="M64.27 27.45h24.02v5.68H64.27zM62.89 33.13h26.79v2.39H62.89z" class="cls-7"/><path d="M184.14 363.52c.02-43.03.03-86.05.05-129.08-2.33-.55-4.65-1.09-6.98-1.64-12.02-2.82-24.82-4.03-36.45-4.04-11.62 0-24.4 1.21-36.41 4.04-2.32.55-4.65 1.09-6.97 1.64-.02 43.03-.03 86.05-.05 129.08M411.17 363.52c.02-43.03.03-86.05.05-129.08-2.33-.55-4.65-1.09-6.98-1.64-12.02-2.82-24.82-4.03-36.45-4.04-11.62 0-24.4 1.21-36.41 4.04-2.32.55-4.65 1.09-6.97 1.64-.02 43.03-.03 86.05-.05 129.08M259.83 296.6c1.39 0 1.8-1.83 1.8-2.87s-.41-2.87-1.8-2.87-1.8 1.83-1.8 2.87.41 2.87 1.8 2.87ZM246.41 264.02h7.19v51.52h-7.19z" class="cls-1"/><path d="M244.15 261.76h11.71v56.04h-11.71zM266.24 326.44h7.21v22.71h-7.21z" class="cls-1"/><path d="M263.98 324.18h11.73v27.22h-11.73zM246.39 326.44h7.21v22.71h-7.21z" class="cls-1"/><path d="M244.13 324.18h11.73v27.22h-11.73zM266.24 264.02h7.19v51.52h-7.19z" class="cls-1"/><path d="M263.98 261.76h11.71v56.04h-11.71z" class="cls-1"/><path d="M240.71 259.5h38.41v98.28h-38.41zM228.99 326.44h7.21v22.71h-7.21z" class="cls-1"/><path d="M226.73 324.18h11.73v27.22h-11.73zM229.01 264.02h7.19v51.52h-7.19z" class="cls-1"/><path d="M226.75 261.76h11.71v56.04h-11.71zM237.7 239.64v13.71M238.44 239.54v13.81M251.44 238.72l-.01 14.62M252.17 238.72v14.62M265.83 239.63v13.71M265.09 239.54v13.8M224.49 253.35l54.67-.01M224.49 253.8h54.67M224.49 255.27h54.67M224.49 255.8h54.67M224.49 256.47h54.67" class="cls-1"/><path d="M279.13 357.78c.01-38.48.03-76.97.04-115.45-9.03-2.53-18-3.61-27.36-3.61-9.34 0-18.3 1.08-27.32 3.61-.01 38.49-.03 76.99-.04 115.48" class="cls-1"/><path d="M279.87 357.78c.01-38.72.03-77.45.04-116.17-17.62-5.06-38.52-5.07-56.15 0-.01 38.73-.03 77.46-.04 116.2" class="cls-1"/><path d="M224.49 259.5h16.23v98.3h-16.23zM216.88 357.8h68.73v5.72h-68.73zM216.88 357.8l68.74-.02M350.52 239.64v13.7M351.42 239.54v13.8M367.33 238.72v14.62M368.23 238.72v14.62M384.95 239.63v13.71M384.05 239.54v13.8M334.35 253.34h66.92M334.35 253.8h66.92M334.35 255.27h66.92M334.35 255.8h66.92M334.35 256.47h66.92M367.81 259.5v98.3M334.34 259.5h66.93M333.4 357.8h68.73v5.72H333.4z" class="cls-1"/><path d="M401.23 357.78c.01-38.48.03-76.97.04-115.45-11.09-2.53-22.13-3.61-33.49-3.61-11.34 0-22.36 1.07-33.44 3.61-.01 38.49-.03 76.99-.04 115.48" class="cls-1"/><path d="M402.14 357.78c.01-38.72.03-77.45.04-116.17-21.58-5.06-47.16-5.07-68.74 0-.01 38.73-.03 77.46-.04 116.2M333.4 357.8l68.74-.02" class="cls-1"/><path d="M340.56 328.7h19.99v21.97h-19.99z" class="cls-1"/><path d="M337.85 325.98h25.41v27.4h-25.41zM337.85 325.98h25.41M337.85 302.88h25.41" class="cls-1"/><path d="M337.85 264.02h25.41v89.36h-25.41zM337.85 283.45h25.41M337.85 322.31h25.41M337.85 284.35h25.41M337.85 303.78h25.41M375.08 328.7h19.99v21.97h-19.99z" class="cls-1"/><path d="M372.37 325.98h25.41v27.4h-25.41zM397.78 325.98h-25.41M397.78 302.88h-25.41" class="cls-1"/><path d="M372.37 264.02h25.41v89.36h-25.41zM397.78 283.45h-25.41M397.78 322.31h-25.41M397.78 284.35h-25.41M397.78 303.78h-25.41M123.49 239.64v13.7M124.39 239.54v13.8M140.3 238.72v14.62M141.2 238.72v14.62M157.92 239.63v13.71M157.02 239.54v13.8M107.32 253.34h66.92M107.32 253.8h66.92M107.32 255.27h66.92M107.32 255.8h66.92M107.32 256.47h66.92M140.78 259.5v98.3M107.31 259.5h66.93M106.37 357.8h68.73v5.72h-68.73z" class="cls-1"/><path d="M174.2 357.78c.01-38.48.03-76.97.04-115.45-11.09-2.53-22.13-3.61-33.49-3.61-11.34 0-22.36 1.07-33.44 3.61-.01 38.49-.03 76.99-.04 115.48" class="cls-1"/><path d="M175.11 357.78c.01-38.72.03-77.45.04-116.17-21.58-5.06-47.16-5.07-68.74 0-.01 38.73-.03 77.46-.04 116.2M106.37 357.8l68.74-.02" class="cls-1"/><path d="M113.53 328.7h19.99v21.97h-19.99z" class="cls-1"/><path d="M110.82 325.98h25.41v27.4h-25.41zM110.82 325.98h25.41M110.82 302.88h25.41" class="cls-1"/><path d="M110.82 264.02h25.41v89.36h-25.41zM110.82 283.45h25.41M110.82 322.31h25.41M110.82 284.35h25.41M110.82 303.78h25.41M148.05 328.7h19.99v21.97h-19.99z" class="cls-1"/><path d="M145.34 325.98h25.41v27.4h-25.41zM170.75 325.98h-25.41M170.75 302.88h-25.41" class="cls-1"/><path d="M145.34 264.02h25.41v89.36h-25.41zM170.75 283.45h-25.41M170.75 322.31h-25.41M170.75 284.35h-25.41M170.75 303.78h-25.41M212.76 363.52h76.96v7.53h-76.96zM212.76 371.06h76.96v7.53h-76.96zM212.76 378.59h76.96v7.53h-76.96zM212.76 386.12h76.96v7.53h-76.96zM212.76 393.65h76.96v7.53h-76.96zM212.76 401.18h76.96v7.53h-76.96zM212.76 408.71h76.96v7.53h-76.96zM212.76 416.24h76.96v7.53h-76.96zM212.76 423.77h76.96v7.53h-76.96zM212.76 431.3h76.96v7.53h-76.96zM212.76 438.83h76.96v7.53h-76.96zM214.72 246.92v6.94M288.94 242.25v-7.44c-2.18-.63-4.36-1.25-6.55-1.88-10.11-2.9-20.83-4.15-30.58-4.15-9.74 0-20.45 1.24-30.55 4.15-2.18.63-4.36 1.25-6.54 1.88v7.44M288.94 253.86v-6.94" class="cls-1"/><path d="M207.61 363.52h5.16v82.84h-5.16zM289.73 363.52h5.16v82.84h-5.16zM288.9 357.79l.01-17.45M288.91 338.88l.03-81.9M214.71 256.98l-.02 81.9M214.69 340.34l-.01 17.46M384.53 145.59h-15.59M366.22 145.59h-15.59M366.22 158.71h-15.59M384.53 158.71h-15.59M367.58 130.65v42.08M368.94 130.65v42.08M366.23 130.65v42.08M350.64 130.65h33.89v42.09h-33.89zM384.53 159.61h-15.59M366.22 159.61h-15.59M366.22 144.69h-15.59M384.53 144.69h-15.59M384.53 143.79h-15.59M366.22 143.79h-15.59M384.53 157.81h-15.59" class="cls-1"/><path d="M349.28 129.29h36.6v44.8h-36.6zM157.5 145.59h-15.59M139.19 145.59H123.6M139.19 158.71H123.6M157.5 158.71h-15.59M140.55 130.65v42.08M141.91 130.65v42.08M139.2 130.65v42.08M123.61 130.65h33.89v42.09h-33.89zM157.5 159.61h-15.59M139.19 159.61H123.6M139.19 144.69H123.6M157.5 144.69h-15.59M157.5 143.79h-15.59M139.19 143.79H123.6M157.5 157.81h-15.59M139.19 157.81H123.6" class="cls-1"/><path d="M122.25 129.29h36.6v44.8h-36.6zM268.19 145.62H252.6M249.88 145.62h-15.59M249.88 158.74h-15.59M268.19 158.74H252.6M268.19 159.64H252.6M249.88 159.64h-15.59M249.88 144.72h-15.59M268.19 144.72H252.6M268.19 143.81H252.6M249.88 143.81h-15.59M268.19 157.83H252.6M249.88 157.83h-15.59M268.19 130.67c-5.64-3.06-11.43-3.33-16.96-3.33-5.56 0-11.39.28-16.93 3.33v42.09h33.89zM251.25 127.34v45.42M252.6 127.35v45.41M249.89 127.35v45.41" class="cls-1"/><path d="M249.78 13.61h1.95v20.24h-1.95z" class="cls-5"/><path d="M61.28 108.36V35.52h30.01v61.02" class="cls-7"/><path d="M254.72 19.85c0 .87-1.1 1.34-1.71 1.54-.79.26-1.58.36-2.41.36s-1.62-.09-2.41-.36c-.62-.21-1.71-.67-1.71-1.54s1.1-1.34 1.71-1.54c.79-.26 1.58-.36 2.41-.36s1.62.1 2.41.36c.62.21 1.71.67 1.71 1.54Z" style="stroke-miterlimit:10;stroke:#010101;stroke-width:.25px;fill:#fff"/><path d="m486.51 206.03-20.96-31.92-11.1-59.77M486.51 206.14v240.27M14.03 363.52h472.48M14.03 206.03v240.41M14.03 206.03h472.48M46.09 114.34l204.76-80.65M454.45 114.34 250.27 33.46M14.03 206.03l20.96-31.92 11.1-59.77M21.22 195.85h458.1" class="cls-7"/><path d="M272.71 174.11h192.84" class="cls-2"/><path d="M407.65 95.8V78.95h40.69v33.95" class="cls-7"/><path d="M34.42 174.11h195.33M46.09 114.34h90.52M255.42 114.34h107.99M371.75 114.34h82.7M144.96 114.34h102.11" class="cls-2"/><path d="M-150.68 454.68c36.62-7.35 64.27-3.31 86.2-1.28 21.93 2.02 38.16 2.02 49.05.67 10.9-1.35 16.47-4.04 21.75-5.39s10.28-1.35 23.27-1.35h54.46c20.5 0 40.53 0 58.55.86s34.04 2.57 47.99 3.26 25.83.36 35.45-.54c9.63-.9 17-2.38 29.66-2.38s30.6 1.47 58.79 1.43 66.64-1.62 93.34-2.15c26.71-.53 41.68-.02 53.67-.75s21-2.7 29.73-4.58c8.72-1.88 17.16-3.69 26.91-6.25 9.75-2.57 20.81-5.89 38.75-7.56 17.94-1.66 284.27-4.89 313.97-4.89v66.13H-145.4l-5.28-35.22Z" style="stroke-miterlimit:10;fill:#fff;stroke:#676766;stroke-width:2px"/><path d="M36.62 363.52V320.6M427.91 363.52V320.6M436.95 363.52V320.6M445.99 363.52V320.6M455.02 363.52V320.6M464.06 363.52V320.6M392.67 363.52V320.6M401.71 363.52V320.6M410.74 363.52V320.6M419.78 363.52V320.6M428.82 363.52V320.6M437.85 363.52V320.6M446.89 363.52V320.6M455.93 363.52V320.6M464.97 363.52V320.6M474 363.52V320.6M483.04 363.52V320.6M483.94 363.52V320.6M14.03 320.6h198.73v-2.26H14.03M289.73 320.6h196.78v-2.26H289.73M45.66 363.52V320.6M54.7 363.52V320.6M63.73 363.52V320.6M72.77 363.52V320.6M81.81 363.52V320.6M90.84 363.52V320.6M99.88 363.52V320.6M108.92 363.52V320.6M201.09 364.31V320.6M418.88 363.52V320.6M117.95 363.52V320.6M126.99 363.52V320.6M136.03 363.52V320.6M89.94 363.52V320.6M98.98 363.52V320.6M145.06 363.52V320.6M154.1 363.52V320.6M163.14 363.52V320.6M172.18 363.52V320.6M181.21 363.52V320.6M190.25 363.52V320.6M118.86 363.52V320.6M127.9 363.52V320.6M136.93 363.52V320.6M145.97 363.52V320.6M155.01 363.52V320.6M164.04 363.52V320.6M173.08 363.52V320.6M182.12 363.52V320.6M191.15 363.52V320.6M200.19 363.52V320.6M292.36 364.31V320.6M400.8 363.52V320.6M209.23 363.52V320.6M210.13 363.52V320.6M291.46 363.52V320.6M474.91 363.52V320.6M383.63 364.31V320.6M300.5 363.52V320.6M309.53 363.52V320.6M318.57 363.52V320.6M327.61 363.52V320.6M336.64 363.52V320.6M345.68 363.52V320.6M354.72 363.52V320.6M409.84 363.52V320.6M363.75 363.52V320.6M372.79 363.52V320.6M301.4 363.52V320.6M310.44 363.52V320.6M319.47 363.52V320.6M328.51 363.52V320.6M337.55 363.52V320.6M346.58 363.52V320.6M355.62 363.52V320.6M364.66 363.52V320.6M373.69 363.52V320.6M382.73 363.52V320.6M391.77 363.52V320.6M18.55 363.52V320.6M27.59 363.52V320.6M109.82 364.31V320.6M17.65 363.52V320.6M26.68 363.52V320.6M35.72 363.52V320.6M44.76 363.52V320.6M53.79 363.52V320.6M62.83 363.52V320.6M71.87 363.52V320.6M80.9 363.52V320.6" class="cls-11"/></svg>