<svg xmlns="http://www.w3.org/2000/svg" xmlns:xlink="http://www.w3.org/1999/xlink" id="Calque_1"  data-name="Calque 1" viewBox="0 0 828.94 510.93"><defs><pattern id="Nouveau_motif_3" width="34.23" height="27.94" x="0" y="0" data-name="Nouveau motif 3" patternTransform="matrix(1.5 0 0 1.56 2674.93 3305.42)" patternUnits="userSpaceOnUse"><path d="M0 0h34.23v27.94H0z" class="cls-12"/><path d="M17.14 25.63h34.18v4.61H17.14zM-17.09 25.63h34.18v4.61h-34.18zM.03 20.98h34.18v4.61H.03zM17.14 16.32h34.18v4.61H17.14zM-17.09 16.32h34.18v4.61h-34.18zM.03 11.67h34.18v4.61H.03zM17.14 7.01h34.18v4.61H17.14zM-17.09 7.01h34.18v4.61h-34.18zM.03 2.35h34.18v4.61H.03zM17.14-2.3h34.18v4.61H17.14zM-17.09-2.3h34.18v4.61h-34.18z" class="cls-6"/></pattern><pattern xlink:href="#Nouveau_motif_3" id="Nouveau_motif_3-2" data-name="Nouveau motif 3" patternTransform="matrix(1.5 0 0 1.56 2673.93 3305.42)"/><pattern id="Etang_intermittent_USGS_8B" width="71.91" height="54.09" x="0" y="0" data-name="Etang intermittent USGS 8B" patternTransform="matrix(1.5 0 0 1.56 2658.97 3334.1)" patternUnits="userSpaceOnUse"><path d="M0 0h71.91v54.09H0z" class="cls-12"/><path d="M1.19 49.59q-.12 0-.21-.09c-.05-.05-.09-.13-.09-.21s.03-.16.09-.21a.29.29 0 0 1 .42 0c.06.07.09.14.09.22s-.03.15-.08.21a.3.3 0 0 1-.22.09ZM2.4 50.79c-.08 0-.16-.03-.21-.08-.07-.07-.1-.14-.1-.22s.04-.16.09-.21c.11-.11.32-.12.43 0 .05.05.09.13.09.21s-.04.15-.09.21c-.06.06-.14.09-.21.09M3.6 51.99c-.09 0-.16-.03-.22-.09-.05-.05-.08-.13-.08-.21s.03-.16.09-.21c.1-.1.31-.11.42 0a.29.29 0 0 1 0 .42c-.05.06-.13.09-.21.09M4.8 53.2c-.08 0-.15-.04-.21-.09a.3.3 0 0 1-.09-.22c0-.07.03-.15.08-.2.14-.13.32-.12.43 0q.09.09.09.21c0 .09-.03.17-.09.22-.05.05-.13.09-.21.09ZM1.18 43.58q-.12 0-.21-.09a.29.29 0 0 1 0-.42c.11-.12.32-.12.43 0a.304.304 0 0 1-.01.42c-.04.06-.12.09-.21.09M2.39 44.78c-.08 0-.15-.03-.21-.08-.07-.07-.1-.14-.1-.22s.04-.16.09-.21c.11-.11.32-.12.43 0 .05.05.09.13.09.21s-.04.16-.09.21c-.06.06-.14.09-.21.09M3.59 45.98a.3.3 0 0 1-.22-.09.32.32 0 0 1-.08-.21c0-.07.03-.15.08-.21a.31.31 0 0 1 .43 0q.09.09.09.21c0 .12-.03.16-.1.22-.04.05-.12.08-.2.08M4.79 47.18c-.08 0-.16-.03-.21-.08a.33.33 0 0 1-.09-.22c0-.07.03-.15.08-.21.12-.11.33-.11.44.01.05.04.08.12.08.2s-.03.16-.09.22c-.05.05-.13.08-.21.08M5.99 48.39q-.12 0-.21-.09t-.09-.21c0-.12.03-.16.09-.22.1-.1.31-.11.43 0 .05.05.08.13.08.21 0 .07-.03.15-.08.21a.3.3 0 0 1-.22.09ZM7.19 49.59c-.08 0-.16-.03-.21-.09q-.09-.09-.09-.21c0-.12.04-.16.1-.22.09-.1.31-.11.42 0a.304.304 0 0 1-.01.42c-.04.05-.12.09-.21.09ZM8.4 50.79c-.08 0-.15-.03-.21-.08-.07-.07-.1-.14-.1-.22s.04-.16.09-.21c.1-.11.32-.12.43 0 .05.05.08.13.08.21s-.03.16-.08.21c-.06.06-.14.09-.21.09M9.6 51.99a.3.3 0 0 1-.22-.09.29.29 0 0 1-.08-.21c0-.08.03-.16.09-.21.1-.1.31-.11.42 0q.09.09.09.21c0 .12-.03.16-.09.21-.05.06-.13.09-.21.09M10.8 53.2c-.08 0-.16-.04-.21-.1a.26.26 0 0 1-.09-.21c0-.07.03-.15.09-.21.11-.11.3-.11.42 0q.09.105.09.21c0 .08-.03.16-.08.21-.07.06-.14.1-.22.1M1.17 37.57c-.07 0-.15-.03-.21-.09q-.09-.09-.09-.21c0-.12.03-.16.09-.21.1-.11.31-.12.43 0a.304.304 0 0 1-.01.42c-.05.06-.13.09-.21.09M2.38 38.77c-.09 0-.16-.03-.22-.09-.05-.05-.09-.13-.09-.21s.04-.15.09-.21c.13-.12.31-.11.43 0q.09.09.09.21c0 .12-.04.16-.1.21-.05.06-.12.09-.2.09M3.58 39.97a.3.3 0 0 1-.22-.09c-.05-.05-.08-.13-.08-.21s.03-.15.08-.21c.12-.11.31-.11.43 0q.09.09.09.21c0 .12-.03.16-.09.21-.05.06-.13.09-.21.09M4.78 41.17c-.08 0-.16-.03-.21-.08a.33.33 0 0 1-.09-.22c0-.07.03-.15.09-.2.13-.13.31-.12.42 0q.09.09.09.21c0 .12-.03.16-.09.22-.05.05-.13.08-.21.08ZM5.98 42.38a.305.305 0 0 1-.3-.3c0-.08.03-.16.09-.21.12-.12.32-.12.43 0a.304.304 0 0 1-.01.42q-.09.09-.21.09M7.18 43.58q-.12 0-.21-.09a.29.29 0 0 1 0-.42.29.29 0 0 1 .42 0c.06.07.1.14.1.22s-.04.15-.1.21q-.075.09-.21.09ZM8.39 44.78c-.09 0-.16-.03-.22-.09a.29.29 0 0 1 0-.42c.11-.11.32-.12.43 0a.288.288 0 0 1 0 .42c-.05.06-.13.09-.21.09M9.59 45.98c-.09 0-.16-.03-.22-.09-.05-.06-.08-.13-.08-.21s.03-.16.09-.21c.1-.11.31-.11.42 0 .05.04.09.12.09.2s-.03.16-.09.21c-.05.06-.13.09-.21.09ZM10.79 47.18c-.08 0-.15-.03-.21-.08a.33.33 0 0 1-.09-.22c0-.07.03-.15.08-.21.13-.12.32-.11.43.01.06.05.09.12.09.2s-.03.16-.09.22c-.06.05-.13.08-.21.08M11.99 48.39q-.12 0-.21-.09a.29.29 0 0 1-.09-.21c0-.09.04-.17.09-.22.1-.1.32-.11.43 0 .05.05.08.13.08.21 0 .07-.03.15-.08.21-.07.06-.14.09-.22.09ZM13.19 49.59q-.12 0-.21-.09t-.09-.21c0-.12.04-.16.1-.22.09-.1.3-.11.42 0 .05.05.08.13.08.21 0 .07-.02.15-.08.21a.3.3 0 0 1-.22.09ZM14.4 50.79a.3.3 0 0 1-.22-.09q-.09-.09-.09-.21c0-.12.04-.16.1-.21.09-.11.31-.11.42 0 .05.05.09.13.09.21s-.04.15-.09.21c-.06.06-.14.09-.21.09M15.6 51.99c-.08 0-.16-.03-.21-.08-.06-.06-.09-.14-.09-.22s.03-.16.09-.21c.1-.1.31-.11.42 0 .05.04.09.12.09.2s-.03.16-.09.21q-.09.09-.21.09ZM16.8 53.19c-.08 0-.16-.03-.21-.08a.3.3 0 0 1-.09-.22c0-.07.03-.15.09-.2a.29.29 0 0 1 .42 0q.09.09.09.21c0 .09-.03.16-.09.22-.05.05-.13.08-.21.08ZM1.16 31.56a.305.305 0 0 1-.3-.3q0-.12.09-.21a.29.29 0 0 1 .42 0c.06.06.09.14.09.22s-.03.15-.08.21a.3.3 0 0 1-.22.09ZM2.37 32.76a.28.28 0 0 1-.22-.09c-.05-.06-.09-.13-.09-.21s.04-.16.1-.22c.08-.09.3-.11.42 0a.288.288 0 0 1 0 .42q-.09.09-.21.09ZM3.57 33.96a.3.3 0 0 1-.22-.09c-.05-.05-.08-.13-.08-.21s.03-.15.08-.21c.12-.12.32-.11.43 0q.09.09.09.21c0 .12-.04.16-.09.22-.05.05-.13.08-.21.08M4.77 35.17c-.08 0-.16-.04-.21-.09a.29.29 0 0 1-.09-.21c0-.09.03-.16.09-.22.09-.1.3-.12.42 0 .06.06.09.14.09.22 0 .07-.03.14-.08.2-.07.07-.14.1-.22.1M5.97 36.37c-.08 0-.16-.04-.21-.1-.06-.05-.09-.12-.09-.2s.03-.16.09-.22c.1-.1.31-.11.42.01.06.05.09.13.09.21s-.03.15-.09.21c-.05.05-.13.09-.21.09M7.17 37.57q-.12 0-.21-.09t-.09-.21c0-.12.03-.16.09-.22.1-.1.31-.11.43 0 .05.05.08.13.08.21 0 .07-.03.15-.08.21-.07.06-.14.09-.22.09ZM8.38 38.77a.3.3 0 0 1-.22-.09c-.05-.06-.09-.13-.09-.21s.04-.16.1-.21c.1-.11.31-.12.42 0 .05.05.09.13.09.21s-.04.16-.09.21q-.09.09-.21.09M9.58 39.97c-.09 0-.16-.03-.22-.09-.05-.05-.08-.13-.08-.21s.03-.16.09-.21c.09-.1.31-.11.42 0a.29.29 0 0 1 0 .42c-.05.06-.13.09-.21.09M10.78 41.17c-.08 0-.16-.03-.21-.09a.26.26 0 0 1-.09-.21c0-.07.03-.15.09-.21.11-.11.3-.11.42 0q.09.105.09.21c0 .08-.03.16-.09.21-.05.06-.13.09-.21.09M11.98 42.38q-.12 0-.21-.09a.3.3 0 0 1-.09-.21c0-.08.03-.16.09-.22.11-.11.32-.11.43 0 .05.04.08.12.08.21q0 .12-.09.21c-.05.06-.13.09-.21.09ZM13.18 43.58q-.12 0-.21-.09c-.05-.05-.09-.13-.09-.21s.04-.16.1-.22c.09-.1.31-.11.42 0 .05.05.08.13.08.21s-.03.15-.08.21a.3.3 0 0 1-.22.09ZM14.39 44.78c-.09 0-.16-.03-.22-.09-.05-.05-.08-.13-.08-.21s.03-.16.08-.21c.12-.11.31-.11.43 0 .06.07.09.14.09.22s-.04.15-.09.21q-.09.09-.21.09ZM15.59 45.98a.3.3 0 0 1-.22-.09.3.3 0 0 1-.08-.21c0-.07.03-.15.08-.21a.31.31 0 0 1 .43 0c.06.05.09.13.09.21 0 .09-.04.16-.1.22-.04.05-.12.08-.2.08M16.79 47.18c-.08 0-.15-.03-.21-.08-.06-.06-.09-.14-.09-.22s.03-.15.09-.21c.1-.11.31-.11.42.01.06.05.09.12.09.2s-.03.16-.09.22c-.06.05-.13.08-.21.08M17.99 48.39c-.08 0-.16-.04-.21-.1-.05-.04-.09-.12-.09-.2s.03-.16.09-.22c.11-.11.3-.11.42 0 .06.07.09.14.09.22s-.03.15-.09.21c-.05.05-.13.09-.21.09M19.19 49.59q-.12 0-.21-.09c-.05-.05-.09-.13-.09-.21s.04-.16.1-.22c.1-.1.31-.11.42 0 .05.05.08.13.08.21s-.03.15-.08.21a.3.3 0 0 1-.22.09ZM20.4 50.79c-.09 0-.16-.03-.22-.09-.05-.05-.08-.13-.08-.21s.03-.16.08-.21c.12-.11.31-.12.42-.01.07.07.1.15.1.22q0 .12-.09.21t-.21.09M21.6 51.99a.3.3 0 0 1-.22-.09.29.29 0 0 1-.08-.21c0-.08.03-.16.09-.21.09-.1.31-.11.42 0 .06.05.09.12.09.2s-.03.16-.09.21q-.09.09-.21.09ZM22.8 53.19c-.08 0-.16-.03-.21-.09a.26.26 0 0 1-.09-.21q0-.12.09-.21c.11-.11.31-.11.42 0 .06.06.09.14.09.21 0 .08-.03.16-.09.22-.05.05-.13.08-.21.08M1.15 25.55q-.12 0-.21-.09a.29.29 0 0 1 0-.42.29.29 0 0 1 .42 0c.06.06.09.14.09.22s-.03.16-.09.21c-.05.05-.13.09-.21.09ZM2.36 26.75a.3.3 0 0 1-.22-.09.29.29 0 0 1 0-.42c.11-.12.32-.12.43 0 .05.05.08.13.08.21s-.03.15-.08.21c-.06.06-.14.09-.21.09M3.56 27.95c-.08 0-.16-.03-.21-.08-.06-.07-.09-.14-.09-.22s.03-.16.09-.21c.09-.11.31-.12.42 0a.288.288 0 0 1 0 .42c-.06.06-.14.09-.21.09M4.76 29.15c-.08 0-.15-.03-.21-.08-.06-.07-.09-.14-.09-.22s.03-.15.09-.21c.12-.12.31-.11.42 0 .06.05.09.13.09.21s-.03.16-.09.22c-.06.05-.13.08-.21.08M5.96 30.36a.305.305 0 0 1-.21-.52c.11-.11.32-.11.43 0 .05.05.08.12.08.21 0 .07-.03.15-.09.21-.06.05-.13.09-.21.09ZM7.16 31.56c-.08 0-.16-.04-.21-.09a.29.29 0 0 1 0-.42.29.29 0 0 1 .42 0c.06.06.09.14.09.22s-.03.16-.09.21c-.05.05-.12.09-.21.09ZM8.37 32.76c-.09 0-.16-.03-.22-.09a.29.29 0 0 1 0-.42c.11-.11.32-.12.43 0 .05.05.09.13.09.21s-.04.15-.09.21-.13.09-.21.09M9.57 33.96c-.08 0-.16-.03-.21-.09q-.09-.09-.09-.21c0-.12.03-.16.09-.21.09-.11.31-.11.42 0 .05.04.09.12.09.2s-.03.16-.09.21q-.09.09-.21.09ZM10.77 35.17c-.08 0-.16-.04-.22-.1-.05-.04-.08-.12-.08-.2 0-.09.03-.16.09-.22.09-.1.31-.11.42 0 .06.05.09.13.09.21s-.04.15-.09.21c-.05.05-.13.09-.21.09ZM11.97 36.37c-.08 0-.15-.04-.21-.09a.3.3 0 0 1-.09-.21c0-.08.03-.16.09-.22.1-.1.31-.11.43.01a.304.304 0 0 1-.22.51M13.17 37.57q-.12 0-.21-.09c-.06-.05-.09-.13-.09-.21s.04-.16.1-.22c.09-.1.3-.11.42 0 .05.05.08.13.08.21s-.03.15-.08.21a.3.3 0 0 1-.22.09ZM14.38 38.77a.3.3 0 0 1-.22-.09c-.05-.06-.09-.13-.09-.21s.04-.16.1-.21c.09-.11.31-.12.42 0a.288.288 0 0 1 0 .42c-.06.06-.14.09-.21.09M15.58 39.97a.3.3 0 0 1-.22-.09.304.304 0 0 1 .01-.42c.1-.11.31-.11.42 0 .06.05.09.13.09.21s-.04.16-.09.22c-.05.05-.13.08-.21.08M16.78 41.17c-.08 0-.16-.03-.21-.09a.27.27 0 0 1-.09-.21c0-.07.03-.15.09-.2a.29.29 0 0 1 .42 0q.09.09.09.21c0 .09-.03.16-.09.22-.05.05-.13.08-.21.08ZM17.98 42.38a.305.305 0 0 1-.3-.3q0-.12.09-.21a.29.29 0 0 1 .42 0c.06.06.09.14.09.22s-.03.16-.09.21c-.05.05-.12.09-.21.09ZM19.18 43.58c-.08 0-.16-.03-.21-.09-.05-.05-.09-.13-.09-.21s.03-.16.09-.21c.11-.11.31-.12.42 0 .06.07.09.14.09.22s-.03.16-.08.21c-.06.06-.13.09-.22.09ZM20.39 44.78c-.09 0-.16-.03-.22-.09-.05-.05-.08-.13-.08-.21s.03-.16.09-.22c.09-.1.32-.11.42 0 .05.05.09.13.09.21s-.04.16-.09.21c-.06.06-.14.09-.21.09ZM21.59 45.98c-.09 0-.16-.03-.22-.09a.304.304 0 0 1 .01-.42c.11-.11.3-.11.42 0a.288.288 0 0 1 0 .42c-.05.06-.13.09-.21.09M22.79 47.18c-.08 0-.16-.03-.21-.08a.3.3 0 0 1-.09-.22c0-.08.03-.16.09-.21.1-.1.31-.11.42 0 .06.06.09.14.09.21 0 .08-.03.16-.09.21q-.09.09-.21.09M23.99 48.39q-.12 0-.21-.09a.29.29 0 0 1-.09-.21c0-.09.04-.16.09-.22.1-.1.32-.11.43 0 .05.05.08.13.08.21 0 .07-.03.15-.08.21-.07.06-.14.09-.22.09ZM25.19 49.59q-.12 0-.21-.09c-.05-.05-.09-.13-.09-.21s.04-.16.09-.22c.11-.1.32-.1.43 0 .05.06.08.13.08.21s-.03.15-.08.21c-.06.06-.13.09-.22.09ZM26.4 50.79c-.09 0-.16-.03-.22-.09-.05-.05-.08-.13-.08-.21s.03-.16.08-.21c.12-.11.31-.11.43 0 .05.06.09.13.09.21s-.04.16-.1.22c-.04.05-.12.08-.2.08M27.6 51.99c-.08 0-.16-.03-.21-.08-.06-.06-.09-.14-.09-.22s.03-.15.09-.21c.11-.11.3-.11.42 0a.288.288 0 0 1 0 .42q-.09.09-.21.09M28.8 53.19c-.08 0-.16-.03-.21-.09a.26.26 0 0 1-.09-.21q0-.12.09-.21c.11-.11.31-.11.42 0 .06.06.09.14.09.21 0 .08-.03.16-.09.22-.05.05-.13.08-.21.08M1.14 19.54q-.12 0-.21-.09t-.09-.21c0-.12.03-.16.09-.21.11-.12.31-.12.43 0a.304.304 0 0 1-.01.42c-.05.06-.13.09-.21.09M2.34 20.74q-.12 0-.21-.09a.288.288 0 0 1 0-.42.29.29 0 0 1 .42 0c.06.07.09.14.09.22s-.03.15-.08.21a.3.3 0 0 1-.22.09ZM3.55 21.94a.3.3 0 0 1-.22-.09c-.05-.05-.09-.13-.09-.21s.04-.15.09-.21c.12-.12.31-.11.43 0 .05.06.09.13.09.21 0 .09-.04.16-.1.22-.04.05-.12.08-.2.08M4.75 23.14c-.08 0-.16-.03-.21-.09-.06-.05-.09-.13-.09-.21s.03-.16.09-.21c.09-.1.31-.12.42 0 .05.04.09.12.09.2s-.03.16-.09.22c-.06.05-.13.08-.21.08ZM5.95 24.35c-.08 0-.16-.04-.21-.1a.26.26 0 0 1-.09-.21c0-.07.03-.15.09-.21.11-.11.31-.11.42 0 .06.06.09.14.09.21 0 .08-.03.16-.09.22-.05.05-.13.09-.21.09M7.15 25.55q-.12 0-.21-.09t-.09-.21c0-.12.04-.16.1-.22.09-.1.31-.11.42 0a.304.304 0 0 1-.01.42c-.05.06-.13.09-.21.09ZM8.36 26.75a.3.3 0 0 1-.22-.09.29.29 0 0 1 0-.42c.1-.11.32-.12.43 0 .05.05.08.13.08.21s-.03.16-.08.21q-.09.09-.21.09M9.56 27.95a.3.3 0 0 1-.22-.09.29.29 0 0 1-.08-.21c0-.08.03-.16.09-.21.1-.11.31-.12.42 0q.09.09.09.21c0 .12-.03.16-.09.21q-.09.09-.21.09M10.76 29.15a.3.3 0 0 1-.22-.09.304.304 0 0 1 .01-.42c.11-.11.3-.11.42 0a.288.288 0 0 1 0 .42c-.05.06-.13.09-.21.09M11.96 30.35c-.08 0-.16-.03-.21-.08-.06-.06-.09-.14-.09-.22s.03-.15.09-.21c.11-.11.32-.11.43 0 .05.04.08.12.08.2 0 .09-.03.16-.09.22-.05.05-.13.08-.21.08ZM13.16 31.56c-.08 0-.16-.04-.21-.1-.05-.04-.09-.12-.09-.2s.04-.16.09-.22c.1-.1.32-.11.43 0a.304.304 0 0 1-.01.42c-.05.06-.13.09-.21.09ZM14.37 32.76a.3.3 0 0 1-.22-.09c-.05-.05-.08-.13-.08-.21s.03-.16.09-.22c.09-.1.31-.11.42 0a.288.288 0 0 1 0 .42c-.06.06-.14.09-.21.09ZM15.57 33.96a.3.3 0 0 1-.22-.09.32.32 0 0 1-.08-.21c0-.07.03-.15.08-.21a.31.31 0 0 1 .43 0c.05.05.09.13.09.21 0 .09-.04.16-.09.22-.05.05-.13.08-.21.08M16.77 35.17c-.08 0-.16-.04-.21-.09a.29.29 0 0 1-.09-.21c0-.09.03-.17.09-.22.1-.1.31-.11.42 0 .05.04.09.12.09.21 0 .07-.03.15-.09.21-.06.05-.13.09-.21.09ZM17.97 36.36c-.08 0-.16-.03-.21-.08q-.09-.09-.09-.21c0-.12.03-.16.09-.22.11-.11.31-.11.42 0 .06.06.09.14.09.22s-.03.15-.09.21c-.05.05-.13.08-.21.08M19.17 37.57c-.08 0-.16-.04-.21-.09a.3.3 0 0 1-.09-.21c0-.09.04-.16.09-.22.1-.1.32-.11.43 0 .05.05.08.13.08.21s-.03.16-.09.21c-.05.05-.12.09-.21.09ZM20.38 38.77c-.09 0-.16-.03-.22-.09-.05-.05-.08-.13-.08-.21s.03-.16.08-.21c.12-.11.31-.12.42-.01.07.07.1.14.1.22s-.03.15-.09.21q-.09.09-.21.09M21.58 39.97c-.09 0-.16-.03-.22-.09a.29.29 0 0 1-.08-.21q0-.12.09-.21c.11-.11.3-.11.42 0q.09.09.09.21c0 .12-.04.16-.09.22-.05.05-.13.08-.21.08M22.78 41.17c-.08 0-.16-.03-.21-.09-.06-.04-.09-.12-.09-.21q0-.12.09-.21c.11-.11.31-.11.42 0q.09.09.09.21c0 .09-.03.16-.09.22-.05.05-.13.08-.21.08M23.98 42.38c-.08 0-.16-.04-.21-.09q-.09-.09-.09-.21c0-.12.03-.16.09-.22.11-.1.3-.11.42 0 .06.07.09.14.09.22 0 .07-.03.15-.08.21a.3.3 0 0 1-.22.09M25.18 43.58c-.08 0-.16-.03-.21-.09a.29.29 0 0 1 0-.42c.11-.11.31-.12.42 0 .06.07.09.14.09.22 0 .07-.03.15-.08.21-.06.06-.13.09-.22.09ZM26.39 44.78c-.09 0-.16-.03-.22-.09-.05-.05-.08-.13-.08-.21s.03-.16.09-.22c.09-.1.31-.11.42 0 .05.05.09.13.09.21s-.04.16-.1.22c-.04.05-.12.08-.2.08ZM27.59 45.98c-.08 0-.16-.03-.21-.09-.06-.05-.09-.13-.09-.21s.03-.16.09-.21c.09-.1.31-.11.42 0 .06.05.09.13.09.21s-.03.16-.09.21q-.09.09-.21.09M28.79 47.18c-.08 0-.16-.03-.21-.08a.3.3 0 0 1-.09-.22c0-.08.03-.16.09-.21.09-.1.32-.11.42.01.05.04.09.12.09.2 0 .09-.03.16-.09.22-.06.05-.13.08-.21.08M29.99 48.39q-.12 0-.21-.09a.29.29 0 0 1-.09-.21c0-.09.04-.17.09-.22.1-.1.32-.11.43 0a.304.304 0 0 1-.01.42c-.05.06-.13.09-.21.09ZM31.19 49.59q-.12 0-.21-.09c-.05-.06-.09-.13-.09-.21s.04-.16.09-.21c.11-.11.31-.12.42 0 .06.07.09.14.09.22 0 .07-.03.15-.08.21a.3.3 0 0 1-.22.09ZM32.4 50.79a.28.28 0 0 1-.22-.09c-.05-.05-.08-.13-.08-.21s.03-.16.09-.21c.08-.1.3-.12.42 0 .05.05.09.13.09.21s-.04.16-.09.21q-.09.09-.21.09M33.6 51.99a.3.3 0 0 1-.22-.09.29.29 0 0 1-.08-.21c0-.08.03-.16.09-.21.09-.1.3-.12.42 0 .06.06.09.14.09.21 0 .08-.03.16-.09.21q-.09.09-.21.09M34.8 53.19c-.08 0-.15-.03-.21-.08a.28.28 0 0 1-.09-.22c0-.08.03-.16.09-.21.1-.1.31-.11.43 0 .05.05.08.13.08.2 0 .08-.03.16-.09.22-.05.05-.13.08-.21.08ZM1.13 13.53a.305.305 0 0 1-.21-.52c.1-.1.31-.11.43 0 .05.05.08.12.08.21q0 .12-.09.21c-.05.05-.13.09-.21.09ZM2.33 14.73q-.12 0-.21-.09a.29.29 0 0 1 0-.42c.12-.12.31-.12.43 0 .05.05.08.13.08.21s-.03.16-.09.21q-.075.09-.21.09M3.54 15.93c-.08 0-.15-.03-.21-.08-.06-.07-.09-.14-.09-.22s.03-.16.08-.21c.1-.11.32-.12.43 0 .05.05.08.13.08.21s-.03.16-.08.21q-.09.09-.21.09M4.74 17.13c-.08 0-.16-.03-.21-.09-.06-.05-.09-.13-.09-.21s.03-.15.08-.21a.31.31 0 0 1 .43 0c.06.05.09.13.09.21 0 .09-.04.16-.1.22-.04.05-.12.08-.2.08M5.94 18.34c-.08 0-.16-.04-.21-.09a.32.32 0 0 1-.09-.21c0-.08.03-.16.08-.21.12-.12.32-.12.43 0 .06.05.09.13.09.21a.305.305 0 0 1-.3.3M7.14 19.54q-.12 0-.21-.09t-.09-.21c0-.12.03-.16.09-.21.11-.12.31-.12.43 0a.304.304 0 0 1-.01.42c-.05.06-.13.09-.21.09M8.34 20.74c-.07 0-.15-.03-.21-.09a.29.29 0 0 1 0-.42c.11-.12.32-.12.43 0 .05.05.08.13.08.21s-.03.15-.08.21a.3.3 0 0 1-.22.09M9.55 21.94c-.09 0-.16-.03-.22-.09-.05-.05-.09-.13-.09-.21s.04-.15.09-.21c.12-.11.31-.12.43-.01.06.07.09.14.09.22s-.03.16-.09.21q-.09.09-.21.09M10.75 23.14a.3.3 0 0 1-.22-.09c-.05-.05-.08-.13-.08-.21s.03-.16.09-.21c.09-.1.31-.11.42 0 .05.05.09.13.09.21s-.03.16-.09.21q-.09.09-.21.09M11.95 24.34c-.08 0-.16-.03-.21-.09a.27.27 0 0 1-.09-.2c0-.09.03-.17.09-.22.09-.1.31-.11.42.01.06.05.09.13.09.21 0 .07-.03.15-.09.21-.05.05-.13.08-.21.08M13.15 25.55q-.12 0-.21-.09a.3.3 0 0 1-.09-.21c0-.09.04-.16.1-.22.09-.1.3-.11.42 0 .05.05.08.13.08.21 0 .07-.03.15-.08.21-.07.06-.14.09-.22.09ZM14.36 26.75a.3.3 0 0 1-.22-.09c-.06-.05-.09-.13-.09-.21s.04-.16.1-.22c.09-.1.31-.11.42 0 .05.05.08.13.08.21s-.03.16-.09.21c-.05.06-.13.09-.2.09ZM15.56 27.95c-.09 0-.16-.03-.22-.09a.29.29 0 0 1-.08-.21c0-.08.03-.15.08-.21.12-.11.32-.11.43 0 .05.06.09.13.09.21s-.04.16-.1.22c-.04.05-.12.08-.2.08M16.76 29.15c-.09 0-.16-.03-.22-.09a.304.304 0 0 1 .01-.42c.1-.11.3-.11.42 0q.09.09.09.21c0 .12-.03.16-.09.22-.05.05-.13.08-.21.08M17.96 30.36q-.12 0-.21-.09a.3.3 0 0 1-.09-.21c0-.08.03-.16.09-.22.11-.11.31-.11.43 0 .05.04.08.12.08.21q0 .12-.09.21c-.06.05-.13.09-.21.09ZM19.16 31.56c-.08 0-.16-.04-.21-.09a.3.3 0 0 1-.09-.21c0-.09.04-.16.1-.22.09-.1.3-.11.42 0a.304.304 0 0 1-.22.51ZM20.36 32.76c-.08 0-.16-.03-.21-.09s-.08-.13-.08-.21.03-.16.08-.21c.11-.11.32-.11.43 0a.29.29 0 0 1 0 .42.3.3 0 0 1-.22.09M21.57 33.96a.3.3 0 0 1-.22-.09.29.29 0 0 1-.08-.21c0-.08.03-.16.09-.21.09-.1.3-.12.42 0 .05.05.09.13.09.21s-.03.16-.09.21q-.09.09-.21.09M22.77 35.16c-.08 0-.16-.03-.21-.08a.3.3 0 0 1-.09-.22q0-.12.09-.21c.1-.11.31-.11.42 0a.288.288 0 0 1 0 .42q-.09.09-.21.09M23.97 36.37c-.08 0-.15-.04-.21-.09a.29.29 0 0 1-.09-.21c0-.09.03-.17.09-.22.1-.1.31-.11.42 0 .06.06.09.14.09.22 0 .07-.03.15-.08.2-.07.07-.14.1-.22.1M25.17 37.57c-.08 0-.16-.04-.21-.09a.3.3 0 0 1-.09-.21c0-.09.04-.16.09-.22.1-.1.32-.11.43 0 .05.05.08.13.08.21s-.03.16-.09.21c-.05.05-.12.09-.21.09ZM26.38 38.77c-.09 0-.16-.03-.22-.09-.05-.05-.08-.13-.08-.21s.03-.16.09-.21c.09-.11.31-.12.42 0 .05.05.09.13.09.21s-.04.16-.1.21c-.04.06-.12.09-.2.09M27.58 39.97c-.08 0-.16-.03-.21-.08-.06-.06-.09-.14-.09-.22s.03-.16.09-.21c.09-.1.31-.11.42 0 .05.05.09.13.09.21s-.03.16-.09.21q-.09.09-.21.09M28.78 41.17c-.08 0-.16-.03-.21-.09a.25.25 0 0 1-.09-.2c0-.09.03-.17.09-.22.1-.1.3-.12.42 0 .06.06.09.14.09.22 0 .07-.03.15-.08.2a.3.3 0 0 1-.22.09M29.98 42.38q-.12 0-.21-.09a.27.27 0 0 1-.09-.21c0-.09.04-.17.09-.22.09-.1.3-.11.42 0 .06.05.09.13.09.21s-.03.15-.09.21c-.05.05-.13.09-.21.09ZM31.18 43.58q-.12 0-.21-.09t-.09-.21c0-.12.03-.16.09-.21.12-.12.31-.12.43 0 .05.06.08.13.08.21 0 .07-.03.15-.08.21a.3.3 0 0 1-.22.09M32.39 44.78a.3.3 0 0 1-.22-.09c-.05-.05-.08-.13-.08-.21s.03-.16.09-.22c.09-.1.31-.11.42 0a.288.288 0 0 1 0 .42c-.06.06-.14.09-.21.09ZM33.59 45.98c-.09 0-.16-.03-.22-.09a.29.29 0 0 1-.08-.21c0-.08.03-.16.09-.21.1-.11.31-.11.42 0 .06.05.09.13.09.21s-.03.16-.09.22c-.05.05-.13.08-.21.08M34.79 47.18c-.08 0-.15-.03-.21-.08a.3.3 0 0 1-.09-.22q0-.12.09-.21c.1-.1.3-.11.42 0 .06.06.09.14.09.21 0 .08-.03.16-.09.21q-.09.09-.21.09M35.99 48.39q-.12 0-.21-.09a.3.3 0 0 1-.09-.21c0-.09.04-.16.09-.22.09-.1.31-.11.43 0a.304.304 0 0 1-.22.51ZM37.19 49.59c-.07 0-.14-.03-.2-.08-.07-.07-.1-.14-.1-.22s.04-.16.09-.22c.11-.1.3-.11.42 0 .06.06.09.14.09.22 0 .07-.03.15-.08.21-.07.06-.14.09-.22.09M38.4 50.79c-.08 0-.15-.03-.21-.08-.06-.06-.09-.14-.09-.22s.03-.16.09-.22c.08-.09.3-.11.42.01.05.06.09.13.09.21s-.03.15-.09.21-.14.09-.21.09M39.6 51.99c-.09 0-.16-.03-.22-.09a.304.304 0 0 1 .01-.42c.1-.11.3-.11.42 0 .06.06.09.14.09.21 0 .08-.03.16-.09.21-.05.06-.13.09-.21.09M40.8 53.19c-.08 0-.16-.03-.21-.08a.3.3 0 0 1-.09-.22q0-.12.09-.21c.1-.11.3-.11.42 0q.09.105.09.21c0 .08-.03.15-.08.21a.3.3 0 0 1-.22.09M1.12 7.52c-.08 0-.16-.04-.21-.09q-.09-.09-.09-.21c0-.12.03-.16.09-.21.11-.12.32-.12.43 0 .05.05.08.13.08.21s-.03.16-.09.21c-.05.05-.13.09-.21.09M2.32 8.72c-.08 0-.16-.04-.21-.1-.05-.04-.09-.12-.09-.2s.03-.16.09-.21c.11-.11.31-.12.42 0 .06.07.09.14.09.22s-.03.15-.09.21q-.075.09-.21.09ZM3.53 9.92c-.09 0-.16-.03-.22-.09a.288.288 0 0 1 0-.42c.13-.12.31-.11.43 0 .05.06.09.13.09.21s-.04.16-.1.21c-.04.06-.12.09-.2.09M4.73 11.12a.3.3 0 0 1-.22-.09.304.304 0 0 1 0-.41c.14-.13.32-.12.43 0q.09.09.09.21c0 .09-.04.16-.1.22-.04.05-.12.08-.2.08ZM5.93 12.32c-.08 0-.16-.03-.21-.08a.3.3 0 0 1-.09-.22c0-.07.03-.15.08-.2.13-.13.32-.12.43 0q.09.09.09.21c0 .09-.04.17-.09.22s-.13.08-.21.08ZM7.13 13.53c-.08 0-.15-.04-.21-.09a.3.3 0 0 1-.09-.21c0-.08.03-.16.09-.22.1-.1.32-.11.43 0 .05.04.08.12.08.21q0 .12-.09.21c-.05.05-.13.09-.21.09ZM8.34 14.73a.3.3 0 0 1-.22-.09.29.29 0 0 1 0-.42c.1-.11.31-.12.43 0 .05.05.08.13.08.21s-.03.16-.09.21c-.05.06-.13.09-.2.09M9.54 15.93c-.09 0-.16-.03-.22-.09-.05-.05-.08-.13-.08-.21s.03-.16.09-.22c.09-.1.31-.11.42 0a.288.288 0 0 1 0 .42q-.09.09-.21.09ZM10.74 17.13c-.08 0-.16-.03-.21-.08-.06-.06-.09-.14-.09-.22s.03-.16.09-.21c.09-.1.31-.11.42 0a.29.29 0 0 1 0 .42q-.09.09-.21.09M11.94 18.34q-.12 0-.21-.09a.3.3 0 0 1-.09-.21c0-.08.03-.16.09-.22.11-.11.31-.11.42 0 .05.04.09.12.09.21q0 .12-.09.21c-.06.05-.13.09-.21.09ZM13.14 19.54c-.08 0-.16-.03-.21-.09a.29.29 0 0 1-.09-.21c0-.09.04-.16.09-.22.1-.1.32-.11.43.01.05.05.08.13.08.21 0 .07-.03.15-.08.21a.3.3 0 0 1-.22.09M14.34 20.74c-.08 0-.16-.03-.21-.09-.05-.05-.09-.13-.09-.21s.03-.16.09-.21c.11-.11.3-.12.42 0 .06.07.09.14.09.22s-.03.15-.08.21a.3.3 0 0 1-.22.09ZM15.55 21.94c-.09 0-.16-.03-.22-.09-.05-.06-.09-.13-.09-.21s.04-.15.09-.21c.12-.11.31-.11.43 0a.29.29 0 0 1 0 .42c-.05.06-.13.09-.21.09M16.75 23.14c-.09 0-.16-.03-.22-.09a.29.29 0 0 1-.08-.21q0-.12.09-.21c.11-.11.3-.11.42 0 .06.06.09.14.09.21 0 .08-.03.16-.09.21q-.09.09-.21.09M17.95 24.35c-.08 0-.15-.04-.21-.09a.3.3 0 0 1-.09-.21c0-.08.03-.16.09-.22.1-.1.31-.11.43.01a.304.304 0 0 1-.22.51M19.15 25.55c-.08 0-.16-.04-.21-.09a.33.33 0 0 1-.09-.21c0-.09.04-.16.1-.22.08-.1.31-.11.42 0 .05.05.08.13.08.21 0 .07-.03.15-.08.21-.07.06-.14.09-.22.09ZM20.36 26.75a.28.28 0 0 1-.22-.09c-.05-.05-.09-.13-.09-.21s.04-.16.09-.21c.12-.11.31-.11.42 0 .06.07.09.14.09.22s-.03.15-.08.21q-.09.09-.21.09ZM21.56 27.95c-.09 0-.16-.03-.22-.09-.05-.05-.08-.13-.08-.21s.03-.16.09-.21c.1-.11.3-.11.42 0 .06.06.09.14.09.21 0 .08-.03.15-.08.21-.07.06-.14.09-.22.09M22.76 29.15a.3.3 0 0 1-.22-.09.29.29 0 0 1-.08-.21c0-.08.03-.16.09-.21.1-.1.31-.11.42 0q.09.09.09.21c0 .12-.03.16-.09.21-.05.06-.13.09-.21.09M23.96 30.36c-.08 0-.16-.04-.22-.1-.05-.04-.08-.12-.08-.2 0-.09.03-.17.09-.22.09-.1.32-.11.43 0a.304.304 0 0 1-.01.42c-.06.05-.13.09-.21.09ZM25.16 31.56c-.08 0-.16-.04-.21-.09s-.09-.13-.09-.21.04-.16.09-.22c.11-.11.31-.11.42 0 .06.06.09.14.09.22s-.03.16-.09.21c-.05.05-.12.09-.21.09M26.37 32.76a.28.28 0 0 1-.22-.09c-.05-.05-.08-.13-.08-.21s.03-.16.08-.21c.12-.11.31-.11.43 0 .05.05.08.13.08.21s-.03.16-.08.21c-.05.06-.13.09-.21.09M27.57 33.96c-.09 0-.16-.03-.22-.09a.304.304 0 0 1 .01-.42c.11-.11.31-.11.42 0q.09.09.09.21c0 .12-.03.16-.09.21-.05.06-.13.09-.21.09M28.77 35.16c-.08 0-.16-.03-.21-.08a.3.3 0 0 1-.09-.22q0-.12.09-.21c.11-.11.31-.11.42 0q.09.09.09.21c0 .12-.03.16-.09.22-.06.05-.13.08-.21.08M29.97 36.36c-.08 0-.16-.03-.21-.09-.06-.04-.09-.12-.09-.2 0-.09.03-.17.09-.22.1-.1.31-.11.42 0 .06.06.09.14.09.22 0 .07-.03.15-.08.21a.35.35 0 0 1-.22.08M31.17 37.57q-.12 0-.21-.09c-.05-.05-.09-.13-.09-.21s.04-.16.1-.22c.08-.1.31-.11.42 0 .05.05.08.13.08.21s-.03.15-.08.21a.3.3 0 0 1-.22.09ZM32.38 38.77c-.09 0-.16-.03-.22-.09-.05-.05-.08-.13-.08-.21s.03-.16.09-.22c.09-.1.31-.11.42.01.05.05.09.13.09.21s-.04.16-.1.22a.28.28 0 0 1-.2.08M33.58 39.97c-.08 0-.15-.03-.21-.08-.06-.06-.09-.14-.09-.22s.03-.16.09-.21c.09-.1.3-.12.42 0a.29.29 0 0 1 0 .42c-.06.06-.14.09-.21.09M34.78 41.18c-.08 0-.16-.04-.21-.1a.25.25 0 0 1-.09-.2c0-.09.03-.17.09-.22.1-.1.32-.11.42 0 .06.04.09.12.09.21q0 .12-.09.21c-.05.05-.13.09-.21.09ZM35.98 42.38q-.12 0-.21-.09t-.09-.21c0-.12.03-.16.09-.22.11-.11.31-.11.42 0 .06.05.09.13.09.21s-.03.15-.09.21c-.05.05-.13.09-.21.09ZM37.18 43.58c-.07 0-.14-.03-.2-.08-.07-.07-.1-.14-.1-.22s.04-.16.1-.22c.09-.1.29-.11.41 0 .06.06.09.14.09.22 0 .07-.03.15-.08.21-.07.06-.14.09-.22.09M38.39 44.78c-.09 0-.16-.03-.22-.09-.05-.05-.08-.13-.08-.21s.03-.16.08-.21c.12-.11.31-.12.43 0 .05.05.08.13.08.21s-.03.16-.08.21c-.05.06-.13.09-.21.09M39.59 45.98a.3.3 0 0 1-.22-.09.32.32 0 0 1-.08-.21c0-.07.03-.15.08-.21.12-.12.32-.11.43 0a.288.288 0 0 1 0 .42q-.09.09-.21.09M40.79 47.18c-.08 0-.16-.03-.21-.08a.3.3 0 0 1-.09-.22c0-.08.03-.16.09-.21.1-.1.31-.11.42 0 .06.05.09.13.09.21s-.03.16-.09.22c-.06.05-.13.08-.21.08M41.99 48.39c-.07 0-.15-.03-.21-.09a.29.29 0 0 1-.09-.21c0-.09.04-.17.09-.22.11-.1.3-.11.42 0 .06.06.09.14.09.22 0 .07-.03.15-.08.21-.07.06-.14.09-.22.09M43.19 49.59c-.07 0-.14-.03-.2-.08-.07-.06-.1-.14-.1-.22s.04-.16.1-.22c.09-.1.31-.11.42 0 .05.05.08.13.08.21s-.03.15-.08.21a.3.3 0 0 1-.22.09ZM44.4 50.79c-.08 0-.16-.03-.21-.08-.07-.07-.1-.14-.1-.22s.03-.15.09-.21c.12-.12.31-.11.43 0a.29.29 0 0 1 0 .42c-.06.06-.14.09-.21.09M45.6 51.99c-.08 0-.15-.02-.21-.08s-.09-.14-.09-.22.03-.16.09-.21c.1-.11.3-.11.42 0 .06.06.09.14.09.21 0 .08-.03.15-.08.21-.07.06-.14.09-.22.09M46.8 53.2c-.08 0-.15-.04-.21-.09a.3.3 0 0 1-.09-.22q0-.12.09-.21c.11-.11.3-.11.42 0q.09.105.09.21c0 .08-.03.15-.08.21-.06.06-.14.1-.22.1M1.11 1.51q-.12 0-.21-.09a.3.3 0 0 1-.09-.21c0-.08.03-.16.09-.22.1-.1.31-.11.42 0q.09.075.09.21 0 .12-.09.21c-.05.05-.13.09-.21.09ZM2.31 2.71c-.08 0-.16-.03-.21-.09q-.09-.09-.09-.21c0-.12.03-.16.09-.21.11-.11.32-.12.43 0 .05.05.08.13.08.21s-.03.15-.08.21c-.06.06-.13.09-.22.09M3.52 3.91a.3.3 0 0 1-.22-.09c-.06-.05-.09-.13-.09-.21s.03-.15.09-.21c.13-.12.31-.11.43 0 .05.05.08.13.08.21s-.03.16-.09.22a.28.28 0 0 1-.2.08M4.72 5.11c-.08 0-.16-.03-.21-.08-.06-.07-.1-.14-.1-.22s.04-.16.1-.21c.1-.11.31-.12.42 0a.288.288 0 0 1 0 .42c-.06.06-.14.09-.21.09M5.92 6.31c-.08 0-.16-.03-.21-.08a.33.33 0 0 1-.09-.22c0-.07.03-.15.08-.21.12-.11.33-.11.43 0 .06.04.09.12.09.2s-.03.16-.09.21c-.05.06-.13.09-.21.09ZM7.12 7.52c-.08 0-.16-.04-.21-.09q-.09-.09-.09-.21c0-.12.03-.15.08-.21.13-.13.32-.12.43-.01.06.06.09.14.09.22s-.03.15-.09.21c-.05.05-.13.09-.21.09M8.32 8.72a.305.305 0 0 1-.3-.3c0-.08.03-.16.09-.21.11-.12.32-.12.43 0 .05.05.08.13.08.21s-.03.15-.08.21a.3.3 0 0 1-.22.09M9.53 9.92a.28.28 0 0 1-.22-.09c-.05-.05-.09-.13-.09-.21s.04-.15.09-.21c.12-.11.3-.12.42 0 .07.07.1.15.1.22 0 .08-.04.15-.09.21q-.09.09-.21.09ZM10.73 11.12a.3.3 0 0 1-.22-.09c-.05-.05-.08-.13-.08-.21s.03-.16.09-.21c.09-.1.31-.12.42 0 .05.05.09.13.09.21s-.03.16-.09.21q-.09.09-.21.09M11.93 12.32a.3.3 0 0 1-.22-.09.304.304 0 0 1 .01-.42c.11-.11.3-.11.42 0 .06.06.09.14.09.21 0 .08-.03.16-.09.22-.05.05-.13.08-.21.08M13.13 13.53c-.08 0-.16-.04-.21-.1a.25.25 0 0 1-.09-.2c0-.09.03-.16.09-.22.11-.11.31-.11.42 0 .06.06.09.14.09.22 0 .07-.03.15-.08.2-.06.06-.14.1-.22.1M14.33 14.73c-.08 0-.16-.03-.21-.09-.05-.05-.09-.13-.09-.21s.04-.16.1-.22c.09-.1.31-.11.42 0 .05.05.08.13.08.21s-.03.16-.09.21c-.05.05-.12.09-.21.09ZM15.54 15.93a.3.3 0 0 1-.22-.09c-.05-.05-.08-.13-.08-.21s.03-.16.09-.22c.09-.09.31-.11.42 0a.29.29 0 0 1 0 .42c-.06.06-.14.09-.21.09ZM16.74 17.13c-.09 0-.16-.03-.22-.09a.304.304 0 0 1 .01-.42c.1-.11.3-.11.42 0q.09.09.09.21c0 .12-.03.16-.09.22-.05.05-.13.08-.21.08M17.94 18.33c-.09 0-.16-.03-.22-.09-.05-.04-.08-.12-.08-.21 0-.07.03-.15.09-.21.1-.11.3-.11.42 0q.09.09.09.21c0 .09-.03.17-.09.22-.05.05-.13.08-.21.08M19.14 19.54q-.12 0-.21-.09t-.09-.21c0-.12.03-.16.09-.22.1-.1.32-.11.43.01.05.04.08.12.08.21q0 .12-.09.21t-.21.09M20.34 20.74q-.12 0-.21-.09t-.09-.21c0-.12.04-.16.1-.22.09-.1.31-.11.42 0a.304.304 0 0 1-.01.42c-.05.06-.13.09-.21.09ZM21.55 21.94c-.09 0-.16-.03-.22-.09-.05-.05-.08-.13-.08-.21s.03-.16.08-.21c.12-.11.31-.11.43 0a.29.29 0 0 1 0 .42q-.09.09-.21.09M22.75 23.14c-.09 0-.16-.03-.22-.09a.29.29 0 0 1-.08-.21c0-.08.03-.16.09-.21.1-.1.31-.11.42 0 .05.04.09.12.09.2s-.03.16-.09.22c-.05.05-.13.08-.21.08ZM23.95 24.34c-.08 0-.16-.03-.21-.09-.06-.04-.09-.12-.09-.21q0-.12.09-.21c.1-.1.3-.11.42 0 .06.06.09.14.09.21 0 .08-.03.16-.08.22a.35.35 0 0 1-.22.08M25.15 25.55q-.12 0-.21-.09a.29.29 0 0 1-.09-.21c0-.09.04-.16.1-.22.09-.1.31-.11.42 0 .05.05.08.13.08.21s-.03.15-.08.21a.3.3 0 0 1-.22.09ZM26.36 26.75a.28.28 0 0 1-.22-.09c-.05-.05-.09-.13-.09-.21s.04-.16.1-.22c.09-.1.3-.11.42 0 .05.05.08.13.08.21s-.03.16-.08.21c-.06.06-.14.09-.21.09ZM27.56 27.95c-.08 0-.16-.03-.21-.08-.06-.06-.09-.14-.09-.22s.03-.16.09-.21c.09-.1.31-.11.42 0 .05.05.09.13.09.21s-.04.16-.09.21q-.09.09-.21.09M28.76 29.15c-.08 0-.15-.03-.21-.08-.06-.06-.09-.14-.09-.22s.03-.16.09-.21c.09-.1.3-.12.42 0a.29.29 0 0 1 0 .42c-.06.06-.14.09-.21.09M29.96 30.35c-.08 0-.16-.03-.21-.08a.28.28 0 0 1-.09-.22q0-.12.09-.21c.1-.11.32-.11.43 0 .05.06.08.14.08.21 0 .08-.03.16-.09.22-.05.05-.13.08-.21.08M31.16 31.56c-.08 0-.16-.04-.21-.09a.3.3 0 0 1-.09-.21c0-.09.04-.16.09-.22.1-.1.31-.11.43 0 .05.05.08.13.08.21s-.03.15-.08.21a.3.3 0 0 1-.22.09ZM32.37 32.76a.3.3 0 0 1-.22-.09c-.05-.05-.08-.13-.08-.21s.03-.16.09-.22c.09-.1.31-.11.42 0 .05.05.09.13.09.21s-.04.16-.1.21c-.05.06-.13.09-.2.09ZM33.57 33.96a.3.3 0 0 1-.22-.09.304.304 0 0 1 .43-.43c.06.07.09.15.09.22 0 .08-.03.15-.08.21-.07.06-.15.09-.22.09M34.77 35.16c-.08 0-.16-.03-.21-.08a.28.28 0 0 1-.09-.22c0-.08.03-.16.09-.21.1-.1.31-.11.42 0 .06.05.09.13.09.2 0 .09-.03.16-.09.22-.06.05-.13.08-.21.08ZM35.97 36.37c-.08 0-.15-.04-.21-.09a.29.29 0 0 1-.09-.21c0-.09.03-.16.09-.22.11-.11.31-.11.42 0 .06.06.09.13.09.22q0 .12-.09.21c-.05.05-.13.09-.21.09M37.17 37.57q-.12 0-.21-.09t-.09-.21c0-.12.03-.16.09-.21.1-.11.32-.12.43 0 .05.05.08.13.08.21s-.03.15-.08.21a.3.3 0 0 1-.22.09M38.38 38.77c-.09 0-.16-.03-.22-.09-.05-.05-.08-.13-.08-.21s.03-.16.09-.21c.09-.1.31-.12.42 0 .05.05.09.13.09.21s-.04.16-.09.21q-.09.09-.21.09M39.58 39.97a.3.3 0 0 1-.22-.09.29.29 0 0 1-.08-.21c0-.08.03-.16.09-.21.09-.1.3-.12.42 0 .06.06.09.14.09.21 0 .08-.03.16-.09.21-.05.06-.13.09-.21.09M40.78 41.17c-.08 0-.16-.03-.21-.09a.25.25 0 0 1-.09-.2c0-.09.03-.17.09-.22.1-.1.32-.11.42 0 .06.04.09.12.09.21q0 .12-.09.21c-.05.05-.13.08-.21.08ZM41.98 42.38c-.08 0-.16-.04-.21-.09a.27.27 0 0 1-.09-.21c0-.09.04-.16.09-.22.09-.1.3-.11.42 0 .06.06.09.14.09.22 0 .07-.03.15-.08.21a.36.36 0 0 1-.22.09M43.18 43.58a.305.305 0 0 1-.3-.3c0-.08.04-.16.1-.22.09-.1.31-.11.42 0a.304.304 0 0 1-.01.42c-.05.06-.13.09-.21.09ZM44.39 44.78c-.09 0-.16-.03-.22-.09-.05-.06-.09-.13-.09-.21s.04-.15.09-.21c.11-.11.32-.12.43 0 .05.05.09.13.09.21s-.04.16-.09.21q-.09.09-.21.09M45.59 45.98c-.08 0-.15-.03-.21-.08-.06-.06-.09-.14-.09-.22s.03-.16.09-.21c.09-.1.31-.12.42 0 .06.05.09.13.09.21s-.03.16-.09.21q-.09.09-.21.09M46.79 47.18c-.08 0-.15-.03-.21-.08a.3.3 0 0 1-.09-.22q0-.12.09-.21c.1-.11.31-.11.42 0q.09.09.09.21c0 .12-.03.16-.09.22-.06.05-.13.08-.21.08M47.99 48.39q-.12 0-.21-.09a.3.3 0 0 1-.09-.21c0-.08.03-.16.09-.21.1-.12.31-.12.43 0 .05.05.08.13.08.21s-.03.15-.08.21a.36.36 0 0 1-.22.09M49.19 49.59q-.12 0-.21-.09c-.05-.05-.09-.13-.09-.21s.04-.16.09-.21c.1-.11.32-.12.43 0 .05.05.08.13.08.21s-.03.16-.08.21a.3.3 0 0 1-.22.09M50.4 50.79c-.08 0-.15-.03-.21-.08-.06-.06-.1-.14-.1-.22s.04-.16.1-.21c.09-.11.31-.12.42 0 .05.04.09.12.09.2s-.04.15-.09.21c-.06.06-.14.09-.21.09ZM51.6 51.99c-.08 0-.16-.03-.21-.08a.3.3 0 0 1-.09-.21c0-.08.03-.16.09-.22.1-.11.31-.11.42 0 .06.06.09.14.09.22 0 .07-.03.15-.09.2q-.09.09-.21.09M52.8 53.2q-.12 0-.21-.09a.3.3 0 0 1-.09-.22q0-.12.09-.21c.11-.11.31-.11.42 0q.09.09.09.21c0 .09-.03.16-.09.22-.05.05-.13.09-.21.09M7.11 1.51q-.12 0-.21-.09t-.09-.21c0-.12.03-.16.09-.22.1-.11.32-.11.43 0a.304.304 0 0 1-.22.51ZM8.31 2.71c-.08 0-.16-.03-.21-.09q-.09-.09-.09-.21c0-.12.04-.16.09-.22.1-.1.31-.11.43.01.05.05.08.13.08.21s-.03.15-.08.21c-.06.06-.13.09-.22.09M9.52 3.91a.3.3 0 0 1-.22-.09c-.05-.05-.09-.13-.09-.21s.04-.16.1-.22c.09-.09.3-.11.42 0 .05.05.09.13.09.21s-.04.15-.09.21q-.105.09-.21.09ZM10.72 5.11c-.09 0-.16-.03-.22-.09-.05-.05-.08-.13-.08-.21s.03-.16.09-.21c.1-.11.3-.11.42 0a.29.29 0 0 1 0 .42q-.09.09-.21.09M11.92 6.31c-.08 0-.15-.03-.21-.08a.33.33 0 0 1-.09-.22c0-.07.03-.15.09-.21.11-.11.31-.11.42 0 .05.04.09.12.09.2 0 .09-.03.16-.09.22-.06.05-.13.08-.21.08ZM13.12 7.52q-.12 0-.21-.09a.3.3 0 0 1-.09-.21c0-.08.03-.16.09-.22.1-.11.31-.11.43.01a.304.304 0 0 1-.01.42q-.09.09-.21.09M14.32 8.72q-.12 0-.21-.09t-.09-.21c0-.12.04-.16.1-.22.09-.1.3-.11.42 0 .05.05.08.13.08.21s-.03.15-.08.21c-.07.06-.14.09-.22.09ZM15.53 9.92c-.09 0-.16-.03-.22-.09-.05-.05-.09-.13-.09-.21s.04-.15.09-.21c.12-.11.31-.11.43 0a.29.29 0 0 1 0 .42q-.09.09-.21.09M16.73 11.12c-.09 0-.16-.03-.22-.09a.304.304 0 0 1 .01-.42c.11-.11.3-.11.42 0 .06.06.09.14.09.21 0 .08-.03.15-.08.21-.07.06-.14.09-.22.09M17.93 12.32c-.08 0-.16-.03-.21-.08a.29.29 0 0 1-.09-.21c0-.09.03-.17.09-.22.1-.1.31-.11.42 0q.09.075.09.21c0 .07-.03.15-.09.21-.06.05-.13.08-.21.08ZM19.13 13.53c-.08 0-.16-.04-.21-.09-.06-.05-.09-.13-.09-.21s.03-.16.09-.22c.11-.11.31-.11.42 0 .06.05.09.13.09.21s-.03.15-.09.21c-.05.05-.13.09-.21.09ZM20.33 14.73c-.07 0-.15-.03-.21-.09q-.09-.09-.09-.21c0-.12.04-.16.09-.22.1-.1.32-.11.43 0 .05.05.08.13.08.21s-.03.16-.09.21c-.05.06-.13.09-.21.09ZM21.54 15.93a.3.3 0 0 1-.22-.09c-.05-.05-.08-.13-.08-.21s.03-.16.09-.22c.09-.1.31-.11.42 0a.288.288 0 0 1 0 .42c-.06.06-.14.09-.21.09ZM22.74 17.13c-.08 0-.16-.03-.21-.08-.06-.06-.09-.14-.09-.22s.03-.16.09-.21c.1-.11.3-.12.42 0a.29.29 0 0 1 0 .42q-.09.09-.21.09M23.94 18.33c-.08 0-.16-.03-.21-.09-.06-.04-.09-.12-.09-.21q0-.12.09-.21c.11-.11.31-.11.42 0 .06.06.09.14.09.21 0 .09-.03.16-.09.22-.05.05-.13.08-.21.08M25.14 19.54q-.12 0-.21-.09t-.09-.21c0-.12.03-.16.09-.21a.29.29 0 0 1 .42 0 .29.29 0 0 1 0 .42c-.05.06-.13.09-.21.09M26.34 20.74c-.08 0-.16-.03-.21-.09-.05-.05-.09-.13-.09-.21s.03-.16.09-.21a.29.29 0 0 1 .42 0c.06.07.09.14.09.22s-.03.16-.09.21q-.075.09-.21.09ZM27.55 21.94c-.09 0-.16-.03-.22-.09-.05-.05-.08-.13-.08-.21s.03-.15.08-.21c.11-.11.31-.12.43 0a.29.29 0 0 1 0 .42q-.09.09-.21.09M28.75 23.14c-.08 0-.16-.03-.21-.08-.06-.06-.09-.14-.09-.22s.03-.16.09-.21c.09-.1.31-.11.42 0 .06.06.09.14.09.21 0 .08-.03.15-.08.21-.07.06-.15.09-.22.09M29.95 24.34c-.08 0-.16-.03-.21-.09a.25.25 0 0 1-.09-.2c0-.09.03-.16.09-.22.11-.11.3-.11.42 0 .06.07.09.14.09.22 0 .07-.03.14-.08.2a.3.3 0 0 1-.22.09M31.15 25.55c-.07 0-.15-.03-.21-.09q-.09-.09-.09-.21c0-.12.03-.16.09-.22.11-.11.32-.11.43 0 .05.06.08.13.08.21 0 .07-.03.15-.08.21-.07.06-.14.09-.22.09ZM32.36 26.75a.3.3 0 0 1-.22-.09c-.05-.05-.09-.13-.09-.21s.04-.16.09-.21c.11-.11.31-.12.43 0 .05.05.08.13.08.21s-.03.16-.08.21c-.06.06-.14.09-.21.09M33.56 27.95a.3.3 0 0 1-.22-.09c-.05-.05-.08-.13-.08-.21s.03-.16.09-.21c.09-.1.31-.11.42 0a.288.288 0 0 1 0 .42q-.09.09-.21.09M34.76 29.15c-.08 0-.16-.03-.21-.09-.06-.05-.09-.13-.09-.21s.03-.15.09-.21c.1-.11.3-.11.42 0a.288.288 0 0 1 0 .42c-.05.06-.13.09-.21.09M35.96 30.36q-.12 0-.21-.09a.29.29 0 0 1-.09-.21c0-.09.03-.17.09-.22.09-.1.31-.11.42 0 .06.06.09.14.09.22 0 .07-.03.15-.08.2-.07.06-.14.1-.22.1M37.16 31.56q-.12 0-.21-.09c-.05-.05-.09-.13-.09-.21s.04-.16.09-.22c.1-.1.31-.11.42 0 .06.06.09.14.09.22s-.03.15-.08.21a.3.3 0 0 1-.22.09M38.37 32.76a.28.28 0 0 1-.22-.09c-.05-.06-.08-.13-.08-.21s.03-.16.08-.21c.11-.11.32-.12.43 0 .05.05.09.13.09.21s-.04.15-.09.21-.13.09-.21.09M39.57 33.96c-.08 0-.16-.03-.21-.09-.06-.05-.09-.13-.09-.21s.03-.16.09-.21c.1-.11.3-.11.42 0a.288.288 0 0 1 0 .42q-.09.09-.21.09M40.77 35.16c-.08 0-.16-.03-.21-.08a.29.29 0 0 1-.09-.21c0-.09.03-.16.09-.22.1-.1.31-.11.42 0 .06.06.09.14.09.22 0 .07-.03.15-.09.21-.05.05-.13.08-.21.08M41.97 36.37a.305.305 0 0 1-.22-.51c.12-.12.32-.12.43-.01.06.07.09.14.09.22 0 .07-.03.15-.08.21-.07.06-.14.09-.22.09M43.17 37.57c-.08 0-.16-.04-.21-.1a.27.27 0 0 1-.09-.2c0-.09.04-.16.09-.22.1-.1.32-.11.43 0 .05.05.08.12.08.21 0 .08-.03.16-.09.21-.05.05-.12.09-.21.09ZM44.38 38.77c-.08 0-.15-.03-.21-.08-.06-.07-.1-.14-.1-.22s.04-.16.09-.21c.12-.11.32-.11.43 0a.288.288 0 0 1 0 .42c-.06.06-.14.09-.21.09M45.58 39.97a.3.3 0 0 1-.22-.09.304.304 0 0 1 .01-.42c.1-.11.32-.11.43 0 .05.05.08.12.08.2s-.03.16-.09.21q-.09.09-.21.09ZM46.78 41.17c-.08 0-.15-.02-.21-.08a.33.33 0 0 1-.09-.22c0-.07.03-.15.08-.2.12-.13.32-.12.43 0 .06.06.09.14.09.21 0 .08-.03.15-.08.21-.07.06-.14.09-.22.09ZM47.98 42.38q-.12 0-.21-.09t-.09-.21c0-.12.03-.16.09-.21a.29.29 0 0 1 .42 0c.06.06.09.14.09.22a.305.305 0 0 1-.3.3ZM49.18 43.58c-.07 0-.15-.03-.21-.08-.06-.07-.09-.14-.09-.22s.03-.16.09-.21c.11-.12.31-.12.43 0 .05.05.08.13.08.21s-.03.15-.08.21c-.07.06-.14.09-.22.09M50.39 44.78c-.08 0-.15-.03-.21-.08-.07-.07-.1-.14-.1-.22s.03-.15.09-.21c.12-.12.32-.12.43 0a.29.29 0 0 1 0 .42q-.105.09-.21.09M51.59 45.98c-.08 0-.16-.03-.21-.09a.26.26 0 0 1-.09-.21c0-.08.03-.16.09-.21.09-.1.31-.11.42 0 .05.05.09.13.09.21s-.04.16-.09.22c-.05.05-.13.08-.21.08M52.79 47.18c-.08 0-.16-.03-.21-.08a.33.33 0 0 1-.09-.22c0-.07.03-.15.09-.21.1-.11.31-.11.43.01.05.05.08.13.08.2 0 .08-.03.15-.08.21a.3.3 0 0 1-.22.09M53.99 48.39q-.12 0-.21-.09t-.09-.21c0-.12.04-.16.09-.22.1-.1.32-.11.43 0 .05.05.08.12.08.21 0 .08-.03.16-.09.21-.05.05-.13.09-.21.09ZM55.19 49.59q-.12 0-.21-.09a.29.29 0 0 1 0-.42c.11-.11.32-.12.43 0 .05.05.09.13.09.21s-.04.16-.1.21c-.04.05-.12.09-.21.09M56.4 50.79c-.09 0-.16-.03-.22-.09-.05-.05-.09-.13-.09-.21s.04-.16.09-.21c.1-.11.32-.12.43 0 .05.05.08.13.08.21s-.03.16-.08.21c-.05.06-.13.09-.21.09M57.6 51.99c-.08 0-.15-.02-.21-.08a.33.33 0 0 1-.09-.22c0-.07.03-.15.08-.21.12-.11.32-.11.43 0q.09.09.09.21c0 .12-.03.16-.09.22-.06.05-.13.08-.21.08M58.8 53.2c-.08 0-.16-.04-.21-.09a.3.3 0 0 1-.09-.22c0-.07.03-.15.09-.21.1-.11.3-.11.42 0a.304.304 0 0 1 .01.42c-.06.06-.14.1-.22.1M13.11 1.51c-.08 0-.16-.04-.21-.09a.29.29 0 0 1-.09-.21c0-.09.04-.16.09-.22.1-.1.31-.11.42 0 .06.05.09.13.09.21 0 .07-.03.15-.08.21a.36.36 0 0 1-.22.09ZM14.31 2.71q-.12 0-.21-.09c-.06-.05-.09-.13-.09-.21s.04-.16.1-.22c.09-.1.3-.11.42.01.05.05.08.13.08.21s-.03.15-.08.21a.3.3 0 0 1-.22.09M15.52 3.91a.3.3 0 0 1-.22-.09c-.05-.05-.09-.13-.09-.21s.04-.16.1-.22c.09-.1.3-.11.42 0 .05.05.09.13.09.21s-.04.15-.09.21c-.06.06-.14.09-.21.09ZM16.72 5.11a.3.3 0 0 1-.22-.09c-.05-.05-.08-.13-.08-.21s.03-.16.09-.21c.1-.11.31-.12.42 0 .05.05.09.13.09.21s-.04.16-.09.22c-.06.05-.13.08-.21.08M17.92 6.31c-.08 0-.16-.03-.21-.09-.06-.05-.09-.13-.09-.21s.03-.16.09-.21c.09-.1.31-.11.42 0 .05.04.09.12.09.2s-.03.16-.09.22c-.06.05-.13.08-.21.08ZM19.12 7.52q-.12 0-.21-.09a.3.3 0 0 1-.09-.21c0-.08.03-.16.09-.22.1-.1.32-.11.42.01.06.04.09.12.09.21q0 .12-.09.21c-.05.06-.13.09-.21.09M20.32 8.72c-.08 0-.16-.03-.21-.09-.05-.05-.09-.13-.09-.21s.03-.16.09-.21a.29.29 0 0 1 .42 0c.06.05.09.13.09.21s-.03.16-.09.21c-.04.05-.12.09-.21.09M21.53 9.92a.28.28 0 0 1-.22-.09c-.05-.05-.08-.13-.08-.21s.03-.16.09-.21c.09-.11.31-.12.42 0 .05.05.09.13.09.21s-.04.16-.1.21c-.04.06-.12.09-.2.09M22.73 11.12c-.08 0-.16-.03-.21-.08-.06-.06-.09-.14-.09-.22s.03-.16.09-.21c.1-.11.31-.11.42 0 .05.04.09.12.09.2s-.03.16-.09.22c-.06.05-.13.08-.21.08ZM23.93 12.33a.305.305 0 0 1-.3-.3c0-.08.03-.16.09-.22.1-.11.31-.11.42 0 .05.04.09.12.09.21q0 .12-.09.21c-.06.05-.13.09-.21.09ZM25.13 13.53c-.08 0-.16-.04-.21-.1-.06-.04-.09-.12-.09-.2 0-.09.04-.17.09-.22.1-.1.31-.11.43 0a.304.304 0 0 1-.22.51ZM26.33 14.73q-.12 0-.21-.09a.3.3 0 0 1-.09-.21c0-.09.04-.16.1-.22.09-.1.31-.11.42 0 .05.05.08.13.08.21s-.03.16-.09.21q-.075.09-.21.09ZM27.54 15.93a.3.3 0 0 1-.22-.09c-.05-.05-.08-.13-.08-.21s.03-.16.09-.22c.09-.1.31-.1.42 0a.288.288 0 0 1 0 .42c-.06.06-.14.09-.21.09ZM28.74 17.13c-.08 0-.16-.03-.21-.09-.06-.05-.09-.13-.09-.21s.03-.16.09-.21c.1-.11.31-.11.42 0 .05.05.09.13.09.21s-.03.16-.09.22c-.06.05-.13.08-.21.08M29.94 18.34c-.08 0-.16-.04-.21-.09a.29.29 0 0 1-.09-.21c0-.09.03-.16.09-.22.11-.11.31-.11.42 0 .06.06.09.14.09.22a.305.305 0 0 1-.3.3M31.14 19.54c-.08 0-.16-.03-.21-.09q-.09-.09-.09-.21c0-.12.03-.16.09-.21.11-.12.31-.12.42-.01.06.06.09.14.09.22s-.03.15-.09.21c-.05.06-.13.09-.21.09M32.34 20.74c-.07 0-.15-.03-.2-.09-.07-.06-.1-.13-.1-.21s.04-.16.09-.21c.1-.11.31-.12.42 0 .06.07.09.14.09.22 0 .07-.03.15-.08.21a.3.3 0 0 1-.22.09ZM33.55 21.94c-.09 0-.16-.03-.22-.09-.05-.05-.08-.13-.08-.21s.03-.16.08-.21c.11-.11.31-.12.42-.01.07.07.1.14.1.22s-.03.15-.09.21q-.09.09-.21.09M34.75 23.14c-.09 0-.16-.03-.22-.09a.304.304 0 0 1 .01-.42c.11-.11.31-.11.42 0q.09.09.09.21c0 .12-.03.16-.09.21-.05.06-.13.09-.21.09M35.95 24.35q-.12 0-.21-.09a.29.29 0 0 1-.09-.21c0-.09.04-.17.09-.22.1-.1.32-.11.43.01.05.05.08.12.08.21a.305.305 0 0 1-.3.3M37.15 25.55q-.12 0-.21-.09t-.09-.21c0-.12.03-.16.09-.22.12-.11.31-.11.42 0 .06.05.09.13.09.21s-.03.15-.09.21c-.05.05-.13.09-.21.09ZM38.36 26.75a.28.28 0 0 1-.22-.09c-.05-.05-.09-.13-.09-.21s.04-.16.1-.22c.09-.1.31-.11.42 0 .05.05.08.13.08.21s-.03.16-.09.22c-.04.05-.12.08-.2.08ZM39.56 27.95c-.08 0-.15-.03-.21-.08-.07-.07-.09-.14-.09-.22s.03-.15.08-.21c.12-.12.32-.11.43 0 .05.06.09.13.09.21s-.03.15-.09.21-.14.09-.21.09M40.76 29.15a.3.3 0 0 1-.22-.09.29.29 0 0 1-.08-.21c0-.08.03-.16.09-.21.1-.11.31-.11.42 0q.09.09.09.21c0 .09-.03.16-.09.22-.05.05-.13.08-.21.08M41.96 30.35c-.08 0-.15-.03-.21-.08a.27.27 0 0 1-.09-.21c0-.09.03-.17.09-.22.09-.1.31-.11.42 0 .06.06.09.14.09.22 0 .07-.03.15-.09.21-.05.05-.13.08-.21.08M43.16 31.56q-.12 0-.21-.09a.3.3 0 0 1-.09-.21c0-.09.04-.17.09-.22.1-.1.31-.11.43 0 .05.05.08.13.08.21s-.03.15-.08.21a.3.3 0 0 1-.22.09ZM44.36 32.76c-.07 0-.14-.03-.2-.08-.07-.07-.1-.14-.1-.22s.04-.16.09-.21c.12-.12.31-.11.43 0a.288.288 0 0 1 0 .42.3.3 0 0 1-.22.09M45.57 33.96c-.08 0-.15-.03-.21-.08-.06-.06-.09-.14-.09-.22s.03-.16.09-.21c.1-.11.3-.11.42 0a.29.29 0 0 1 0 .42q-.09.09-.21.09M46.77 35.17q-.12 0-.21-.09a.3.3 0 0 1-.09-.22c0-.07.03-.15.09-.21.11-.11.3-.11.42 0 .06.06.09.14.09.21 0 .08-.03.16-.09.21-.06.07-.14.1-.21.1M47.97 36.37q-.12 0-.21-.09a.29.29 0 0 1-.09-.21c0-.09.03-.16.09-.22.09-.1.31-.11.42.01q.09.075.09.21 0 .12-.09.21c-.05.05-.13.09-.21.09M49.17 37.57q-.12 0-.21-.09t-.09-.21c0-.12.03-.16.09-.21.1-.11.31-.12.42 0 .06.05.09.13.09.21s-.03.15-.08.21a.3.3 0 0 1-.22.09M50.38 38.77c-.08 0-.15-.03-.21-.08-.06-.07-.1-.14-.1-.22s.04-.15.09-.21c.12-.12.31-.12.43-.01.06.07.09.14.09.22s-.03.15-.09.21-.14.09-.21.09M51.58 39.97c-.08 0-.15-.03-.21-.08-.06-.07-.09-.14-.09-.22s.03-.15.09-.21c.1-.11.32-.11.43 0 .05.05.08.12.08.2s-.03.15-.09.21-.14.09-.21.09ZM52.78 41.17c-.08 0-.15-.02-.21-.08a.33.33 0 0 1-.09-.22c0-.07.03-.15.08-.21.13-.11.31-.11.43 0 .06.06.09.14.09.21 0 .08-.03.15-.08.21-.07.06-.14.09-.22.09M53.98 42.38c-.08 0-.16-.04-.21-.09q-.09-.09-.09-.21c0-.12.03-.16.09-.22.1-.11.32-.11.43 0a.304.304 0 0 1-.22.51ZM55.18 43.58q-.12 0-.21-.09a.29.29 0 0 1 0-.42c.1-.11.32-.12.43 0 .05.05.08.13.08.21s-.03.16-.09.21c-.05.05-.12.09-.21.09M56.39 44.78c-.08 0-.15-.03-.21-.08-.06-.06-.09-.14-.09-.22s.03-.16.08-.21c.11-.11.31-.12.43 0 .05.05.09.13.09.21s-.04.16-.09.21c-.06.06-.14.09-.21.09M57.59 45.98c-.08 0-.15-.03-.21-.08a.33.33 0 0 1-.09-.22c0-.07.03-.15.08-.21.12-.12.31-.11.43 0q.09.09.09.21c0 .12-.03.16-.09.21q-.09.09-.21.09M58.79 47.18c-.08 0-.15-.02-.21-.08a.33.33 0 0 1-.09-.22c0-.07.03-.15.09-.21.1-.11.32-.11.43.01.05.05.08.12.08.2s-.03.16-.09.22c-.05.05-.13.08-.21.08M59.99 48.39q-.12 0-.21-.09a.3.3 0 0 1-.09-.21c0-.08.03-.16.09-.21.1-.12.31-.12.43 0 .05.05.08.12.08.21q0 .12-.09.21c-.05.05-.13.09-.21.09M61.19 49.59c-.07 0-.14-.03-.2-.08a.32.32 0 0 1-.1-.22c0-.08.04-.16.09-.21.11-.11.32-.12.43 0 .05.05.08.12.08.21q0 .12-.09.21c-.05.06-.13.09-.21.09M62.4 50.79c-.08 0-.16-.03-.21-.08-.07-.07-.1-.14-.1-.22s.03-.15.09-.21c.12-.12.31-.11.43 0a.29.29 0 0 1 0 .42c-.06.06-.14.09-.21.09M63.6 51.99c-.08 0-.16-.03-.21-.09-.06-.05-.09-.13-.09-.21s.03-.15.09-.21c.1-.11.3-.11.42 0q.09.09.09.21c0 .12-.03.16-.09.21q-.09.09-.21.09M64.8 53.19c-.08 0-.16-.03-.21-.08a.33.33 0 0 1-.09-.22c0-.07.03-.15.09-.21.1-.11.32-.11.43 0 .05.05.08.13.08.2 0 .08-.03.15-.08.21a.3.3 0 0 1-.22.09ZM19.11 1.51c-.08 0-.16-.04-.21-.1-.06-.04-.09-.12-.09-.2 0-.09.03-.16.09-.22.11-.11.31-.11.42 0 .06.05.09.13.09.21s-.03.16-.09.21c-.05.05-.13.09-.21.09ZM20.31 2.71c-.08 0-.16-.03-.21-.09-.06-.05-.09-.13-.09-.21s.03-.15.09-.21a.29.29 0 0 1 .42 0c.06.05.09.13.09.21s-.03.16-.09.21q-.075.09-.21.09M21.52 3.91a.3.3 0 0 1-.22-.09.29.29 0 0 1 0-.42c.1-.11.32-.11.43 0 .05.05.08.13.08.21s-.03.16-.08.21c-.06.06-.14.09-.21.09M22.72 5.11c-.09 0-.16-.03-.22-.09-.05-.05-.08-.13-.08-.21s.03-.16.09-.21c.1-.11.31-.11.42 0 .05.05.09.13.09.21s-.04.16-.09.21c-.05.06-.13.09-.21.09M23.92 6.31c-.08 0-.15-.03-.21-.08-.06-.06-.09-.14-.09-.22s.03-.16.09-.21c.09-.1.32-.11.42 0 .05.04.09.12.09.2s-.03.16-.09.22c-.06.05-.13.08-.21.08ZM25.12 7.52c-.08 0-.16-.04-.21-.09a.27.27 0 0 1-.09-.21c0-.09.03-.16.09-.22.11-.11.31-.11.42 0 .06.06.09.14.09.22s-.03.15-.09.21c-.05.05-.13.09-.21.09M26.32 8.72q-.12 0-.21-.09a.29.29 0 0 1-.09-.21.306.306 0 0 1 .51-.22c.06.05.09.13.09.21s-.03.15-.09.21c-.05.06-.13.09-.21.09ZM27.53 9.92c-.09 0-.16-.03-.22-.09-.05-.05-.08-.13-.08-.21s.03-.16.09-.22c.08-.09.3-.11.42 0a.288.288 0 0 1 0 .42c-.06.06-.14.09-.21.09ZM28.73 11.12c-.09 0-.16-.03-.22-.09a.304.304 0 0 1 .01-.42c.11-.11.3-.11.42 0a.288.288 0 0 1 0 .42c-.05.06-.13.09-.21.09M29.93 12.32c-.08 0-.15-.02-.21-.08a.29.29 0 0 1-.09-.21c0-.09.03-.17.09-.22.09-.1.31-.11.42 0 .06.06.09.14.09.22 0 .07-.03.15-.08.2-.07.07-.14.09-.22.09M31.13 13.53q-.12 0-.21-.09a.29.29 0 0 1-.09-.21c0-.09.04-.17.09-.22.1-.1.32-.11.43 0 .05.04.08.12.08.21q0 .12-.09.21c-.05.05-.13.09-.21.09ZM32.33 14.73c-.08 0-.16-.03-.21-.09a.3.3 0 0 1-.09-.21c0-.09.04-.16.1-.22.09-.1.31-.11.42 0 .05.05.09.13.09.21s-.04.15-.1.21q-.075.09-.21.09ZM33.54 15.93a.3.3 0 0 1-.22-.09c-.05-.05-.08-.13-.08-.21s.03-.16.09-.22c.1-.1.31-.1.42 0 .05.05.09.13.09.21s-.04.16-.09.21q-.09.09-.21.09ZM34.74 17.13c-.08 0-.16-.03-.21-.09-.06-.05-.09-.13-.09-.21s.03-.16.09-.21c.1-.11.32-.11.43 0 .05.05.08.12.08.2s-.03.16-.09.21q-.09.09-.21.09ZM35.94 18.34c-.08 0-.16-.03-.21-.09a.3.3 0 0 1-.09-.21c0-.08.03-.16.09-.22.11-.11.31-.11.42 0 .06.06.09.14.09.22 0 .07-.03.15-.09.2-.05.06-.13.1-.21.1M37.14 19.54c-.08 0-.15-.03-.21-.08a.35.35 0 0 1-.09-.22c0-.08.03-.16.09-.21.1-.11.32-.12.43 0 .05.05.08.13.08.21 0 .07-.03.15-.08.21-.07.06-.14.09-.22.09M38.34 20.74a.305.305 0 0 1-.3-.3c0-.08.04-.16.09-.21.1-.11.31-.12.43 0 .05.05.08.13.08.21s-.03.15-.08.21a.3.3 0 0 1-.22.09M39.55 21.94c-.09 0-.16-.03-.22-.09-.05-.06-.08-.13-.08-.21s.03-.15.08-.21c.12-.11.31-.12.43 0a.29.29 0 0 1 0 .42q-.09.09-.21.09M40.75 23.14c-.09 0-.16-.03-.22-.09a.29.29 0 0 1-.08-.21c0-.08.03-.16.09-.21.1-.1.31-.11.42 0 .05.04.09.12.09.2 0 .09-.04.16-.1.22-.04.05-.12.08-.2.08ZM41.95 24.35q-.12 0-.21-.09a.27.27 0 0 1-.09-.21c0-.09.04-.17.09-.22.09-.1.32-.11.43.01.05.04.08.12.08.21q0 .12-.09.21c-.05.05-.13.09-.21.09M43.15 25.55q-.12 0-.21-.09t-.09-.21c0-.12.03-.16.09-.22.11-.1.31-.11.42 0 .06.07.09.14.09.22 0 .07-.03.15-.08.21-.06.05-.13.09-.22.09M44.36 26.75a.3.3 0 0 1-.22-.09c-.05-.05-.09-.13-.09-.21s.04-.16.09-.21c.12-.12.31-.12.43 0 .05.05.08.13.08.21s-.03.16-.08.21c-.06.06-.14.09-.21.09M45.56 27.95c-.09 0-.16-.03-.22-.09a.29.29 0 0 1-.08-.21c0-.08.03-.16.09-.21.09-.1.31-.11.42.01.05.04.09.12.09.2s-.04.16-.1.22c-.04.05-.12.08-.2.08M46.76 29.15c-.08 0-.16-.03-.21-.09a.26.26 0 0 1-.09-.21c0-.08.03-.16.09-.21.09-.1.32-.11.42 0 .05.04.09.12.09.2s-.03.16-.09.22c-.05.05-.13.08-.21.08ZM47.96 30.35c-.08 0-.15-.03-.21-.08a.3.3 0 0 1-.09-.22c0-.07.03-.15.09-.21.1-.11.31-.11.42 0 .06.05.09.13.09.2 0 .08-.03.16-.08.21a.3.3 0 0 1-.22.09ZM49.16 31.56a.305.305 0 0 1-.3-.3c0-.08.04-.16.09-.22.11-.11.31-.11.43 0 .05.05.08.13.08.21 0 .07-.03.15-.08.21-.07.06-.14.09-.22.09ZM50.36 32.76q-.12 0-.21-.09c-.05-.05-.09-.13-.09-.21s.04-.16.09-.21c.11-.11.32-.12.43 0 .05.05.09.13.09.21s-.04.16-.09.21a.3.3 0 0 1-.22.09M51.57 33.96a.3.3 0 0 1-.22-.09c-.05-.05-.08-.13-.08-.21s.03-.16.09-.21c.09-.11.3-.11.42 0 .05.05.09.13.09.21s-.03.16-.09.21q-.09.09-.21.09M52.77 35.17q-.12 0-.21-.09a.3.3 0 0 1-.09-.22c0-.07.03-.15.08-.2.12-.12.31-.12.43 0q.09.105.09.21c0 .08-.03.15-.08.21-.07.07-.15.1-.22.1ZM53.97 36.37q-.12 0-.21-.09a.3.3 0 0 1-.09-.21c0-.08.03-.15.08-.21.12-.12.32-.12.43-.01.06.07.09.14.09.22 0 .07-.03.15-.08.21-.07.06-.14.09-.22.09M55.17 37.57q-.12 0-.21-.09c-.06-.05-.09-.13-.09-.21s.03-.16.09-.21c.1-.11.32-.12.43 0 .05.05.08.13.08.21s-.03.16-.09.21c-.05.06-.13.09-.21.09M56.38 38.77c-.09 0-.16-.03-.22-.09-.05-.05-.09-.13-.09-.21s.04-.16.09-.21c.1-.11.31-.12.43 0a.29.29 0 0 1 0 .42q-.09.09-.21.09M57.58 39.97c-.08 0-.15-.03-.21-.08a.33.33 0 0 1-.09-.22c0-.07.03-.15.08-.21.12-.11.31-.12.43 0a.288.288 0 0 1 0 .42c-.06.06-.14.09-.21.09M58.78 41.17c-.08 0-.15-.02-.21-.08a.33.33 0 0 1-.09-.22c0-.07.03-.15.09-.21.1-.11.31-.11.42 0 .06.04.09.12.09.2s-.03.16-.09.22c-.05.05-.13.08-.21.08ZM59.98 42.38c-.08 0-.16-.03-.21-.09a.3.3 0 0 1-.09-.21c0-.08.03-.16.09-.21.1-.12.32-.12.43 0 .05.05.08.13.08.21 0 .07-.03.15-.08.21a.3.3 0 0 1-.22.09M61.18 43.58q-.12 0-.21-.09t-.09-.21c0-.12.03-.16.09-.21.11-.12.31-.12.43 0 .05.05.08.13.08.21s-.03.15-.08.21a.3.3 0 0 1-.22.09M62.39 44.78a.3.3 0 0 1-.22-.09c-.05-.05-.09-.13-.09-.21s.04-.16.09-.21c.1-.11.31-.12.43 0 .05.05.09.13.09.21s-.04.16-.09.21q-.09.09-.21.09M63.59 45.98c-.08 0-.15-.03-.21-.08a.33.33 0 0 1-.09-.22c0-.07.03-.15.08-.21.12-.12.32-.11.43 0a.29.29 0 0 1 0 .42c-.06.06-.14.09-.21.09M64.79 47.18a.3.3 0 0 1-.22-.09.29.29 0 0 1-.08-.21c0-.08.03-.16.09-.21.11-.11.31-.11.42 0 .06.06.09.14.09.21 0 .08-.03.16-.09.22-.06.05-.13.08-.21.08M65.99 48.39q-.12 0-.21-.09t-.09-.21c0-.12.03-.16.09-.22.11-.11.31-.11.42 0 .06.06.09.13.09.22 0 .08-.03.16-.09.21-.05.05-.12.09-.21.09M67.19 49.59c-.07 0-.15-.03-.2-.09a.28.28 0 0 1-.1-.21c0-.08.04-.16.09-.21.1-.11.32-.12.43 0 .05.05.08.13.08.21 0 .07-.03.15-.08.21-.07.06-.14.09-.22.09M68.4 50.79a.3.3 0 0 1-.22-.09c-.05-.05-.08-.13-.08-.21s.03-.16.09-.21c.1-.11.31-.11.42 0 .05.06.09.13.09.21s-.03.15-.09.21q-.105.09-.21.09M69.6 51.99c-.08 0-.16-.03-.21-.08a.3.3 0 0 1-.09-.21c0-.08.03-.16.09-.22.09-.1.31-.11.42 0 .06.05.09.13.09.21 0 .07-.03.15-.09.21-.06.05-.13.08-.21.08ZM70.8 53.2c-.08 0-.16-.04-.21-.09a.33.33 0 0 1-.09-.22c0-.07.03-.15.09-.21.1-.11.32-.11.43 0 .05.05.08.13.08.2 0 .08-.03.15-.08.21-.06.06-.14.1-.22.1ZM71.96 54.4c-.09 0-.17-.04-.22-.1-.05-.04-.08-.12-.08-.2 0-.09.03-.17.09-.22.09-.1.31-.11.42 0 .05.05.09.13.09.21s-.04.15-.09.21q-.09.09-.21.09ZM25.11 1.51c-.08 0-.16-.04-.21-.1-.06-.05-.09-.12-.09-.2s.03-.16.09-.22c.1-.1.31-.11.43 0 .05.04.08.12.08.21 0 .08-.03.16-.09.21-.05.05-.13.09-.21.09ZM26.31 2.71c-.08 0-.16-.03-.21-.09-.06-.05-.09-.13-.09-.21s.03-.16.09-.21a.29.29 0 0 1 .42 0c.06.05.09.13.09.21s-.03.16-.09.21q-.075.09-.21.09M27.52 3.91a.28.28 0 0 1-.22-.09c-.05-.05-.09-.13-.09-.21s.04-.16.09-.21c.11-.11.3-.12.42 0 .07.07.1.14.1.22s-.04.16-.09.21q-.09.09-.21.09ZM28.72 5.11a.3.3 0 0 1-.22-.09c-.05-.05-.08-.13-.08-.21s.03-.16.09-.21c.09-.1.31-.11.42.01.05.04.09.12.09.2s-.03.16-.09.21q-.09.09-.21.09M29.92 6.31c-.08 0-.16-.03-.21-.08-.06-.06-.09-.14-.09-.22s.03-.16.09-.21c.09-.1.31-.11.42 0 .06.06.09.14.09.21 0 .08-.03.15-.08.21-.07.06-.14.09-.22.09M31.12 7.52c-.08 0-.16-.04-.21-.1-.06-.04-.09-.12-.09-.2 0-.09.04-.16.09-.22.1-.1.32-.11.43.01.05.04.08.12.08.21 0 .08-.03.16-.09.21-.05.05-.13.09-.21.09M32.32 8.72c-.07 0-.15-.03-.21-.09q-.09-.09-.09-.21c0-.12.04-.16.09-.22.09-.09.31-.11.42 0 .06.05.09.13.09.21 0 .07-.03.15-.08.21-.07.06-.14.09-.22.09ZM33.53 9.92c-.08 0-.15-.03-.21-.08-.06-.07-.09-.14-.09-.22s.03-.16.08-.21c.1-.11.32-.11.43 0a.288.288 0 0 1 0 .42q-.105.09-.21.09M34.73 11.12c-.09 0-.16-.03-.22-.09a.29.29 0 0 1-.08-.21c0-.08.03-.16.09-.21.1-.1.31-.11.42 0 .05.05.09.13.09.21 0 .09-.04.16-.1.22-.04.05-.12.08-.2.08M35.93 12.33c-.08 0-.16-.04-.22-.1-.05-.04-.08-.12-.08-.2 0-.09.03-.17.09-.22.09-.1.31-.11.42 0 .06.06.09.14.09.22 0 .07-.03.15-.09.2-.06.06-.13.1-.21.1M37.13 13.53c-.08 0-.16-.04-.21-.09q-.09-.09-.09-.21c0-.12.03-.16.09-.22.1-.1.3-.11.42 0 .06.07.09.14.09.22 0 .07-.03.15-.08.2-.06.06-.14.1-.22.1M38.33 14.73q-.12 0-.21-.09c-.05-.06-.09-.13-.09-.21s.04-.16.09-.21c.11-.11.31-.12.42 0 .06.07.1.14.1.22s-.04.15-.09.21a.3.3 0 0 1-.22.09ZM39.54 15.93c-.09 0-.16-.03-.22-.09-.05-.06-.08-.13-.08-.21s.03-.15.08-.21c.12-.12.32-.11.43 0a.29.29 0 0 1 0 .42q-.09.09-.21.09M40.74 17.13c-.08 0-.15-.03-.21-.08-.06-.06-.09-.14-.09-.22s.03-.15.09-.21c.1-.11.3-.12.42 0 .06.06.09.14.09.21 0 .08-.03.15-.08.21-.07.06-.14.09-.22.09M41.94 18.34q-.12 0-.21-.09a.304.304 0 0 1-.01-.42c.12-.12.32-.12.43 0 .06.06.09.14.09.22 0 .07-.03.15-.09.2-.06.07-.13.1-.21.1ZM43.14 19.54c-.08 0-.16-.04-.21-.1-.06-.04-.09-.12-.09-.2 0-.09.04-.16.09-.22.09-.1.32-.11.43.01.05.05.08.13.08.21s-.03.16-.09.21c-.05.05-.13.09-.21.09M44.34 20.74q-.12 0-.21-.09t-.09-.21c0-.12.03-.16.09-.21.11-.12.3-.12.42 0 .06.07.09.14.09.22 0 .07-.03.15-.08.21-.06.06-.13.09-.22.09ZM45.55 21.94a.3.3 0 0 1-.22-.09c-.05-.06-.09-.13-.09-.21s.04-.15.09-.21c.11-.11.32-.12.43 0 .05.06.09.13.09.21s-.03.15-.09.21q-.09.09-.21.09M46.75 23.14c-.08 0-.15-.03-.21-.08a.33.33 0 0 1-.09-.22c0-.07.03-.15.08-.21.12-.11.32-.11.43 0a.288.288 0 0 1 0 .42c-.06.06-.14.09-.21.09M47.95 24.34c-.08 0-.16-.03-.21-.08a.28.28 0 0 1-.09-.22c0-.08.03-.16.09-.21.09-.1.31-.11.43.01.05.05.08.12.08.2 0 .09-.03.16-.09.22-.05.05-.13.08-.21.08M49.15 25.55q-.12 0-.21-.09t-.09-.21c0-.12.03-.16.09-.21.1-.12.32-.12.43 0 .05.05.08.13.08.21s-.03.15-.08.21a.3.3 0 0 1-.22.09M50.35 26.75c-.07 0-.15-.03-.2-.08-.07-.07-.1-.14-.1-.22s.04-.16.09-.21c.11-.11.31-.11.43 0 .05.05.08.13.08.21s-.03.15-.08.21c-.07.06-.14.09-.22.09M51.56 27.95a.3.3 0 0 1-.22-.09c-.05-.05-.08-.13-.08-.21s.03-.15.08-.21c.1-.11.31-.11.43 0 .06.06.09.14.09.21 0 .08-.03.16-.09.21q-.09.09-.21.09M52.76 29.15c-.08 0-.15-.03-.21-.08-.06-.06-.09-.14-.09-.22s.03-.15.09-.21c.11-.11.3-.11.42 0q.09.09.09.21c0 .12-.03.16-.09.22-.06.05-.13.08-.21.08M53.96 30.36q-.12 0-.21-.09a.32.32 0 0 1-.09-.21c0-.08.03-.16.09-.22.11-.11.31-.11.42 0 .06.05.09.13.09.22q0 .12-.09.21c-.06.05-.13.09-.21.09M55.16 31.56q-.12 0-.21-.09c-.05-.06-.09-.13-.09-.21s.03-.16.09-.21a.29.29 0 0 1 .42 0c.06.06.09.14.09.22s-.03.15-.09.21c-.05.05-.13.09-.21.09ZM56.36 32.76q-.12 0-.21-.09c-.05-.05-.09-.13-.09-.21s.04-.16.09-.21c.1-.11.32-.12.43 0 .05.05.08.13.08.21s-.03.16-.09.22c-.04.04-.12.08-.21.08M57.57 33.96a.3.3 0 0 1-.22-.09c-.05-.05-.08-.13-.08-.21s.03-.15.08-.21c.11-.11.33-.11.43 0 .05.04.09.12.09.2s-.04.16-.1.22c-.04.05-.12.08-.2.08ZM58.77 35.16c-.08 0-.16-.03-.21-.08a.3.3 0 0 1-.09-.22q0-.12.09-.21c.1-.11.31-.11.42 0 .06.05.09.12.09.2 0 .09-.03.16-.09.22-.06.05-.13.08-.21.08ZM59.97 36.36c-.08 0-.16-.03-.21-.08a.3.3 0 0 1-.09-.21c0-.08.03-.16.09-.22.11-.11.32-.11.42 0 .06.06.09.14.09.22 0 .07-.03.15-.09.21-.05.05-.13.08-.21.08M61.17 37.57q-.12 0-.21-.09t-.09-.21c0-.12.03-.16.09-.21.1-.11.32-.12.43 0 .05.05.08.13.08.21s-.03.15-.08.21a.3.3 0 0 1-.22.09M62.38 38.77c-.08 0-.15-.03-.21-.08-.06-.07-.1-.14-.1-.22s.04-.15.09-.21c.13-.13.32-.11.43 0a.29.29 0 0 1 0 .42c-.06.06-.14.09-.21.09M63.58 39.97a.3.3 0 0 1-.22-.09c-.05-.05-.08-.13-.08-.21s.03-.16.09-.21c.1-.11.31-.11.42 0 .06.05.09.13.09.21s-.03.16-.09.21q-.09.09-.21.09M64.78 41.17c-.08 0-.16-.03-.21-.08a.3.3 0 0 1-.09-.21c0-.08.03-.16.08-.22.14-.12.32-.11.43 0 .06.06.09.14.09.22 0 .07-.03.15-.09.21-.05.05-.13.08-.21.08M65.98 42.38c-.08 0-.16-.04-.21-.09a.29.29 0 0 1 0-.42.29.29 0 0 1 .42 0c.06.07.09.14.09.22s-.03.15-.09.21c-.05.05-.13.09-.21.09ZM67.18 43.58q-.12 0-.21-.09c-.05-.05-.09-.13-.09-.21s.03-.16.09-.21c.12-.12.31-.11.43 0 .05.05.08.13.08.21s-.03.16-.08.21a.3.3 0 0 1-.22.09M68.39 44.78c-.08 0-.15-.03-.21-.08-.07-.07-.1-.15-.1-.22s.03-.15.09-.21c.14-.13.32-.11.43 0a.29.29 0 0 1 0 .42c-.06.06-.14.09-.21.09M69.59 45.98a.3.3 0 0 1-.22-.09c-.05-.05-.08-.13-.08-.21s.03-.15.08-.21c.12-.11.32-.11.43 0q.09.09.09.21c0 .12-.03.16-.09.21q-.09.09-.21.09M70.79 47.18c-.08 0-.16-.03-.21-.08-.06-.06-.09-.14-.09-.22s.03-.15.09-.21c.1-.1.31-.11.42 0q.09.09.09.21c0 .12-.03.16-.09.22-.05.05-.13.08-.21.08M71.99 48.39a.305.305 0 0 1-.21-.52c.11-.11.32-.11.43 0 .05.05.08.13.08.21 0 .07-.03.15-.08.21-.07.06-.14.09-.22.09ZM31.11 1.51c-.08 0-.16-.04-.21-.1a.25.25 0 0 1-.09-.2c0-.09.03-.16.09-.22.11-.11.3-.11.42 0 .06.07.09.14.09.22 0 .07-.03.14-.08.2-.06.06-.14.1-.22.1M32.31 2.71c-.08 0-.16-.03-.21-.09q-.09-.09-.09-.21c0-.12.03-.16.09-.21.11-.11.31-.12.42-.01.06.07.09.14.09.22 0 .07-.03.15-.08.21-.06.06-.13.09-.22.09M33.51 3.91q-.12 0-.21-.09c-.05-.05-.09-.13-.09-.21s.04-.16.1-.21c.08-.1.3-.12.42 0 .05.05.09.13.09.21s-.04.16-.09.21a.3.3 0 0 1-.22.09M34.72 5.11c-.09 0-.16-.03-.22-.09a.29.29 0 0 1-.08-.21c0-.08.03-.16.09-.21.1-.11.31-.12.42.01.05.04.09.12.09.2s-.04.16-.1.22c-.04.05-.12.08-.2.08M35.92 6.31c-.08 0-.16-.03-.21-.08a.3.3 0 0 1-.09-.22c0-.08.03-.16.09-.21.09-.1.32-.11.42 0 .06.04.09.13.09.2 0 .08-.03.16-.09.22-.06.05-.13.08-.21.08ZM37.12 7.52c-.08 0-.16-.04-.21-.09q-.09-.09-.09-.21c0-.12.03-.16.09-.21.1-.12.32-.12.43 0a.304.304 0 0 1-.22.51M38.32 8.72c-.08 0-.16-.03-.21-.09a.3.3 0 0 1-.09-.21c0-.09.04-.16.09-.22.1-.1.32-.11.43 0 .05.05.08.12.08.21 0 .08-.03.16-.09.21q-.075.09-.21.09ZM39.53 9.92c-.08 0-.15-.03-.21-.08-.06-.06-.1-.14-.1-.22s.04-.16.09-.21c.12-.11.32-.11.43 0a.29.29 0 0 1 0 .42q-.105.09-.21.09M40.73 11.12c-.08 0-.16-.03-.21-.08-.06-.06-.09-.14-.09-.22s.03-.15.09-.21c.11-.11.3-.11.42 0q.09.09.09.21c0 .12-.03.16-.09.21q-.09.09-.21.09M41.93 12.32c-.08 0-.16-.03-.21-.08a.29.29 0 0 1-.09-.21c0-.09.03-.17.09-.22.09-.1.31-.11.42 0 .06.06.09.14.09.22 0 .07-.03.15-.09.21-.05.05-.13.08-.21.08M43.13 13.53c-.08 0-.15-.04-.21-.09a.27.27 0 0 1-.09-.21c0-.09.03-.17.09-.22.1-.1.31-.11.42 0 .06.06.09.14.09.22s-.03.15-.09.21c-.05.05-.13.09-.21.09M44.33 14.73c-.08 0-.16-.04-.21-.09a.3.3 0 0 1-.09-.21c0-.09.04-.16.1-.22.09-.1.31-.11.42 0 .05.05.08.12.08.21 0 .08-.03.16-.09.21-.05.05-.12.09-.21.09ZM45.54 15.93c-.08 0-.15-.03-.21-.08-.07-.07-.09-.15-.09-.22s.02-.15.08-.21c.12-.12.31-.12.43 0a.29.29 0 0 1 0 .42c-.06.06-.14.09-.21.09M46.74 17.13c-.08 0-.16-.03-.21-.08a.33.33 0 0 1-.09-.22c0-.07.03-.15.08-.21.11-.11.32-.12.43 0q.09.09.09.21c0 .12-.03.16-.09.21-.05.06-.13.09-.21.09M47.94 18.33c-.08 0-.16-.03-.21-.08a.27.27 0 0 1-.09-.21c0-.09.03-.17.09-.22.09-.1.31-.11.42 0 .05.04.09.12.09.21 0 .08-.03.16-.09.21-.05.05-.13.08-.21.08ZM49.14 19.54q-.12 0-.21-.09a.288.288 0 0 1 0-.42c.12-.12.32-.12.43 0 .05.06.08.13.08.21 0 .07-.03.15-.08.21-.07.06-.14.09-.22.09M50.34 20.74c-.07 0-.15-.03-.21-.08-.06-.07-.09-.14-.09-.22s.03-.15.09-.21c.12-.12.32-.11.43 0 .05.06.08.13.08.21s-.03.15-.08.21c-.07.06-.14.09-.22.09M51.55 21.94a.3.3 0 0 1-.22-.09c-.05-.06-.09-.13-.09-.21s.04-.15.09-.21c.11-.11.32-.11.43 0 .05.06.09.13.09.21s-.03.15-.09.21q-.09.09-.21.09M52.75 23.14c-.08 0-.16-.03-.21-.08-.06-.06-.09-.14-.09-.22s.03-.15.08-.21c.11-.11.33-.11.43 0q.09.09.09.21c0 .12-.03.16-.09.21q-.09.09-.21.09M53.95 24.34c-.08 0-.16-.03-.21-.08a.3.3 0 0 1-.09-.22c0-.07.03-.15.09-.21.1-.11.32-.11.43.01a.304.304 0 0 1 0 .41.3.3 0 0 1-.22.09M55.15 25.55q-.12 0-.21-.09a.3.3 0 0 1-.09-.21c0-.08.03-.16.09-.21.1-.11.32-.12.43 0 .05.05.08.12.08.21 0 .08-.03.16-.09.21-.05.05-.12.09-.21.09M56.36 26.75c-.08 0-.16-.03-.21-.08a.32.32 0 0 1-.1-.22q0-.12.09-.21c.12-.12.31-.12.43 0 .05.05.08.13.08.21s-.03.16-.08.21c-.06.06-.14.09-.21.09M57.56 27.95a.3.3 0 0 1-.22-.09c-.05-.05-.08-.13-.08-.21s.03-.15.08-.21c.11-.11.32-.11.43 0 .05.05.09.13.09.21 0 .09-.04.16-.1.22-.04.05-.12.08-.2.08M58.76 29.15c-.08 0-.16-.03-.21-.09a.29.29 0 0 1 0-.42c.1-.11.3-.12.42 0a.29.29 0 0 1 0 .42q-.09.09-.21.09M59.96 30.35c-.08 0-.15-.03-.21-.08a.3.3 0 0 1-.09-.21c0-.08.03-.16.09-.22.1-.1.31-.11.42 0 .06.06.09.14.09.22 0 .07-.03.15-.08.2a.3.3 0 0 1-.22.09M61.16 31.56a.305.305 0 0 1-.3-.3q0-.12.09-.21c.11-.12.3-.12.42 0 .06.07.09.14.09.22 0 .07-.03.15-.08.21-.07.06-.14.09-.22.09ZM62.36 32.76c-.07 0-.15-.03-.2-.08-.07-.07-.1-.14-.1-.22s.04-.16.09-.21c.11-.11.32-.12.43 0a.288.288 0 0 1 0 .42.3.3 0 0 1-.22.09M63.57 33.96a.3.3 0 0 1-.22-.09c-.05-.05-.08-.13-.08-.21s.03-.15.08-.21c.11-.11.33-.11.43 0 .05.06.09.13.09.21s-.04.16-.09.21q-.09.09-.21.09M64.77 35.16c-.08 0-.16-.03-.21-.08a.3.3 0 0 1-.09-.22c0-.07.03-.15.09-.21.1-.11.32-.11.42 0 .05.04.09.12.09.2 0 .09-.04.17-.1.22-.04.05-.12.08-.2.08ZM65.97 36.37q-.12 0-.21-.09a.3.3 0 0 1-.09-.21c0-.08.03-.16.09-.22.1-.11.31-.11.43.01a.304.304 0 0 1-.22.51M67.17 37.57q-.12 0-.21-.09t-.09-.21c0-.12.03-.16.09-.21.1-.11.32-.11.43 0 .05.05.08.13.08.21s-.03.15-.08.21a.3.3 0 0 1-.22.09M68.38 38.77c-.08 0-.15-.03-.21-.08-.06-.07-.1-.14-.1-.22s.04-.16.09-.21c.11-.11.32-.12.43 0a.288.288 0 0 1 0 .42c-.06.06-.14.09-.21.09M69.58 39.97c-.08 0-.15-.03-.21-.08-.06-.07-.09-.14-.09-.22s.03-.15.08-.21c.11-.11.33-.11.43 0 .05.04.09.12.09.2s-.03.16-.09.21q-.09.09-.21.09ZM70.78 41.17c-.08 0-.16-.03-.21-.08a.3.3 0 0 1-.09-.21c0-.08.03-.16.09-.22.1-.11.32-.11.43 0 .04.04.08.12.08.21 0 .08-.03.16-.09.21-.05.05-.13.08-.21.08ZM71.98 42.38c-.08 0-.16-.04-.21-.1-.06-.04-.09-.12-.09-.2 0-.09.04-.17.09-.22.1-.1.32-.11.43 0a.304.304 0 0 1-.01.42c-.05.06-.13.09-.21.09ZM37.11 1.51q-.12 0-.21-.09a.29.29 0 0 1-.09-.21c0-.09.03-.17.09-.22.1-.1.32-.11.43 0 .05.05.08.13.08.21 0 .07-.03.15-.08.21-.07.06-.14.09-.22.09ZM38.31 2.71c-.07 0-.15-.03-.21-.09q-.09-.09-.09-.21c0-.12.03-.16.09-.21.1-.11.31-.12.42-.01.06.07.09.14.09.22s-.03.15-.08.21c-.07.06-.14.09-.22.09M39.51 3.91c-.07 0-.15-.03-.2-.08-.06-.06-.1-.14-.1-.22s.04-.16.1-.22c.09-.09.31-.11.42 0 .05.05.09.13.09.21s-.04.15-.09.21a.3.3 0 0 1-.22.09ZM40.72 5.11c-.08 0-.15-.03-.21-.08a.29.29 0 0 1-.09-.22c0-.07.02-.15.08-.2.12-.13.32-.12.43-.01a.288.288 0 0 1 0 .42c-.06.06-.14.09-.21.09M41.92 6.31c-.08 0-.15-.03-.21-.08a.3.3 0 0 1-.09-.22c0-.07.03-.15.08-.21.12-.11.32-.11.43 0 .06.06.09.14.09.21 0 .08-.03.16-.09.21-.06.06-.14.09-.21.09M43.12 7.52c-.08 0-.16-.04-.21-.09a.27.27 0 0 1-.09-.21c0-.09.04-.17.09-.22.09-.1.3-.12.42.01.06.05.09.13.09.21 0 .07-.03.15-.08.21a.36.36 0 0 1-.22.09M44.32 8.72q-.12 0-.21-.09t-.09-.21c0-.12.03-.16.09-.21a.29.29 0 0 1 .42 0c.06.05.09.13.09.21s-.03.15-.09.21c-.05.06-.13.09-.21.09M45.53 9.92c-.09 0-.16-.03-.22-.09a.29.29 0 0 1 0-.42c.12-.12.31-.11.43 0a.29.29 0 0 1 0 .42q-.09.09-.21.09M46.73 11.12c-.08 0-.16-.03-.21-.09-.06-.05-.09-.13-.09-.21s.03-.16.09-.21c.09-.1.31-.11.42 0 .05.04.09.12.09.2s-.04.16-.1.22c-.04.05-.12.08-.2.08ZM47.93 12.32c-.08 0-.16-.03-.21-.08a.3.3 0 0 1-.09-.21c0-.08.03-.16.09-.22.1-.1.31-.11.42 0 .06.06.09.14.09.22 0 .07-.03.15-.09.21-.05.05-.13.08-.21.08M49.13 13.53a.305.305 0 0 1-.3-.3q0-.12.09-.21a.29.29 0 0 1 .42 0c.06.07.09.14.09.22 0 .07-.03.15-.08.21-.07.06-.14.09-.22.09ZM50.33 14.73q-.12 0-.21-.09a.29.29 0 0 1 0-.42c.11-.11.31-.12.43 0 .05.05.08.13.08.21s-.03.15-.08.21a.3.3 0 0 1-.22.09M51.54 15.93c-.09 0-.16-.03-.22-.09-.05-.06-.08-.13-.08-.21s.03-.16.08-.21c.11-.11.33-.12.43 0a.288.288 0 0 1 0 .42q-.09.09-.21.09M52.74 17.13c-.08 0-.15-.03-.21-.08a.33.33 0 0 1-.09-.22c0-.07.03-.15.08-.21.12-.11.31-.11.43 0 .06.06.09.14.09.21 0 .08-.03.15-.08.21-.07.06-.14.09-.22.09M53.94 18.33c-.08 0-.16-.03-.21-.08q-.09-.09-.09-.21c0-.12.03-.16.09-.22.1-.11.32-.11.43 0a.304.304 0 0 1-.01.42c-.05.05-.13.08-.21.08ZM55.14 19.54q-.12 0-.21-.09a.32.32 0 0 1-.09-.21c0-.08.03-.15.08-.21.12-.12.32-.12.43 0 .06.05.09.13.09.21s-.03.15-.09.21c-.05.06-.13.09-.21.09M56.34 20.74q-.12 0-.21-.09t-.09-.21c0-.12.03-.16.09-.21.1-.11.32-.12.43 0 .05.05.08.13.08.21s-.03.15-.08.21a.3.3 0 0 1-.22.09M57.55 21.94c-.08 0-.15-.03-.21-.08-.06-.07-.1-.14-.1-.22s.04-.15.09-.21c.11-.11.32-.11.43 0 .05.06.09.13.09.21s-.03.15-.09.21-.14.09-.21.09M58.75 23.14a.3.3 0 0 1-.22-.09c-.05-.05-.08-.13-.08-.21s.03-.15.08-.21c.12-.11.31-.11.43 0 .06.06.09.14.09.21 0 .08-.03.16-.09.21q-.09.09-.21.09M59.95 24.35q-.12 0-.21-.09a.3.3 0 0 1-.09-.21c0-.08.03-.16.09-.21.11-.12.31-.12.42-.01.06.06.09.14.09.22s-.03.15-.09.21c-.05.05-.13.09-.21.09M61.15 25.55q-.12 0-.21-.09c-.05-.06-.09-.13-.09-.21s.04-.16.09-.22c.1-.1.32-.11.43 0 .05.05.08.12.08.21 0 .08-.03.16-.09.21-.05.05-.12.09-.21.09ZM62.35 26.75c-.07 0-.15-.03-.2-.08-.07-.07-.1-.14-.1-.22s.03-.15.09-.21c.12-.12.31-.11.43 0 .05.06.08.13.08.21s-.03.15-.08.21c-.07.06-.14.09-.22.09M63.56 27.95a.3.3 0 0 1-.22-.09c-.05-.05-.08-.13-.08-.21s.03-.15.08-.21c.11-.11.33-.11.43.01.05.05.09.12.09.2s-.03.16-.09.21q-.09.09-.21.09M64.76 29.15c-.08 0-.16-.03-.21-.09-.06-.05-.09-.13-.09-.21s.03-.15.09-.21c.11-.11.31-.11.42 0q.09.09.09.21c0 .12-.03.16-.09.21q-.09.09-.21.09M65.96 30.36q-.12 0-.21-.09a.3.3 0 0 1-.09-.22c0-.07.03-.15.09-.21.1-.11.31-.11.42 0 .06.06.09.14.09.21 0 .08-.03.15-.08.21-.07.07-.14.1-.22.1M67.16 31.56q-.12 0-.21-.09a.29.29 0 0 1 0-.42c.12-.12.32-.12.43 0 .05.05.08.13.08.21s-.03.16-.09.21c-.05.05-.12.09-.21.09M68.36 32.76c-.08 0-.16-.03-.21-.09-.05-.05-.08-.13-.08-.21s.03-.16.09-.22c.1-.1.31-.1.42 0 .05.05.09.13.09.21s-.04.15-.09.21c-.06.06-.13.09-.22.09ZM69.57 33.96c-.08 0-.15-.03-.21-.08a.33.33 0 0 1-.09-.22c0-.07.03-.15.08-.21.12-.12.31-.11.43 0q.09.09.09.21c0 .12-.03.16-.09.21q-.09.09-.21.09M70.77 35.16c-.09 0-.16-.03-.22-.09a.29.29 0 0 1-.08-.21q0-.12.09-.21c.11-.11.31-.11.42 0 .06.06.09.14.09.21 0 .08-.03.16-.09.22-.06.05-.13.08-.21.08M71.97 36.36c-.08 0-.16-.03-.21-.08a.3.3 0 0 1-.09-.21c0-.08.03-.15.08-.21.13-.12.33-.12.43-.01.06.07.09.14.09.22 0 .07-.03.15-.09.21-.05.05-.13.08-.21.08M43.11 1.51q-.12 0-.21-.09a.288.288 0 0 1 0-.42.29.29 0 0 1 .42 0c.06.07.09.14.09.22 0 .07-.03.15-.08.21a.36.36 0 0 1-.22.09ZM44.31 2.71q-.12 0-.21-.09c-.06-.05-.09-.13-.09-.21s.04-.16.09-.22c.1-.1.31-.11.43.01.05.05.08.13.08.21s-.03.15-.08.21a.3.3 0 0 1-.22.09M45.51 3.91c-.07 0-.15-.03-.2-.08-.07-.07-.1-.14-.1-.22s.03-.15.09-.21c.12-.12.31-.11.43 0 .05.06.09.13.09.21s-.04.15-.09.21c-.07.06-.14.09-.22.09M46.72 5.11a.3.3 0 0 1-.22-.09c-.05-.05-.08-.13-.08-.21s.03-.15.08-.21c.11-.11.32-.11.43 0a.29.29 0 0 1 0 .42q-.09.09-.21.09M47.92 6.31c-.08 0-.16-.03-.21-.08a.3.3 0 0 1-.09-.22c0-.08.03-.16.09-.21.09-.1.31-.11.42 0 .06.06.09.14.09.21 0 .08-.03.16-.09.21q-.09.09-.21.09M49.12 7.52q-.12 0-.21-.09a.29.29 0 0 1-.09-.21c0-.09.04-.17.09-.22.1-.1.31-.11.42 0 .06.05.09.13.09.22q0 .12-.09.21c-.05.06-.13.09-.21.09M50.32 8.72a.305.305 0 0 1-.3-.3q0-.12.09-.21c.12-.12.31-.12.43 0 .05.06.08.13.08.21 0 .07-.03.15-.08.21-.07.06-.14.09-.22.09M51.53 9.92c-.08 0-.15-.03-.21-.08-.07-.07-.1-.14-.1-.22s.03-.15.09-.21c.12-.12.31-.12.43 0a.29.29 0 0 1 0 .42c-.06.06-.14.09-.21.09M52.73 11.12c-.08 0-.15-.03-.21-.08a.33.33 0 0 1-.09-.22c0-.07.03-.15.08-.21.11-.11.32-.11.43 0 .05.04.09.12.09.2s-.03.16-.09.21q-.09.09-.21.09ZM53.93 12.32c-.08 0-.16-.03-.21-.08a.33.33 0 0 1-.09-.22c0-.07.03-.15.09-.21.1-.11.32-.11.43 0 .05.05.08.12.08.2s-.03.16-.09.22c-.05.05-.13.08-.21.08ZM55.13 13.53a.305.305 0 0 1-.3-.3q0-.12.09-.21c.12-.12.32-.12.43 0 .05.06.08.13.08.21 0 .07-.03.15-.08.21-.07.06-.14.09-.22.09M56.33 14.73a.305.305 0 0 1-.3-.3q0-.12.09-.21c.12-.12.3-.12.42 0 .07.07.09.14.09.22 0 .07-.02.15-.08.2-.06.07-.14.1-.22.1ZM57.54 15.93c-.08 0-.15-.03-.21-.08-.06-.07-.09-.14-.09-.22s.03-.16.08-.21c.11-.11.31-.12.43 0a.288.288 0 0 1 0 .42c-.06.06-.14.09-.21.09M58.74 17.13c-.08 0-.15-.03-.21-.08-.06-.07-.09-.14-.09-.22s.03-.15.09-.21c.1-.11.31-.11.42 0 .05.05.09.13.09.21s-.03.16-.09.21q-.09.09-.21.09M59.94 18.34c-.08 0-.16-.04-.21-.09a.3.3 0 0 1-.09-.22c0-.07.03-.15.09-.21.1-.11.32-.11.42 0 .06.05.09.13.09.2 0 .09-.03.16-.09.22-.05.05-.13.09-.21.09ZM61.14 19.54q-.12 0-.21-.09t-.09-.21c0-.12.03-.16.09-.21.1-.11.32-.12.43 0a.304.304 0 0 1-.01.42c-.05.06-.13.09-.21.09M62.34 20.74c-.07 0-.15-.03-.21-.08-.06-.07-.09-.14-.09-.22s.03-.15.09-.21c.12-.12.32-.11.43 0 .05.06.08.13.08.21s-.03.15-.08.21c-.07.06-.14.09-.22.09M63.55 21.94a.3.3 0 0 1-.22-.09c-.05-.05-.08-.13-.08-.21s.03-.16.09-.21c.09-.11.31-.12.42 0 .05.06.09.13.09.21s-.03.15-.09.21q-.105.09-.21.09M64.75 23.14c-.08 0-.15-.03-.21-.08-.06-.07-.09-.14-.09-.22s.03-.15.08-.21c.11-.11.33-.11.44 0 .05.05.08.12.08.2s-.03.15-.09.21-.14.09-.21.09ZM65.95 24.34c-.08 0-.15-.03-.21-.08q-.09-.09-.09-.21c0-.12.03-.16.09-.22.1-.11.32-.11.43.01.05.04.08.12.08.21 0 .08-.03.16-.09.21-.05.05-.13.08-.21.08M67.15 25.55c-.07 0-.15-.03-.21-.08a.35.35 0 0 1-.09-.22q0-.12.09-.21a.29.29 0 0 1 .42 0c.06.07.09.14.09.22 0 .07-.03.15-.08.21-.07.06-.14.09-.22.09ZM68.35 26.75c-.08 0-.16-.03-.21-.09-.05-.05-.09-.13-.09-.21s.04-.16.1-.22c.09-.1.31-.11.42 0 .05.05.08.13.08.21s-.03.15-.08.21c-.06.06-.13.09-.22.09ZM69.56 27.95c-.08 0-.15-.03-.21-.08-.06-.07-.09-.14-.09-.22s.03-.15.08-.21c.11-.11.32-.11.43 0 .05.05.09.13.09.21s-.04.16-.09.21c-.06.06-.14.09-.21.09M70.76 29.15c-.08 0-.15-.03-.21-.08a.33.33 0 0 1-.09-.22c0-.07.03-.15.08-.2.14-.13.32-.12.43 0a.288.288 0 0 1 0 .42c-.06.06-.14.09-.21.09ZM71.96 30.36c-.08 0-.15-.04-.21-.09a.3.3 0 0 1-.09-.22q0-.12.09-.21c.11-.11.31-.11.42 0a.304.304 0 0 1 .01.42c-.07.07-.14.1-.22.1M49.11 1.51q-.12 0-.21-.09t-.09-.21c0-.12.03-.16.09-.22.1-.1.31-.11.42 0 .06.06.09.14.09.22s-.03.15-.09.21c-.05.05-.13.09-.21.09M50.31 2.71q-.12 0-.21-.09t-.09-.21c0-.12.03-.16.09-.21.1-.11.32-.12.43 0 .05.05.08.13.08.21s-.03.15-.08.21a.3.3 0 0 1-.22.09M51.51 3.91q-.12 0-.21-.09t-.09-.21c0-.12.04-.15.09-.21.11-.11.32-.12.43 0 .05.06.09.13.09.21s-.04.15-.09.21a.3.3 0 0 1-.22.09M52.72 5.11a.35.35 0 0 1-.22-.08c-.05-.07-.08-.14-.08-.22s.03-.15.08-.21c.11-.11.32-.11.43 0a.29.29 0 0 1 0 .42q-.09.09-.21.09M53.92 6.31c-.08 0-.15-.03-.21-.08a.3.3 0 0 1-.09-.22c0-.07.03-.15.09-.21.11-.11.31-.11.42 0 .06.06.09.14.09.21 0 .08-.03.16-.09.21-.06.06-.14.09-.21.09M55.12 7.52q-.12 0-.21-.09a.3.3 0 0 1-.09-.21c0-.08.03-.16.09-.21.1-.12.31-.12.42 0 .06.05.09.13.09.21 0 .07-.03.15-.08.21-.07.06-.14.09-.22.09M56.32 8.72q-.12 0-.21-.09t-.09-.21c0-.12.03-.16.09-.21.1-.11.32-.12.43 0 .05.05.08.13.08.21s-.03.16-.09.21c-.04.05-.12.09-.21.09M57.53 9.92c-.08 0-.15-.03-.21-.08-.07-.07-.1-.14-.1-.22s.04-.15.09-.21c.11-.11.31-.12.43 0a.29.29 0 0 1 0 .42c-.06.06-.14.09-.21.09M58.73 11.12c-.08 0-.15-.03-.21-.08-.06-.07-.09-.14-.09-.22s.03-.16.09-.21c.11-.11.31-.11.42 0a.288.288 0 0 1 0 .42c-.06.06-.14.09-.21.09M59.93 12.32c-.08 0-.15-.02-.21-.08a.3.3 0 0 1-.09-.22c0-.07.03-.15.09-.21.1-.11.32-.11.43 0a.304.304 0 0 1 0 .41c-.07.07-.15.09-.22.09ZM61.13 13.53c-.08 0-.15-.04-.21-.09a.3.3 0 0 1-.09-.21c0-.08.03-.16.09-.22.1-.11.32-.11.43 0a.304.304 0 0 1 0 .41c-.06.06-.14.1-.22.1ZM62.33 14.73a.305.305 0 0 1-.22-.51c.14-.13.32-.12.44 0 .05.06.08.13.08.21 0 .07-.03.15-.08.21-.07.06-.14.09-.22.09M63.54 15.93a.3.3 0 0 1-.22-.09c-.05-.05-.08-.13-.08-.21s.03-.16.08-.21c.12-.12.33-.11.43 0 .05.05.09.13.09.21s-.04.16-.09.21q-.09.09-.21.09M64.74 17.13c-.08 0-.16-.03-.21-.09-.06-.05-.09-.13-.09-.21s.03-.15.09-.21c.11-.11.3-.11.42 0 .06.06.09.14.09.21 0 .08-.03.16-.09.21-.05.06-.13.09-.21.09M65.94 18.34q-.12 0-.21-.09a.304.304 0 0 1-.01-.42c.12-.12.32-.12.43 0 .06.06.09.14.09.22s-.03.15-.09.21c-.06.05-.13.09-.21.09ZM67.14 19.54q-.12 0-.21-.09t-.09-.21c0-.12.03-.16.09-.21.13-.12.31-.12.42 0 .06.05.09.13.09.21s-.03.15-.09.21c-.05.06-.13.09-.21.09M68.34 20.74c-.08 0-.16-.04-.21-.1-.05-.04-.09-.12-.09-.2s.04-.16.1-.22c.09-.1.3-.11.42 0 .05.05.08.13.08.21s-.03.15-.08.21a.3.3 0 0 1-.22.09ZM69.55 21.94c-.08 0-.15-.03-.21-.08-.06-.07-.1-.14-.1-.22s.04-.15.09-.21c.11-.11.31-.11.43 0a.29.29 0 0 1 0 .42c-.06.06-.14.09-.21.09M70.75 23.14a.3.3 0 0 1-.22-.09c-.05-.05-.08-.13-.08-.21s.03-.15.08-.21c.12-.11.33-.11.43 0q.09.09.09.21c0 .12-.03.16-.09.21q-.09.09-.21.09M71.95 24.34c-.08 0-.16-.03-.21-.08q-.09-.09-.09-.21c0-.12.03-.16.09-.21.11-.12.32-.12.43 0a.304.304 0 0 1-.01.42c-.05.05-.13.08-.21.08M55.11 1.51q-.12 0-.21-.09a.32.32 0 0 1-.09-.21c0-.08.03-.15.08-.21.13-.12.32-.12.43 0 .06.06.09.14.09.22s-.03.15-.09.21c-.05.06-.13.09-.21.09ZM56.31 2.71q-.12 0-.21-.09t-.09-.21c0-.12.03-.16.09-.21.1-.11.32-.12.43 0 .05.05.08.13.08.21s-.03.15-.08.21a.3.3 0 0 1-.22.09M57.51 3.91c-.07 0-.15-.03-.2-.08-.07-.07-.1-.14-.1-.22s.04-.16.09-.21c.1-.11.32-.12.43 0 .05.05.08.13.08.21s-.03.16-.08.21a.3.3 0 0 1-.22.09M58.72 5.11a.3.3 0 0 1-.22-.09c-.05-.05-.08-.13-.08-.21s.03-.15.08-.21c.12-.11.32-.11.43 0q.09.09.09.21c0 .12-.03.16-.09.21q-.09.09-.21.09M59.92 6.31c-.08 0-.16-.03-.21-.08-.06-.06-.09-.14-.09-.22s.03-.15.09-.21c.09-.1.31-.11.42 0 .06.06.09.14.09.21 0 .08-.03.16-.09.21-.05.06-.13.09-.21.09M61.12 7.52c-.08 0-.16-.04-.21-.09q-.09-.09-.09-.21c0-.12.03-.16.09-.22.1-.11.32-.11.43.01a.304.304 0 0 1-.22.51M62.32 8.72q-.12 0-.21-.09a.29.29 0 0 1 0-.42c.1-.11.32-.12.43 0 .05.05.08.13.08.21s-.03.15-.08.21a.3.3 0 0 1-.22.09M63.53 9.92c-.09 0-.16-.03-.22-.09-.05-.05-.09-.13-.09-.21s.04-.16.09-.21c.1-.11.32-.11.43 0 .05.05.09.13.09.21s-.04.16-.09.21q-.09.09-.21.09M64.73 11.12c-.08 0-.15-.03-.21-.08-.06-.07-.09-.14-.09-.22s.03-.15.09-.21c.1-.11.31-.12.42 0 .05.04.09.12.09.2s-.04.16-.09.22c-.06.05-.13.08-.21.08ZM65.93 12.32c-.08 0-.15-.02-.21-.08a.3.3 0 0 1-.09-.22c0-.07.03-.15.09-.21.1-.11.31-.11.43 0a.304.304 0 0 1 0 .41c-.07.07-.14.09-.22.09ZM67.13 13.53c-.08 0-.15-.04-.21-.09a.3.3 0 0 1-.09-.21c0-.08.03-.16.09-.22.1-.11.32-.11.43 0a.304.304 0 0 1-.22.51ZM68.33 14.73q-.12 0-.21-.09a.29.29 0 0 1 0-.42c.12-.12.32-.11.43 0 .05.05.08.13.08.21s-.03.15-.08.21a.3.3 0 0 1-.22.09M69.54 15.93c-.08 0-.15-.03-.21-.08-.06-.07-.09-.14-.09-.22s.03-.16.08-.21c.11-.11.31-.12.43 0a.288.288 0 0 1 0 .42c-.06.06-.14.09-.21.09M70.74 17.13c-.08 0-.15-.03-.21-.08a.33.33 0 0 1-.09-.22c0-.07.03-.15.08-.21.12-.11.31-.12.43 0 .06.07.09.15.09.22q0 .12-.09.21c-.09.09-.14.09-.21.09ZM71.94 18.33c-.08 0-.16-.03-.21-.08a.3.3 0 0 1-.09-.21c0-.08.03-.16.09-.22.11-.11.31-.11.42 0 .05.05.09.13.09.22 0 .08-.03.16-.09.21-.05.05-.13.08-.21.08M61.11 1.51q-.12 0-.21-.09a.3.3 0 0 1-.09-.21c0-.08.03-.16.09-.21.1-.12.32-.12.43 0 .05.05.08.12.08.21q0 .12-.09.21c-.05.05-.13.09-.21.09M62.31 2.71a.305.305 0 0 1-.3-.3c0-.08.03-.16.09-.21.1-.11.32-.12.43 0 .05.05.08.13.08.21 0 .07-.03.15-.08.21-.07.06-.14.09-.22.09M63.51 3.91q-.12 0-.21-.09c-.06-.05-.09-.13-.09-.21s.04-.16.09-.21c.1-.11.32-.11.43 0 .05.05.09.13.09.21s-.04.16-.09.21a.3.3 0 0 1-.22.09M64.72 5.11c-.08 0-.15-.03-.21-.08a.33.33 0 0 1-.09-.22c0-.07.03-.15.08-.21.12-.12.31-.11.43 0q.09.09.09.21c0 .12-.03.16-.09.21-.06.06-.14.09-.21.09M65.92 6.31c-.08 0-.16-.03-.21-.08a.3.3 0 0 1-.09-.22c0-.07.03-.15.09-.21.1-.11.32-.11.43 0 .05.05.08.13.08.2 0 .08-.03.16-.09.22-.06.05-.13.08-.21.08ZM67.12 7.52a.305.305 0 0 1-.3-.3c0-.08.03-.15.08-.21.12-.12.31-.12.43-.01.06.07.09.14.09.22a.305.305 0 0 1-.3.3M68.32 8.72c-.07 0-.15-.03-.21-.08a.35.35 0 0 1-.09-.22c0-.08.03-.16.09-.21.1-.11.32-.12.43 0 .05.05.08.13.08.21 0 .07-.03.15-.08.21-.07.06-.14.09-.22.09M69.53 9.92c-.08 0-.16-.03-.21-.08-.07-.07-.1-.14-.1-.22s.04-.16.09-.21c.1-.11.31-.12.43 0 .05.06.09.13.09.21a.305.305 0 0 1-.3.3M70.73 11.12c-.09 0-.16-.03-.22-.09a.29.29 0 0 1-.08-.21q0-.12.09-.21c.11-.11.31-.11.42 0 .06.06.09.14.09.21 0 .08-.03.16-.09.21q-.09.09-.21.09M71.93 12.32c-.08 0-.15-.03-.21-.08a.304.304 0 0 1-.01-.42c.12-.12.32-.12.43 0 .06.06.09.14.09.22 0 .07-.03.15-.08.2-.07.06-.14.09-.22.09ZM67.11 1.51c-.08 0-.16-.04-.21-.09q-.09-.09-.09-.21c0-.12.03-.15.08-.21.14-.13.32-.12.43 0 .06.07.09.14.09.22a.305.305 0 0 1-.3.3ZM68.31 2.71q-.12 0-.21-.09a.29.29 0 0 1 0-.42c.12-.12.32-.11.43 0 .05.06.08.13.08.21s-.03.15-.08.21a.3.3 0 0 1-.22.09M69.51 3.91q-.12 0-.21-.09c-.05-.05-.09-.13-.09-.21s.04-.16.09-.21c.1-.11.32-.11.43 0 .05.05.08.13.08.21s-.03.16-.09.22c-.04.05-.12.08-.21.08M70.72 5.11c-.09 0-.16-.03-.22-.09-.05-.05-.08-.13-.08-.21s.03-.15.08-.21c.12-.11.32-.11.43 0 .06.06.09.14.09.21 0 .08-.04.16-.09.21q-.09.09-.21.09M71.92 6.31c-.08 0-.15-.03-.21-.08a.33.33 0 0 1-.09-.22c0-.07.03-.15.09-.21.1-.11.32-.11.43 0a.288.288 0 0 1-.01.41c-.06.06-.14.09-.21.09ZM5.96 54.4c-.09 0-.16-.03-.22-.09-.05-.06-.09-.13-.09-.21s.04-.16.09-.21c.11-.12.32-.12.43 0 .05.05.09.12.09.21 0 .08-.04.16-.1.21-.05.05-.12.09-.2.09M11.96 54.4a.3.3 0 0 1-.22-.09c-.05-.06-.09-.13-.09-.21s.04-.16.1-.22c.1-.1.31-.11.42 0 .05.05.09.13.09.21s-.04.15-.09.21c-.06.05-.13.09-.21.09ZM17.96 54.4c-.09 0-.16-.04-.22-.09a.32.32 0 0 1-.08-.21c0-.09.03-.16.09-.22.09-.1.31-.11.42 0a.288.288 0 0 1 0 .42c-.05.05-.13.09-.21.09ZM23.96 54.4c-.09 0-.16-.04-.22-.1-.05-.04-.08-.12-.08-.2 0-.09.03-.16.09-.22.09-.1.31-.11.42 0 .05.05.09.13.09.21s-.04.15-.09.21c-.06.05-.13.09-.21.09ZM29.96 54.4c-.09 0-.16-.04-.22-.1-.05-.04-.08-.12-.08-.2 0-.09.03-.16.09-.22.09-.1.31-.11.42 0 .05.05.09.12.09.21 0 .08-.04.16-.1.21a.27.27 0 0 1-.2.09ZM35.96 54.4a.3.3 0 0 1-.22-.09.32.32 0 0 1-.08-.21c0-.09.03-.17.09-.22.1-.1.31-.11.42 0 .05.05.09.12.09.21 0 .08-.04.15-.09.21-.06.05-.13.09-.21.09ZM41.96 54.4c-.09 0-.16-.03-.22-.09a.3.3 0 0 1-.08-.21c0-.09.03-.16.08-.22.11-.1.32-.11.43 0a.288.288 0 0 1 0 .42c-.06.05-.13.09-.21.09ZM47.96 54.4a.3.3 0 0 1-.22-.09.3.3 0 0 1-.09-.21c0-.09.04-.16.1-.22.09-.1.3-.11.42 0 .06.06.09.14.09.22a.305.305 0 0 1-.3.3M53.96 54.4a.3.3 0 0 1-.22-.09.36.36 0 0 1-.09-.21c0-.08.04-.16.09-.21.11-.12.32-.12.43 0 .05.05.09.13.09.21 0 .07-.03.15-.09.21q-.09.09-.21.09M59.96 54.4a.36.36 0 0 1-.22-.09c-.05-.06-.09-.13-.09-.21s.04-.16.09-.22c.11-.1.31-.11.43 0 .05.06.09.14.09.22s-.04.15-.09.21c-.06.05-.13.09-.21.09M65.96 54.4q-.12 0-.21-.09a.304.304 0 0 1-.01-.42c.12-.12.32-.12.43 0 .05.05.09.13.09.21a.305.305 0 0 1-.3.3M.05 54.4c-.09 0-.17-.04-.22-.1-.05-.04-.08-.12-.08-.2 0-.09.03-.17.09-.22.09-.1.31-.11.42 0 .05.05.09.13.09.21s-.04.15-.09.21q-.09.09-.21.09ZM.08 48.39a.305.305 0 0 1-.21-.52c.11-.11.32-.11.43 0 .05.05.08.13.08.21 0 .07-.03.15-.08.21-.07.06-.14.09-.22.09ZM.07 42.38c-.08 0-.16-.04-.21-.1-.06-.04-.09-.12-.09-.2 0-.09.04-.17.09-.22.1-.1.32-.11.43 0a.304.304 0 0 1-.01.42c-.05.06-.13.09-.21.09ZM.06 36.36c-.08 0-.16-.03-.21-.08a.3.3 0 0 1-.09-.21c0-.08.03-.15.08-.21.13-.12.33-.12.43-.01.06.07.09.14.09.22 0 .07-.03.15-.09.21-.05.05-.13.08-.21.08M.05 30.36c-.08 0-.15-.04-.21-.09a.3.3 0 0 1-.09-.22q0-.12.09-.21c.11-.11.31-.11.42 0a.304.304 0 0 1 .01.42c-.07.07-.14.1-.22.1M.04 24.34c-.08 0-.16-.03-.21-.08q-.09-.09-.09-.21c0-.12.03-.16.09-.21.11-.12.32-.12.43 0a.304.304 0 0 1-.01.42c-.05.05-.13.08-.21.08M.03 18.33c-.08 0-.16-.03-.21-.08a.3.3 0 0 1-.09-.21c0-.08.03-.16.09-.22.11-.11.31-.11.42 0 .05.05.09.13.09.22 0 .08-.03.16-.09.21-.05.05-.13.08-.21.08M.02 12.32c-.08 0-.15-.03-.21-.08a.304.304 0 0 1-.01-.42c.12-.12.32-.12.43 0 .06.06.09.14.09.22 0 .07-.03.15-.08.2-.07.06-.14.09-.22.09ZM.01 6.31c-.08 0-.15-.03-.21-.08a.33.33 0 0 1-.09-.22c0-.07.03-.15.09-.21.1-.11.32-.11.43 0a.288.288 0 0 1-.01.41c-.06.06-.14.09-.21.09ZM71.96.3c-.09 0-.17-.04-.22-.1-.05-.04-.08-.12-.08-.2 0-.09.03-.17.09-.22.09-.1.31-.11.42 0 .05.05.09.13.09.21s-.04.15-.09.21q-.09.09-.21.09ZM5.96.3C5.87.3 5.8.27 5.74.21 5.69.15 5.65.08 5.65 0s.04-.16.09-.21c.11-.12.32-.12.43 0 .05.05.09.12.09.21 0 .08-.04.16-.1.21-.05.05-.12.09-.2.09M11.96.3a.3.3 0 0 1-.22-.09c-.05-.06-.09-.13-.09-.21s.04-.16.1-.22c.1-.1.31-.11.42 0 .05.05.09.13.09.21s-.04.15-.09.21c-.06.05-.13.09-.21.09ZM17.96.3c-.09 0-.16-.04-.22-.09a.32.32 0 0 1-.08-.21c0-.09.03-.16.09-.22.09-.1.31-.11.42 0a.288.288 0 0 1 0 .42c-.05.05-.13.09-.21.09ZM23.96.3c-.09 0-.16-.04-.22-.1-.05-.04-.08-.12-.08-.2 0-.09.03-.16.09-.22.09-.1.31-.11.42 0 .05.05.09.13.09.21s-.04.15-.09.21c-.06.05-.13.09-.21.09ZM29.96.3c-.09 0-.16-.04-.22-.1-.05-.04-.08-.12-.08-.2 0-.09.03-.16.09-.22.09-.1.31-.11.42 0 .05.05.09.12.09.21 0 .08-.04.16-.1.21a.27.27 0 0 1-.2.09ZM35.96.3a.3.3 0 0 1-.22-.09.32.32 0 0 1-.08-.21c0-.09.03-.17.09-.22.1-.1.31-.11.42 0 .05.05.09.12.09.21 0 .08-.04.15-.09.21-.06.05-.13.09-.21.09ZM41.96.3c-.09 0-.16-.03-.22-.09a.3.3 0 0 1-.08-.21c0-.09.03-.16.08-.22.11-.1.32-.11.43 0a.288.288 0 0 1 0 .42c-.06.05-.13.09-.21.09ZM47.96.3a.3.3 0 0 1-.22-.09.3.3 0 0 1-.09-.21c0-.09.04-.16.1-.22.09-.1.3-.11.42 0 .06.06.09.14.09.22a.305.305 0 0 1-.3.3M53.96.3a.3.3 0 0 1-.22-.09.36.36 0 0 1-.09-.21c0-.08.04-.16.09-.21.11-.12.32-.12.43 0 .05.05.09.13.09.21 0 .07-.03.15-.09.21q-.09.09-.21.09M59.96.3a.36.36 0 0 1-.22-.09c-.05-.06-.09-.13-.09-.21s.04-.16.09-.22c.11-.1.31-.11.43 0 .05.06.09.14.09.22s-.04.15-.09.21c-.06.05-.13.09-.21.09M65.96.3q-.12 0-.21-.09a.304.304 0 0 1-.01-.42c.12-.12.32-.12.43 0 .05.05.09.13.09.21a.305.305 0 0 1-.3.3M.05.3C-.04.3-.12.26-.17.2-.22.16-.25.08-.25 0c0-.09.03-.17.09-.22.09-.1.31-.11.42 0 .05.05.09.13.09.21S.31.14.26.2Q.17.29.05.29Z" class="cls-13"/></pattern><style>.cls-1{fill:#010101;font-family:AvenirNext-UltraLight,&quot;Avenir Next&quot;;font-size:6px;font-weight:100}.cls-4,.cls-5,.cls-6,.cls-7{stroke:#343434}.cls-10,.cls-6,.cls-7,.cls-8{stroke-miterlimit:10}.cls-6,.cls-7{stroke-width:.05px}.cls-11,.cls-7{opacity:.6}.cls-11,.cls-12,.cls-13{stroke-width:0}.cls-12,.cls-14,.cls-5,.cls-6,.cls-8{fill:none}.cls-13{fill:#1e1e1c}.cls-4{fill:#fff}.cls-14,.cls-4,.cls-5,.cls-8{stroke-width:.25px}.cls-14,.cls-4,.cls-5{stroke-linecap:round;stroke-linejoin:round}.cls-15{letter-spacing:-.02em}.cls-10,.cls-8{stroke:#010101}.cls-14{stroke:#676767}.cls-11,.cls-7{fill:url(#Nouveau_motif_3)}.cls-10{fill:#989999;stroke-width:.5px}.cls-16{fill:#343434;font-family:Avenir-Medium,Avenir;font-size:6.23px;font-weight:500}</style></defs><path d="M486.43 292.39h201.54v173.05H486.43zM309.97 292.39h170.08v173.05H309.97z" class="cls-7"/><path d="M158.56 232.44h517.47v59.95H158.56z" class="cls-11"/><path d="M156.44 292.39h147.12v170.93H45.92V343.41h106.3v31.6h32.6v-35.85h-28.38z" class="cls-7"/><path d="M159.73 124.15v26.04h12.75v26.12H158.3l-.74 56.13h194.35V118.95h101.2V78.51H172.48v45.47z" style="fill:url(#Nouveau_motif_3-2);stroke:#343434;stroke-miterlimit:10;stroke-width:.05px;opacity:.6"/><path d="M45.92 176.31H158.3v162.85H45.92z" class="cls-11"/><path d="M460.49 43.22h227.48v189.21H460.49z" style="stroke:#343434;stroke-miterlimit:10;stroke-width:.05px;fill:url(#Etang_intermittent_USGS_8B);opacity:.3"/><path d="M243.14 473.95v14.15M373.74 473.95v14.15M243.14 488.1h56.98M316.56 488.1h57.18M244.71 486.27l-3.4 3.4.27.27 3.4-3.4zM372.18 489.94l3.4-3.4-.27-.27-3.4 3.4zM373.74 473.95v14.15M412.86 473.95v14.15M373.74 488.1h11.14M401.63 488.1h11.23" class="cls-5"/><path d="m375.31 486.27-3.4 3.4.27.27 3.4-3.4zM411.3 489.94l3.4-3.4-.27-.27-3.4 3.4zM412.86 473.95v14.15M497.24 473.95v14.15M412.86 488.1h34.22M463.37 488.1h33.87" class="cls-5"/><path d="m414.43 486.27-3.4 3.4.27.27 3.4-3.4zM495.67 489.94l3.4-3.4-.27-.27-3.4 3.4zM497.24 473.95v14.15M536.35 473.95v14.15M497.24 488.1h11.13M525.12 488.1h11.23" class="cls-5"/><path d="m498.8 486.27-3.4 3.4.27.27 3.4-3.4zM534.79 489.94l3.4-3.4-.27-.27-3.4 3.4zM536.35 473.95v14.15M619.86 473.95v14.15M536.35 488.1h33.79M586.54 488.1h33.32" class="cls-5"/><path d="m537.92 486.27-3.4 3.4.27.27 3.4-3.4zM618.3 489.94l3.4-3.4-.27-.27-3.41 3.4zM619.86 473.95v14.15M658.98 473.95v14.15M619.86 488.1h11.13M647.74 488.1h11.24" class="cls-5"/><path d="m621.43 486.27-3.41 3.4.28.27 3.4-3.4zM657.41 489.94l3.41-3.4-.28-.27-3.4 3.4zM674.72 116.73v-12.48M459.18 116.73v-12.48M674.72 104.25h-99.34M558.84 104.25h-99.66M673.16 106.08l3.4-3.4-.27-.27-3.4 3.4zM460.75 102.41l-3.41 3.4.28.27 3.4-3.4zM452.8 116.73v-12.48M172.17 116.73v-12.48M452.8 104.25H320.92M304.06 104.25H172.17M451.24 106.08l3.4-3.4-.27-.27-3.4 3.4zM173.74 102.41l-3.4 3.4.27.27 3.4-3.4zM157.25 232.44v14.15M673.91 232.44v14.15M157.25 246.59h247.87M426.25 246.59h247.66M158.82 244.75l-3.4 3.41.27.27 3.4-3.4zM672.34 248.43l3.4-3.4-.27-.28-3.4 3.41zM695.17 236.69h21.55M695.17 27.49h21.55M716.72 236.69v-96.17M716.72 123.77V27.49M714.89 235.12l3.4 3.4.27-.27-3.4-3.4zM718.56 29.06l-3.4-3.41-.27.28 3.4 3.4zM695.17 288.14h21.55M695.17 236.69h21.55M716.72 293.24v-22.86M716.72 255.39v-23.8M718.56 289.7l-3.4-3.4-.27.27 3.4 3.4z" class="cls-5"/><path d="m714.89 235.12 3.4 3.4.27-.27-3.4-3.4zM44.83 452.69l14.16-.03M44.61 334.91l14.16-.03M58.99 452.66l-.1-50.57M58.86 385.66l-.09-50.78M57.15 451.1l3.41 3.4.27-.28-3.41-3.39zM60.61 336.44l-3.41-3.39-.27.27 3.41 3.4zM308.66 452.69h14.16M308.66 298.77h14.16M322.82 452.69v-68.64M322.82 367.4v-68.63M320.98 451.12l3.4 3.4.27-.27-3.4-3.4zM324.65 300.33l-3.4-3.4-.27.27 3.4 3.4zM669.36 43.22H647.8M669.36 226.06H647.8M647.8 43.22v82.99M647.8 143.07v82.99M649.64 44.79l-3.4-3.4-.27.27 3.4 3.4zM645.97 224.49l3.4 3.4.27-.27-3.4-3.4zM695.17 27.49V5.93M423.04 27.49V5.93M695.17 5.93H567.53M550.68 5.93H423.04M693.6 7.77l3.4-3.4-.27-.27-3.4 3.4zM424.6 4.1l-3.4 3.4.28.27 3.4-3.4zM423.04 27.49V5.93M150.91 27.49V5.93M423.04 5.93H295.41M278.55 5.93H150.91" class="cls-5"/><path d="m421.48 7.77 3.4-3.4-.28-.27-3.4 3.4zM152.48 4.1l-3.4 3.4.27.27 3.4-3.4zM26.42 155.05H4.87M26.42 473.95H4.87M4.87 155.05v151.09M4.87 322.93v151.02M6.7 156.61l-3.4-3.4-.27.28 3.4 3.4zM3.03 472.38l3.4 3.4.27-.27-3.4-3.4zM716.72 473.95h21.56M716.72 27.49h21.56M738.28 473.95V261.18M738.28 239.8V27.49M736.44 472.38l3.4 3.4.28-.27-3.41-3.4zM740.12 29.06l-3.41-3.41-.27.28 3.4 3.4zM44.61 334.91v14.15M150.88 334.91v14.15M44.61 349.06h44.81M106.17 349.06h44.71M46.18 347.23l-3.4 3.4.27.27 3.4-3.4zM149.31 350.9l3.4-3.4-.27-.27-3.4 3.4zM695.17 407.62h21.55M695.17 343.84h21.55M716.72 407.62V383.7M716.72 367.3v-23.46M714.89 406.05l3.4 3.4.27-.27-3.4-3.4zM718.56 345.4l-3.4-3.4-.27.27 3.4 3.4zM695.17 343.84h21.55M695.17 288.14h21.55M716.72 343.84v-19.88M716.72 308.96v-20.82" class="cls-5"/><path d="m714.89 342.27 3.4 3.4.27-.27-3.4-3.4zM718.56 289.7l-3.4-3.4-.27.27 3.4 3.4zM308.66 226.06l14.16.04M309.09 78.51l14.15.05M322.82 226.1l.19-65.45M323.05 144.21l.19-65.65M320.98 224.53l3.4 3.41.27-.27-3.39-3.41zM325.07 80.12l-3.39-3.41-.27.27 3.39 3.42zM308.66 292.39h14.16M308.66 232.44h14.16M322.82 292.39v-22.01M322.82 255.39v-22.95M320.98 290.82l3.4 3.41.27-.28-3.4-3.4zM324.65 234l-3.4-3.4-.27.27 3.4 3.4zM44.83 330.66l14.16-.02M44.61 176.31l14.16-.02M58.99 330.64l-.1-68.85M58.87 245.14l-.1-68.85M57.15 329.07l3.4 3.4.28-.27-3.41-3.4zM60.61 177.85l-3.41-3.4-.27.28 3.41 3.39zM695.17 473.95h21.55M695.17 407.62h21.55M716.72 473.95v-25.2M716.72 432.35v-24.73M714.89 472.38l3.4 3.4.27-.27-3.4-3.4zM718.56 409.18l-3.4-3.4-.27.27 3.4 3.4zM151.34 155.21v-36.1M23.35 155.21v-36.1M151.34 119.11H95.67M80.32 119.11H23.35M149.77 120.95l3.41-3.4-.28-.27-3.4 3.4zM24.92 117.28l-3.4 3.4.27.27 3.4-3.4zM150.91 155.05v-21.56M109.06 155.05v-21.56M150.91 133.49h-12.5M121.66 133.49h-12.6M149.35 135.33l3.4-3.4-.27-.27-3.4 3.4zM110.62 131.66l-3.4 3.4.27.27 3.4-3.4zM109.06 155.05v-21.56M79.29 155.05v-21.56M109.06 133.49h-6.46M85.75 133.49h-6.46" class="cls-5"/><path d="m107.49 135.33 3.4-3.4-.27-.27-3.4 3.4zM80.86 131.66l-3.4 3.4.27.27 3.4-3.4zM79.29 155.05v-21.56M23.35 155.05v-21.56M79.29 133.49H59.3M43 133.49H23.35" class="cls-5"/><path d="m77.73 135.33 3.4-3.4-.27-.27-3.4 3.4zM24.92 131.66l-3.4 3.4.27.27 3.4-3.4zM23.35 488.1v14.16M695.17 488.1v14.16M23.35 502.26H348.8M370.18 502.26h324.99M24.92 500.42l-3.4 3.4.27.27 3.4-3.4zM693.6 504.09l3.4-3.4-.27-.27-3.4 3.4zM658.98 473.95v14.15M695.17 473.95v14.15M658.98 488.1h9.66M685.25 488.1h9.92M660.54 486.27l-3.4 3.4.27.27 3.41-3.4zM693.6 489.94l3.4-3.4-.27-.27-3.4 3.4zM23.35 473.95v14.15M107.51 473.95v14.15M23.35 488.1h34.11M73.75 488.1h33.76M24.92 486.27l-3.4 3.4.27.27 3.4-3.4zM105.94 489.94l3.4-3.4-.27-.27-3.4 3.4zM107.51 473.95v14.15M146.62 473.95v14.15M107.51 488.1h11.13M135.39 488.1h11.23" class="cls-5"/><path d="m109.07 486.27-3.4 3.4.27.27 3.4-3.4zM145.06 489.94l3.4-3.4-.27-.27-3.4 3.4zM146.62 473.95v14.15M204.03 473.95v14.15M146.62 488.1h20.73M183.51 488.1h20.52" class="cls-5"/><path d="m148.19 486.27-3.4 3.4.27.27 3.4-3.4zM202.46 489.94l3.4-3.4-.27-.27-3.4 3.4zM204.03 473.95v14.15M243.14 473.95v14.15M204.03 488.1h11.13M231.91 488.1h11.23" class="cls-5"/><path d="m205.59 486.27-3.4 3.4.27.27 3.4-3.4zM241.58 489.94l3.4-3.4-.27-.27-3.4 3.4zM183.62 334.91v14.15M302.28 334.91v14.15M183.62 349.06h51.01M251.38 349.06h50.9M185.18 347.23l-3.4 3.4.27.27 3.4-3.4zM300.72 350.9l3.4-3.4-.27-.27-3.4 3.4zM308.66 334.91v14.15M478.74 334.91v14.15M308.66 349.06h76.61M402.13 349.06h76.61M310.23 347.23l-3.4 3.4.27.27 3.4-3.4zM477.18 350.9l3.4-3.4-.27-.27-3.41 3.4zM485.12 334.91v14.15M673.91 334.91v14.15M485.12 349.06h85.96M588.05 349.06h85.86M486.68 347.23l-3.4 3.4.27.27 3.41-3.4zM672.34 350.9l3.4-3.4-.27-.27-3.4 3.4z" class="cls-5"/><text class="cls-16" transform="translate(299.74 491.29)"><tspan x="0" y="0">3.07</tspan></text><text class="cls-16" transform="translate(384.6 491.29)"><tspan x="0" y="0">0.92</tspan></text><text class="cls-16" transform="translate(446.34 491.29)"><tspan x="0" y="0">1.98</tspan></text><text class="cls-16" transform="translate(508.09 491.29)"><tspan x="0" y="0">0.92</tspan></text><text class="cls-16" transform="translate(569.4 491.29)"><tspan x="0" y="0">1.96</tspan></text><text class="cls-16" transform="translate(630.71 491.29)"><tspan x="0" y="0">0.92</tspan></text><text class="cls-16" transform="translate(558.56 107.4)"><tspan x="0" y="0">5.07</tspan></text><text class="cls-16" transform="translate(303.78 107.4)"><tspan x="0" y="0">6.60</tspan></text><text class="cls-16" transform="translate(404.39 249.78)"><tspan x="0" y="0">12.15</tspan></text><text class="cls-16" transform="rotate(-90 430.355 -289.555)"><tspan x="0" y="0">4.92</tspan></text><text class="cls-16" transform="rotate(-90 495.515 -224.395)"><tspan x="0" y="0">1.21</tspan></text><text class="cls-16" transform="rotate(-90.1 231.81 170.244)"><tspan x="0" y="0">2.77</tspan></text><text class="cls-16" transform="rotate(-90 355.225 29.215)"><tspan x="0" y="0">3.62</tspan></text><text class="cls-16" transform="rotate(-90 397.17 -253.82)"><tspan x="0" y="0">4.30</tspan></text><text class="cls-16" transform="translate(550.39 9.09)"><tspan x="0" y="0">6.40</tspan></text><text class="cls-16" transform="translate(278.27 9.09)"><tspan x="0" y="0">6.40</tspan></text><text class="cls-16" transform="rotate(-90 165.65 157.63)"><tspan x="0" y="0">7.50</tspan></text><text class="cls-16" transform="rotate(-90 501.695 -239.775)"><tspan x="0" y="0">10.50</tspan></text><text class="cls-16" transform="translate(89.04 352.26)"><tspan x="0" y="0">2.50</tspan></text><text class="cls-16" transform="rotate(-90 552.175 -167.735)"><tspan x="0" y="0">1.50</tspan></text><text class="cls-16" transform="rotate(-90 522.305 -197.605)"><tspan x="0" y="0">1.31</tspan></text><text class="cls-16" transform="rotate(-89.83 243.774 -83.06)"><tspan x="0" y="0">3.47</tspan></text><text class="cls-16" transform="rotate(-90 298.565 -27.445)"><tspan x="0" y="0">1.41</tspan></text><text class="cls-16" transform="rotate(-90.08 161.807 100.083)"><tspan x="0" y="0">3.63</tspan></text><text class="cls-16" transform="rotate(-90 584.7 -135.21)"><tspan x="0" y="0">1.56</tspan></text><text class="cls-16" transform="translate(79.93 122.3)"><tspan x="0" y="0">3.01</tspan></text><text class="cls-16" transform="translate(121.38 136.65)"><tspan x="0" y="0">0.98</tspan></text><text class="cls-16" transform="translate(85.47 136.65)"><tspan x="0" y="0">0.70</tspan></text><text class="cls-16" transform="translate(42.26 136.68)"><tspan x="0" y="0">1.32</tspan></text><text class="cls-16" transform="translate(348.06 505.45)"><tspan x="0" y="0">15.80</tspan></text><text class="cls-16" transform="translate(668.37 491.29)"><tspan x="0" y="0">0.85</tspan></text><text class="cls-16" transform="translate(56.72 491.29)"><tspan x="0" y="0">1.98</tspan></text><text class="cls-16" transform="translate(118.36 491.29)"><tspan x="0" y="0">0.92</tspan></text><text class="cls-16" transform="translate(166.62 491.29)"><tspan x="0" y="0">1.35</tspan></text><text class="cls-16" transform="translate(214.88 491.29)"><tspan x="0" y="0">0.92</tspan></text><text class="cls-16" transform="translate(234.24 352.26)"><tspan x="0" y="0">2.79</tspan></text><text class="cls-16" transform="translate(384.99 352.26)"><tspan x="0" y="0">4.00</tspan></text><text class="cls-16" transform="translate(570.8 352.26)"><tspan x="0" y="0">4.44</tspan></text><path d="M403.48 158.07h-45.5M403.48 180.18h-45.5M357.98 208.32l45.5-17.08M403.48 191.24h-45.5M548.43 452.69v-17.44h53.15v17.44M403.48 191.24l-45.5 33.69M453.23 147.01h-45.5M453.23 158.07h-45.5M453.23 169.12h-45.5M453.23 180.18h-45.5M453.23 191.24h-45.5M403.48 147.01h-45.5M309.09 78.51v13.03H233.4V78.51M403.48 169.12h-45.5M544.68 43.22h55.17v8.49h-55.17zM478.74 347.07h-21.17v67.72h21.17" class="cls-4"/><path d="M686.66 288.14v-51.45M686.66 345.8l-16.24 23.33M686.66 376.09c-6.22 0-11.91-2.68-16.24-6.97M159.42 136.7c3.33 0 6.19.64 9.1 2.36M159.42 126.11l9.09 8.22M159.42 136.7c3.33 0 6.19-.64 9.1-2.36M159.42 147.9l9.09-8.7M106.93 163.39l-9.63 9.1M686.66 285.85l-16.24-18.17M686.66 262.25c-5.82 0-11.6 1.85-16.24 5.43M686.66 262.25c-5.82 0-11.6-1.85-16.24-5.43M81.42 163.39l10.19 9.1M94.54 163.39c0 3.21.92 6.44 2.77 9.1M94.54 163.39c0 3.21-.92 6.44-2.77 9.1M619.86 465.44h2.13v4.25h-2.13zM656.85 465.44h2.13v4.25h-2.13zM619.86 465.44h39.12M619.86 469.7h39.12M639.42 465.44v4.26M638.36 465.44h2.13v4.25h-2.13zM686.66 405.49h4.25v2.13h-4.25zM686.66 343.84h4.25v2.13h-4.25zM690.91 407.62V344.9M686.66 407.62v-63.78M686.66 375.2h4.25v2.13h-4.25zM686.66 376.26h4.25M686.66 286.01h4.25v2.13h-4.25zM686.66 236.69h4.25v2.13h-4.25zM690.91 288.14v-51.45M686.66 261.35h4.25v2.13h-4.25zM686.66 262.41h4.25M155.17 148.06h4.25v2.13h-4.25zM155.17 124.15h4.25v2.13h-4.25zM159.42 150.19v-26.04M155.17 150.19v-26.04M155.17 136.11h4.25v2.13h-4.25zM155.17 137.17h4.25M79.29 159.3h2.13v4.25h-2.13zM106.93 159.3h2.13v4.25h-2.13zM109.06 159.3H79.29M109.06 163.55H79.29M94.54 163.55v-4.25" class="cls-5"/><path d="M93.47 159.3h2.13v4.25h-2.13zM107.51 465.44h2.13v4.25h-2.13zM144.5 465.44h2.13v4.25h-2.13zM107.51 465.44h39.11M107.51 469.7h39.11M127.07 465.44v4.26M126 465.44h2.13v4.25H126zM204.03 465.44h2.13v4.25h-2.13zM241.02 465.44h2.13v4.25h-2.13zM204.03 465.44h39.11M204.03 469.7h39.11M223.58 465.44v4.26M222.52 465.44h2.13v4.25h-2.13zM373.74 465.44h2.13v4.25h-2.13zM410.74 465.44h2.13v4.25h-2.13zM373.74 465.44h39.12M373.74 469.7h39.12M393.3 465.44v4.26M392.24 465.44h2.13v4.25h-2.13zM497.24 465.44h2.13v4.25h-2.13zM534.23 465.44h2.13v4.25h-2.13zM497.24 465.44h39.11M497.24 469.7h39.11M516.8 465.44v4.26M515.73 465.44h2.13v4.25h-2.13zM686.66 238.65l-16.24 18.17M109.63 465.28l13.55-9.1M127.07 465.28c0-3.48-1.51-6.66-3.89-9.1M127.07 465.28c0-3.48 1.51-6.66 3.89-9.1M144.5 465.28l-13.54-9.1M206.15 465.28l13.55-9.1M223.58 465.28c0-3.48-1.51-6.66-3.89-9.1M223.58 465.28c0-3.48 1.51-6.66 3.89-9.1M241.02 465.28l-13.54-9.1M375.87 465.28l13.54-9.1M393.3 465.28c0-3.48-1.51-6.66-3.89-9.1M393.3 465.28c0-3.42 1.46-6.55 3.77-8.97M410.43 465.28l-13.36-8.97M516.8 465.28c0-3.48 1.51-6.66 3.89-9.1M534.23 465.28l-13.54-9.1M499.36 465.28l13.55-9.1M516.8 465.28c0-3.48-1.51-6.66-3.89-9.1M639.42 465.28c0-3.48 1.51-6.66 3.89-9.1M656.85 465.28l-13.54-9.1M621.99 465.28l13.54-9.1M639.42 465.28c0-3.48-1.51-6.66-3.89-9.1M686.66 405.33l-15.8-22.69M686.66 376.09c-5.99 0-11.52 2.49-15.8 6.54M692.22 155.89v-29.4M687.97 141.19h4.25M687.97 140.13h4.25v2.13h-4.25zM687.97 155.89l-9.1-11.42M687.97 141.19c-3.33 0-6.53 1.17-9.1 3.28M687.97 126.49l-9.1 11.42M687.97 141.19c-3.33 0-6.53-1.17-9.1-3.28M687.97 124.36h4.25v2.13h-4.25zM687.97 155.89h4.25v2.13h-4.25zM687.97 155.89v-31.53M203.35 196.35h-1.92M514.83 367.32v-1.92M514.83 365.4h-36.09v1.92h36.09M514.83 367.32c-1.02 19.19-16.88 34.22-36.09 34.22M121.16 278.71c1.02-19.19 16.88-34.22 36.09-34.22M121.16 278.71v1.92M121.16 280.63h36.09v-1.92h-36.09M384.14 328.48c19.19-1.02 34.22-16.88 34.22-36.09" class="cls-5"/><path d="M382.22 328.48v-36.09h1.92v36.09M229.4 328.48c19.19-1.02 34.22-16.88 34.22-36.09M227.48 292.39h1.92v36.09h-1.92zM384.14 328.48h-1.92M544.44 328.48c19.19-1.02 34.22-16.88 34.22-36.09M542.52 328.48v-36.09h1.92v36.09M544.44 328.48h-1.92M576.74 196.35h1.92M578.66 196.35v36.09h-1.92v-36.09M576.74 196.35c-19.19 1.02-34.22 16.88-34.22 36.09M203.35 196.35c19.19 1.02 34.22 16.88 34.22 36.09M201.43 196.35v36.09h1.92v-36.09" class="cls-5"/><path d="M817.62 226.68h11.06v72.43h-11.06zM695.17 27.49l89.29 63.16v382.68h-89.29M784.46 226.68h11.06v72.43h-11.06z" class="cls-14"/><path d="M795.51 226.68h11.06v72.43h-11.06zM806.57 226.68h11.06v72.43h-11.06zM828.68 226.68h11.06v72.43h-11.06z" class="cls-14"/><path d="M457.87 347.07h21.93v4.16h-21.93zM458.1 410.54h21.7v4.25h-21.7zM695.47 124.36h-20.44V43.22H459.49v35.29H172.48v45.64h-21.26v-66.9h272.13V27.49h272.12zM675.03 158.02h20.44v78.67h-20.44zM675.03 288.13h20.44v55.79h-20.44zM675.03 407.62v45.07h-15.74v21.06h36.18v-66.13zM146.93 452.69h57.4v21.26h-57.4zM151.22 150.19h21.26v26.12h-63.11v-21.26h41.85zM107.81 452.69v21.26H23.66v-318.9H79.6v21.26H44.92v276.38zM151.18 280.63v58.53h4.26v-40.39h72.61v-6.38h-70.49v-11.76zM264.19 292.39h118.34v6.38h-73.56v153.92h-6.38V298.77h-38.4z" class="cls-10"/><path d="M418.67 292.39h124.16v6.38h-57.4v153.92h-6.38V298.77h-60.38zM578.97 292.39h96.06v6.38h-96.06zM44.92 339.16h106.26v4.25H44.92zM578.97 226.06h96.06v6.38h-96.06zM403.79 226.06h139.04v6.38H403.79zM453.11 78.51h6.38v147.54h-6.38zM351.91 118.95h6.38v107.11h-6.38zM237.88 226.06h129.77v6.38H237.88zM151.18 226.06v18.43h6.38v-12.05h44.18v-6.38zM151.18 339.16v36.14h32.74v-36.14zm28.49 31.66h-24.24v-27.4h24.24zM536.66 452.69h83.51v21.26h-83.51zM243.45 452.69h130.6v21.26h-130.6zM413.17 452.69h84.37v21.26h-84.37zM358.29 118.95h94.82v3.6h-94.82zM403.79 141.02h4.25v50.22h-4.25z" class="cls-10"/><text class="cls-1" transform="translate(236.37 145.55)"><tspan x="0" y="0">Espace vide </tspan><tspan x="0" y="7.2">non amnag</tspan><tspan x="0" y="14.4">29m </tspan></text><text class="cls-1" transform="translate(202 374.7)"><tspan x="0" y="0">Chamb</tspan><tspan x="19.92" y="0" class="cls-15">r</tspan><tspan x="21.71" y="0">e I</tspan><tspan x="27.95" y="0" class="cls-15">V</tspan><tspan x="0" y="7.2">18,60m </tspan></text><text class="cls-1" transform="translate(397.85 374.7)"><tspan x="0" y="0">Chamb</tspan><tspan x="19.92" y="0" class="cls-15">r</tspan><tspan x="21.71" y="0">e</tspan><tspan xml:space="preserve" x="25.05" y="0" class="cls-15"> V</tspan><tspan x="0" y="7.2">14,40m </tspan></text><text class="cls-1" transform="translate(602.33 374.7)"><tspan x="0" y="0">Chamb</tspan><tspan x="19.92" y="0" class="cls-15">r</tspan><tspan x="21.71" y="0">e</tspan><tspan x="25.05" y="0" class="cls-15"> </tspan><tspan x="26.44" y="0">VI</tspan><tspan x="0" y="7.2">16m </tspan></text><text class="cls-1" transform="translate(553.63 154.33)"><tspan x="0" y="0">Chamb</tspan><tspan x="19.92" y="0" class="cls-15">r</tspan><tspan x="21.71" y="0">e</tspan><tspan x="25.05" y="0" class="cls-15"> </tspan><tspan x="26.44" y="0">VII</tspan><tspan x="0" y="7.2">21,50m </tspan></text><circle cx="812.34" cy="495.18" r="9.92" class="cls-8"/><path d="M812.36 495.22h9.86" class="cls-8"/><path d="M802.38 495.22h9.98" style="stroke-miterlimit:10;fill:none;stroke:#010101;stroke-width:2px"/></svg>