<svg xmlns="http://www.w3.org/2000/svg" id="Calque_1" data-name="Calque 1" viewBox="0 0 828.94 510.93"><defs><pattern id="Nouveau_motif_3" width="34.23" height="27.94" x="0" y="0" data-name="Nouveau motif 3" patternTransform="matrix(1.5 0 0 1.56 1647.9 3349.02)" patternUnits="userSpaceOnUse"><path d="M0 0h34.23v27.94H0z" style="fill:none;stroke-width:0"/><path d="M17.14 25.63h34.18v4.61H17.14zM-17.09 25.63h34.18v4.61h-34.18zM.03 20.98h34.18v4.61H.03zM17.14 16.32h34.18v4.61H17.14zM-17.09 16.32h34.18v4.61h-34.18zM.03 11.67h34.18v4.61H.03zM17.14 7.01h34.18v4.61H17.14zM-17.09 7.01h34.18v4.61h-34.18zM.03 2.35h34.18v4.61H.03zM17.14-2.3h34.18v4.61H17.14zM-17.09-2.3h34.18v4.61h-34.18z" class="cls-9"/></pattern><style>.cls-1{fill:#010101;font-family:AvenirNext-UltraLight,&quot;Avenir Next&quot;;font-size:6px;font-weight:100}.cls-3,.cls-4,.cls-5,.cls-6,.cls-8,.cls-9{fill:none}.cls-11{stroke-width:0}.cls-13,.cls-3,.cls-4,.cls-5,.cls-6{stroke-width:.25px}.cls-13,.cls-3,.cls-5,.cls-6,.cls-8{stroke-linecap:round;stroke-linejoin:round}.cls-13,.cls-14,.cls-3,.cls-9{stroke:#343434}.cls-13{fill:#fff}.cls-15{letter-spacing:-.02em}.cls-16,.cls-4,.cls-8{stroke:#010101}.cls-14,.cls-16,.cls-4,.cls-9{stroke-miterlimit:10}.cls-5{stroke:#cdcccc}.cls-6{stroke:#676767}.cls-11,.cls-14{fill:url(#Nouveau_motif_3);opacity:.6}.cls-16{fill:#989999;stroke-width:.5px}.cls-14,.cls-9{stroke-width:.05px}.cls-17{fill:#343434;font-family:Avenir-Medium,Avenir;font-size:6.23px;font-weight:500}</style></defs><path d="M486.21 292.39h201.54v173.05H486.21zM309.76 292.39h170.08v173.05H309.76z" class="cls-14"/><path d="M158.35 232.44h517.47v59.95H158.35z" class="cls-11"/><path d="M460.27 43.22h227.48v189.21H460.27zM156.22 292.39h147.13v170.93H45.71V343.41h106.3v31.6h32.59v-35.85h-28.38zM160.51 124.15v26.04h12.76v26.12h-8.15l-.06 56.13H352.7V118.95h101.2V78.51H173.27v45.47z" class="cls-14"/><path d="M45.71 176.31h112.38v162.85H45.71z" class="cls-11"/><path d="M277.84 343.29h25.54v93.54h-25.54z" style="stroke-width:0;fill:#fff"/><path d="M528.95 48.03h11.24v14.83h-11.24zM595.19 177.58h80.63v38.27h-80.63z" class="cls-13"/><path d="M672.58 187.33c.07 1.41-.21 4.19-.32 6.47s-.05 4.06-.05 5.49-.08 2.51-.18 3.35c-.09.84-.2 1.43-.19 2.05s.16 1.26.34 1.82.42 1.04.58 1.46.26.79.32 1.2.09.86.1 1.2c0 .34-.02.56-.13.7s-.32.19-.53.2c-.2.01-.41-.02-.75-.09s-.84-.19-1.22-.31c-.39-.11-.67-.23-1.04-.36s-.83-.28-1.26-.4c-.42-.12-.8-.21-1.34-.2-.54 0-1.25.11-2.48.07-1.22-.04-2.97-.23-4.06-.35s-1.53-.19-1.91-.23-.7-.06-1 .02-.57.25-1.17.36c-.6.12-1.51.18-2.05.31-.53.13-.68.33-.94.54s-.63.44-.88.7-.38.57-.63.76c-.26.19-.64.25-.84.16-.2-.1-.2-.36-.23-.62-.02-.26-.06-.52-.02-1.13s.16-1.56.28-2.34.23-1.38.32-1.93.18-1.03.29-1.83.24-1.92.31-2.74c.07-.83.07-1.36.02-2.17s-.13-1.88-.33-2.75c-.19-.88-.49-1.55-.55-2.22s.13-1.32.24-2.12.15-1.72.17-2.4.02-1.1.03-1.83c0-.73.02-1.75.26-2.2.24-.44.7-.3 1.01-.13s.48.37.72.67.57.68.94.91.78.29 1.21.34c.43.04.9.06 1.39.08.49.03 1 .06 1.46.09.45.02.85.03 1.21.08.37.05.7.15 1.1.16.4 0 .86-.07 1.24 0s.67.28 1.16.24 1.2-.35 1.77-.63c.57-.27 1.01-.52 1.48-.57s.98.1 1.44.2.87.16 1.23.07c.37-.09.69-.34 1-.59.32-.25.63-.5.9-.68.27-.17.49-.26.8-.29s.72.01.78 1.42ZM621.37 43.35h38.27v80.63h-38.27z" class="cls-13"/><path d="M631.11 46.59c1.41-.06 4.19.21 6.47.32s4.06.05 5.49.06c1.43 0 2.51.08 3.35.18s1.43.2 2.05.19 1.26-.16 1.82-.34c.56-.19 1.04-.42 1.46-.58s.79-.26 1.2-.32.86-.09 1.2-.1c.34 0 .56.02.7.14.14.11.19.32.2.53.01.2-.02.41-.09.75-.07.35-.19.84-.31 1.22s-.23.67-.36 1.04-.28.83-.4 1.25-.21.8-.2 1.35c0 .54.11 1.25.07 2.48s-.23 2.97-.35 4.06c-.13 1.09-.19 1.53-.23 1.91s-.06.7.02 1 .25.57.37 1.17.18 1.51.31 2.04.33.68.54.94.44.63.7.88.57.38.76.63c.19.26.25.64.16.84-.1.2-.36.2-.62.23-.26.02-.52.06-1.13.02s-1.56-.16-2.34-.28-1.38-.23-1.93-.32c-.54-.1-1.03-.18-1.83-.29s-1.92-.24-2.74-.31c-.83-.07-1.36-.07-2.17-.02s-1.88.13-2.75.33c-.88.19-1.55.49-2.22.55s-1.32-.13-2.12-.24c-.79-.11-1.72-.15-2.4-.17s-1.1-.02-1.83-.03c-.73 0-1.75-.02-2.2-.26-.44-.24-.3-.7-.13-1.01s.37-.48.67-.72c.29-.25.68-.57.91-.94s.29-.78.34-1.21c.04-.44.05-.9.08-1.39s.06-1 .09-1.46c.02-.45.03-.85.08-1.21.05-.37.15-.7.16-1.1 0-.4-.07-.86 0-1.24s.28-.67.24-1.16-.35-1.2-.63-1.77c-.27-.57-.52-1.01-.57-1.48s.1-.98.2-1.44.16-.87.07-1.23-.34-.68-.59-1-.5-.63-.68-.9-.26-.49-.29-.8.01-.72 1.42-.78ZM486.43 43.35h38.27v80.63h-38.27z" class="cls-13"/><path d="M496.18 46.59c1.41-.06 4.19.21 6.47.32s4.06.05 5.49.06c1.43 0 2.51.08 3.35.18s1.43.2 2.05.19 1.26-.16 1.82-.34c.56-.19 1.04-.42 1.46-.58s.79-.26 1.2-.32.86-.09 1.2-.1c.34 0 .56.02.7.14.14.11.19.32.2.53.01.2-.02.41-.09.75-.07.35-.19.84-.31 1.22-.12.39-.23.67-.36 1.04s-.28.83-.4 1.25-.21.8-.2 1.35c0 .54.11 1.25.07 2.48s-.23 2.97-.35 4.06c-.13 1.09-.19 1.53-.23 1.91s-.06.7.02 1 .25.57.37 1.17c.11.6.18 1.51.3 2.04.13.53.33.68.54.94s.44.63.7.88.57.38.76.63c.19.26.25.64.16.84-.1.2-.36.2-.62.23-.26.02-.52.06-1.13.02s-1.56-.16-2.34-.28-1.38-.23-1.93-.32c-.54-.1-1.03-.18-1.83-.29s-1.92-.24-2.75-.31-1.36-.07-2.17-.02c-.8.04-1.88.13-2.75.33-.87.19-1.55.49-2.22.55s-1.32-.13-2.12-.24c-.79-.11-1.72-.15-2.4-.17s-1.1-.02-1.83-.03c-.73 0-1.75-.02-2.2-.26s-.3-.7-.13-1.01.37-.48.67-.72c.29-.25.68-.57.91-.94s.29-.78.34-1.21.06-.9.08-1.39c.03-.49.06-1 .08-1.46.02-.45.03-.85.08-1.21.05-.37.15-.7.16-1.1 0-.4-.07-.86 0-1.24s.28-.67.24-1.16-.35-1.2-.63-1.77-.52-1.01-.57-1.48.1-.98.2-1.44.16-.87.07-1.23-.34-.68-.59-1-.5-.63-.68-.9c-.17-.27-.27-.49-.29-.8-.03-.31.01-.72 1.42-.78ZM66.55 343.37h68.03V424H66.55z" class="cls-13"/><path d="M104.04 346.21c1.41-.06 4.19.21 6.47.32s4.06.05 5.49.05 2.51.08 3.35.18c.84.09 1.43.2 2.05.19s1.26-.16 1.82-.34 1.04-.42 1.46-.58.79-.26 1.2-.32.86-.09 1.2-.1.56.02.7.13c.14.12.19.32.2.53s-.02.41-.09.75c-.07.35-.19.84-.31 1.22-.12.39-.23.67-.36 1.04s-.28.83-.4 1.26c-.12.42-.21.8-.2 1.34 0 .54.11 1.25.07 2.48-.04 1.22-.23 2.97-.35 4.06-.13 1.09-.19 1.53-.23 1.91s-.06.7.02 1 .25.57.37 1.17c.11.6.17 1.51.3 2.04s.33.68.54.94.44.63.7.88.57.38.76.63c.19.26.25.64.16.84-.1.2-.36.2-.62.23-.26.02-.52.06-1.13.02s-1.56-.16-2.34-.28-1.38-.23-1.93-.32-1.03-.18-1.83-.29-1.92-.24-2.75-.31-1.36-.07-2.17-.02c-.8.04-1.88.13-2.75.33-.87.19-1.55.49-2.22.55-.67.05-1.32-.13-2.12-.24s-1.72-.15-2.4-.17-1.1-.02-1.83-.03c-.73 0-1.75-.02-2.2-.26s-.3-.7-.13-1.01.37-.48.67-.72.68-.57.91-.94.29-.78.34-1.21c.04-.43.06-.9.08-1.39.03-.49.06-1 .08-1.46.02-.45.03-.85.08-1.21s.15-.7.16-1.1c0-.4-.08-.86 0-1.24.07-.38.28-.67.24-1.16s-.35-1.2-.63-1.77-.52-1.01-.57-1.48.1-.98.2-1.44.16-.87.07-1.23c-.09-.37-.34-.69-.59-1-.25-.32-.5-.63-.68-.9-.17-.27-.27-.49-.29-.8-.03-.31.01-.72 1.42-.78ZM309.76 349.21h80.63v68.03h-80.63z" class="cls-13"/><path d="M313.16 411.18c.22-1.41 1.06-4.19 1.45-6.47s.33-4.06.06-5.49-.77-2.51-.96-3.35-.08-1.43-.09-2.05-.16-1.26-.34-1.82c-.19-.56-.42-1.03-.58-1.46s-.26-.79-.32-1.2-.09-.86-.1-1.2c0-.34.02-.56.14-.7.11-.14.32-.19.53-.2.2-.01.41.02.75.09.35.07.84.19 1.22.31s.67.23 1.04.36.83.28 1.25.4.8.21 1.35.57 1.25.99 2.48 1.03 2.97-.5 4.06-.74 1.53-.17 1.91-.13.7.06 1-.02.57-.25 1.17-.37 1.51-.18 2.04-.31.68-.33.94-.54.63-.44.88-.7.38-.57.63-.76c.26-.19.64-.25.84-.16.2.1.2.36.23.62.02.26.06.52.02 1.13s-.16 1.56-.28 2.34-.23 1.38-.54 1.93-.83 1.03-1.06 1.83-.18 1.92-.03 2.74c.15.83.4 1.36.57 2.17.17.8.26 1.88.45 2.75.19.88.49 1.55.55 2.22s-.13 1.32-.24 2.12c-.11.79-.15 1.72-.17 2.4s-.02 1.1-.03 1.83c0 .73-.02 1.75-.26 2.2-.24.44-.7.3-1.01.13s-.48-.37-.72-.67c-.25-.29-.57-.68-.94-1.06s-.78-.74-1.21-.92-.9-.15-1.39-.16-1-.04-1.46-.07c-.45-.02-.85-.03-1.21.05s-.7.24-1.1.37-.86.21-1.24.14-.67-.28-1.16-.24-1.2.35-1.77.48-1.01.09-1.48 0-.98-.24-1.44-.35-.87-.16-1.23.07c-.36.24-.68.77-1 1.16s-.63.65-.9.82-.49.26-.8.29-.72-.01-.5-1.42ZM498.21 345.64h80.63v68.03h-80.63z" class="cls-13"/><path d="M501.05 376.18c-.06-1.41.21-4.19.32-6.47s.05-4.06.05-5.49.08-2.51.18-3.35c.09-.84.2-1.43.19-2.05s-.16-1.26-.34-1.82-.42-1.03-.58-1.46c-.16-.42-.26-.79-.32-1.2s-.09-.86-.1-1.2.02-.56.13-.7c.12-.14.32-.19.53-.2s.41.02.75.09.84.19 1.22.31c.39.12.67.23 1.04.36s.83.28 1.26.4c.42.12.8.21 1.34.2.54 0 1.25-.11 2.48-.07 1.22.04 2.97.23 4.06.35 1.09.13 1.53.19 1.91.23s.7.05 1-.02.57-.25 1.17-.37 1.51-.18 2.05-.31c.53-.13.68-.33.94-.54s.63-.43.88-.7.38-.57.63-.76c.26-.19.64-.25.84-.16.2.1.2.36.23.62.02.26.06.52.02 1.13s-.16 1.56-.28 2.34-.23 1.38-.32 1.93-.18 1.03-.29 1.83-.24 1.92-.31 2.75-.07 1.36-.02 2.17c.04.8.13 1.88.33 2.75.19.87.49 1.55.55 2.22.05.67-.13 1.32-.24 2.12s-.15 1.72-.17 2.4-.02 1.1-.03 1.83c0 .73-.02 1.75-.26 2.2s-.7.3-1.01.13-.48-.37-.72-.67c-.25-.3-.57-.68-.94-.91s-.78-.29-1.21-.34c-.43-.04-.9-.06-1.39-.08-.49-.03-1-.06-1.46-.09-.45-.02-.85-.03-1.21-.08s-.7-.15-1.1-.16c-.4 0-.86.07-1.24 0s-.67-.28-1.16-.24-1.2.35-1.77.63-1.01.52-1.48.57-.98-.1-1.44-.2-.87-.16-1.23-.07-.69.34-1 .59c-.32.25-.63.5-.9.68-.27.17-.49.27-.8.29-.31.03-.72-.01-.78-1.42ZM172.78 78.51h107.2v27.21h-107.2z" class="cls-13"/><circle cx="666.74" cy="167.23" r="6.67" class="cls-13"/><path d="m519.28 212.19-5.53-10.31M499.22 210c.64 3.75 2.49 7.2 5.26 9.81M495.38 210.66c.79 4.59 3.04 8.8 6.43 11.99M501.81 222.65c.78.74 2.02.7 2.76-.08s.7-2.02-.08-2.76" class="cls-13"/><path d="M505.04 221.7c.73.38 1.36.45 2.15.22M518.61 215.8c1.04-.9 1.32-2.39.67-3.6" class="cls-13"/><path d="M507.15 221.93c4.4-1.21 8.05-3.17 11.49-6.16M499.22 210a1.94 1.94 0 0 0-2.25-1.59 1.95 1.95 0 0 0-1.59 2.25" class="cls-13"/><path d="M498.96 206.58c-.62.53-.92 1.1-1 1.92M513.75 201.88a2.925 2.925 0 0 0-3.37-1.43" class="cls-13"/><path d="M510.42 200.44c-4.4 1.21-8.05 3.17-11.49 6.16M510.43 316.49c3.68 0 6.67-2.99 6.67-6.67s-2.99-6.67-6.67-6.67-6.67 2.99-6.67 6.67 2.99 6.67 6.67 6.67M605.88 50.7h10.89v10.89h-10.89zM397.586 358.223l23.54-3.157 6.25 46.602-23.538 3.158z" class="cls-13"/><path d="M398.01 358.19c-.1-.75.48-2.09-.77-2.32M399.42 358.36c.64-.9.27-1.25.25-1.53s.3-.5.35-.73-.17-.48-.19-.64M401.12 357.8c.37-.38.34-.6.3-.92-.04-.31-.1-.72.82-1.15M403.08 357.51c-.1-.75.48-2.09-.78-2.32M404.49 357.67c.64-.9.27-1.25.25-1.53s.3-.5.35-.73-.17-.48-.2-.64M406.23 357.11c.37-.38.34-.6.3-.92-.04-.31-.1-.72.81-1.15M408.43 356.8c-.1-.75.48-2.09-.77-2.32M409.84 356.96c.64-.9.27-1.25.25-1.53s.3-.5.35-.73-.17-.48-.19-.64M411.41 356.42c.37-.38.34-.6.3-.92-.04-.31-.1-.72.82-1.15M413.66 356.09c-.1-.75.48-2.09-.77-2.32M415.08 356.25c.64-.9.27-1.25.25-1.53s.3-.5.35-.73-.17-.48-.19-.64M416.42 355.75c.37-.38.34-.6.3-.92s-.1-.72.81-1.15M418.67 355.42c-.1-.75.48-2.09-.77-2.32M420.09 355.58c.64-.9.27-1.25.25-1.53s.3-.5.35-.73-.17-.48-.19-.64M404.76 404.61c-.64.9-.27 1.25-.25 1.53s-.3.5-.35.73.17.48.19.64M406.17 404.77c.1.75-.48 2.09.77 2.32M408.43 404.44c-.37.38-.34.6-.3.92s.1.72-.81 1.15M409.77 403.93c-.64.9-.27 1.25-.25 1.53s-.3.5-.35.73.17.48.19.64M411.18 404.09c.1.75-.48 2.09.77 2.32M413.44 403.77c-.37.38-.34.6-.3.92.04.31.1.72-.82 1.15M415.01 403.23c-.64.9-.27 1.25-.25 1.53s-.3.5-.35.73.17.48.19.64M416.42 403.39c.1.75-.48 2.09.77 2.32M418.61 403.07c-.37.38-.34.6-.3.92s.1.72-.81 1.15M420.35 402.51c-.64.9-.27 1.25-.25 1.53s-.3.5-.35.73.17.48.2.64M421.76 402.67c.1.75-.48 2.09.77 2.32M423.73 402.39c-.37.38-.34.6-.3.92s.1.72-.82 1.15M425.42 401.83c-.64.9-.27 1.25-.25 1.53s-.3.5-.35.73.17.48.19.64M426.83 401.99c.1.75-.48 2.09.77 2.32M61.26 345.93H48.5v12.75h12.76zM150.27 346.03h-12.76v12.75h12.76zM73.53 363.88h-6.98M104.34 363.88H95.2M134.58 363.88h-7.91M72.61 346.78c1.41.22 4.19 1.06 6.47 1.45s4.06.33 5.49.06c1.43-.28 2.51-.77 3.35-.96s1.43-.08 2.05-.09 1.26-.16 1.82-.34 1.04-.42 1.46-.58.79-.26 1.2-.32.86-.09 1.2-.1c.34 0 .56.02.7.13s.19.32.2.53-.02.41-.09.75-.19.84-.31 1.22c-.11.39-.23.67-.36 1.04s-.28.83-.4 1.26c-.12.42-.21.8-.57 1.34s-.99 1.25-1.03 2.48c-.04 1.22.5 2.97.74 4.06s.17 1.53.13 1.91-.06.7.02 1 .25.57.36 1.17c.12.6.18 1.51.31 2.05.13.53.33.68.54.94s.44.63.7.88.57.38.76.63c.19.26.25.64.16.84-.1.2-.36.2-.62.23-.26.02-.52.06-1.13.02s-1.56-.16-2.34-.28-1.38-.23-1.93-.54c-.54-.31-1.03-.83-1.83-1.06s-1.92-.18-2.74-.03c-.83.15-1.36.4-2.17.57-.8.17-1.88.26-2.75.45s-1.55.49-2.22.55-1.32-.13-2.12-.24-1.72-.15-2.4-.17-1.1-.02-1.83-.03c-.73 0-1.75-.02-2.2-.26-.44-.24-.3-.7-.13-1.01s.37-.48.67-.72.68-.57 1.06-.94.74-.78.91-1.21.15-.9.16-1.39.04-1 .07-1.46c.02-.45.03-.85-.05-1.21s-.24-.7-.37-1.1c-.12-.4-.21-.86-.14-1.24s.28-.67.24-1.16-.35-1.2-.48-1.77-.09-1.01 0-1.48c.1-.47.24-.98.35-1.44.1-.46.16-.87-.07-1.23s-.77-.69-1.16-1c-.39-.32-.65-.63-.82-.9s-.26-.49-.29-.8.01-.72 1.42-.5Z" class="cls-13"/><path d="M92.51 362.02c-.31.62-.63.97-.81 1.32-.17.34-.19.68.06 1.33M79.13 365.89c-1.25-.77-.65-1.54-.81-2.75M85.76 348.92c1.54 1.33 1.21 2.42.89 3.15M124.06 362.02c-.31.62-.63.97-.81 1.32-.17.34-.19.68.06 1.33M110.68 365.89c-1.25-.77-.65-1.54-.81-2.75M117.31 348.92c1.54 1.33 1.21 2.42.89 3.15M134.58 373.68H66.55" class="cls-13"/><circle cx="322.53" cy="310.86" r="6.67" class="cls-13"/><path d="M322.53 315.4c2.51 0 4.55-2.04 4.55-4.55s-2.04-4.55-4.55-4.55-4.55 2.04-4.55 4.55 2.04 4.55 4.55 4.55M471.04 442.05h7.69M467.95 440.01l-6.64-2.1M471.04 442.05l5.53 2.88M469.44 442.22l-6.63 1.55M468 432.54l1.66 7.19M474.19 436.25l-3.76.01M475.69 441.89l-.39-3.98M474.53 446.36l-2.82.78M468.28 448.63l-2.11-1.36M462.75 438.9l.17 3.76M467.12 434.48l-2.05 1.66M470.99 440.06l.88-7.35M471.04 442.05l7.14-2.93M469.44 442.22l4.92 7.52M469.44 442.22l-4.26 6.58M469.27 441.22l-8.51.28M470.16 441.22l-5.47-7.52M472.15 445.37a4.33 4.33 0 0 0 1.94-5.8c-1.07-2.14-3.67-3-5.81-1.94s-3 3.67-1.93 5.81 3.67 3 5.8 1.93M340.06 349.21v68.03M312.59 379.75c-.06-1.41.21-4.19.32-6.47s.05-4.06.06-5.49c0-1.43.08-2.51.18-3.35s.2-1.43.19-2.05-.16-1.26-.34-1.82c-.19-.56-.42-1.04-.58-1.46s-.26-.79-.32-1.2-.09-.86-.1-1.2c0-.34.02-.56.13-.7s.32-.19.53-.2.41.02.75.09c.35.07.84.19 1.22.31.39.11.67.23 1.04.36s.83.28 1.26.4c.42.12.8.21 1.34.2.54 0 1.25-.11 2.48-.07 1.22.04 2.97.23 4.06.35s1.53.19 1.91.23.7.06 1-.02.57-.25 1.17-.36c.6-.12 1.51-.18 2.04-.31s.68-.33.94-.54.63-.44.88-.7.38-.57.63-.76c.26-.19.64-.25.84-.16.2.1.2.36.23.62.02.26.06.52.02 1.13s-.16 1.56-.28 2.34-.23 1.38-.32 1.93c-.1.54-.18 1.03-.29 1.83s-.24 1.92-.31 2.74c-.07.83-.07 1.36-.02 2.17.04.8.13 1.88.33 2.75s.49 1.55.55 2.22-.13 1.32-.24 2.12c-.11.79-.15 1.72-.17 2.4s-.02 1.1-.03 1.83c0 .73-.02 1.75-.26 2.2-.24.44-.7.3-1.01.13s-.48-.37-.72-.67-.57-.68-.94-.91-.78-.29-1.21-.34-.9-.06-1.39-.08c-.49-.03-1-.06-1.46-.09-.45-.02-.85-.03-1.21-.08-.37-.05-.7-.15-1.1-.16-.4 0-.86.07-1.24 0s-.67-.28-1.16-.24-1.2.35-1.77.63-1.01.52-1.48.57-.98-.1-1.44-.2-.87-.16-1.23-.07c-.37.09-.69.34-1 .59-.32.25-.63.5-.9.68-.27.17-.49.26-.8.29s-.72-.01-.78-1.42Z" class="cls-13"/><path d="M315.3 366.48c1.33-1.54 2.42-1.21 3.15-.89M332.27 373.11c-.77 1.25-1.54.65-2.75.81M328.4 359.73c.62.31.97.63 1.32.81.34.17.68.19 1.33-.06M315.3 398.03c1.33-1.54 2.42-1.21 3.15-.89M332.27 404.66c-.77 1.25-1.54.65-2.75.81M328.4 391.28c.62.31.97.63 1.32.81.34.17.68.19 1.33-.06M330.26 349.21v7.91M330.26 379.45v9.13M330.26 410.26v6.98M649.65 431.85a6.655 6.655 0 0 0 .76 8.49M656.49 429.13c-1.43-.3-2.66-.18-4 .4M655.49 442.29c.6-.03 1.16-.14 1.73-.33M660.72 439.25c.11-.18.22-.35.31-.54M661.76 435.13c-.13-1.63-.67-2.86-1.79-4.05" class="cls-13"/><path d="M653.49 437.9c-.23 0-.46-.08-.69-.19-.5-.25-1-.7-1.52-1.18-.52-.47-1.06-.96-1.36-1.65s-.38-1.6-.32-2.43.24-1.59.33-2.19.09-1.04.32-1.59.68-1.21 1.65 0c.93 1.16 2.33 4.01 2.88 5.9" class="cls-13"/><path d="M655.11 433.7c-.47 1.31-1.02 2.34-1.33 3.21-.32.87-.41 1.57-.38 1.93s.18.38.69.27c.52-.12 1.41-.37 2.25-1.02s1.64-1.68 2.31-3 1.22-2.92 1.34-4.28-.17-2.48-.71-3.01-1.34-.46-1.86-.12c-.53.33-.79.94-1.12 2.03s-.72 2.68-1.2 3.99Z" class="cls-13"/><path d="m653.99 436.37-.06-.03c-.91-.45-2.09-.45-2.68.26s-.59 2.13-.77 3.32-.53 2.15-.63 2.94.04 1.41.44 1.49 1.04-.38 1.93-.63c.88-.24 2.01-.27 2.6-.57.6-.3.66-.88.86-1.52.19-.65.51-1.36.6-1.88.09-.49-.03-.8-.37-1.36M658.63 435.14c.59.06 1.36.19 2.13.14 1.33-.08 2.64-.73 3.71-1.25s1.91-.9 2.64-1 1.35.1 1.63.65c.27.56.19 1.47-.09 2.23-.28.75-.77 1.34-1.46 1.83s-1.59.87-2.22 1.05-.99.14-1.58.1-1.41-.08-2.09-.16c-.68-.07-1.22-.18-1.64-.31s-.71-.29-1.18-.96c-.2-.29-.43-.67-.61-1.04M656.62 437.72c-.61.09-.12 1.09.16 1.75.28.65.36.95.42 2.06.06 1.12.09 3.05.32 4.48s.65 2.35 1.26 2.77c.61.43 1.42.36 2.12.33s1.3-.02 1.92-.15c.61-.14 1.24-.42 1.55-.78.32-.36.33-.79.32-1.26 0-.48-.03-1-.33-1.74s-.88-1.71-1.25-2.64-.53-1.84-.91-2.38c-.38-.53-.98-.69-2.13-1.19s-2.85-1.34-3.46-1.25ZM496.75 61.02h-10.32M524.7 61.02h-6.49M524.15 70.99h-38.27M516.2 62.41c-.31.62-.63.97-.81 1.32-.17.34-.19.68.06 1.33M502.82 66.28c-1.25-.77-.65-1.54-.81-2.75M509.45 49.31c1.54 1.33 1.21 2.42.89 3.15M658.15 187.89v-10.31M658.15 215.85v-6.5M648.18 215.29v-38.26M656.76 207.35c-.62-.31-.97-.63-1.32-.81-.34-.17-.68-.19-1.33.06M652.89 193.97c.77-1.25 1.54-.65 2.75-.81M669.86 200.59c-1.33 1.54-2.42 1.21-3.15.89M479.24 310.84v1.31M477.36 370.26c1.14.76 2.06-1.18.76-1.59M477.36 370.26c-4.73-2.98-10.99-1.38-13.71 3.51M462.45 372.58c-.89.8.42 2.08 1.2 1.18" class="cls-13"/><path d="M478.12 368.67c-5.55-1.46-11.46.02-15.67 3.91M477.36 385.72c1.14.76 2.06-1.18.76-1.59M477.36 385.72c-4.73-2.98-10.99-1.38-13.71 3.51M462.45 388.05c-.89.8.42 2.08 1.2 1.18" class="cls-13"/><path d="M478.12 384.14c-5.55-1.46-11.46.02-15.67 3.91M477.86 381.62c1.16.73 2.04-1.23.72-1.61" class="cls-13"/><path d="M477.86 381.62c-4.8-2.86-11.02-1.11-13.62 3.84M463.01 384.31c-.87.82.47 2.07 1.23 1.15" class="cls-13"/><path d="M478.58 380.02a16.82 16.82 0 0 0-15.57 4.29M476.88 397.2c.65 1.21 2.38-.07 1.42-1.05M476.88 397.2c-2.77-4.86-9.05-6.39-13.75-3.35M462.63 392.24c-1.16.29-.61 2.03.5 1.61" class="cls-13"/><path d="M478.3 396.16a16.83 16.83 0 0 0-15.67-3.92M477.25 379.03c.92 1.01 2.29-.65 1.12-1.36M477.25 379.03c-3.87-4.04-10.33-4-14.15.08M462.22 377.67c-1.05.56-.1 2.12.88 1.44" class="cls-13"/><path d="M478.37 377.67a16.79 16.79 0 0 0-16.15 0M479.83 309.82v14.46M479.83 309.82v-11.05M477.25 363.56c.92 1.01 2.29-.65 1.12-1.36M477.25 363.56c-3.87-4.04-10.33-4-14.15.08M462.22 362.21c-1.05.56-.1 2.12.88 1.44" class="cls-13"/><path d="M478.37 362.21a16.79 16.79 0 0 0-16.15 0M477.86 366.16c1.16.73 2.04-1.23.72-1.61M477.86 366.16c-4.8-2.86-11.02-1.11-13.62 3.84M463.01 368.84c-.87.82.47 2.07 1.23 1.15" class="cls-13"/><path d="M478.58 364.55a16.82 16.82 0 0 0-15.57 4.29M470.81 351.23v59.31M469.82 410.54v-59.31M424.6 298.77h55.23M630.69 343.64c.75.34 1.39.37 2.16.1" class="cls-13"/><path d="M627.52 344.78c.83.69 2.06.58 2.75-.24.69-.83.58-2.06-.24-2.75M620.4 333.19c1.05 4.53 3.55 8.6 7.12 11.59M624.2 332.31c.86 3.71 2.91 7.04 5.83 9.48M627.22 325.99c-1.25.89-2.41 1.86-3.5 2.94M632.82 343.75c2.6-.88 4.95-2.06 7.21-3.61M518.71 406.69v6.98M518.71 375.88v9.13M518.71 345.64v7.91M501.62 407.6c.22-1.41 1.06-4.19 1.45-6.47s.33-4.06.05-5.49c-.27-1.43-.77-2.51-.96-3.35s-.08-1.43-.09-2.05-.16-1.26-.34-1.82-.42-1.04-.58-1.46-.26-.79-.32-1.2-.09-.86-.1-1.2c0-.34.02-.56.13-.7.12-.14.32-.19.53-.2s.41.02.75.09.84.19 1.22.31c.39.12.67.23 1.04.36s.83.28 1.26.4c.42.12.8.21 1.34.57s1.25.99 2.48 1.03c1.22.04 2.97-.5 4.06-.74s1.53-.17 1.91-.13.7.06 1-.02.57-.25 1.17-.37c.6-.11 1.51-.18 2.04-.3.53-.13.68-.33.94-.54s.63-.44.88-.7.38-.57.63-.76c.26-.19.64-.25.84-.16.2.1.2.36.23.62.02.26.06.52.02 1.13s-.16 1.56-.28 2.34-.23 1.38-.54 1.93c-.31.54-.83 1.03-1.06 1.83s-.18 1.92-.03 2.75.4 1.36.57 2.17c.17.8.26 1.88.45 2.75s.49 1.55.55 2.22-.13 1.32-.24 2.12-.15 1.72-.17 2.4-.02 1.1-.03 1.83c0 .73-.02 1.75-.26 2.2s-.7.3-1.01.13-.48-.37-.72-.67-.57-.68-.94-1.06-.78-.74-1.21-.91-.9-.15-1.39-.16c-.49 0-1-.05-1.46-.07-.45-.02-.85-.03-1.21.05s-.7.24-1.1.37c-.4.12-.86.2-1.24.14-.38-.07-.67-.28-1.16-.24s-1.2.35-1.77.48-1.01.09-1.48 0c-.47-.1-.98-.24-1.44-.35s-.87-.16-1.23.07c-.37.24-.69.77-1 1.16-.32.39-.63.65-.9.82s-.49.27-.8.29c-.31.03-.72-.01-.5-1.42Z" class="cls-13"/><path d="M516.86 387.7c.62.31.97.63 1.32.81.34.17.68.19 1.33-.06M520.72 401.09c-.77 1.25-1.54.65-2.75.81M503.76 394.46c1.33-1.54 2.42-1.21 3.15-.89M516.86 356.15c.62.31.97.63 1.32.81.34.17.68.19 1.33-.06M520.73 369.54c-.77 1.25-1.54.65-2.75.81M503.76 362.91c1.33-1.54 2.42-1.21 3.15-.89M528.52 345.64v68.03M346.16 215.36c-.65.86-.49 2.08.36 2.74s2.08.49 2.74-.37.49-2.08-.37-2.74-2.08-.49-2.74.37ZM343.51 213.17l-17.23-19.98M340.32 215.08l-17.69-.91M345.88 210.29l1.68-17.64M319.78 223.11h20.73v2.91h-20.73zM305.73 147.8h1.85v78.22h-1.85z" class="cls-13"/><path d="m307.43 147.99.15 78 45.12.07-.15-78zM248.09 87.99c0-.54-.44-.98-.98-.98s-.98.44-.98.98.44.98.98.98.98-.44.98-.98M252.93 99.53c1.27-.56 2.3-1.31 3.22-2.36M247.11 100.75c2.07 0 3.93-.39 5.82-1.22M241.29 99.53c1.89.83 3.75 1.22 5.82 1.22M238.08 97.17c.92 1.05 1.94 1.8 3.22 2.36M236.27 92.35c0 1.93.54 3.37 1.81 4.82M238.08 87.53c-1.27 1.45-1.81 2.89-1.81 4.82M241.29 85.17c-1.27.56-2.3 1.31-3.22 2.36M247.11 83.95c-2.07 0-3.93.39-5.82 1.22M252.93 85.17c-1.89-.83-3.75-1.22-5.82-1.22M256.14 87.53a8.85 8.85 0 0 0-3.22-2.36M257.95 92.35c0-1.93-.54-3.37-1.81-4.82M256.14 97.17c1.27-1.45 1.81-2.89 1.81-4.82M247.11 85.23c-1.88 0-3.58.36-5.3 1.11M241.81 86.34c-1.1.48-1.98 1.13-2.77 2.03M239.04 88.37c-1.05 1.2-1.49 2.38-1.49 3.98M237.54 92.35c0 1.59.45 2.78 1.49 3.98M239.04 96.33c.79.9 1.67 1.55 2.77 2.03M241.81 98.36c1.72.76 3.42 1.11 5.3 1.11M256.68 92.35c0-1.59-.45-2.78-1.49-3.98M255.18 88.37c-.79-.9-1.67-1.55-2.77-2.03M252.42 86.34c-1.72-.76-3.42-1.11-5.3-1.11M252.42 98.36c1.1-.48 1.98-1.13 2.77-2.03M255.18 96.33c1.05-1.2 1.49-2.39 1.49-3.98M247.11 99.47c1.88 0 3.58-.36 5.3-1.11M666.74 171.78c2.51 0 4.55-2.04 4.55-4.55s-2.04-4.55-4.55-4.55-4.55 2.04-4.55 4.55 2.04 4.55 4.55 4.55M631.68 61.02h-10.31M659.63 61.02h-6.49M659.08 70.99h-38.27M651.14 62.41c-.31.62-.63.97-.81 1.32-.17.34-.19.68.06 1.33M637.76 66.28c-1.25-.77-.65-1.54-.81-2.75M644.38 49.31c1.54 1.33 1.21 2.42.89 3.15M545.78 43.22h55.17v8.49h-55.17zM140.02 191.94c-.32-.09-.64-.17-.96-.23M139.06 191.71c-2.82-.72-5.27-.59-8 .42M131.06 192.14c-1.96.64-3.44 1.64-4.76 3.23M126.3 195.36a8.7 8.7 0 0 0-2.23 5.82M144.44 201.18c0-3.47-2.5-6.44-5.91-7.03M138.53 194.15c-2.34-.62-4.38-.51-6.65.34M131.88 194.49c-1.53.49-2.67 1.26-3.69 2.5M128.19 196.99c-.2.22-.38.45-.55.7M138.53 208.22c3.42-.6 5.91-3.56 5.91-7.03M131.88 207.87c2.27.85 4.31.96 6.65.34M128.19 205.37c1.02 1.24 2.16 2.01 3.69 2.5M127.64 204.68c.17.25.35.48.55.7M139.06 210.65c.32-.06.64-.14.96-.23M131.06 210.23c2.73 1.01 5.18 1.14 8 .42M126.3 207c1.32 1.59 2.79 2.59 4.76 3.23M124.07 201.18c0 2.15.79 4.22 2.23 5.82M126.95 202.15v-.97M126.95 202.15c0 .93.21 1.72.68 2.52M138.05 201.18a2.01 2.01 0 0 0 4.02 0" class="cls-13"/><path d="M140.38 201.4c.03-.07.04-.14.05-.22M140.43 201.18c0-.08-.02-.15-.05-.22M138.49 202.43c.2.25.38.28.65.12" class="cls-13"/><path d="M139.14 202.55c.56-.26.94-.61 1.24-1.15M147.61 206.01v-4.83M147.69 208.32l-.08-2.31M147.69 208.32c.04.77.22 1.46.57 2.15M148.26 210.47c.39.95.83 1.87 1.35 2.76M149.61 213.23c.25.51.56.71 1.13.71M158.74 201.18v12.1M158.09 213.94c.36 0 .66-.29.66-.66M158.09 213.94h-7.35M147.69 208.17l-7.67 2.25M127.64 197.69c-.47.8-.68 1.59-.68 2.52M139.14 199.81c-.27-.16-.46-.13-.65.12M150.74 188.43c-.57 0-.88.2-1.13.71M149.61 189.13q-.765 1.335-1.35 2.76M148.26 191.9c-.35.69-.53 1.38-.57 2.15M147.69 194.05l-.08 2.31M158.74 189.08a.66.66 0 0 0-.66-.66M158.09 188.43h-7.35M147.69 194.2l-7.67-2.26M158.74 201.18v-12.1M147.61 196.36v4.82" class="cls-13"/><path d="M142.08 201.18a2.01 2.01 0 0 0-4.02 0" class="cls-13"/><path d="M140.38 200.97c-.3-.54-.68-.89-1.24-1.15M126.95 200.21v.97M59.72 324.67l-.28-13.65M59.02 318.29v-.9M58.68 318.29v-.9M58.28 318.29v-.9M57.49 318.29v-.9M56.41 318.29v-.9M55.95 318.29v-.9M59.39 308.89c-.15 0-.2.42-.21.5-.03.19-.03.38-.03.57s.02.38.05.57c.01.09.08.5.23.49.15 0 .2-.42.21-.5.03-.19.03-.38.03-.57s-.02-.38-.05-.57c-.01-.08-.08-.5-.23-.49M59.72 324.67c-.15 0-.2.42-.21.5q-.03.285-.03.57c0 .285.02.38.05.57.01.08.08.5.23.49s.2-.42.21-.5q.03-.285.03-.57c0-.19-.02-.38-.05-.57-.01-.08-.08-.5-.23-.49M99.2 324.67c-.19-.04-.34.3-.39.42-.08.19-.13.38-.17.58s-.06.4-.05.6c0 .13.02.49.22.53.19.04.34-.3.39-.42.08-.19.13-.38.17-.58s.06-.4.05-.6c0-.13-.02-.49-.21-.53ZM111.38 324.67l-2.35-13.65M103.9 318.29v-.9M103.44 318.29v-.9M110.66 318.29v-.9M110.19 318.29v-.9M107.47 318.29v-.9M107.16 318.29v-.9M118.15 324.67l1.5-13.65M119.12 318.29v-.9M118.89 318.29v-.9M119.9 318.29v-.9M120.52 318.29v-.9M120.29 318.29v-.9M118.74 318.29v-.9M117.49 318.29v-.9M117.1 318.29v-.9M116.87 318.29v-.9M101.74 311.02l-2.54 13.65M103.69 311.02l-1.88 13.65M119.89 308.89c-.16-.02-.27.37-.3.46a3.8 3.8 0 0 0-.13 1.15c0 .1.03.5.19.52.17.02.27-.37.3-.46a3.8 3.8 0 0 0 .13-1.15c0-.1-.03-.5-.19-.52M102.14 308.89c-.18-.03-.33.31-.37.43-.08.19-.13.38-.16.57-.04.2-.06.39-.05.6 0 .12.01.5.2.53s.33-.31.37-.42c.08-.19.13-.38.17-.57s.06-.39.05-.6c0-.12-.01-.5-.2-.53ZM103.98 308.89c-.16-.02-.28.36-.31.46-.06.19-.1.37-.12.57-.03.19-.04.38-.03.58 0 .1.01.5.18.52.16.02.28-.36.31-.46.06-.19.1-.37.13-.57.03-.19.04-.38.03-.58 0-.1-.01-.5-.18-.52ZM108.67 308.89c-.17.03-.18.42-.18.53 0 .2.02.39.05.59a3 3 0 0 0 .15.57c.04.1.17.47.34.44s.18-.42.18-.53c0-.2-.02-.39-.05-.59s-.08-.38-.15-.57c-.04-.1-.17-.47-.34-.44M111.38 324.67c-.17.03-.18.42-.18.53 0 .2.02.39.05.59a3 3 0 0 0 .15.57c.04.1.17.47.34.44s.18-.42.18-.53c0-.2-.02-.39-.05-.59s-.08-.38-.15-.57c-.04-.1-.17-.47-.34-.44M120.15 324.67c-.18-.05-.36.29-.42.4-.1.18-.17.37-.23.57s-.1.39-.12.6c-.01.12-.04.51.14.56s.36-.29.42-.4c.1-.18.17-.37.23-.57s.1-.39.12-.6c.01-.12.04-.51-.14-.56M118.17 324.67c-.16-.02-.27.37-.3.46a3.8 3.8 0 0 0-.13 1.15c0 .1.03.5.19.52s.27-.37.3-.46a3.8 3.8 0 0 0 .13-1.15c0-.1-.03-.5-.19-.52M101.81 324.67c-.19-.03-.32.31-.37.43-.07.19-.12.38-.14.58-.03.2-.04.4-.02.6.01.13.05.49.24.51.19.03.32-.31.37-.43.07-.19.12-.38.14-.58.03-.2.04-.4.02-.6-.01-.13-.05-.49-.24-.51M92.04 311.02l.84 13.65M84.5 311.02l1.5 13.65M89.07 311.02v13.65M83.63 318.29v-.9M83.25 318.29v-.9M80.25 318.29v-.9M82.81 318.29v-.9M82.3 318.29v-.9M81.92 318.29v-.9M92.33 318.29v-.9M91.86 318.29v-.9M91.4 318.29v-.9M93.8 318.29v-.9M86.48 318.29v-.9M85.91 318.29v-.9M86.38 318.29v-.9M87.04 318.29v-.9M87.52 318.29v-.9M85.62 318.29v-.9M90.93 318.29v-.9M90.7 318.29v-.9M77.69 311.02l-4.98 13.65M72.01 311.02l-3.48 13.65M66.06 324.67l1.56-13.65M74.26 311.02l-4.04 13.65M64.42 324.67l-.94-13.65M60.1 318.29v-.9M61.07 318.29v-.9M60.84 318.29v-.9M68.24 318.29v-.9M68.64 318.29v-.9M69.04 318.29v-.9M69.55 318.29v-.9M69.89 318.29v-.9M80.19 311.02l-4.8 13.65M91.9 308.89c-.18.01-.22.39-.24.5-.03.2-.03.39-.02.58.01.2.04.39.09.58.03.11.12.48.3.47s.23-.39.24-.5c.03-.19.03-.39.02-.58-.01-.2-.04-.39-.09-.58-.03-.11-.12-.48-.3-.47M89.07 308.89c-.18 0-.25.37-.27.48-.04.19-.05.38-.05.58s.01.39.05.58c.02.11.09.48.27.48s.25-.37.27-.48c.04-.19.05-.38.05-.58s-.01-.39-.05-.58c-.02-.11-.09-.48-.27-.48M74.89 308.89c-.13-.04-.3.38-.33.45-.08.18-.14.36-.2.55s-.1.38-.13.57c-.01.07-.09.52.03.56.13.04.3-.38.33-.45.08-.18.14-.36.2-.55s.1-.37.13-.57c.01-.07.09-.52-.03-.56M84.26 308.89c-.18.02-.2.4-.21.51-.02.2-.01.39.01.59s.06.39.12.57c.03.11.15.47.32.45s.21-.4.22-.51c.02-.2 0-.39-.01-.59q-.03-.3-.12-.57c-.03-.11-.15-.47-.32-.45ZM78.47 308.89c-.14-.05-.34.36-.38.43-.09.18-.17.36-.24.55s-.13.38-.17.57c-.02.08-.12.52.01.57.14.05.34-.36.38-.43.09-.18.17-.36.24-.55s.13-.38.17-.57c.02-.08.12-.52-.01-.57M80.93 308.89c-.12-.04-.32.39-.35.45-.09.18-.16.36-.22.54s-.12.37-.17.56c-.01.06-.13.53-.01.57.11.04.32-.39.35-.45.08-.18.16-.36.22-.54.06-.19.12-.37.17-.56.01-.07.13-.53.01-.57M63.34 308.89c-.12 0-.14.45-.14.52v.56c.01.19.03.37.07.55.01.07.09.5.21.49.12 0 .14-.45.14-.52v-.56c-.01-.19-.03-.37-.07-.55-.01-.07-.09-.5-.21-.49M67.87 308.89c-.14-.02-.24.4-.27.48-.05.18-.08.37-.1.56q-.03.285-.03.57c0 .08 0 .51.15.52.14.02.24-.39.26-.48.05-.18.08-.37.1-.56s.03-.38.03-.57c0-.08 0-.51-.15-.52ZM72.55 308.89c-.14-.04-.3.37-.33.45-.07.18-.13.37-.18.55-.05.19-.08.38-.11.57 0 .08-.06.52.08.55s.3-.37.33-.45c.07-.18.13-.36.18-.55s.08-.38.11-.57c0-.08.06-.52-.08-.55M86 324.67c-.19.02-.23.38-.25.51q-.03.3 0 .6c.03.3.06.39.12.58.04.12.16.46.35.44s.23-.38.25-.51q.03-.3 0-.6c-.02-.2-.06-.39-.12-.58-.04-.12-.16-.46-.35-.44M89.07 324.67c-.19 0-.28.35-.3.47a3 3 0 0 0 0 1.18c.03.12.11.47.3.47s.28-.35.3-.47a3 3 0 0 0 0-1.18c-.03-.12-.11-.47-.3-.47M92.88 324.67c-.19.01-.25.37-.27.49-.03.2-.04.39-.03.59s.04.39.1.59c.04.12.14.46.33.45s.25-.37.27-.49c.03-.2.04-.39.02-.59-.01-.2-.04-.39-.1-.59-.04-.12-.14-.47-.33-.45ZM75.39 324.67c-.11-.04-.32.39-.35.45-.09.18-.16.36-.22.54-.07.19-.12.37-.17.56-.01.07-.13.53-.01.57.11.04.32-.39.35-.45a6 6 0 0 0 .39-1.1c.01-.07.13-.53.01-.57M64.42 324.67c-.12 0-.14.45-.14.52v.56c0 .19.03.37.07.55.01.07.09.5.21.49s.14-.45.14-.52v-.56c0-.19-.03-.37-.07-.55-.01-.07-.09-.5-.21-.49M72.71 324.67c-.14-.05-.34.36-.38.43-.09.18-.17.36-.24.55s-.13.38-.17.57c-.02.08-.12.52.01.57s.34-.36.38-.43c.09-.18.17-.36.24-.55s.13-.38.17-.57c.02-.08.12-.52-.01-.57M70.22 324.67c-.13-.04-.3.38-.33.45-.08.18-.14.36-.2.55s-.1.37-.13.57c-.01.07-.09.52.03.56.13.04.3-.38.33-.45.08-.18.14-.36.2-.55s.1-.38.13-.57c.01-.07.09-.52-.03-.56M68.53 324.67c-.14-.04-.3.37-.33.45-.07.18-.13.36-.18.55s-.09.38-.11.57c0 .08-.07.52.08.55.14.04.3-.37.33-.45.07-.18.13-.36.18-.55s.09-.38.11-.57c0-.08.06-.52-.08-.55M66.08 324.67c-.14-.02-.24.4-.27.48-.05.18-.08.37-.1.56s-.03.38-.03.57c0 .08 0 .51.15.52.14.02.24-.4.26-.48.05-.18.08-.37.1-.56s.03-.38.03-.57c0-.08 0-.51-.15-.52ZM137.46 324.67l2.82-13.65M140.8 324.67l1.32-13.65M135.05 324.67l1.6-13.65M128.06 318.29v-.9M127.2 318.29v-.9M129.53 318.29v-.9M128.99 318.29v-.9M128.44 318.29v-.9M129.76 318.29v-.9M133.79 318.29v-.9M134.64 318.29v-.9M135.03 318.29v-.9M144.42 318.29v-.9M144.65 318.29v-.9M136.35 318.29v-.9M135.57 318.29v-.9M136.12 318.29v-.9M145.82 318.29v-.9M145.27 318.29v-.9M146.05 318.29v-.9M124.82 308.89c-.18-.05-.37.29-.42.4-.1.18-.17.37-.23.57s-.1.39-.12.6c-.01.12-.05.51.14.56.18.05.36-.29.42-.4.1-.18.17-.37.23-.57s.1-.39.12-.6c0-.12.04-.51-.14-.56M140.72 308.89c-.17-.03-.31.34-.35.44-.07.18-.13.37-.17.57s-.07.39-.07.58c0 .1-.02.5.15.54s.31-.34.35-.44c.07-.18.13-.37.17-.57.04-.19.07-.39.07-.58 0-.1.02-.5-.15-.54M142.32 308.89c-.18-.02-.29.34-.33.45-.06.19-.09.38-.11.58s-.02.39 0 .59c.01.12.05.49.24.5.18.02.3-.34.33-.45.06-.19.09-.38.11-.58s.02-.39 0-.59c-.01-.12-.05-.49-.24-.51ZM136.9 308.89c-.19-.02-.31.32-.35.44-.07.19-.11.38-.13.58s-.03.4 0 .6c.01.12.05.49.24.51s.31-.32.35-.44c.07-.19.11-.38.13-.58s.03-.39 0-.6c-.01-.12-.05-.49-.24-.51M137.46 324.67c-.17-.03-.31.34-.35.44-.07.18-.13.37-.17.57s-.07.39-.07.58c0 .1-.02.5.15.54s.31-.34.35-.44c.07-.18.13-.37.17-.57s.07-.39.07-.58c0-.1.02-.5-.15-.54M140.8 324.67c-.18-.02-.3.34-.33.45-.06.19-.09.38-.11.58s-.02.39 0 .59c.01.12.05.49.24.51.18.02.29-.34.33-.45.06-.19.09-.38.11-.58s.02-.39 0-.59c-.01-.12-.05-.49-.24-.51M135.08 324.67c-.19-.02-.31.32-.35.44-.07.19-.11.38-.13.58s-.03.4 0 .6c.01.12.05.49.24.51s.31-.32.35-.44c.07-.19.11-.38.13-.58s.03-.4 0-.6c-.01-.12-.05-.49-.24-.51M120.15 324.67l4.04-13.65M55.25 317.39h91.84M55.25 318.29h91.84M184.71 339.16v-40.39M177.516 445.12l4.002-9.066 6.532 2.883-4.002 9.066z" class="cls-13"/><path d="M154.91 430.83h40.86v21.86h-40.86zM186.25 426.3c-.03-.82-.28-1.4-.86-1.98" class="cls-13"/><path d="M183.42 424.36c.94.52 2.13.19 2.65-.76.52-.94.19-2.13-.76-2.65M170.66 421.56c-.75.33-1.2.78-1.52 1.54" class="cls-13"/><path d="M171.94 418.45a1.943 1.943 0 0 0-1.66 2.2 1.943 1.943 0 0 0 2.2 1.66M185.31 420.95a21.46 21.46 0 0 0-13.37-2.5M183.42 424.36a17.6 17.6 0 0 0-10.94-2.05M186.07 430.83c.18-1.52.24-3.04.18-4.57M169.15 423.06c-1.09 2.51-1.8 5.05-2.16 7.77M252.62 431.85a6.655 6.655 0 0 0 .76 8.49M259.45 429.13c-1.43-.3-2.66-.18-4 .4M258.45 442.29c.6-.03 1.16-.14 1.73-.33M263.69 439.25c.11-.18.22-.35.31-.54M264.73 435.13c-.13-1.63-.67-2.86-1.79-4.05" class="cls-13"/><path d="M256.45 437.9c-.23 0-.46-.08-.69-.19-.49-.25-1-.7-1.52-1.18-.52-.47-1.06-.96-1.36-1.65s-.38-1.6-.32-2.43.24-1.59.33-2.19.09-1.04.32-1.59.68-1.21 1.66 0c.93 1.16 2.33 4.01 2.88 5.9" class="cls-13"/><path d="M258.07 433.7c-.47 1.31-1.02 2.34-1.33 3.21-.32.87-.41 1.57-.38 1.93s.18.38.69.27c.52-.12 1.41-.37 2.25-1.02s1.64-1.68 2.31-3 1.22-2.92 1.34-4.28-.17-2.48-.71-3.01-1.34-.46-1.86-.12c-.53.33-.79.94-1.12 2.03s-.72 2.68-1.2 3.99Z" class="cls-13"/><path d="m256.95 436.37-.06-.03c-.91-.45-2.09-.45-2.68.26s-.59 2.13-.77 3.32-.53 2.15-.63 2.94.04 1.41.44 1.49 1.04-.38 1.93-.63c.88-.24 2.01-.27 2.6-.57.6-.3.66-.88.86-1.52.19-.65.51-1.36.6-1.88.09-.49-.03-.8-.37-1.36M261.6 435.14c.59.06 1.36.19 2.13.14 1.33-.08 2.64-.73 3.71-1.25s1.91-.9 2.64-1 1.35.1 1.63.65c.27.56.19 1.47-.09 2.23-.28.75-.77 1.34-1.46 1.83s-1.59.87-2.22 1.05-.99.14-1.58.1-1.41-.08-2.09-.16c-.68-.07-1.22-.18-1.64-.31s-.71-.29-1.18-.96c-.2-.29-.43-.67-.61-1.04M259.58 437.72c-.61.09-.12 1.09.16 1.75.28.65.36.95.42 2.06.06 1.12.09 3.05.32 4.48s.65 2.35 1.26 2.77c.61.43 1.42.36 2.12.33s1.3-.02 1.92-.15c.61-.14 1.24-.42 1.55-.78.32-.36.33-.79.32-1.26s-.03-1-.33-1.74-.88-1.71-1.25-2.64-.53-1.84-.91-2.38c-.38-.53-.98-.69-2.13-1.19s-2.85-1.34-3.46-1.25ZM460.27 147.35h23.58v61.57h-23.58z" class="cls-13"/><path d="m466.247 189.062 11.35-4.393 3.37 8.71-11.349 4.393zM631.917 319.039l9.405-3.122 2.253 6.787-9.406 3.121z" class="cls-13"/><path d="m620.715 318.86 16.202-14.675 27.43 30.284-16.2 14.675zM623.74 328.9c-.59.57-.85 1.15-.89 1.97" class="cls-13"/><path d="M624.2 332.31a1.95 1.95 0 0 0-3.8.88M290.2 358.79h.9M290.2 349.97h.9M290.2 349h.9M283.83 353.32l13.64-.94M297.47 363.16l-13.64-4.04M283.83 354.96l13.64 1.56M297.47 360.9l-13.64-3.48M297.47 366.59l-13.64-4.99M290.2 379.59h.9M290.2 379.82h.9M290.2 374.52h.9M290.2 376.41h.9M290.2 375.94h.9M290.2 375.27h.9M290.2 374.8h.9M290.2 375.37h.9M290.2 382.7h.9M290.2 380.29h.9M290.2 380.76h.9M290.2 381.22h.9M290.2 370.82h.9M290.2 371.2h.9M290.2 371.71h.9M290.2 369.15h.9M290.2 372.14h.9M290.2 372.52h.9M297.47 377.96h-13.64M297.47 373.39l-13.64 1.5M297.47 380.93l-13.64.85M283.83 390.71c.03-.19-.31-.33-.43-.37-.19-.07-.38-.12-.58-.14s-.4-.04-.6-.02c-.13.01-.49.05-.51.24-.03.19.31.33.43.37.19.07.38.12.58.14s.4.04.6.02c.13-.01.49-.05.51-.24M283.83 407.06c.02-.16-.37-.27-.46-.3a3.8 3.8 0 0 0-1.15-.13c-.1 0-.5.03-.52.19-.02.17.37.27.46.3a3.8 3.8 0 0 0 1.15.13c.1 0 .5-.03.52-.19M283.83 409.04c.05-.18-.29-.36-.4-.42-.18-.1-.37-.17-.57-.23s-.39-.1-.6-.12c-.12 0-.51-.04-.56.14s.29.37.4.42c.18.1.37.17.57.23s.39.1.6.12c.12.01.51.05.56-.14M283.83 400.27c-.03-.17-.42-.18-.53-.18-.2 0-.39.02-.59.05s-.38.08-.57.15c-.1.04-.47.17-.44.34s.42.17.53.18c.2 0 .39-.02.59-.05s.38-.08.57-.15c.1-.04.47-.17.44-.34M299.6 397.56c-.03-.17-.42-.18-.53-.18-.2 0-.39.02-.59.05s-.38.08-.57.15c-.1.04-.47.17-.44.34s.42.17.53.18c.2 0 .39-.02.59-.05a3 3 0 0 0 .57-.15c.1-.04.47-.17.44-.34M299.6 392.88c.02-.16-.36-.28-.46-.31-.19-.06-.37-.1-.57-.12s-.38-.04-.58-.03c-.1 0-.5.01-.52.18s.36.28.46.31c.19.06.37.1.57.12.19.03.38.04.58.03.1 0 .5-.01.52-.18M299.6 391.03c.03-.18-.31-.33-.42-.37-.19-.08-.38-.13-.57-.16s-.39-.06-.6-.05c-.12 0-.5.01-.53.2s.31.33.43.37c.19.08.38.13.57.16.2.04.39.06.6.05.12 0 .5-.01.53-.2ZM299.6 408.78c.02-.17-.37-.27-.46-.3a3.8 3.8 0 0 0-1.15-.13c-.1 0-.5.03-.52.19s.37.27.46.3a3.8 3.8 0 0 0 1.15.13c.1 0 .5-.03.52-.19M297.47 392.59l-13.64-1.88M297.47 390.63l-13.64-2.53M290.2 405.77h.9M290.2 406h.9M290.2 406.39h.9M290.2 407.63h.9M290.2 409.18h.9M290.2 409.42h.9M290.2 408.79h.9M290.2 407.79h.9M290.2 408.02h.9M283.83 407.04l13.64 1.51M290.2 396.06h.9M290.2 396.37h.9M290.2 399.09h.9M290.2 399.55h.9M290.2 392.33h.9M290.2 392.8h.9M283.83 400.27l13.64-2.34M283.83 388.1c.04-.19-.3-.34-.42-.39-.19-.08-.38-.13-.58-.17s-.4-.06-.6-.05c-.13 0-.49.02-.53.22-.04.19.3.34.42.39.19.08.38.13.58.17s.4.06.6.05c.13 0 .49-.02.53-.22M283.83 348.61c0-.15-.42-.2-.5-.21-.19-.03-.38-.03-.57-.03s-.38.02-.57.05c-.08.01-.49.08-.49.23s.42.2.5.21c.19.03.38.03.57.03s.38-.02.57-.05c.08-.01.49-.08.49-.23M299.6 348.29c0-.15-.42-.2-.5-.21q-.285-.03-.57-.03c-.285 0-.38.02-.57.05-.08.01-.5.08-.49.23s.42.2.5.21q.285.03.57.03c.19 0 .38-.02.57-.05.09-.01.5-.08.49-.23M290.2 344.84h.9M290.2 345.3h.9M290.2 346.38h.9M290.2 347.18h.9M290.2 347.58h.9M290.2 347.92h.9M283.83 348.61l13.64-.28M297.47 369.08l-13.64-4.79M290.2 434.94h.9M299.6 413.71c.05-.18-.29-.36-.4-.42-.18-.1-.37-.17-.57-.23s-.39-.1-.6-.12c-.12-.01-.51-.04-.56.14s.29.37.4.42c.18.1.37.17.57.23s.39.1.6.12c.12.01.51.04.56-.14M299.6 429.61c.04-.17-.34-.31-.44-.35-.18-.07-.37-.13-.56-.17s-.39-.07-.58-.07c-.1 0-.51-.02-.54.15s.34.31.44.35c.18.07.37.13.57.17s.39.07.58.07c.1 0 .5.02.54-.15ZM299.6 431.22c.02-.18-.34-.3-.45-.33a3 3 0 0 0-.58-.11c-.2-.02-.39-.02-.59 0-.12.01-.49.05-.51.24-.02.18.34.29.45.33.19.06.38.09.58.11s.39.02.59 0c.12-.01.49-.05.5-.24ZM299.6 425.79c.02-.19-.32-.31-.44-.35a2.3 2.3 0 0 0-.58-.13c-.2-.02-.4-.03-.6 0-.12.01-.49.05-.51.24s.32.31.44.35c.19.07.38.11.58.13s.4.03.6 0c.12-.01.49-.05.51-.24M283.83 426.35c.03-.17-.34-.31-.44-.35-.18-.07-.37-.13-.56-.17s-.39-.07-.58-.07c-.1 0-.5-.02-.54.15-.03.17.34.31.44.35.18.07.37.13.56.17s.39.07.58.07c.1 0 .5.02.54-.15M283.83 429.69c.02-.18-.34-.29-.45-.33a3 3 0 0 0-.58-.11c-.2-.02-.39-.02-.59 0-.12.01-.49.05-.51.24-.02.18.34.29.45.33.19.06.38.09.58.11s.39.02.59 0c.12-.01.49-.05.51-.24M283.83 423.97c.02-.19-.32-.31-.44-.35a2.3 2.3 0 0 0-.58-.13c-.2-.02-.4-.03-.6 0-.12.01-.49.05-.51.24s.32.31.44.35c.19.07.38.11.58.13s.4.03.6 0c.12-.01.49-.05.51-.24M281.7 423.7h.01M283.83 409.04l13.64 4.04M278.69 344.15h23.81M278.69 435.99v-91.84M302.5 435.99h-23.81M302.5 344.15v91.84M277.84 343.29h25.51M277.84 436.84v-93.55M303.35 436.84h-25.51M303.35 343.29v93.55M291.1 344.15v91.84M283.83 364.29c.04-.11-.39-.32-.45-.34-.18-.09-.36-.16-.54-.22-.19-.07-.37-.12-.56-.17-.07-.01-.53-.13-.57-.01s.39.32.45.35c.18.09.36.16.54.22s.37.12.56.17c.07.01.53.13.57.01ZM290.2 344.15v91.84M299.6 380.8c-.01-.18-.39-.23-.5-.24-.19-.03-.39-.03-.58-.02-.2.01-.39.04-.58.09-.11.03-.48.12-.47.3s.39.22.5.24c.2.03.39.03.58.02s.39-.04.58-.09c.11-.03.48-.12.46-.3ZM299.6 377.96c0-.18-.37-.25-.48-.27-.19-.04-.38-.05-.58-.05s-.39.01-.58.05c-.11.02-.48.09-.48.27s.37.25.48.27c.19.04.38.05.58.05s.39-.01.58-.05c.11-.02.48-.09.48-.27M299.6 363.79c.04-.13-.38-.3-.45-.33-.18-.08-.36-.14-.55-.2s-.37-.1-.57-.13c-.07-.01-.52-.09-.56.03-.04.13.38.3.45.33.18.08.36.14.55.2s.37.1.57.13c.07.01.52.09.56-.03M299.6 373.16c-.02-.18-.4-.21-.51-.22-.2-.02-.39 0-.59.01q-.3.03-.57.12c-.11.03-.47.14-.45.32s.4.2.51.21c.2.02.39.01.59-.01s.39-.06.57-.12c.11-.03.47-.15.45-.32ZM299.6 367.36c.05-.14-.36-.34-.43-.38a5 5 0 0 0-.55-.24c-.19-.07-.38-.13-.57-.17-.08-.02-.52-.12-.57.01-.05.14.36.34.43.38.18.09.36.17.55.24s.38.13.57.17c.08.02.52.12.57-.01M299.6 369.83c.04-.11-.39-.32-.45-.35-.18-.08-.36-.16-.54-.22-.19-.06-.37-.12-.56-.17-.07-.01-.53-.13-.57-.01s.39.32.45.35c.18.09.36.16.54.22s.37.12.56.17c.06.01.53.13.57.01M299.6 352.23c0-.12-.45-.14-.52-.14h-.56c-.19.01-.37.03-.55.07-.07.01-.5.09-.49.21s.45.14.52.14h.56c.19-.01.37-.03.55-.07.07-.01.5-.09.49-.21M299.6 356.76c.02-.14-.39-.24-.48-.26-.18-.05-.37-.08-.56-.1q-.285-.03-.57-.03c-.08 0-.51 0-.52.15s.4.24.48.27c.18.05.37.08.56.1q.285.03.57.03c.08 0 .51 0 .52-.15ZM299.6 361.45c.04-.14-.37-.3-.45-.33-.18-.07-.36-.13-.55-.18s-.38-.09-.57-.11c-.08 0-.52-.06-.55.08-.04.14.37.3.45.33.18.07.37.13.55.18.19.05.38.09.57.11.08 0 .52.06.55-.08M283.83 374.89c-.02-.19-.38-.23-.51-.25q-.3-.03-.6 0c-.2.02-.39.06-.58.13-.12.04-.46.16-.44.35s.38.23.51.25q.3.03.6 0c.2-.02.39-.06.58-.13.12-.04.46-.16.44-.35M283.83 377.96c0-.19-.35-.28-.47-.3a3 3 0 0 0-1.18 0c-.12.03-.47.11-.47.3s.35.27.47.3a3 3 0 0 0 1.18 0c.12-.03.47-.11.47-.3M283.83 353.31c0-.12-.45-.14-.52-.14h-.56c-.19.01-.37.03-.55.07-.07.01-.5.09-.5.21s.45.14.52.14h.56c.19-.01.37-.03.55-.07.07-.01.5-.09.5-.21M283.83 361.6c.05-.14-.36-.34-.43-.38-.18-.09-.36-.17-.55-.24s-.38-.13-.57-.17c-.08-.02-.52-.12-.57.01-.05.14.36.34.43.38.18.09.36.17.55.24s.38.13.57.17c.08.02.52.12.57-.01M283.83 359.12c.04-.13-.38-.3-.45-.33-.18-.08-.36-.14-.55-.2-.19-.05-.37-.1-.57-.13-.07-.01-.52-.09-.56.03-.04.13.38.3.45.33.18.08.36.14.55.2.19.05.37.1.57.13.07.01.52.09.56-.03M283.83 357.42c.04-.14-.37-.3-.45-.33-.18-.07-.37-.13-.55-.18s-.38-.09-.57-.11c-.08 0-.52-.06-.55.08-.04.14.37.3.45.33.18.07.36.13.55.18s.38.09.57.11c.08 0 .52.07.55-.08M283.83 354.97c.02-.14-.4-.24-.48-.26-.18-.05-.37-.08-.56-.1q-.285-.03-.57-.03c-.08 0-.51 0-.52.15-.02.14.4.24.48.27.18.05.37.08.56.1q.285.03.57.03c.08 0 .51 0 .52-.15ZM283.83 426.35l13.64 2.82M283.83 429.69l13.64 1.32M283.83 423.94l13.64 1.6M290.2 416.95h.9M290.2 416.1h.9M290.2 418.43h.9M290.2 417.88h.9M290.2 417.34h.9M290.2 418.66h.9M290.2 422.68h.9M290.2 423.53h.9M290.2 423.92h.9M290.2 433.31h.9M290.2 433.54h.9M290.2 425.24h.9M290.2 424.47h.9M290.2 425.01h.9M290.2 434.71h.9M283.83 381.78c-.01-.19-.37-.25-.49-.27-.2-.03-.39-.04-.59-.02-.2.01-.39.04-.59.1-.12.04-.47.14-.45.33.01.19.37.25.49.27.2.03.39.04.59.03s.39-.04.59-.1c.12-.04.47-.14.45-.33ZM290.2 434.17h.9M290.2 357.14h.9M290.2 357.54h.9M290.2 357.93h.9M290.2 358.45h.9M290.2 349.74h.9M679.58 130.66h2.32v21.07h-2.32zM626.4 459.74h27.14v2.32H626.4zM503.77 459.74h27.14v2.32h-27.14zM380.28 459.74h27.14v2.32h-27.14zM250.55 221.55h34.86v4.41h-34.86zM210.56 459.74h27.14v2.32h-27.14zM114.04 459.74h27.14v2.32h-27.14zM463.12 48.39h2.32v38.73h-2.32zM679.58 354.76h2.32v43.42h-2.32zM165.12 176.31h15.31v50.24h-15.31zM415.38 78.51h38.52v40.44h-38.52zM459.84 351.23v59.31M486.21 298.77h12.12v153.92h-12.12zM79.98 176.31h21.77v49.75H79.98z" class="cls-13"/><path d="M91.91 190.51c-1.59 0-2.78.45-3.98 1.49M87.55 199.1c-.54 0-.98.44-.98.98s.44.98.98.98.98-.44.98-.98-.44-.98-.98-.98M99.09 194.26a8.9 8.9 0 0 0-2.36-3.22M100.31 200.07c0-2.07-.39-3.93-1.22-5.82M99.09 205.89c.83-1.89 1.22-3.75 1.22-5.82M96.73 209.11c1.05-.92 1.8-1.94 2.36-3.22M91.91 210.92c1.93 0 3.37-.54 4.82-1.81" class="cls-13"/><path d="M87.1 209.11c1.45 1.27 2.89 1.81 4.82 1.81M84.74 205.89c.56 1.27 1.31 2.3 2.36 3.22M83.51 200.07c0 2.07.39 3.93 1.22 5.82M84.74 194.26c-.83 1.89-1.22 3.75-1.22 5.82M87.1 191.04c-1.05.92-1.8 1.94-2.36 3.22M91.91 189.23c-1.93 0-3.37.54-4.82 1.81M96.73 191.04c-1.45-1.27-2.89-1.81-4.82-1.81M84.79 200.07c0 1.88.36 3.58 1.11 5.3M85.9 205.38c.48 1.1 1.13 1.98 2.03 2.77M87.94 208.15c1.2 1.05 2.38 1.49 3.98 1.49" class="cls-13"/><path d="M91.91 209.64c1.59 0 2.78-.45 3.98-1.49M95.89 208.15c.9-.79 1.55-1.67 2.03-2.77M97.92 205.38c.76-1.72 1.11-3.42 1.11-5.3M87.94 192c-.9.79-1.55 1.67-2.03 2.77M85.9 194.77c-.76 1.72-1.11 3.42-1.11 5.3M97.92 194.77a7.6 7.6 0 0 0-2.03-2.77M95.89 192c-1.2-1.05-2.39-1.49-3.98-1.49M99.03 200.07c0-1.88-.36-3.58-1.11-5.3M219.82 92.35c0-1.59-.45-2.78-1.49-3.98M211.23 87.99c0-.54-.44-.98-.98-.98s-.98.44-.98.98.44.98.98.98.98-.44.98-.98M216.07 99.53c1.27-.56 2.3-1.31 3.22-2.36M210.25 100.75c2.07 0 3.93-.39 5.82-1.22" class="cls-13"/><path d="M204.44 99.53c1.89.83 3.75 1.22 5.82 1.22M201.22 97.17c.92 1.05 1.94 1.8 3.22 2.36M199.41 92.35c0 1.93.54 3.37 1.81 4.82M201.22 87.53c-1.27 1.45-1.81 2.89-1.81 4.82M204.44 85.17c-1.27.56-2.3 1.31-3.22 2.36M210.25 83.95c-2.07 0-3.93.39-5.82 1.22M216.07 85.17c-1.89-.83-3.75-1.22-5.82-1.22M219.29 87.53a8.85 8.85 0 0 0-3.22-2.36M221.1 92.35c0-1.93-.54-3.37-1.81-4.82M219.29 97.17c1.27-1.45 1.81-2.89 1.81-4.82M210.25 85.23c-1.88 0-3.58.36-5.3 1.11M204.95 86.34c-1.1.48-1.98 1.13-2.77 2.03M202.18 88.37c-1.05 1.2-1.49 2.38-1.49 3.98" class="cls-13"/><path d="M200.69 92.35c0 1.59.45 2.78 1.49 3.98M202.18 96.33c.79.9 1.67 1.55 2.77 2.03M204.95 98.36c1.72.76 3.42 1.11 5.3 1.11M218.33 88.37c-.79-.9-1.67-1.55-2.77-2.03M215.56 86.34c-1.72-.76-3.42-1.11-5.3-1.11M215.56 98.36c1.1-.48 1.98-1.13 2.77-2.03M218.33 96.33c1.05-1.2 1.49-2.39 1.49-3.98M210.25 99.47c1.88 0 3.58-.36 5.3-1.11" class="cls-13"/><path d="M151.97 306.74H45.71M151.97 305.01H45.71M158.35 232.44v14.15M675 232.44v14.15M158.35 246.59h247.86M427.34 246.59H675M159.91 244.75l-3.4 3.4.27.28 3.41-3.4zM673.43 248.43l3.41-3.4-.28-.28-3.4 3.4zM453.9 116.73v-12.48M173.27 116.73v-12.48M453.9 104.25H322.01M305.15 104.25H173.27M452.33 106.08l3.4-3.4-.27-.27-3.4 3.4zM174.83 102.41l-3.4 3.4.27.27 3.4-3.4zM675.82 116.73v-12.48M460.27 116.73v-12.48M675.82 104.25h-99.35M559.93 104.25h-99.66M674.25 106.08l3.4-3.4-.27-.27-3.4 3.4zM461.84 102.41l-3.4 3.4.27.27 3.4-3.4zM486.21 334.91v14.15M675 334.91v14.15M486.21 349.06h85.97M589.14 349.06H675M487.78 347.23l-3.4 3.4.27.27 3.4-3.4zM673.43 350.9l3.41-3.4-.28-.27-3.4 3.4zM309.76 334.91v14.15M479.83 334.91v14.15M309.76 349.06h76.61M403.22 349.06h76.61M311.32 347.23l-3.4 3.4.27.27 3.4-3.4zM478.27 350.9l3.4-3.4-.27-.27-3.4 3.4zM184.71 334.91v14.15M303.38 334.91v14.15M184.71 349.06h51.01M252.47 349.06h50.91M186.28 347.23l-3.41 3.4.28.27 3.4-3.4zM301.81 350.9l3.4-3.4-.27-.27-3.4 3.4zM45.71 334.91v14.15M151.97 334.91v14.15M45.71 349.06h44.81M107.27 349.06h44.7M47.27 347.23l-3.4 3.4.27.27 3.41-3.4zM150.41 350.9l3.4-3.4-.28-.27-3.4 3.4zM152.43 155.21v-36.1M24.45 155.21v-36.1M152.43 119.11H96.76M81.41 119.11H24.45M150.87 120.95l3.4-3.4-.27-.27-3.4 3.4zM26.01 117.28l-3.4 3.4.27.27 3.41-3.4zM24.45 473.95v14.15M108.6 473.95v14.15M24.45 488.1h34.1M74.85 488.1h33.75M26.01 486.26l-3.4 3.41.27.27 3.41-3.4zM107.04 489.94l3.4-3.4-.27-.28-3.41 3.41zM152.01 155.05v-21.56M110.15 155.05v-21.56M152.01 133.49h-12.5M122.76 133.49h-12.61M150.44 135.33l3.4-3.4-.27-.27-3.4 3.4zM111.72 131.66l-3.41 3.4.28.27 3.4-3.4zM110.15 155.05v-21.56M80.39 155.05v-21.56M110.15 133.49h-6.45M86.84 133.49h-6.45" class="cls-3"/><path d="m108.59 135.33 3.4-3.4-.27-.27-3.41 3.4zM81.95 131.66l-3.4 3.4.27.27 3.4-3.4zM80.39 155.05v-21.56M24.45 155.05v-21.56M80.39 133.49h-20M44.1 133.49H24.45" class="cls-3"/><path d="m78.82 135.33 3.4-3.4-.27-.27-3.4 3.4zM26.01 131.66l-3.4 3.4.27.27 3.41-3.4zM24.45 488.1v14.16M696.26 488.1v14.16M24.45 502.26h325.44M371.27 502.26h324.99M26.01 500.42l-3.4 3.4.27.27 3.41-3.4zM694.69 504.09l3.41-3.4-.28-.27-3.4 3.4zM108.6 473.95v14.15M147.72 473.95v14.15M108.6 488.1h11.13M136.48 488.1h11.24M110.17 486.26l-3.41 3.41.28.27 3.4-3.4zM146.15 489.94l3.41-3.4-.28-.28-3.4 3.41zM147.72 473.95v14.15M205.12 473.95v14.15M147.72 488.1h20.73M184.6 488.1h20.52" class="cls-3"/><path d="m149.28 486.26-3.4 3.41.27.27 3.41-3.4zM203.55 489.94l3.41-3.4-.28-.28-3.4 3.41zM205.12 473.95v14.15M244.24 473.95v14.15M205.12 488.1h11.13M233 488.1h11.24" class="cls-3"/><path d="m206.68 486.26-3.4 3.41.27.27 3.41-3.4zM242.67 489.94l3.41-3.4-.28-.28-3.4 3.41zM244.24 473.95v14.15M374.84 473.95v14.15M244.24 488.1h56.98M317.65 488.1h57.19" class="cls-3"/><path d="m245.8 486.26-3.4 3.41.27.27 3.41-3.4zM373.27 489.94l3.4-3.4-.27-.28-3.4 3.41zM374.84 473.95v14.15M413.96 473.95v14.15M374.84 488.1h11.13M402.72 488.1h11.24" class="cls-3"/><path d="m376.4 486.26-3.4 3.41.27.27 3.4-3.4zM412.39 489.94l3.4-3.4-.27-.28-3.4 3.41zM413.96 473.95v14.15M498.33 473.95v14.15M413.96 488.1h34.21M464.47 488.1h33.86" class="cls-3"/><path d="m415.52 486.26-3.4 3.41.27.27 3.4-3.4zM496.77 489.94l3.4-3.4-.27-.28-3.41 3.41zM498.33 473.95v14.15M537.45 473.95v14.15M498.33 488.1h11.13M526.21 488.1h11.24" class="cls-3"/><path d="m499.9 486.26-3.41 3.41.28.27 3.4-3.4zM535.88 489.94l3.41-3.4-.28-.28-3.4 3.41zM537.45 473.95v14.15M620.95 473.95v14.15M537.45 488.1h33.78M587.63 488.1h33.32" class="cls-3"/><path d="m539.01 486.26-3.4 3.41.27.27 3.41-3.4zM619.39 489.94l3.4-3.4-.27-.28-3.4 3.41zM620.95 473.95v14.15M660.07 473.95v14.15M620.95 488.1h11.14M648.84 488.1h11.23" class="cls-3"/><path d="m622.52 486.26-3.4 3.41.27.27 3.4-3.4zM658.51 489.94l3.4-3.4-.27-.28-3.4 3.41zM696.26 236.69h21.56M696.26 27.49h21.56M717.82 236.69v-96.17M717.82 123.77V27.49M715.98 235.12l3.4 3.4.27-.27-3.4-3.4zM719.65 29.06l-3.4-3.41-.27.28 3.4 3.4zM696.26 288.14h21.56M696.26 236.69h21.56M717.82 293.24v-22.86M717.82 255.39v-23.8M719.65 289.7l-3.4-3.4-.27.27 3.4 3.4z" class="cls-3"/><path d="m715.98 235.12 3.4 3.4.27-.27-3.4-3.4zM660.07 473.95v14.15M696.26 473.95v14.15M660.07 488.1h9.67M686.35 488.1h9.91M661.64 486.26l-3.4 3.41.27.27 3.4-3.4zM694.69 489.94l3.41-3.4-.28-.28-3.4 3.41zM696.26 343.84h21.56M696.26 288.14h21.56M717.82 343.84v-19.88M717.82 308.96v-20.82M715.98 342.27l3.4 3.4.27-.27-3.4-3.4zM719.65 289.7l-3.4-3.4-.27.27 3.4 3.4zM696.26 407.62h21.56M696.26 343.84h21.56M717.82 407.62V383.7M717.82 367.3v-23.46M715.98 406.05l3.4 3.4.27-.27-3.4-3.4z" class="cls-3"/><path d="m719.65 345.4-3.4-3.4-.27.27 3.4 3.4zM696.26 473.95h21.56M696.26 407.62h21.56M717.82 473.95v-25.2M717.82 432.35v-24.73M715.98 472.38l3.4 3.4.27-.27-3.4-3.4zM719.65 409.18l-3.4-3.4-.27.27 3.4 3.4zM717.82 473.95h21.55M717.82 27.49h21.55M739.37 473.95V261.18M739.37 239.8V27.49M737.54 472.38l3.4 3.4.27-.27-3.4-3.4zM741.21 29.06l-3.4-3.41-.27.28 3.4 3.4zM424.13 27.49V5.93M152.01 27.49V5.93M424.13 5.93H296.5M279.64 5.93H152.01M422.57 7.77l3.4-3.4-.27-.27-3.4 3.4zM153.57 4.1l-3.4 3.4.27.27 3.4-3.4zM696.26 27.49V5.93M424.13 27.49V5.93M696.26 5.93H568.62M551.77 5.93H424.13M694.69 7.77l3.41-3.4-.28-.27-3.4 3.4z" class="cls-3"/><path d="m425.7 4.1-3.4 3.4.27.27 3.4-3.4zM670.45 43.22H648.9M670.45 226.06H648.9M648.9 43.22v82.99M648.9 143.07v82.99M650.73 44.79l-3.4-3.4-.27.27 3.4 3.4zM647.06 224.49l3.4 3.4.27-.27-3.4-3.4zM309.76 452.69h14.15M309.76 298.77h14.15M323.91 452.69v-68.64M323.91 367.4v-68.63M322.07 451.12l3.41 3.4.27-.27-3.4-3.4zM325.75 300.33l-3.4-3.4-.28.27 3.41 3.4zM45.93 452.69l14.15-.03M45.71 334.91l14.15-.03M60.08 452.66l-.09-50.57M59.96 385.66l-.1-50.78M58.24 451.1l3.41 3.39.27-.27-3.41-3.39zM61.7 336.44l-3.4-3.39-.28.27 3.41 3.4zM45.93 330.66l14.15-.02M45.71 176.31l14.15-.02M60.08 330.64l-.1-68.85M59.96 245.14l-.1-68.85M58.24 329.07l3.41 3.4.27-.27-3.41-3.4zM61.7 177.85l-3.4-3.39-.28.27 3.41 3.39zM309.76 292.39h14.15M309.76 232.44h14.15M323.91 292.39v-22.01M323.91 255.39v-22.95M322.07 290.82l3.41 3.4.27-.27-3.4-3.4zM325.75 234l-3.4-3.4-.28.27 3.41 3.4zM309.76 226.06l14.15.04M310.18 78.51l14.16.05M323.91 226.1l.19-65.45M324.15 144.21l.19-65.65M322.08 224.53l3.39 3.41.27-.27-3.39-3.41zM326.17 80.12l-3.39-3.41-.28.27 3.4 3.42z" class="cls-3"/><text class="cls-17" transform="translate(405.48 249.78)"><tspan x="0" y="0">12.15</tspan></text><text class="cls-17" transform="translate(304.87 107.4)"><tspan x="0" y="0">6.60</tspan></text><text class="cls-17" transform="translate(559.65 107.4)"><tspan x="0" y="0">5.07</tspan></text><text class="cls-17" transform="translate(571.9 352.25)"><tspan x="0" y="0">4.44</tspan></text><text class="cls-17" transform="translate(386.09 352.25)"><tspan x="0" y="0">4.00</tspan></text><text class="cls-17" transform="translate(235.33 352.25)"><tspan x="0" y="0">2.79</tspan></text><text class="cls-17" transform="translate(90.13 352.25)"><tspan x="0" y="0">2.50</tspan></text><text class="cls-17" transform="translate(81.03 122.3)"><tspan x="0" y="0">3.01</tspan></text><text class="cls-17" transform="translate(57.82 491.29)"><tspan x="0" y="0">1.98</tspan></text><text class="cls-17" transform="translate(122.48 136.65)"><tspan x="0" y="0">0.98</tspan></text><text class="cls-17" transform="translate(86.56 136.65)"><tspan x="0" y="0">0.70</tspan></text><text class="cls-17" transform="translate(43.36 136.68)"><tspan x="0" y="0">1.32</tspan></text><text class="cls-17" transform="translate(349.16 505.45)"><tspan x="0" y="0">15.80</tspan></text><text class="cls-17" transform="translate(119.45 491.29)"><tspan x="0" y="0">0.92</tspan></text><text class="cls-17" transform="translate(167.71 491.29)"><tspan x="0" y="0">1.35</tspan></text><text class="cls-17" transform="translate(215.97 491.29)"><tspan x="0" y="0">0.92</tspan></text><text class="cls-17" transform="translate(300.83 491.29)"><tspan x="0" y="0">3.07</tspan></text><text class="cls-17" transform="translate(385.69 491.29)"><tspan x="0" y="0">0.92</tspan></text><text class="cls-17" transform="translate(447.43 491.29)"><tspan x="0" y="0">1.98</tspan></text><text class="cls-17" transform="translate(509.18 491.29)"><tspan x="0" y="0">0.92</tspan></text><text class="cls-17" transform="translate(570.49 491.29)"><tspan x="0" y="0">1.96</tspan></text><text class="cls-17" transform="translate(631.81 491.29)"><tspan x="0" y="0">0.92</tspan></text><text class="cls-17" transform="rotate(-90 430.905 -290.105)"><tspan x="0" y="0">4.92</tspan></text><text class="cls-17" transform="rotate(-90 496.065 -224.945)"><tspan x="0" y="0">1.21</tspan></text><text class="cls-17" transform="translate(669.46 491.29)"><tspan x="0" y="0">0.85</tspan></text><text class="cls-17" transform="rotate(-90 522.85 -198.16)"><tspan x="0" y="0">1.31</tspan></text><text class="cls-17" transform="rotate(-90 552.72 -168.29)"><tspan x="0" y="0">1.50</tspan></text><text class="cls-17" transform="rotate(-90 585.25 -135.76)"><tspan x="0" y="0">1.56</tspan></text><text class="cls-17" transform="rotate(-90 502.24 -240.33)"><tspan x="0" y="0">10.50</tspan></text><text class="cls-17" transform="translate(279.36 9.09)"><tspan x="0" y="0">6.40</tspan></text><text class="cls-17" transform="translate(551.49 9.09)"><tspan x="0" y="0">6.40</tspan></text><text class="cls-17" transform="rotate(-90 397.72 -254.37)"><tspan x="0" y="0">4.30</tspan></text><text class="cls-17" transform="rotate(-90 355.765 28.665)"><tspan x="0" y="0">3.62</tspan></text><text class="cls-17" transform="rotate(-90.1 232.354 169.7)"><tspan x="0" y="0">2.77</tspan></text><text class="cls-17" transform="rotate(-90.08 162.357 99.534)"><tspan x="0" y="0">3.63</tspan></text><text class="cls-17" transform="rotate(-90 299.11 -27.99)"><tspan x="0" y="0">1.41</tspan></text><text class="cls-17" transform="rotate(-89.83 244.32 -83.606)"><tspan x="0" y="0">3.47</tspan></text><path d="M454.32 180.18h-45.49" class="cls-3"/><path d="M404.57 158.07h-45.49M404.57 169.12h-45.49M404.57 180.18h-45.49M359.08 208.32l45.49-17.09M404.57 191.23h-45.49M404.57 191.23l-45.49 33.7" class="cls-5"/><path d="M549.52 452.69v-17.44h53.15v17.44M454.32 147.01h-45.49M454.32 158.07h-45.49" class="cls-3"/><path d="M404.57 147.01h-45.49" class="cls-5"/><path d="M454.32 169.12h-45.49M454.32 191.23h-45.49M687.76 236.69h4.25v2.13h-4.25zM692.01 155.89v-29.4M687.76 141.19h4.25M687.76 140.13h4.25v2.13h-4.25zM94.57 159.3h2.13v4.25h-2.13zM95.63 163.55v-4.25M687.76 261.35h4.25v2.13h-4.25zM687.76 262.41h4.25M156.26 148.06h4.25v2.13h-4.25zM110.15 163.55H80.39M110.15 159.3H80.39M108.03 159.3h2.13v4.25h-2.13zM80.39 159.3h2.13v4.25h-2.13zM156.26 137.17h4.25M156.26 136.11h4.25v2.13h-4.25zM156.26 150.19v-26.04M160.51 150.19v-26.04M108.6 465.44h2.13v4.25h-2.13zM145.59 465.44h2.13v4.25h-2.13zM108.6 465.44h39.12M108.6 469.7h39.12M128.16 465.44v4.26M127.1 465.44h2.13v4.25h-2.13zM205.12 465.44h2.13v4.25h-2.13zM242.11 465.44h2.13v4.25h-2.13zM205.12 465.44h39.12M205.12 469.7h39.12M224.68 465.44v4.26M223.62 465.44h2.13v4.25h-2.13zM374.84 465.44h2.13v4.25h-2.13zM411.83 465.44h2.13v4.25h-2.13zM374.84 465.44h39.12M374.84 469.7h39.12M394.4 465.44v4.26M393.33 465.44h2.13v4.25h-2.13zM498.33 465.44h2.13v4.25h-2.13zM535.32 465.44h2.13v4.25h-2.13zM498.33 465.44h39.12M498.33 469.7h39.12M517.89 465.44v4.26M516.83 465.44h2.13v4.25h-2.13zM620.95 465.44h2.13v4.25h-2.13zM657.95 465.44h2.13v4.25h-2.13zM620.95 465.44h39.12M620.95 469.7h39.12M640.51 465.44v4.26M639.45 465.44h2.13v4.25h-2.13zM687.76 405.49h4.25v2.13h-4.25zM687.76 343.84h4.25v2.13h-4.25zM692.01 407.62V344.9M687.76 407.62v-63.78M687.76 375.2h4.25v2.13h-4.25zM207.25 465.44l13.54-9.09M224.68 465.44c0-3.48-1.51-6.66-3.89-9.1M224.68 465.44c0-3.48 1.51-6.66 3.89-9.1M242.11 465.44l-13.54-9.09M376.96 465.44l13.55-9.09M394.4 465.44c0-3.48-1.51-6.66-3.89-9.1M394.4 465.44c0-3.42 1.46-6.55 3.77-8.97M411.52 465.44l-13.35-8.97M517.89 465.44c0-3.48 1.51-6.66 3.89-9.1M535.32 465.44l-13.54-9.09M500.46 465.44l13.54-9.09M517.89 465.44c0-3.48-1.51-6.66-3.89-9.1M640.51 465.44c0-3.48 1.51-6.66 3.89-9.1M657.95 465.44l-13.55-9.09M623.08 465.44l13.54-9.09M640.51 465.44c0-3.48-1.51-6.66-3.89-9.1M687.76 405.49l-15.81-22.69M687.76 376.26c-5.99 0-11.52 2.49-15.8 6.54M687.76 345.96l-16.25 23.33M687.76 376.26c-6.21 0-11.91-2.68-16.24-6.97M160.51 136.86c3.33 0 6.19.64 9.1 2.36M160.51 126.28l9.1 8.22M160.51 136.86c3.33 0 6.19-.64 9.1-2.36M160.51 148.06l9.1-8.7M108.03 163.55l-9.63 9.1M687.76 286.01l-16.25-18.17" class="cls-3"/><path d="M687.76 262.41c-5.82 0-11.6 1.85-16.24 5.43M687.76 262.41c-5.82 0-11.6-1.85-16.24-5.43M82.51 163.55l10.19 9.1M95.63 163.55c0 3.21.92 6.44 2.77 9.1M95.63 163.55c0 3.21-.92 6.44-2.77 9.1M687.76 376.26h4.25M687.76 286.01h4.25v2.13h-4.25zM156.26 124.15h4.25v2.13h-4.25zM692.01 288.14v-51.45M687.76 288.14v-51.45M145.59 465.44l-13.54-9.09M128.16 465.44c0-3.48 1.51-6.66 3.89-9.1M128.16 465.44c0-3.48-1.51-6.66-3.89-9.1M110.73 465.44l13.54-9.09M687.76 238.81l-16.25 18.17M687.76 155.89l-9.1-11.42M687.76 141.19c-3.33 0-6.53 1.17-9.1 3.28M687.76 126.49l-9.1 11.42M687.76 141.19c-3.33 0-6.53-1.17-9.1-3.28M687.76 124.36h4.25v2.13h-4.25zM687.76 155.89h4.25v2.13h-4.25zM687.76 155.89v-31.53M385.24 328.48h-1.93M230.76 328.48h-1.92M228.84 328.48v-36.09h1.92v36.09M230.76 328.48c19.19-1.02 34.22-16.88 34.22-36.09M545.54 328.48c19.19-1.02 34.22-16.88 34.22-36.09M543.61 328.48v-36.09h1.93v36.09M545.54 328.48h-1.93M577.83 196.35h1.93M579.76 196.35v36.09h-1.93v-36.09M577.83 196.35c-19.19 1.02-34.22 16.88-34.22 36.09M204.45 196.35h-1.93M202.52 196.35v36.09h1.93v-36.09" class="cls-3"/><path d="M204.45 196.35c19.19 1.02 34.22 16.88 34.22 36.09M383.31 328.48v-36.09h1.93v36.09M385.24 328.48c19.19-1.02 34.22-16.88 34.22-36.09M122.26 278.71v1.92M122.26 280.63h36.09v-1.92h-36.09M122.26 278.71c1.02-19.19 16.88-34.22 36.09-34.22" class="cls-3"/><path d="M818.72 227.09h11.05v72.43h-11.05zM807.66 227.09h11.06v72.43h-11.06z" class="cls-6"/><path d="M796.61 227.09h11.06v72.43h-11.06zM785.55 227.09h11.05v72.43h-11.05zM696.26 27.91l89.29 63.16v382.68h-89.29" class="cls-6"/><path d="M63.05 176.31v162.85" style="fill:none;stroke-width:.25px;stroke-linecap:round;stroke-linejoin:round;stroke:#343434;stroke-dasharray:0 0 7.09 3.54"/><path d="M107.15 226.06v6.38" class="cls-8"/><path d="M141.37 262.15c-19.19-1.02-34.22-16.88-34.22-36.09M143.3 262.15v-36.09h-1.93v36.09M141.37 262.15h1.93" class="cls-3"/><path d="M74.01 176.31h6.38v49.75h-6.38zM107.15 226.06H74.01v6.38h33.57M352.7 78.51h6.38v4.3h-6.38z" class="cls-8"/><path d="M388.79 84.73v-1.92M388.79 82.81H352.7v1.92h36.09M388.79 84.73c-1.02 19.19-16.88 34.22-36.09 34.22" class="cls-3"/><path d="M158.74 176.31h6.38v49.75h-6.38zM143.3 232.44h8.67v-6.38h-8.67" class="cls-8"/><path d="M458.66 347.07h21.93v4.16h-21.93zM458.89 410.54h21.7v4.25h-21.7zM696.26 124.36h-20.44V43.22H460.27v35.29h-287v45.64h-21.26v-66.9h272.12V27.49h272.13zM675.82 158.02h20.44v78.67h-20.44zM675.82 288.13h20.44v55.79h-20.44zM675.82 407.62v45.07h-15.75v21.06h36.19v-66.13zM147.72 452.69h57.4v21.26h-57.4zM152.01 150.19h21.26v26.12h-63.12v-21.26h41.86zM108.6 452.69v21.26H24.45v-318.9h55.94v21.26H45.71v276.38zM151.97 280.63v58.53h4.25v-40.39h72.62v-6.38h-70.49v-11.76zM264.98 292.39h118.33v6.38h-73.55v153.92h-6.38V298.77h-38.4z" class="cls-16"/><path d="M419.46 292.39h124.15v6.38h-57.4v153.92h-6.38V298.77h-60.37zM579.76 292.39h96.06v6.38h-96.06zM45.71 339.16h106.26v4.25H45.71zM579.76 226.06h96.06v6.38h-96.06zM404.57 226.06h139.04v6.38H404.57zM453.9 78.51h6.38v147.54h-6.38zM352.7 78.51h6.38v4.3h-6.38zM158.74 176.31h6.38v49.75h-6.38zM352.7 118.95h6.38v107.11h-6.38zM238.67 226.06h129.77v6.38H238.67zM74.01 176.31v56.13h33.14v-6.38H80.13v-49.75zM151.97 226.06v18.43h6.38v-12.05h44.17v-6.38zM143.3 226.55h8.67v5.89h-8.67zM151.97 339.16v36.14h32.74v-36.14zm28.49 31.66h-24.24v-27.4h24.24zM537.45 452.69h83.51v21.26h-83.51zM244.24 452.69h130.6v21.26h-130.6zM413.96 452.69h84.37v21.26h-84.37zM359.08 118.95h94.82v3.6h-94.82zM404.57 141.02h4.25v50.22h-4.25z" class="cls-16"/><text class="cls-1" transform="translate(236.16 149.1)"><tspan x="0" y="0">Salle de bain II</tspan><tspan x="0" y="7.2">15m </tspan></text><text class="cls-1" transform="translate(382.94 96.85)"><tspan x="0" y="0">Buanderie</tspan><tspan x="0" y="7.2">5m </tspan></text><text class="cls-1" transform="translate(106.97 190.76)"><tspan x="0" y="0">WC II</tspan><tspan x="0" y="7.2">2m </tspan></text><text class="cls-1" transform="translate(90.58 274.64)"><tspan x="0" y="0">D</tspan><tspan x="4.62" y="0" class="cls-15">r</tspan><tspan x="6.41" y="0">essing</tspan><tspan x="0" y="7.2">7m </tspan></text><text class="cls-1" transform="translate(201.78 374.7)"><tspan x="0" y="0">Chamb</tspan><tspan x="19.92" y="0" class="cls-15">r</tspan><tspan x="21.71" y="0">e II</tspan><tspan x="0" y="7.2">18,60m </tspan></text><text class="cls-1" transform="translate(397.64 374.7)"><tspan x="0" y="0">Chamb</tspan><tspan x="19.92" y="0" class="cls-15">r</tspan><tspan x="21.71" y="0">e III</tspan><tspan x="0" y="7.2">14,40m </tspan></text><text class="cls-1" transform="translate(602.12 374.7)"><tspan x="0" y="0">Chamb</tspan><tspan x="19.92" y="0" class="cls-15">r</tspan><tspan x="21.71" y="0">e I</tspan><tspan x="27.95" y="0" class="cls-15">V</tspan><tspan x="0" y="7.2">16m </tspan></text><text class="cls-1" transform="translate(553.41 154.33)"><tspan x="0" y="0">Chamb</tspan><tspan x="19.92" y="0" class="cls-15">r</tspan><tspan x="21.71" y="0">e</tspan><tspan xml:space="preserve" x="25.05" y="0" class="cls-15"> V</tspan><tspan x="0" y="7.2">21,50m </tspan></text><circle cx="812.13" cy="495.18" r="9.92" class="cls-4"/><path d="M812.15 495.22h9.86" class="cls-4"/><path d="M802.17 495.22h9.98" style="fill:none;stroke:#010101;stroke-miterlimit:10;stroke-width:2px"/><path d="M26.46 155.05H4.91M26.46 473.95H4.91M4.91 155.05v151.09M4.91 322.93v151.02M6.74 156.61l-3.4-3.4-.27.28 3.4 3.4zM3.07 472.38l3.4 3.4.27-.27-3.4-3.4z" class="cls-3"/><text class="cls-17" transform="rotate(-90 165.67 157.61)"><tspan x="0" y="0">7.50</tspan></text></svg>