<svg xmlns="http://www.w3.org/2000/svg" xmlns:xlink="http://www.w3.org/1999/xlink" id="Calque_1" shape-rendering="crispEdges" data-name="Calque 1" viewBox="0 0 828.94 510.93"><defs><pattern id="Nouveau_motif_3" width="34.23" height="27.94" x="0" y="0" data-name="Nouveau motif 3" patternTransform="matrix(1.5 0 0 1.5 1669.52 3945.55)" patternUnits="userSpaceOnUse"><path d="M0 0h34.23v27.94H0z" style="fill:none;stroke-width:0"/><path d="M17.14 25.63h34.18v4.61H17.14zM-17.09 25.63h34.18v4.61h-34.18zM.03 20.98h34.18v4.61H.03zM17.14 16.32h34.18v4.61H17.14zM-17.09 16.32h34.18v4.61h-34.18zM.03 11.67h34.18v4.61H.03zM17.14 7.01h34.18v4.61H17.14zM-17.09 7.01h34.18v4.61h-34.18zM.03 2.35h34.18v4.61H.03zM17.14-2.3h34.18v4.61H17.14zM-17.09-2.3h34.18v4.61h-34.18z" class="cls-6"/></pattern><pattern xlink:href="#Nouveau_motif_3" id="Nouveau_motif_3-2" data-name="Nouveau motif 3" patternTransform="matrix(0 -1.5 1.5 0 1904.72 -19634.82)"/><style>.cls-1{fill:#010101;font-family:AvenirNext-UltraLight,&quot;Avenir Next&quot;;font-size:6px;font-weight:100}.cls-3,.cls-4,.cls-5,.cls-6,.cls-7{stroke:#343434}.cls-6,.cls-7,.cls-8{stroke-width:.05px}.cls-11,.cls-6,.cls-7,.cls-9{stroke-miterlimit:10}.cls-7{opacity:.6}.cls-14,.cls-4,.cls-6,.cls-8,.cls-9{fill:none}.cls-15{stroke-width:0}.cls-14,.cls-3,.cls-4,.cls-5,.cls-8{stroke-linecap:round;stroke-linejoin:round}.cls-3,.cls-4,.cls-9{stroke-width:.25px}.cls-15,.cls-3,.cls-5{fill:#fff}.cls-8{stroke:#989999}.cls-11,.cls-14,.cls-9{stroke:#010101}.cls-5{stroke-width:.15px}.cls-11{fill:#989999;stroke-width:.5px}.cls-7{fill:url(#Nouveau_motif_3)}.cls-18{fill:#343434;font-family:Avenir-Medium,Avenir;font-size:6.23px;font-weight:500}</style></defs><path d="m662.134 238.402 5.99-5.99 5.989 5.99-5.99 5.99zM662.135 250.383l5.99-5.989 5.989 5.99-5.99 5.988z" class="cls-8"/><path d="m662.14 262.347 5.989-5.989 5.989 5.99-5.99 5.988zM662.134 274.321l5.989-5.989 5.989 5.99-5.99 5.989z" class="cls-8"/><path d="m662.138 286.295 5.989-5.989 5.989 5.99-5.99 5.989zM650.07 238.407l5.989-5.99 5.989 5.99-5.99 5.989zM650.07 250.388l5.99-5.99 5.99 5.99-5.99 5.99z" class="cls-8"/><path d="m650.065 262.352 5.989-5.99 5.99 5.99-5.99 5.99z" class="cls-8"/><path d="m650.069 274.326 5.989-5.99 5.99 5.99-5.99 5.99zM650.063 286.3l5.99-5.989 5.988 5.99-5.989 5.988zM638.095 238.4l5.99-5.988 5.989 5.989-5.99 5.99zM638.097 250.382l5.989-5.99 5.989 5.99-5.99 5.99z" class="cls-8"/><path d="m638.1 262.356 5.99-5.99 5.99 5.99-5.99 5.99z" class="cls-8"/><path d="m638.095 274.32 5.989-5.989 5.99 5.99-5.99 5.988z" class="cls-8"/><path d="m638.099 286.294 5.989-5.989 5.99 5.99-5.99 5.988zM626.121 238.405l5.99-5.99 5.989 5.99-5.99 5.99zM626.133 250.376l5.989-5.99 5.989 5.99-5.99 5.99zM626.127 262.35l5.989-5.989 5.989 5.99-5.99 5.988zM626.13 274.324l5.99-5.989 5.99 5.99-5.99 5.988z" class="cls-8"/><path d="m626.125 286.288 5.989-5.989 5.99 5.99-5.99 5.989zM614.227 238.4l5.989-5.99 5.99 5.99-5.99 5.989zM614.228 250.38l5.99-5.988 5.988 5.989-5.989 5.989z" class="cls-8"/><path d="m614.232 262.355 5.99-5.99 5.988 5.99-5.989 5.989z" class="cls-8"/><path d="m614.226 274.319 5.99-5.99 5.988 5.99-5.989 5.989z" class="cls-8"/><path d="m614.22 286.293 5.99-5.99 5.989 5.99-5.99 5.99zM602.207 238.399l5.99-5.99 5.989 5.99-5.99 5.99zM602.209 250.38l5.989-5.99 5.989 5.99-5.99 5.99zM602.203 262.354l5.989-5.989 5.989 5.99-5.99 5.988z" class="cls-8"/><path d="m602.207 274.318 5.989-5.989 5.99 5.99-5.99 5.988zM602.2 286.292l5.99-5.989 5.99 5.99-5.99 5.989zM590.226 238.41l5.99-5.99 5.989 5.99-5.99 5.99z" class="cls-8"/><path d="m590.227 250.381 5.99-5.989 5.989 5.99-5.99 5.988zM590.231 262.355l5.99-5.989 5.989 5.99-5.99 5.989zM590.226 274.33l5.989-5.99 5.989 5.99-5.99 5.989z" class="cls-8"/><path d="m590.23 286.293 5.989-5.989 5.989 5.99-5.99 5.989zM578.252 238.404l5.99-5.989 5.989 5.99-5.99 5.988zM578.263 250.385l5.99-5.989 5.989 5.99-5.99 5.989z" class="cls-8"/><path d="m578.257 262.35 5.99-5.99 5.989 5.99-5.99 5.989z" class="cls-8"/><path d="m578.261 274.323 5.99-5.989 5.989 5.99-5.99 5.989zM578.256 286.298l5.989-5.99 5.989 5.99-5.99 5.989zM578.26 232.37v59.96M543.13 232.37v59.96M531.157 238.409l5.99-5.99 5.989 5.99-5.99 5.99z" class="cls-8"/><path d="m531.159 250.38 5.989-5.99 5.989 5.99-5.99 5.99z" class="cls-8"/><path d="m531.163 262.354 5.989-5.99 5.99 5.99-5.99 5.99zM531.157 274.328l5.989-5.989 5.99 5.99-5.99 5.988z" class="cls-8"/><path d="m531.16 286.292 5.99-5.989 5.99 5.99-5.99 5.988zM519.09 238.407l5.989-5.99 5.99 5.99-5.99 5.989zM519.1 250.378l5.99-5.99 5.99 5.99-5.99 5.989z" class="cls-8"/><path d="m519.095 262.352 5.99-5.99 5.988 5.99-5.989 5.989zM519.099 274.326l5.99-5.99 5.988 5.99-5.989 5.99z" class="cls-8"/><path d="m519.093 286.29 5.99-5.99 5.988 5.99-5.989 5.99zM507.126 238.4l5.989-5.988 5.99 5.989-5.99 5.989zM507.127 250.382l5.989-5.99 5.99 5.99-5.99 5.989z" class="cls-8"/><path d="m507.13 262.346 5.99-5.99 5.99 5.99-5.99 5.99z" class="cls-8"/><path d="m507.125 274.32 5.99-5.99 5.988 5.99-5.989 5.99z" class="cls-8"/><path d="m507.129 286.294 5.99-5.99 5.988 5.99-5.989 5.99zM495.145 238.412l5.989-5.99 5.989 5.99-5.99 5.989zM495.156 250.383l5.989-5.99 5.99 5.99-5.99 5.99zM495.15 262.357l5.989-5.99 5.99 5.99-5.99 5.99z" class="cls-8"/><path d="m495.144 274.321 5.989-5.99 5.99 5.99-5.99 5.99z" class="cls-8"/><path d="m495.148 286.295 5.99-5.989 5.988 5.99-5.989 5.988zM483.24 238.406l5.99-5.989 5.988 5.99-5.989 5.989zM483.251 250.388l5.99-5.99 5.989 5.99-5.99 5.989z" class="cls-8"/><path d="m483.245 262.352 5.99-5.99 5.989 5.99-5.99 5.989z" class="cls-8"/><path d="m483.25 274.326 5.988-5.99 5.99 5.99-5.99 5.989zM483.243 286.3l5.99-5.99 5.989 5.99-5.99 5.989zM471.22 238.406l5.99-5.99 5.989 5.99-5.99 5.989zM471.232 250.387l5.989-5.99 5.99 5.99-5.99 5.99z" class="cls-8"/><path d="m471.226 262.351 5.989-5.99 5.99 5.99-5.99 5.99z" class="cls-8"/><path d="m471.23 274.325 5.989-5.99 5.99 5.99-5.99 5.99zM471.224 286.3l5.99-5.99 5.988 5.99-5.989 5.988zM459.256 238.4l5.99-5.99 5.989 5.99-5.99 5.99zM459.258 250.381l5.989-5.99 5.989 5.99-5.99 5.99z" class="cls-8"/><path d="m459.262 262.355 5.989-5.99 5.99 5.99-5.99 5.99z" class="cls-8"/><path d="m459.256 274.32 5.989-5.99 5.99 5.99-5.99 5.988z" class="cls-8"/><path d="m459.26 286.293 5.989-5.989 5.99 5.99-5.99 5.988zM447.282 238.404l5.99-5.99 5.989 5.99-5.99 5.99zM447.294 250.375l5.989-5.99 5.989 5.99-5.99 5.99zM447.288 262.35l5.989-5.99 5.989 5.99-5.99 5.988zM447.282 274.323l5.989-5.989 5.99 5.99-5.99 5.988z" class="cls-8"/><path d="m447.286 286.287 5.989-5.989 5.99 5.99-5.99 5.989zM435.308 238.398l5.99-5.99 5.989 5.99-5.99 5.99zM435.32 250.38l5.989-5.99 5.989 5.99-5.99 5.988zM435.314 262.353l5.989-5.989 5.989 5.99-5.99 5.988z" class="cls-8"/><path d="m435.318 274.317 5.989-5.989 5.989 5.99-5.99 5.989z" class="cls-8"/><path d="m435.312 286.291 5.989-5.989 5.99 5.99-5.99 5.989zM423.337 238.41l5.99-5.99 5.989 5.99-5.99 5.988z" class="cls-8"/><path d="m423.338 250.38 5.99-5.989 5.989 5.99-5.99 5.989z" class="cls-8"/><path d="m423.342 262.354 5.99-5.989 5.989 5.99-5.99 5.989zM423.336 274.328l5.99-5.989 5.989 5.99-5.99 5.989z" class="cls-8"/><path d="m423.34 286.293 5.99-5.99 5.989 5.99-5.99 5.989zM411.363 238.403l5.99-5.989 5.989 5.99-5.99 5.988zM411.374 250.384l5.99-5.989 5.989 5.99-5.99 5.989zM411.368 262.358l5.99-5.989 5.989 5.99-5.99 5.989z" class="cls-8"/><path d="m411.372 274.323 5.99-5.99 5.989 5.99-5.99 5.989zM411.366 286.297l5.99-5.99 5.989 5.99-5.99 5.989zM399.4 238.407l5.988-5.989 5.99 5.99-5.99 5.989z" class="cls-8"/><path d="m399.4 250.378 5.99-5.989 5.989 5.99-5.99 5.989zM399.394 262.353l5.99-5.99 5.989 5.99-5.99 5.989z" class="cls-8"/><path d="m399.398 274.327 5.99-5.99 5.989 5.99-5.99 5.989z" class="cls-8"/><path d="m399.392 286.29 5.99-5.989 5.989 5.99-5.99 5.989zM387.425 238.401l5.99-5.989 5.988 5.99-5.989 5.989zM387.426 250.383l5.99-5.99 5.989 5.99-5.99 5.989z" class="cls-8"/><path d="m387.43 262.347 5.99-5.99 5.989 5.99-5.99 5.989zM387.424 274.32l5.99-5.989 5.989 5.99-5.99 5.989z" class="cls-8"/><path d="m387.428 286.295 5.99-5.99 5.989 5.99-5.99 5.989zM375.45 238.405l5.99-5.989 5.99 5.99-5.99 5.989zM375.462 250.377l5.99-5.99 5.988 5.99-5.989 5.989zM375.456 262.35l5.99-5.989 5.989 5.99-5.99 5.989z" class="cls-8"/><path d="m375.46 274.325 5.99-5.99 5.989 5.99-5.99 5.989z" class="cls-8"/><path d="m375.454 286.289 5.99-5.99 5.989 5.99-5.99 5.989zM363.33 238.396l5.99-5.99 5.99 5.99-5.99 5.989zM363.342 250.377l5.99-5.99 5.988 5.99-5.989 5.989zM363.336 262.35l5.99-5.988 5.988 5.989-5.989 5.989z" class="cls-8"/><path d="m363.34 274.315 5.99-5.99 5.988 5.99-5.989 5.99z" class="cls-8"/><path d="m363.334 286.289 5.99-5.99 5.989 5.99-5.99 5.99zM578.26 292.28h-35.13M578.26 272.81h-35.13M578.26 252.62h-35.13M578.26 232.42h-35.13M314.49 152.4h36.84v36.84h-36.84zM314.49 115.56h36.84v36.84h-36.84zM277.65 152.4h36.84v36.84h-36.84zM277.65 115.56h36.84v36.84h-36.84z" class="cls-8"/><path d="M240.82 152.4h36.84v36.84h-36.84zM240.82 115.56h36.84v36.84h-36.84z" class="cls-8"/><path d="M203.98 152.4h36.84v36.84h-36.84zM203.98 115.56h36.84v36.84h-36.84z" class="cls-8"/><path d="M167.15 152.4h36.84v36.84h-36.84zM314.49 189.13h36.84v36.84h-36.84zM277.65 189.13h36.84v36.84h-36.84z" class="cls-8"/><path d="M240.82 189.13h36.84v36.84h-36.84z" class="cls-8"/><path d="M203.98 189.13h36.84v36.84h-36.84z" class="cls-8"/><path d="M167.15 189.13h36.84v36.84h-36.84zM167.15 115.56h36.84v36.84h-36.84zM314.49 78.73h36.84v36.84h-36.84zM277.65 78.73h36.84v36.84h-36.84z" class="cls-8"/><path d="M240.82 78.73h36.84v36.84h-36.84z" class="cls-8"/><path d="M203.98 78.73h36.84v36.84h-36.84z" class="cls-8"/><path d="M659.11 465.43h-57.29l-.2-12.76h-52.95v12.76h-57.4v-12.76H457.3V298.75h216.85v153.92h-15.04z" class="cls-7"/><path d="M191.45 232.42h168.9v66.33h90.57v153.92h-4.72v12.76h-59.48v-12.88h-45.07v12.88h-59.53v-12.76h-45.07v12.76h-59.53v-12.76h-9.35V300.5h-12.76v152.17h-17.43v12.76H76.75v-12.76H44.86V176.29h110.55v90.19h12.76v-34.06z" style="fill:url(#Nouveau_motif_3-2);stroke:#343434;stroke-width:.05px;stroke-miterlimit:10;opacity:.6"/><path d="M666.32 84.45h8.47v8.47h-8.47zM666.32 92.92h8.47v8.47h-8.47z" class="cls-8"/><path d="M666.32 101.38h8.47v8.47h-8.47zM666.32 109.85h8.47v8.47h-8.47z" class="cls-8"/><path d="M666.32 118.31h8.47v8.47h-8.47zM666.32 126.78h8.47v8.47h-8.47z" class="cls-8"/><path d="M666.32 135.24h8.47v8.47h-8.47zM666.32 143.71h8.47v8.47h-8.47zM666.32 152.18h8.47v8.47h-8.47z" class="cls-8"/><path d="M666.32 160.62h8.47v8.47h-8.47zM666.32 169.09h8.47v8.47h-8.47z" class="cls-8"/><path d="M666.32 177.55h8.47v8.47h-8.47zM666.32 186.02h8.47v8.47h-8.47z" class="cls-8"/><path d="M666.32 194.48h8.47v8.47h-8.47zM666.32 202.95h8.47v8.47h-8.47z" class="cls-8"/><path d="M666.32 211.41h8.47v8.47h-8.47zM666.32 219.88h8.47v8.47h-8.47zM657.9 84.45h8.47v8.47h-8.47zM657.9 92.92h8.47v8.47h-8.47z" class="cls-8"/><path d="M657.9 101.38h8.47v8.47h-8.47zM657.9 109.85h8.47v8.47h-8.47z" class="cls-8"/><path d="M657.9 118.31h8.47v8.47h-8.47zM657.9 126.78h8.47v8.47h-8.47z" class="cls-8"/><path d="M657.9 135.24h8.47v8.47h-8.47zM657.9 143.71h8.47v8.47h-8.47zM657.9 152.18h8.47v8.47h-8.47z" class="cls-8"/><path d="M657.9 160.62h8.47v8.47h-8.47zM657.9 169.09h8.47v8.47h-8.47z" class="cls-8"/><path d="M657.9 177.55h8.47v8.47h-8.47zM657.9 186.02h8.47v8.47h-8.47z" class="cls-8"/><path d="M657.9 194.48h8.47v8.47h-8.47zM657.9 202.95h8.47v8.47h-8.47z" class="cls-8"/><path d="M657.9 211.41h8.47v8.47h-8.47zM657.9 219.88h8.47v8.47h-8.47zM649.44 84.45h8.47v8.47h-8.47zM649.44 92.92h8.47v8.47h-8.47z" class="cls-8"/><path d="M649.44 101.38h8.47v8.47h-8.47zM649.44 109.85h8.47v8.47h-8.47z" class="cls-8"/><path d="M649.44 118.31h8.47v8.47h-8.47zM649.44 126.78h8.47v8.47h-8.47z" class="cls-8"/><path d="M649.44 135.24h8.47v8.47h-8.47zM649.44 143.71h8.47v8.47h-8.47zM649.44 152.18h8.47v8.47h-8.47z" class="cls-8"/><path d="M649.44 160.62h8.47v8.47h-8.47zM649.44 169.09h8.47v8.47h-8.47z" class="cls-8"/><path d="M649.44 177.55h8.47v8.47h-8.47zM649.44 186.02h8.47v8.47h-8.47z" class="cls-8"/><path d="M649.44 194.48h8.47v8.47h-8.47zM649.44 202.95h8.47v8.47h-8.47z" class="cls-8"/><path d="M649.44 211.41h8.47v8.47h-8.47zM649.44 219.88h8.47v8.47h-8.47zM640.97 84.45h8.47v8.47h-8.47zM640.97 92.92h8.47v8.47h-8.47z" class="cls-8"/><path d="M640.97 101.38h8.47v8.47h-8.47zM640.97 109.85h8.47v8.47h-8.47z" class="cls-8"/><path d="M640.97 118.31h8.47v8.47h-8.47zM640.97 126.78h8.47v8.47h-8.47z" class="cls-8"/><path d="M640.97 135.24h8.47v8.47h-8.47zM640.97 143.71h8.47v8.47h-8.47zM640.97 152.18h8.47v8.47h-8.47z" class="cls-8"/><path d="M640.97 160.62h8.47v8.47h-8.47zM640.97 169.09h8.47v8.47h-8.47z" class="cls-8"/><path d="M640.97 177.55h8.47v8.47h-8.47zM640.97 186.02h8.47v8.47h-8.47z" class="cls-8"/><path d="M640.97 194.48h8.47v8.47h-8.47zM640.97 202.95h8.47v8.47h-8.47z" class="cls-8"/><path d="M640.97 211.41h8.47v8.47h-8.47zM640.97 219.88h8.47v8.47h-8.47zM632.51 84.45h8.47v8.47h-8.47zM632.51 92.92h8.47v8.47h-8.47z" class="cls-8"/><path d="M632.51 101.38h8.47v8.47h-8.47zM632.51 109.85h8.47v8.47h-8.47z" class="cls-8"/><path d="M632.51 118.31h8.47v8.47h-8.47zM632.51 126.78h8.47v8.47h-8.47z" class="cls-8"/><path d="M632.51 135.24h8.47v8.47h-8.47zM632.51 143.71h8.47v8.47h-8.47zM632.51 152.18h8.47v8.47h-8.47z" class="cls-8"/><path d="M632.51 160.62h8.47v8.47h-8.47zM632.51 169.09h8.47v8.47h-8.47z" class="cls-8"/><path d="M632.51 177.55h8.47v8.47h-8.47zM632.51 186.02h8.47v8.47h-8.47z" class="cls-8"/><path d="M632.51 194.48h8.47v8.47h-8.47zM632.51 202.95h8.47v8.47h-8.47z" class="cls-8"/><path d="M632.51 211.41h8.47v8.47h-8.47zM632.51 219.88h8.47v8.47h-8.47zM624.04 84.45h8.47v8.47h-8.47zM624.04 92.92h8.47v8.47h-8.47z" class="cls-8"/><path d="M624.04 101.38h8.47v8.47h-8.47zM624.04 109.85h8.47v8.47h-8.47z" class="cls-8"/><path d="M624.04 118.31h8.47v8.47h-8.47zM624.04 126.78h8.47v8.47h-8.47z" class="cls-8"/><path d="M624.04 135.24h8.47v8.47h-8.47zM624.04 143.71h8.47v8.47h-8.47zM624.04 152.18h8.47v8.47h-8.47z" class="cls-8"/><path d="M624.04 160.62h8.47v8.47h-8.47zM624.04 169.09h8.47v8.47h-8.47z" class="cls-8"/><path d="M624.04 177.55h8.47v8.47h-8.47zM624.04 186.02h8.47v8.47h-8.47z" class="cls-8"/><path d="M624.04 194.48h8.47v8.47h-8.47zM624.04 202.95h8.47v8.47h-8.47z" class="cls-8"/><path d="M624.04 211.41h8.47v8.47h-8.47zM624.04 219.88h8.47v8.47h-8.47zM615.58 84.45h8.47v8.47h-8.47zM615.58 92.92h8.47v8.47h-8.47z" class="cls-8"/><path d="M615.58 101.38h8.47v8.47h-8.47zM615.58 109.85h8.47v8.47h-8.47z" class="cls-8"/><path d="M615.58 118.31h8.47v8.47h-8.47zM615.58 126.78h8.47v8.47h-8.47z" class="cls-8"/><path d="M615.58 135.24h8.47v8.47h-8.47zM615.58 143.71h8.47v8.47h-8.47zM615.58 152.18h8.47v8.47h-8.47z" class="cls-8"/><path d="M615.58 160.62h8.47v8.47h-8.47zM615.58 169.09h8.47v8.47h-8.47z" class="cls-8"/><path d="M615.58 177.55h8.47v8.47h-8.47zM615.58 186.02h8.47v8.47h-8.47z" class="cls-8"/><path d="M615.58 194.48h8.47v8.47h-8.47zM615.58 202.95h8.47v8.47h-8.47z" class="cls-8"/><path d="M615.58 211.41h8.47v8.47h-8.47zM615.58 219.88h8.47v8.47h-8.47zM607.11 84.46h8.47v8.47h-8.47zM607.11 92.93h8.47v8.47h-8.47z" class="cls-8"/><path d="M607.11 101.39h8.47v8.47h-8.47zM607.11 109.86h8.47v8.47h-8.47z" class="cls-8"/><path d="M607.11 118.32h8.47v8.47h-8.47zM607.11 126.79h8.47v8.47h-8.47z" class="cls-8"/><path d="M607.11 135.25h8.47v8.47h-8.47zM607.11 143.72h8.47v8.47h-8.47z" class="cls-8"/><path d="M607.11 152.18h8.47v8.47h-8.47z" class="cls-8"/><path d="M607.11 160.63h8.47v8.47h-8.47zM607.11 169.1h8.47v8.47h-8.47z" class="cls-8"/><path d="M607.11 177.56h8.47v8.47h-8.47zM607.11 186.03h8.47v8.47h-8.47z" class="cls-8"/><path d="M607.11 194.49h8.47v8.47h-8.47zM607.11 202.96h8.47v8.47h-8.47z" class="cls-8"/><path d="M607.11 211.42h8.47v8.47h-8.47zM607.11 219.89h8.47v8.47h-8.47zM598.69 84.46h8.47v8.47h-8.47zM598.69 92.93h8.47v8.47h-8.47z" class="cls-8"/><path d="M598.69 101.39h8.47v8.47h-8.47zM598.69 109.86h8.47v8.47h-8.47z" class="cls-8"/><path d="M598.69 118.32h8.47v8.47h-8.47zM598.69 126.79h8.47v8.47h-8.47z" class="cls-8"/><path d="M598.69 135.25h8.47v8.47h-8.47zM598.69 143.72h8.47v8.47h-8.47z" class="cls-8"/><path d="M598.69 152.18h8.47v8.47h-8.47z" class="cls-8"/><path d="M598.69 160.63h8.47v8.47h-8.47zM598.69 169.1h8.47v8.47h-8.47z" class="cls-8"/><path d="M598.69 177.56h8.47v8.47h-8.47zM598.69 186.03h8.47v8.47h-8.47z" class="cls-8"/><path d="M598.69 194.49h8.47v8.47h-8.47zM598.69 202.96h8.47v8.47h-8.47z" class="cls-8"/><path d="M598.69 211.42h8.47v8.47h-8.47zM598.69 219.89h8.47v8.47h-8.47zM590.22 84.46h8.47v8.47h-8.47zM590.22 92.93h8.47v8.47h-8.47z" class="cls-8"/><path d="M590.22 101.39h8.47v8.47h-8.47zM590.22 109.86h8.47v8.47h-8.47z" class="cls-8"/><path d="M590.22 118.32h8.47v8.47h-8.47zM590.22 126.79h8.47v8.47h-8.47z" class="cls-8"/><path d="M590.22 135.25h8.47v8.47h-8.47zM590.22 143.72h8.47v8.47h-8.47z" class="cls-8"/><path d="M590.22 152.18h8.47v8.47h-8.47z" class="cls-8"/><path d="M590.22 160.63h8.47v8.47h-8.47zM590.22 169.1h8.47v8.47h-8.47z" class="cls-8"/><path d="M590.22 177.56h8.47v8.47h-8.47zM590.22 186.03h8.47v8.47h-8.47z" class="cls-8"/><path d="M590.22 194.49h8.47v8.47h-8.47zM590.22 202.96h8.47v8.47h-8.47z" class="cls-8"/><path d="M590.22 211.42h8.47v8.47h-8.47zM590.22 219.89h8.47v8.47h-8.47zM581.76 84.46h8.47v8.47h-8.47zM581.76 92.93h8.47v8.47h-8.47z" class="cls-8"/><path d="M581.76 101.39h8.47v8.47h-8.47zM581.76 109.86h8.47v8.47h-8.47z" class="cls-8"/><path d="M581.76 118.32h8.47v8.47h-8.47zM581.76 126.79h8.47v8.47h-8.47z" class="cls-8"/><path d="M581.76 135.25h8.47v8.47h-8.47zM581.76 143.72h8.47v8.47h-8.47z" class="cls-8"/><path d="M581.76 152.18h8.47v8.47h-8.47z" class="cls-8"/><path d="M581.76 160.63h8.47v8.47h-8.47zM581.76 169.1h8.47v8.47h-8.47z" class="cls-8"/><path d="M581.76 177.56h8.47v8.47h-8.47zM581.76 186.03h8.47v8.47h-8.47z" class="cls-8"/><path d="M581.76 194.49h8.47v8.47h-8.47zM581.76 202.96h8.47v8.47h-8.47z" class="cls-8"/><path d="M581.76 211.42h8.47v8.47h-8.47zM581.76 219.89h8.47v8.47h-8.47zM573.29 84.46h8.47v8.47h-8.47zM573.29 92.93h8.47v8.47h-8.47z" class="cls-8"/><path d="M573.29 101.39h8.47v8.47h-8.47zM573.29 109.86h8.47v8.47h-8.47z" class="cls-8"/><path d="M573.29 118.32h8.47v8.47h-8.47zM573.29 126.79h8.47v8.47h-8.47z" class="cls-8"/><path d="M573.29 135.25h8.47v8.47h-8.47zM573.29 143.72h8.47v8.47h-8.47z" class="cls-8"/><path d="M573.29 152.18h8.47v8.47h-8.47z" class="cls-8"/><path d="M573.29 160.63h8.47v8.47h-8.47zM573.29 169.1h8.47v8.47h-8.47z" class="cls-8"/><path d="M573.29 177.56h8.47v8.47h-8.47zM573.29 186.03h8.47v8.47h-8.47z" class="cls-8"/><path d="M573.29 194.49h8.47v8.47h-8.47zM573.29 202.96h8.47v8.47h-8.47z" class="cls-8"/><path d="M573.29 211.42h8.47v8.47h-8.47zM573.29 219.89h8.47v8.47h-8.47zM564.83 84.46h8.47v8.47h-8.47zM564.83 92.93h8.47v8.47h-8.47z" class="cls-8"/><path d="M564.83 101.39h8.47v8.47h-8.47zM564.83 109.86h8.47v8.47h-8.47z" class="cls-8"/><path d="M564.83 118.32h8.47v8.47h-8.47zM564.83 126.79h8.47v8.47h-8.47z" class="cls-8"/><path d="M564.83 135.25h8.47v8.47h-8.47zM564.83 143.72h8.47v8.47h-8.47z" class="cls-8"/><path d="M564.83 152.18h8.47v8.47h-8.47z" class="cls-8"/><path d="M564.83 160.63h8.47v8.47h-8.47zM564.83 169.1h8.47v8.47h-8.47z" class="cls-8"/><path d="M564.83 177.56h8.47v8.47h-8.47zM564.83 186.03h8.47v8.47h-8.47z" class="cls-8"/><path d="M564.83 194.49h8.47v8.47h-8.47zM564.83 202.96h8.47v8.47h-8.47z" class="cls-8"/><path d="M564.83 211.42h8.47v8.47h-8.47zM564.83 219.89h8.47v8.47h-8.47zM556.36 84.46h8.47v8.47h-8.47zM556.36 92.93h8.47v8.47h-8.47z" class="cls-8"/><path d="M556.36 101.39h8.47v8.47h-8.47zM556.36 109.86h8.47v8.47h-8.47z" class="cls-8"/><path d="M556.36 118.32h8.47v8.47h-8.47zM556.36 126.79h8.47v8.47h-8.47z" class="cls-8"/><path d="M556.36 135.25h8.47v8.47h-8.47zM556.36 143.72h8.47v8.47h-8.47z" class="cls-8"/><path d="M556.36 152.18h8.47v8.47h-8.47z" class="cls-8"/><path d="M556.36 160.63h8.47v8.47h-8.47zM556.36 169.1h8.47v8.47h-8.47z" class="cls-8"/><path d="M556.36 177.56h8.47v8.47h-8.47zM556.36 186.03h8.47v8.47h-8.47z" class="cls-8"/><path d="M556.36 194.49h8.47v8.47h-8.47zM556.36 202.96h8.47v8.47h-8.47z" class="cls-8"/><path d="M556.36 211.42h8.47v8.47h-8.47zM556.36 219.89h8.47v8.47h-8.47zM547.9 84.46h8.47v8.47h-8.47zM547.9 92.93h8.47v8.47h-8.47z" class="cls-8"/><path d="M547.9 101.39h8.47v8.47h-8.47zM547.9 109.86h8.47v8.47h-8.47z" class="cls-8"/><path d="M547.9 118.32h8.47v8.47h-8.47zM547.9 126.79h8.47v8.47h-8.47z" class="cls-8"/><path d="M547.9 135.25h8.47v8.47h-8.47zM547.9 143.72h8.47v8.47h-8.47z" class="cls-8"/><path d="M547.9 152.18h8.47v8.47h-8.47z" class="cls-8"/><path d="M547.9 160.63h8.47v8.47h-8.47zM547.9 169.1h8.47v8.47h-8.47z" class="cls-8"/><path d="M547.9 177.56h8.47v8.47h-8.47zM547.9 186.03h8.47v8.47h-8.47z" class="cls-8"/><path d="M547.9 194.49h8.47v8.47h-8.47zM547.9 202.96h8.47v8.47h-8.47z" class="cls-8"/><path d="M547.9 211.42h8.47v8.47h-8.47zM547.9 219.89h8.47v8.47h-8.47zM539.48 84.46h8.47v8.47h-8.47zM539.48 92.93h8.47v8.47h-8.47z" class="cls-8"/><path d="M539.48 101.39h8.47v8.47h-8.47zM539.48 109.86h8.47v8.47h-8.47z" class="cls-8"/><path d="M539.48 118.32h8.47v8.47h-8.47zM539.48 126.79h8.47v8.47h-8.47z" class="cls-8"/><path d="M539.48 135.25h8.47v8.47h-8.47zM539.48 143.72h8.47v8.47h-8.47z" class="cls-8"/><path d="M539.48 152.18h8.47v8.47h-8.47z" class="cls-8"/><path d="M539.48 160.63h8.47v8.47h-8.47zM539.48 169.1h8.47v8.47h-8.47z" class="cls-8"/><path d="M539.48 177.56h8.47v8.47h-8.47zM539.48 186.03h8.47v8.47h-8.47z" class="cls-8"/><path d="M539.48 194.49h8.47v8.47h-8.47zM539.48 202.96h8.47v8.47h-8.47z" class="cls-8"/><path d="M539.48 211.42h8.47v8.47h-8.47zM539.48 219.89h8.47v8.47h-8.47zM531.01 84.46h8.47v8.47h-8.47zM531.01 92.93h8.47v8.47h-8.47z" class="cls-8"/><path d="M531.01 101.39h8.47v8.47h-8.47zM531.01 109.86h8.47v8.47h-8.47z" class="cls-8"/><path d="M531.01 118.32h8.47v8.47h-8.47zM531.01 126.79h8.47v8.47h-8.47z" class="cls-8"/><path d="M531.01 135.25h8.47v8.47h-8.47zM531.01 143.72h8.47v8.47h-8.47z" class="cls-8"/><path d="M531.01 152.18h8.47v8.47h-8.47z" class="cls-8"/><path d="M531.01 160.63h8.47v8.47h-8.47zM531.01 169.1h8.47v8.47h-8.47z" class="cls-8"/><path d="M531.01 177.56h8.47v8.47h-8.47zM531.01 186.03h8.47v8.47h-8.47z" class="cls-8"/><path d="M531.01 194.49h8.47v8.47h-8.47zM531.01 202.96h8.47v8.47h-8.47z" class="cls-8"/><path d="M531.01 211.42h8.47v8.47h-8.47zM531.01 219.89h8.47v8.47h-8.47zM522.55 84.46h8.47v8.47h-8.47zM522.55 92.93h8.47v8.47h-8.47z" class="cls-8"/><path d="M522.55 101.39h8.47v8.47h-8.47zM522.55 109.86h8.47v8.47h-8.47z" class="cls-8"/><path d="M522.55 118.32h8.47v8.47h-8.47zM522.55 126.79h8.47v8.47h-8.47z" class="cls-8"/><path d="M522.55 135.25h8.47v8.47h-8.47zM522.55 143.72h8.47v8.47h-8.47z" class="cls-8"/><path d="M522.55 152.18h8.47v8.47h-8.47z" class="cls-8"/><path d="M522.55 160.63h8.47v8.47h-8.47zM522.55 169.1h8.47v8.47h-8.47z" class="cls-8"/><path d="M522.55 177.56h8.47v8.47h-8.47zM522.55 186.03h8.47v8.47h-8.47z" class="cls-8"/><path d="M522.55 194.49h8.47v8.47h-8.47zM522.55 202.96h8.47v8.47h-8.47z" class="cls-8"/><path d="M522.55 211.42h8.47v8.47h-8.47zM522.55 219.89h8.47v8.47h-8.47zM514.08 84.46h8.47v8.47h-8.47zM514.08 92.93h8.47v8.47h-8.47z" class="cls-8"/><path d="M514.08 101.39h8.47v8.47h-8.47zM514.08 109.86h8.47v8.47h-8.47z" class="cls-8"/><path d="M514.08 118.32h8.47v8.47h-8.47zM514.08 126.79h8.47v8.47h-8.47z" class="cls-8"/><path d="M514.08 135.25h8.47v8.47h-8.47zM514.08 143.72h8.47v8.47h-8.47z" class="cls-8"/><path d="M514.08 152.18h8.47v8.47h-8.47z" class="cls-8"/><path d="M514.08 160.63h8.47v8.47h-8.47zM514.08 169.1h8.47v8.47h-8.47z" class="cls-8"/><path d="M514.08 177.56h8.47v8.47h-8.47zM514.08 186.03h8.47v8.47h-8.47z" class="cls-8"/><path d="M514.08 194.49h8.47v8.47h-8.47zM514.08 202.96h8.47v8.47h-8.47z" class="cls-8"/><path d="M514.08 211.42h8.47v8.47h-8.47zM514.08 219.89h8.47v8.47h-8.47zM505.62 84.46h8.47v8.47h-8.47zM505.62 92.93h8.47v8.47h-8.47z" class="cls-8"/><path d="M505.62 101.39h8.47v8.47h-8.47zM505.62 109.86h8.47v8.47h-8.47z" class="cls-8"/><path d="M505.62 118.32h8.47v8.47h-8.47zM505.62 126.79h8.47v8.47h-8.47z" class="cls-8"/><path d="M505.62 135.25h8.47v8.47h-8.47zM505.62 143.72h8.47v8.47h-8.47z" class="cls-8"/><path d="M505.62 152.18h8.47v8.47h-8.47z" class="cls-8"/><path d="M505.62 160.63h8.47v8.47h-8.47zM505.62 169.1h8.47v8.47h-8.47z" class="cls-8"/><path d="M505.62 177.56h8.47v8.47h-8.47zM505.62 186.03h8.47v8.47h-8.47z" class="cls-8"/><path d="M505.62 194.49h8.47v8.47h-8.47zM505.62 202.96h8.47v8.47h-8.47z" class="cls-8"/><path d="M505.62 211.42h8.47v8.47h-8.47zM505.62 219.89h8.47v8.47h-8.47zM497.15 84.46h8.47v8.47h-8.47zM497.15 92.93h8.47v8.47h-8.47z" class="cls-8"/><path d="M497.15 101.39h8.47v8.47h-8.47zM497.15 109.86h8.47v8.47h-8.47z" class="cls-8"/><path d="M497.15 118.32h8.47v8.47h-8.47zM497.15 126.79h8.47v8.47h-8.47z" class="cls-8"/><path d="M497.15 135.25h8.47v8.47h-8.47zM497.15 143.72h8.47v8.47h-8.47z" class="cls-8"/><path d="M497.15 152.18h8.47v8.47h-8.47z" class="cls-8"/><path d="M497.15 160.63h8.47v8.47h-8.47zM497.15 169.1h8.47v8.47h-8.47z" class="cls-8"/><path d="M497.15 177.56h8.47v8.47h-8.47zM497.15 186.03h8.47v8.47h-8.47z" class="cls-8"/><path d="M497.15 194.49h8.47v8.47h-8.47zM497.15 202.96h8.47v8.47h-8.47z" class="cls-8"/><path d="M497.15 211.42h8.47v8.47h-8.47zM497.15 219.89h8.47v8.47h-8.47zM488.73 84.46h8.47v8.47h-8.47zM488.73 92.93h8.47v8.47h-8.47z" class="cls-8"/><path d="M488.73 101.39h8.47v8.47h-8.47zM488.73 109.86h8.47v8.47h-8.47z" class="cls-8"/><path d="M488.73 118.32h8.47v8.47h-8.47zM488.73 126.79h8.47v8.47h-8.47z" class="cls-8"/><path d="M488.73 135.25h8.47v8.47h-8.47zM488.73 143.72h8.47v8.47h-8.47z" class="cls-8"/><path d="M488.73 152.18h8.47v8.47h-8.47z" class="cls-8"/><path d="M488.73 160.63h8.47v8.47h-8.47zM488.73 169.1h8.47v8.47h-8.47z" class="cls-8"/><path d="M488.73 177.56h8.47v8.47h-8.47zM488.73 186.03h8.47v8.47h-8.47z" class="cls-8"/><path d="M488.73 194.49h8.47v8.47h-8.47zM488.73 202.96h8.47v8.47h-8.47z" class="cls-8"/><path d="M488.73 211.42h8.47v8.47h-8.47zM488.73 219.89h8.47v8.47h-8.47zM480.31 84.46h8.47v8.47h-8.47zM480.31 92.93h8.47v8.47h-8.47z" class="cls-8"/><path d="M480.31 101.39h8.47v8.47h-8.47zM480.31 109.86h8.47v8.47h-8.47z" class="cls-8"/><path d="M480.31 118.32h8.47v8.47h-8.47zM480.31 126.79h8.47v8.47h-8.47z" class="cls-8"/><path d="M480.31 135.25h8.47v8.47h-8.47zM480.31 143.72h8.47v8.47h-8.47z" class="cls-8"/><path d="M480.31 152.18h8.47v8.47h-8.47z" class="cls-8"/><path d="M480.31 160.63h8.47v8.47h-8.47zM480.31 169.1h8.47v8.47h-8.47z" class="cls-8"/><path d="M480.31 177.56h8.47v8.47h-8.47zM480.31 186.03h8.47v8.47h-8.47z" class="cls-8"/><path d="M480.31 194.49h8.47v8.47h-8.47zM480.31 202.96h8.47v8.47h-8.47z" class="cls-8"/><path d="M480.31 211.42h8.47v8.47h-8.47zM480.31 219.89h8.47v8.47h-8.47zM471.85 84.46h8.47v8.47h-8.47zM471.85 92.93h8.47v8.47h-8.47z" class="cls-8"/><path d="M471.85 101.39h8.47v8.47h-8.47zM471.85 109.86h8.47v8.47h-8.47z" class="cls-8"/><path d="M471.85 118.32h8.47v8.47h-8.47zM471.85 126.79h8.47v8.47h-8.47z" class="cls-8"/><path d="M471.85 135.25h8.47v8.47h-8.47zM471.85 143.72h8.47v8.47h-8.47z" class="cls-8"/><path d="M471.85 152.18h8.47v8.47h-8.47z" class="cls-8"/><path d="M471.85 160.63h8.47v8.47h-8.47zM471.85 169.1h8.47v8.47h-8.47z" class="cls-8"/><path d="M471.85 177.56h8.47v8.47h-8.47zM471.85 186.03h8.47v8.47h-8.47z" class="cls-8"/><path d="M471.85 194.49h8.47v8.47h-8.47zM471.85 202.96h8.47v8.47h-8.47z" class="cls-8"/><path d="M471.85 211.42h8.47v8.47h-8.47zM471.85 219.89h8.47v8.47h-8.47zM463.38 84.46h8.47v8.47h-8.47zM463.38 92.93h8.47v8.47h-8.47z" class="cls-8"/><path d="M463.38 101.39h8.47v8.47h-8.47zM463.38 109.86h8.47v8.47h-8.47z" class="cls-8"/><path d="M463.38 118.32h8.47v8.47h-8.47zM463.38 126.79h8.47v8.47h-8.47z" class="cls-8"/><path d="M463.38 135.25h8.47v8.47h-8.47zM463.38 143.72h8.47v8.47h-8.47z" class="cls-8"/><path d="M463.38 152.18h8.47v8.47h-8.47z" class="cls-8"/><path d="M463.38 160.63h8.47v8.47h-8.47zM463.38 169.1h8.47v8.47h-8.47z" class="cls-8"/><path d="M463.38 177.56h8.47v8.47h-8.47zM463.38 186.03h8.47v8.47h-8.47z" class="cls-8"/><path d="M463.38 194.49h8.47v8.47h-8.47zM463.38 202.96h8.47v8.47h-8.47z" class="cls-8"/><path d="M463.38 211.42h8.47v8.47h-8.47zM463.38 219.89h8.47v8.47h-8.47zM454.92 84.46h8.47v8.47h-8.47zM454.92 92.93h8.47v8.47h-8.47z" class="cls-8"/><path d="M454.92 101.39h8.47v8.47h-8.47zM454.92 109.86h8.47v8.47h-8.47z" class="cls-8"/><path d="M454.92 118.32h8.47v8.47h-8.47zM454.92 126.79h8.47v8.47h-8.47z" class="cls-8"/><path d="M454.92 135.25h8.47v8.47h-8.47zM454.92 143.72h8.47v8.47h-8.47z" class="cls-8"/><path d="M454.92 152.18h8.47v8.47h-8.47z" class="cls-8"/><path d="M454.92 160.63h8.47v8.47h-8.47zM454.92 169.1h8.47v8.47h-8.47z" class="cls-8"/><path d="M454.92 177.56h8.47v8.47h-8.47zM454.92 186.03h8.47v8.47h-8.47z" class="cls-8"/><path d="M454.92 194.49h8.47v8.47h-8.47zM454.92 202.96h8.47v8.47h-8.47z" class="cls-8"/><path d="M454.92 211.42h8.47v8.47h-8.47zM454.92 219.89h8.47v8.47h-8.47zM446.45 84.46h8.47v8.47h-8.47zM446.45 92.93h8.47v8.47h-8.47z" class="cls-8"/><path d="M446.45 101.39h8.47v8.47h-8.47zM446.45 109.86h8.47v8.47h-8.47z" class="cls-8"/><path d="M446.45 118.32h8.47v8.47h-8.47zM446.45 126.79h8.47v8.47h-8.47z" class="cls-8"/><path d="M446.45 135.25h8.47v8.47h-8.47zM437.99 84.46h8.47v8.47h-8.47zM437.99 92.93h8.47v8.47h-8.47z" class="cls-8"/><path d="M437.99 101.39h8.47v8.47h-8.47zM437.99 109.86h8.47v8.47h-8.47z" class="cls-8"/><path d="M437.99 118.32h8.47v8.47h-8.47zM437.99 126.79h8.47v8.47h-8.47z" class="cls-8"/><path d="M437.99 135.25h8.47v8.47h-8.47zM429.51 84.46h8.47v8.47h-8.47zM429.51 92.93h8.47v8.47h-8.47z" class="cls-8"/><path d="M429.51 101.39h8.47v8.47h-8.47zM429.51 109.86h8.47v8.47h-8.47z" class="cls-8"/><path d="M429.51 118.32h8.47v8.47h-8.47zM429.51 126.79h8.47v8.47h-8.47z" class="cls-8"/><path d="M429.51 135.25h8.47v8.47h-8.47zM421.05 84.46h8.47v8.47h-8.47zM421.05 92.93h8.47v8.47h-8.47z" class="cls-8"/><path d="M421.05 101.39h8.47v8.47h-8.47zM421.05 109.86h8.47v8.47h-8.47z" class="cls-8"/><path d="M421.05 118.32h8.47v8.47h-8.47zM421.05 126.79h8.47v8.47h-8.47z" class="cls-8"/><path d="M421.05 135.25h8.47v8.47h-8.47zM412.58 84.46h8.47v8.47h-8.47zM412.58 92.93h8.47v8.47h-8.47z" class="cls-8"/><path d="M412.58 101.39h8.47v8.47h-8.47zM412.58 109.86h8.47v8.47h-8.47z" class="cls-8"/><path d="M412.58 118.32h8.47v8.47h-8.47zM412.58 126.79h8.47v8.47h-8.47z" class="cls-8"/><path d="M412.58 135.25h8.47v8.47h-8.47zM404.12 84.46h8.47v8.47h-8.47zM404.12 92.93h8.47v8.47h-8.47z" class="cls-8"/><path d="M404.12 101.39h8.47v8.47h-8.47zM404.12 109.86h8.47v8.47h-8.47z" class="cls-8"/><path d="M404.12 118.32h8.47v8.47h-8.47zM404.12 126.79h8.47v8.47h-8.47z" class="cls-8"/><path d="M404.12 135.25h8.47v8.47h-8.47zM395.65 84.46h8.47v8.47h-8.47zM395.65 92.93h8.47v8.47h-8.47z" class="cls-8"/><path d="M395.65 101.39h8.47v8.47h-8.47zM395.65 109.86h8.47v8.47h-8.47z" class="cls-8"/><path d="M395.65 118.32h8.47v8.47h-8.47zM395.65 126.79h8.47v8.47h-8.47z" class="cls-8"/><path d="M395.65 135.25h8.47v8.47h-8.47zM387.19 84.46h8.47v8.47h-8.47zM387.19 92.93h8.47v8.47h-8.47z" class="cls-8"/><path d="M387.19 101.39h8.47v8.47h-8.47zM387.19 109.86h8.47v8.47h-8.47z" class="cls-8"/><path d="M387.19 118.32h8.47v8.47h-8.47zM387.19 126.79h8.47v8.47h-8.47z" class="cls-8"/><path d="M387.19 135.25h8.47v8.47h-8.47zM378.72 84.46h8.47v8.47h-8.47zM378.72 92.93h8.47v8.47h-8.47z" class="cls-8"/><path d="M378.72 101.39h8.47v8.47h-8.47zM378.72 109.86h8.47v8.47h-8.47z" class="cls-8"/><path d="M378.72 118.32h8.47v8.47h-8.47zM378.72 126.79h8.47v8.47h-8.47z" class="cls-8"/><path d="M378.72 135.25h8.47v8.47h-8.47zM370.25 84.46h8.47v8.47h-8.47z" class="cls-8"/><path d="M370.25 76h8.47v8.47h-8.47z" class="cls-8"/><path d="M361.79 76h8.47v8.47h-8.47zM378.72 76h8.47v8.47h-8.47z" class="cls-8"/><path d="M387.19 76h8.47v8.47h-8.47z" class="cls-8"/><path d="M395.65 76h8.47v8.47h-8.47zM404.12 76h8.47v8.47h-8.47z" class="cls-8"/><path d="M412.58 76h8.47v8.47h-8.47zM421.05 76h8.47v8.47h-8.47z" class="cls-8"/><path d="M429.51 76h8.47v8.47h-8.47zM437.99 76h8.47v8.47h-8.47zM370.25 92.93h8.47v8.47h-8.47z" class="cls-8"/><path d="M370.25 101.39h8.47v8.47h-8.47zM370.25 109.86h8.47v8.47h-8.47z" class="cls-8"/><path d="M370.25 118.32h8.47v8.47h-8.47zM370.25 126.79h8.47v8.47h-8.47z" class="cls-8"/><path d="M370.25 135.25h8.47v8.47h-8.47zM361.79 84.46h8.47v8.47h-8.47zM361.79 92.93h8.47v8.47h-8.47z" class="cls-8"/><path d="M361.79 101.39h8.47v8.47h-8.47zM361.79 109.86h8.47v8.47h-8.47z" class="cls-8"/><path d="M361.79 118.32h8.47v8.47h-8.47zM361.79 126.79h8.47v8.47h-8.47z" class="cls-8"/><path d="M361.79 135.25h8.47v8.47h-8.47zM353.32 84.46h8.47v8.47h-8.47zM353.32 92.93h8.47v8.47h-8.47z" class="cls-8"/><path d="M353.32 101.39h8.47v8.47h-8.47zM353.32 109.86h8.47v8.47h-8.47z" class="cls-8"/><path d="M353.32 118.32h8.47v8.47h-8.47zM353.32 126.79h8.47v8.47h-8.47z" class="cls-8"/><path d="M353.32 135.25h8.47v8.47h-8.47z" class="cls-8"/><path d="M407.54 147h45.4v79.04h-45.4z" class="cls-7"/><path d="M338.46 350.65v85.22h50.32v-85.22z" class="cls-3"/><rect width="18.81" height="19.86" x="532.25" y="392.77" class="cls-15" rx="7.04" ry="7.04" transform="rotate(5.86 541.984 402.924)"/><rect width="18.81" height="19.86" x="559.94" y="393.18" class="cls-15" rx="7.04" ry="7.04" transform="rotate(-12.5 569.592 403.215)"/><rect width="18.81" height="19.32" x="579.55" y="346.02" class="cls-15" rx="7.04" ry="7.04"/><rect width="18.81" height="19.32" x="517.92" y="346.87" class="cls-15" rx="7.04" ry="7.04" transform="rotate(-14.91 527.343 356.527)"/><rect width="113.97" height="40.39" x="373.74" y="375.91" class="cls-15" rx="2.71" ry="2.71" transform="rotate(-90 430.72 396.1)"/><rect width="80.79" height="40.39" x="370.13" y="298.75" class="cls-15" rx="2.71" ry="2.71"/><path d="M172.42 78.5h135.85v27.21H172.42zM308.27 78.44l.14 104.64 43.3.1-.14-104.65z" class="cls-3"/><path d="M44.86 296.87h25.51v86.24H44.86z" class="cls-15"/><ellipse cx="427.66" cy="168.32" class="cls-15" rx="10.3" ry="13.83"/><path d="M407.54 147h45.51v11.53h-45.51z" class="cls-15"/><path d="M585.35 200.53h59.53v25.51h-59.53z" class="cls-3"/><rect width="41.67" height="21.26" x="593.65" y="202.85" class="cls-3" rx=".82" ry=".82"/><path d="m606.537 139.27 11.768 2.814-5.543 23.176-11.768-2.814zM532.757 136.61l11.7 3.081-6.066 23.045-11.701-3.08zM560.26 169.37h24.04v6.54h-24.04zM557.45 115.52h24.04v11.04h-24.04z" class="cls-15"/><path d="M66.12 185.85h68.03v80.63H66.12zM515.65 361.05h98.48v37.14h-98.48zM51.12 303.72c0-.12-.45-.14-.52-.14h-.56c-.19.01-.37.03-.55.07-.07.01-.5.09-.49.21 0 .12.45.14.52.14h.56c.19-.01.37-.03.55-.07.07-.01.5-.09.49-.21M51.12 312.01c.05-.14-.36-.34-.43-.38-.18-.09-.36-.17-.55-.24s-.38-.13-.57-.17c-.08-.02-.52-.12-.57.01s.36.34.43.38c.18.09.36.17.55.24s.38.13.57.17c.08.02.52.12.57-.01M51.12 309.52c.04-.13-.38-.3-.45-.33-.18-.08-.36-.14-.55-.2s-.37-.1-.57-.13c-.07-.01-.52-.09-.56.03s.38.3.45.33c.18.08.36.14.55.2s.37.1.57.13c.07.01.52.09.56-.03M51.12 307.83c.04-.14-.37-.3-.45-.33-.18-.07-.36-.13-.55-.18s-.38-.09-.57-.11c-.08 0-.52-.06-.55.08-.04.14.37.3.45.33.18.07.36.13.55.18s.38.09.57.11c.08 0 .52.06.55-.08M51.12 305.38c.02-.14-.4-.24-.48-.26-.18-.05-.37-.08-.56-.1q-.285-.03-.57-.03c-.08 0-.51 0-.52.15-.02.14.4.24.48.27.18.05.37.08.56.1q.285.03.57.03c.08 0 .51 0 .52-.15ZM51.12 376.76l13.65 2.82M51.12 380.1l13.65 1.32M51.12 374.35l13.65 1.6M66.9 364.12c.05-.18-.29-.36-.4-.42-.18-.1-.37-.17-.57-.23s-.39-.1-.6-.12c-.12 0-.51-.04-.56.14s.29.36.4.42c.18.1.37.17.57.23s.39.1.6.12c.12.01.51.05.56-.14M66.9 380.02c.03-.17-.34-.31-.44-.35-.18-.07-.37-.13-.57-.17-.19-.04-.39-.07-.58-.07-.1 0-.51-.02-.54.15s.34.31.44.35c.18.07.37.13.57.17.19.04.39.07.58.07.1 0 .51.02.54-.15M66.9 381.62c.02-.18-.34-.29-.45-.33a3 3 0 0 0-.58-.11c-.2-.02-.39-.02-.59 0-.12.01-.49.05-.51.24s.34.29.45.33c.19.06.38.09.58.11s.39.02.59 0c.12-.01.49-.05.51-.24M66.9 376.2c.02-.19-.32-.31-.44-.36a2.3 2.3 0 0 0-.58-.13c-.2-.02-.4-.03-.6 0-.12.01-.49.05-.51.24s.32.31.44.35c.19.07.38.11.58.13s.4.03.6 0c.12-.01.49-.05.51-.24ZM51.12 376.76c.03-.17-.34-.31-.44-.35-.18-.07-.37-.13-.57-.17s-.39-.07-.58-.07c-.1 0-.51-.02-.54.15s.34.31.44.35c.18.07.37.13.57.17.19.04.39.07.59.07.1 0 .5.02.54-.15ZM51.12 380.1c.02-.18-.34-.29-.45-.33a3 3 0 0 0-.58-.11c-.2-.02-.39-.02-.59 0-.12.01-.49.05-.51.24s.34.29.45.33c.19.06.38.09.58.11s.39.02.59 0c.12-.01.49-.05.51-.24M51.12 374.38c.02-.19-.32-.31-.44-.35a2.3 2.3 0 0 0-.58-.13c-.2-.02-.4-.03-.6 0-.12.01-.49.05-.51.24s.32.31.44.36c.19.07.38.11.58.13s.4.03.6 0c.12-.01.49-.05.51-.24ZM51.12 359.45l13.65 4.04M70.37 296.87v86.25M44.86 296.87h25.51M44.86 383.12v-86.25M70.37 383.12H44.86M669.69 321.19c0-7.04-5.71-12.76-12.76-12.76s-12.76 5.71-12.76 12.76 5.71 12.76 12.76 12.76 12.76-5.71 12.76-12.76M658.51 437.47c-.61.08-.12 1.09.16 1.75.28.65.36.95.42 2.06.06 1.12.09 3.06.32 4.48s.65 2.35 1.26 2.77c.61.43 1.42.36 2.12.33s1.3-.02 1.92-.15c.61-.14 1.24-.42 1.55-.78s.33-.79.32-1.26c0-.48-.03-1-.33-1.74s-.88-1.71-1.25-2.64-.53-1.84-.91-2.37-.98-.69-2.13-1.19-2.85-1.34-3.46-1.25ZM660.53 434.89c.59.06 1.36.19 2.13.14 1.33-.08 2.64-.73 3.71-1.25s1.91-.9 2.64-1 1.35.1 1.63.65.19 1.47-.09 2.23-.77 1.34-1.46 1.83-1.59.87-2.22 1.05-.99.14-1.58.1-1.41-.09-2.09-.16-1.22-.18-1.64-.31-.71-.29-1.18-.96c-.2-.29-.43-.67-.61-1.04M655.89 436.11l-.06-.03c-.91-.45-2.09-.45-2.68.26s-.59 2.13-.77 3.32-.53 2.15-.63 2.94.05 1.41.44 1.49c.4.08 1.04-.39 1.93-.63.88-.24 2.01-.27 2.6-.57s.66-.88.86-1.52c.19-.65.51-1.36.6-1.88.09-.49-.03-.8-.37-1.36" class="cls-3"/><path d="M657 433.45c-.47 1.31-1.01 2.34-1.33 3.21s-.41 1.57-.38 1.93.18.39.69.27 1.41-.37 2.25-1.02 1.64-1.68 2.31-3 1.22-2.92 1.34-4.28-.17-2.48-.71-3.01-1.34-.46-1.86-.12c-.53.33-.79.94-1.12 2.03s-.73 2.68-1.2 3.99Z" class="cls-3"/><path d="M655.38 437.65c-.23 0-.46-.08-.69-.19-.5-.25-1-.7-1.52-1.18s-1.06-.96-1.36-1.65c-.3-.7-.38-1.6-.32-2.43.05-.83.24-1.59.33-2.19s.09-1.04.32-1.59.68-1.21 1.66 0c.93 1.16 2.33 4.01 2.88 5.89M663.66 434.87c-.13-1.63-.67-2.86-1.79-4.05M662.62 439c.11-.17.22-.35.31-.54M657.39 442.04c.6-.03 1.16-.14 1.73-.33" class="cls-3"/><path d="M658.39 428.87c-1.43-.3-2.66-.18-4 .4M651.55 431.6a6.655 6.655 0 0 0 .76 8.49M601.82 452.67v-17.43h-53.15v17.43M168.37 303.85h17.44v72.29h-17.44M155.41 376.14h-17.43v-72.29h17.43M227.94 232.42h85.04v8.5h-85.04zM146.69 384.47h8.72v59.88h-8.72zM73.1 206.35h-6.98M103.91 206.35h-9.13M134.15 206.35h-7.91M72.18 189.26c1.41.22 4.19 1.06 6.47 1.45s4.06.33 5.49.06c1.43-.28 2.51-.77 3.35-.96s1.43-.08 2.05-.09 1.26-.16 1.82-.34 1.04-.42 1.46-.58.79-.26 1.2-.32.86-.09 1.2-.1c.34 0 .56.02.7.13.14.12.19.32.2.53s-.02.41-.09.75c-.07.35-.19.84-.31 1.23s-.23.67-.36 1.04-.28.83-.4 1.26c-.12.42-.21.8-.57 1.34s-.99 1.25-1.03 2.48.5 2.97.74 4.06.17 1.53.13 1.91-.06.7.02 1 .25.57.36 1.17c.12.6.17 1.51.31 2.04.13.53.33.68.54.94s.44.63.7.88.57.38.76.63c.19.26.25.64.16.84-.1.2-.36.2-.62.23-.26.02-.52.06-1.13.02s-1.56-.16-2.34-.28-1.38-.23-1.93-.54c-.54-.31-1.03-.83-1.83-1.06s-1.92-.18-2.74-.03c-.83.15-1.36.4-2.17.56-.8.17-1.88.26-2.75.45-.88.19-1.55.49-2.22.55s-1.32-.13-2.12-.24c-.79-.11-1.72-.15-2.4-.17s-1.1-.02-1.83-.03c-.73 0-1.75-.02-2.2-.26-.44-.24-.3-.7-.13-1.01s.37-.48.67-.72c.29-.25.68-.57 1.06-.94s.74-.78.92-1.21.15-.9.16-1.39c0-.49.05-1 .07-1.46.02-.45.03-.85-.05-1.21s-.24-.7-.37-1.1c-.12-.4-.21-.86-.14-1.24s.28-.67.24-1.16c-.04-.5-.35-1.2-.48-1.77s-.09-1.01 0-1.48.24-.98.35-1.44c.1-.46.16-.87-.07-1.23-.24-.36-.77-.69-1.16-1s-.65-.63-.82-.9-.26-.49-.29-.8.01-.72 1.42-.5Z" class="cls-3"/><path d="M92.08 204.5c-.31.62-.63.97-.81 1.32s-.19.68.06 1.33M78.7 208.36c-1.25-.77-.65-1.54-.81-2.75M85.33 191.4c1.54 1.33 1.21 2.42.89 3.15M123.63 204.5c-.31.62-.63.97-.81 1.32-.17.34-.19.68.06 1.33M110.25 208.37c-1.25-.77-.65-1.54-.81-2.75M116.88 191.4c1.54 1.33 1.21 2.42.89 3.15" class="cls-3"/><path d="M103.61 188.69c1.41-.06 4.19.21 6.47.32s4.06.05 5.49.06 2.51.08 3.35.18 1.43.2 2.05.19 1.26-.16 1.82-.34 1.04-.42 1.46-.58.79-.26 1.2-.32.86-.09 1.2-.1.56.02.7.13c.14.12.19.32.2.53.01.2-.02.41-.09.75-.07.35-.19.84-.31 1.23s-.23.67-.36 1.04-.28.83-.4 1.26c-.12.42-.21.8-.2 1.34 0 .54.11 1.25.07 2.48s-.23 2.97-.35 4.06-.19 1.53-.23 1.91-.06.7.02 1 .25.57.36 1.17c.12.6.17 1.51.31 2.04.13.53.33.68.54.94s.44.63.7.88.57.38.76.63c.19.26.25.64.16.84-.1.2-.36.2-.62.23-.26.02-.52.06-1.13.02s-1.56-.16-2.34-.28-1.38-.23-1.93-.32-1.03-.18-1.83-.29-1.92-.24-2.74-.31-1.36-.07-2.17-.02c-.8.05-1.88.13-2.75.33-.88.19-1.55.49-2.22.55s-1.32-.13-2.12-.24c-.79-.11-1.72-.15-2.4-.17s-1.1-.02-1.83-.03c-.73 0-1.75-.02-2.2-.26-.44-.24-.3-.7-.13-1.01s.37-.48.67-.72c.29-.25.68-.57.91-.94s.29-.78.34-1.21c.04-.44.06-.9.08-1.39s.06-1 .09-1.46c.02-.45.03-.85.08-1.21s.15-.7.16-1.1-.07-.86 0-1.24.28-.67.24-1.16c-.04-.5-.35-1.2-.63-1.77s-.52-1.01-.57-1.48.1-.98.2-1.44.16-.87.07-1.23c-.09-.37-.34-.69-.59-1-.25-.32-.5-.63-.68-.9-.17-.27-.26-.49-.29-.8s.01-.72 1.42-.78ZM134.15 216.16H66.12M138.07 188.61l.12 12.76 12.76-.13-.09-8.5-.04-4.25zM49.71 189.19l.13 12.76 12.75-.13-.08-8.5-.04-4.25z" class="cls-3"/><path d="M56.17 196.78a2.828 2.828 0 0 0-1.51-5.45c-1.5.42-2.38 1.97-1.97 3.48.42 1.5 1.97 2.39 3.48 1.97M58.14 198.02h1.9v2.89h-1.9zM44.86 176.29h110.55v9.56H44.86zM168.17 384.47h8.72v59.88h-8.72zM75.65 420.35h7.15v9.91h-7.15z" class="cls-3"/><path d="m49.182 426.31 37.38-16.501 8.828 19.998-37.38 16.502zM76.04 409.5c-.36-.74-.83-1.17-1.59-1.46" class="cls-3"/><path d="M72.66 408.87c1.07.1 2.02-.69 2.12-1.76a1.95 1.95 0 0 0-1.76-2.12M59.86 411.47c-.55.6-.78 1.2-.77 2.02" class="cls-3"/><path d="M59.78 408.1a1.94 1.94 0 0 0-.63 2.68c.57.92 1.77 1.2 2.68.63M73.02 404.99c-4.64-.43-9.28.66-13.24 3.11M72.66 408.87c-3.79-.35-7.6.54-10.84 2.55M77.71 413.72c-.45-1.47-1.01-2.87-1.68-4.25M59.09 413.45c.02 2.74.4 5.35 1.16 7.98M58.45 395.07h7.68M55.35 393.02l-6.64-2.1M58.45 395.07l5.52 2.87M56.84 395.24l-6.63 1.54M55.4 385.56l1.66 7.19M61.6 389.26l-3.77.02M63.09 394.9l-.39-3.98M61.93 399.38l-2.82.78M55.68 401.65l-2.11-1.36M50.15 391.92l.17 3.76M54.52 387.5l-2.05 1.65M58.39 393.08l.88-7.35M58.45 395.07l7.13-2.93M56.84 395.24l4.92 7.51M56.84 395.24l-4.25 6.57M56.68 394.24l-8.52.28M57.56 394.24l-5.47-7.52M59.55 398.39c2.14-1.07 3-3.67 1.94-5.81s-3.67-3-5.81-1.94-3 3.67-1.94 5.81a4.34 4.34 0 0 0 5.81 1.94M459.43 84.45h188.32M548.72 58.94h92.66v25.51h-92.66zM457.48 298.75h76.09v18.91h-76.09zM439.83 360.38l-2.8-4.21M434.36 360.42l5.47-.04M429.03 362.45l5.33-2.03M427.08 357.88l1.95 4.57M421.96 349.38l5.12 8.5M426.22 349.33l-4.26.05M432.5 347.15l-6.28 2.18M433.6 350.01l-1.1-2.86M437.03 356.17l-3.43-6.16M431.34 361.57l.42.84M428.96 415.16l-.09.93M436.65 413.63l.38-7.05M437.03 406.58l.6-3M437.63 403.58l-6.47-1.51M431.16 402.07l-3.64-2.22M427.52 399.85l-.19 9.91M427.33 409.76l-.79 4.91M426.54 414.67l5.59 1.12M432.13 415.79l4.65 2.89M436.78 418.68l-.13-5.05M572.55 386.34c.28-3.06-1.98-5.77-5.04-6.05s-5.77 1.98-6.05 5.04a5.57 5.57 0 0 0 5.04 6.05 5.57 5.57 0 0 0 6.05-5.04M577.8 377.91c.18-1.96-1.27-3.7-3.23-3.88a3.56 3.56 0 0 0-3.87 3.23 3.574 3.574 0 0 0 3.23 3.88c1.96.18 3.7-1.27 3.88-3.23ZM564.48 377.81c.09-1.03-.66-1.94-1.69-2.03s-1.94.66-2.03 1.69.66 1.94 1.69 2.03 1.94-.66 2.03-1.69M537.06 348.29c-7.3-4.55-16.89-2.57-21.79 4.49" class="cls-3"/><path d="M535.81 350.31c-6.23-3.88-14.4-2.19-18.59 3.83" class="cls-3"/><path d="M515.27 352.79c-.73 1.26 1.02 2.48 1.95 1.35M535.81 350.31c1.3.67 2.43-1.14 1.25-2.01M538.02 361.05l-2.21-10.74M567.54 354.11c-6.23-5.93-16.02-5.93-22.25 0" class="cls-3"/><path d="M565.91 355.83a13.763 13.763 0 0 0-18.98 0M545.29 354.11c-.97 1.09.5 2.63 1.63 1.72M565.91 355.83c1.14.91 2.61-.63 1.63-1.72M546.93 355.83v5.22M565.91 361.05v-5.22M517.21 354.14l1.43 6.91M598.45 361.05v-8.85M579.46 352.2v8.85M598.45 352.2c1.14.91 2.61-.63 1.63-1.72M577.83 350.48c-.97 1.09.5 2.63 1.63 1.72M598.45 352.2a13.763 13.763 0 0 0-18.98 0" class="cls-3"/><path d="M600.08 350.48c-6.23-5.93-16.02-5.93-22.25 0" class="cls-4"/><path d="m550.19 407.49.83-9.3M558.73 398.29l2.37 10.76M531.97 398.19l-.69 7.61M579.64 404.96l-1.5-6.77M531.28 405.8c-1.05-1.01-2.65.39-1.78 1.57M551.66 409.35c1.06-1-.26-2.67-1.47-1.86M531.28 405.8c4.84 5.51 13.16 6.26 18.91 1.7" class="cls-3"/><path d="M529.5 407.36c5.68 6.46 15.42 7.34 22.16 1.99" class="cls-4"/><path d="M561.1 409.05c-1.31-.65-2.41 1.17-1.23 2.03M581.6 406.29c.71-1.27-1.05-2.47-1.97-1.33" class="cls-3"/><path d="M561.1 409.05c6.28 3.79 14.43 2 18.54-4.09" class="cls-3"/><path d="M559.87 411.08c7.36 4.45 16.92 2.34 21.73-4.79" class="cls-4"/><path d="M591.07 398.19v5.21M610.05 403.4v-5.21M591.07 403.4c-1.14-.91-2.61.63-1.64 1.72M611.68 405.12c.97-1.09-.5-2.63-1.64-1.72" class="cls-3"/><path d="M591.07 403.4a13.763 13.763 0 0 0 18.98 0" class="cls-3"/><path d="M589.43 405.12c6.23 5.93 16.02 5.93 22.25 0" class="cls-4"/><path d="M450.92 453.09h-40.4M410.52 453.09v-30.63M410.52 422.46c0-1.39 1.13-2.52 2.52-2.52M413.05 419.93h37.87M450.92 419.93v33.16M450.92 419.93v-40.39M450.92 379.54h-37.87M410.52 382.06c0-1.39 1.13-2.52 2.52-2.52M410.52 382.06v35.35M413.05 419.93c-1.39 0-2.52-1.13-2.52-2.52M413.05 419.93h37.87M450.92 417.41v-35.35M448.39 379.54c1.39 0 2.52 1.13 2.52 2.52M448.39 379.54h-3.78M442.08 382.06c0-1.39 1.13-2.52 2.52-2.52M442.08 382.06v35.35M444.61 419.93c-1.39 0-2.52-1.13-2.52-2.52M444.61 419.93h3.78M450.92 417.41c0 1.39-1.13 2.52-2.52 2.52M450.92 377.01v-35.34M448.39 339.15c1.39 0 2.52 1.13 2.52 2.52M448.39 339.15h-3.78M442.08 341.67c0-1.39 1.13-2.52 2.52-2.52M442.08 341.67v35.34M444.61 379.54c-1.39 0-2.52-1.13-2.52-2.52M444.61 379.54h3.78M450.92 377.01c0 1.39-1.13 2.52-2.52 2.52M450.92 379.54v-40.39M450.92 339.15h-37.87M410.52 341.67c0-1.39 1.13-2.52 2.52-2.52M410.52 341.67v35.34M413.05 379.54c-1.39 0-2.52-1.13-2.52-2.52M413.05 379.54h37.87M450.92 298.75h-40.4M410.52 298.75v37.87M413.05 339.15c-1.39 0-2.52-1.13-2.52-2.52M413.05 339.15h37.87M450.92 339.15v-40.4M408 298.75h-35.35M370.13 301.28c0-1.39 1.13-2.52 2.52-2.52M370.13 301.28v3.78M372.65 307.59c-1.39 0-2.52-1.13-2.52-2.52M372.65 307.59H408M410.52 305.06c0 1.39-1.13 2.52-2.52 2.52M410.52 305.06v-3.78M408 298.75c1.39 0 2.52 1.13 2.52 2.52M410.52 298.75h-40.39M370.13 298.75v37.87M372.65 339.15c-1.39 0-2.52-1.13-2.52-2.52M372.65 339.15H408M410.52 336.62c0 1.39-1.13 2.52-2.52 2.52M410.52 336.62v-37.87M370.13 336.62v-37.87M370.13 305.06v-3.78M286.09 114.89c-.05-.25-.21-.73-.34-.93-.14-.2-.25-.13-.2.12s.26.68.39.88c.14.2.2.18.15-.07" class="cls-3"/><path d="M286.09 115.08v28.06h16.57v-28.06z" class="cls-3"/><path d="M302.67 114.89c.05-.25.21-.73.34-.93s.25-.13.2.12-.26.68-.39.88-.2.18-.15-.07M286.06 143.29c-.11.23-.39.65-.57.81s-.27.07-.16-.16.42-.59.6-.75.24-.13.13.1M302.7 143.29c.11.23.39.65.57.81s.27.07.16-.16-.42-.59-.6-.75-.24-.13-.13.1M606.19 214.13c0 .46.37.84.84.84s.84-.37.84-.84-.37-.84-.84-.84-.84.37-.84.84" class="cls-3"/><path d="M605.93 214.13c0 .6.49 1.09 1.09 1.09s1.09-.49 1.09-1.09-.49-1.09-1.09-1.09-1.09.49-1.09 1.09" class="cls-3"/><path d="M607.93 221.99h23.43c1.01 0 1.83-.82 1.83-1.83v-13.34c0-1.01-.82-1.83-1.83-1.83h-33.75c-1.01 0-1.83.82-1.83 1.83v13.34c0 1.01.82 1.83 1.83 1.83h8.73" class="cls-3"/><path d="M607.72 221.82v-3.43h-1.19v3.47" class="cls-3"/><path d="M607.9 223.56c.44-.42.46-1.12.04-1.56s-1.12-.46-1.56-.04-.46 1.12-.04 1.56 1.12.46 1.56.04M617.42 205.05v16.94M619.12 219.59h12.2M619.12 217.46h12.2M619.12 215.33h12.2M619.12 213.21h12.2M619.12 211.08h12.2M619.12 208.96h12.2M619.12 206.83h12.2M644.87 200.53h25.51v25.51h-25.51zM351.36 365.34h29.76v55.28h-29.76z" class="cls-3"/><path d="M356.29 376.38h18.04v35.75h-18.04z" class="cls-3"/><path d="M369.71 405.41c1.97 0 3.57-1.6 3.57-3.57s-1.6-3.57-3.57-3.57-3.57 1.6-3.57 3.57 1.6 3.57 3.57 3.57M368.6 392.14c1.03 0 1.87-.84 1.87-1.87s-.84-1.87-1.87-1.87-1.87.84-1.87 1.87.84 1.87 1.87 1.87" class="cls-3"/><path d="M369.71 405.16c1.83 0 3.31-1.48 3.31-3.31s-1.48-3.31-3.31-3.31-3.31 1.48-3.31 3.31 1.48 3.31 3.31 3.31M388.9 436.33c.33.69 1.17 1.97 1.73 2.46s.83.2.5-.5-1.28-1.78-1.84-2.28c-.56-.49-.72-.38-.39.31ZM338.35 436.33c-.33.69-1.17 1.97-1.73 2.46s-.83.2-.5-.5 1.28-1.78 1.84-2.28c.56-.49.72-.38.39.31ZM388.79 350.06c.15-.76.63-2.2 1.05-2.82s.75-.4.61.35c-.15.75-.79 2.05-1.2 2.67s-.6.55-.45-.2ZM338.46 350.06c-.15-.76-.63-2.2-1.05-2.82s-.75-.4-.61.35c.15.75.79 2.05 1.2 2.67s.6.55.45-.2ZM537.8 126.85h68.03v42.52H537.8zM581.5 115.52v11.05M581.5 126.57h-2.41M559.86 126.57h-2.41M557.45 115.52v11.05M579.09 117.93h-19.23M581.5 115.52h-24.05M612.66 165.23l5.65-23.37M610.88 162.33l4.53-18.7M618.31 141.86l-10.73-2.6M607.01 141.6l.57-2.34M584.3 176h-24.04M581.9 173.59h-19.24M526.86 159.97l10.71 2.7M529.78 158.23l4.7-18.66M526.86 159.97l5.88-23.32M532.74 136.65l5.06 1.28M534.48 139.57l3.32.84M529.78 158.23l8.02 2.02M537.57 162.67l.23-.91M560.26 176v-6.63M562.66 173.59v-4.22M584.3 176v-6.63M581.9 173.59v-4.22M612.66 165.23l-6.83-1.65M615.41 143.63l-9.58-2.32M610.88 162.33l-5.05-1.22M559.86 117.93v8.92M579.09 117.93v8.92M407.54 158.53h45.51M426.31 179.27h.98M427.07 165.84c-.54.3-.89.68-1.15 1.24" class="cls-3"/><path d="M427.29 164.14a2.01 2.01 0 0 0 0 4.02M422.46 158.61h4.83M427.29 147.48h-12.1M420.3 158.54l-2.26 7.67M414.53 148.14v7.35M415.19 147.48a.66.66 0 0 0-.66.66M420.15 158.53l2.31.08M418 157.97c.69.35 1.38.53 2.15.56M415.24 156.62q1.335.765 2.76 1.35M414.53 155.49c0 .57.2.88.71 1.13" class="cls-3"/><path d="M425.91 167.08c-.16.27-.13.46.12.65M423.79 178.59c.8.47 1.59.68 2.52.68M434.27 158.54l2.26 7.67M440.04 148.14v7.35M440.04 148.14a.66.66 0 0 0-.66-.66M427.29 147.48h12.1M439.33 156.62c.51-.25.71-.56.71-1.13M436.57 157.97c.95-.39 1.87-.83 2.76-1.35M434.42 158.53c.77-.04 1.46-.22 2.15-.56M434.42 158.53l-2.31.08M432.11 158.61h-4.82M428.66 167.08c-.26-.56-.61-.94-1.15-1.24M428.54 167.74c.25-.2.28-.38.12-.65M427.29 165.79c-.08 0-.15.02-.22.05" class="cls-3"/><path d="M427.5 165.84a.8.8 0 0 0-.22-.05" class="cls-3"/><path d="M427.29 168.17a2.01 2.01 0 0 0 0-4.02M428.26 179.27c.93 0 1.72-.21 2.52-.68M428.26 179.27h-.97M427.29 182.15c2.15 0 4.22-.79 5.82-2.23M433.11 179.92c1.59-1.32 2.59-2.79 3.23-4.76M436.33 175.17c1.01-2.73 1.14-5.18.42-8M436.76 167.16c-.06-.32-.14-.64-.23-.96M430.78 178.59c.25-.17.48-.35.7-.55M431.48 178.04c1.24-1.02 2.01-2.16 2.5-3.69M433.98 174.35c.85-2.27.96-4.3.34-6.65M434.32 167.7a7.135 7.135 0 0 0-7.03-5.91M423.09 178.04c.22.2.45.38.7.55M420.59 174.35c.49 1.53 1.26 2.67 2.5 3.69M420.25 167.7c-.62 2.34-.51 4.38.34 6.65M427.29 161.79c-3.47 0-6.44 2.49-7.03 5.91M421.46 179.92a8.7 8.7 0 0 0 5.82 2.23" class="cls-3"/><path d="M418.24 175.17c.64 1.96 1.64 3.44 3.23 4.76M417.82 167.16c-.72 2.82-.59 5.28.42 8M418.04 166.21c-.09.32-.17.64-.23.96M324.47 78.5h11.34v1.73h-11.34zM293.9 78.73v26.98M459.43 175.02h25.51v25.51h-25.51zM459.43 128.25h25.51v46.77h-25.51zM264.49 87.98c0-.54-.44-.98-.98-.98s-.98.44-.98.98.44.98.98.98.98-.44.98-.98M269.33 99.51c1.27-.56 2.3-1.31 3.22-2.36M263.51 100.73c2.07 0 3.93-.39 5.82-1.22M257.69 99.51c1.89.83 3.75 1.22 5.82 1.22M254.48 97.15c.92 1.05 1.94 1.8 3.22 2.36M252.67 92.33c0 1.93.54 3.37 1.81 4.82" class="cls-3"/><path d="M254.48 87.52c-1.27 1.45-1.81 2.89-1.81 4.82M257.69 85.16c-1.27.56-2.3 1.31-3.22 2.36M263.51 83.94c-2.07 0-3.93.39-5.82 1.22M269.33 85.16c-1.89-.83-3.75-1.22-5.82-1.22M272.54 87.52a8.85 8.85 0 0 0-3.22-2.36M274.35 92.33c0-1.93-.54-3.37-1.81-4.82M272.54 97.15c1.27-1.45 1.81-2.89 1.81-4.82M263.51 85.21c-1.88 0-3.58.36-5.3 1.11M258.21 86.33c-1.1.48-1.98 1.13-2.77 2.03M255.44 88.36c-1.05 1.2-1.49 2.39-1.49 3.98M253.94 92.33c0 1.59.45 2.78 1.49 3.98M255.44 96.31c.79.9 1.67 1.55 2.77 2.03M258.21 98.34c1.72.76 3.42 1.11 5.3 1.11M273.08 92.33c0-1.59-.45-2.78-1.49-3.98M271.58 88.36c-.79-.9-1.67-1.55-2.77-2.03M268.81 86.33c-1.72-.76-3.42-1.11-5.3-1.11M268.81 98.34c1.1-.48 1.98-1.13 2.77-2.03M271.58 96.31c1.05-1.2 1.49-2.39 1.49-3.98M263.51 99.46c1.88 0 3.58-.36 5.3-1.11M220.94 87.98c0-.54-.44-.98-.98-.98s-.98.44-.98.98.44.98.98.98.98-.44.98-.98M225.78 99.51c1.27-.56 2.3-1.31 3.22-2.36M219.96 100.73c2.07 0 3.93-.39 5.82-1.22" class="cls-3"/><path d="M214.15 99.51c1.89.83 3.75 1.22 5.82 1.22M210.93 97.15c.92 1.05 1.94 1.8 3.22 2.36M209.12 92.33c0 1.93.54 3.37 1.81 4.82" class="cls-3"/><path d="M210.93 87.52c-1.27 1.45-1.81 2.89-1.81 4.82M214.15 85.16c-1.27.56-2.3 1.31-3.22 2.36M219.96 83.94c-2.07 0-3.93.39-5.82 1.22M225.78 85.16c-1.89-.83-3.75-1.22-5.82-1.22M229 87.52a8.85 8.85 0 0 0-3.22-2.36M230.81 92.33c0-1.93-.54-3.37-1.81-4.82M229 97.15c1.27-1.45 1.81-2.89 1.81-4.82M219.96 85.21c-1.88 0-3.58.36-5.3 1.11M214.66 86.33c-1.1.48-1.98 1.13-2.77 2.03M211.89 88.36c-1.05 1.2-1.49 2.39-1.49 3.98" class="cls-3"/><path d="M210.4 92.33c0 1.59.45 2.78 1.49 3.98M211.89 96.31c.79.9 1.67 1.55 2.77 2.03M214.66 98.34c1.72.76 3.42 1.11 5.3 1.11M229.53 92.33c0-1.59-.45-2.78-1.49-3.98M228.04 88.36c-.79-.9-1.67-1.55-2.77-2.03M225.27 86.33c-1.72-.76-3.42-1.11-5.3-1.11M225.27 98.34c1.1-.48 1.98-1.13 2.77-2.03M228.04 96.31c1.05-1.2 1.49-2.39 1.49-3.98M219.96 99.46c1.88 0 3.58-.36 5.3-1.11M333.32 198.22c-.32-.09-.64-.17-.96-.23M332.36 197.99c-2.82-.72-5.28-.59-8 .42M324.36 198.41c-1.96.64-3.44 1.64-4.76 3.23M319.6 201.64a8.7 8.7 0 0 0-2.23 5.82M337.74 207.46c0-3.47-2.49-6.44-5.91-7.03M331.83 200.42c-2.34-.62-4.38-.51-6.65.34M325.18 200.77c-1.53.49-2.67 1.26-3.69 2.5M321.49 203.27c-.2.22-.38.45-.55.7M331.83 214.49c3.42-.6 5.91-3.56 5.91-7.03M325.18 214.15c2.27.85 4.3.96 6.65.34M321.49 211.65c1.02 1.24 2.16 2.01 3.69 2.5M320.94 210.95c.17.25.35.48.55.7M332.36 216.93c.32-.06.64-.14.96-.23M324.36 216.51c2.73 1.01 5.18 1.14 8 .42M319.6 213.28c1.32 1.59 2.79 2.59 4.76 3.23M317.37 207.46c0 2.15.79 4.22 2.23 5.82M320.25 208.43v-.97M320.25 208.43c0 .93.21 1.72.68 2.52M331.35 207.46a2.01 2.01 0 0 0 4.02 0" class="cls-3"/><path d="M333.68 207.67c.03-.07.04-.14.05-.22" class="cls-3"/><path d="M333.73 207.46c0-.08-.02-.15-.05-.22M331.79 208.71c.2.25.38.28.65.12M332.44 208.83c.56-.26.94-.61 1.24-1.15M340.91 212.28v-4.82M340.99 214.59l-.08-2.31M340.99 214.59c.04.77.22 1.46.57 2.15M341.56 216.75c.39.95.83 1.87 1.35 2.76M342.91 219.51c.25.51.56.71 1.13.71M352.04 207.46v12.1M351.39 220.21c.36 0 .66-.29.66-.66M351.39 220.21h-7.35M340.99 214.44l-7.67 2.26M320.94 203.97c-.47.8-.68 1.59-.68 2.52M332.44 206.09c-.27-.16-.46-.13-.65.12M344.04 194.7c-.57 0-.88.2-1.13.71M342.91 195.41q-.765 1.335-1.35 2.76M341.56 198.17c-.35.69-.53 1.38-.57 2.15M340.99 200.33l-.08 2.3M352.04 195.36a.66.66 0 0 0-.66-.66M351.39 194.7h-7.35M340.99 200.47l-7.67-2.25M352.04 207.46v-12.1M340.91 202.63v4.83" class="cls-3"/><path d="M335.38 207.46a2.01 2.01 0 0 0-4.02 0" class="cls-3"/><path d="M333.68 207.24c-.3-.54-.68-.89-1.24-1.15M320.25 206.49v.97" class="cls-3"/><path d="m315.05 91.78-1.42 14.81M319.71 87.76l14.86.76M317.03 89.37l14.48 16.77M314.81 87.53a1.641 1.641 0 1 0-2.611-1.99 1.641 1.641 0 0 0 2.611 1.99" class="cls-5"/><path d="M172.42 158.94h3.96v31.57h-3.96zM459.43 200.53h25.51v25.51h-25.51zM484.94 200.53h25.51v25.51h-25.51zM569.62 58.94h25.43v25.51h-25.43z" class="cls-3"/><path d="M576.33 68.72c1.73 0 3.14-1.4 3.14-3.14s-1.4-3.13-3.14-3.13-3.13 1.4-3.13 3.13 1.4 3.14 3.13 3.14M587.03 70.16c2.31 0 4.18-1.87 4.18-4.18s-1.87-4.18-4.18-4.18-4.18 1.87-4.18 4.18 1.87 4.18 4.18 4.18M572.34 77.85c0 2.16 1.75 3.92 3.92 3.92s3.92-1.75 3.92-3.92-1.75-3.92-3.92-3.92-3.92 1.75-3.92 3.92M587.03 81.95c2.31 0 4.18-1.87 4.18-4.18s-1.87-4.18-4.18-4.18-4.18 1.87-4.18 4.18 1.87 4.18 4.18 4.18M87.812 321.486l23.539-3.162 6.259 46.602-23.539 3.161z" class="cls-3"/><path d="M88.2 321.5c-.1-.75.48-2.09-.77-2.32M89.61 321.66c.64-.9.27-1.25.25-1.53s.3-.5.35-.73-.17-.48-.2-.64M91.31 321.1c.37-.38.34-.6.3-.92s-.1-.72.81-1.15M93.27 320.82c-.1-.75.48-2.09-.77-2.32M94.68 320.98c.64-.9.27-1.25.25-1.53s.3-.5.35-.73-.17-.48-.2-.64M96.42 320.42c.37-.38.34-.6.3-.92s-.1-.72.81-1.15M98.62 320.1c-.1-.75.48-2.09-.77-2.32M100.03 320.26c.64-.9.27-1.25.25-1.53s.3-.5.35-.73-.17-.48-.2-.64M101.6 319.72c.37-.38.34-.6.3-.92s-.1-.72.81-1.15M103.85 319.4c-.1-.75.48-2.09-.78-2.32M105.27 319.56c.64-.9.27-1.25.25-1.53s.3-.5.35-.73-.17-.48-.2-.64M106.61 319.05c.37-.38.34-.6.3-.92s-.1-.72.81-1.15M108.86 318.72c-.1-.75.48-2.09-.78-2.32M110.28 318.88c.64-.9.27-1.25.25-1.53s.3-.5.35-.73-.17-.48-.2-.64M94.95 367.91c-.64.9-.27 1.25-.25 1.53s-.3.5-.35.73.17.48.2.64M96.36 368.07c.1.75-.48 2.09.78 2.32M98.62 367.74c-.37.38-.34.6-.3.92s.1.72-.81 1.15M99.96 367.24c-.64.9-.27 1.25-.25 1.53s-.3.5-.35.73.17.48.2.64M101.37 367.4c.1.75-.48 2.09.78 2.32M103.63 367.07c-.37.38-.34.6-.3.92s.1.72-.81 1.15M105.2 366.53c-.64.9-.27 1.25-.25 1.53s-.3.5-.35.73.17.48.2.64M106.61 366.69c.1.75-.48 2.09.77 2.32M108.8 366.38c-.37.38-.34.6-.3.92s.1.72-.81 1.15M110.54 365.82c-.64.9-.27 1.25-.25 1.53s-.3.5-.35.73.17.48.2.64M111.95 365.98c.1.75-.48 2.09.77 2.32M113.92 365.69c-.37.38-.34.6-.3.92s.1.72-.81 1.15M115.61 365.13c-.64.9-.27 1.25-.25 1.53s-.3.5-.35.73.17.48.2.64M117.02 365.3c.1.75-.48 2.09.77 2.32M134.35 448.76c3.68 0 6.67-2.99 6.67-6.67s-2.99-6.67-6.67-6.67-6.67 2.99-6.67 6.67 2.99 6.67 6.67 6.67" class="cls-3"/><path d="M134.35 446.64c2.51 0 4.55-2.04 4.55-4.55s-2.04-4.55-4.55-4.55-4.55 2.04-4.55 4.55 2.04 4.55 4.55 4.55M57.95 296.87v86.25M51.12 299.02l13.65-.28M66.9 298.69c0-.15-.42-.2-.5-.21q-.285-.03-.57-.03c-.19 0-.38.02-.57.05-.08.01-.5.08-.49.23 0 .15.42.2.5.21q.285.03.57.03c.19 0 .38-.02.57-.05.08-.01.5-.08.49-.23M51.12 299.02c0-.15-.42-.2-.5-.21q-.285-.03-.57-.03c-.19 0-.38.02-.57.05-.08.01-.5.08-.49.23 0 .15.42.2.5.21q.285.03.57.03c.19 0 .38-.02.57-.05.09-.01.5-.08.49-.23M51.12 338.5c.04-.19-.3-.34-.42-.39-.19-.08-.38-.13-.58-.17s-.4-.06-.6-.05c-.13 0-.49.02-.53.21s.3.34.42.39c.19.08.38.13.58.17s.4.06.6.05c.13 0 .49-.02.53-.21M51.12 350.68l13.65-2.35M51.12 357.45l13.65 1.5M64.77 341.04l-13.65-2.54M64.77 342.99l-13.65-1.88M66.9 359.19c.02-.17-.37-.27-.46-.3a3.8 3.8 0 0 0-1.15-.13c-.1 0-.5.03-.52.19-.02.17.37.27.46.3a3.8 3.8 0 0 0 1.15.13c.1 0 .5-.03.52-.19M66.9 341.44c.03-.18-.32-.33-.43-.37-.19-.08-.38-.13-.57-.17s-.39-.06-.6-.05c-.12 0-.5.01-.53.2-.03.18.32.33.43.37.19.08.38.13.57.17.2.04.39.06.6.05.12 0 .5-.01.53-.2M66.9 343.28c.02-.16-.36-.28-.46-.31-.19-.06-.37-.1-.57-.13s-.39-.04-.58-.03c-.1 0-.5.01-.52.18-.02.16.36.28.46.31.19.06.37.1.57.13s.39.04.58.03c.1 0 .5-.01.52-.18M66.9 347.97c-.03-.17-.42-.17-.53-.18-.2 0-.39.02-.59.05s-.38.08-.57.15c-.1.04-.47.17-.44.34s.42.17.53.18c.2 0 .39-.02.59-.05a3 3 0 0 0 .57-.15c.1-.04.47-.17.44-.34M51.12 350.68c-.03-.17-.42-.17-.53-.18-.2 0-.39.02-.59.05s-.38.08-.57.15c-.1.04-.47.17-.44.34s.42.17.53.18c.2 0 .39-.02.59-.05s.38-.08.57-.15c.1-.04.47-.17.44-.34M51.12 359.45c.05-.18-.29-.36-.4-.42-.18-.1-.37-.17-.57-.23s-.39-.1-.6-.12c-.12-.01-.51-.05-.56.14s.29.36.4.42c.18.1.37.17.57.23s.39.1.6.12c.12.01.51.05.56-.14M51.12 357.47c.02-.17-.37-.27-.46-.3a3.8 3.8 0 0 0-1.15-.13c-.1 0-.5.03-.52.19s.37.27.46.3a3.8 3.8 0 0 0 1.15.13c.1 0 .5-.03.52-.19M51.12 341.11c.03-.19-.31-.32-.43-.37-.19-.07-.38-.12-.58-.14-.2-.03-.4-.04-.6-.02-.13.01-.49.05-.51.24-.03.19.31.32.43.37.19.07.38.12.58.14s.4.04.6.02c.13-.01.49-.05.51-.24M64.77 331.34l-13.65.84M64.77 323.8l-13.65 1.5M64.77 328.37H51.12M64.77 316.99l-13.65-4.98M64.77 311.31l-13.65-3.48M51.12 305.36l13.65 1.56M64.77 313.56l-13.65-4.04M51.12 303.72l13.65-.94M64.77 319.49l-13.65-4.8M66.9 331.2c-.01-.18-.39-.22-.5-.24-.19-.03-.39-.03-.58-.02-.2.01-.39.04-.58.09-.11.03-.48.12-.47.3s.39.23.5.24c.19.03.39.03.58.02.2-.01.39-.04.58-.09.11-.03.48-.12.47-.3M66.9 328.37c0-.18-.37-.25-.48-.27-.19-.04-.38-.05-.58-.05s-.39.01-.58.05c-.11.02-.48.09-.48.27s.37.25.48.27c.19.04.38.05.58.05s.39-.01.58-.05c.11-.02.48-.09.48-.27M66.9 314.19c.04-.13-.38-.3-.45-.33-.18-.08-.36-.14-.55-.2s-.37-.1-.57-.13c-.07-.01-.52-.09-.56.03s.38.3.45.33c.18.08.36.14.55.2s.37.1.57.13c.07.01.52.09.56-.03M66.9 323.56c-.02-.18-.4-.21-.51-.22-.2-.02-.39 0-.59.01q-.3.03-.57.12c-.11.03-.47.15-.45.32s.4.21.51.22c.2.02.39 0 .59-.01q.3-.03.57-.12c.11-.03.47-.15.45-.32M66.9 317.77c.05-.14-.36-.34-.43-.38a5 5 0 0 0-.55-.24c-.19-.07-.38-.13-.57-.17-.08-.02-.52-.12-.57.01-.05.14.36.34.43.38.18.09.36.17.55.24s.38.13.57.17c.08.02.52.12.57-.01M66.9 320.23c.04-.11-.39-.32-.45-.35-.18-.09-.36-.16-.54-.22-.19-.07-.37-.12-.56-.17-.06-.01-.53-.13-.57-.01s.39.32.45.35c.18.09.36.16.54.22.19.07.37.12.56.17.06.02.53.13.57.01M66.9 302.64c0-.12-.45-.14-.52-.14h-.56c-.19.01-.37.03-.55.07-.07.01-.5.09-.49.21 0 .12.45.14.52.14h.56c.19 0 .37-.03.55-.07.07-.01.5-.09.49-.21M66.9 307.17c.02-.14-.4-.24-.48-.26-.18-.05-.37-.08-.56-.1q-.285-.03-.57-.03c-.08 0-.51 0-.52.15-.02.14.4.24.48.27.18.05.37.08.56.1q.285.03.57.03c.08 0 .51 0 .52-.15ZM66.9 311.85c.04-.14-.37-.3-.45-.33-.18-.07-.36-.13-.55-.18s-.38-.09-.57-.11c-.08 0-.52-.06-.55.08-.04.14.37.3.45.33.18.07.36.13.55.18s.38.09.57.11c.08 0 .52.06.55-.08M51.12 325.3c-.02-.19-.38-.23-.51-.25q-.3-.03-.6 0c-.2.02-.39.06-.58.13-.12.04-.46.16-.44.35s.38.23.51.25q.3.03.6 0c.2-.02.39-.06.58-.13.12-.04.46-.16.44-.35M51.12 328.37c0-.19-.35-.28-.47-.3-.2-.05-.39-.06-.59-.06s-.39.02-.59.06c-.12.03-.47.11-.47.3s.35.28.47.3c.2.05.39.06.59.06s.39-.02.59-.06c.12-.03.47-.11.47-.3M51.12 332.18c-.01-.19-.37-.25-.49-.27-.2-.03-.39-.04-.59-.02-.2.01-.39.04-.59.1-.12.04-.47.14-.45.33s.37.25.49.27c.2.03.39.04.59.02.2-.01.39-.04.59-.1.12-.04.47-.14.45-.33M51.12 314.69c.04-.11-.39-.32-.45-.35-.18-.09-.36-.16-.54-.22s-.37-.12-.56-.17c-.07-.02-.53-.13-.57-.01s.39.32.45.35c.18.09.36.16.54.22.19.07.37.12.56.17.06.02.53.13.57.01M674.97 43.21h-27.22v41.24h27.22M358.23 121.06h94.71v23.81h-94.71z" class="cls-3"/><path d="M695.41 288.12h21.56M695.41 236.67h21.56M716.97 293.22v-22.85M716.97 255.37v-23.8M718.8 289.69l-3.4-3.41-.27.28 3.4 3.4zM715.13 235.11l3.4 3.4.27-.27-3.4-3.4zM695.41 473.93h21.56M695.41 407.6h21.56M716.97 473.93v-25.19M716.97 432.34V407.6M715.13 472.37l3.4 3.4.27-.27-3.4-3.4zM718.8 409.17l-3.4-3.4-.27.27 3.4 3.4zM695.41 343.82h21.56M695.41 288.12h21.56M716.97 343.82v-19.88M716.97 308.95v-20.83M715.13 342.26l3.4 3.4.27-.27-3.4-3.4z" class="cls-4"/><path d="m718.8 289.69-3.4-3.41-.27.28 3.4 3.4zM695.41 407.6h21.56M695.41 343.82h21.56M716.97 407.6v-23.92M716.97 367.28v-23.46M715.13 406.04l3.4 3.4.27-.27-3.4-3.4zM718.8 345.39l-3.4-3.4-.27.27 3.4 3.4zM673.1 226.04h-15.95M673.1 43.21h-15.95M657.15 226.04v-82.99M657.15 126.2V43.21M655.32 224.48l3.4 3.4.27-.27-3.4-3.4zM658.99 44.77l-3.4-3.4-.27.27 3.4 3.41zM23.6 488.09v14.15M695.41 488.09v14.15M23.6 502.24h325.44M370.42 502.24h324.99M25.16 500.41l-3.4 3.4.27.27 3.41-3.4zM693.85 504.08l3.4-3.4-.28-.27-3.4 3.4zM659.22 473.93v14.16M695.41 473.93v14.16M659.22 488.09h9.67M685.5 488.09h9.91M660.79 486.25l-3.4 3.4.27.27 3.4-3.4zM693.85 489.92l3.4-3.4-.28-.27-3.4 3.4zM548.67 473.93v14.16M601.82 473.93v14.16M548.67 488.09h18.6M583.43 488.09h18.39M550.24 486.25l-3.41 3.4.28.27 3.4-3.4zM600.26 489.92l3.4-3.4-.27-.27-3.41 3.4zM601.82 473.93v14.16M659.22 473.93v14.16M601.82 488.09h20.73M638.7 488.09h20.52" class="cls-4"/><path d="m603.39 486.25-3.41 3.4.28.27 3.4-3.4zM657.66 489.92l3.4-3.4-.27-.27-3.4 3.4zM491.27 473.93v14.16M548.67 473.93v14.16M491.27 488.09H512M528.15 488.09h20.52M492.83 486.25l-3.4 3.4.28.27 3.4-3.4zM547.11 489.92l3.4-3.4-.27-.27-3.41 3.4zM386.72 473.93v14.16M446.24 473.93v14.16M386.72 488.09h21.79M424.91 488.09h21.33M388.28 486.25l-3.4 3.4.27.27 3.4-3.4zM444.68 489.92l3.4-3.4-.27-.27-3.4 3.4zM446.2 473.93v14.16M491.27 473.93v14.16M446.2 488.09h14.56M477.16 488.09h14.11" class="cls-4"/><path d="m447.76 486.25-3.4 3.4.27.27 3.41-3.4zM489.71 489.92l3.4-3.4-.28-.27-3.4 3.4zM341.65 473.93v14.16M386.72 473.93v14.16M341.65 488.09h14.56M372.61 488.09h14.11M343.21 486.25l-3.4 3.4.27.27 3.4-3.4zM385.15 489.92l3.4-3.4-.27-.27-3.4 3.4zM282.12 473.93v14.16M341.65 473.93v14.16M282.12 488.09h21.79M320.31 488.09h21.34M283.68 486.25l-3.4 3.4.27.27 3.41-3.4z" class="cls-4"/><path d="m340.08 489.92 3.4-3.4-.27-.27-3.4 3.4zM366.73 243.66v13.69M674.15 243.66v13.69M366.73 257.35h145.35M528.76 257.35h145.39M368.3 255.51l-3.4 3.41.27.27 3.4-3.4zM672.59 259.19l3.4-3.4-.28-.28-3.4 3.41zM177.52 473.93v14.16M237.05 473.93v14.16M177.52 488.09h21.79M215.71 488.09h21.34M179.08 486.25l-3.4 3.4.28.27 3.4-3.4zM235.48 489.92l3.4-3.4-.27-.27-3.4 3.4zM137.98 473.93v14.16M177.52 473.93v14.16M137.98 488.09h11.34M166.07 488.09h11.45M139.54 486.25l-3.4 3.4.27.27 3.4-3.4z" class="cls-4"/><path d="m175.96 489.92 3.4-3.4-.28-.27-3.4 3.4zM76.75 473.93v14.16M137.98 473.93v14.16M76.75 488.09h22.64M115.9 488.09h22.08M78.31 486.25l-3.4 3.4.27.27 3.41-3.4zM136.41 489.92l3.4-3.4-.27-.27-3.4 3.4zM23.6 155.03H4.92M23.6 473.93H4.92M4.92 155.03v151.1M4.92 322.91v151.02M6.76 156.6l-3.41-3.4-.27.27 3.4 3.4zM3.08 472.37l3.4 3.4.28-.27-3.41-3.4zM457.48 306.8v13.69M674.15 306.8v13.69M457.48 320.49h99.91M574.24 320.49h99.91M459.04 318.66l-3.4 3.4.27.27 3.41-3.4zM672.59 322.33l3.4-3.4-.28-.27-3.4 3.4zM695.41 27.48V5.92M423.28 27.48V5.92M695.41 5.92H567.77M550.92 5.92H423.28M693.85 7.76l3.4-3.41-.28-.27-3.4 3.4zM424.85 4.08l-3.4 3.4.27.28 3.4-3.41zM151.58 155.03v-21.55M23.6 155.03v-21.55M151.58 133.48H95.91M80.56 133.48H23.6M150.02 135.32l3.4-3.41-.27-.27-3.4 3.4zM25.16 131.64l-3.4 3.4.27.28 3.41-3.41zM168.17 243.66v13.69M360.35 243.66v13.69M168.17 257.35h87.66M272.58 257.35h87.77M169.73 255.51l-3.4 3.41.27.27 3.4-3.4zM358.79 259.19l3.4-3.4-.27-.28-3.4 3.41zM151.16 57.24h-15.6M151.16 155.03h-15.6M135.56 57.24v40.57M135.56 114.57v40.46M137.4 58.8l-3.4-3.4-.28.28 3.41 3.4zM133.72 153.47l3.41 3.4.27-.27-3.4-3.4zM44.86 176.29H60.8M44.86 452.67H60.8M60.8 176.29v129.77M60.8 322.91v129.76M62.64 177.86l-3.4-3.4-.27.27 3.4 3.4zM58.97 451.11l3.4 3.4.27-.27-3.4-3.4zM44.86 176.29v34.18M155.41 176.29v34.18M44.86 210.47h46.95M108.56 210.47h46.85M46.42 208.63l-3.4 3.4.27.27 3.41-3.4zM153.85 212.3l3.4-3.4-.28-.27-3.4 3.4zM172.42 174.17v34.17M351.85 174.17v34.17M172.42 208.34h81.29M270.46 208.34h81.39M173.98 206.5l-3.4 3.41.27.27 3.4-3.4zM350.29 210.18l3.4-3.4-.27-.28-3.41 3.41zM359.13 452.67h-15.95M359.13 232.42h-15.95M343.18 452.67v-101.7M343.18 334.22v-101.8M341.34 451.11l3.4 3.4.28-.27-3.4-3.4zM345.02 233.99l-3.4-3.41-.28.28 3.4 3.4zM674.15 452.67H658.2M674.15 298.75H658.2M658.2 452.67v-68.64M658.2 367.39v-68.64M656.37 451.11l3.4 3.4.27-.27-3.4-3.4zM660.04 300.32l-3.4-3.41-.27.28 3.4 3.4zM23.6 473.93v14.16M76.75 473.93v14.16M18.5 488.09h23.7M58.36 488.09h23.49M22.03 489.92l3.41-3.4-.28-.27-3.4 3.4z" class="cls-4"/><path d="m78.31 486.25-3.4 3.4.27.27 3.41-3.4zM237.05 473.93v14.16M282.12 473.93v14.16M237.05 488.09h14.56M268.01 488.09h14.11M238.61 486.25l-3.4 3.4.27.27 3.4-3.4zM280.55 489.92l3.41-3.4-.28-.27-3.4 3.4zM351.85 226.04h-15.94M351.85 78.5h-15.94M335.91 226.04v-65.45M335.91 144.16V78.5M334.07 224.48l3.4 3.4.27-.27-3.4-3.4zM337.74 80.06l-3.4-3.4-.27.28 3.4 3.4zM716.97 473.93h21.55M716.97 27.48h21.55M738.52 473.93V261.16M738.52 239.79V27.48M736.69 472.37l3.4 3.4.27-.27-3.4-3.4zM740.36 29.04l-3.4-3.4-.27.27 3.4 3.4zM358.23 174.64l.17 33.7M453.05 174.17l.16 33.7M358.4 208.34l39.08-.19M414.13 208.07l39.08-.2M359.95 206.5l-3.38 3.41.27.28 3.38-3.42zM451.66 209.72l3.38-3.42-.27-.27-3.38 3.42zM423.28 27.48V5.92M151.16 27.48V5.92M423.28 5.92H295.65M278.79 5.92H151.16M421.72 7.76l3.4-3.41-.27-.27-3.4 3.4zM152.72 4.08l-3.4 3.4.27.28 3.4-3.41zM459.43 174.64l.07 33.73M674.97 174.17l.07 33.73M459.5 208.37l99.34-.22M575.38 208.11l99.66-.21M461.06 206.52l-3.39 3.41.27.28 3.39-3.41zM673.48 209.74l3.39-3.41-.27-.27-3.39 3.41zM695.41 236.67h21.56M695.41 27.48h21.56M716.97 236.67V140.5M716.97 123.75V27.48M715.13 235.11l3.4 3.4.27-.27-3.4-3.4zM718.8 29.04l-3.4-3.4-.27.27 3.4 3.4z" class="cls-4"/><text class="cls-18" transform="rotate(-90 495.635 -224.525)"><tspan x="0" y="0">1.21</tspan></text><text class="cls-18" transform="rotate(-90 584.82 -135.34)"><tspan x="0" y="0">1.56</tspan></text><text class="cls-18" transform="rotate(-90 522.42 -197.74)"><tspan x="0" y="0">1.31</tspan></text><text class="cls-18" transform="rotate(-90 552.29 -167.87)"><tspan x="0" y="0">1.50</tspan></text><text class="cls-18" transform="rotate(-90 401.835 -258.505)"><tspan x="0" y="0">4.30</tspan></text><text class="cls-18" transform="translate(348.31 505.43)"><tspan x="0" y="0">15.80</tspan></text><text class="cls-18" transform="translate(668.61 491.28)"><tspan x="0" y="0">0.85</tspan></text><text class="cls-18" transform="translate(566.54 491.28)"><tspan x="0" y="0">1.25</tspan></text><text class="cls-18" transform="translate(621.81 491.28)"><tspan x="0" y="0">1.35</tspan></text><text class="cls-18" transform="translate(511.26 491.28)"><tspan x="0" y="0">1.35</tspan></text><text class="cls-18" transform="translate(407.77 491.28)"><tspan x="0" y="0">1.40</tspan></text><text class="cls-18" transform="translate(460.03 491.28)"><tspan x="0" y="0">1.06</tspan></text><text class="cls-18" transform="translate(355.47 491.28)"><tspan x="0" y="0">1.06</tspan></text><text class="cls-18" transform="translate(303.17 491.28)"><tspan x="0" y="0">1.40</tspan></text><text class="cls-18" transform="translate(511.73 260.54)"><tspan x="0" y="0">7.23</tspan></text><text class="cls-18" transform="translate(198.58 491.28)"><tspan x="0" y="0">1.40</tspan></text><text class="cls-18" transform="translate(149.04 491.28)"><tspan x="0" y="0">0.93</tspan></text><text class="cls-18" transform="translate(98.65 491.28)"><tspan x="0" y="0">1.44</tspan></text><text class="cls-18" transform="rotate(-90 165.665 157.595)"><tspan x="0" y="0">7.50</tspan></text><text class="cls-18" transform="translate(557.11 323.68)"><tspan x="0" y="0">5.10</tspan></text><text class="cls-18" transform="translate(550.64 9.07)"><tspan x="0" y="0">6.40</tspan></text><text class="cls-18" transform="translate(80.18 136.67)"><tspan x="0" y="0">3.01</tspan></text><text class="cls-18" transform="translate(255.55 260.54)"><tspan x="0" y="0">4.52</tspan></text><text class="cls-18" transform="rotate(-90 126.85 -11.9)"><tspan x="0" y="0">2.30</tspan></text><text class="cls-18" transform="rotate(-90 193.575 129.615)"><tspan x="0" y="0">6.50</tspan></text><text class="cls-18" transform="translate(91.43 213.66)"><tspan x="0" y="0">2.60</tspan></text><text class="cls-18" transform="translate(253.43 211.53)"><tspan x="0" y="0">4.22</tspan></text><text class="cls-18" transform="rotate(-90 348.815 2.445)"><tspan x="0" y="0">5.18</tspan></text><text class="cls-18" transform="rotate(-90 522.905 -138.485)"><tspan x="0" y="0">3.62</tspan></text><text class="cls-18" transform="translate(41.47 491.28)"><tspan x="0" y="0">1.25</tspan></text><text class="cls-18" transform="translate(250.88 491.28)"><tspan x="0" y="0">1.06</tspan></text><text class="cls-18" transform="rotate(-90 250.04 -89.06)"><tspan x="0" y="0">3.47</tspan></text><text class="cls-18" transform="rotate(-90 501.805 -239.905)"><tspan x="0" y="0">10.50</tspan></text><text class="cls-18" transform="rotate(-.28 43446.556 -81155.949)"><tspan x="0" y="0">2.23</tspan></text><text class="cls-18" transform="translate(278.51 9.07)"><tspan x="0" y="0">6.40</tspan></text><text class="cls-18" transform="rotate(-.13 93446.615 -246098.571)"><tspan x="0" y="0">5.07</tspan></text><text class="cls-18" transform="rotate(-90 430.47 -289.69)"><tspan x="0" y="0">4.92</tspan></text><text class="cls-18" transform="translate(647.52 206.35)"><tspan x="0" y="0" style="letter-spacing:-.09em">L</tspan><tspan x="2.66" y="0">V</tspan></text><path d="M403.73 191.22h-45.5M403.73 169.11h-45.5M403.73 158.05h-45.5M358.23 208.3l45.5-17.08M403.73 180.17h-45.5M403.73 147h-45.5M403.73 191.22l-45.5 33.7M159.66 128.89c6.35 0 12.79 1.8 18.07 5.45M155.41 102.74h4.25v2.13h-4.25zM159.66 102.74v52.29M155.41 102.74v52.29M686.91 374.65h4.25v2.13h-4.25zM686.91 375.71h4.25M686.91 407.6v-63.78M691.16 407.6v-63.78M686.91 343.82h4.25v2.13h-4.25zM686.91 405.48h4.25v2.13h-4.25zM629.46 465.43h2.13v4.25h-2.13zM630.52 465.43v4.25M601.82 469.68h57.4M601.82 465.43h57.4M657.1 465.43h2.13v4.25h-2.13zM601.82 465.43h2.13v4.25h-2.13zM518.91 465.43h2.13v4.25h-2.13zM519.97 465.43v4.25M491.27 469.68h57.4M491.27 465.43h57.4M546.55 465.43h2.13v4.25h-2.13zM491.27 465.43h2.13v4.25h-2.13zM415.42 465.43h2.13v4.25h-2.13zM416.48 465.43v4.25M386.72 469.68h59.52M386.72 465.43h59.52M444.12 465.43h2.13v4.25h-2.13zM386.72 465.43h2.13v4.25h-2.13zM310.82 465.43h2.13v4.25h-2.13zM311.88 465.43v4.25M282.12 469.68h59.53M282.12 465.43h59.53M339.52 465.43h2.13v4.25h-2.13zM282.12 465.43h2.13v4.25h-2.13zM206.22 465.43h2.13v4.25h-2.13zM207.28 465.43v4.25M177.52 469.68h59.53M177.52 465.43h59.53M234.92 465.43h2.13v4.25h-2.13zM177.52 465.43h2.13v4.25h-2.13zM106.3 465.43h2.13v4.25h-2.13zM107.36 465.43v4.25M135.85 465.43h2.13v4.25h-2.13zM388.84 465.43l21.37-18.07M311.88 465.43c0-6.54 2.19-12.94 6.27-18.07M76.75 465.43h2.13v4.25h-2.13zM339.52 465.43l-21.37-18.07M416.48 465.43c0-6.54-2.19-12.94-6.27-18.07M444.12 465.43l-21.37-18.07M416.48 465.43c0-6.54 2.19-12.94 6.27-18.07M493.4 465.43l20.54-18.07M311.88 465.43c0-6.54-2.19-12.94-6.27-18.07M284.24 465.43l21.37-18.07M207.28 465.43c0-6.54 2.19-12.94 6.27-18.07M234.92 465.43l-21.37-18.07M207.28 465.43c0-6.54-2.19-12.94-6.27-18.07M179.65 465.43l21.36-18.07M107.36 465.43c0-6.59 2.28-12.97 6.46-18.07M135.85 465.43l-22.02-18.07M107.36 465.43c0-6.59-2.28-12.97-6.46-18.07M78.87 465.43l22.03-18.07M519.97 465.43c0-6.48-2.07-12.89-6.03-18.07M546.55 465.43 526 447.36M519.97 465.43c0-6.48 2.07-12.89 6.03-18.07M603.95 465.43l20.54-18.07M630.52 465.43c0-6.48-2.07-12.89-6.03-18.07M657.1 465.43l-20.55-18.07M630.52 465.43c0-6.48 2.07-12.89 6.03-18.07M76.75 465.43h61.23M76.75 469.68h61.23M159.66 152.91l18.07-18.57M159.66 128.89c6.35 0 12.79-1.8 18.07-5.45M159.66 104.86l18.07 18.57M686.88 140.1h4.25v2.09h-4.25zM686.88 141.15h4.25M686.88 172.51v-62.72M691.13 172.51v-62.72M686.88 109.79h4.25v2.09h-4.25zM686.88 170.41h4.25v2.09h-4.25zM674.97 84.45l-21.04 18.5M647.75 84.45c0 6.64 2.12 13.2 6.17 18.5M542.43 84.39l-28.01 24.63M506.2 84.39c0 8.84 2.82 17.58 8.22 24.63M469.97 84.39l28.01 24.63M506.2 84.39c0 8.84-2.82 17.58-8.22 24.63M159.66 128.89h-4.25M155.41 152.91h4.25v2.13h-4.25z" class="cls-4"/><path d="M155.41 127.82h4.25v2.13h-4.25zM659.33 345.54c.9 16.92 14.89 30.18 31.83 30.18M655.05 172.46h31.83v-1.67h-31.83M655.05 170.79v1.67M655.05 111.23v-1.67M655.05 109.56h31.83v1.67h-31.83M655.05 111.23c.91 16.88 15.07 29.78 31.83 29.78M655.05 170.79c.91-16.88 15.07-29.78 31.83-29.78M659.33 405.91v1.69M659.33 407.6h31.83v-1.69h-31.83M659.33 405.91c.9-16.92 14.89-30.18 31.83-30.18M659.33 343.85h31.83v1.69h-31.83M659.33 345.54v-1.69M425.46 86.73c.96 18.06 15.88 32.21 33.97 32.21M425.46 84.92h33.97v1.81h-33.97M425.46 86.73v-1.81M402.02 200.49h1.71M403.73 200.49v31.93h-1.71v-31.93M402.02 200.49c-16.98.9-30.28 14.93-30.28 31.93M576.98 196.33c-19.19 1.02-34.22 16.88-34.22 36.09M578.91 196.33v36.09h-1.93v-36.09M576.98 196.33h1.93M576.98 328.46c-19.19-1.02-34.22-16.88-34.22-36.09M578.91 328.46v-36.09h-1.93v36.09M576.98 328.46h1.93M174.34 262.13c19.19-1.02 34.22-16.88 34.22-36.09M172.42 262.13v-36.09h1.92v36.09M174.34 262.13h-1.92M188.26 268.23v-1.75M188.26 266.48h-32.85v1.75h32.85M188.26 268.23c-.93 17.46-15.36 31.15-32.85 31.15M659.32 238.6v-1.93M659.32 236.67h36.09v1.93h-36.09M659.32 238.6c1.02 19.19 16.88 34.22 36.09 34.22M680.12 287.31v.81M680.12 287.31c.43-8.13 7.15-14.49 15.29-14.49" class="cls-4"/><path d="M680.12 288.12h15.29v-1.77h-15.29M330.64 238.6v-1.93M330.64 236.67h36.09v1.93h-36.09M330.64 238.6c1.02 19.19 16.88 34.22 36.09 34.22M351.45 287.31c.43-8.13 7.15-14.49 15.29-14.49" class="cls-4"/><path d="M351.45 288.12h15.28v-1.77h-15.28M806.81 226.66h11.05v72.43h-11.05z" class="cls-4"/><path d="M795.76 226.66h11.06v72.43h-11.06zM784.7 226.66h11.06v72.43H784.7zM695.41 27.48l89.29 63.16v382.68h-89.29M828.92 226.66h11.05v72.43h-11.05z" class="cls-4"/><path d="M817.87 226.66h11.06v72.43h-11.06zM435.66 224.24v1.7M435.66 225.94h-31.93v-1.7h31.93M435.66 224.24c-.9-16.98-14.93-30.28-31.93-30.28" class="cls-4"/><path d="M403.73 147h3.82v47.02h-3.82zM452.94 190.04h6.38v36h-6.38zM450.92 452.67V298.75h6.38v153.92M351.85 84.92h6.38v34.02h-6.38zM305.03 183.13h47.02v3.82h-47.02zM366.73 292.37h36.14v6.38h-36.14z" class="cls-14"/><path d="M397.21 459.72h38.62v2.32h-38.62zM292.57 459.72h38.62v2.32h-38.62zM187.98 459.72h38.62v2.32h-38.62zM513.18 221.72h27.32v2.32h-27.32zM87.52 459.72h38.62v2.32H87.52zM164.77 110.64h2.32v38.62h-2.32zM611.21 459.72h38.62v2.32h-38.62zM500.66 459.72h38.62v2.32h-38.62z" class="cls-4"/><path d="M674.15 407.6v45.07h-14.93v21.26h36.19V407.6zM695.41 343.82h-21.26v-45.07h-95.24v-6.38h95.24v-4.25h21.26zM403.73 226.04h139.41v6.38H403.73zM402.87 292.37h140.26v6.38H402.87zM155.41 300.5h12.76v152.17h9.35v21.26h-39.54v-21.26h17.43zM172.42 193.3h-17.01v-17.01H44.86v276.38h31.89v21.26H23.6v-318.9h148.82zM151.16 102.74h21.26V78.5H351.9v6.42h6.33V78.5h94.82v6.42h6.38V43.21h215.54v66.31h20.44V27.48H423.28v29.76H151.16zM450.92 298.75h6.38v153.92h-6.38zM351.85 118.94h6.38v107.1h13.51v6.38h-5.01v4.25h-6.38v-4.25H208.56v-6.38h143.29zM453.05 118.94h6.38v71.11h-6.38z" class="cls-11"/><path d="M453.05 190.04h6.38v35.9h-6.38zM351.85 84.92h6.57v34.02h-6.57zM367.1 292.37h35.78v6.38H367.1zM360.2 288.12h6.9v10.63h-6.9zM155.41 193.3v73.18h12.76v-34.06h4.25v-6.38h-4.58V193.3zM305.03 183.13h46.77v3.82h-46.77zM403.73 147h3.82v47.02h-3.82zM358.42 144.87h94.52V147h-94.52zM548.67 452.67h53.15v21.26h-53.15zM341.65 452.67h45.07v21.26h-45.07zM237.05 452.67h45.07v21.26h-45.07zM446.2 452.67h45.07v21.26H446.2zM542.43 43.21h6.29v41.24h-6.29zM641.38 43.21h6.38v41.24h-6.38zM578.91 232.42h95.24v4.25h21.26v-64.16h-20.44v53.53h-96.06" class="cls-11"/><text class="cls-1" transform="translate(559.69 146.28)"><tspan x="0" y="0">Cuisine</tspan><tspan x="0" y="7.2">21,50m </tspan></text><text class="cls-1" transform="translate(522.67 371.7)"><tspan x="0" y="0">Salle  manger</tspan><tspan x="0" y="7.2">18m </tspan></text><text class="cls-1" transform="translate(392.08 105.93)"><tspan x="0" y="0" style="letter-spacing:-.01em">C</tspan><tspan x="4.27" y="0">ellier</tspan><tspan x="0" y="7.2">3,50m </tspan></text><text class="cls-1" transform="translate(234.18 132.69)"><tspan x="0" y="0">Salle de bain I</tspan><tspan x="0" y="7.2">15m </tspan></text><text class="cls-1" transform="translate(234.18 350.28)"><tspan x="0" y="0">Salon</tspan><tspan x="0" y="7.2">32,50m </tspan></text><text class="cls-1" transform="translate(96.68 350.28)"><tspan x="0" y="0">Chamb</tspan><tspan x="19.92" y="0" style="letter-spacing:-.02em">r</tspan><tspan x="21.71" y="0">e I</tspan><tspan x="0" y="7.2">17m </tspan></text><text class="cls-1" transform="translate(419.5 188.4)"><tspan x="0" y="0">WC</tspan><tspan x="0" y="7.2">2m </tspan></text><circle cx="812.11" cy="495.17" r="9.92" class="cls-9"/><path d="M812.13 495.2h9.86" class="cls-9"/><path d="M802.15 495.2h9.98" style="stroke-miterlimit:10;fill:none;stroke:#010101;stroke-width:2px"/></svg>