<?xml version="1.0" encoding="UTF-8"?>
<svg xmlns="http://www.w3.org/2000/svg" viewBox="0 0 224.54 771.53">
  <defs>
    <style>
      .cls-1 {
        stroke: #000;
        stroke-linecap: round;
        stroke-linejoin: round;
        stroke-width: .5px;
      }

      .cls-1, .cls-2 {
        fill: none;
      }

      .cls-3 {
        fill: #333;
        font-family: ArialMT, Arial;
        font-size: 17.02px;
      }

      .cls-2 {
        stroke: #333;
        stroke-miterlimit: 10;
        stroke-width: .15px;
      }
    </style>
  </defs>
  <g id="D_faut" data-name="Défaut">
    <polyline class="cls-1" points="181.54 428.42 208.21 428.42 208.21 439.76 60.67 439.76 60.67 428.42 178.13 428.42"/>
    <rect class="cls-1" x="66.35" y="558.9" width="136.19" height="6.3"/>
    <line class="cls-1" x1="202.53" y1="678.66" x2="202.53" y2="684.33"/>
    <line class="cls-1" x1="202.53" y1="445.44" x2="208.21" y2="445.44"/>
    <rect class="cls-1" x="66.35" y="445.44" width="136.19" height="233.22"/>
    <rect class="cls-1" x="60.67" y="439.76" width="147.54" height="244.57"/>
    <line class="cls-1" x1="83.37" y1="93.05" x2="166.78" y2="93.05"/>
    <line class="cls-1" x1="83.37" y1="209.38" x2="166.78" y2="209.38"/>
    <line class="cls-1" x1="83.37" y1="325.71" x2="166.78" y2="325.71"/>
    <rect class="cls-1" x="166.78" y="314.36" width="11.35" height="11.35"/>
    <rect class="cls-1" x="72.02" y="314.36" width="11.35" height="11.35"/>
    <rect class="cls-1" x="166.78" y="198.03" width="11.35" height="11.35"/>
    <rect class="cls-1" x="72.02" y="198.03" width="11.35" height="11.35"/>
    <rect class="cls-1" x="166.78" y="81.7" width="11.35" height="11.35"/>
    <rect class="cls-1" x="72.02" y="81.7" width="11.35" height="11.35"/>
    <line class="cls-1" x1="66.35" y1="678.66" x2="66.35" y2="684.33"/>
    <line class="cls-1" x1="66.35" y1="445.44" x2="60.67" y2="445.44"/>
    <polyline class="cls-1" points="178.13 198.03 72.02 198.03 72.02 186.68 178.13 186.68"/>
    <polyline class="cls-1" points="181.54 186.68 188.35 186.68 188.35 198.03 181.54 198.03"/>
    <polyline class="cls-1" points="181.54 303.01 188.35 303.01 188.35 314.36 181.54 314.36"/>
    <polyline class="cls-1" points="178.13 314.36 72.02 314.36 72.02 303.01 178.13 303.01"/>
    <polygon class="cls-1" points="181.54 314.64 181.54 310.95 178.13 310.95 178.13 428.42 178.13 431.91 181.54 431.91 181.54 314.64"/>
    <polygon class="cls-1" points="181.54 198.03 181.54 194.63 178.13 194.63 178.13 303.01 178.13 306.23 181.54 306.23 181.54 198.03"/>
    <polygon class="cls-1" points="181.54 81.7 181.54 78.3 178.13 78.3 178.13 186.68 178.13 189.9 181.54 189.9 181.54 81.7"/>
    <polyline class="cls-1" points="178.13 81.7 72.02 81.7 72.02 70.36 188.35 70.36 188.35 81.7 181.54 81.7"/>
    <rect class="cls-1" x="60.67" y="70.36" width="11.35" height="358.06"/>
  </g>
  <g id="cote">
    <line class="cls-2" x1="124.79" y1="314.36" x2="112.47" y2="314.36"/>
    <line class="cls-2" x1="124.79" y1="428.42" x2="112.47" y2="428.42"/>
    <line class="cls-2" x1="113.04" y1="313.51" x2="113.04" y2="362.81"/>
    <line class="cls-2" x1="113.04" y1="379.47" x2="113.04" y2="429.27"/>
    <polyline class="cls-2" points="113.96 315.14 112.25 313.44 112.12 313.57 113.82 315.28 113.96 315.14"/>
    <polyline class="cls-2" points="112.12 427.63 113.82 429.33 113.96 429.2 112.25 427.5 112.12 427.63"/>
    <line class="cls-2" x1="60.39" y1="70.36" x2="39.09" y2="70.36"/>
    <line class="cls-2" x1="60.39" y1="428.42" x2="39.09" y2="428.42"/>
    <line class="cls-2" x1="39.66" y1="69.5" x2="39.66" y2="237.91"/>
    <line class="cls-2" x1="39.66" y1="261.84" x2="39.66" y2="429.27"/>
    <polyline class="cls-2" points="40.58 71.14 38.88 69.44 38.74 69.57 40.44 71.27 40.58 71.14"/>
    <polyline class="cls-2" points="38.74 427.63 40.44 429.33 40.58 429.2 38.88 427.5 38.74 427.63"/>
    <line class="cls-2" x1="66.35" y1="558.62" x2="66.35" y2="538.15"/>
    <line class="cls-2" x1="202.53" y1="558.62" x2="202.53" y2="538.15"/>
    <line class="cls-2" x1="65.49" y1="538.72" x2="125.87" y2="538.72"/>
    <line class="cls-2" x1="142.58" y1="538.72" x2="203.38" y2="538.72"/>
    <polyline class="cls-2" points="67.13 537.8 65.43 539.5 65.56 539.63 67.26 537.93 67.13 537.8"/>
    <polyline class="cls-2" points="201.75 539.63 203.45 537.93 203.32 537.8 201.61 539.5 201.75 539.63"/>
    <line class="cls-2" x1="132.74" y1="565.2" x2="113.73" y2="565.2"/>
    <line class="cls-2" x1="132.74" y1="678.66" x2="113.73" y2="678.66"/>
    <line class="cls-2" x1="114.3" y1="564.35" x2="114.3" y2="613.36"/>
    <line class="cls-2" x1="114.3" y1="630.01" x2="114.3" y2="679.51"/>
    <polyline class="cls-2" points="115.21 565.98 113.51 564.28 113.38 564.41 115.08 566.12 115.21 565.98"/>
    <polyline class="cls-2" points="113.38 677.88 115.08 679.58 115.21 679.44 113.51 677.74 113.38 677.88"/>
    <line class="cls-2" x1="132.74" y1="445.44" x2="112.47" y2="445.44"/>
    <line class="cls-2" x1="132.74" y1="558.9" x2="112.47" y2="558.9"/>
    <line class="cls-2" x1="113.04" y1="444.59" x2="113.04" y2="493.6"/>
    <line class="cls-2" x1="113.04" y1="510.25" x2="113.04" y2="559.75"/>
    <polyline class="cls-2" points="113.96 446.22 112.25 444.52 112.12 444.66 113.82 446.36 113.96 446.22"/>
    <polyline class="cls-2" points="112.12 558.12 113.82 559.82 113.96 559.68 112.25 557.98 112.12 558.12"/>
    <line class="cls-2" x1="124.79" y1="198.03" x2="112.47" y2="198.03"/>
    <line class="cls-2" x1="124.79" y1="303.01" x2="112.47" y2="303.01"/>
    <line class="cls-2" x1="113.04" y1="197.18" x2="113.04" y2="242.38"/>
    <line class="cls-2" x1="113.04" y1="258.6" x2="113.04" y2="303.86"/>
    <polyline class="cls-2" points="113.96 198.81 112.25 197.11 112.12 197.25 113.82 198.95 113.96 198.81"/>
    <polyline class="cls-2" points="112.12 302.23 113.82 303.93 113.96 303.79 112.25 302.09 112.12 302.23"/>
    <line class="cls-2" x1="124.79" y1="81.7" x2="112.47" y2="81.7"/>
    <line class="cls-2" x1="124.79" y1="186.68" x2="112.47" y2="186.68"/>
    <line class="cls-2" x1="113.04" y1="80.85" x2="113.04" y2="126.05"/>
    <line class="cls-2" x1="113.04" y1="142.27" x2="113.04" y2="187.53"/>
    <polyline class="cls-2" points="113.96 82.49 112.25 80.78 112.12 80.92 113.82 82.62 113.96 82.49"/>
    <polyline class="cls-2" points="112.12 185.9 113.82 187.6 113.96 187.47 112.25 185.76 112.12 185.9"/>
    <line class="cls-2" x1="73.71" y1="741.08" x2="14.35" y2="741.08"/>
    <line class="cls-2" x1="73.71" y1="70.36" x2="14.35" y2="70.36"/>
    <line class="cls-2" x1="14.92" y1="741.93" x2="14.92" y2="418.42"/>
    <line class="cls-2" x1="14.92" y1="393.26" x2="14.92" y2="69.5"/>
    <polyline class="cls-2" points="14 740.3 15.7 742 15.84 741.86 14.14 740.16 14 740.3"/>
    <polyline class="cls-2" points="15.84 71.14 14.14 69.44 14 69.57 15.7 71.27 15.84 71.14"/>
    <line class="cls-2" x1="60.39" y1="442.6" x2="39.09" y2="442.6"/>
    <line class="cls-2" x1="60.39" y1="684.33" x2="39.09" y2="684.33"/>
    <line class="cls-2" x1="39.66" y1="441.75" x2="39.66" y2="555.33"/>
    <line class="cls-2" x1="39.66" y1="571.67" x2="39.66" y2="685.18"/>
    <polyline class="cls-2" points="40.58 443.38 38.88 441.68 38.74 441.82 40.44 443.52 40.58 443.38"/>
    <polyline class="cls-2" points="38.74 683.55 40.44 685.25 40.58 685.12 38.88 683.41 38.74 683.55"/>
    <line class="cls-2" x1="73.71" y1="741.08" x2="39.09" y2="741.08"/>
    <line class="cls-2" x1="73.71" y1="684.33" x2="39.09" y2="684.33"/>
    <line class="cls-2" x1="39.66" y1="741.93" x2="39.66" y2="721.03"/>
    <line class="cls-2" x1="39.66" y1="704.63" x2="39.66" y2="683.48"/>
    <polyline class="cls-2" points="38.74 740.3 40.44 742 40.58 741.86 38.88 740.16 38.74 740.3"/>
    <polyline class="cls-2" points="40.58 685.12 38.88 683.41 38.74 683.55 40.44 685.25 40.58 685.12"/>
    <line class="cls-2" x1="188.35" y1="70.07" x2="188.35" y2="39.17"/>
    <line class="cls-2" x1="60.67" y1="70.07" x2="60.67" y2="39.17"/>
    <line class="cls-2" x1="189.2" y1="39.74" x2="133.08" y2="39.74"/>
    <line class="cls-2" x1="116.3" y1="39.74" x2="59.82" y2="39.74"/>
    <polyline class="cls-2" points="187.56 40.66 189.27 38.96 189.13 38.82 187.43 40.52 187.56 40.66"/>
    <polyline class="cls-2" points="61.45 38.82 59.75 40.52 59.89 40.66 61.59 38.96 61.45 38.82"/>
  </g>
  <g id="Calque_7" data-name="Calque 7">
    <text class="cls-3" transform="translate(118.47 379.65) rotate(-90)"><tspan x="0" y="0">40</tspan></text>
    <text class="cls-3" transform="translate(45.09 263.51) rotate(-90)"><tspan x="0" y="0">126</tspan></text>
    <text class="cls-3" transform="translate(125.68 544.39)"><tspan x="0" y="0">48</tspan></text>
    <text class="cls-3" transform="translate(119.73 630.19) rotate(-90)"><tspan x="0" y="0">40</tspan></text>
    <text class="cls-3" transform="translate(118.47 510.43) rotate(-90)"><tspan x="0" y="0">40</tspan></text>
    <text class="cls-3" transform="translate(118.47 259.22) rotate(-90)"><tspan x="0" y="0">37</tspan></text>
    <text class="cls-3" transform="translate(118.47 142.89) rotate(-90)"><tspan x="0" y="0">37</tspan></text>
    <text class="cls-3" transform="translate(20.59 418.85) rotate(-90)"><tspan x="0" y="0">236</tspan></text>
    <text class="cls-3" transform="translate(45.09 572.29) rotate(-90)"><tspan x="0" y="0">85</tspan></text>
    <text class="cls-3" transform="translate(45.34 721.47) rotate(-90)"><tspan x="0" y="0">20</tspan></text>
    <text class="cls-3" transform="translate(116.12 45.17)"><tspan x="0" y="0">45</tspan></text>
  </g>
  <g id="Calque_01" data-name="Calque 01">
    <rect class="cls-1" x="91.84" y="684.33" width="9.92" height="1.41"/>
    <rect class="cls-1" x="66.52" y="684.33" width="9.92" height="1.41"/>
    <rect class="cls-1" x="192.44" y="684.33" width="9.92" height="1.41"/>
    <rect class="cls-1" x="167.12" y="684.33" width="9.92" height="1.41"/>
    <line class="cls-1" x1="91.84" y1="684.33" x2="76.44" y2="684.33"/>
    <line class="cls-1" x1="82.34" y1="741.08" x2="85.94" y2="741.08"/>
    <line class="cls-1" x1="91.84" y1="684.33" x2="85.94" y2="741.08"/>
    <line class="cls-1" x1="76.44" y1="684.33" x2="82.34" y2="741.08"/>
    <line class="cls-1" x1="177.04" y1="684.33" x2="192.44" y2="684.33"/>
    <line class="cls-1" x1="186.54" y1="741.08" x2="182.94" y2="741.08"/>
    <line class="cls-1" x1="177.04" y1="684.33" x2="182.94" y2="741.08"/>
    <line class="cls-1" x1="192.44" y1="684.33" x2="186.54" y2="741.08"/>
    <rect class="cls-1" x="216.21" y="466.1" width="2.09" height="4.32"/>
    <rect class="cls-1" x="208.21" y="467.43" width="8" height="2.07"/>
  </g>
</svg>