<svg xmlns="http://www.w3.org/2000/svg" viewBox="0 0 903.12 733.68"><defs><pattern id="Terrain_submergé_USGS_19" width="72" height="72" x="0" y="0" data-name="Terrain submergé USGS 19" patternTransform="translate(221.5 726.32)" patternUnits="userSpaceOnUse"><path d="M0 0h72v72H0z" style="fill:none;stroke-width:0"/><path d="M71 71h73.44M71 67h73.44M71 63h73.44M71 59h73.44M71 55h73.44M71 51h73.44M71 47h73.44M71 43h73.44M71 39h73.44M71 35h73.44M71 31h73.44M71 27h73.44M71 23h73.44M71 19h73.44M71 15h73.44M71 11h73.44M71 7h73.44M71 3h73.44M-1 71h73.44M-1 67h73.44M-1 63h73.44M-1 59h73.44M-1 55h73.44M-1 51h73.44M-1 47h73.44M-1 43h73.44M-1 39h73.44M-1 35h73.44M-1 31h73.44M-1 27h73.44M-1 23h73.44M-1 19h73.44M-1 15h73.44M-1 11h73.44M-1 7h73.44M-1 3h73.44M1.04 69h73.44M1.04 65h73.44M1.04 61h73.44M1.04 57h73.44M1.04 53h73.44M1.04 49h73.44M1.04 45h73.44M1.04 41h73.44M1.04 37h73.44M1.04 33h73.44M1.04 29h73.44M1.04 25h73.44M1.04 21h73.44M1.04 17h73.44M1.04 13h73.44M1.04 9h73.44M1.04 5h73.44M1.04 1h73.44M-73 71H.44M-73 67H.44M-73 63H.44M-73 59H.44M-73 55H.44M-73 51H.44M-73 47H.44M-73 43H.44M-73 39H.44M-73 35H.44M-73 31H.44M-73 27H.44M-73 23H.44M-73 19H.44M-73 15H.44M-73 11H.44M-73 7H.44M-73 3H.44M-70.96 69H2.48M-70.96 65H2.48M-70.96 61H2.48M-70.96 57H2.48M-70.96 53H2.48M-70.96 49H2.48M-70.96 45H2.48M-70.96 41H2.48M-70.96 37H2.48M-70.96 33H2.48M-70.96 29H2.48M-70.96 25H2.48M-70.96 21H2.48M-70.96 17H2.48M-70.96 13H2.48M-70.96 9H2.48M-70.96 5H2.48M-70.96 1H2.48" class="cls-1"/></pattern><style>.cls-1{stroke:#1d1d1b;stroke-dasharray:0 0 2 2;stroke-width:.3px}.cls-1,.cls-3,.cls-4,.cls-5,.cls-6,.cls-7{fill:none}.cls-8{fill:#fff}.cls-3,.cls-4,.cls-5,.cls-8,.cls-9{stroke:#000}.cls-3,.cls-4,.cls-5,.cls-6,.cls-8,.cls-9{stroke-linecap:round;stroke-linejoin:round}.cls-4,.cls-8,.cls-9{stroke-width:.5px}.cls-3{stroke-dasharray:0 0 14.17 14.17}.cls-3,.cls-5,.cls-6{stroke-width:.25px}.cls-10{fill:#333;font-family:ArialMT,Arial;font-size:17.02px}.cls-9{fill:url(#Terrain_submergé_USGS_19);opacity:.74}.cls-6{stroke:#666}.cls-7{stroke:#333;stroke-miterlimit:10;stroke-width:.15px}</style></defs><g id="Calque_05" data-name="Calque 05"><path d="M586.5 84.73H484.78V73.38H897.6v11.35H782.26M202.88 84.73H57.78V73.38H470.6v11.35h-71.95M104.46 201.06H57.78v-11.35H470.6v11.35H300.23M188.23 317.39H57.78v-11.35H470.6v11.35H384M522.12 317.39h-37.34v-11.35H897.6v11.35H717.89M620 201.06H484.78v-11.35H897.6v11.35h-81.83" class="cls-6"/></g><g id="D_faut" data-name="D√©faut"><path d="M202.88 73.38h195.77v104.98H202.88zM620 189.71h195.77v104.98H620zM522.12 306.04h195.77v104.98H522.12zM586.5 73.38h195.77v104.98H586.5zM188.23 306.04H384v104.98H188.23zM104.46 189.71h195.77v104.98H104.46zM336.4 422.36v253.65M197.09 422.36v253.65M756.31 422.36v253.65M617 422.36v253.65M477.69 62.04H897.6v11.34H477.69V62.04" class="cls-4"/><path d="M57.78 62.04h419.91v11.34H57.78V62.04M57.78 411.02h419.91v11.34H57.78v-11.34" class="cls-4"/><path d="M477.69 411.02H897.6v11.34H477.69v-11.34M484.78 178.36H897.6v11.35H484.78v-11.35M57.78 178.36H470.6v11.35H57.78v-11.35M484.78 294.69H897.6v11.35H484.78v-11.35M57.78 294.69H470.6v11.35H57.78v-11.35" class="cls-4"/><path d="M470.6 411.02V73.38h14.18v337.64H470.6M57.78 422.36H897.6v253.65H57.78zM477.69 422.36v253.65" class="cls-4"/><path d="M874.9 73.38h11.35v337.63H874.9zM69.13 73.38h11.35v337.63H69.13z" class="cls-8"/></g><g id="Calque_10" data-name="Calque 10"><path d="M532.05 315.97h175.91v85.12H532.05zM198.16 315.97h175.91v85.12H198.16zM114.39 199.64H290.3v85.12H114.39zM629.93 199.64h175.91v85.12H629.93zM596.42 83.31h175.91v85.12H596.42zM212.81 83.31h175.91v85.12H212.81z" class="cls-9"/></g><g id="cote"><path d="M69.13 84.45v-18.2M80.48 84.45v-18.2M68.28 66.82h2.33M78.44 66.82h2.89M69.91 65.9l-1.7 1.7.13.14 1.71-1.71-.14-.13M79.69 67.74l1.71-1.71-.14-.13-1.7 1.7.13.14M470.6 84.45V72.82M484.78 84.45V72.82M469.75 73.38h4.18M481.51 73.38h4.12M471.38 72.47l-1.7 1.7.13.13 1.71-1.7-.14-.13M484 74.3l1.7-1.7-.13-.13-1.71 1.7.14.13M57.78 61.75V7.32M897.6 61.75V7.32M56.93 7.88h408.05M490.15 7.88h408.3M58.56 6.97l-1.7 1.7.14.13 1.7-1.7-.14-.13M896.82 8.8l1.7-1.7-.14-.13-1.7 1.7.14.13M57.5 189.71H41.14M57.5 294.69H41.14M41.71 188.86v45.2M41.71 250.28v45.26M42.63 190.49l-1.71-1.7-.13.14 1.7 1.7.14-.14M40.79 293.91l1.7 1.7.14-.14-1.71-1.7-.13.14M57.5 73.38H41.14M57.5 178.36H41.14M41.71 72.53v45.2M41.71 133.95v45.26M42.63 74.17l-1.71-1.7-.13.13 1.7 1.7.14-.13M40.79 177.58l1.7 1.7.14-.13-1.71-1.71-.13.14M202.88 178.08v-18.27M398.65 178.08v-18.27M202.02 160.38h90.54M308.9 160.38h90.6M203.66 159.46l-1.7 1.7.13.14 1.7-1.7-.13-.14M397.86 161.3l1.7-1.7-.13-.14-1.7 1.7.13.14M203.16 73.38H232M203.16 178.36H232M231.43 72.53v45.2M231.43 133.95v45.26M232.35 74.17l-1.7-1.7-.14.13 1.71 1.7.13-.13M230.51 177.58l1.71 1.7.13-.13-1.7-1.71-.14.14M57.5 306.04H41.14M57.5 411.02H41.14M41.71 305.19v45.2M41.71 366.61v45.26M42.63 306.82l-1.71-1.7-.13.14 1.7 1.7.14-.14M40.79 410.23l1.7 1.71.14-.14-1.71-1.7-.13.13M57.5 422.36H41.14M57.5 676.01H41.14M41.71 421.51v119.54M41.71 557.33v119.54M42.63 423.15l-1.71-1.7-.13.13 1.7 1.7.14-.13M40.79 675.23l1.7 1.7.14-.13-1.71-1.7-.13.13M57.78 422.65v28.76M197.09 422.65v28.76M56.93 450.84h61.93M135.57 450.84h62.37M58.56 449.92l-1.7 1.7.14.14 1.7-1.7-.14-.14M196.3 451.76l1.71-1.7-.14-.14-1.7 1.7.13.14M57.5 62.04H8.64M57.5 732.76H8.64M9.2 61.18v323.51M9.2 409.86v323.75M10.12 62.82l-1.7-1.7-.13.13 1.7 1.7.13-.13M8.29 731.98l1.7 1.7.13-.14-1.7-1.7-.13.14M477.69 61.75V41.54M897.6 61.75V41.54M476.84 42.11h199.33M700.17 42.11h198.28M478.47 41.19l-1.7 1.7.14.14 1.7-1.71-.14-.13M896.82 43.03l1.7-1.71-.14-.13-1.7 1.7.14.14M104.65 676.01H41.14M104.65 732.76H41.14M41.71 675.16v20.9M41.71 712.47v21.14" class="cls-7"/><path d="m42.63 676.8-1.71-1.7-.13.13 1.7 1.7.14-.13M40.79 731.98l1.7 1.7.14-.14-1.71-1.7-.13.14M57.78 61.75V41.54M477.69 61.75V41.54M56.93 42.11h199.33M280.26 42.11h198.28M58.56 41.19l-1.7 1.7.14.14 1.7-1.71-.14-.13M476.91 43.03l1.7-1.71-.14-.13-1.7 1.7.14.14" class="cls-7"/></g><g id="Calque_7" data-name="Calque 7"><text class="cls-10" transform="translate(70.43 72.49)"><tspan x="0" y="0">4</tspan></text><text class="cls-10" transform="translate(473.31 79.06)"><tspan x="0" y="0">5</tspan></text><text class="cls-10" transform="translate(464.55 13.56)"><tspan x="0" y="0">296</tspan></text><text class="cls-10" transform="rotate(-90 149.015 101.885)"><tspan x="0" y="0">37</tspan></text><text class="cls-10" transform="rotate(-90 90.85 43.72)"><tspan x="0" y="0">37</tspan></text><text class="cls-10" transform="translate(292.01 166.06)"><tspan x="0" y="0">69</tspan></text><text class="cls-10" transform="rotate(-90 185.715 -51.145)"><tspan x="0" y="0">37</tspan></text><text class="cls-10" transform="rotate(-90 207.18 160.05)"><tspan x="0" y="0">37</tspan></text><text class="cls-10" transform="rotate(-90 302.54 255.41)"><tspan x="0" y="0">89</tspan></text><text class="cls-10" transform="translate(118.68 456.52)"><tspan x="0" y="0">49</tspan></text><text class="cls-10" transform="rotate(-90 212.46 197.83)"><tspan x="0" y="0">236</tspan></text><text class="cls-10" transform="translate(674.51 47.78)"><tspan x="0" y="0">148</tspan></text><text class="cls-10" transform="rotate(-90 380.015 332.885)"><tspan x="0" y="0">20</tspan></text><text class="cls-10" transform="translate(254.6 47.78)"><tspan x="0" y="0">148</tspan></text></g><g id="Calque_03" data-name="Calque 03"><path d="M177.85 239.11h45.27l-12.5-7.77M640.77 368.77h-45.26l12.49 7.78M595.51 355.44h45.26l-12.49-7.78M321.53 136.12h-45.26l12.49 7.77M276.27 122.79h45.26l-12.5-7.78M705.15 136.12h-45.26l12.49 7.77M659.89 122.79h45.26l-12.5-7.78M738.66 252.44h-45.27l12.5 7.78M693.39 239.11h45.27l-12.5-7.77M223.12 252.44h-45.27l12.5 7.78M306.89 368.77h-45.27l12.5 7.78M261.62 355.44h45.27l-12.5-7.78" class="cls-5"/></g><g id="Calque_02" data-name="Calque 02"><path d="m338.38 422.36 139.31 126.83-139.31 126.82M617 422.36l139.31 126.83L617 676.01M895.62 422.36 756.31 549.19l139.31 126.82M57.78 422.36l139.31 126.83L57.78 676.01M336.4 422.36 197.09 549.19 336.4 676.01M617 422.36 477.69 549.19 617 676.01" class="cls-3"/></g><g id="Calque_01" data-name="Calque 01"><path d="M832.39 676.01h-15.4M807.06 676.01h9.92v1.41h-9.92zM832.5 676.01l5.9 56.75M817.26 676.01l17.54 56.75M834.8 732.76h3.6M120.42 676.01h15.4M135.82 676.01h9.92v1.41h-9.92zM120.3 676.01l-5.89 56.75M135.55 676.01l-17.54 56.75M118.01 732.76h-3.6M447.65 676.01h-15.4M422.32 676.01h9.92v1.41h-9.92zM447.76 676.01l5.9 56.75M432.52 676.01l17.54 56.75M450.06 732.76h3.6M507.73 676.01h15.41M523.14 676.01h9.92v1.41h-9.92zM507.62 676.01l-5.9 56.75M522.86 676.01l-17.53 56.75M505.33 732.76h-3.61M108.75 457.83c.61 0 1.19.24 1.61.67s.67 1.01.67 1.61-.24 1.19-.67 1.61c-.43.43-1.01.67-1.61.67s-1.19-.24-1.61-.67c-.43-.43-.67-1.01-.67-1.61s.24-1.19.67-1.61 1.01-.67 1.61-.67M146.12 457.83c-.61 0-1.19.24-1.61.67s-.67 1.01-.67 1.61.24 1.19.67 1.61c.43.43 1.01.67 1.61.67s1.19-.24 1.61-.67c.43-.43.67-1.01.67-1.61s-.24-1.19-.67-1.61a2.28 2.28 0 0 0-1.61-.67M144.06 459.11H110.8M110.8 461.11h33.26M285.42 457.83c-.61 0-1.19.24-1.61.67s-.67 1.01-.67 1.61.24 1.19.67 1.61c.43.43 1.01.67 1.61.67s1.19-.24 1.61-.67.67-1.01.67-1.61-.24-1.19-.67-1.61a2.28 2.28 0 0 0-1.61-.67M248.06 457.83c.61 0 1.19.24 1.61.67s.67 1.01.67 1.61-.24 1.19-.67 1.61c-.43.43-1.01.67-1.61.67s-1.19-.24-1.61-.67c-.43-.43-.67-1.01-.67-1.61s.24-1.19.67-1.61 1.01-.67 1.61-.67M250.11 459.11h33.26M283.37 461.11h-33.26M389.35 457.83c.61 0 1.19.24 1.61.67s.67 1.01.67 1.61-.24 1.19-.67 1.61c-.43.43-1.01.67-1.61.67s-1.19-.24-1.61-.67c-.43-.43-.67-1.01-.67-1.61s.24-1.19.67-1.61 1.01-.67 1.61-.67M426.72 457.83c-.61 0-1.19.24-1.61.67s-.67 1.01-.67 1.61.24 1.19.67 1.61 1.01.67 1.61.67 1.19-.24 1.61-.67.67-1.01.67-1.61-.24-1.19-.67-1.61a2.28 2.28 0 0 0-1.61-.67M424.67 459.11H391.4M391.4 461.11h33.27M566.03 457.83c-.61 0-1.19.24-1.61.67-.43.43-.67 1.01-.67 1.61s.24 1.19.67 1.61 1.01.67 1.61.67 1.19-.24 1.61-.67c.43-.43.67-1.01.67-1.61s-.24-1.19-.67-1.61-1.01-.67-1.61-.67M528.66 457.83c.61 0 1.19.24 1.61.67.43.43.67 1.01.67 1.61s-.24 1.19-.67 1.61c-.43.43-1.01.67-1.61.67s-1.19-.24-1.61-.67c-.43-.43-.67-1.01-.67-1.61s.24-1.19.67-1.61 1.01-.67 1.61-.67M530.71 459.11h33.27M563.98 461.11h-33.27M667.97 457.83c.61 0 1.19.24 1.61.67.43.43.67 1.01.67 1.61s-.24 1.19-.67 1.61c-.43.43-1.01.67-1.61.67s-1.19-.24-1.61-.67c-.43-.43-.67-1.01-.67-1.61s.24-1.19.67-1.61 1.01-.67 1.61-.67M705.34 457.83c-.61 0-1.19.24-1.61.67-.43.43-.67 1.01-.67 1.61s.24 1.19.67 1.61c.43.43 1.01.67 1.61.67s1.19-.24 1.61-.67c.43-.43.67-1.01.67-1.61s-.24-1.19-.67-1.61-1.01-.67-1.61-.67M703.28 459.11h-33.26M670.02 461.11h33.26M844.65 457.83c-.61 0-1.19.24-1.61.67-.43.43-.67 1.01-.67 1.61s.24 1.19.67 1.61c.43.43 1.01.67 1.61.67s1.19-.24 1.61-.67c.43-.43.67-1.01.67-1.61s-.24-1.19-.67-1.61-1.01-.67-1.61-.67M807.28 457.83c.61 0 1.19.24 1.61.67.43.43.67 1.01.67 1.61s-.24 1.19-.67 1.61c-.43.43-1.01.67-1.61.67s-1.19-.24-1.61-.67c-.43-.43-.67-1.01-.67-1.61s.24-1.19.67-1.61 1.01-.67 1.61-.67M809.33 459.11h33.26M842.59 461.11h-33.26" class="cls-4"/></g></svg>