<?xml version="1.0" encoding="UTF-8"?>
<svg xmlns="http://www.w3.org/2000/svg" xmlns:xlink="http://www.w3.org/1999/xlink" viewBox="0 0 924.11 771.53">
  <defs>
    <style>
      .cls-1 {
        stroke: #1d1d1b;
        stroke-dasharray: 0 0 2 2;
        stroke-width: .3px;
      }

      .cls-1, .cls-2, .cls-3, .cls-4, .cls-5, .cls-6, .cls-7 {
        fill: none;
      }

      .cls-8 {
        fill: #fff;
      }

      .cls-8, .cls-3, .cls-4, .cls-5, .cls-9 {
        stroke: #000;
      }

      .cls-8, .cls-3, .cls-4, .cls-5, .cls-9, .cls-6 {
        stroke-linecap: round;
        stroke-linejoin: round;
      }

      .cls-8, .cls-4, .cls-9 {
        stroke-width: .5px;
      }

      .cls-2 {
        stroke-width: 0px;
      }

      .cls-3 {
        stroke-dasharray: 0 0 14.17 14.17;
      }

      .cls-3, .cls-5, .cls-6 {
        stroke-width: .25px;
      }

      .cls-10 {
        fill: #333;
        font-family: ArialMT, Arial;
        font-size: 17.02px;
      }

      .cls-9 {
        fill: url(#Terrain_submergé_USGS_19);
        opacity: .74;
      }

      .cls-6 {
        stroke: #666;
      }

      .cls-7 {
        stroke: #333;
        stroke-miterlimit: 10;
        stroke-width: .15px;
      }
    </style>
    <pattern id="Terrain_submergé_USGS_19" data-name="Terrain submergé USGS 19" x="0" y="0" width="72" height="72" patternTransform="translate(229.67 734.64)" patternUnits="userSpaceOnUse" viewBox="0 0 72 72">
      <g>
        <rect class="cls-2" width="72" height="72"/>
        <g>
          <line class="cls-1" x1="71" y1="71" x2="144.44" y2="71"/>
          <line class="cls-1" x1="71" y1="67" x2="144.44" y2="67"/>
          <line class="cls-1" x1="71" y1="63" x2="144.44" y2="63"/>
          <line class="cls-1" x1="71" y1="59" x2="144.44" y2="59"/>
          <line class="cls-1" x1="71" y1="55" x2="144.44" y2="55"/>
          <line class="cls-1" x1="71" y1="51" x2="144.44" y2="51"/>
          <line class="cls-1" x1="71" y1="47" x2="144.44" y2="47"/>
          <line class="cls-1" x1="71" y1="43" x2="144.44" y2="43"/>
          <line class="cls-1" x1="71" y1="39" x2="144.44" y2="39"/>
          <line class="cls-1" x1="71" y1="35" x2="144.44" y2="35"/>
          <line class="cls-1" x1="71" y1="31" x2="144.44" y2="31"/>
          <line class="cls-1" x1="71" y1="27" x2="144.44" y2="27"/>
          <line class="cls-1" x1="71" y1="23" x2="144.44" y2="23"/>
          <line class="cls-1" x1="71" y1="19" x2="144.44" y2="19"/>
          <line class="cls-1" x1="71" y1="15" x2="144.44" y2="15"/>
          <line class="cls-1" x1="71" y1="11" x2="144.44" y2="11"/>
          <line class="cls-1" x1="71" y1="7" x2="144.44" y2="7"/>
          <line class="cls-1" x1="71" y1="3" x2="144.44" y2="3"/>
        </g>
        <g>
          <line class="cls-1" x1="-1" y1="71" x2="72.44" y2="71"/>
          <line class="cls-1" x1="-1" y1="67" x2="72.44" y2="67"/>
          <line class="cls-1" x1="-1" y1="63" x2="72.44" y2="63"/>
          <line class="cls-1" x1="-1" y1="59" x2="72.44" y2="59"/>
          <line class="cls-1" x1="-1" y1="55" x2="72.44" y2="55"/>
          <line class="cls-1" x1="-1" y1="51" x2="72.44" y2="51"/>
          <line class="cls-1" x1="-1" y1="47" x2="72.44" y2="47"/>
          <line class="cls-1" x1="-1" y1="43" x2="72.44" y2="43"/>
          <line class="cls-1" x1="-1" y1="39" x2="72.44" y2="39"/>
          <line class="cls-1" x1="-1" y1="35" x2="72.44" y2="35"/>
          <line class="cls-1" x1="-1" y1="31" x2="72.44" y2="31"/>
          <line class="cls-1" x1="-1" y1="27" x2="72.44" y2="27"/>
          <line class="cls-1" x1="-1" y1="23" x2="72.44" y2="23"/>
          <line class="cls-1" x1="-1" y1="19" x2="72.44" y2="19"/>
          <line class="cls-1" x1="-1" y1="15" x2="72.44" y2="15"/>
          <line class="cls-1" x1="-1" y1="11" x2="72.44" y2="11"/>
          <line class="cls-1" x1="-1" y1="7" x2="72.44" y2="7"/>
          <line class="cls-1" x1="-1" y1="3" x2="72.44" y2="3"/>
          <line class="cls-1" x1="1.04" y1="69" x2="74.48" y2="69"/>
          <line class="cls-1" x1="1.04" y1="65" x2="74.48" y2="65"/>
          <line class="cls-1" x1="1.04" y1="61" x2="74.48" y2="61"/>
          <line class="cls-1" x1="1.04" y1="57" x2="74.48" y2="57"/>
          <line class="cls-1" x1="1.04" y1="53" x2="74.48" y2="53"/>
          <line class="cls-1" x1="1.04" y1="49" x2="74.48" y2="49"/>
          <line class="cls-1" x1="1.04" y1="45" x2="74.48" y2="45"/>
          <line class="cls-1" x1="1.04" y1="41" x2="74.48" y2="41"/>
          <line class="cls-1" x1="1.04" y1="37" x2="74.48" y2="37"/>
          <line class="cls-1" x1="1.04" y1="33" x2="74.48" y2="33"/>
          <line class="cls-1" x1="1.04" y1="29" x2="74.48" y2="29"/>
          <line class="cls-1" x1="1.04" y1="25" x2="74.48" y2="25"/>
          <line class="cls-1" x1="1.04" y1="21" x2="74.48" y2="21"/>
          <line class="cls-1" x1="1.04" y1="17" x2="74.48" y2="17"/>
          <line class="cls-1" x1="1.04" y1="13" x2="74.48" y2="13"/>
          <line class="cls-1" x1="1.04" y1="9" x2="74.48" y2="9"/>
          <line class="cls-1" x1="1.04" y1="5" x2="74.48" y2="5"/>
          <line class="cls-1" x1="1.04" y1="1" x2="74.48" y2="1"/>
        </g>
        <g>
          <line class="cls-1" x1="-73" y1="71" x2=".44" y2="71"/>
          <line class="cls-1" x1="-73" y1="67" x2=".44" y2="67"/>
          <line class="cls-1" x1="-73" y1="63" x2=".44" y2="63"/>
          <line class="cls-1" x1="-73" y1="59" x2=".44" y2="59"/>
          <line class="cls-1" x1="-73" y1="55" x2=".44" y2="55"/>
          <line class="cls-1" x1="-73" y1="51" x2=".44" y2="51"/>
          <line class="cls-1" x1="-73" y1="47" x2=".44" y2="47"/>
          <line class="cls-1" x1="-73" y1="43" x2=".44" y2="43"/>
          <line class="cls-1" x1="-73" y1="39" x2=".44" y2="39"/>
          <line class="cls-1" x1="-73" y1="35" x2=".44" y2="35"/>
          <line class="cls-1" x1="-73" y1="31" x2=".44" y2="31"/>
          <line class="cls-1" x1="-73" y1="27" x2=".44" y2="27"/>
          <line class="cls-1" x1="-73" y1="23" x2=".44" y2="23"/>
          <line class="cls-1" x1="-73" y1="19" x2=".44" y2="19"/>
          <line class="cls-1" x1="-73" y1="15" x2=".44" y2="15"/>
          <line class="cls-1" x1="-73" y1="11" x2=".44" y2="11"/>
          <line class="cls-1" x1="-73" y1="7" x2=".44" y2="7"/>
          <line class="cls-1" x1="-73" y1="3" x2=".44" y2="3"/>
          <line class="cls-1" x1="-70.96" y1="69" x2="2.48" y2="69"/>
          <line class="cls-1" x1="-70.96" y1="65" x2="2.48" y2="65"/>
          <line class="cls-1" x1="-70.96" y1="61" x2="2.48" y2="61"/>
          <line class="cls-1" x1="-70.96" y1="57" x2="2.48" y2="57"/>
          <line class="cls-1" x1="-70.96" y1="53" x2="2.48" y2="53"/>
          <line class="cls-1" x1="-70.96" y1="49" x2="2.48" y2="49"/>
          <line class="cls-1" x1="-70.96" y1="45" x2="2.48" y2="45"/>
          <line class="cls-1" x1="-70.96" y1="41" x2="2.48" y2="41"/>
          <line class="cls-1" x1="-70.96" y1="37" x2="2.48" y2="37"/>
          <line class="cls-1" x1="-70.96" y1="33" x2="2.48" y2="33"/>
          <line class="cls-1" x1="-70.96" y1="29" x2="2.48" y2="29"/>
          <line class="cls-1" x1="-70.96" y1="25" x2="2.48" y2="25"/>
          <line class="cls-1" x1="-70.96" y1="21" x2="2.48" y2="21"/>
          <line class="cls-1" x1="-70.96" y1="17" x2="2.48" y2="17"/>
          <line class="cls-1" x1="-70.96" y1="13" x2="2.48" y2="13"/>
          <line class="cls-1" x1="-70.96" y1="9" x2="2.48" y2="9"/>
          <line class="cls-1" x1="-70.96" y1="5" x2="2.48" y2="5"/>
          <line class="cls-1" x1="-70.96" y1="1" x2="2.48" y2="1"/>
        </g>
      </g>
    </pattern>
  </defs>
  <g id="Calque_05" data-name="Calque 05">
    <polyline class="cls-6" points="594.66 93.05 492.95 93.05 492.95 87.38 492.95 81.7 905.77 81.7 905.77 93.05 790.43 93.05"/>
    <polyline class="cls-6" points="211.04 93.05 65.95 93.05 65.95 87.38 65.95 81.7 478.76 81.7 478.76 93.05 406.81 93.05"/>
    <polyline class="cls-6" points="112.63 209.38 65.95 209.38 65.95 203.71 65.95 198.03 478.76 198.03 478.76 209.38 308.4 209.38"/>
    <polyline class="cls-6" points="196.4 325.71 65.95 325.71 65.95 320.03 65.95 314.36 478.76 314.36 478.76 325.71 392.17 325.71"/>
    <polyline class="cls-6" points="530.28 325.71 492.95 325.71 492.95 320.03 492.95 314.36 905.77 314.36 905.77 325.71 726.05 325.71"/>
    <polyline class="cls-6" points="628.17 209.38 492.95 209.38 492.95 203.71 492.95 198.03 905.77 198.03 905.77 209.38 823.94 209.38"/>
  </g>
  <g id="D_faut" data-name="D√©faut">
    <rect class="cls-4" x="211.04" y="81.7" width="195.77" height="104.98"/>
    <rect class="cls-4" x="628.17" y="198.03" width="195.77" height="104.98"/>
    <rect class="cls-4" x="530.28" y="314.36" width="195.77" height="104.98"/>
    <rect class="cls-4" x="594.66" y="81.7" width="195.77" height="104.98"/>
    <rect class="cls-4" x="196.4" y="314.36" width="195.77" height="104.98"/>
    <rect class="cls-4" x="112.63" y="198.03" width="195.77" height="104.98"/>
    <line class="cls-4" x1="344.56" y1="430.68" x2="344.56" y2="684.33"/>
    <line class="cls-4" x1="205.25" y1="430.68" x2="205.25" y2="684.33"/>
    <line class="cls-4" x1="764.47" y1="430.68" x2="764.47" y2="684.33"/>
    <line class="cls-4" x1="625.17" y1="430.68" x2="625.17" y2="684.33"/>
    <polygon class="cls-4" points="485.86 70.36 905.77 70.36 905.77 81.7 485.86 81.7 485.86 76.03 485.86 70.36"/>
    <polygon class="cls-4" points="65.95 70.36 485.86 70.36 485.86 81.7 65.95 81.7 65.95 76.03 65.95 70.36"/>
    <polygon class="cls-4" points="65.95 419.34 485.86 419.34 485.86 430.68 65.95 430.68 65.95 425.01 65.95 419.34"/>
    <polygon class="cls-4" points="485.86 419.34 905.77 419.34 905.77 430.68 485.86 430.68 485.86 425.01 485.86 419.34"/>
    <polygon class="cls-4" points="492.95 186.68 905.77 186.68 905.77 198.03 492.95 198.03 492.95 192.36 492.95 186.68"/>
    <polygon class="cls-4" points="65.95 186.68 478.76 186.68 478.76 198.03 65.95 198.03 65.95 192.36 65.95 186.68"/>
    <polygon class="cls-4" points="492.95 303.01 905.77 303.01 905.77 314.36 492.95 314.36 492.95 308.68 492.95 303.01"/>
    <polygon class="cls-4" points="65.95 303.01 478.76 303.01 478.76 314.36 65.95 314.36 65.95 308.68 65.95 303.01"/>
    <polygon class="cls-4" points="478.76 419.34 478.76 81.7 492.95 81.7 492.95 419.34 485.86 419.34 478.76 419.34"/>
    <rect class="cls-4" x="65.95" y="430.68" width="839.82" height="253.65"/>
    <line class="cls-4" x1="485.86" y1="430.68" x2="485.86" y2="684.33"/>
    <rect class="cls-8" x="883.07" y="81.7" width="11.35" height="337.63"/>
    <rect class="cls-8" x="77.3" y="81.7" width="11.35" height="337.63"/>
  </g>
  <g id="Calque_10" data-name="Calque 10">
    <rect class="cls-9" x="540.21" y="324.29" width="175.91" height="85.12"/>
    <rect class="cls-9" x="206.33" y="324.29" width="175.91" height="85.12"/>
    <rect class="cls-9" x="122.56" y="207.96" width="175.91" height="85.12"/>
    <rect class="cls-9" x="638.1" y="207.96" width="175.91" height="85.12"/>
    <rect class="cls-9" x="604.59" y="91.63" width="175.91" height="85.12"/>
    <rect class="cls-9" x="220.97" y="91.63" width="175.91" height="85.12"/>
  </g>
  <g id="cote">
    <line class="cls-7" x1="77.3" y1="92.77" x2="77.3" y2="74.57"/>
    <line class="cls-7" x1="88.64" y1="92.77" x2="88.64" y2="74.57"/>
    <line class="cls-7" x1="76.44" y1="75.14" x2="78.78" y2="75.14"/>
    <line class="cls-7" x1="86.61" y1="75.14" x2="89.5" y2="75.14"/>
    <polyline class="cls-7" points="78.08 74.22 76.38 75.92 76.51 76.05 78.21 74.35 78.08 74.22"/>
    <polyline class="cls-7" points="87.86 76.05 89.56 74.35 89.43 74.22 87.72 75.92 87.86 76.05"/>
    <line class="cls-7" x1="478.76" y1="92.77" x2="478.76" y2="81.14"/>
    <line class="cls-7" x1="492.95" y1="92.77" x2="492.95" y2="81.14"/>
    <line class="cls-7" x1="477.91" y1="81.7" x2="482.1" y2="81.7"/>
    <line class="cls-7" x1="489.68" y1="81.7" x2="493.8" y2="81.7"/>
    <polyline class="cls-7" points="479.55 80.78 477.85 82.49 477.98 82.62 479.68 80.92 479.55 80.78"/>
    <polyline class="cls-7" points="492.17 82.62 493.87 80.92 493.73 80.78 492.03 82.49 492.17 82.62"/>
    <line class="cls-7" x1="65.95" y1="70.07" x2="65.95" y2="15.64"/>
    <line class="cls-7" x1="905.77" y1="70.07" x2="905.77" y2="15.64"/>
    <line class="cls-7" x1="65.1" y1="16.2" x2="473.15" y2="16.2"/>
    <line class="cls-7" x1="498.32" y1="16.2" x2="906.62" y2="16.2"/>
    <polyline class="cls-7" points="66.73 15.28 65.03 16.99 65.16 17.12 66.87 15.42 66.73 15.28"/>
    <polyline class="cls-7" points="904.99 17.12 906.69 15.42 906.55 15.28 904.85 16.99 904.99 17.12"/>
    <line class="cls-7" x1="65.66" y1="198.03" x2="49.31" y2="198.03"/>
    <line class="cls-7" x1="65.66" y1="303.01" x2="49.31" y2="303.01"/>
    <line class="cls-7" x1="49.87" y1="197.18" x2="49.87" y2="242.38"/>
    <line class="cls-7" x1="49.87" y1="258.6" x2="49.87" y2="303.86"/>
    <polyline class="cls-7" points="50.79 198.81 49.09 197.11 48.96 197.25 50.66 198.95 50.79 198.81"/>
    <polyline class="cls-7" points="48.96 302.23 50.66 303.93 50.79 303.79 49.09 302.09 48.96 302.23"/>
    <line class="cls-7" x1="65.66" y1="81.7" x2="49.31" y2="81.7"/>
    <line class="cls-7" x1="65.66" y1="186.68" x2="49.31" y2="186.68"/>
    <line class="cls-7" x1="49.87" y1="80.85" x2="49.87" y2="126.05"/>
    <line class="cls-7" x1="49.87" y1="142.27" x2="49.87" y2="187.53"/>
    <polyline class="cls-7" points="50.79 82.49 49.09 80.78 48.96 80.92 50.66 82.62 50.79 82.49"/>
    <polyline class="cls-7" points="48.96 185.9 50.66 187.6 50.79 187.47 49.09 185.76 48.96 185.9"/>
    <line class="cls-7" x1="211.04" y1="186.4" x2="211.04" y2="168.13"/>
    <line class="cls-7" x1="406.81" y1="186.4" x2="406.81" y2="168.13"/>
    <line class="cls-7" x1="210.19" y1="168.7" x2="300.72" y2="168.7"/>
    <line class="cls-7" x1="317.07" y1="168.7" x2="407.66" y2="168.7"/>
    <polyline class="cls-7" points="211.83 167.78 210.12 169.48 210.26 169.62 211.96 167.92 211.83 167.78"/>
    <polyline class="cls-7" points="406.03 169.62 407.73 167.92 407.6 167.78 405.89 169.48 406.03 169.62"/>
    <line class="cls-7" x1="211.33" y1="81.7" x2="240.17" y2="81.7"/>
    <line class="cls-7" x1="211.33" y1="186.68" x2="240.17" y2="186.68"/>
    <line class="cls-7" x1="239.6" y1="80.85" x2="239.6" y2="126.05"/>
    <line class="cls-7" x1="239.6" y1="142.27" x2="239.6" y2="187.53"/>
    <polyline class="cls-7" points="240.52 82.49 238.82 80.78 238.68 80.92 240.38 82.62 240.52 82.49"/>
    <polyline class="cls-7" points="238.68 185.9 240.38 187.6 240.52 187.47 238.82 185.76 238.68 185.9"/>
    <line class="cls-7" x1="65.66" y1="314.36" x2="49.31" y2="314.36"/>
    <line class="cls-7" x1="65.66" y1="419.34" x2="49.31" y2="419.34"/>
    <line class="cls-7" x1="49.87" y1="313.51" x2="49.87" y2="358.7"/>
    <line class="cls-7" x1="49.87" y1="374.93" x2="49.87" y2="420.19"/>
    <polyline class="cls-7" points="50.79 315.14 49.09 313.44 48.96 313.57 50.66 315.28 50.79 315.14"/>
    <polyline class="cls-7" points="48.96 418.55 50.66 420.25 50.79 420.12 49.09 418.42 48.96 418.55"/>
    <line class="cls-7" x1="65.66" y1="430.68" x2="49.31" y2="430.68"/>
    <line class="cls-7" x1="65.66" y1="684.33" x2="49.31" y2="684.33"/>
    <line class="cls-7" x1="49.87" y1="429.83" x2="49.87" y2="549.37"/>
    <line class="cls-7" x1="49.87" y1="565.65" x2="49.87" y2="685.18"/>
    <polyline class="cls-7" points="50.79 431.47 49.09 429.77 48.96 429.9 50.66 431.6 50.79 431.47"/>
    <polyline class="cls-7" points="48.96 683.55 50.66 685.25 50.79 685.12 49.09 683.41 48.96 683.55"/>
    <line class="cls-7" x1="65.95" y1="430.97" x2="65.95" y2="459.73"/>
    <line class="cls-7" x1="205.25" y1="430.97" x2="205.25" y2="459.73"/>
    <line class="cls-7" x1="65.1" y1="459.16" x2="127.03" y2="459.16"/>
    <line class="cls-7" x1="143.74" y1="459.16" x2="206.11" y2="459.16"/>
    <polyline class="cls-7" points="66.73 458.24 65.03 459.94 65.16 460.08 66.87 458.38 66.73 458.24"/>
    <polyline class="cls-7" points="204.47 460.08 206.17 458.38 206.04 458.24 204.34 459.94 204.47 460.08"/>
    <line class="cls-7" x1="65.66" y1="70.36" x2="16.81" y2="70.36"/>
    <line class="cls-7" x1="65.66" y1="741.08" x2="16.81" y2="741.08"/>
    <line class="cls-7" x1="17.37" y1="69.5" x2="17.37" y2="393.01"/>
    <line class="cls-7" x1="17.37" y1="418.18" x2="17.37" y2="741.93"/>
    <polyline class="cls-7" points="18.29 71.14 16.59 69.44 16.45 69.57 18.16 71.27 18.29 71.14"/>
    <polyline class="cls-7" points="16.45 740.3 18.16 742 18.29 741.86 16.59 740.16 16.45 740.3"/>
    <line class="cls-7" x1="485.86" y1="70.07" x2="485.86" y2="49.86"/>
    <line class="cls-7" x1="905.77" y1="70.07" x2="905.77" y2="49.86"/>
    <line class="cls-7" x1="485.01" y1="50.43" x2="684.34" y2="50.43"/>
    <line class="cls-7" x1="708.33" y1="50.43" x2="906.62" y2="50.43"/>
    <polyline class="cls-7" points="486.64 49.51 484.94 51.21 485.08 51.35 486.78 49.64 486.64 49.51"/>
    <polyline class="cls-7" points="904.99 51.35 906.69 49.64 906.55 49.51 904.85 51.21 904.99 51.35"/>
    <line class="cls-7" x1="112.81" y1="684.33" x2="49.31" y2="684.33"/>
    <line class="cls-7" x1="112.81" y1="741.08" x2="49.31" y2="741.08"/>
    <line class="cls-7" x1="49.87" y1="683.48" x2="49.87" y2="704.38"/>
    <line class="cls-7" x1="49.87" y1="720.79" x2="49.87" y2="741.93"/>
    <polyline class="cls-7" points="50.79 685.12 49.09 683.41 48.96 683.55 50.66 685.25 50.79 685.12"/>
    <polyline class="cls-7" points="48.96 740.3 50.66 742 50.79 741.86 49.09 740.16 48.96 740.3"/>
    <line class="cls-7" x1="65.95" y1="70.07" x2="65.95" y2="49.86"/>
    <line class="cls-7" x1="485.86" y1="70.07" x2="485.86" y2="49.86"/>
    <line class="cls-7" x1="65.1" y1="50.43" x2="264.43" y2="50.43"/>
    <line class="cls-7" x1="288.42" y1="50.43" x2="486.71" y2="50.43"/>
    <polyline class="cls-7" points="66.73 49.51 65.03 51.21 65.16 51.35 66.87 49.64 66.73 49.51"/>
    <polyline class="cls-7" points="485.08 51.35 486.78 49.64 486.64 49.51 484.94 51.21 485.08 51.35"/>
  </g>
  <g id="Calque_7" data-name="Calque 7">
    <text class="cls-10" transform="translate(78.59 80.81)"><tspan x="0" y="0">4</tspan></text>
    <text class="cls-10" transform="translate(481.48 87.38)"><tspan x="0" y="0">5</tspan></text>
    <text class="cls-10" transform="translate(472.72 21.88)"><tspan x="0" y="0">296</tspan></text>
    <text class="cls-10" transform="translate(55.3 259.22) rotate(-90)"><tspan x="0" y="0">37</tspan></text>
    <text class="cls-10" transform="translate(55.3 142.89) rotate(-90)"><tspan x="0" y="0">37</tspan></text>
    <text class="cls-10" transform="translate(300.17 174.38)"><tspan x="0" y="0">69</tspan></text>
    <text class="cls-10" transform="translate(245.03 142.89) rotate(-90)"><tspan x="0" y="0">37</tspan></text>
    <text class="cls-10" transform="translate(55.3 375.54) rotate(-90)"><tspan x="0" y="0">37</tspan></text>
    <text class="cls-10" transform="translate(55.3 566.27) rotate(-90)"><tspan x="0" y="0">89</tspan></text>
    <text class="cls-10" transform="translate(126.84 464.83)"><tspan x="0" y="0">49</tspan></text>
    <text class="cls-10" transform="translate(22.8 418.61) rotate(-90)"><tspan x="0" y="0">236</tspan></text>
    <text class="cls-10" transform="translate(682.68 56.1)"><tspan x="0" y="0">148</tspan></text>
    <text class="cls-10" transform="translate(55.3 721.22) rotate(-90)"><tspan x="0" y="0">20</tspan></text>
    <text class="cls-10" transform="translate(262.76 56.1)"><tspan x="0" y="0">148</tspan></text>
  </g>
  <g id="Calque_03" data-name="Calque 03">
    <polyline class="cls-5" points="186.02 247.43 231.29 247.43 218.79 239.66"/>
    <polyline class="cls-5" points="648.94 377.09 603.67 377.09 616.17 384.87"/>
    <polyline class="cls-5" points="603.67 363.76 648.94 363.76 636.44 355.98"/>
    <polyline class="cls-5" points="329.7 144.44 284.43 144.44 296.93 152.21"/>
    <polyline class="cls-5" points="284.43 131.11 329.7 131.11 317.2 123.33"/>
    <polyline class="cls-5" points="713.32 144.44 668.05 144.44 680.55 152.21"/>
    <polyline class="cls-5" points="668.05 131.11 713.32 131.11 700.82 123.33"/>
    <polyline class="cls-5" points="746.82 260.76 701.56 260.76 714.06 268.54"/>
    <polyline class="cls-5" points="701.56 247.43 746.82 247.43 734.33 239.66"/>
    <polyline class="cls-5" points="231.29 260.76 186.02 260.76 198.52 268.54"/>
    <polyline class="cls-5" points="315.06 377.09 269.79 377.09 282.29 384.87"/>
    <polyline class="cls-5" points="269.79 363.76 315.06 363.76 302.56 355.98"/>
  </g>
  <g id="Calque_02" data-name="Calque 02">
    <polyline class="cls-3" points="346.55 430.68 485.86 557.51 346.55 684.33"/>
    <polyline class="cls-3" points="625.17 430.68 764.47 557.51 625.17 684.33"/>
    <polyline class="cls-3" points="903.78 430.68 764.47 557.51 903.78 684.33"/>
    <polyline class="cls-3" points="65.95 430.68 205.25 557.51 65.95 684.33"/>
    <polyline class="cls-3" points="344.56 430.68 205.25 557.51 344.56 684.33"/>
    <polyline class="cls-3" points="625.17 430.68 485.86 557.51 625.17 684.33"/>
  </g>
  <g id="Calque_01" data-name="Calque 01">
    <line class="cls-4" x1="840.56" y1="684.33" x2="825.15" y2="684.33"/>
    <rect class="cls-4" x="815.23" y="684.33" width="9.92" height="1.41"/>
    <line class="cls-4" x1="840.67" y1="684.33" x2="846.57" y2="741.08"/>
    <line class="cls-4" x1="825.43" y1="684.33" x2="842.96" y2="741.08"/>
    <line class="cls-4" x1="842.96" y1="741.08" x2="846.57" y2="741.08"/>
    <line class="cls-4" x1="128.58" y1="684.33" x2="143.99" y2="684.33"/>
    <rect class="cls-4" x="143.99" y="684.33" width="9.92" height="1.41"/>
    <line class="cls-4" x1="128.47" y1="684.33" x2="122.57" y2="741.08"/>
    <line class="cls-4" x1="143.71" y1="684.33" x2="126.18" y2="741.08"/>
    <line class="cls-4" x1="126.18" y1="741.08" x2="122.57" y2="741.08"/>
    <line class="cls-4" x1="455.82" y1="684.33" x2="440.41" y2="684.33"/>
    <rect class="cls-4" x="430.49" y="684.33" width="9.92" height="1.41"/>
    <line class="cls-4" x1="455.93" y1="684.33" x2="461.83" y2="741.08"/>
    <line class="cls-4" x1="440.69" y1="684.33" x2="458.22" y2="741.08"/>
    <line class="cls-4" x1="458.22" y1="741.08" x2="461.83" y2="741.08"/>
    <line class="cls-4" x1="515.9" y1="684.33" x2="531.3" y2="684.33"/>
    <rect class="cls-4" x="531.3" y="684.33" width="9.92" height="1.41"/>
    <line class="cls-4" x1="515.79" y1="684.33" x2="509.89" y2="741.08"/>
    <line class="cls-4" x1="531.03" y1="684.33" x2="513.49" y2="741.08"/>
    <line class="cls-4" x1="513.49" y1="741.08" x2="509.89" y2="741.08"/>
    <path class="cls-4" d="M116.92,466.15c.61,0,1.19.24,1.61.67s.67,1.01.67,1.61-.24,1.19-.67,1.61c-.43.43-1.01.67-1.61.67s-1.19-.24-1.61-.67c-.43-.43-.67-1.01-.67-1.61s.24-1.19.67-1.61,1.01-.67,1.61-.67Z"/>
    <path class="cls-4" d="M154.28,466.15c-.61,0-1.19.24-1.61.67s-.67,1.01-.67,1.61.24,1.19.67,1.61c.43.43,1.01.67,1.61.67s1.19-.24,1.61-.67c.43-.43.67-1.01.67-1.61s-.24-1.19-.67-1.61c-.43-.43-1.01-.67-1.61-.67Z"/>
    <line class="cls-4" x1="152.23" y1="467.43" x2="118.97" y2="467.43"/>
    <line class="cls-4" x1="118.97" y1="469.43" x2="152.23" y2="469.43"/>
    <path class="cls-4" d="M293.59,466.15c-.61,0-1.19.24-1.61.67s-.67,1.01-.67,1.61.24,1.19.67,1.61c.43.43,1.01.67,1.61.67s1.19-.24,1.61-.67.67-1.01.67-1.61-.24-1.19-.67-1.61c-.43-.43-1.01-.67-1.61-.67Z"/>
    <path class="cls-4" d="M256.23,466.15c.61,0,1.19.24,1.61.67s.67,1.01.67,1.61-.24,1.19-.67,1.61c-.43.43-1.01.67-1.61.67s-1.19-.24-1.61-.67c-.43-.43-.67-1.01-.67-1.61s.24-1.19.67-1.61,1.01-.67,1.61-.67Z"/>
    <line class="cls-4" x1="258.28" y1="467.43" x2="291.54" y2="467.43"/>
    <line class="cls-4" x1="291.54" y1="469.43" x2="258.28" y2="469.43"/>
    <path class="cls-4" d="M397.52,466.15c.61,0,1.19.24,1.61.67s.67,1.01.67,1.61-.24,1.19-.67,1.61c-.43.43-1.01.67-1.61.67s-1.19-.24-1.61-.67c-.43-.43-.67-1.01-.67-1.61s.24-1.19.67-1.61,1.01-.67,1.61-.67Z"/>
    <path class="cls-4" d="M434.89,466.15c-.61,0-1.19.24-1.61.67s-.67,1.01-.67,1.61.24,1.19.67,1.61,1.01.67,1.61.67,1.19-.24,1.61-.67.67-1.01.67-1.61-.24-1.19-.67-1.61c-.43-.43-1.01-.67-1.61-.67Z"/>
    <line class="cls-4" x1="432.84" y1="467.43" x2="399.57" y2="467.43"/>
    <line class="cls-4" x1="399.57" y1="469.43" x2="432.84" y2="469.43"/>
    <path class="cls-4" d="M574.2,466.15c-.61,0-1.19.24-1.61.67-.43.43-.67,1.01-.67,1.61s.24,1.19.67,1.61,1.01.67,1.61.67,1.19-.24,1.61-.67c.43-.43.67-1.01.67-1.61s-.24-1.19-.67-1.61-1.01-.67-1.61-.67Z"/>
    <path class="cls-4" d="M536.83,466.15c.61,0,1.19.24,1.61.67.43.43.67,1.01.67,1.61s-.24,1.19-.67,1.61c-.43.43-1.01.67-1.61.67s-1.19-.24-1.61-.67c-.43-.43-.67-1.01-.67-1.61s.24-1.19.67-1.61,1.01-.67,1.61-.67Z"/>
    <line class="cls-4" x1="538.88" y1="467.43" x2="572.14" y2="467.43"/>
    <line class="cls-4" x1="572.14" y1="469.43" x2="538.88" y2="469.43"/>
    <path class="cls-4" d="M676.14,466.15c.61,0,1.19.24,1.61.67.43.43.67,1.01.67,1.61s-.24,1.19-.67,1.61c-.43.43-1.01.67-1.61.67s-1.19-.24-1.61-.67c-.43-.43-.67-1.01-.67-1.61s.24-1.19.67-1.61,1.01-.67,1.61-.67Z"/>
    <path class="cls-4" d="M713.5,466.15c-.61,0-1.19.24-1.61.67-.43.43-.67,1.01-.67,1.61s.24,1.19.67,1.61c.43.43,1.01.67,1.61.67s1.19-.24,1.61-.67c.43-.43.67-1.01.67-1.61s-.24-1.19-.67-1.61-1.01-.67-1.61-.67Z"/>
    <line class="cls-4" x1="711.45" y1="467.43" x2="678.19" y2="467.43"/>
    <line class="cls-4" x1="678.19" y1="469.43" x2="711.45" y2="469.43"/>
    <path class="cls-4" d="M852.81,466.15c-.61,0-1.19.24-1.61.67-.43.43-.67,1.01-.67,1.61s.24,1.19.67,1.61c.43.43,1.01.67,1.61.67s1.19-.24,1.61-.67c.43-.43.67-1.01.67-1.61s-.24-1.19-.67-1.61-1.01-.67-1.61-.67Z"/>
    <path class="cls-4" d="M815.45,466.15c.61,0,1.19.24,1.61.67.43.43.67,1.01.67,1.61s-.24,1.19-.67,1.61c-.43.43-1.01.67-1.61.67s-1.19-.24-1.61-.67c-.43-.43-.67-1.01-.67-1.61s.24-1.19.67-1.61,1.01-.67,1.61-.67Z"/>
    <line class="cls-4" x1="817.5" y1="467.43" x2="850.76" y2="467.43"/>
    <line class="cls-4" x1="850.76" y1="469.43" x2="817.5" y2="469.43"/>
  </g>
</svg>