<svg xmlns="http://www.w3.org/2000/svg" xmlns:xlink="http://www.w3.org/1999/xlink" viewBox="0 0 420.94 425.2"><defs><pattern id="Nouveau_motif_2" width="34.23" height="27.94" x="0" y="0" data-name="Nouveau motif 2" patternTransform="matrix(0 -.55 .55 0 -3531.82 -12305.33)" patternUnits="userSpaceOnUse"><path d="M0 0h34.23v27.94H0z" class="cls-6"/><path d="M17.14 25.63h34.18v4.61H17.14zM-17.09 25.63h34.18v4.61h-34.18zM.03 20.98h34.18v4.61H.03zM17.14 16.32h34.18v4.61H17.14zM-17.09 16.32h34.18v4.61h-34.18zM.03 11.67h34.18v4.61H.03zM17.14 7.01h34.18v4.61H17.14zM-17.09 7.01h34.18v4.61h-34.18zM.03 2.35h34.18v4.61H.03zM17.14-2.3h34.18v4.61H17.14zM-17.09-2.3h34.18v4.61h-34.18z" class="cls-8"/></pattern><pattern xlink:href="#Nouveau_motif_2" id="Nouveau_motif_2-2" data-name="Nouveau motif 2" patternTransform="matrix(.55 0 0 .55 -3942.21 -3237.97)"/><pattern xlink:href="#Nouveau_motif_2" id="Nouveau_motif_2-3" data-name="Nouveau motif 2" patternTransform="matrix(.55 0 0 .55 -3942.21 -3237.97)"/><pattern id="Grille_1_pica_lignes" width="72" height="72" x="0" y="0" data-name="Grille 1 pica lignes" patternTransform="matrix(.14 0 0 .14 -3805.38 -3259.78)" patternUnits="userSpaceOnUse"><path d="M0 0h72v72H0z" class="cls-6"/><path d="M6 71.75v72.5M30 71.75v72.5M54 71.75v72.5M18 71.75v72.5M42 71.75v72.5M66 71.75v72.5M71.75 66h72.5M71.75 42h72.5M71.75 18h72.5M71.75 54h72.5M71.75 30h72.5M71.75 6h72.5M6-.25v72.5M30-.25v72.5M54-.25v72.5M-.25 66h72.5M-.25 42h72.5M-.25 18h72.5M-.25 54h72.5M-.25 30h72.5M-.25 6h72.5M18-.25v72.5M42-.25v72.5M66-.25v72.5M-72.25 66H.25M-72.25 42H.25M-72.25 18H.25M-72.25 54H.25M-72.25 30H.25M-72.25 6H.25M6-72.25V.25M30-72.25V.25M54-72.25V.25M18-72.25V.25M42-72.25V.25M66-72.25V.25" class="cls-11"/></pattern><style>.cls-1{letter-spacing:-.02em}.cls-2{stroke-dasharray:0 0 2.11 2.11}.cls-10,.cls-11,.cls-12,.cls-13,.cls-15,.cls-2,.cls-3,.cls-5,.cls-6,.cls-8,.cls-9{fill:none}.cls-10,.cls-13,.cls-15,.cls-16,.cls-2,.cls-3,.cls-5{stroke-width:.15px}.cls-10,.cls-13,.cls-16,.cls-2,.cls-3,.cls-9{stroke-linecap:round;stroke-linejoin:round}.cls-10,.cls-16,.cls-2,.cls-3{stroke:#666}.cls-3{stroke-dasharray:0 0 2 2}.cls-12,.cls-15,.cls-20,.cls-21,.cls-22,.cls-5,.cls-8{stroke-miterlimit:10}.cls-12,.cls-20,.cls-21,.cls-5{stroke:#000}.cls-23,.cls-24,.cls-6{stroke-width:0}.cls-23{fill:url(#Grille_1_pica_lignes);opacity:.7}.cls-13,.cls-15,.cls-22,.cls-8,.cls-9{stroke:#333}.cls-22,.cls-8{stroke-width:.05px}.cls-20,.cls-21{stroke-width:.5px}.cls-16,.cls-20,.cls-24{fill:#fff}.cls-25{fill:#333;font-family:Avenir-Medium,Avenir;font-size:6.23px;font-weight:500}.cls-21{fill:#999}.cls-26{fill:#000;font-family:AvenirNext-UltraLight,&quot;Avenir Next&quot;;font-size:6px;font-weight:100}.cls-12,.cls-9{stroke-width:.25px}.cls-11{stroke:#1d1d1b;stroke-width:.3px}.cls-22{fill:url(#Nouveau_motif_2)}</style></defs><g id="Calque_11" data-name="Calque 11" style="opacity:.8"><path d="M145.27 275.82V105.95h98.03v169.87z" class="cls-22"/><path d="M302.05 165.24h70.87v110.59h-70.87z" style="stroke-miterlimit:10;fill:url(#Nouveau_motif_2-2);stroke:#333;stroke-width:.05px"/><path d="m115.66 117.9-.55 42.67h5.46c0 .96-.78 1.74-1.74 1.74H60.48v113.51h82.49V162.31h-.98v-1.74h.98v-1.05h2.06v-21.44h-2.06v-20.03l-27.32-.15Z" style="stroke-miterlimit:10;stroke:#333;stroke-width:.05px;fill:url(#Nouveau_motif_2-3)"/><path d="m247.05 189.65 55.04-.06-.04-22.05-2.27-.1.7-38.51-34.17-.23v-22.59h-19.26v28.28h-4.03v26.43h3.99z" class="cls-22"/><path d="M245.44 189.65h54.41v86.17h-54.41zM60.49 118.05h54.62v42.52H60.49zM268.24 105.95h32.24v22.98h-32.24z" class="cls-23"/></g><g id="Calque_09" data-name="Calque 09"><path d="M262.61 257.67h29.09v18h-29.09z" class="cls-16"/><path d="M263.49 273.62c6.12-.01 12.23-.03 18.35-.04.27 0 .38-.33.38-.55 0-4.36.01-8.72.02-13.08 0-.22-.1-.55-.38-.55-6.12.01-12.23.03-18.35.04-.27 0-.38.33-.38.55 0 4.36-.01 8.72-.02 13.08 0 .22.1.55.38.55" class="cls-16"/><path d="M268.93 272.19c3.82 0 7.65-.02 11.47-.03.61 0 .84-.74.84-1.22 0-2.97 0-5.93.01-8.89 0-.48-.23-1.22-.84-1.22l-15.47.03c-.61 0-.84.74-.84 1.22 0 2.97 0 5.93-.01 8.89 0 .48.23 1.22.84 1.22zM245.6 257.67h17.01v18H245.6z" class="cls-16"/><path d="m338.64 261.1 1.97-6.12.25-.42.96-2.11h7.38l2.23 1.73.94 1.33-.32 1.55v1.85l.32 2.19z" class="cls-24"/><path d="M230 283.2h12.05v26.55H230z" class="cls-16"/><ellipse cx="285.65" cy="117.5" class="cls-24" rx="9.15" ry="6.62"/><path d="M283.02 240.52h17.01v17.01h-17.01zM283.02 206.51h17.01v11.34h-17.01z" class="cls-16"/><path d="M283.02 217.85h17.01v22.68h-17.01zM273.97 189.5h26.06v17.01h-26.06zM234.77 220.9c.64 2.27 2.7 3.84 5.06 3.84s4.42-1.57 5.06-3.84M222.44 220.9c-.08 2.96 2.29 5.4 5.25 5.4s5.34-2.44 5.25-5.4" class="cls-16"/><rect width="26.94" height="55.25" x="145.53" y="165.75" class="cls-24" rx="2.8" ry="2.8"/><path d="M60.67 117.9h22.68v42.52H60.67zM224.76 165.75h10.04v33.55h-10.04zM325.21 164.99h47.56v17.11h-47.56zM164.94 105.8h66.38v13.69h-66.38zM283.02 257.53v18.14" class="cls-16"/><path d="M291.7 256.53v1h1" class="cls-10"/><path d="M294.81 257.53h3.16" class="cls-2"/><path d="M299.03 257.53h1v-1" class="cls-10"/><path d="M300.03 254.53V191.5" class="cls-3"/><path d="M300.03 190.5v-1h-1" class="cls-10"/><path d="M296.92 189.5h-3.16" class="cls-2"/><path d="M292.7 189.5h-1v1" class="cls-10"/><path d="M291.7 192.5v63.03" class="cls-3"/><path d="m64.2 146.28-1.12-11.76M67.91 149.47l11.79-.6M65.78 148.2l11.49-13.32M64.01 149.66c.44.57.33 1.39-.24 1.82-.57.44-1.39.33-1.82-.24-.44-.57-.33-1.39.24-1.82.57-.44 1.39-.33 1.82.24M83.4 153.64H60.67M66.1 117.9h10.25v1.15H66.1zM238.81 306.82a4.387 4.387 0 0 0 1.96-5.88 4.387 4.387 0 0 0-5.88-1.96 4.387 4.387 0 0 0-1.96 5.88 4.387 4.387 0 0 0 5.88 1.96M236.79 302.62l-5.54-7.61M235.9 302.62l-8.62.28M236.07 303.63l-4.31 6.66M236.07 303.63l4.98 7.61M237.69 303.46l7.22-2.97M237.63 301.44l.9-7.44M233.72 295.79l-2.08 1.68M229.29 300.27l.17 3.8M234.89 310.12l-2.13-1.38M241.21 307.82l-2.85.79M242.39 303.29l-.39-4.03M240.88 297.58l-3.82.02M234.61 293.83l1.68 7.28M236.07 303.63l-6.72 1.56M237.69 303.46l5.6 2.91M234.55 301.39l-6.71-2.13M237.69 303.46h7.78M237.55 291.94c1.43-.71 2-2.45 1.29-3.87s-2.45-2-3.87-1.29c-1.43.71-2 2.45-1.29 3.87s2.45 2 3.87 1.29M236.22 289.17l-3.65-5.01M235.63 289.17l-5.67.19M235.74 289.83l-2.83 4.39M235.74 289.83l3.28 5.02M236.81 289.72l4.76-1.95M236.78 288.4l.59-4.9M234.2 284.67l-1.37 1.11M231.28 287.62l.11 2.51M234.97 294.11l-1.41-.91M239.13 292.6l-1.88.52M239.91 289.61l-.26-2.65M238.91 285.85l-2.51.02M234.79 283.38l1.1 4.8M235.74 289.83l-4.42 1.04M236.81 289.72l3.69 1.92M234.75 288.36l-4.42-1.4M236.81 289.72h5.13M180.43 302.04l5.19 1.13M186.61 290.44l-3.48-.76M183.13 289.68c.76-.61-.04-1.79-.89-1.31M179.08 302.86c.57.79 1.79.05 1.35-.82M183.13 289.68a9.174 9.174 0 0 0-2.69 12.36" class="cls-16"/><path d="M182.24 288.37c-4.75 3.22-6.14 9.59-3.16 14.49M197.31 291.71l3.17.04M200.29 304.4l-5.09-.07M201.64 290.68c3.89 4.21 3.8 10.73-.21 14.83" class="cls-16"/><path d="M200.48 291.75c3.32 3.59 3.24 9.16-.18 12.65M201.42 305.51c-.74.64-1.75-.36-1.13-1.11M200.48 291.75c-.6-.77.44-1.73 1.16-1.07M72.13 268.25h17.9v7.42h-17.9zM66.205 196.841l.019-1.93 1.27.013-.02 1.93z" class="cls-16"/><path d="M60.67 188.98v8.5h8.5v-8.5zM60.67 200.28h7.45v51.7h-7.45zM68.12 203.46h53.75v45.35H68.12zM88.32 203.46v45.35" class="cls-16"/><path d="M70.01 223.82c-.04-.94.14-2.79.21-4.31s.03-2.71.04-3.66c0-.95.05-1.67.12-2.23.06-.56.14-.96.13-1.37 0-.41-.1-.84-.23-1.21-.12-.37-.28-.69-.39-.97s-.17-.52-.22-.8-.06-.58-.06-.8.01-.37.09-.47c.08-.09.22-.13.35-.13.14 0 .27.01.5.06s.56.13.82.21.45.15.69.24c.25.09.56.19.84.27s.53.14.9.13c.36 0 .83-.07 1.65-.05.82.03 1.98.15 2.71.24.73.08 1.02.13 1.27.16s.47.04.67-.01.38-.17.78-.24c.4-.08 1.01-.12 1.36-.2.35-.09.45-.22.63-.36.17-.14.42-.29.59-.47s.25-.38.42-.5.43-.17.56-.1c.13.06.14.24.15.41s.04.35.01.75-.11 1.04-.18 1.56c-.08.52-.15.92-.22 1.28s-.12.69-.19 1.22-.16 1.28-.21 1.83c-.04.55-.04.91-.01 1.44s.09 1.25.22 1.83.33 1.04.36 1.48c.04.44-.09.88-.16 1.41s-.1 1.15-.11 1.6-.01.73-.02 1.22-.01 1.17-.17 1.46c-.16.3-.47.2-.68.09s-.32-.25-.48-.44c-.16-.2-.38-.45-.63-.61-.25-.15-.52-.2-.81-.22-.29-.03-.6-.04-.92-.05s-.67-.04-.97-.06-.57-.02-.81-.05-.47-.1-.73-.1-.57.05-.82 0-.44-.19-.77-.16-.8.23-1.18.42c-.38.18-.67.35-.99.38s-.65-.07-.96-.14-.58-.11-.82-.05-.46.23-.67.39-.42.34-.6.45c-.18.12-.33.18-.53.19-.21.02-.48 0-.52-.95Z" class="cls-16"/><path d="M71.82 214.97c.89-1.02 1.62-.81 2.1-.59M83.13 219.39c-.51.83-1.02.43-1.83.54M80.55 210.47c.41.21.65.42.88.54s.46.13.89-.04M71.82 236c.89-1.02 1.62-.81 2.1-.59M83.13 240.42c-.51.83-1.02.43-1.83.54M80.55 231.5c.41.21.65.42.88.54s.46.13.89-.04" class="cls-16"/><path d="M70.39 244.77c.15-.94.71-2.79.97-4.31s.22-2.71.04-3.66-.51-1.67-.64-2.23-.05-.96-.06-1.37c0-.41-.1-.84-.23-1.21-.12-.37-.28-.69-.39-.97s-.17-.52-.22-.8c-.04-.27-.06-.58-.06-.8 0-.23.01-.37.09-.47.08-.09.22-.13.35-.13.14 0 .27.01.5.06s.56.13.82.21.45.15.69.24.56.19.84.27.53.14.9.38c.36.24.83.66 1.65.68s1.98-.34 2.71-.5 1.02-.11 1.27-.09.47.04.67-.01.38-.17.78-.24c.4-.08 1.01-.12 1.36-.2.36-.09.45-.22.63-.36.17-.14.42-.29.59-.47s.25-.38.42-.5.43-.17.56-.1c.13.06.14.24.15.41s.04.35.01.75-.11 1.04-.18 1.56-.15.92-.36 1.28-.55.69-.71 1.22-.12 1.28-.02 1.83.26.91.38 1.44.17 1.25.3 1.83.33 1.04.36 1.48c.04.44-.09.88-.16 1.41s-.1 1.15-.11 1.6-.01.74-.02 1.22c0 .48-.01 1.17-.17 1.46-.16.3-.47.2-.68.09s-.32-.25-.48-.44c-.16-.2-.38-.45-.63-.71s-.52-.5-.81-.61-.6-.1-.92-.11-.67-.03-.97-.04-.57-.02-.81.03-.47.16-.73.25c-.27.08-.57.14-.82.09s-.44-.19-.77-.16-.8.23-1.18.32-.67.06-.99 0-.65-.16-.96-.23-.58-.11-.82.05-.46.51-.67.77-.42.43-.6.55-.33.18-.53.19c-.21.02-.48 0-.33-.95ZM81.79 203.46v5.27M81.79 223.62v6.09M81.79 244.16v4.65M60.67 254.3v8.51h8.5v-8.51z" class="cls-16"/><path d="M64.92 259.4c1.01-.27 1.6-1.3 1.34-2.3-.27-1-1.3-1.6-2.3-1.34-1 .27-1.6 1.3-1.34 2.3.27 1.01 1.3 1.6 2.3 1.34M66.212 262.16l.018-1.93 1.27.012-.019 1.93zM229.66 262.45a4.44 4.44 0 0 0 .5 5.66M234.22 260.64c-.96-.2-1.77-.12-2.67.27M233.55 269.41c.4-.02.78-.09 1.15-.22M237.04 267.39c.08-.12.14-.24.21-.36M237.74 264.64c-.08-1.09-.45-1.9-1.2-2.7" class="cls-16"/><path d="M232.22 266.49c-.15 0-.31-.05-.46-.13-.33-.16-.67-.47-1.01-.78-.35-.31-.7-.64-.91-1.1-.2-.46-.25-1.07-.21-1.62s.16-1.06.22-1.46.06-.69.21-1.06.45-.8 1.1 0c.62.77 1.55 2.67 1.92 3.93" class="cls-16"/><path d="M233.3 263.69c-.31.87-.68 1.56-.89 2.14s-.27 1.05-.25 1.29.12.26.46.18c.35-.08.94-.25 1.5-.68s1.09-1.12 1.54-2 .81-1.94.89-2.85-.11-1.65-.48-2.01c-.36-.35-.89-.31-1.24-.08-.35.22-.53.62-.74 1.35-.22.73-.48 1.79-.8 2.66Z" class="cls-16"/><path d="M232.56 265.46s-.03-.01-.04-.02c-.6-.3-1.39-.3-1.79.17s-.4 1.42-.51 2.22-.35 1.43-.42 1.96.03.94.3 1 .69-.26 1.28-.42 1.34-.18 1.73-.38c.4-.2.44-.59.57-1.02s.34-.91.4-1.25c.06-.33-.02-.53-.25-.91M235.65 264.65c.39.04.91.13 1.42.1.89-.06 1.76-.49 2.47-.83s1.27-.6 1.76-.67c.49-.06.9.06 1.08.43s.13.98-.06 1.49c-.19.5-.51.9-.98 1.22-.46.32-1.06.58-1.48.7s-.66.09-1.05.07-.94-.06-1.39-.11-.82-.12-1.1-.2c-.28-.09-.48-.19-.79-.64-.13-.19-.29-.45-.4-.69M234.3 266.37c-.4.06-.08.73.11 1.16s.24.63.28 1.38c.04.74.06 2.04.21 2.99s.43 1.56.84 1.85c.41.28.94.24 1.41.22s.87-.01 1.28-.1.82-.28 1.04-.52.22-.53.22-.84c0-.32-.02-.66-.22-1.16s-.59-1.14-.83-1.76c-.25-.62-.35-1.23-.6-1.58s-.65-.46-1.42-.79-1.9-.89-2.31-.84ZM60.67 170.44h57.49M62.1 174.99l-.19-9.1M61.88 164.47c-.1 0-.13.28-.14.33-.02.13-.02.25-.02.38s.01.25.03.38c0 .06.05.33.15.33s.13-.28.14-.33c.02-.13.02-.25.02-.38s-.01-.25-.03-.38c0-.06-.05-.33-.15-.33M62.1 174.99c-.1 0-.13.28-.14.33-.02.13-.02.25-.02.38s.01.25.03.38c0 .06.05.33.15.33s.13-.28.14-.33c.02-.13.02-.25.02-.38s-.01-.25-.03-.38c0-.06-.05-.33-.15-.33M88.42 174.99c-.13-.02-.23.2-.26.28-.05.13-.09.25-.11.39-.02.13-.04.27-.03.4 0 .08.02.33.14.35.13.02.23-.2.26-.28.05-.12.09-.25.11-.39.02-.13.04-.26.03-.4 0-.08-.01-.33-.14-.35M96.54 174.99l-1.57-9.1M101.05 174.99l1-9.1M90.11 165.89l-1.69 9.1M91.41 165.89l-1.25 9.1M102.21 164.47c-.11-.01-.18.24-.2.31-.04.12-.06.25-.07.38s-.02.26-.01.39c0 .07.02.33.13.34s.18-.24.2-.31c.04-.12.06-.25.07-.38s.02-.26.01-.39c0-.07-.02-.33-.13-.34M90.37 164.47c-.12-.02-.22.21-.25.28-.05.12-.09.25-.11.38s-.04.26-.04.4c0 .08 0 .33.13.35.12.02.22-.21.25-.28.05-.12.09-.25.11-.38s.04-.26.04-.4c0-.08 0-.33-.13-.35M91.61 164.47c-.11-.02-.19.24-.21.3-.04.12-.07.25-.08.38-.02.13-.03.26-.02.39 0 .07 0 .33.12.35.11.02.19-.24.21-.3.04-.12.07-.25.08-.38.02-.13.03-.26.02-.39 0-.07 0-.33-.12-.35M94.73 164.47c-.11.02-.12.28-.12.35q0 .195.03.39c.03.195.05.26.1.38.02.07.11.31.23.29.11-.02.12-.28.12-.35q0-.195-.03-.39c-.02-.13-.05-.26-.1-.38-.02-.07-.11-.31-.23-.29M96.54 174.99c-.11.02-.12.28-.12.35q0 .195.03.39c.03.195.05.26.1.38.02.07.11.31.23.29.11-.02.12-.28.12-.35q0-.195-.03-.39c-.02-.13-.05-.26-.1-.38-.02-.07-.11-.31-.23-.29M102.38 174.99c-.12-.04-.24.2-.28.27-.06.12-.11.25-.15.38s-.07.26-.08.4c0 .08-.03.34.09.37.12.04.24-.2.28-.26.06-.12.11-.25.15-.38s.07-.26.08-.4c0-.08.03-.34-.09-.37ZM101.06 174.99c-.11-.01-.18.24-.2.31-.04.12-.06.25-.07.38s-.02.26-.01.39c0 .07.02.33.13.34s.18-.24.2-.31c.04-.12.06-.25.07-.38s.02-.26.01-.39c0-.07-.02-.33-.13-.34M90.16 174.99c-.13-.02-.22.21-.25.29-.05.13-.08.25-.1.39-.02.13-.03.26-.01.4 0 .08.03.33.16.34.13.02.22-.21.25-.29.05-.13.08-.25.1-.39.02-.13.03-.27.01-.4 0-.08-.03-.32-.16-.34M83.64 165.89l.57 9.1M78.61 165.89l1.01 9.1M81.66 165.89v9.1M74.08 165.89l-3.32 9.1M70.29 165.89l-2.32 9.1M66.33 174.99l1.04-9.1M71.79 165.89l-2.69 9.1M65.23 174.99l-.62-9.1M75.74 165.89l-3.19 9.1M83.55 164.47c-.12 0-.15.26-.16.33-.02.13-.02.26-.01.39s.03.26.06.39c.02.07.08.32.2.31.12 0 .15-.26.16-.33.02-.13.02-.26.01-.39 0-.13-.03-.26-.06-.38-.02-.07-.08-.32-.2-.31ZM81.66 164.47c-.12 0-.17.25-.18.32-.03.13-.03.26-.03.39s0 .26.04.39c.01.07.06.32.18.32s.17-.25.18-.32c.03-.13.04-.26.04-.39s0-.26-.04-.39c-.01-.07-.06-.32-.18-.32ZM72.21 164.47c-.08-.02-.2.26-.22.3-.05.12-.09.24-.13.37-.04.12-.07.25-.09.38 0 .05-.06.35.02.37s.2-.26.22-.3c.05-.12.09-.24.13-.37.04-.12.07-.25.09-.38 0-.05.06-.35-.02-.37M78.46 164.47c-.12.01-.14.27-.14.34-.01.13 0 .26 0 .39.01.13.04.26.08.38.02.07.1.32.21.3.12-.01.14-.27.14-.34.01-.13 0-.26 0-.39-.01-.13-.04-.26-.08-.38-.02-.07-.1-.31-.21-.3M74.6 164.47c-.09-.03-.23.24-.25.29-.06.12-.11.24-.16.37s-.08.25-.11.38c-.01.05-.08.35 0 .38.09.03.23-.24.25-.29.06-.12.11-.24.16-.37s.08-.25.11-.38c.01-.05.08-.35 0-.38M76.24 164.47c-.08-.03-.21.26-.23.3q-.09.18-.15.36c-.04.12-.08.25-.11.38 0 .04-.08.35 0 .38s.21-.26.23-.3q.09-.18.15-.36c.06-.18.08-.25.11-.38 0-.04.08-.35 0-.38M64.51 164.47c-.08 0-.09.3-.09.35v.37c0 .12.02.25.05.37 0 .04.06.34.14.33.08 0 .09-.3.09-.35v-.37c0-.12-.02-.25-.05-.37 0-.04-.06-.34-.14-.33M67.53 164.47c-.1-.01-.16.26-.18.32-.03.12-.05.25-.07.37s-.02.25-.02.38c0 .05 0 .34.1.35s.16-.26.18-.32c.03-.12.05-.25.07-.37.01-.13.02-.25.02-.38 0-.05 0-.34-.1-.35M70.65 164.47c-.09-.02-.2.25-.22.3-.05.12-.09.24-.12.37s-.06.25-.07.38c0 .05-.04.34.05.37.09.02.2-.25.22-.3.05-.12.09-.24.12-.37s.06-.25.07-.38c0-.05.04-.34-.05-.37M79.62 174.99c-.13.01-.16.26-.16.34-.02.13-.01.26 0 .4s.04.26.08.39c.03.08.11.31.23.29.13-.01.16-.26.16-.34.01-.13.01-.26 0-.4-.01-.13-.04-.26-.08-.39-.03-.08-.11-.31-.23-.29M81.66 174.99c-.13 0-.18.23-.2.32-.03.13-.04.26-.04.39s.01.26.04.39c.02.08.07.31.2.31s.18-.23.2-.31c.03-.13.04-.26.04-.39s-.01-.26-.04-.39c-.02-.08-.07-.31-.2-.31ZM84.21 174.99c-.13 0-.17.25-.18.33-.02.13-.02.26-.02.4s.03.26.07.39c.02.08.09.31.22.3.13 0 .17-.24.18-.33.02-.13.02-.26.02-.4 0-.13-.03-.26-.07-.39-.02-.08-.09-.31-.22-.3M72.55 174.99c-.08-.03-.21.26-.23.3q-.09.18-.15.36c-.04.12-.08.25-.11.38 0 .04-.08.35 0 .38s.21-.26.23-.3q.09-.18.15-.36c.06-.18.08-.25.11-.38 0-.04.08-.35 0-.38M65.23 174.99c-.08 0-.09.3-.09.35v.37c0 .12.02.25.05.37 0 .04.06.34.14.33.08 0 .09-.3.09-.35v-.37c0-.12-.02-.25-.05-.37 0-.04-.06-.34-.14-.33M70.76 174.99c-.09-.03-.23.24-.25.29-.06.12-.11.24-.16.37s-.08.25-.11.38c-.01.05-.08.35 0 .38.09.03.23-.24.25-.29.06-.12.11-.24.16-.37s.08-.25.11-.38c.01-.05.08-.35 0-.38M69.1 174.99c-.08-.02-.2.26-.22.3-.05.12-.09.24-.13.37-.04.12-.07.25-.09.38 0 .05-.06.35.02.37s.2-.26.22-.3c.05-.12.09-.24.13-.37.04-.12.07-.25.09-.38 0-.05.06-.35-.02-.37M67.97 174.99c-.09-.02-.2.25-.22.3-.05.12-.09.24-.12.37s-.06.25-.07.38c0 .05-.04.34.05.37.09.02.2-.25.22-.3.05-.12.09-.24.12-.37s.06-.25.07-.38c0-.05.04-.34-.05-.37M66.33 174.99c-.1-.01-.16.26-.18.32-.03.12-.05.25-.07.37-.01.13-.02.25-.02.38 0 .05 0 .34.1.35s.16-.26.18-.32c.03-.12.05-.25.07-.37.01-.13.02-.25.02-.38 0-.05 0-.34-.1-.35M113.92 174.99l1.88-9.1M116.15 174.99l.88-9.1M112.32 174.99l1.06-9.1M105.5 164.47c-.12-.04-.24.2-.28.27-.06.12-.11.25-.15.38s-.07.26-.08.4c0 .08-.03.34.09.37.12.04.24-.2.28-.26.06-.12.11-.25.15-.38s.07-.26.08-.4c0-.08.03-.34-.09-.37ZM116.1 164.47c-.11-.02-.21.23-.23.29-.05.12-.08.25-.11.38s-.04.26-.05.39c0 .07-.01.34.1.36s.21-.23.23-.29c.05-.12.08-.25.11-.38s.04-.26.05-.39c0-.07.01-.34-.1-.36M117.17 164.47c-.12-.01-.2.23-.22.3-.04.13-.06.25-.07.39q-.015.195 0 .39c0 .08.04.33.16.34s.2-.23.22-.3c.04-.13.06-.25.07-.39.01-.13.02-.26 0-.39 0-.08-.04-.33-.16-.34M113.55 164.47c-.13-.01-.21.21-.24.29-.04.13-.07.25-.09.39-.02.13-.02.26 0 .4 0 .08.04.32.16.34.13.01.21-.21.24-.29.04-.13.07-.25.09-.39.02-.13.02-.26 0-.4 0-.08-.04-.32-.16-.34M113.92 174.99c-.11-.02-.21.23-.23.29-.05.12-.08.25-.11.38s-.04.26-.05.39c0 .07-.01.34.1.36s.21-.23.23-.29c.05-.12.08-.25.11-.38s.04-.26.05-.39c0-.07.01-.34-.1-.36M116.15 174.99c-.12-.01-.2.23-.22.3-.04.13-.06.25-.07.39q-.015.195 0 .39c0 .08.04.33.16.34s.2-.23.22-.3c.04-.13.06-.25.07-.39q.015-.195 0-.39c0-.08-.04-.33-.16-.34M112.34 174.99c-.13-.01-.21.21-.24.29q-.06.195-.09.39c-.02.13-.02.26 0 .4 0 .08.04.32.16.34.13.01.21-.21.24-.29.04-.13.07-.25.09-.39.02-.13.02-.26 0-.4 0-.08-.04-.32-.16-.34M112.15 176.41v-.01M102.38 174.99l2.7-9.1M60.67 162.16h57.49M60.67 179.17v-17.01M118.16 179.17H60.67M118.16 162.16v17.01M145.22 233.28h11.34v25.12h-11.34zM98.65 117.9h17.01v17.01H98.65z" class="cls-16"/><path d="M83.35 117.9h15.31v10.87H83.35zM247.23 158.62h10.28v27.76h-10.28zM219.45 206.51h26.15v14.39h-26.15zM177.86 164.42c-.1-.5-.42-1.47-.7-1.88s-.5-.27-.4.24.52 1.37.8 1.78.4.37.3-.13Z" class="cls-16"/><path d="M177.87 164.82v56.81h33.55v-56.81z" class="cls-16"/><path d="M211.42 164.42c.1-.5.42-1.47.7-1.88s.5-.27.4.24c-.1.5-.52 1.37-.8 1.78s-.4.37-.3-.13ZM177.79 221.94c-.22.46-.78 1.31-1.15 1.64s-.55.13-.33-.33.85-1.19 1.22-1.52.48-.25.26.21M211.49 221.94c.22.46.78 1.31 1.15 1.64s.55.13.33-.33-.85-1.19-1.22-1.52-.48-.25-.26.21M198.7 201.15a2.21 2.21 0 1 0-.001-4.421 2.21 2.21 0 0 0 .001 4.421M197.96 192.48a1.25 1.25 0 1 0 0-2.5 1.25 1.25 0 0 0 0 2.5" class="cls-16"/><path d="M198.7 201.32c1.31 0 2.38-1.06 2.38-2.38s-1.06-2.38-2.38-2.38-2.38 1.06-2.38 2.38 1.06 2.38 2.38 2.38" class="cls-16"/><path d="M189.75 181.97h12.03v23.83h-12.03z" class="cls-16"/><path d="M186.47 174.61h19.84v36.85h-19.84zM150.94 166.57l1.27 4.35M150.01 166.15h-2.66M151.02 166.83c-.13-.44-.58-.68-1.01-.68M151.95 165.46c-.6 0-1.2.47-1.01 1.11M147.35 166.15c-1.01 0-2.08.68-2.08 1.79M152.21 200.25c0 .28.27.45.52.45" class="cls-16"/><path d="M152.49 200.25c0 .28.27.45.52.45M145.27 200.25c0 .28.27.45.52.45M150.01 220.36h-.23M150.96 219.88l1.25-4.29M149.78 220.36h-2.43M152.49 200.69v14.9M152.21 200.69v14.9M145.27 200.69v17.88M145.27 167.94v32.31M152.21 170.92v29.33M152.49 170.92v29.33M172.47 169.51c0-.56-.54-.89-1.04-.89M171.62 167.25v2.78M170.58 170.92c.5 0 1.04-.34 1.04-.89M171.62 167.25c0-1.11-1.08-1.79-2.08-1.79M171.62 216.48c0-.56-.54-.89-1.04-.89M171.62 219.21v-2.73M171.43 217.84c.5 0 1.04-.34 1.04-.89M172.47 200.69v16.25M172.47 169.51v30.74M170.58 215.59h-18.37M170.58 170.92h-18.37M169.54 165.46h-17.59M169.54 220.99h-17.57M150.96 219.88c-.19.64.41 1.11 1.01 1.11" class="cls-16"/><path d="M150.01 220.36c.43 0 .88-.24 1.01-.68M145.27 218.57c0 1.11 1.08 1.79 2.08 1.79M169.54 220.99c1.01 0 2.08-.68 2.08-1.79M302.19 202.11h8.99v43.14h-8.99zM346.16 270.61l2.666-6.037 4.354 1.922-2.665 6.038z" class="cls-16"/><circle cx="154.32" cy="117.44" r="5.25" class="cls-16"/><path d="M286.96 111.19c-.21-.06-.42-.11-.64-.15M286.32 111.04c-1.88-.48-3.52-.39-5.33.28M280.98 111.32c-1.31.43-2.29 1.09-3.17 2.15M277.81 113.47a5.8 5.8 0 0 0-1.49 3.88M289.9 117.35c0-2.31-1.66-4.29-3.94-4.69M285.96 112.66c-1.56-.41-2.92-.34-4.43.23M281.53 112.89c-1.02.32-1.78.84-2.46 1.67M279.07 114.56c-.13.15-.26.3-.37.47M285.96 122.04c2.28-.4 3.94-2.38 3.94-4.69M281.53 121.81c1.51.57 2.87.64 4.43.23M279.07 120.15c.68.83 1.44 1.34 2.46 1.67M278.7 119.68c.11.16.23.32.37.47M286.32 123.67c.22-.04.43-.09.64-.15M280.98 123.38c1.82.67 3.46.76 5.33.28M277.81 121.23c.88 1.06 1.86 1.73 3.17 2.15M276.32 117.35c0 1.43.53 2.82 1.49 3.88M278.25 118v-.65M278.25 118c0 .62.14 1.15.46 1.68M285.65 117.35a1.34 1.34 0 0 0 2.68 0" class="cls-16"/><path d="M287.2 117.5s.03-.09.03-.14M287.23 117.35c0-.05-.01-.1-.03-.14M285.94 118.19c.13.17.25.19.43.08M286.37 118.27c.37-.17.63-.41.83-.77M292.02 120.57v-3.22M292.07 122.11l-.05-1.54M292.07 122.01l-5.11 1.5M278.7 115.02a3.2 3.2 0 0 0-.46 1.68M286.37 116.44c-.18-.11-.3-.09-.43.08M292.07 112.6l-.05 1.54M292.07 112.7l-5.11-1.51M292.02 114.14v3.21" class="cls-16"/><path d="M288.33 117.35a1.34 1.34 0 0 0-2.68 0" class="cls-16"/><path d="M287.2 117.21c-.2-.36-.45-.6-.83-.77M278.25 116.71v.64M292.07 106.11h8.59v22.44h-8.59z" class="cls-16"/><circle cx="191.2" cy="297.17" r="8.2" class="cls-16"/><path d="M90.94 127.39c1.05 0 2-.2 2.97-.62M95.46 125.63c.59-.67.84-1.33.84-2.22M93.91 126.77c.61-.27 1.11-.63 1.55-1.14M93.91 120.05a7.2 7.2 0 0 0-2.97-.62M95.46 121.19c-.44-.5-.94-.87-1.55-1.14M96.29 123.41c0-.89-.25-1.55-.84-2.22" class="cls-16"/><path d="M87.98 126.77c.96.42 1.91.62 2.97.62M86.43 125.63c.44.5.94.87 1.55 1.14M85.59 123.41c0 .89.25 1.55.84 2.22M86.43 121.19c-.59.67-.84 1.33-.84 2.22M87.98 120.05c-.61.27-1.11.63-1.55 1.14M90.94 119.43c-1.05 0-2 .2-2.97.62M95.99 126.1c.71-.81 1.01-1.62 1.01-2.69M97.01 123.41c0-1.08-.3-1.88-1.01-2.69M95.99 120.72a4.9 4.9 0 0 0-1.8-1.32M94.19 119.4c-1.06-.46-2.1-.68-3.25-.68M90.94 118.71c-1.15 0-2.2.22-3.25.68M87.69 119.4c-.71.31-1.29.73-1.8 1.32M85.89 120.72c-.71.81-1.01 1.62-1.01 2.69M84.88 123.41c0 1.08.3 1.88 1.01 2.69M85.89 126.1c.51.59 1.09 1.01 1.8 1.32M87.69 127.42c1.06.46 2.1.68 3.25.68M90.94 128.11c1.16 0 2.2-.22 3.25-.68M94.19 127.42c.71-.31 1.29-.73 1.8-1.32M91.49 120.97c0-.3-.24-.55-.55-.55s-.55.24-.55.55.24.55.55.55.55-.24.55-.55M273.42 273.25c.3-.28.31-.75.03-1.04s-.75-.31-1.04-.03a.73.73 0 0 0-.03 1.04c.28.3.75.31 1.04.03" class="cls-16"/><path d="M273.3 272.09v-2.28h-.79v2.31M272.11 266.97c0 .4.33.73.73.73s.73-.33.73-.73-.33-.73-.73-.73-.73.33-.73.73" class="cls-16"/><path d="M272.28 266.97a.56.56 0 1 0 1.12 0 .56.56 0 1 0-1.12 0M352.01 258.08c-.02-.55-.19-.94-.58-1.32" class="cls-16"/><path d="M350.12 256.79c.63.35 1.42.12 1.77-.5.35-.63.12-1.42-.5-1.77M341.61 254.92c-.5.22-.8.52-1.02 1.02" class="cls-16"/><path d="M342.47 252.85a1.3 1.3 0 0 0-1.11 1.47c.1.71.75 1.21 1.47 1.11M351.38 254.51a14.32 14.32 0 0 0-8.91-1.67M350.12 256.79a11.8 11.8 0 0 0-7.29-1.37M351.89 261.1c.12-1.02.16-2.02.12-3.05M340.61 255.92c-.73 1.68-1.2 3.37-1.44 5.18M328.04 261.1h33.38v14.57h-33.38zM262.63 189.5h11.34v17.01h-11.34zM245.62 189.5h17.01v17.01h-17.01zM302.23 267.63h23.04v8.05h-23.04z" class="cls-16"/></g><g id="Calque_08" data-name="Calque 08"><path d="M175.62 276.61h18.57M155.64 276.61h18.56M214.17 275.67h1.43v1.88h-1.43zM174.2 275.67h1.43v1.88h-1.43zM194.19 275.67h1.43v1.88h-1.43zM234.16 275.67h1.43v1.88h-1.43zM154.21 275.67h1.43v1.88h-1.43zM269.39 275.67h1.43v2.35h-1.43zM290.27 275.67h1.43v2.35h-1.43zM248.51 275.67h1.43v2.35h-1.43zM325.26 275.67h1.43v1.88h-1.43zM363.78 275.67h1.43v1.88h-1.43zM344.52 275.67h1.43v1.88h-1.43zM120.61 275.67h1.43v1.88h-1.43zM139.86 275.67h1.43v1.88h-1.43zM101.35 275.67h1.43v1.88h-1.43z" class="cls-13"/></g><g id="Calque_05" data-name="Calque 05"><path d="M245.6 206.51v1" class="cls-10"/><path d="M245.6 209.47v46.22" style="fill:none;stroke-width:.15px;stroke-linecap:round;stroke-linejoin:round;stroke:#666;stroke-dasharray:0 0 1.97 1.97"/><path d="M245.6 256.67v1M242.65 283.2v26.67H146.1V283.2M243.3 206.51v1" class="cls-10"/><path d="m243.3 209.47-.02 46.22" style="fill:none;stroke-width:.15px;stroke-linecap:round;stroke-linejoin:round;stroke:#666;stroke-dasharray:0 0 1.97 1.97"/><path d="M243.28 256.67v1M365.2 283.2h-39.94M101.35 283.2h39.94M245.6 283.2v29.61H143.16V283.2M235.59 283.2h-81.38M291.7 283.2h-43.19" class="cls-10"/></g><g id="Calque_03" data-name="Calque 03"><path d="M194.19 276.61h-18.57M214.17 276.61h-18.56M234.16 276.61H215.6M174.2 276.61h-18.56M235.59 277.56h-81.38M235.59 275.67h-81.38M249.94 276.85h19.45M270.82 276.85h19.45M270.82 275.67h20.88M248.51 275.67h20.88M270.82 278.03h20.88M248.51 278.03h20.88M363.78 276.61h-17.83M344.52 276.61h-17.83M363.78 275.67h-17.83M344.52 275.67h-17.83M363.78 277.56h-17.83M344.52 277.56h-17.83M120.61 277.56h-17.83M139.86 277.56h-17.82M120.61 275.67h-17.83M139.86 275.67h-17.82M120.61 276.61h-17.83M139.86 276.61h-17.82" class="cls-13"/></g><g id="Calque_02" data-name="Calque 02"><path d="M117.99 133.86h25.17v1.04h-25.17zM281.3 134.39c.71 12.63 11.88 21.47 24.06 21.47M220.24 134.53c.38 6.77 3.6 12.95 8.67 17.35s11.64 6.73 18.31 6.73M220.24 133.18h26.99v1.35h-26.99M220.24 134.53v-1.35M281.3 133.18h24.06v1.2l-24.06.01M281.3 134.39v-1.21M321.16 166.21v-1.14M321.16 165.07l-21.13-.08-.01 1.14 21.14.08M321.16 166.21c-.63 11.26-9.83 20.27-21.2 20.23M248.22 147.73h-1.03M247.19 147.73l.06-18.95h1.03l-.06 18.95M248.22 147.73c10.1-.5 18.24-8.69 18.27-18.89M286.69 147.73h1.02" class="cls-9"/><path d="m287.71 147.73-.06-18.95h-1.03l.07 18.95M286.69 147.73c-10.1-.5-18.24-8.69-18.27-18.89M96.86 157.97v1.14M96.86 159.11l21.13.08v-1.14l-21.13-.08M96.86 157.97c.63-11.26 9.83-20.27 21.2-20.23M124.02 139.14V138M124.02 138l21.13-.08v1.14l-21.13.08M124.02 139.14c.63 11.26 9.83 20.27 21.2 20.23M140.98 181.55c-11.26-.63-20.27-9.83-20.23-21.2M142.12 181.55l.08-21.13-1.14-.01-.08 21.14M140.98 181.55h1.14" class="cls-9"/></g><g id="cotes"><path d="m60.67 117.9-18.8-.16M60.31 160.25l-18.8-.16M41.87 117.74l-.14 15.86M41.64 144.53l-.13 15.56M43.08 118.79l-2.25-2.28-.18.18 2.25 2.28.18-.18M40.29 159.03l2.25 2.29.19-.18-2.25-2.29-.19.18M243.29 111.52V89.17M145.22 111.52V89.17M243.29 89.17H199.8M188.64 89.17h-43.42M242.25 90.4l2.27-2.27-.18-.18-2.27 2.27.18.18M146.26 87.95l-2.27 2.27.18.18 2.27-2.27-.18-.18M266.48 111.52V89.17M247.23 111.52V89.18M266.48 89.17h-4.06M249.86 89.17l-2.63.01M265.44 90.4l2.27-2.27-.18-.18-2.27 2.27.18.18M248.27 87.95 246 90.22l.19.18 2.26-2.27-.18-.18M300.66 111.52V89.17M268.42 111.52V89.17M300.66 89.17h-9.74M278.14 89.17h-9.72M299.62 90.4l2.26-2.27-.18-.18-2.27 2.27.19.18M269.46 87.95l-2.27 2.27.18.18 2.27-2.27-.18-.18M373.09 165.33l.05-13.02M302.23 165.09l.04-13.03M373.14 152.31l-29.89-.11M332.09 152.16l-29.82-.1M372.09 153.53l2.28-2.26-.18-.19-2.28 2.26.18.19M303.32 150.84l-2.28 2.26.19.18 2.27-2.26-.18-.18M372.85 275.67l12.88.03M373.09 164.99l12.89.03M385.73 275.7l.12-49.79M384.51 274.66l2.26 2.27.19-.18-2.27-2.28-.18.19M387.2 166.07l-2.26-2.28-.18.19 2.26 2.27.18-.18M304.71 159.28l12.89.16M305.36 105.8l12.89.16M317.6 159.44l.26-21.43M317.99 127.08l.26-21.12M316.38 158.38l2.24 2.3.19-.18-2.24-2.3-.19.18M319.46 107.02l-2.24-2.3-.18.18 2.24 2.3.18-.18M115.66 111.52V89.17M60.67 111.52V89.17M115.66 89.17H93.48M82.48 89.17H60.67M114.62 90.4l2.26-2.27-.18-.18-2.26 2.27.18.18M61.71 87.95l-2.27 2.27.18.18 2.27-2.27-.18-.18M139.14 111.52V89.17M117.99 111.52V89.17M139.14 89.17h-4.75M121.26 89.17h-3.27M138.1 90.4l2.26-2.27-.18-.18-2.26 2.27.18.18M119.03 87.95l-2.27 2.27.19.18 2.26-2.27-.18-.18M60.67 274.16l-.1 20.37M143.16 274.54l-.1 20.37M60.57 294.53l35.7.16M106.5 294.74l36.56.17M61.62 293.31l-2.28 2.25.18.19 2.28-2.26-.18-.18M142.01 296.13l2.28-2.25-.18-.19-2.28 2.26.18.18M245.6 274.16l-.14 20.37M300.03 274.54l-.15 20.37M245.46 294.53l21.9.15M278.22 294.76l21.66.15M246.51 293.31l-2.28 2.25.18.18 2.28-2.25-.18-.18M298.83 296.13l2.29-2.25-.18-.18-2.29 2.25.18.18M302.23 274.16l-.11 20.37M373.09 274.54l-.11 20.37M302.12 294.53l29.88.16M343.17 294.75l29.81.16M303.17 293.31l-2.28 2.25.18.19 2.28-2.26-.18-.18M371.93 296.13l2.28-2.25-.18-.19-2.28 2.26.18.18M145.22 274.16l-.08 20.37M243.28 274.54l-.08 20.37M145.14 294.53l43.48.17M200.76 294.74l42.44.17M146.18 293.31l-2.27 2.25.18.19 2.27-2.26-.18-.18M242.15 296.13l2.27-2.26-.18-.18-2.27 2.26.18.18M60.67 162.16l-18.58-.06M60.31 275.67l-18.58-.06M42.09 162.1l-.16 51.14M41.89 224.48l-.16 51.13M43.31 163.15l-2.26-2.28-.18.18 2.26 2.28.18-.18M40.51 274.57l2.26 2.27.19-.18-2.27-2.27-.18.18" class="cls-15"/></g><g id="Calque_9" data-name="Calque 9"><text class="cls-25" transform="rotate(-89.52 95 50.446)"><tspan x="0" y="0">1.49</tspan></text><text class="cls-25" transform="translate(188.38 91.3)"><tspan x="0" y="0">3.46</tspan></text><text class="cls-25" transform="rotate(-.01 520886.379 -1432807.405)"><tspan x="0" y="0">0.68</tspan></text><text class="cls-25" transform="translate(277.78 90.45)"><tspan x="0" y="0">1.14</tspan></text><text class="cls-25" transform="rotate(.2 -44029.155 95130.737)"><tspan x="0" y="0">2.50</tspan></text><text class="cls-25" transform="rotate(-89.87 307.292 -81.336)"><tspan x="0" y="0">3.90</tspan></text><text class="cls-25" transform="rotate(-89.3 230.127 -92.692)"><tspan x="0" y="0">1.89</tspan></text><text class="cls-25" transform="translate(81.98 91.32)"><tspan x="0" y="0">1.94</tspan></text><text class="cls-25" transform="translate(121.79 90.98)"><tspan x="0" y="0">0.75</tspan></text><text class="cls-25" transform="rotate(.27 -62939.044 20520.205)"><tspan x="0" y="0">2.91</tspan></text><text class="cls-25" transform="rotate(.41 -41340.168 37436.604)"><tspan x="0" y="0">1.92</tspan></text><text class="cls-25" transform="rotate(.32 -52974.052 59540.688)"><tspan x="0" y="0">2.50</tspan></text><text class="cls-25" transform="rotate(.22 -77205.555 49198.74)"><tspan x="0" y="0">3.46</tspan></text><text class="cls-25" transform="rotate(-89.82 134.663 90.27)"><tspan x="0" y="0">4.00</tspan></text></g><g id="D_faut" data-name="D√©faut"><path d="M291.7 257.67h8.33v18h-8.33zM60.67 119.78v1.04M266.48 105.8h1.93v25.4h-1.93z" class="cls-21"/><path d="M243.29 133.18V105.8h-98.07v32.13h-2.06V117.9h-25.17v19.84h-2.33V117.9H60.67v42.52h54.62v-1.23h2.7v1.23h2.77v1.74H60.67v113.51h40.68v7.53H54.59V111.52h84.55v-12.1h166.22v33.76h-4.7v-2.05h-13.01v-2.35h13.01V105.8h-53.43v27.38M324.55 267.63h.72v8.05h-.72zM247.23 133.18h-3.94M247.23 107.81v20.74" class="cls-21"/><path d="M243.29 158.62h-8.49v47.89h8.5M245.6 257.67h-2.32v18h-7.69v7.53h12.92v-7.53h-2.91zM143.16 162.16v113.51h-1.87v7.53h12.92v-7.53h-8.99v-116.3h-2.06v1.05" class="cls-21"/><path d="M243.29 206.51h2.32l.01-17.01h54.41v86.17h-8.33v7.53h33.56v-7.53h-23.03v-89.23h-2.2l-52.8-.07v-27.75h-3.94zM143.16 162.16h-.96v-1.74h.96M379.17 283.2H365.2v-7.53h7.89V164.99h-73.06v-9.13h4.68v3.42h74.46zM54.59 119.32v-1.82" class="cls-21"/><path d="M293.09 259.17h6.94v14.99h-6.94z" class="cls-20"/><path d="m293.09 259.17 6.94 14.99" class="cls-5"/></g><g id="Calque_10" data-name="Calque 10"><path d="M243.29 158.62h-8.49v47.89h8.5" class="cls-21"/><path d="M236.22 160.04h7.08v45.06h-7.08z" class="cls-20"/><path d="m236.22 160.03 7.08 45.06" class="cls-5"/></g><g id="Calque_8" data-name="Calque 8"><circle cx="371.95" cy="349.59" r="9.92" class="cls-12"/><path d="m371.96 349.67 7.44 6.47" class="cls-12"/><path d="m364.43 343.12 7.53 6.55" style="fill:none;stroke-miterlimit:10;stroke:#000;stroke-width:2px"/></g><g id="Calque_12" data-name="Calque 12"><text class="cls-26" transform="translate(85.09 206.36)"><tspan x="0" y="0">Chamb</tspan><tspan x="19.92" y="0" class="cls-1">r</tspan><tspan x="21.71" y="0">e I</tspan><tspan x="0" y="7.2" style="letter-spacing:-.02em">1</tspan><tspan x="3.24" y="7.2">1,60m</tspan></text><text class="cls-26" transform="matrix(.58 0 0 .58 105.18 211.56)"><tspan x="0" y="0">2</tspan></text><text class="cls-26" transform="translate(107.14 213.56)"><tspan x="0" y="0"> </tspan></text><text class="cls-26" transform="translate(171.91 206.36)"><tspan x="0" y="0">Salon</tspan><tspan x="0" y="7.2">20,70m</tspan></text><text class="cls-26" transform="matrix(.58 0 0 .58 192.13 211.56)"><tspan x="0" y="0">2</tspan></text><text class="cls-26" transform="translate(194.09 213.56)"><tspan x="0" y="0"> </tspan></text><text class="cls-26" transform="translate(254.73 206.36)"><tspan x="0" y="0">Cuisine</tspan><tspan x="0" y="7.2">5,80m</tspan></text><text class="cls-26" transform="matrix(.58 0 0 .58 271.58 211.56)"><tspan x="0" y="0">2</tspan></text><text class="cls-26" transform="translate(273.54 213.56)"><tspan x="0" y="0"> </tspan></text><text class="cls-26" transform="translate(327.85 206.36)"><tspan x="0" y="0">Chamb</tspan><tspan x="19.92" y="0" class="cls-1">r</tspan><tspan x="21.71" y="0">e II</tspan><tspan x="0" y="7.2">9,75 m</tspan></text><text class="cls-26" transform="matrix(.58 0 0 .58 346.21 211.56)"><tspan x="0" y="0">2</tspan></text><text class="cls-26" transform="translate(257.32 162.46)"><tspan x="0" y="0">Ent</tspan><tspan x="8.8" y="0" class="cls-1">r</tspan><tspan x="10.59" y="0">ée</tspan><tspan x="0" y="7.2">3,60m</tspan></text><text class="cls-26" transform="matrix(.58 0 0 .58 274.17 167.66)"><tspan x="0" y="0">2</tspan></text><text class="cls-26" transform="translate(276.13 169.66)"><tspan x="0" y="0"> </tspan></text><text class="cls-26" transform="translate(271.81 116.03)"><tspan x="0" y="0">WC</tspan><tspan x="0" y="7.2">1m</tspan></text><text class="cls-26" transform="matrix(.58 0 0 .58 280.5 121.23)"><tspan x="0" y="0">2</tspan></text><text class="cls-26" transform="translate(282.46 123.23)"><tspan x="0" y="0"> </tspan></text><text class="cls-26" transform="translate(73.39 133.16)"><tspan xml:space="preserve" x="0" y="0">Salle de  bain</tspan><tspan x="0" y="7.2">2,90m</tspan></text><text class="cls-26" transform="matrix(.58 0 0 .58 90.25 138.36)"><tspan x="0" y="0">2</tspan></text><text class="cls-26" transform="translate(92.2 140.36)"><tspan x="0" y="0"> </tspan></text></g></svg>