<svg xmlns="http://www.w3.org/2000/svg" xmlns:xlink="http://www.w3.org/1999/xlink" viewBox="0 0 420.94 425.2"><defs><pattern id="Nouveau_motif_2" width="34.23" height="27.94" x="0" y="0" data-name="Nouveau motif 2" patternTransform="matrix(0 -.55 .55 0 -3022.26 -12305.33)" patternUnits="userSpaceOnUse"><path d="M0 0h34.23v27.94H0z" class="cls-4"/><path d="M17.14 25.63h34.18v4.61H17.14zM-17.09 25.63h34.18v4.61h-34.18zM.03 20.98h34.18v4.61H.03zM17.14 16.32h34.18v4.61H17.14zM-17.09 16.32h34.18v4.61h-34.18zM.03 11.67h34.18v4.61H.03zM17.14 7.01h34.18v4.61H17.14zM-17.09 7.01h34.18v4.61h-34.18zM.03 2.35h34.18v4.61H.03zM17.14-2.3h34.18v4.61H17.14zM-17.09-2.3h34.18v4.61h-34.18z" class="cls-6"/></pattern><pattern xlink:href="#Nouveau_motif_2" id="Nouveau_motif_2-2" data-name="Nouveau motif 2" patternTransform="matrix(.55 0 0 .55 -3432.65 -3237.97)"/><pattern xlink:href="#Nouveau_motif_2" id="Nouveau_motif_2-3" data-name="Nouveau motif 2" patternTransform="matrix(.55 0 0 .55 -3432.65 -3237.97)"/><pattern id="Grille_1_pica_lignes" width="72" height="72" x="0" y="0" data-name="Grille 1 pica lignes" patternTransform="matrix(.14 0 0 .14 -3321.32 -2745.85)" patternUnits="userSpaceOnUse"><path d="M0 0h72v72H0z" class="cls-4"/><path d="M6 71.75v72.5M30 71.75v72.5M54 71.75v72.5M18 71.75v72.5M42 71.75v72.5M66 71.75v72.5M71.75 66h72.5M71.75 42h72.5M71.75 18h72.5M71.75 54h72.5M71.75 30h72.5M71.75 6h72.5M6-.25v72.5M30-.25v72.5M54-.25v72.5M-.25 66h72.5M-.25 42h72.5M-.25 18h72.5M-.25 54h72.5M-.25 30h72.5M-.25 6h72.5M18-.25v72.5M42-.25v72.5M66-.25v72.5M-72.25 66H.25M-72.25 42H.25M-72.25 18H.25M-72.25 54H.25M-72.25 30H.25M-72.25 6H.25M6-72.25V.25M30-72.25V.25M54-72.25V.25M18-72.25V.25M42-72.25V.25M66-72.25V.25" class="cls-9"/></pattern><style>.cls-1{letter-spacing:-.02em}.cls-10,.cls-11,.cls-12,.cls-3,.cls-4,.cls-6,.cls-7,.cls-8,.cls-9{fill:none}.cls-10,.cls-12,.cls-15,.cls-16,.cls-17,.cls-3,.cls-6{stroke-miterlimit:10}.cls-10,.cls-15,.cls-16,.cls-3{stroke:#000}.cls-11,.cls-12,.cls-18,.cls-3,.cls-8{stroke-width:.15px}.cls-19,.cls-4{stroke-width:0}.cls-19{fill:url(#Grille_1_pica_lignes);opacity:.7}.cls-11,.cls-12,.cls-17,.cls-6,.cls-7{stroke:#333}.cls-17,.cls-6{stroke-width:.05px}.cls-15,.cls-16{stroke-width:.5px}.cls-15,.cls-18{fill:#fff}.cls-21{fill:#333;font-family:Avenir-Medium,Avenir;font-size:6.23px;font-weight:500}.cls-16{fill:#999}.cls-22{fill:#000;font-family:AvenirNext-UltraLight,&quot;Avenir Next&quot;;font-size:6px;font-weight:100}.cls-11,.cls-18,.cls-7,.cls-8{stroke-linecap:round;stroke-linejoin:round}.cls-10,.cls-7{stroke-width:.25px}.cls-18,.cls-8{stroke:#666}.cls-9{stroke:#1d1d1b;stroke-width:.3px}.cls-17{fill:url(#Nouveau_motif_2)}</style></defs><g id="Calque_11" data-name="Calque 11" style="opacity:.8"><path d="M145.26 105.8h97.98v169.87h-97.98z" class="cls-17"/><path d="M302.27 165.08h70.87v110.59h-70.87z" style="stroke-miterlimit:10;fill:url(#Nouveau_motif_2-2);stroke:#333;stroke-width:.05px"/><path d="m115.7 117.89-.37 42.52h5.47v1.74H60.71v113.52h82.49V162.15h-.99v-1.74h.99v-1.05h2.06v-21.44h-2.06v-20.03z" style="stroke-miterlimit:10;stroke:#333;stroke-width:.05px;fill:url(#Nouveau_motif_2-3)"/><path d="m247.27 189.49 55.04-.05-.04-22.06-2.27-.09.7-38.51-34.18-.23v-22.59h-19.25v28.28h-4.04v26.42h4z" class="cls-17"/><path d="M245.66 189.49h54.41v86.17h-54.41zM60.71 117.89h54.62v42.52H60.71zM268.46 105.8h32.24v22.98h-32.24z" class="cls-19"/></g><g id="Calque_09" data-name="Calque 09"><path d="M83.38 117.89h15.31v10.87H83.38z" class="cls-18"/><ellipse cx="285.52" cy="117.35" rx="9.15" ry="6.62" style="stroke-width:0;fill:#fff"/><path d="M286.36 123.66c.22-.04.43-.09.64-.15M281.02 123.38c1.82.67 3.46.76 5.33.28" class="cls-18"/><path d="M277.85 121.23c.88 1.06 1.86 1.73 3.17 2.15M276.36 117.35c0 1.43.53 2.82 1.49 3.88M278.29 117.99v-.64M278.29 117.99c0 .62.14 1.15.46 1.68M285.69 117.35a1.34 1.34 0 0 0 2.68 0" class="cls-18"/><path d="M287.24 117.49s.03-.09.03-.14M287.27 117.35c0-.05-.01-.1-.03-.14M285.98 118.18c.13.17.25.19.43.08M286.41 118.26c.37-.17.63-.41.83-.77M292.06 120.56v-3.21M292.11 122.1l-.05-1.54M292.11 122l-5.11 1.51M278.74 115.02a3.2 3.2 0 0 0-.46 1.68M286.41 116.43c-.18-.11-.3-.09-.43.08M292.11 112.59l-.05 1.54M292.11 112.69l-5.11-1.5M292.06 114.13v3.22" class="cls-18"/><path d="M288.37 117.35a1.34 1.34 0 0 0-2.68 0" class="cls-18"/><path d="M287.24 117.2c-.2-.36-.45-.6-.83-.77M278.29 116.7v.65M292.11 105.8h8.59v23.04h-8.59zM279.11 120.14c.68.83 1.44 1.34 2.46 1.67M281.57 121.81c1.51.57 2.87.64 4.43.23M286 122.04c2.28-.4 3.94-2.38 3.94-4.69M279.11 114.55c-.13.15-.26.3-.37.47M281.57 112.89c-1.02.32-1.78.84-2.46 1.67M286 112.66c-1.56-.41-2.92-.34-4.43.23M289.94 117.35c0-2.31-1.66-4.29-3.94-4.69M277.85 113.47a5.8 5.8 0 0 0-1.49 3.88M281.02 111.32c-1.31.43-2.29 1.09-3.17 2.15M286.36 111.03c-1.88-.48-3.52-.39-5.33.28M287 111.19c-.21-.06-.42-.11-.64-.15M60.71 117.89h22.68v42.52H60.71z" class="cls-18"/><path d="M66.14 117.89h10.25v1.15H66.14zM83.44 153.64H60.71M64.05 149.65c.44.57.33 1.39-.24 1.82-.57.44-1.39.33-1.82-.24-.44-.57-.33-1.39.24-1.82.57-.44 1.39-.33 1.82.24M65.82 148.19l11.49-13.31M67.95 149.47l11.79-.61M64.24 146.27l-1.12-11.76M91.53 120.97c0-.3-.25-.55-.55-.55s-.55.24-.55.55.24.55.55.55.55-.24.55-.55M94.23 127.42c.71-.31 1.29-.73 1.8-1.32M90.98 128.1c1.16 0 2.2-.22 3.25-.68M87.73 127.42c1.06.46 2.1.68 3.25.68M85.93 126.1c.51.59 1.09 1.01 1.8 1.32M84.92 123.4c0 1.08.3 1.88 1.01 2.69M85.93 120.71c-.71.81-1.01 1.62-1.01 2.69M87.73 119.39c-.71.31-1.29.73-1.8 1.32M90.98 118.71c-1.15 0-2.2.22-3.25.68M94.23 119.39c-1.06-.46-2.1-.68-3.25-.68M96.03 120.71a4.9 4.9 0 0 0-1.8-1.32M97.05 123.4c0-1.08-.3-1.88-1.01-2.69M96.03 126.1c.71-.81 1.01-1.62 1.01-2.69M90.98 119.42c-1.05 0-2 .2-2.97.62M88.01 120.04c-.61.27-1.11.63-1.55 1.14M86.47 121.18c-.59.67-.84 1.33-.84 2.22M85.63 123.4c0 .89.25 1.55.84 2.22M86.47 125.63c.44.5.94.87 1.55 1.14M88.01 126.76c.96.42 1.91.62 2.97.62M96.33 123.4c0-.89-.25-1.55-.84-2.22M95.5 121.18c-.44-.5-.94-.87-1.55-1.14M93.95 120.04a7.2 7.2 0 0 0-2.97-.62M93.95 126.76c.61-.27 1.11-.63 1.55-1.14M95.5 125.63c.59-.67.84-1.33.84-2.22M90.98 127.39c1.05 0 2-.2 2.97-.62M302.27 267.62h23.13v8.05h-23.13zM278.74 119.67c.11.16.23.32.37.47" class="cls-18"/></g><g id="Calque_08" data-name="Calque 08"><path d="M290.31 275.67h1.43v2.35h-1.43zM175.66 276.61h18.56M155.68 276.61h18.56M214.21 275.67h1.43v1.88h-1.43zM174.24 275.67h1.43v1.88h-1.43zM194.22 275.67h1.43v1.88h-1.43zM234.2 275.67h1.43v1.88h-1.43zM154.25 275.67h1.43v1.88h-1.43zM269.43 275.67h1.43v2.35h-1.43zM248.55 275.67h1.43v2.35h-1.43zM325.3 275.67h1.43v1.88h-1.43zM363.82 275.67h1.43v1.88h-1.43zM344.56 275.67h1.43v1.88h-1.43zM120.65 275.67h1.43v1.88h-1.43zM139.9 275.67h1.43v1.88h-1.43zM101.39 275.67h1.43v1.88h-1.43z" class="cls-11"/></g><g id="Calque_05" data-name="Calque 05"><path d="M101.39 283.2h39.94M291.74 283.2h-43.19M242.69 283.2v26.66h-96.55V283.2M235.63 283.2h-81.38" class="cls-8"/><path d="M245.64 283.2v29.61H143.2V283.2M365.24 283.2H325.3" class="cls-8"/></g><g id="Calque_03" data-name="Calque 03"><path d="M235.63 275.67h-81.38M363.82 276.61h-17.83M344.56 276.61h-17.83M344.56 277.55h-17.83M249.97 276.84h19.46M270.86 276.84h19.45M270.86 275.67h20.88M248.55 275.67h20.88M270.86 278.02h20.88M248.55 278.02h20.88M363.82 277.55h-17.83M363.82 275.67h-17.83M139.9 276.61h-17.83M120.65 276.61h-17.83M139.9 275.67h-17.83M120.65 275.67h-17.83M139.9 277.55h-17.83M120.65 277.55h-17.83M344.56 275.67h-17.83M214.21 276.61h-18.56M234.2 276.61h-18.56M194.22 276.61h-18.56M174.24 276.61h-18.56M235.63 277.55h-81.38" class="cls-11"/></g><g id="Calque_02" data-name="Calque 02"><path d="M220.28 134.53v-1.35M124.05 137.99l21.14-.07v1.14l-21.13.07M296.6 207.56l.06-18.07M286.73 147.72c-10.1-.5-18.24-8.69-18.27-18.89M287.75 147.72l-.06-18.95h-1.03l.07 18.95M286.73 147.72h1.02M248.26 147.72c10.1-.5 18.24-8.69 18.27-18.89M247.23 147.72l.06-18.95h1.03l-.06 18.95M248.26 147.72h-1.03M296.66 189.49l.01-3.07M296.67 186.42h-1.14 0M295.53 186.42l-.01 3.07M295.52 189.49l-.06 18.06M96.9 157.97v1.14M96.9 159.11l21.13.07v-1.14l-21.13-.07M96.9 157.97c.63-11.26 9.83-20.27 21.2-20.23M124.06 139.13l-.01-1.14M124.06 139.13c.63 11.26 9.83 20.27 21.2 20.23M141.02 181.54c-11.26-.63-20.27-9.83-20.23-21.2M142.16 181.54l.07-21.13h-1.14l-.07 21.13M141.02 181.54h1.14M220.28 134.53c.38 6.77 3.6 12.95 8.67 17.35s11.64 6.73 18.31 6.73" class="cls-7"/><path d="m220.28 133.18 26.99-.01v1.36h-26.99M295.46 207.55l1.14.01M295.46 207.55c-10.06-.56-18.51-8.01-20-18.06M275.46 189.49c-.15-1.03-.23-2.06-.23-3.1M275.23 186.4v-.04M118.03 133.85h25.17v1.04h-25.17zM281.34 134.38c.71 12.63 11.88 21.47 24.06 21.47M281.34 133.17h24.06v1.21h-24.06M281.34 134.38v-1.21M321.19 166.2l.01-1.14M321.2 165.06l-21.13-.07-.01 1.14 21.13.07M321.19 166.2c-.63 11.26-9.83 20.27-21.2 20.23" class="cls-7"/></g><g id="cotes"><path d="m304.75 159.27 12.88.16M305.4 105.8l12.89.16M317.63 159.43l.27-21.42M318.03 127.08l.26-21.12M316.42 158.37l2.24 2.3.19-.18-2.24-2.3-.19.18M319.5 107.01l-2.24-2.29-.18.18 2.24 2.29.18-.18M139.18 111.51V89.17M118.03 111.51V89.17M139.18 89.17h-4.94M121.38 89.17h-3.35M138.14 90.39l2.26-2.27-.18-.18-2.27 2.27.19.18M119.07 87.94l-2.27 2.27.19.18 2.26-2.27-.18-.18M60.71 274.15l-.1 20.37M143.2 274.54l-.1 20.37M60.61 294.52l35.7.17M106.54 294.74l36.56.17M61.66 293.3l-2.28 2.26.18.18 2.28-2.26-.18-.18M142.05 296.13l2.28-2.26-.18-.18-2.28 2.25.18.19M245.64 274.15l-.14 20.37M300.07 274.54l-.15 20.37M245.5 294.52l21.9.15M278.26 294.75l21.66.16M246.55 293.3l-2.28 2.25.18.19 2.28-2.26-.18-.18M298.87 296.12l2.28-2.25-.18-.18-2.28 2.25.18.18M302.27 274.15l-.11 20.37M373.13 274.54l-.11 20.37M302.16 294.52l29.88.16M343.21 294.74l29.81.17M303.21 293.3l-2.29 2.26.19.18 2.28-2.26-.18-.18M371.97 296.13l2.28-2.26-.18-.18-2.28 2.25.18.19M145.26 274.15l-.09 20.37M243.31 274.54l-.08 20.37M145.17 294.52l43.49.17M199.82 294.74l43.41.17M146.22 293.3l-2.27 2.26.18.18 2.27-2.26-.18-.18M242.19 296.13l2.27-2.26-.18-.18-2.27 2.25.18.19M60.71 162.15l-18.58-.06M60.35 275.67l-18.58-.06M42.13 162.09l-.16 51.14M41.93 224.47l-.16 51.14M43.35 163.14l-2.26-2.27-.18.18 2.26 2.27.18-.18M40.55 274.56l2.26 2.28.18-.18-2.26-2.28-.18.18M60.71 117.89l-18.8-.16M60.35 160.24l-18.8-.16M41.91 117.73l-.14 15.86M41.68 144.53l-.13 15.55M43.12 118.79l-2.25-2.29-.18.18 2.25 2.29.18-.18M40.33 159.03l2.25 2.28.19-.18-2.25-2.28-.19.18M243.33 111.51V89.17M145.26 111.51V89.17M243.33 89.17h-43.49M188.68 89.17h-43.42M242.29 90.39l2.27-2.27-.18-.18-2.27 2.27.18.18M146.3 87.94l-2.27 2.27.18.18 2.27-2.27-.18-.18M266.52 111.51V89.17M247.27 111.51V89.17M266.52 89.17h-3.9M249.74 89.17h-2.47M265.48 90.39l2.27-2.27-.18-.18-2.27 2.27.18.18M248.31 87.94l-2.27 2.27.19.18 2.26-2.26-.18-.19M300.7 111.51V89.17M268.46 111.51V89.17M300.7 89.17h-9.94M278 89.17h-9.54M299.66 90.39l2.26-2.27-.18-.18-2.27 2.27.19.18M269.5 87.94l-2.27 2.27.18.18 2.27-2.27-.18-.18M373.13 165.33l.05-13.03M302.27 165.08l.04-13.03M373.18 152.3l-29.89-.11M332.13 152.16l-29.82-.11M372.13 153.52l2.28-2.26-.18-.18-2.28 2.26.18.18M303.36 150.83l-2.28 2.26.19.18 2.27-2.26-.18-.18M372.89 275.67l12.88.03M373.13 164.99l12.89.03M385.77 275.7l.11-49.8M385.91 214.74l.11-49.72M384.55 274.65l2.26 2.27.19-.18-2.27-2.27-.18.18M387.24 166.06l-2.26-2.27-.18.18 2.26 2.27.18-.18M115.7 111.51V89.17M60.71 111.51V89.17M115.7 89.17H93.52M82.51 89.17h-21.8M114.66 90.39l2.26-2.27-.18-.18-2.27 2.27.19.18M61.75 87.94l-2.27 2.27.18.18 2.27-2.27-.18-.18" class="cls-12"/></g><g id="Calque_9" data-name="Calque 9"><text class="cls-21" transform="rotate(-89.3 230.142 -92.717)"><tspan x="0" y="0">1.89</tspan></text><text class="cls-21" transform="translate(121.82 90.97)"><tspan x="0" y="0">0.75</tspan></text><text class="cls-21" transform="rotate(.27 -62939.024 20528.693)"><tspan x="0" y="0">2.91</tspan></text><text class="cls-21" transform="rotate(.41 -41340.148 37442.193)"><tspan x="0" y="0">1.92</tspan></text><text class="cls-21" transform="rotate(.32 -52974.032 59547.85)"><tspan x="0" y="0">2.50</tspan></text><text class="cls-21" transform="rotate(.22 -77205.535 49209.158)"><tspan x="0" y="0">3.46</tspan></text><text class="cls-21" transform="rotate(-89.82 134.683 90.24)"><tspan x="0" y="0">4.00</tspan></text><text class="cls-21" transform="rotate(-89.52 95.025 50.42)"><tspan x="0" y="0">1.49</tspan></text><text class="cls-21" transform="translate(188.42 91.29)"><tspan x="0" y="0">3.46</tspan></text><text class="cls-21" transform="rotate(-.01 520829.103 -1433036.594)"><tspan x="0" y="0">0.68</tspan></text><text class="cls-21" transform="translate(277.82 90.44)"><tspan x="0" y="0">1.14</tspan></text><text class="cls-21" transform="rotate(.2 -44026.265 95145.056)"><tspan x="0" y="0">2.50</tspan></text><text class="cls-21" transform="rotate(-89.87 307.312 -81.366)"><tspan x="0" y="0">3.90</tspan></text><text class="cls-21" transform="translate(82.02 91.32)"><tspan x="0" y="0">1.94</tspan></text></g><g id="D_faut" data-name="D√©faut"><path d="M379.21 159.27V283.2h-13.97v-7.53h7.89V164.99h-73.06v-9.14h4.68v3.42zM247.27 107.8v20.75M291.74 257.66h8.33v18h-8.33zM243.31 158.61v117.06h-7.68v7.53h12.92v-7.53h-2.91l.01-18.01.01-68.17h29.48v-3.09l-27.87-.04v-27.75h-12.43v47.89h8.5M266.52 105.8h1.93v25.4h-1.93zM142.23 160.41h.97v-1.05h2.06v116.31h8.99v7.53h-12.92v-7.53h1.87V162.15h-.97zM300.7 105.8v22.98M300.7 131.12v2.05" class="cls-16"/><path d="M296.66 186.42v3.07h3.41v86.18h-8.33v7.53h33.56v-7.53h-23.03v-89.24h-2.2zM60.71 119.77v1.04M300.7 105.8h-53.43v27.37h-3.94V105.8h-98.07v32.12h-2.06v-20.03h-25.17v19.85h-2.33v-19.85H60.71v42.52h54.62v-1.23h2.7v1.23h2.77v1.74H60.71v113.52h40.68v7.53H54.63V111.51h84.55V99.42H305.4v33.75h-4.7v-2.05h-13.01v-2.35l13.01.01zM54.63 119.31v-1.82" class="cls-16"/><path d="M293.09 259.17h6.94v14.99h-6.94z" class="cls-15"/><path d="m293.09 259.17 6.94 14.99" class="cls-3"/></g><g id="Calque_10" data-name="Calque 10"><path d="M236.24 160.06h7.08v45.06h-7.08z" class="cls-15"/><path d="M324.32 267.61h.99v8.06h-.99z" class="cls-16"/><path d="m236.22 160.03 7.08 45.06" class="cls-3"/></g><g id="Calque_8" data-name="Calque 8"><circle cx="371.95" cy="349.59" r="9.92" class="cls-10"/><path d="m371.96 349.67 7.44 6.47" class="cls-10"/><path d="m364.43 343.12 7.53 6.55" style="fill:none;stroke-miterlimit:10;stroke:#000;stroke-width:2px"/></g><g id="Calque_12" data-name="Calque 12"><text class="cls-22" transform="translate(85.09 206.36)"><tspan x="0" y="0">Chamb</tspan><tspan x="19.92" y="0" class="cls-1">r</tspan><tspan x="21.71" y="0">e I</tspan><tspan x="0" y="7.2" style="letter-spacing:-.02em">1</tspan><tspan x="3.24" y="7.2">1,60m</tspan></text><text class="cls-22" transform="matrix(.58 0 0 .58 105.18 211.56)"><tspan x="0" y="0">2</tspan></text><text class="cls-22" transform="translate(107.14 213.56)"><tspan x="0" y="0"> </tspan></text><text class="cls-22" transform="translate(171.91 206.36)"><tspan x="0" y="0">Salon</tspan><tspan x="0" y="7.2">20,70m</tspan></text><text class="cls-22" transform="matrix(.58 0 0 .58 192.13 211.56)"><tspan x="0" y="0">2</tspan></text><text class="cls-22" transform="translate(194.09 213.56)"><tspan x="0" y="0"> </tspan></text><text class="cls-22" transform="translate(254.73 206.36)"><tspan x="0" y="0">Cuisine</tspan><tspan x="0" y="7.2">5,80m</tspan></text><text class="cls-22" transform="matrix(.58 0 0 .58 271.58 211.56)"><tspan x="0" y="0">2</tspan></text><text class="cls-22" transform="translate(273.54 213.56)"><tspan x="0" y="0"> </tspan></text><text class="cls-22" transform="translate(327.85 206.36)"><tspan x="0" y="0">Chamb</tspan><tspan x="19.92" y="0" class="cls-1">r</tspan><tspan x="21.71" y="0">e II</tspan><tspan x="0" y="7.2">9,75 m</tspan></text><text class="cls-22" transform="matrix(.58 0 0 .58 346.21 211.56)"><tspan x="0" y="0">2</tspan></text><text class="cls-22" transform="translate(257.32 162.46)"><tspan x="0" y="0">Ent</tspan><tspan x="8.8" y="0" class="cls-1">r</tspan><tspan x="10.59" y="0">ée</tspan><tspan x="0" y="7.2">3,60m</tspan></text><text class="cls-22" transform="matrix(.58 0 0 .58 274.17 167.66)"><tspan x="0" y="0">2</tspan></text><text class="cls-22" transform="translate(276.13 169.66)"><tspan x="0" y="0"> </tspan></text><text class="cls-22" transform="translate(271.81 116.03)"><tspan x="0" y="0">WC</tspan><tspan x="0" y="7.2">1m</tspan></text><text class="cls-22" transform="matrix(.58 0 0 .58 280.5 121.23)"><tspan x="0" y="0">2</tspan></text><text class="cls-22" transform="translate(282.46 123.23)"><tspan x="0" y="0"> </tspan></text><text class="cls-22" transform="translate(73.39 133.16)"><tspan xml:space="preserve" x="0" y="0">Salle de  bain</tspan><tspan x="0" y="7.2">2,90m</tspan></text><text class="cls-22" transform="matrix(.58 0 0 .58 90.25 138.36)"><tspan x="0" y="0">2</tspan></text><text class="cls-22" transform="translate(92.2 140.36)"><tspan x="0" y="0"> </tspan></text></g></svg>