<svg xmlns="http://www.w3.org/2000/svg" viewBox="0 0 645.71 435.34"><defs><style>.cls-10,.cls-12,.cls-2,.cls-3,.cls-4,.cls-5,.cls-8{stroke:#000}.cls-10,.cls-12,.cls-13,.cls-14,.cls-15,.cls-2,.cls-4,.cls-5,.cls-8{stroke-miterlimit:10}.cls-5{fill:#fff}.cls-2{stroke-dasharray:0 0 4.01 4.01}.cls-10,.cls-12,.cls-13,.cls-14,.cls-15,.cls-2,.cls-3,.cls-4{fill:none}.cls-10,.cls-12,.cls-14,.cls-2,.cls-5{stroke-width:.25px}.cls-17{font-family:ArialMT,Arial}.cls-17,.cls-18{fill:#666;font-size:4.45px}.cls-3{stroke-linecap:round;stroke-linejoin:round;stroke-width:0}.cls-4{stroke-width:.75px}.cls-8{stroke-width:.5px}.cls-19{fill:#333;font-family:Avenir-Medium,Avenir;font-size:6.23px;font-weight:500}.cls-13{stroke:#666}.cls-13,.cls-15{stroke-width:.15px}.cls-8{fill:#999}.cls-14,.cls-15{stroke:#333}.cls-18{font-family:Arial-BoldMT,Arial;font-weight:700}.cls-12{stroke-dasharray:0 0 2.81 2.81}</style></defs><g id="Calque_9" data-name="Calque 9"><circle cx="630.49" cy="420.45" r="11.87" style="stroke:#000;stroke-miterlimit:10;fill:#fff;stroke-width:.5px"/><path d="M630.49 420.45h-11.87" style="stroke:#000;stroke-miterlimit:10;fill:none;stroke-width:2px"/><path d="M642.35 420.45h-11.86" style="stroke:#000;stroke-miterlimit:10;fill:none;stroke-width:.5px"/></g><g id="Calque_10" data-name="Calque 10"><path d="M128.7 253.6h37.2v8.23h-37.2z" class="cls-8"/><path d="M607.16 155.32V37.96M438.55 163.36H307.16M307.16 163.36V43.48M454.75 253h-27.59M427.16 253v-8.88M427.16 244.12h.71" class="cls-4"/><path d="M542.47 259.84v-5.28l5.89 5.28z" class="cls-10"/><path d="M542.47 254.56h5.88v5.28h-5.88zM535.4 237.4l6 5.28h-6z" class="cls-10"/><path d="M535.4 237.4h6v5.28h-6zM533.96 259.84v-5.28l6 5.28z" class="cls-10"/><path d="M533.96 254.56h6v5.28h-6zM543.91 237.4l5.89 5.28h-5.89z" class="cls-10"/><path d="M543.91 237.4h5.88v5.28h-5.88zM552.44 237.4h6v5.28h-6zM558.44 242.68l-6-5.28" class="cls-10"/><path d="m552.44 237.4 6 5.28h-6zM559.87 254.56l6 5.28h-6z" class="cls-10"/><path d="M559.87 254.56h6v5.28h-6zM551 254.56l6 5.28h-6z" class="cls-10"/><path d="M551 254.56h6v5.28h-6z" class="cls-10"/><path d="M427.87 244.12v-9.96h10.68v9.96h16.2-16.2M427.87 171.76v42.6h10.68v19.8M438.55 214.36v-51M307.16 43.48h293.88M601.04 163.36V43.48M417.08 171.76H300.31M300.31 171.76V37.96M417.08 171.76h10.79M431.35 253v94.68M427.16 253v100.44M427.16 353.44h180M607.04 347.68h.12M607.16 37.96H300.31M607.16 155.32v98.28M427.87 214.36v19.8M529.04 253.6h42.84M532.63 243.52h27.72M607.16 253.6h-35.28v7.92h-43.09v-7.92h.49-51.85v-10.08h55.2v-8.040000000000001h27.72v8.04h46.81M431.35 347.68H601.4M433.39 253h.36v94.68M601.04 253.6v93.6M607.16 253.6v99.84M601.04 171.28v72.24M454.75 253v5.76h-21v-2.04h21-2.04V253M89.58 157.03h126.01M28.16 328.59v7.21M204.23 328.59v7.21M58.45 241.58H38.92M215.59 196.69h-11.36M204.23 227.94h11.36M117.58 159.37h1.44M119.62 210.15h-2.04M119.62 221.99v-11.84M117.58 210.15v9.79M119.02 159.37l-.06 50.78M117.58 159.37v50.78M204.23 159.37h-85.21M215.59 285.86h-11.36M172.98 253.48v-8.78M204.23 328.41h11.36M130.38 244.7h42.6-23.31M204.23 249.09v-21.15M204.23 157.03v96.45M89.58 181.49v-24.46M95.77 219.94v-7.51M93.78 214.42v7.57" class="cls-4"/><path d="M89.64 214.42v-1.99" class="cls-10"/><path d="M95.77 212.43h-6.13M93.78 214.42h-4.14M69.09 208.77v-1.44M69.09 214.42h-2.83M60.37 213.82h-1.98" class="cls-4"/><path d="M58.39 215.08h1.26M60.37 238.99h-1.98" class="cls-10"/><path d="M69.09 208.77v5.65M66.26 208.77v5.65M60.37 213.82v-5.05M58.39 213.82v-5.05M96.01 161.36v26.32M27.62 208.77v-27.28M38.08 187.2v-5.71M94.02 185.75H42.35h8.53M42.35 187.74l53.66-.06M93.78 253.6v-8.9M75.46 287.25v2.88M75.46 287.25H58.39M75.46 288.69H58.39M54.12 284.42V253.6M84.41 346.92h12.5M28.16 288.69v63.87M58.39 288.69H28.16M54.12 284.42H23.9M28.16 352.56h56.25M58.39 253.6H27.62M75.46 290.13H30.15" class="cls-4"/><path d="M58.39 238.99v5.71" class="cls-10"/><path d="M96.91 352.56h107.32M94.02 159.37h23.56M117.58 161.36H94.02M117.58 219.94H95.77M93.78 221.99h25.84M215.59 362.84l-11.36-1.2M96.91 356.83H23.9M204.23 356.83H96.91M84.41 356.83v-9.91M96.91 346.92v9.91M215.59 196.69v-39.66M215.59 285.86v-57.92M215.59 362.84v-34.43M204.23 285.86v-32.38" class="cls-4"/><path d="M204.23 328.59v-42.73" class="cls-10"/><path d="M204.23 361.64v-33.05M204.23 352.56v4.27M204.23 349.74H96.91M84.41 349.74H28.16M30.15 288.69v61.05M201.35 162.2v187.54M204.23 162.2h-85.21M23.9 284.42v72.41M94.02 185.75v-26.38" class="cls-4"/><path d="M196.97 244.7h3.94M191.05 244.7H195M185.14 244.7h3.94M179.23 244.7h3.94M172.98 244.7h4.27M196.97 253.48h3.94M191.05 253.48H195M185.14 253.48h3.94M179.23 253.48h3.94M172.98 253.48h4.27M90.48 253.6h3.3M85.07 253.6h3.6M79.66 253.6h3.61M74.25 253.6h3.61M68.84 253.6h3.61M63.44 253.6h3.6M60.37 253.6h1.26M90.48 244.7h3.3M85.07 244.7h3.6M79.66 244.7h3.61M74.25 244.7h3.61M68.84 244.7h3.61M63.44 244.7h3.6M60.37 244.7h1.26M215.59 227.94v-31.25M215.59 328.83v-42.55" class="cls-10"/><path d="M208.44 227.94v-31.25h-7.36V228zM200.91 285.86h7.52v42.54h-7.52z" class="cls-5"/><path d="M477.43 253h-1.5" class="cls-10"/><path d="M473.12 253h-15.46" class="cls-12"/><path d="M456.25 253h-1.5M454.75 244.12h1.5" class="cls-10"/><path d="M459.07 244.12h15.46" class="cls-12"/><path d="M475.93 244.12h1.5M209.04 322.04V326M209.04 288.27v3.96M209.16 288.27v3.96M208.44 285.86h1.44v1.38h-1.44zM209.88 294.76h-1.44M209.88 293.26h-1.44M209.88 292.23h-1.44M209.88 288.27h-1.44M209.16 294.76v10.81M209.88 308.7h-1.44" class="cls-10"/><path d="M208.44 285.86h1.44v42.54h-1.44zM209.88 307.14h-1.44M209.88 305.57h-1.44M209.04 294.76v10.81M209.04 199.81v10.82M209.16 199.81v10.82M209.88 199.81h-1.44M209.88 210.63h-1.44M209.88 319.51h-1.44M209.88 321.08h-1.44M208.44 196.69h1.44v1.44h-1.44zM209.04 214v10.81M209.16 214v10.81M209.88 322.04h-1.44M209.88 326h-1.44M209.88 212.31h-1.44M209.88 214h-1.44M209.88 224.81h-1.44M208.44 226.49h1.44v1.44h-1.44z" class="cls-10"/><path d="M208.44 327.03h1.44v1.38h-1.44zM208.44 196.69h1.44v31.25h-1.44zM209.16 322.04V326M209.16 308.7v10.81M209.04 308.7v10.81" class="cls-10"/><path d="M115.78 168.75v17.84M106.46 215.41a1.05 1.05 0 1 0 2.1 0 1.05 1.05 0 0 0-2.1 0ZM98.59 205.22h18.99" class="cls-13"/><path d="m115.54 212.25-.12.72-.24.66-.37.73-.54.6-.6.6-.78.48-.9.48-.96.3-1.02.3-1.08.18-1.09.06h-1.14l-1.08-.12-1.02-.24-1.02-.3-.9-.42-.85-.48-.72-.54-.6-.6-.42-.66-.3-.67-.18-.72v-.72l.18-.72.3-.66.42-.66.6-.6.72-.54.85-.48.9-.42 1.02-.3 1.02-.24 1.08-.12h1.14l1.09.06 1.08.18 1.02.3.96.3.9.48.78.48.6.6.54.6.37.72.24.66zM97.87 186.59v-17.84M119.77 162.44a.57.57 0 0 0-.57.57M111.87 171.3c0 .71.58 1.29 1.29 1.29s1.29-.58 1.29-1.29-.58-1.29-1.29-1.29-1.29.58-1.29 1.29ZM119.26 163.04v15.92M119.8 179.5h27.28M147.08 162.44H119.8M96.91 187.62v-19.89M95.77 208.05l2.82-2.83M109.65 184.67l2.94-11.06M116.8 167.73v19.89M119.38 216.04h12.5l4.21-4.09V179.5h47.83v-17.3M136.09 179.5h47.83M52.74 197.5a.57.57 0 1 0 1.14 0 .57.57 0 0 0-1.14 0ZM54.3 202.7h-1.98M54.27 202.7c.48 0 .87-.39.87-.87M55.2 193.02v8.84M55.14 192.99a.87.87 0 0 0-.87-.87M52.32 192.18h1.98M52.29 192.12a.87.87 0 0 0-.87.87M51.48 201.86v-8.84M51.42 201.83c0 .48.39.87.87.87M64.31 201.44c2.21 0 4-1.79 4-4s-1.79-4-4-4" class="cls-13"/><path d="M64.31 202.7c2.9 0 5.26-2.35 5.26-5.26s-2.35-5.26-5.26-5.26M62.45 193.44c-2.21 0-4 1.79-4 4s1.79 4 4 4M54.6 202.76h9.74M62.48 201.44h1.86M64.34 192.24H54.6M62.48 193.5h1.86M95.77 212.43v-4.38M147.62 163.01a.57.57 0 0 0-.57-.57M108.09 215.83c-.14-.17-.38-.27-.64-.27s-.5.1-.64.27M146.3 177.64v-11.6M147.62 178.9v-15.86M133.77 165.44a.57.57 0 0 0-.57.57M131.58 167.76c0-1.11-.9-2.01-2.01-2.01M129.6 165.8h-6.61M133.2 177.61c0 .32.26.57.57.57M129.57 177.76c1.11 0 2.01-.9 2.01-2.01M134.1 171.96a1.05 1.05 0 1 0 2.1 0 1.05 1.05 0 0 0-2.1 0ZM122.99 177.76h6.61M133.2 177.64v-11.6M131.58 167.79v7.99M119.2 178.87c0 .32.26.57.57.57M121 167.79v7.99M120.94 175.75c0 1.11.9 2.01 2.01 2.01M122.96 165.74c-1.11 0-2.01.9-2.01 2.01M145.7 165.5h-11.9M133.8 178.18h11.9M146.24 166.01a.57.57 0 0 0-.57-.57M140.47 166.4v-2.76h-1.2v2.76" class="cls-13"/><path d="M139.27 164.3h-1.32v-.9h3.85v.9h-1.33M145.67 178.18c.32 0 .57-.26.57-.57M147.05 179.44c.32 0 .57-.26.57-.57M139.2 166.37c.14.17.38.27.64.27s.5-.1.64-.27M108.14 217.96h1.27v.9h-3.85v-.9h1.32" class="cls-13"/><path d="M106.88 215.86v2.76h1.26v-2.76M97.87 168.75h17.91M115.78 186.59H97.87M96.91 167.73h19.89M116.8 187.62H96.91M111.51 173.01l-11.66 11.66M99.85 174.88l11.06-2.95M454.75 253v-8.88M89.82 212.25v2.33" class="cls-13"/><path d="M145.37 322.32H122.8M121.78 344.22h23.59M145.37 349.28v-26.96M145.37 349.28v-26.96M118.42 325.02v16.51M125.15 325.02v16.51M122.8 322.32c-.56 0-1.01.45-1.01 1.01M125.15 325.02c0-.56-.45-1.01-1.01-1.01M124.14 324.01h-4.71M121.78 323.33v.68M119.43 324.01c-.56 0-1.01.45-1.01 1.01M121.78 348.27c0 .56.45 1.01 1.01 1.01M119.43 342.54h4.71M118.42 341.53c0 .56.45 1.01 1.01 1.01M124.14 342.54c.56 0 1.01-.45 1.01-1.01M121.78 342.54v5.73M145.37 349.28v-26.96M145.37 349.28v-26.96M165.59 325.02v16.51M172.33 325.02v16.51M145.37 322.32h22.58M168.96 323.33c0-.56-.45-1.01-1.01-1.01M166.6 324.01c-.56 0-1.01.45-1.01 1.01M168.96 323.33v.68M172.33 325.02c0-.56-.45-1.01-1.01-1.01M166.6 324.01h4.72M168.96 344.22h-23.59M167.95 349.28c.56 0 1.01-.45 1.01-1.01M165.59 341.53c0 .56.45 1.01 1.01 1.01M171.32 342.54c.56 0 1.01-.45 1.01-1.01M171.32 342.54h-4.72M168.96 342.54v5.73M87.5 309.17h6.66v37.39H87.5z" class="cls-14"/><path d="m69.21 235.63-1.15.54-1.38.48-3.48.78M58.39 215.08v-1.26h1.26M60.37 213.82v1.26h-.72l-1.14.54M58.39 238.99v-1.26M60.37 237.73v1.26M60.37 237.73h-1.98M59.65 237.73l3.55-.3M68.06 236.17l-9.55-20.55M59.65 215.08l9.56 20.55M86.27 221.99l.6-1.2M86.86 220.77c.82-2.02 1.29-4.17 1.38-6.35M88.25 212.43v1.33M88.25 213.76v.66M70.47 212.43v1.33l.6-1.15M70.47 213.76v.66M70.47 212.43h-1.38v1.33M69.09 214.42h1.38M70.47 213.76l15.8 8.23M86.87 220.79l-15.8-8.18M88.25 212.43h1.39M89.64 214.33h-1.4M29.25 210.93v-1.32M27.92 209.61h1.33" class="cls-10"/><path d="M27.92 208.29h1.33" class="cls-4"/><path d="M29.25 208.29v1.32M27.92 209.61v-1.32M29.25 209.61h23.97v1.32M53.22 210.93H29.25" class="cls-10"/><path d="m43.37 229.02 2.82-2.47 2.46-2.82 1.99-3.24 1.44-3.43.84-3.67.3-3.78M40.12 231l3.25-1.98" class="cls-10"/><path d="M29.25 234.91h-1.33" class="cls-4"/><path d="m29.25 233.59 3.78-.31M27.92 233.59h1.33v1.32" class="cls-10"/><path d="M27.92 234.91v-1.32" class="cls-4"/><path d="m36.7 232.38 3.42-1.38M33.03 233.28l3.67-.9" class="cls-10"/><path d="M27.62 208.77h4.39" class="cls-4"/><text class="cls-17" transform="rotate(-90 428.58 -17.66)"><tspan x="0" y="0">Faitage</tspan></text><text class="cls-17" transform="rotate(-90 420.42 -25.82)"><tspan x="0" y="0">ht#2.75m</tspan></text><text class="cls-17" transform="rotate(-90 465.18 -52.7)"><tspan x="0" y="0">ht#1.80m</tspan></text><text class="cls-17" transform="rotate(-90 396.72 15.76)"><tspan x="0" y="0">ht#1.80m</tspan></text><text class="cls-17" transform="rotate(-90 493.62 -81.14)"><tspan x="0" y="0">ht#0.80m</tspan></text><text class="cls-18" transform="rotate(-90 366.84 45.64)"><tspan x="0" y="0">ht#0.80m</tspan></text><path d="M519.07 412.72v-2" class="cls-10"/><path d="M519.07 406.71V15.69" class="cls-2"/><path d="M519.07 13.68v-2M577.39 412.72v-2" class="cls-10"/><path d="M577.39 406.71V15.69" class="cls-2"/><path d="M577.39 13.68v-2M448.64 412.72v-2" class="cls-10"/><path d="M448.64 406.71V15.69" class="cls-2"/><path d="M448.64 13.68v-2M383.59 412.72v-2" class="cls-10"/><path d="M383.59 406.71V15.69" class="cls-2"/><path d="M383.59 13.68v-2M323.83 412.72v-2" class="cls-10"/><path d="M323.83 406.71V15.69" class="cls-2"/><path d="M323.83 13.68v-2" class="cls-10"/><text class="cls-17" transform="translate(443.64 263.92)"><tspan x="0" y="0">Surface</tspan></text><text class="cls-17" transform="translate(462.44 263.92)"><tspan x="0" y="0">ht&gt;1.8</tspan></text><text class="cls-17" transform="translate(477.8 263.92)"><tspan x="0" y="0">#6.5m</tspan></text><text style="letter-spacing:0;font-family:ArialMT,Arial;fill:#666;font-size:4.45px" transform="matrix(.58 0 0 .58 490.17 262.44)"><tspan x="0" y="0">2</tspan></text><text class="cls-17" transform="translate(443.64 268.48)"><tspan x="0" y="0">Surface</tspan></text><text class="cls-17" transform="translate(462.44 268.48)"><tspan x="0" y="0">ht&gt;0.8</tspan></text><text class="cls-17" transform="translate(477.8 268.48)"><tspan x="0" y="0">#13m</tspan></text><text class="cls-17" transform="matrix(.58 0 0 .58 488.93 267)"><tspan x="0" y="0">2</tspan></text><text class="cls-17" transform="translate(443.64 273.04)"><tspan x="0" y="0">Surface</tspan></text><text class="cls-17" transform="translate(462.44 273.04)"><tspan x="0" y="0">plancher</tspan></text><text class="cls-17" transform="translate(481.88 273.04)"><tspan x="0" y="0">#17m</tspan></text><text class="cls-17" transform="matrix(.58 0 0 .58 493.01 271.56)"><tspan x="0" y="0">2</tspan></text><text class="cls-17" transform="translate(387.12 151.6)"><tspan x="0" y="0">Surface</tspan></text><text class="cls-17" transform="translate(405.92 151.6)"><tspan x="0" y="0">ht&gt;1.8</tspan></text><text class="cls-17" transform="translate(421.28 151.6)"><tspan x="0" y="0">#20m</tspan></text><text class="cls-17" transform="matrix(.58 0 0 .58 432.41 150.12)"><tspan x="0" y="0">2</tspan></text><text class="cls-17" transform="translate(387.12 156.28)"><tspan x="0" y="0">Surface</tspan></text><text class="cls-17" transform="translate(405.92 156.28)"><tspan x="0" y="0">ht&gt;0.8</tspan></text><text class="cls-17" transform="translate(421.28 156.28)"><tspan x="0" y="0">#38m</tspan></text><text class="cls-17" transform="matrix(.58 0 0 .58 432.41 154.8)"><tspan x="0" y="0">2</tspan></text><text class="cls-17" transform="translate(387.12 160.84)"><tspan x="0" y="0">Surface</tspan></text><text class="cls-17" transform="translate(405.92 160.84)"><tspan x="0" y="0">plancher</tspan></text><text class="cls-17" transform="translate(425.36 160.84)"><tspan x="0" y="0">#44m</tspan></text><text class="cls-17" transform="matrix(.58 0 0 .58 436.49 159.36)"><tspan x="0" y="0">2</tspan></text><text class="cls-17" transform="translate(489.84 239.44)"><tspan x="0" y="0">#15m</tspan></text><text class="cls-17" transform="matrix(.58 0 0 .58 500.97 237.96)"><tspan x="0" y="0">2</tspan></text><text class="cls-17" transform="translate(471.4 239.44)"><tspan x="0" y="0">plancher</tspan></text><text class="cls-17" transform="translate(453.6 239.44)"><tspan x="0" y="0">Surface</tspan></text><text class="cls-17" transform="translate(485.76 234.88)"><tspan x="0" y="0">#12m</tspan></text><text class="cls-17" transform="matrix(.58 0 0 .58 496.89 233.4)"><tspan x="0" y="0">2</tspan></text><text class="cls-17" transform="translate(471.4 234.88)"><tspan x="0" y="0">ht&gt;0.8</tspan></text><text class="cls-17" transform="translate(453.6 234.88)"><tspan x="0" y="0">Surface</tspan></text><text class="cls-17" transform="translate(485.76 230.2)"><tspan x="0" y="0">#6m</tspan></text><text class="cls-17" transform="matrix(.58 0 0 .58 494.41 228.72)"><tspan x="0" y="0">2</tspan></text><text class="cls-17" transform="translate(471.4 230.2)"><tspan x="0" y="0">ht&gt;1.8</tspan></text><text class="cls-17" transform="translate(453.6 230.2)"><tspan x="0" y="0">Surface</tspan></text><path d="M383.59 11.92v-.24M477.43 244.12V253M577.39 11.92v-.24M448.64 11.92v-.24M323.83 11.92v-.24M519.07 11.92v-.24" class="cls-3"/><path d="M119.02 162.2v47.76h.79l-.03 12.27-26.24-.36.1-7.29h-3.82v-2.33h5.67v7.69h21.94v-58.32M42.35 207.21h26.59v7.21h-2.68v-5.54h-5.65v4.94h-2.28v-5.05H42.44" class="cls-8"/><path d="m42.44 208.77-.09-21.03h53.78v-26.12h21.3v.58h83.92v34.49h14.24v-39.66H89.58v24.46H27.62v27.28h14.82M201.35 228h14.24v57.87h-14.24zM27.62 234.43h11.36v7.15h19.47v-2.59h2.19v48.02h14.82v3.12H30.15v59.4h54.26v-2.61h12.5v2.82h104v-21.33h14.68v34.43l-11.36-1.2v-4.81H23.9v-72.41h30.22V253.6h-26.5zM93.78 244.7h79.2v8.77h-79.2zM130.08 236.47h26.74v8.11h-26.74zM300.31 37.96v133.8h127.56v72.36h-1.41v109.99h180.69V37.96zm300.73 205.56h-40.68v-8.04h-27.72v8.04h-55.2v10.08h51.36v7.92h43.08v-7.92h29.16v93.6H433.76v-88.44h21v-14.64h-16.2v-72.84h162.48zm0-80.16H307.16V43.48h293.88z" class="cls-8"/><path d="m130.92 255.16 5.95 5.29M139.39 255.16l6.01 5.29M147.98 255.16l5.95 5.29M156.88 255.16l5.95 5.29M149.43 237.97l5.95 5.29M140.83 237.97l5.95 5.29M132.36 237.97l5.95 5.29M156.88 255.16h5.95v5.29h-5.95zM139.39 255.16h6.01v5.29h-6.01zM147.98 255.16h5.95v5.29h-5.95zM128.7 261.83v-8.23M128.7 253.6l37.19-.12M130.92 255.16h5.95v5.29h-5.95zM165.89 253.48h7.09M156.82 236.59v8.11M149.43 237.97h5.95v5.29h-5.95zM130.08 236.59v8.11M132.36 237.97h5.95v5.29h-5.95zM140.83 237.97h5.95v5.29h-5.95zM130.38 244.7H94.44M128.7 253.6H93.78M93.78 244.7h36.6" class="cls-10"/><path d="M130.92 255.01h5.95v5.29h-5.95zM139.42 255.01h5.95v5.29h-5.95zM147.98 255.01h5.95v5.29h-5.95zM132.36 238h5.95v5.29h-5.95zM140.86 238h5.95v5.29h-5.95zM149.43 238h5.95v5.29h-5.95zM156.94 255.01h5.95v5.29h-5.95zM136.87 255.01l-5.95 5.29M145.4 255.01l-5.95 5.29M153.93 255.01l-5.95 5.29M163.03 255.01l-5.95 5.29M155.38 238l-5.95 5.29M146.84 238l-5.95 5.29M138.43 238l-5.95 5.29" class="cls-5"/><path d="m533.77 254.88 5.95 5.28M542.24 254.88l6.01 5.28M550.83 254.88l5.95 5.28M559.73 254.88l5.95 5.28M552.28 236.98l5.94 5.29M543.68 236.98l5.95 5.29M535.21 236.98l5.95 5.29M559.73 254.88h5.95v5.29h-5.95zM542.24 254.88h6.01v5.29h-6.01zM550.83 254.88h5.95v5.29h-5.95zM533.77 254.88h5.95v5.29h-5.95zM552.28 236.98h5.95v5.29h-5.95zM535.21 236.98h5.95v5.29h-5.95zM543.68 236.98h5.95v5.29h-5.95z" class="cls-10"/><path d="M533.77 254.73h5.95v5.29h-5.95zM542.27 254.73h5.95v5.29h-5.95zM550.83 254.73h5.95v5.29h-5.95zM535.21 237.01h5.95v5.29h-5.95zM543.71 237.01h5.95v5.29h-5.95zM552.28 237.01h5.95v5.29h-5.95zM559.79 254.73h5.95v5.29h-5.95zM539.72 254.73l-5.95 5.28M548.25 254.73l-5.95 5.28M556.78 254.73l-5.95 5.28M565.88 254.73l-5.95 5.28M558.22 237.01l-5.94 5.29M549.69 237.01l-5.95 5.29M541.28 237.01l-5.95 5.29" class="cls-5"/><path d="M532.63 243.52h27.72" style="stroke:#000;stroke-miterlimit:10;fill:#fff"/><path d="M529.04 253.6h42.84" style="stroke:#000;stroke-miterlimit:10;fill:none"/><path d="M438.55 166.72v-3.36h168.61v3.36-3.36 3.36zM438.55 171.28h162.49" class="cls-4"/><text class="cls-18" transform="translate(507.92 170.32)"><tspan x="0" y="0">Charpente</tspan></text><text class="cls-18" transform="translate(530.64 170.32)"><tspan x="0" y="0">apparente</tspan></text></g><g id="Calque_16" data-name="Calque 16"><path d="M42.35 167.54v-25.23M201.35 168.26v-25.95M42.35 142.31h72.7M128.95 142.31h72.4M43.39 141.09l-2.27 2.27.18.18 2.27-2.27-.18-.18M200.3 143.54l2.27-2.27-.18-.18-2.27 2.27.18.18M31.09 350.11H15.41M15.41 350.11v-78.59M14.18 349.07l2.27 2.26.18-.18-2.26-2.27-.19.19M576.34 253.99h55.02M576.34 347.23h55.02M631.36 253.99v41.07M631.36 306.23v41M632.59 255.03l-2.27-2.26-.18.18 2.26 2.27.19-.19M630.14 346.19l2.26 2.27.19-.19-2.27-2.26-.18.18M576.34 171.67h55.02M576.34 243.91h55.02M631.36 171.67v30.57M631.36 213.25v30.66M632.59 172.71l-2.27-2.26-.18.18 2.26 2.27.19-.19M630.14 242.87l2.26 2.27.19-.19-2.27-2.26-.18.18M576.34 43.87h55.02M576.34 163.75h55.02M631.36 43.87v54.32M631.36 109.36v54.39M632.59 44.91l-2.27-2.26-.18.18 2.26 2.27.19-.19M630.14 162.71l2.26 2.27.19-.19-2.27-2.26-.18.18M211.99 286.25h15.67M211.99 328.8h15.67M227.66 286.25v15.96M227.66 313.14v15.66M228.89 287.3l-2.27-2.27-.18.18 2.26 2.27.19-.18M226.44 327.75l2.26 2.27.19-.18-2.27-2.27-.18.18M211.99 228.33h15.67M211.99 286.25h15.67M227.66 228.33v23.41M227.66 262.98v23.27M228.89 229.37l-2.27-2.27-.18.18 2.26 2.27.19-.18" class="cls-15"/><path d="m226.44 285.21 2.26 2.27.19-.18-2.27-2.27-.18.18M211.99 197.08h15.67M211.99 228.33h15.67M227.66 197.08v10.31M227.66 218.32v10.01M228.89 198.12l-2.27-2.27-.18.19 2.26 2.26.19-.18M226.44 227.28l2.26 2.27.19-.18-2.27-2.27-.18.18M211.99 162.59h15.67M211.99 197.08h15.67M227.66 159.18v15.34M227.66 185.38v15.1M226.44 161.54l2.26 2.27.19-.18-2.27-2.27-.18.18" class="cls-15"/><path d="m228.89 198.12-2.27-2.27-.18.19 2.26 2.26.19-.18M204.47 347.91v25.23M30.39 347.91v25.23M204.47 373.14h-81.42M111.74 373.14H30.39M203.43 374.36l2.27-2.26-.18-.18-2.27 2.26.18.18M31.43 371.92l-2.26 2.26.18.18 2.27-2.26-.19-.18M31.09 161.62H15.41M15.41 253.6v-91.98M16.63 162.66l-2.26-2.26-.19.18 2.27 2.26.18-.18M600.98 315.23v55.02M433.7 315.23v55.02M600.98 370.25h-78.02M511.72 370.25H433.7M599.93 371.47l2.27-2.27-.18-.18-2.27 2.27.18.18M434.74 369.02l-2.27 2.27.18.18 2.27-2.27-.18-.18M211.99 328.8h15.67M211.99 350.13h15.67M227.66 328.8v5.04M227.66 344.92v5.21M228.89 329.84l-2.27-2.27-.18.18 2.26 2.27.19-.18M226.44 349.09l2.26 2.26.19-.18-2.27-2.26-.18.18M307.1 64.32V9.3M600.98 64.32V9.3M307.1 9.3h139.96M461.1 9.3h139.88M308.14 8.08l-2.27 2.27.18.18 2.27-2.27-.18-.18M599.93 10.53l2.27-2.27-.18-.18-2.27 2.27.18.18" class="cls-15"/></g><g id="Calque_17" data-name="Calque 17"><text class="cls-19" transform="matrix(.99 0 0 1 116.3 144.44)"><tspan x="0" y="0">5.60</tspan></text><text class="cls-19" transform="matrix(0 -.99 1 0 17.54 267.66)"><tspan x="0" y="0">6.60</tspan></text><text class="cls-19" transform="matrix(0 -.99 1 0 633.48 306.49)"><tspan x="0" y="0">3.29</tspan></text><text class="cls-19" transform="matrix(0 -.99 1 0 633.48 213.5)"><tspan x="0" y="0">2.55</tspan></text><text class="cls-19" transform="matrix(0 -.99 1 0 633.48 109.55)"><tspan x="0" y="0">4.23</tspan></text><text class="cls-19" transform="matrix(0 -.99 1 0 229.76 313.63)"><tspan x="0" y="0">1.50</tspan></text><text class="cls-19" transform="matrix(0 -.99 1 0 229.79 263.24)"><tspan x="0" y="0">2.04</tspan></text><text class="cls-19" transform="matrix(0 -.99 1 0 229.76 218.81)"><tspan x="0" y="0">1.10</tspan></text><text class="cls-19" transform="matrix(0 -.99 1 0 229.83 185.87)"><tspan x="0" y="0">1.22</tspan></text><text class="cls-19" transform="matrix(.99 0 0 1 111.56 375.17)"><tspan x="0" y="0">6.14</tspan></text><text class="cls-19" transform="matrix(.99 0 0 1 511.53 372.35)"><tspan x="0" y="0">5.90</tspan></text><text class="cls-19" transform="matrix(0 -.99 1 0 229.76 345.11)"><tspan x="0" y="0">0.75</tspan></text><text class="cls-19" transform="matrix(.99 0 0 1 446.57 11.43)"><tspan x="0" y="0">10.37</tspan></text></g></svg>