<svg xmlns="http://www.w3.org/2000/svg" viewBox="0 0 645.71 435.34"><defs><pattern id="Lignes_diagonales" width="72" height="72" x="0" y="0" data-name="Lignes diagonales" patternTransform="matrix(.6 0 0 .6 -3075.7 -2851.24)" patternUnits="userSpaceOnUse"><path d="M0 0h72v72H0z" style="stroke-width:0;fill:none"/><path d="m64.52 82.52 18-18M64.52 88.52l24-24M64.52 94.52l30-30M64.52 100.52l36-36M64.52 106.52l42-42M64.52 112.52l48-48M64.52 118.52l54-54M64.52 124.52l60-60M64.52 130.52l66-66M64.52 136.52l72-72M64.52 142.52l78-78M64.52 148.51l84-83.99M70.52 148.51l78-77.99M-7.48 82.52l18-18M-7.48 88.52l24-24M-7.48 94.52l30-30M-7.48 100.52l36-36M-7.48 106.52l42-42M-7.48 112.52l48-48M-7.48 118.52l54-54M-7.48 124.52l60-60M-7.48 130.52l66-66M-7.48 136.52l72-72M-7.48 142.52l78-78M-7.48 148.51l84-83.99M-1.48 148.51l78-77.99M-79.48 148.51l84-83.99M-73.48 148.51l78-77.99M64.52 10.52l18-18M64.52 16.52l24-24M64.52 22.52l30-30M64.52 28.52l36-36M64.52 34.52l42-42M64.52 40.52l48-48M64.52 46.52l54-54M64.52 52.52l60-60M64.52 58.52l66-66M64.52 64.52l72-72M64.52 70.52l78-78M64.52 76.51l84-83.99M70.52 76.51l78-77.99M-7.48 10.52l18-18M-7.48 16.52l24-24M-7.48 22.52l30-30M-7.48 28.52l36-36M-7.48 34.52l42-42M-7.48 40.52l48-48M-7.48 46.52l54-54M-7.48 52.52l60-60M-7.48 58.52l66-66M-7.48 64.52l72-72M-7.48 70.52l78-78M-7.48 76.51l84-83.99M-1.48 76.51l78-77.99M4.52 76.51l72-71.99M10.52 76.51l66-65.99M16.52 76.51l60-59.99M22.52 76.51l54-53.99M28.52 76.51l48-47.99M34.52 76.51l42-41.99M40.52 76.51l36-35.99M46.52 76.51l30-29.99M52.52 76.51l24-23.99M58.52 76.51l18-17.99M64.52 76.51l12-11.99M-79.48 76.51l84-83.99M-73.48 76.51l78-77.99M-67.48 76.51l72-71.99M-61.48 76.51l66-65.99M-55.48 76.51l60-59.99M-49.48 76.51l54-53.99M-43.48 76.51l48-47.99M-37.48 76.51l42-41.99M-31.48 76.51l36-35.99M-25.48 76.51l30-29.99M-19.48 76.51l24-23.99M-13.48 76.51l18-17.99M-7.48 76.51l12-11.99M64.52 4.51l84-83.99M70.52 4.51l78-77.99M-7.48 4.51l84-83.99M-1.48 4.51l78-77.99M4.52 4.51l72-71.99M10.52 4.51l66-65.99M16.52 4.51l60-59.99M22.52 4.51l54-53.99M28.52 4.51l48-47.99M34.52 4.51l42-41.99M40.52 4.51l36-35.99M46.52 4.51l30-29.99M52.52 4.51l24-23.99M58.52 4.51l18-17.99M64.52 4.51l12-11.99M-79.48 4.51l84-83.99M-73.48 4.51l78-77.99M-67.48 4.51l72-71.99M-61.48 4.51l66-65.99M-55.48 4.51l60-59.99M-49.48 4.51l54-53.99M-43.48 4.51l48-47.99M-37.48 4.51l42-41.99M-31.48 4.51l36-35.99M-25.48 4.51l30-29.99M-19.48 4.51l24-23.99M-13.48 4.51l18-17.99M-7.48 4.51l12-11.99" class="cls-18"/></pattern><style>.cls-2,.cls-4{stroke-width:0}.cls-5{fill:#333}.cls-7{stroke:#7d26cd}.cls-10,.cls-12,.cls-13,.cls-14,.cls-15,.cls-16,.cls-18,.cls-19,.cls-7,.cls-8,.cls-9{fill:none}.cls-10,.cls-12,.cls-13,.cls-14,.cls-7,.cls-8{stroke-linecap:round}.cls-10,.cls-12,.cls-13,.cls-14,.cls-18,.cls-7,.cls-8{stroke-linejoin:round}.cls-14,.cls-7,.cls-8{stroke-width:0}.cls-2{fill:url(#Lignes_diagonales);opacity:.5}.cls-20,.cls-21{font-size:4.45px}.cls-14,.cls-15,.cls-16,.cls-22,.cls-23,.cls-24,.cls-25,.cls-26,.cls-8,.cls-9{stroke:#000}.cls-9{stroke-width:.75px}.cls-15,.cls-16,.cls-19,.cls-22,.cls-23,.cls-24,.cls-25,.cls-26,.cls-27,.cls-9{stroke-miterlimit:10}.cls-28{letter-spacing:-.02em}.cls-22,.cls-23,.cls-24,.cls-27{fill:#fff}.cls-12,.cls-16,.cls-22,.cls-24,.cls-26{stroke-width:.25px}.cls-10{stroke-dasharray:0 0 1 1}.cls-10,.cls-12,.cls-19,.cls-27{stroke:#333}.cls-10,.cls-13,.cls-19,.cls-27{stroke-width:.15px}.cls-23,.cls-25{stroke-width:.5px}.cls-24{stroke-dasharray:0 0 2 3}.cls-5{font-family:Avenir-Medium,Avenir;font-size:6.23px;font-weight:500}.cls-25{fill:#999}.cls-21,.cls-26,.cls-31{fill:#666}.cls-21,.cls-31{font-family:ArialMT,Arial}.cls-4{fill:#ccc;opacity:.4}.cls-34{fill:#000;font-family:AvenirNext-UltraLight,&quot;Avenir Next&quot;;font-size:6px;font-weight:100}.cls-37{letter-spacing:-.06em}.cls-13{stroke:#999}.cls-14{stroke-dasharray:0 0 5.67 5.67}.cls-39{font-size:3px}.cls-26{stroke-dasharray:0 0 4 4}.cls-18{stroke:#1d1d1b;stroke-width:.3px}</style></defs><path id="Calque_13" d="M299.23 38.6v133.8h127.56v72.36h-1.41v109.99h180.69V38.6zm300.72 205.56h-40.68v-8.04h-27.72v8.04h-55.2v10.08h51.36v7.92h43.08v-7.92h29.16v93.6H432.67V259.4h21v-14.64h-16.2v-72.84h162.48zM438.17 164H306.08V44.12h293.88V164z" class="cls-25" data-name="Calque 13"/><g id="PROJET"><path d="M442.95 44.04h16.24v95.04h-16.24zM306.07 44.04h52.44v119.88h-52.44zM358.51 79.1h53.75v45.35h-53.75zM378.71 79.1v45.35" class="cls-27"/><path d="M360.4 99.46c-.04-.94.14-2.79.21-4.31s.03-2.71.04-3.66c0-.95.05-1.67.12-2.23s.14-.96.13-1.37-.1-.84-.23-1.21-.28-.69-.39-.97-.17-.52-.22-.8-.06-.58-.06-.8.01-.38.09-.47.22-.13.35-.13c.14 0 .27.01.5.06s.56.13.82.21.45.15.7.24.56.19.84.27.53.14.9.13c.36 0 .83-.07 1.65-.05.82.03 1.98.15 2.71.24.73.08 1.02.13 1.27.16s.47.04.67-.01.38-.17.78-.24c.4-.08 1.01-.12 1.36-.2.36-.09.45-.22.63-.36.17-.14.42-.29.59-.47s.25-.38.42-.5.43-.17.56-.1c.13.06.14.24.15.41.02.17.04.35.01.75-.03.41-.11 1.04-.18 1.56-.08.52-.15.92-.22 1.28-.06.36-.12.69-.19 1.22s-.16 1.28-.21 1.83-.04.91-.02 1.44c.03.54.09 1.25.22 1.84.13.58.33 1.04.36 1.48.04.44-.09.88-.16 1.41s-.1 1.15-.11 1.6-.01.73-.02 1.22c0 .48-.01 1.17-.17 1.47s-.47.2-.68.09-.32-.25-.48-.44c-.16-.2-.38-.45-.63-.61-.25-.15-.52-.2-.81-.22-.29-.03-.6-.04-.92-.05s-.67-.04-.97-.06c-.3-.01-.57-.02-.81-.05-.24-.04-.47-.1-.73-.1s-.57.05-.82 0c-.25-.04-.44-.19-.77-.16s-.8.23-1.18.42c-.38.18-.67.35-.99.38s-.65-.07-.96-.14-.58-.11-.82-.05-.46.23-.67.39-.42.34-.6.45-.33.18-.53.19-.48 0-.52-.95Z" class="cls-27"/><path d="M362.21 90.61c.89-1.02 1.62-.81 2.1-.59M373.52 95.03c-.51.83-1.02.43-1.83.54M370.94 86.11c.41.21.65.42.88.54s.46.13.89-.04M362.21 111.65c.89-1.02 1.62-.81 2.1-.59M373.52 116.06c-.51.83-1.02.43-1.83.54M370.94 107.14c.41.21.65.42.88.54s.46.13.89-.04" class="cls-27"/><path d="M360.78 120.41c.15-.94.71-2.79.97-4.31s.22-2.71.04-3.66-.51-1.67-.64-2.23-.05-.96-.06-1.37c0-.41-.1-.84-.23-1.21s-.28-.69-.39-.97-.17-.52-.22-.8c-.04-.27-.06-.58-.06-.8s.01-.37.09-.47c.08-.09.22-.13.35-.13.14 0 .27.01.5.06s.56.13.82.21.45.15.7.24.56.19.84.27.53.14.9.38c.36.24.83.66 1.65.68s1.98-.34 2.71-.5 1.02-.11 1.27-.09c.25.03.47.04.67-.02.2-.05.38-.17.78-.24.4-.08 1.01-.12 1.36-.2.35-.09.45-.22.63-.36.17-.14.42-.29.59-.47s.25-.38.42-.5.43-.17.56-.1c.13.06.14.24.15.41s.04.35.01.75-.11 1.04-.18 1.56c-.08.52-.15.92-.36 1.28s-.55.69-.71 1.22c-.15.53-.12 1.28-.02 1.83s.26.91.38 1.45c.11.54.17 1.25.3 1.83s.33 1.04.37 1.48-.09.88-.16 1.41-.1 1.15-.11 1.6-.01.73-.02 1.22c0 .48-.02 1.17-.17 1.47-.16.3-.47.2-.68.09s-.32-.25-.48-.44c-.16-.2-.38-.45-.63-.71s-.52-.5-.81-.61-.6-.1-.92-.11-.67-.03-.97-.04c-.3-.02-.57-.02-.81.03s-.47.16-.73.25c-.27.08-.57.14-.82.09-.25-.04-.44-.19-.77-.16s-.8.23-1.18.32-.67.06-.99 0-.65-.16-.96-.23-.58-.11-.82.05-.46.51-.67.77-.42.43-.6.55c-.18.11-.33.18-.53.19s-.48 0-.33-.95ZM372.18 79.1v5.27M372.18 99.26v6.09M372.18 119.8v4.65M463.47 44.04h16.24v95.04h-16.24zM460.9 290.38h-28.23M470.05 325.09h6.01v22.68h-6.01zM464.04 325.09h6.01v22.68h-6.01zM458.02 325.09h6.01v22.68h-6.01zM459.1 44.36l.12 127.48h4.25V44.04h-4.37M179.88 214.86h-7.11v12.75h7.11M179.88 199.51h-7.11v12.75h7.11M179.88 196.71h19.84v31.18h-19.84zM439.69 120.9v12.91l-1.94-2.93M493.99 222.2h4.57v21.88h-4.57zM518.45 244.08h-19.89M498.56 224.19h19.89M503.84 238.79l11.66-11.66M515.5 236.93l-11.05 2.94M499.58 243.06v-17.85M498.56 244.08v-19.89M505.71 227.13l-2.95 11.06M503.48 240.5c0-.71-.58-1.29-1.29-1.29s-1.29.58-1.29 1.29.58 1.29 1.29 1.29 1.29-.58 1.29-1.29Z" class="cls-27"/><path d="M496.15 232.93a.57.57 0 0 0-.57-.57M439.69 66.84V53.93l-1.94 2.94M482.88 120.9v12.91l1.94-2.93M482.88 66.84V53.93l1.94 2.94M507.35 173.87a.57.57 0 1 0 0 1.14.57.57 0 0 0 0-1.14ZM502.15 175.44v-1.99M502.15 175.41c0 .48.39.87.87.87M511.83 176.34h-8.84M511.86 176.28c.48 0 .87-.39.87-.87M512.67 173.45v1.99M512.73 173.42a.87.87 0 0 0-.87-.87M502.99 172.61h8.84M503.02 172.55a.87.87 0 0 0-.87.87M511.35 183.61v1.86M512.61 185.47v-9.73M503.41 183.61v1.86M502.09 175.74v9.73M511.41 183.58c0-2.21-1.79-4-4-4s-4 1.79-4 4M502.15 185.44c0 2.9 2.35 5.26 5.26 5.26s5.26-2.35 5.26-5.26" class="cls-27"/><path d="M503.41 185.44c0 2.21 1.79 4 4 4s4-1.79 4-4M551.25 174.35c-.56 10.53-9.27 18.79-19.81 18.79M551.25 173.29h-19.81v1.06h19.81M551.25 174.35v-1.06" class="cls-27"/><path d="M498.56 224.19h33v19.89h-33z" class="cls-19"/><path d="M530.47 225.21v17.85M499.58 225.21h30.89M530.47 243.06h-30.89M490.03 189.38h3.96v21.46h-3.96zM487.99 209.5v-12.91l-1.94 2.93M531.55 193.14h4.57v42.9h-4.57z" class="cls-27"/><path d="M518.05 204.65h13.51v19.54h-13.51z" class="cls-27"/><path d="m524.49 206.41.72.12.66.24.72.36.6.54.6.6.48.79.48.9.3.96.3 1.02.18 1.08.06 1.08v1.15l-.12 1.08-.24 1.02-.3 1.02-.42.9-.48.84-.54.72-.6.6-.66.43-.66.3-.72.18h-.72l-.72-.18-.67-.3-.66-.43-.6-.6-.54-.72-.48-.84-.42-.9-.3-1.02-.24-1.02-.12-1.08v-1.15l.06-1.08.18-1.08.3-1.02.3-.96.48-.9.48-.79.6-.6.6-.54.72-.36.67-.24z" class="cls-27"/><circle cx="527.64" cy="214.43" r="1.05" class="cls-27"/><path d="M528.09 215.06h2.77v-1.26h-2.77" class="cls-27"/><path d="M530.2 213.8v-1.26h.9v3.85h-.9v-1.33M528.06 213.86c-.17.14-.27.38-.27.64s.1.5.27.64M518.22 273.91c.73-1.67 1.2-3.37 1.44-5.18M506.94 268.73c-.12 1.02-.16 2.02-.12 3.05M508.71 273.04c2.22 1.23 4.78 1.71 7.29 1.36M507.44 275.32a14.32 14.32 0 0 0 8.91 1.67M516.36 276.99c.71-.1 1.21-.76 1.11-1.47a1.3 1.3 0 0 0-1.47-1.11" class="cls-27"/><path d="M517.21 274.91c.5-.22.8-.52 1.02-1.02M508.71 273.04c-.63-.35-1.42-.12-1.77.5-.35.63-.12 1.42.5 1.77" class="cls-27"/><path d="M506.82 271.75c.02.55.19.94.58 1.32M500.48 254.16h27.24v14.57h-27.24z" class="cls-27"/><path d="m505.615 263.3 2.666-6.038 4.354 1.922-2.665 6.038zM547.52 44.04h52.44v119.88h-52.44zM458.02 290.38h6.01v22.68h-6.01zM464.04 290.38h6.01v22.68h-6.01zM470.05 290.38h6.01v22.68h-6.01zM458.02 313.06l-10.26-22.68M458.02 313.06l-25.35-21.43M458.02 325.09l-10.09 22.31M458.02 325.09l-25.35 21.42M432.67 313.06h25.35v6.01h-25.35zM432.67 319.07h25.35v6.01h-25.35zM458.02 313.06l-25.35-8.82M458.02 325.09l-25.35 8.82M58.14 290.38H29.92M493.76 44.04h53.75v25.51h-53.75zM535.74 50.91v-6.87M535.74 69.55v-4.33M529.09 69.18V43.67" class="cls-27"/><path d="M534.81 63.89c-.41-.21-.65-.42-.88-.54-.23-.11-.46-.13-.89.04M532.23 54.96c.51-.83 1.02-.43 1.83-.54M543.55 59.38c-.89 1.02-1.62.81-2.1.59" class="cls-27"/><path d="M545.36 50.54c.04.94-.14 2.79-.21 4.31s-.03 2.71-.04 3.66c0 .95-.05 1.67-.12 2.23s-.14.96-.13 1.37.1.84.23 1.21.28.69.39.97.17.52.22.8c.04.27.06.58.06.8 0 .23-.01.37-.09.47-.08.09-.22.13-.35.13-.14 0-.27-.01-.5-.06s-.56-.13-.82-.21-.45-.15-.7-.24-.56-.19-.84-.27-.53-.14-.9-.13c-.36 0-.83.07-1.65.05-.82-.03-1.98-.15-2.71-.24-.73-.08-1.02-.13-1.27-.16s-.47-.04-.67.02c-.2.05-.38.17-.78.24-.4.08-1.01.12-1.36.2-.36.09-.45.22-.63.36-.17.14-.42.29-.59.47s-.25.38-.42.5-.43.17-.56.1c-.13-.06-.14-.24-.15-.41s-.04-.35-.01-.75c.03-.41.11-1.04.18-1.56.08-.52.15-.92.22-1.28.06-.36.12-.69.19-1.22s.16-1.28.21-1.83.04-.91.01-1.44c-.03-.54-.09-1.25-.22-1.84-.13-.58-.33-1.04-.36-1.48-.04-.44.09-.88.16-1.41s.1-1.15.11-1.6.01-.73.02-1.22c0-.48.01-1.17.17-1.47s.47-.2.68-.09.32.25.48.44c.16.2.38.45.63.61.25.15.52.2.81.22.29.03.6.04.92.05.33.02.67.04.97.06s.57.02.81.05.47.1.73.1.57-.05.82 0 .44.19.77.16.8-.23 1.18-.42c.38-.18.67-.35.99-.38s.65.07.96.14.58.11.82.05.46-.23.67-.39c.21-.17.42-.34.6-.45s.33-.18.53-.19c.21-.02.48 0 .52.95ZM326.55 44.04v119.88M568.56 44.04v119.88M446.81 87.6l9.1 2.69M446.81 97.55c.01-.13-.21-.21-.29-.24q-.195-.06-.39-.09c-.195-.03-.26-.02-.4 0-.08 0-.32.04-.34.16-.02.13.21.21.29.24q.195.06.39.09c.195.03.26.02.4 0 .08 0 .32-.04.34-.16ZM446.81 101.37c.01-.12-.23-.2-.3-.22-.13-.04-.25-.06-.39-.07s-.26-.02-.39 0c-.08 0-.33.04-.34.16s.23.2.3.22c.13.04.25.06.39.08s.26.01.39 0c.08 0 .33-.04.34-.16ZM446.81 99.14c.02-.11-.23-.21-.29-.23-.12-.05-.25-.08-.38-.11s-.26-.04-.39-.05c-.07 0-.34-.01-.36.1s.23.21.29.23a2.601 2.601 0 0 0 .77.16c.07 0 .34.01.36-.1ZM457.32 98.76c.01-.13-.21-.21-.29-.24q-.195-.06-.39-.09c-.195-.03-.26-.02-.4 0-.08 0-.32.04-.34.16s.21.21.29.24q.195.06.39.09c.195.03.26.02.4 0 .08 0 .32-.04.34-.16ZM457.32 102.38c.01-.12-.23-.2-.3-.22-.13-.04-.25-.06-.39-.07q-.195-.015-.39 0c-.08 0-.33.04-.34.16s.23.2.3.22c.13.04.25.06.39.07.13.01.26.02.39 0 .08 0 .33-.04.34-.16ZM457.32 101.31c.02-.11-.23-.21-.29-.23-.12-.05-.25-.08-.38-.11s-.26-.04-.39-.05c-.07 0-.34-.01-.36.1s.23.21.29.23a2.601 2.601 0 0 0 .77.16c.07 0 .34.01.36-.1ZM457.32 90.71c.04-.12-.2-.24-.27-.28-.12-.06-.25-.11-.38-.15s-.26-.07-.4-.08c-.08 0-.34-.03-.38.09s.2.24.27.28c.12.06.25.11.38.15s.26.07.4.08c.08 0 .34.03.37-.09ZM446.81 97.53l9.1 1.07M446.81 101.37l9.1.87M446.81 99.14l9.1 1.88M446.81 51.55c.01-.1-.26-.16-.32-.18-.12-.03-.25-.05-.37-.07-.13-.01-.25-.02-.38-.02-.05 0-.34 0-.35.1s.26.16.32.18c.12.03.25.05.37.07.13.01.25.02.38.02.05 0 .34 0 .35-.1ZM446.81 53.19c.02-.09-.25-.2-.3-.22-.12-.05-.24-.09-.37-.12s-.25-.06-.38-.07c-.05 0-.34-.04-.37.05-.02.09.25.2.3.22.12.05.24.09.37.12s.25.06.38.07c.05 0 .34.04.37-.05ZM446.81 54.31c.02-.08-.26-.2-.3-.22-.12-.05-.24-.09-.37-.13a2.3 2.3 0 0 0-.38-.09c-.05 0-.35-.06-.37.02s.26.2.3.22c.12.05.24.09.37.13s.25.07.38.09c.05 0 .35.06.37-.02ZM446.81 55.97c.03-.09-.24-.23-.29-.25-.12-.06-.24-.11-.37-.16s-.25-.08-.38-.11c-.05-.01-.35-.08-.38 0-.03.09.24.23.29.25.12.06.24.11.37.16s.25.08.38.11c.05.01.35.08.38 0ZM446.81 50.44c0-.08-.3-.09-.35-.09h-.37c-.12 0-.25.02-.37.05-.04 0-.34.06-.33.14 0 .08.3.09.35.09h.37c.12 0 .25-.02.37-.05.04 0 .34-.06.33-.14ZM446.81 57.76c.03-.08-.26-.21-.3-.23a3 3 0 0 0-.36-.15c-.12-.04-.25-.08-.38-.11-.04-.01-.35-.08-.38 0s.26.21.3.23q.18.09.36.15c.12.04.25.08.38.11.04 0 .35.08.38 0ZM446.81 69.42c0-.13-.24-.17-.33-.18-.13-.02-.26-.02-.4-.02-.13 0-.26.03-.39.07-.08.02-.31.09-.3.22 0 .13.24.17.33.18.13.02.26.02.4.02.13 0 .26-.03.39-.07.08-.02.31-.09.3-.22ZM446.81 66.88c0-.13-.23-.18-.32-.2-.13-.03-.26-.04-.39-.04s-.26.01-.39.04c-.08.02-.31.07-.31.2s.23.18.32.2c.13.03.26.04.39.04s.26-.01.39-.04c.08-.02.32-.07.32-.2ZM446.81 64.83c-.01-.13-.26-.16-.34-.17a3 3 0 0 0-.4 0c-.13.01-.26.04-.39.08-.08.03-.31.11-.29.23.01.13.26.16.34.17.13.01.26.01.4 0 .13-.01.26-.04.39-.08.08-.03.31-.11.29-.23ZM457.32 55.87c.02-.09-.25-.2-.3-.22-.12-.05-.24-.09-.37-.12s-.25-.06-.38-.07c-.05 0-.34-.04-.37.05s.25.2.3.22c.12.05.24.09.37.12s.25.06.38.07c.05 0 .34.04.37-.05ZM457.32 52.74c.01-.1-.26-.16-.32-.18-.12-.03-.25-.05-.37-.07-.13-.01-.25-.02-.38-.02-.05 0-.34 0-.35.1s.26.16.32.18c.12.03.25.05.37.07.13.01.25.02.38.02.05 0 .34 0 .35-.1ZM457.32 49.72c0-.08-.3-.09-.35-.09h-.37c-.12 0-.25.02-.37.05-.04 0-.34.06-.33.14s.3.09.35.09h.37c.12 0 .25-.02.37-.05.04 0 .34-.06.33-.14ZM457.32 61.45c.03-.08-.26-.21-.3-.23a3 3 0 0 0-.36-.15c-.12-.04-.25-.08-.38-.11-.04 0-.35-.08-.38 0s.26.21.3.23q.18.09.36.15c.12.04.25.08.38.11.04.01.35.08.38 0ZM457.32 59.81c.03-.09-.24-.23-.29-.25-.12-.06-.24-.11-.37-.16s-.25-.08-.38-.11c-.05-.01-.35-.08-.38 0-.03.09.24.23.29.25.12.06.24.11.37.16s.25.08.38.11c.05.01.35.08.38 0ZM457.32 63.67c-.01-.12-.27-.14-.34-.14-.13-.01-.26 0-.39 0s-.26.04-.38.08c-.07.02-.32.1-.3.21.01.12.27.14.34.14.13.01.26 0 .39 0s.26-.04.38-.08c.07-.02.32-.1.3-.21ZM457.32 57.43c.02-.08-.26-.2-.3-.22-.12-.05-.24-.09-.37-.13s-.25-.07-.38-.09c-.05 0-.35-.06-.37.02s.26.2.3.22c.12.05.24.09.37.13.12.04.25.07.38.09.05 0 .35.06.37-.02ZM457.32 66.88c0-.12-.25-.17-.32-.18-.13-.03-.26-.04-.39-.04s-.26 0-.39.04c-.07.01-.32.06-.32.18s.25.17.32.18c.13.03.26.03.39.03s.26 0 .39-.03c.07-.01.32-.06.32-.18ZM457.32 68.77c0-.12-.26-.15-.33-.16-.13-.02-.26-.02-.39-.01-.13 0-.26.03-.39.06-.07.02-.32.08-.31.2 0 .12.26.15.33.16.13.02.26.02.39.01.13 0 .26-.03.39-.06.07-.02.32-.08.31-.2ZM455.91 60.96l-9.1-3.2M446.81 50.45l9.1-.63M455.91 57.01l-9.1-2.7M446.81 51.54l9.1 1.04M455.91 55.5l-9.1-2.31M455.91 59.29l-9.1-3.32M455.91 66.88h-9.1M455.91 63.83l-9.1 1M455.91 68.86l-9.1.56M446.81 75.37c.02-.13-.21-.22-.29-.25-.13-.05-.26-.08-.39-.1s-.26-.03-.4-.01c-.08 0-.32.03-.34.16s.21.22.29.25c.13.05.25.08.39.1.13.02.26.03.4.01.08 0 .32-.03.34-.16ZM446.81 86.28c.01-.11-.24-.18-.31-.2-.12-.04-.25-.06-.38-.07s-.26-.02-.39-.01c-.07 0-.33.02-.34.13s.24.18.31.2c.12.04.25.06.38.07s.26.02.39.01c.07 0 .33-.02.34-.13ZM446.81 87.6c.04-.12-.2-.24-.27-.28-.12-.06-.25-.11-.38-.15s-.26-.07-.4-.08c-.08 0-.34-.03-.37.09-.04.12.2.24.26.28.12.06.25.11.38.15s.26.07.4.08c.08 0 .34.03.38-.09ZM446.81 81.75c-.02-.11-.28-.12-.35-.12q-.195 0-.39.03c-.13.02-.26.05-.38.1-.07.02-.31.11-.29.23.02.11.28.12.35.12q.195 0 .39-.03c.13-.02.26-.05.38-.1.07-.02.31-.11.29-.23ZM457.32 79.94c-.02-.11-.28-.12-.35-.12q-.195 0-.39.03c-.195.03-.26.05-.38.1-.07.02-.31.11-.29.23.02.11.28.12.35.12q.195 0 .39-.03c.195-.03.26-.05.38-.1.07-.02.31-.11.29-.23ZM457.32 76.82c.02-.11-.24-.19-.3-.21-.12-.04-.25-.07-.38-.08-.13-.02-.26-.03-.39-.02-.07 0-.33 0-.35.12s.24.19.3.21c.12.04.25.07.38.08.13.02.26.03.39.02.07 0 .33 0 .35-.12ZM457.32 75.59c.02-.12-.21-.22-.28-.25-.12-.05-.25-.09-.38-.11s-.26-.04-.4-.04c-.08 0-.33 0-.35.13-.02.12.21.22.28.25.12.05.25.09.38.11s.26.04.4.04c.08 0 .33 0 .35-.13ZM457.32 87.42c.01-.11-.24-.18-.31-.2-.12-.04-.25-.06-.38-.07s-.26-.02-.39-.01c-.07 0-.33.02-.34.13s.24.18.31.2c.12.04.25.06.38.07s.26.02.39.01c.07 0 .33-.02.34-.13ZM455.91 76.63l-9.1-1.26M455.91 75.33l-9.1-1.7M446.81 86.26l9.1 1.01M446.81 81.75l9.1-1.56M446.81 73.63c.02-.13-.2-.23-.28-.26-.13-.05-.25-.09-.39-.11-.13-.02-.27-.04-.4-.03-.08 0-.33.02-.35.14-.02.13.2.23.28.26.13.05.25.09.39.11.13.02.27.04.4.03.08 0 .33-.02.35-.14ZM446.81 47.31c0-.1-.28-.13-.33-.14-.13-.02-.25-.02-.38-.02s-.25.01-.38.03c-.06 0-.33.05-.33.15s.28.13.33.14c.13.02.25.02.38.02s.25-.01.38-.03c.06-.01.33-.05.33-.15ZM457.32 47.09c0-.1-.28-.13-.33-.14-.13-.02-.25-.02-.38-.02s-.25.01-.38.03c-.06 0-.33.05-.33.15s.28.13.33.14c.13.02.25.02.38.02s.25-.01.38-.03c.06 0 .33-.05.33-.15ZM446.81 47.31l9.1-.19M451.36 45.88v87.05M446.81 106.14c.01-.1-.26-.16-.32-.18-.12-.03-.25-.05-.37-.07-.13-.01-.25-.02-.38-.02-.05 0-.34 0-.35.1s.26.16.32.18c.12.03.25.05.37.07.13.01.25.02.38.02.05 0 .34 0 .35-.1ZM446.81 110.56c.03-.09-.24-.23-.29-.25-.12-.06-.24-.11-.37-.16s-.25-.08-.38-.11c-.05-.01-.35-.08-.38 0-.03.09.24.23.29.25.12.06.24.11.37.16s.25.08.38.11c.05.01.35.08.38 0ZM446.81 112.35c.03-.08-.26-.21-.3-.23a3 3 0 0 0-.36-.15c-.12-.04-.25-.08-.38-.11-.04 0-.35-.08-.38 0s.26.21.3.23q.18.09.36.15c.12.04.25.08.38.11.04 0 .35.08.38 0ZM457.32 107.33c.01-.1-.26-.16-.32-.18-.12-.03-.25-.05-.37-.07-.13-.01-.25-.02-.38-.02-.05 0-.34 0-.35.1s.26.16.32.18c.12.03.25.05.37.07.13.01.25.02.38.02.05 0 .34 0 .35-.1ZM457.32 116.04c.03-.08-.26-.21-.3-.23a3 3 0 0 0-.36-.15c-.12-.04-.25-.08-.38-.11-.04-.01-.35-.08-.38 0s.26.21.3.23q.18.09.36.15c.12.04.25.08.38.11.04.01.35.08.38 0ZM457.32 114.4c.03-.09-.24-.23-.29-.25-.12-.06-.24-.11-.37-.16s-.25-.08-.38-.11c-.05-.01-.35-.08-.38 0s.24.23.29.25c.12.06.24.11.37.16s.25.08.38.11c.05.01.35.08.38 0ZM455.91 115.54l-9.1-3.19M446.81 106.13l9.1 1.04M455.91 113.88l-9.1-3.32M446.81 122.23c.01-.1-.26-.16-.32-.18-.12-.03-.25-.05-.37-.07-.13-.01-.25-.02-.38-.02-.05 0-.34 0-.35.1s.26.16.32.18c.12.03.25.05.37.07.13.01.25.02.38.02.05 0 .34 0 .35-.1ZM446.81 123.86c.02-.09-.25-.2-.3-.22-.12-.05-.24-.09-.37-.12s-.25-.06-.38-.07c-.05 0-.34-.04-.37.05-.02.09.25.2.3.22.12.05.24.09.37.12s.25.06.38.07c.05 0 .34.04.37-.05ZM446.81 126.65c.03-.09-.24-.23-.29-.25-.12-.06-.24-.11-.37-.16s-.25-.08-.38-.11c-.05-.01-.35-.08-.38 0-.03.09.24.23.29.25.12.06.24.11.37.16s.25.08.38.11c.05.01.35.08.38 0ZM446.81 128.44c.03-.08-.26-.21-.3-.23q-.18-.09-.36-.15a4 4 0 0 0-.38-.11c-.04-.01-.35-.08-.38 0s.26.21.3.23q.18.09.36.15c.12.04.25.08.38.11.04.01.35.08.38 0ZM457.32 126.54c.02-.09-.25-.2-.3-.22-.12-.05-.24-.09-.37-.12s-.25-.06-.38-.07c-.05 0-.34-.04-.37.05s.25.2.3.22c.12.05.24.09.37.12s.25.06.38.07c.05 0 .34.04.37-.05ZM457.32 123.42c.01-.1-.26-.16-.32-.18-.12-.03-.25-.05-.37-.07-.13-.01-.25-.02-.38-.02-.05 0-.34 0-.35.1s.26.16.32.18c.12.03.25.05.37.07.13.01.25.02.38.02.05 0 .34 0 .35-.1ZM457.32 132.13c.03-.08-.26-.21-.3-.23a3 3 0 0 0-.36-.15c-.12-.04-.25-.08-.38-.11-.04-.01-.35-.08-.38 0s.26.21.3.23q.18.09.36.15c.12.04.25.08.38.11.04 0 .35.08.38 0ZM457.32 130.49c.03-.09-.24-.23-.29-.25-.12-.06-.24-.11-.37-.16s-.25-.08-.38-.11c-.05-.01-.35-.08-.38 0s.24.23.29.25c.12.06.24.11.37.16s.25.08.38.11c.05.01.35.08.38 0ZM455.91 131.63l-9.1-3.19M446.81 122.22l9.1 1.04M455.91 126.18l-9.1-2.32M455.91 129.97l-9.1-3.32M475.77 87.6l-9.1 2.69M477.19 97.37h-.01M475.77 97.55c-.02-.13.21-.21.29-.24q.195-.06.39-.09c.195-.03.26-.02.4 0 .08 0 .32.04.34.16.01.13-.21.21-.29.24q-.195.06-.39.09c-.195.03-.26.02-.4 0-.08 0-.32-.04-.34-.16ZM475.77 101.37c-.01-.12.23-.2.3-.22.13-.04.25-.06.39-.07s.26-.02.39 0c.08 0 .33.04.34.16s-.23.2-.3.22c-.13.04-.25.06-.39.08s-.26.01-.39 0c-.08 0-.33-.04-.34-.16ZM475.77 99.14c-.02-.11.23-.21.29-.23.12-.05.25-.08.38-.11s.26-.04.39-.05c.07 0 .34-.01.36.1s-.23.21-.29.23c-.12.05-.25.08-.38.11s-.26.04-.39.05c-.07 0-.34.01-.36-.1ZM465.25 98.76c-.01-.13.21-.21.29-.24q.195-.06.39-.09c.195-.03.26-.02.4 0 .08 0 .32.04.34.16s-.21.21-.29.24q-.195.06-.39.09c-.13.02-.26.02-.4 0-.08 0-.32-.04-.34-.16ZM465.25 102.38c-.01-.12.23-.2.3-.22.13-.04.25-.06.39-.07q.195-.015.39 0c.08 0 .33.04.34.16s-.23.2-.3.22c-.13.04-.25.06-.39.07-.13.01-.26.02-.39 0-.08 0-.33-.04-.34-.16ZM465.25 101.31c-.02-.11.23-.21.29-.23.12-.05.25-.08.38-.11s.26-.04.39-.05c.07 0 .34-.01.36.1s-.23.21-.29.23c-.12.05-.25.08-.38.11s-.26.04-.39.05c-.07 0-.34.01-.36-.1ZM465.25 90.71c-.04-.12.2-.24.27-.28.12-.06.25-.11.38-.15s.26-.07.4-.08c.08 0 .34-.03.37.09s-.2.24-.27.28c-.12.06-.25.11-.38.15s-.26.07-.4.08c-.08 0-.34.03-.38-.09ZM475.77 97.53l-9.1 1.07M475.77 101.37l-9.1.87M475.77 99.14l-9.1 1.88M475.77 51.55c-.01-.1.26-.16.32-.18.12-.03.25-.05.37-.07.13-.01.25-.02.38-.02.05 0 .34 0 .35.1s-.26.16-.32.18c-.12.03-.25.05-.37.07-.13.01-.25.02-.38.02-.05 0-.34 0-.35-.1ZM475.77 53.19c-.02-.09.25-.2.3-.22.12-.05.24-.09.37-.12s.25-.06.38-.07c.05 0 .34-.04.37.05.02.09-.25.2-.3.22-.12.05-.24.09-.37.12s-.25.06-.38.07c-.05 0-.34.04-.37-.05ZM475.77 54.31c-.02-.08.26-.2.3-.22.12-.05.24-.09.37-.13.12-.04.25-.07.38-.09.05 0 .35-.06.37.02s-.26.2-.3.22c-.12.05-.24.09-.37.13-.12.04-.25.07-.38.09-.05 0-.35.06-.37-.02ZM475.77 55.97c-.03-.09.24-.23.29-.25.12-.06.24-.11.37-.16s.25-.08.38-.11c.05-.01.35-.08.38 0 .03.09-.24.23-.29.25-.12.06-.24.11-.37.16s-.25.08-.38.11c-.05.01-.35.08-.38 0ZM477.19 51.38h-.01M475.77 50.44c0-.08.3-.09.35-.09h.37c.12 0 .25.02.37.05.04 0 .34.06.33.14 0 .08-.3.09-.35.09h-.37c-.12 0-.25-.02-.37-.05-.04 0-.34-.06-.33-.14ZM477.19 50.55h-.01M475.77 57.76c-.03-.08.26-.21.3-.23q.18-.09.36-.15c.12-.04.25-.08.38-.11.04-.01.35-.08.38 0s-.26.21-.3.23q-.18.09-.36.15c-.18.06-.25.08-.38.11-.04 0-.35.08-.38 0ZM475.77 69.42c0-.13.24-.17.33-.18.13-.02.26-.02.4-.02.13 0 .26.03.39.07.08.02.31.09.3.22 0 .13-.24.17-.33.18-.13.02-.26.02-.4.02-.13 0-.26-.03-.39-.07-.08-.02-.31-.09-.3-.22ZM475.77 66.88c0-.13.23-.18.31-.2.13-.03.26-.04.39-.04s.26.01.39.04c.08.02.32.07.32.2s-.23.18-.32.2c-.13.03-.26.04-.39.04s-.26-.01-.39-.04c-.08-.02-.31-.07-.31-.2ZM475.77 64.83c.01-.13.26-.16.34-.17.13-.01.26-.01.4 0 .13.01.26.04.39.08.08.03.31.11.29.23-.01.13-.26.16-.34.17-.13.01-.26.01-.4 0-.13-.01-.26-.04-.39-.08-.08-.03-.31-.11-.29-.23ZM465.25 55.87c-.02-.09.25-.2.3-.22.12-.05.24-.09.37-.12s.25-.06.38-.07c.05 0 .34-.04.37.05s-.25.2-.3.22c-.12.05-.24.09-.37.12s-.25.06-.38.07c-.05 0-.34.04-.37-.05ZM465.25 52.74c-.01-.1.26-.16.32-.18.12-.03.25-.05.37-.07.13-.01.25-.02.38-.02.05 0 .34 0 .35.1s-.26.16-.32.18c-.12.03-.25.05-.37.07-.13.01-.25.02-.38.02-.06 0-.34 0-.35-.1ZM465.25 49.72c0-.08.3-.09.35-.09h.37c.12 0 .25.02.37.05.04 0 .34.06.33.14s-.3.09-.35.09h-.37c-.12 0-.25-.02-.37-.05-.04 0-.34-.06-.33-.14ZM465.25 61.45c-.03-.08.26-.21.3-.23q.18-.09.36-.15c.12-.04.25-.08.38-.11.04 0 .35-.08.38 0s-.26.21-.3.23q-.18.09-.36.15c-.12.04-.25.08-.38.11-.04.01-.35.08-.38 0ZM465.25 59.81c-.03-.09.24-.23.29-.25.12-.06.24-.11.37-.16s.25-.08.38-.11c.05-.01.35-.08.38 0 .03.09-.24.23-.29.25-.12.06-.24.11-.37.16s-.25.08-.38.11c-.05.01-.35.08-.38 0ZM465.25 63.67c.01-.12.27-.14.34-.14.13-.01.26 0 .39 0s.26.04.38.08c.07.02.32.1.3.21-.01.12-.27.14-.34.14-.13.01-.26 0-.39 0s-.26-.04-.38-.08c-.07-.02-.32-.1-.3-.21ZM465.25 57.43c-.02-.08.26-.2.3-.22.12-.05.24-.09.37-.13s.25-.07.38-.09c.05 0 .35-.06.37.02s-.26.2-.3.22c-.12.05-.24.09-.37.13-.12.04-.25.07-.38.09-.05 0-.35.06-.37-.02ZM465.25 66.88c0-.12.25-.17.32-.18.13-.03.26-.04.39-.04s.26 0 .39.04c.07.01.32.06.32.18s-.25.17-.32.18c-.13.03-.26.03-.39.03s-.26 0-.39-.03c-.07-.01-.32-.06-.32-.18ZM465.25 68.77c0-.12.26-.15.33-.16.13-.02.26-.02.39-.01s.26.03.38.06c.07.02.32.08.31.2 0 .12-.26.15-.33.16-.13.02-.26.02-.39.01s-.26-.03-.39-.06c-.07-.02-.32-.08-.31-.2ZM466.67 60.96l9.1-3.2M475.77 50.45l-9.1-.63M466.67 57.01l9.1-2.7M475.77 51.54l-9.1 1.04M466.67 55.5l9.1-2.31M466.67 59.29l9.1-3.32M466.67 66.88h9.1M466.67 63.83l9.1 1M466.67 68.86l9.1.56M475.77 75.37c-.02-.13.21-.22.29-.25.13-.05.25-.08.39-.1.13-.02.26-.03.4-.01.08 0 .33.03.34.16.02.13-.21.22-.29.25-.13.05-.25.08-.39.1-.13.02-.26.03-.4.01-.08 0-.33-.03-.34-.16ZM475.77 86.28c-.01-.11.24-.18.31-.2.12-.04.25-.06.38-.07s.26-.02.39-.01c.07 0 .33.02.34.13s-.24.18-.31.2c-.12.04-.25.06-.38.07s-.26.02-.39.01c-.07 0-.33-.02-.34-.13ZM475.77 87.6c-.04-.12.2-.24.26-.28.12-.06.25-.11.38-.15s.26-.07.4-.08c.08 0 .34-.03.38.09s-.2.24-.27.28c-.12.06-.25.11-.38.15s-.26.07-.4.08c-.08 0-.34.03-.37-.09ZM477.19 86.11h-.01M475.77 81.75c.02-.11.28-.12.35-.12q.195 0 .39.03c.13.02.26.05.38.1.07.02.31.11.29.23-.02.11-.28.12-.35.12q-.195 0-.39-.03c-.13-.02-.26-.05-.38-.1-.07-.02-.31-.11-.29-.23ZM465.25 79.94c.02-.11.28-.12.35-.12q.195 0 .39.03c.195.03.26.05.38.1.07.02.31.11.29.23-.02.11-.28.12-.35.12q-.195 0-.39-.03c-.13-.02-.26-.05-.38-.1-.07-.02-.31-.11-.29-.23ZM465.25 76.82c-.02-.11.24-.19.3-.21.12-.04.25-.07.38-.08s.26-.03.39-.02c.07 0 .33 0 .35.12s-.24.19-.3.21c-.12.04-.25.07-.38.08-.13.02-.26.03-.39.02-.07 0-.33 0-.35-.12ZM465.25 75.59c-.02-.12.21-.22.28-.25.12-.05.25-.09.38-.11s.26-.04.4-.04c.08 0 .33 0 .35.13.02.12-.21.22-.28.25-.12.05-.25.09-.38.11s-.26.04-.4.04c-.08 0-.33 0-.35-.13ZM465.25 87.42c-.01-.11.24-.18.31-.2.12-.04.25-.06.38-.07s.26-.02.39-.01c.07 0 .33.02.34.13s-.24.18-.31.2c-.12.04-.25.06-.38.07s-.26.02-.39.01c-.07 0-.33-.02-.34-.13ZM466.67 76.63l9.1-1.26M466.67 75.33l9.1-1.7M475.77 86.26l-9.1 1.01M475.77 81.75l-9.1-1.56M475.77 73.63c-.02-.13.2-.23.28-.26.13-.05.25-.09.39-.11.13-.02.27-.04.4-.03.08 0 .33.02.35.14.02.13-.2.23-.28.26-.13.05-.25.09-.39.11-.13.02-.27.04-.4.03-.08 0-.33-.02-.35-.14ZM475.77 47.31c0-.1.28-.13.33-.14.13-.02.25-.02.38-.02s.25.01.38.03c.06 0 .33.05.33.15s-.28.13-.33.14c-.13.02-.25.02-.38.02s-.25-.01-.38-.03c-.06-.01-.33-.05-.33-.15ZM477.19 47.34h-.01M465.25 47.09c0-.1.28-.13.33-.14.13-.02.25-.02.38-.02s.25.01.38.03c.06 0 .33.05.33.15s-.28.13-.33.14c-.13.02-.25.02-.38.02s-.25-.01-.38-.03c-.06 0-.33-.05-.33-.15ZM475.77 47.31l-9.1-.19M471.22 45.88v87.05M475.77 106.14c-.01-.1.26-.16.32-.18.12-.03.25-.05.37-.07.13-.01.25-.02.38-.02.05 0 .34 0 .35.1s-.26.16-.32.18c-.12.03-.25.05-.37.07-.13.01-.25.02-.38.02-.05 0-.34 0-.35-.1ZM475.77 110.56c-.03-.09.24-.23.29-.25.12-.06.24-.11.37-.16s.25-.08.38-.11c.05-.01.35-.08.38 0 .03.09-.24.23-.29.25-.12.06-.24.11-.37.16s-.25.08-.38.11c-.05.01-.35.08-.38 0ZM477.19 105.97h-.01M477.19 105.13h-.01M475.77 112.35c-.03-.08.26-.21.3-.23q.18-.09.36-.15c.12-.04.25-.08.38-.11.04 0 .35-.08.38 0s-.26.21-.3.23q-.18.09-.36.15c-.12.04-.25.08-.38.11-.04 0-.35.08-.38 0ZM465.25 107.33c-.01-.1.26-.16.32-.18.12-.03.25-.05.37-.07s.25-.02.38-.02c.05 0 .34 0 .35.1s-.26.16-.32.18c-.12.03-.25.05-.37.07-.13.01-.25.02-.38.02-.06 0-.34 0-.35-.1ZM465.25 116.04c-.03-.08.26-.21.3-.23q.18-.09.36-.15c.12-.04.25-.08.38-.11.04-.01.35-.08.38 0s-.26.21-.3.23q-.18.09-.36.15c-.12.04-.25.08-.38.11-.04.01-.35.08-.38 0ZM465.25 114.4c-.03-.09.24-.23.29-.25.12-.06.24-.11.37-.16s.25-.08.38-.11c.05-.01.35-.08.38 0 .03.09-.24.23-.29.25-.12.06-.24.11-.37.16s-.25.08-.38.11c-.05.01-.35.08-.38 0ZM466.67 115.54l9.1-3.19M475.77 106.13l-9.1 1.04M466.67 113.88l9.1-3.32M475.77 122.23c-.01-.1.26-.16.32-.18.12-.03.25-.05.37-.07.13-.01.25-.02.38-.02.05 0 .34 0 .35.1s-.26.16-.32.18c-.12.03-.25.05-.37.07-.13.01-.25.02-.38.02-.05 0-.34 0-.35-.1ZM475.77 123.86c-.02-.09.25-.2.3-.22.12-.05.24-.09.37-.12s.25-.06.38-.07c.05 0 .34-.04.37.05.02.09-.25.2-.3.22-.12.05-.24.09-.37.12s-.25.06-.38.07c-.05 0-.34.04-.37-.05ZM475.77 126.65c-.03-.09.24-.23.29-.25.12-.06.24-.11.37-.16s.25-.08.38-.11c.05-.01.35-.08.38 0 .03.09-.24.23-.29.25-.12.06-.24.11-.37.16s-.25.08-.38.11c-.05.01-.35.08-.38 0ZM477.19 122.06h-.01M477.19 121.22h-.01M475.77 128.44c-.03-.08.26-.21.3-.23q.18-.09.36-.15c.18-.06.25-.08.38-.11.04-.01.35-.08.38 0s-.26.21-.3.23q-.18.09-.36.15c-.12.04-.25.08-.38.11-.04.01-.35.08-.38 0ZM465.25 126.54c-.02-.09.25-.2.3-.22.12-.05.24-.09.37-.12s.25-.06.38-.07c.05 0 .34-.04.37.05s-.25.2-.3.22c-.12.05-.24.09-.37.12s-.25.06-.38.07c-.05 0-.34.04-.37-.05ZM465.25 123.42c-.01-.1.26-.16.32-.18.12-.03.25-.05.37-.07s.25-.02.38-.02c.05 0 .34 0 .35.1s-.26.16-.32.18c-.12.03-.25.05-.37.07-.13.01-.25.02-.38.02-.06 0-.34 0-.35-.1ZM465.25 132.13c-.03-.08.26-.21.3-.23q.18-.09.36-.15c.12-.04.25-.08.38-.11.04-.01.35-.08.38 0s-.26.21-.3.23q-.18.09-.36.15c-.12.04-.25.08-.38.11-.04 0-.35.08-.38 0ZM465.25 130.49c-.03-.09.24-.23.29-.25.12-.06.24-.11.37-.16s.25-.08.38-.11c.05-.01.35-.08.38 0 .03.09-.24.23-.29.25-.12.06-.24.11-.37.16s-.25.08-.38.11c-.05.01-.35.08-.38 0ZM466.67 131.63l9.1-3.19M475.77 122.22l-9.1 1.04M466.67 126.18l9.1-2.32M466.67 129.97l9.1-3.32M476 157.93h12.91l-2.93-1.95M449.8 157.93h-12.91l2.93-1.95" class="cls-27"/><path d="M55.55 326.51h6.19v23.36h-6.19zM29.29 314.12h26.26v6.19H29.29zM29.29 320.32h26.26v6.19H29.29zM55.55 290.77h6.19v23.36h-6.19zM61.75 290.77h6.19v23.36h-6.19zM67.94 290.77h6.19v23.36h-6.19zM55.55 326.51l-26.52 9.23M55.55 326.51l-26.26 23.06M55.55 326.51l-10.62 23.06M55.55 314.12l-26.52-9.88M55.55 314.12l-26.26-23.65M55.55 314.12l-10.8-23.35M67.94 326.51h6.19v23.36h-6.19zM61.75 326.51h6.19v23.36h-6.19z" class="cls-19"/><path d="M74.13 302.74H42.15v35.45h30.9" class="cls-19"/><path d="m72.84 338.94 1.29-.75-1.29-.75z" style="stroke-width:0;fill:#333"/><circle cx="73.35" cy="302.73" r=".78" class="cls-19"/><text style="fill:#333;font-family:ArialMT,Arial;font-size:6.23px" transform="rotate(-90 194.58 110.75)"><tspan x="0" y="0">80</tspan></text><path d="M75.09 291.07h2.53v22.84h-2.53M78.54 289.97l-1.83 2.36M78.54 312.56l-1.83 2.36" class="cls-19"/></g><g id="MUR_PROPRES" data-name="MUR PROPRES"><path d="M442.98 171.92h155.28" class="cls-24"/><path d="M598.26 164H438.17" class="cls-23"/><path d="M116.95 159.36h1.44M118.99 210.14h-2.04M118.99 221.98v-11.84M116.95 210.14v9.8M118.39 159.36l-.06 50.78M116.95 159.36v50.78M95.14 219.94v-7.52M93.15 214.41v7.57M89.01 214.41v-1.99M95.14 212.42h-6.13M93.15 214.41h-4.14M68.46 208.76v-1.44M68.46 214.41h-2.83M59.74 213.81h-1.98M57.76 215.07h1.26M59.74 238.98h-1.98M59.02 238.98h-1.26M68.46 208.76v5.65M65.63 208.76v5.65M59.74 213.81v-5.05M57.76 213.81v-5.05M116.95 219.94H95.14M93.15 221.98h25.84M119.14 162.43a.57.57 0 0 0-.57.57M118.57 178.86c0 .32.26.57.57.57M118.63 163.03v15.92M89.19 212.24v2.33M68.58 235.62l-1.15.54-1.38.48-3.48.78M57.76 215.07v-1.26h1.26M59.74 213.81v1.26h-.72l-1.14.54M57.76 238.98v-1.26M59.74 237.72v1.26M59.74 237.72h-1.98M59.02 237.72l3.55-.3M67.43 236.16l-9.55-20.55M59.02 215.07l9.56 20.55M85.64 221.98l.6-1.2M86.23 220.76c.82-2.02 1.29-4.17 1.38-6.35M87.62 212.42v1.33M87.62 213.75v.66M69.84 212.42v1.33l.6-1.15M69.84 213.75v.66M69.84 212.42h-1.38v1.33M68.46 214.41h1.38M69.84 213.75l15.8 8.23M86.24 220.78l-15.8-8.18M87.62 212.42h1.39M89.01 214.32h-1.4M28.62 210.92v-1.32M27.29 209.6h1.33M28.62 208.28v1.32M27.29 209.6v-1.32M28.62 209.6h23.97v1.32M52.59 210.92H28.62" class="cls-25"/><path d="m42.74 229.01 2.82-2.47 2.46-2.82 1.99-3.24 1.44-3.43.84-3.66.3-3.79M39.49 230.99l3.25-1.98M28.62 234.9h-1.33M28.62 233.58l3.78-.3M27.29 233.58h1.33v1.32M27.29 234.9v-1.32M36.07 232.37l3.42-1.38M32.4 233.28l3.67-.91M118.39 162.19v47.76h.79l-.03 12.27-26.24-.36.1-7.29h-3.82v-2.33h5.67v7.7h21.94v-58.33" class="cls-25"/><path d="M41.72 207.2h26.59v7.21h-2.68v-5.54h-5.65v4.94H57.7v-5.05H41.81" class="cls-25"/><path d="m41.36 208.81-.1-21.03h53.79v-26.11h21.3v.57h83.91v34.5h14.25v-39.66H88.49v24.45H26.54v27.28h14.82M200.26 228.04h14.24v57.87h-14.24zM26.54 234.47H37.9v7.15h19.47v-2.58h2.19v48.01h14.81v3.13H29.06v59.4h54.27v-2.62h12.5v2.83h104v-21.34h14.68v34.44l-11.36-1.21v-4.8H22.82v-72.41h30.22v-30.83h-26.5z" class="cls-25"/><path d="M172.48 253.31v-8.77M129.88 244.54h42.6-23.31M93.28 253.43v-8.89" class="cls-9"/><path d="M196.47 244.54h3.94M190.55 244.54h3.95M184.64 244.54h3.94M178.72 244.54h3.95M172.48 244.54h4.27M196.47 253.31h3.94M190.55 253.31h3.95M184.64 253.31h3.94M178.72 253.31h3.95M172.48 253.31h4.27M89.98 253.43h3.3M84.57 253.43h3.6M79.16 253.43h3.61M73.75 253.43h3.61M68.34 253.43h3.61M62.94 253.43h3.6M59.87 253.43h1.26M89.98 244.54h3.3M84.57 244.54h3.6M79.16 244.54h3.61M73.75 244.54h3.61M68.34 244.54h3.61M62.94 244.54h3.6M59.87 244.54h1.26" class="cls-16"/><path d="M93.28 244.54h79.2v8.77h-79.2zM129.58 236.31h26.74v8.11h-26.74zM128.04 253.46h37.35v8.2h-37.35z" class="cls-25"/><path d="m130.42 254.99 5.95 5.29M138.89 254.99l6.01 5.29M147.48 254.99l5.95 5.29M156.38 254.99l5.95 5.29M148.93 237.81l5.94 5.28M140.33 237.81l5.95 5.28M131.86 237.81l5.95 5.28M156.38 254.99h5.95v5.29h-5.95zM165.39 253.31v8.35M138.89 254.99h6.01v5.29h-6.01zM147.48 254.99h5.95v5.29h-5.95zM128.19 261.66v-8.23M128.19 253.43l37.2-.12M130.42 254.99h5.95v5.29h-5.95zM165.39 253.31h7.09M156.32 236.42v8.12M148.93 237.81h5.95v5.29h-5.95zM129.58 236.42v8.12M131.86 237.81h5.95v5.29h-5.95zM140.33 237.81h5.95v5.29h-5.95zM129.88 244.54H93.94M128.19 253.43H93.28M93.28 244.54h36.6" class="cls-16"/><path d="M130.42 254.84h5.95v5.29h-5.95zM138.92 254.84h5.95v5.29h-5.95zM147.48 254.84h5.95v5.29h-5.95zM131.86 237.84h5.95v5.29h-5.95zM140.36 237.84h5.95v5.29h-5.95zM148.93 237.84h5.95v5.29h-5.95zM156.44 254.84h5.95v5.29h-5.95zM136.37 254.84l-5.95 5.29M144.9 254.84l-5.95 5.29M153.43 254.84l-5.95 5.29M162.53 254.84l-5.95 5.29M154.87 237.84l-5.94 5.28M146.34 237.84l-5.95 5.28M137.93 237.84l-5.95 5.28" class="cls-22"/><path d="M214.51 328.41v-42.54M200.26 328.41v-42.54M214.51 227.9v-31.25M200.26 227.9v-31.25" class="cls-16"/><path d="M438.17 164v-.44h47.47v8.64h-47.47V164" class="cls-24"/><path d="M598.26 171.92h1.69" class="cls-23"/><path d="m532.7 254.94 5.95 5.29M541.17 254.94l6.01 5.29M549.76 254.94l5.95 5.29M558.66 254.94l5.95 5.29M551.21 237.76l5.94 5.29M542.61 237.76l5.95 5.29M534.14 237.76l5.95 5.29M558.66 254.94h5.95v5.29h-5.95zM541.17 254.94h6.01v5.29h-6.01zM549.76 254.94h5.95v5.29h-5.95zM532.7 254.94h5.95v5.29h-5.95zM558.6 236.38v8.11M551.21 237.76h5.95v5.29h-5.95zM531.86 236.38v8.11M534.14 237.76h5.95v5.29h-5.95zM542.61 237.76h5.95v5.29h-5.95z" class="cls-16"/><path d="M532.7 254.79h5.95v5.29h-5.95zM541.2 254.79h5.95v5.29h-5.95zM549.76 254.79h5.95v5.29h-5.95zM534.14 237.79h5.95v5.29h-5.95zM542.64 237.79h5.95v5.29h-5.95zM551.21 237.79h5.95v5.29h-5.95zM558.72 254.79h5.95v5.29h-5.95zM538.65 254.79l-5.95 5.29M547.18 254.79l-5.95 5.29M555.71 254.79l-5.95 5.29M564.81 254.79l-5.95 5.29M557.15 237.79l-5.94 5.29M548.62 237.79l-5.95 5.29M540.21 237.79l-5.95 5.29" class="cls-22"/><path d="M531.55 244.16h28.16M527.71 254.24h43.08" class="cls-15"/><path d="M493.99 167.11h4.57v33.64h-4.57z" class="cls-25"/></g><g id="FENETRE"><path d="M209.1 325.97h-1.44M209.1 321.04h-1.44M209.1 319.48h-1.44M209.1 305.53h-1.44M209.1 307.1h-1.44M209.1 308.66h-1.44M209.1 288.23h-1.44M209.1 292.19h-1.44M209.1 293.22h-1.44M209.1 294.72h-1.44" class="cls-16"/><path d="M453.51 196.68h27.84v22.08h-27.84z" class="cls-10"/><path d="M454.95 198.12h24.96v19.2h-24.96zM375.36 118.44h24.96v19.32h-24.96z" class="cls-10"/><path d="M373.92 117h27.84v22.08h-27.84zM493.47 66.84h27.72v22.08h-27.72z" class="cls-10"/><path d="M494.91 68.16h24.96v19.32h-24.96zM493.47 117h27.72v22.08h-27.72z" class="cls-10"/><path d="M494.91 118.44h24.96v19.32h-24.96z" class="cls-10"/><path d="M207.66 196.65h1.44v31.25h-1.44z" class="cls-16"/><path d="M207.66 226.45h1.44v1.44h-1.44zM209.1 224.77h-1.44M209.1 213.96h-1.44M209.1 212.27h-1.44M208.38 213.96v10.81M208.26 213.96v10.81M207.66 196.65h1.44v1.44h-1.44zM209.1 210.59h-1.44M209.1 199.77h-1.44M208.38 199.77v10.82M208.26 199.77v10.82M208.26 294.72v10.81M208.38 294.72v10.81M207.66 285.82h1.44v42.54h-1.44z" class="cls-16"/><path d="M207.66 326.99h1.44v1.38h-1.44zM208.26 308.66v10.82M208.38 308.66v10.82M208.26 322v3.97M208.38 322v3.97" class="cls-16"/><path d="M375.36 68.16h24.96v19.32h-24.96z" class="cls-10"/><path d="M373.92 66.84h27.84v22.08h-27.84z" class="cls-10"/><path d="M207.66 285.82h1.44v1.38h-1.44z" class="cls-16"/><path d="M492.95 285h27.84v22.08h-27.84z" class="cls-10"/><path d="M494.39 286.44h24.96v19.2h-24.96z" class="cls-10"/><path d="M208.38 288.23v3.96M208.26 288.23v3.96M209.1 322h-1.44" class="cls-16"/></g><g id="MOBILIERR"><path d="m94.99 208.01 2.82-2.83M116.02 167.69v19.89M108.87 184.63l2.94-11.06M126.89 302.76c-.22-.28-.37-.28-.58-.28s-.48 0-.69-.64M127.11 303.69c-.54-.5-.8-.29-.99-.3s-.3-.24-.45-.3c-.15-.05-.33.07-.44.07M126.88 304.61c-.5 0-1.34-.5-1.6.31M126.89 306.13c-.22-.28-.37-.28-.58-.28s-.48 0-.69-.64M127.11 307.22c-.54-.5-.8-.29-.99-.3s-.3-.24-.45-.3c-.15-.05-.33.07-.44.07M146.31 162.4h-27.29M119.02 179.46h27.29M133.03 178.14h11.89M144.92 165.46h-11.89M122.18 165.7c-1.11 0-2.01.9-2.01 2.01M120.47 167.51h9.97M120.47 168.89h9.97M120.17 175.71c0 1.11.9 2.01 2.01 2.01M120.47 173.15h9.97M120.47 171.71h9.97M120.47 170.33h9.97M120.47 175.98h9.97M120.47 174.6h9.97M118.48 163v15.92M120.23 167.75v7.99" class="cls-12"/><circle cx="112.38" cy="171.26" r="1.29" class="cls-12"/><path d="M118.42 178.83c0 .32.26.57.57.57M118.99 162.4a.57.57 0 0 0-.57.57M126.88 308.13c-.5 0-1.34-.5-1.6.31M130.8 167.75v7.99M132.42 177.6V166M122.21 177.72h6.61" class="cls-12"/><circle cx="134.38" cy="171.92" r="1.05" class="cls-12"/><path d="M128.79 177.72c1.11 0 2.01-.9 2.01-2.01M132.42 177.57c0 .32.26.57.57.57M128.82 165.76h-6.61M130.8 167.72c0-1.11-.9-2.01-2.01-2.01M133 165.4a.57.57 0 0 0-.57.57M146.85 178.86V163M145.52 177.6V166M146.28 179.4c.32 0 .57-.26.57-.57M144.89 178.14c.32 0 .57-.26.57-.57M138.49 164.26h-1.32v-.9h3.85v.9h-1.32" class="cls-12"/><path d="M139.7 166.36v-2.76h-1.21v2.76M146.85 162.97a.57.57 0 0 0-.57-.57M145.46 165.97a.57.57 0 0 0-.57-.57M135.31 179.46h47.83M118.6 216h12.5l4.21-4.09v-32.45h47.83v-17.3M126.89 309.61c-.22-.28-.37-.28-.58-.28s-.48 0-.69-.64M127.11 310.81c-.54-.5-.8-.29-.99-.3s-.3-.24-.45-.3c-.15-.05-.33.07-.44.07M126.88 311.73c-.5 0-1.34-.5-1.6.31M126.89 313.05c-.22-.28-.37-.28-.58-.28s-.48 0-.69-.64M127.11 314.22c-.54-.5-.8-.29-.99-.3s-.3-.24-.45-.3c-.15-.05-.33.07-.44.07M126.88 315.14c-.5 0-1.34-.5-1.6.31" class="cls-12"/><path d="M126.84 299.58h31.35v15.83h-31.35zM172.75 342.86v5.73M175.11 342.86h-4.72M175.11 342.86c.56 0 1.01-.45 1.01-1.01M169.38 341.85c0 .56.45 1.01 1.01 1.01M171.74 349.6c.56 0 1.01-.45 1.01-1.01M172.75 344.54h-23.58M171.74 349.6h-22.57M170.39 324.33h4.72M176.12 325.34c0-.56-.45-1.01-1.01-1.01M172.75 323.65v.68M170.39 324.33c-.56 0-1.01.45-1.01 1.01M172.75 323.65c0-.56-.45-1.01-1.01-1.01M149.17 322.64h22.57M176.12 325.34v16.51M169.38 325.34v16.51M149.17 349.6v-26.96M149.17 349.6v-26.96M125.58 342.86v5.73M127.94 342.86c.56 0 1.01-.45 1.01-1.01M122.21 341.85c0 .56.45 1.01 1.01 1.01M123.22 342.86h4.72M125.58 348.59c0 .56.45 1.01 1.01 1.01M123.22 324.33c-.56 0-1.01.45-1.01 1.01M125.58 323.65v.68M127.94 324.33h-4.72M128.95 325.34c0-.56-.45-1.01-1.01-1.01M126.59 322.64c-.56 0-1.01.45-1.01 1.01M128.95 325.34v16.51M122.21 325.34v16.51M149.17 349.6v-26.96M149.17 349.6v-26.96M125.58 344.54h23.59M126.59 349.6h22.58M149.17 322.64h-22.58M51.96 197.46a.57.57 0 1 0 1.14 0 .57.57 0 0 0-1.14 0M53.53 202.66h-1.99M53.49 202.66c.48 0 .87-.39.87-.87M54.43 192.98v8.84M51.54 192.14h1.99M51.51 192.08a.87.87 0 0 0-.87.87M50.7 201.82v-8.84M50.64 201.79c0 .48.39.87.87.87M61.7 193.46h1.86M63.56 192.2h-9.73M61.7 201.4h1.86M53.83 202.72h9.73M61.67 193.4c-2.21 0-4 1.79-4 4s1.79 4 4 4M63.53 202.66c2.9 0 5.26-2.35 5.26-5.26s-2.35-5.26-5.26-5.26" class="cls-12"/><path d="M63.53 201.4c2.21 0 4-1.79 4-4s-1.79-4-4-4M158.37 299.98c.5 0 1.34.5 1.6-.31M158.14 300.9c.54.5.8.29.99.3s.3.24.45.3.33-.07.44-.07M158.36 302.07c.22.28.37.28.58.28s.48 0 .69.64M158.37 303.39c.5 0 1.34.5 1.6-.31M158.14 304.31c.54.5.8.29.99.3s.3.24.45.3.33-.07.44-.07M158.36 305.51c.22.28.37.28.58.28s.48 0 .69.64M158.37 306.98c.5 0 1.34.5 1.6-.31M107.31 215.79c-.14-.17-.38-.27-.64-.27s-.5.1-.64.27M138.43 166.33c.14.17.38.27.64.27s.5-.1.64-.27M107.37 217.92h1.26v.9h-3.85v-.9h1.32" class="cls-12"/><path d="M106.1 215.82v2.76h1.27v-2.76M97.09 168.71H115M115 186.55H97.09M96.13 167.69h19.89M116.02 187.58H96.13M110.73 172.97l-11.66 11.66M99.07 174.84l11.06-2.95" class="cls-12"/><circle cx="106.74" cy="215.37" r="1.05" class="cls-12"/><path d="M158.14 307.9c.54.5.8.29.99.3s.3.24.45.3c.15.05.33-.07.44-.07M158.36 308.99c.22.28.37.28.58.28s.48 0 .69.64M97.81 205.18h18.99M114.76 212.21l-.12.72-.24.67-.36.72-.54.6-.61.6-.78.48-.9.48-.96.3-1.02.3-1.08.18-1.08.06h-1.15l-1.08-.12-1.02-.24-1.02-.3-.9-.42-.84-.48-.72-.54-.61-.6-.42-.66-.3-.66-.18-.73v-.72l.18-.72.3-.66.42-.66.61-.6.72-.54.84-.48.9-.42 1.02-.3 1.02-.24 1.08-.12h1.15l1.08.06 1.08.18 1.02.3.96.3.9.48.78.48.61.6.54.6.36.72.24.66zM97.09 186.55v-17.84M96.13 187.58v-19.89M94.99 212.39v-4.38M158.37 310.51c.5 0 1.34.5 1.6-.31M158.14 311.43c.54.5.8.29.99.3s.3.24.45.3c.15.05.33-.07.44-.07M158.36 312.36c.22.28.37.28.58.28s.48 0 .69.64M158.37 313.88c.5 0 1.34.5 1.6-.31M158.14 314.8c.54.5.8.29.99.3s.3.24.45.3c.15.05.33-.07.44-.07M127.11 300.32c-.54-.5-.8-.29-.99-.3s-.3-.24-.45-.3-.33.07-.44.07M126.88 301.24c-.5 0-1.34-.5-1.6.31M115 168.71v17.84" class="cls-12"/></g><g id="ANNOTATIONS"><path d="m416.61 133.37-.96-.96M417.81 133.73l-1.2-.36M419.13 133.49l-1.32.24M420.21 132.41l-1.08 1.08M420.93 130.61l-.72 1.8M422.25 130.73l-1.32-.12M423.57 130.01l-1.32.72M410.85 135.65l.48-1.08M410.37 133.01l1.08 1.8M409.77 130.85l.6 2.16M413.01 128.93l1.08.48M412.29 127.97l.72.96M411.81 126.05l.48 1.92M428.49 126.77l-.96.6M429.57 128.21l-.24-.96M427.53 127.37l-.96.72M429.33 127.25l-.84-.48M429.09 129.17l.48-.96M427.89 129.65l1.2-.48" class="cls-7"/><text class="cls-21" transform="rotate(-90 366.575 46.465)"><tspan x="0" y="0">ht#0.80m</tspan></text><text class="cls-21" transform="rotate(-90 493.355 -80.315)"><tspan x="0" y="0">ht#0.80m</tspan></text><text class="cls-21" transform="rotate(-90 396.455 16.585)"><tspan x="0" y="0">ht#1.80m</tspan></text><text class="cls-21" transform="rotate(-90 464.915 -51.875)"><tspan x="0" y="0">ht#1.80m</tspan></text><text class="cls-21" transform="rotate(-90 421.655 -23.495)"><tspan x="0" y="0">ht#2.75m</tspan></text><text class="cls-21" transform="rotate(-90 428.315 -16.835)"><tspan x="0" y="0">Faitage</tspan></text><path d="m426.81 130.85 1.2-.96M427.89 129.77l-1.32-1.92M425.37 132.29l1.44-1.44M426.57 127.85l-3 2.16M414.81 136.01l-1.08 1.32M410.85 136.85v-1.2M410.01 124.73l1.32.12M410.85 123.05l-.96-.96M408.69 128.21l1.08 2.64M421.41 121.61l-.72.84M422.25 121.61h-.84M422.85 122.21l-.6-.6M423.09 122.93l-.24-.72M420.69 122.45l-.12 1.56M422.73 125.33l.36-2.4" class="cls-7"/><text class="cls-31" transform="translate(497.67 128.88)"><tspan class="cls-20"><tspan x="0" y="0" class="cls-37">V</tspan><tspan x="2.72" y="0">elux</tspan></tspan><tspan class="cls-39"><tspan x="0" y="3.6">98x78</tspan></tspan></text><text class="cls-31" transform="translate(387.48 78.72)"><tspan class="cls-20"><tspan x="0" y="0" class="cls-37">V</tspan><tspan x="2.72" y="0">elux</tspan></tspan><tspan class="cls-39"><tspan x="0" y="3.6">98x78</tspan></tspan></text><text class="cls-31" transform="translate(387.48 128.88)"><tspan class="cls-20"><tspan x="0" y="0" class="cls-37">V</tspan><tspan x="2.72" y="0">elux</tspan></tspan><tspan class="cls-39"><tspan x="0" y="3.6">98x78</tspan></tspan></text><path d="m494.91 118.44 24.96 9.6M494.91 137.76l24.96-9.72" class="cls-13"/><text class="cls-31" transform="translate(497.67 78.72)"><tspan class="cls-20"><tspan x="0" y="0" class="cls-37">V</tspan><tspan x="2.72" y="0">elux</tspan></tspan><tspan class="cls-39"><tspan x="0" y="3.6">98x78</tspan></tspan></text><text class="cls-31" transform="translate(497.27 296.88)"><tspan class="cls-20"><tspan x="0" y="0" class="cls-37">V</tspan><tspan x="2.72" y="0">elux</tspan></tspan><tspan class="cls-39"><tspan x="0" y="3.6">98x78</tspan></tspan></text><path d="m494.91 68.16 24.96 9.72M494.91 87.48l24.96-9.6M400.32 137.76l-24.96-9.72M400.32 118.44l-24.96 9.6" class="cls-13"/><text class="cls-31" transform="matrix(.98 0 0 1 457.84 208.63)"><tspan style="font-size:4.53px"><tspan x="0" y="0" style="letter-spacing:-.06em">V</tspan><tspan x="2.77" y="0">elux</tspan></tspan><tspan style="font-size:3.05px"><tspan x="0" y="3.66">98x78</tspan></tspan></text><path d="m408.57 125.45 1.44-.72M408.45 124.49l.12.96M408.57 123.05l-.12 1.44M409.41 122.09l-.84.96M409.89 122.09h-.48M408.57 125.69l.12 2.52" class="cls-7"/><path d="M382.51 413.28V12.24M447.55 413.28V12.24M576.31 413.28V12.24M517.99 413.28V12.24" class="cls-26"/><path d="m494.39 286.44 24.96 9.6M494.39 305.64l24.96-9.6" class="cls-13"/><path d="M322.75 413.28V12.24" class="cls-26"/><path d="m454.95 198.12 24.96 9.6M454.95 217.32l24.96-9.6" class="cls-13"/><path d="m413.73 137.33-.72.24M413.13 137.81l.24-.36M412.65 138.41l.48-.6M411.93 138.29l.72.12M411.09 137.81l.84.48M411.09 136.85v.96M411.93 137.33l-1.08-.48" class="cls-7"/><path d="m397.23 86.43-24.96-9.6M400.32 68.16l-24.96 9.72" class="cls-13"/><path d="m413.01 137.57-1.08-.24M411.33 124.85l.48 1.2M411.09 124.97l-.24-1.92M419.73 125.93l-.12.84M423.33 128.09v-1.68M420.57 124.01l-.12.84M420.21 124.85l-.48 1.08M420.93 124.73l-.72.12M422.25 124.85l-1.32-.12M422.85 125.45l-.6-.6M423.33 126.41l-.48-.96M411.45 134.81l2.76.96M414.09 129.41l1.44.36M423.33 134.09l2.04-1.8M421.53 135.65l1.8-1.56M419.61 136.73l1.92-1.08M417.21 136.61l2.4.12M414.21 135.77l3 .84M422.97 130.25l.36-2.16M421.05 129.65l-.24 1.08M420.69 127.97l.36 1.68M419.97 126.77l.72 1.2M418.41 126.65l1.56.12M417.21 127.13l1.2-.48M416.25 128.09l.96-.96M415.65 129.41l.6-1.32M415.29 131.09l.36-1.68M415.65 132.41l-.36-1.32" class="cls-7"/></g><g id="Calque_11" data-name="Calque 11"><path d="M531.44 167.16h4.57v6.13h-4.57z" class="cls-25"/><path d="M429.68 159.96h21.46v3.96h-21.46zM474.66 159.96h21.46v3.96h-21.46z" class="cls-27"/></g><g id="ANNOT._PLAN" data-name="ANNOT. PLAN"><path d="M517.99 12.48v-.24" class="cls-8"/><path d="M453.67 244.68h22.68" class="cls-14"/><path d="M447.55 12.48v-.24M382.51 12.48v-.24M576.31 12.48v-.24M476.35 244.68v8.88M322.75 12.48v-.24" class="cls-8"/><path d="M476.35 253.56h-22.68" class="cls-14"/></g><g id="Calque_9" data-name="Calque 9"><path d="M486.08 163.92h113.88v3.19H486.08z" class="cls-25"/><circle cx="630.49" cy="420.45" r="11.87" class="cls-23"/><path d="M630.49 420.45h-11.87" style="fill:none;stroke:#000;stroke-miterlimit:10;stroke-width:2px"/><path d="M642.35 420.45h-11.86" style="fill:none;stroke:#000;stroke-miterlimit:10;stroke-width:.5px"/><rect width="26.93" height="12.87" x="537.11" y="221.49" class="cls-4" rx="2.94" ry="2.94"/><path d="M564.04 224.95h2.06v5.95h-2.06z" class="cls-4"/><text style="fill:#666;font-family:Avenir-Book,Avenir;font-size:3px" transform="translate(538.46 224.81)"><tspan x="0" y="0">emplacement </tspan><tspan x="0" y="3.6">potentiel </tspan><tspan x="0" y="7.2">cumulus 150 L</tspan></text></g><g id="Calque_12" data-name="Calque 12"><path d="M306.81 44.18h19.74v119.38h-19.74zM568.56 44.18h30.55v119.38h-30.55z" class="cls-2"/></g><g id="Calque_10" data-name="Calque 10"><text class="cls-21" transform="translate(539.27 210.18)"><tspan x="0" y="0">Surface</tspan></text><text class="cls-21" transform="translate(558.07 210.18)"><tspan x="0" y="0">ht&gt;1.8</tspan></text><text class="cls-21" transform="translate(573.43 210.18)"><tspan x="0" y="0">#2m</tspan></text><text class="cls-21" transform="matrix(.58 0 0 .58 582.09 208.7)"><tspan x="0" y="0">2</tspan></text><text class="cls-21" transform="translate(539.27 214.86)"><tspan x="0" y="0">Surface</tspan></text><text class="cls-21" transform="translate(558.07 214.86)"><tspan x="0" y="0">ht&lt;1.8</tspan></text><text class="cls-21" transform="translate(573.43 214.86)"><tspan x="0" y="0">#7m</tspan></text><text class="cls-21" transform="matrix(.58 0 0 .58 582.09 213.38)"><tspan x="0" y="0">2</tspan></text><text class="cls-21" transform="translate(391.49 146.9)"><tspan x="0" y="0">Surface</tspan></text><text class="cls-21" transform="translate(410.29 146.9)"><tspan x="0" y="0">ht&gt;1.8</tspan></text><text class="cls-21" transform="translate(425.65 146.9)"><tspan x="0" y="0">#</tspan><tspan x="2.48" y="0" style="letter-spacing:-.07em">1</tspan><tspan x="4.62" y="0">1m</tspan></text><text class="cls-21" transform="matrix(.58 0 0 .58 436.45 145.42)"><tspan x="0" y="0">2</tspan></text><text class="cls-21" transform="translate(391.49 151.58)"><tspan x="0" y="0">Surface</tspan></text><text class="cls-21" transform="translate(410.29 151.58)"><tspan x="0" y="0">ht&lt;1.8</tspan></text><text class="cls-21" transform="translate(425.65 151.58)"><tspan x="0" y="0">#12m</tspan></text><text class="cls-21" transform="matrix(.58 0 0 .58 436.78 150.1)"><tspan x="0" y="0">2</tspan></text><text class="cls-21" transform="translate(470.98 146.9)"><tspan x="0" y="0">Surface</tspan></text><text class="cls-21" transform="translate(489.79 146.9)"><tspan x="0" y="0">ht&gt;1.8</tspan></text><text class="cls-21" transform="translate(505.14 146.9)"><tspan x="0" y="0">#8m</tspan></text><text class="cls-21" transform="matrix(.58 0 0 .58 513.8 145.42)"><tspan x="0" y="0">2</tspan></text><text class="cls-21" transform="translate(470.98 151.58)"><tspan x="0" y="0">Surface</tspan></text><text class="cls-21" transform="translate(489.79 151.58)"><tspan x="0" y="0">ht&lt;1.8</tspan></text><text class="cls-21" transform="translate(505.14 151.58)"><tspan x="0" y="0">#12m</tspan></text><text class="cls-21" transform="matrix(.58 0 0 .58 516.28 150.1)"><tspan x="0" y="0">2</tspan></text><text class="cls-34" transform="translate(533.2 297.43)"><tspan x="0" y="0">Surface 16m2</tspan><tspan x="0" y="7.2">sans t</tspan><tspan x="14.81" y="7.2" class="cls-28">r</tspan><tspan x="16.6" y="7.2">mie</tspan></text><text class="cls-21" transform="translate(527.37 335.98)"><tspan x="0" y="0">Surface</tspan></text><text class="cls-21" transform="translate(546.17 335.98)"><tspan x="0" y="0">ht&gt;1.8</tspan></text><text class="cls-21" transform="translate(561.53 335.98)"><tspan x="0" y="0">#7m</tspan></text><text class="cls-21" transform="matrix(.58 0 0 .58 570.19 334.49)"><tspan x="0" y="0">2</tspan></text><text class="cls-21" transform="translate(527.37 340.66)"><tspan x="0" y="0">Surface</tspan></text><text class="cls-21" transform="translate(546.17 340.66)"><tspan x="0" y="0">ht&lt;1.8</tspan></text><text class="cls-21" transform="translate(561.53 340.66)"><tspan x="0" y="0">#9m</tspan></text><text class="cls-21" transform="matrix(.58 0 0 .58 570.19 339.18)"><tspan x="0" y="0">2</tspan></text><text class="cls-34" transform="translate(398.25 105.35)"><tspan x="0" y="0">Surface 23m2</tspan></text><text class="cls-34" transform="translate(397.82 99.39)"><tspan x="0" y="0">Chamb</tspan><tspan x="19.92" y="0" class="cls-28">r</tspan><tspan x="21.71" y="0">e I</tspan></text><text class="cls-34" transform="translate(505.46 102.59)"><tspan x="0" y="0">Surface 20m2</tspan></text><text class="cls-34" transform="translate(505.03 96.79)"><tspan x="0" y="0">Chamb</tspan><tspan x="19.92" y="0" class="cls-28">r</tspan><tspan x="21.71" y="0">e II</tspan></text><text class="cls-34" transform="translate(546.36 197.53)"><tspan x="0" y="0">Surface 9m2</tspan></text><text class="cls-34" transform="translate(545.92 190.85)"><tspan x="0" y="0">SDB /</tspan><tspan x="15.43" y="0" style="letter-spacing:-.01em"> </tspan><tspan x="16.86" y="0">WC / Placa</tspan><tspan x="45.97" y="0" class="cls-28">r</tspan><tspan x="47.77" y="0">d</tspan></text><text class="cls-34" transform="translate(534.14 292.59)"><tspan x="0" y="0">Bu</tspan><tspan x="7.1" y="0" class="cls-28">r</tspan><tspan x="8.9" y="0" style="letter-spacing:0">e</tspan><tspan x="12.2" y="0" style="letter-spacing:0">au</tspan></text></g><g id="Calque_16" data-name="Calque 16"><path d="M41.33 166.98v-25.23M200.33 167.7v-25.95M41.33 141.75h72.7M127.94 141.75h72.39M42.38 140.52l-2.27 2.27.18.18 2.27-2.26-.18-.19M199.29 142.97l2.27-2.26-.18-.19-2.27 2.27.18.18M30.08 349.54H14.4M14.4 349.54v-78.58M13.17 348.5l2.27 2.27.18-.18-2.26-2.27-.19.18M30.08 161.06H14.4M14.4 253.03v-91.97M15.62 162.1l-2.26-2.27-.19.18 2.27 2.27.18-.18M210.6 328.51h15.67M210.6 349.84h15.67M226.27 328.51v5.05M226.27 344.63v5.21M227.5 329.55l-2.27-2.26-.18.18 2.27 2.27.18-.19M225.05 348.8l2.27 2.27.18-.18-2.27-2.27-.18.18M210.6 285.97h15.67M210.6 328.51h15.67M226.27 285.97v15.95M226.27 312.86v15.65M227.5 287.01l-2.27-2.27-.18.18 2.27 2.27.18-.18" class="cls-19"/><path d="m225.05 327.47 2.27 2.27.18-.19-2.27-2.26-.18.18M210.6 228.04h15.67M210.6 285.97h15.67M226.27 228.04v23.41M226.27 262.69v23.28M227.5 229.08l-2.27-2.27-.18.19 2.27 2.26.18-.18M225.05 284.92l2.27 2.27.18-.18-2.27-2.27-.18.18M210.6 196.79h15.67M210.6 228.04h15.67M226.27 196.79v10.31M226.27 218.03v10.01M227.5 197.83l-2.27-2.26-.18.18 2.27 2.27.18-.19" class="cls-19"/><path d="m225.05 227 2.27 2.26.18-.18-2.27-2.27-.18.19M210.6 162.3h15.67M210.6 196.79h15.67M226.27 158.9v15.33M226.27 185.09v15.1M225.05 161.26l2.27 2.26.18-.18-2.27-2.27-.18.19M227.5 197.83l-2.27-2.26-.18.18 2.27 2.27.18-.19M599.89 315.53v55.03M432.61 315.53v55.03M599.89 370.56h-78.02M510.63 370.56h-78.02M598.85 371.78l2.27-2.27-.18-.18-2.27 2.27.18.18M433.66 369.33l-2.27 2.27.18.18 2.27-2.27-.18-.18M306.01 64.63V9.61M599.89 64.63V9.61M306.01 9.61h139.97M460.02 9.61h139.87M307.06 8.39l-2.27 2.26.18.19 2.27-2.27-.18-.18M598.85 10.84l2.27-2.27-.18-.18-2.27 2.26.18.19M575.26 44.18h55.02M575.26 164.06h55.02M630.28 44.18V98.5M630.28 109.67v54.39M631.5 45.22l-2.27-2.27-.18.19 2.27 2.26.18-.18M629.05 163.02l2.27 2.26.18-.18-2.27-2.26-.18.18M306.01 64.63V9.61M599.89 64.63V9.61M306.01 9.61h139.97M460.02 9.61h139.87" class="cls-19"/><path d="m307.06 8.39-2.27 2.26.18.19 2.27-2.27-.18-.18M598.85 10.84l2.27-2.27-.18-.18-2.27 2.26.18.19M575.26 171.98h55.02M575.26 244.22h55.02M630.28 171.98v30.57M630.28 213.55v30.67M631.5 173.02l-2.27-2.27-.18.19 2.27 2.26.18-.18M629.05 243.18l2.27 2.26.18-.18-2.27-2.26-.18.18M575.26 254.3h55.02M575.26 347.54h55.02M630.28 254.3v41.07M630.28 306.54v41M631.5 255.34l-2.27-2.27-.18.19 2.27 2.26.18-.18M629.05 346.5l2.27 2.26.18-.18-2.27-2.26-.18.18M203.09 347.62v25.23M29 347.62v25.23M203.09 372.85h-81.43M110.36 372.85H29M202.04 374.08l2.27-2.27-.18-.18-2.27 2.27.18.18M30.05 371.63l-2.27 2.27.18.18 2.27-2.27-.18-.18" class="cls-19"/></g><g id="Calque_17" data-name="Calque 17"><text class="cls-5" transform="matrix(.99 0 0 1 115.29 143.87)"><tspan x="0" y="0">5.60</tspan></text><text class="cls-5" transform="matrix(0 -.99 1 0 16.53 267.1)"><tspan x="0" y="0">6.60</tspan></text><text class="cls-5" transform="matrix(0 -.99 1 0 228.38 344.82)"><tspan x="0" y="0">0.75</tspan></text><text class="cls-5" transform="matrix(0 -.99 1 0 228.38 313.35)"><tspan x="0" y="0">1.50</tspan></text><text class="cls-5" transform="matrix(0 -.99 1 0 228.4 262.95)"><tspan x="0" y="0">2.04</tspan></text><text class="cls-5" transform="matrix(0 -.99 1 0 228.38 218.52)"><tspan x="0" y="0">1.10</tspan></text><text class="cls-5" transform="matrix(0 -.99 1 0 228.44 185.58)"><tspan x="0" y="0">1.22</tspan></text><text class="cls-5" transform="matrix(.99 0 0 1 510.45 372.66)"><tspan x="0" y="0">5.90</tspan></text><text class="cls-5" transform="matrix(.99 0 0 1 445.49 11.74)"><tspan x="0" y="0">10.37</tspan></text><text class="cls-5" transform="matrix(0 -.99 1 0 632.4 109.86)"><tspan x="0" y="0">4.23</tspan></text><text class="cls-5" transform="matrix(.99 0 0 1 445.49 11.74)"><tspan x="0" y="0">10.37</tspan></text><text class="cls-5" transform="matrix(0 -.99 1 0 632.4 213.81)"><tspan x="0" y="0">2.55</tspan></text><text class="cls-5" transform="matrix(0 -.99 1 0 632.4 306.8)"><tspan x="0" y="0">3.29</tspan></text><text class="cls-5" transform="matrix(.99 0 0 1 110.17 374.89)"><tspan x="0" y="0">6.14</tspan></text></g></svg>