<svg xmlns="http://www.w3.org/2000/svg" shape-rendering="crispEdges" viewBox="0 0 1267.4 714.4"><defs><pattern id="Cercles" width="46.77" height="54" x="0" y="0" patternTransform="translate(1513.33 2521.52)scale(1.46)" patternUnits="userSpaceOnUse"><path d="M0 0h46.77v54H0z" style="fill:none;stroke-width:0"/><path d="M41.06 21.58c.41-.72.17-1.63-.55-2.05-.72-.41-1.63-.17-2.05.55-.41.72-.17 1.63.55 2.05.72.41 1.63.17 2.05-.55ZM39.81 29.92a1.501 1.501 0 1 0-2.6 1.501 1.501 1.501 0 0 0 2.6-1.501ZM31.56 16.83a1.501 1.501 0 1 0-2.6 1.501 1.501 1.501 0 0 0 2.6-1.501ZM24.02 23.62c.41-.72.17-1.64-.55-2.05-.72-.42-1.64-.17-2.05.55s-.17 1.63.55 2.05c.72.41 1.63.17 2.05-.55ZM26.81 29.83a1.501 1.501 0 1 0-2.6 1.501 1.501 1.501 0 0 0 2.6-1.501Z" class="cls-8"/><circle cx="32.43" cy="36" r="1.5" class="cls-8"/><path d="M6.52 23.67a1.501 1.501 0 1 1 2.601-1.5 1.501 1.501 0 0 1-2.601 1.5ZM7.15 31.25a1.501 1.501 0 1 1 2.6 1.501 1.501 1.501 0 0 1-2.6-1.501ZM12.42 16.42a1.501 1.501 0 1 1 2.6 1.501 1.501 1.501 0 0 1-2.6-1.501Z" class="cls-8"/><circle cx="18" cy="35" r="1.5" class="cls-8"/><path d="M41.02 50a1.501 1.501 0 1 1-2.6-1.501A1.501 1.501 0 0 1 41.02 50ZM25.31 50.08a1.501 1.501 0 1 1-2.6-1.501 1.501 1.501 0 0 1 2.6 1.501Z" class="cls-8"/><circle cx="31.18" cy="45" r="1.5" class="cls-8"/><path d="M5.77 50.38a1.501 1.501 0 1 0 2.6-1.501 1.501 1.501 0 0 0-2.6 1.501Z" class="cls-8"/><circle cx="15.84" cy="43" r="1.5" class="cls-8"/><path d="M40.27 3.75c.41.72.17 1.63-.55 2.05s-1.63.17-2.05-.55c-.41-.72-.17-1.64.55-2.05.72-.42 1.63-.17 2.05.55ZM32.48 9.75a1.501 1.501 0 1 1-2.6-1.501 1.501 1.501 0 0 1 2.6 1.501ZM25.36 3.12c.41.72.17 1.63-.55 2.05a1.501 1.501 0 0 1-1.5-2.6c.72-.42 1.63-.17 2.05.55ZM6.49 3.75c-.41.72-.17 1.63.55 2.05s1.63.17 2.05-.55c.41-.72.17-1.64-.55-2.05-.72-.42-1.64-.17-2.05.55ZM14.79 8.75a1.501 1.501 0 1 0 2.6-1.501 1.501 1.501 0 0 0-2.6 1.501Z" class="cls-8"/><circle cx="47.52" cy="17.5" r="1.5" class="cls-8"/><circle cx="47.5" cy="45" r="1.5" class="cls-8"/><path d="M25.81 39.33a1.501 1.501 0 1 0-2.6 1.501 1.501 1.501 0 0 0 2.6-1.501ZM17.31 26.33a1.501 1.501 0 1 0-2.6 1.501 1.501 1.501 0 0 0 2.6-1.501ZM33.55 24.45a1.501 1.501 0 1 0-2.6 1.501 1.501 1.501 0 0 0 2.6-1.501ZM24.56 12.83a1.501 1.501 0 1 0-2.6 1.501 1.501 1.501 0 0 0 2.6-1.501ZM8.06 12.33a1.501 1.501 0 1 0-2.6 1.501 1.501 1.501 0 0 0 2.6-1.501ZM40.12 12.25a1.501 1.501 0 1 0-2.6 1.501 1.501 1.501 0 0 0 2.6-1.501ZM8.31 39.33a1.501 1.501 0 1 0-2.6 1.501 1.501 1.501 0 0 0 2.6-1.501ZM16.81 52.08a1.501 1.501 0 1 0-2.6 1.501 1.501 1.501 0 0 0 2.6-1.501ZM34.56 52.58a1.501 1.501 0 1 0-2.6 1.501 1.501 1.501 0 0 0 2.6-1.501Z" class="cls-8"/><circle cx="39.5" cy="41.25" r="1.5" class="cls-8"/><circle cx="46.77" cy="54.75" r="1.5" class="cls-8"/><path d="M47.8 26.2a1.501 1.501 0 1 0-2.599 1.5 1.501 1.501 0 0 0 2.599-1.5Z" class="cls-8"/><circle cx="47.48" cy="8" r="1.5" class="cls-8"/><circle cx="45.48" cy="36.25" r="1.5" class="cls-8"/><circle cx=".75" cy="17.5" r="1.5" class="cls-8"/><circle cx=".73" cy="45" r="1.5" class="cls-8"/><circle cy="54.75" r="1.5" class="cls-8"/><path d="M1.03 26.2a1.501 1.501 0 1 0-2.599 1.5 1.501 1.501 0 0 0 2.599-1.5Z" class="cls-8"/><circle cx=".72" cy="8" r="1.5" class="cls-8"/><circle cx="-1.28" cy="36.25" r="1.5" class="cls-8"/><path d="M16.81-1.93a1.501 1.501 0 1 0-2.6 1.501 1.501 1.501 0 0 0 2.6-1.501ZM34.56-1.43a1.501 1.501 0 1 0-2.6 1.501 1.501 1.501 0 0 0 2.6-1.501Z" class="cls-8"/><circle cx="46.77" cy=".75" r="1.5" class="cls-8"/><circle cy=".75" r="1.5" class="cls-8"/></pattern><style>.cls-2,.cls-3,.cls-4,.cls-5,.cls-6{stroke-linecap:round;stroke-linejoin:round}.cls-2,.cls-3,.cls-5{stroke-width:.5px}.cls-3,.cls-4,.cls-6,.cls-8,.cls-9{fill:none}.cls-4,.cls-9{stroke:#333}.cls-2{fill:#fff}.cls-2,.cls-3,.cls-5{stroke:#000}.cls-11{fill:#333;font-family:ArialMT,Arial;font-size:17.02px}.cls-4,.cls-6{stroke-width:.25px}.cls-8{stroke:#1d1d1b;stroke-width:.3px}.cls-5{fill:url(#Cercles)}.cls-6{stroke:#666}.cls-9{stroke-miterlimit:10;stroke-width:.15px}</style></defs><g id="D_faut" data-name="Défaut"><path d="M996.18 564.78c.44 0 .87-.08 1.28-.24.44-.17.84-.44 1.18-.77s.6-.74.77-1.18c.16-.41.24-.84.24-1.28s-.08-.87-.24-1.28c-.17-.44-.44-.84-.77-1.18-.34-.34-.74-.6-1.18-.77-.41-.16-.84-.24-1.28-.24s-.87.08-1.28.24c-.44.17-.84.44-1.18.77s-.6.74-.77 1.18c-.16.41-.24.84-.24 1.28s.08.87.24 1.28c.17.44.44.84.77 1.18.34.34.74.6 1.18.77.41.16.84.24 1.28.24M654.44 710.77h283.57V506.61M58.96 69.92h8.51v121.93h-8.51zM58.96 330.8h8.51v167.3h-8.51zM58.96 506.61h8.51v195.66h-8.51zM352.45 506.61h8.51v93.58h-8.51zM352.45 608.69h8.51v93.58h-8.51zM256.03 69.92h8.51v121.93h-8.51zM453.11 69.92h8.51v121.93h-8.51zM650.19 69.92h8.51v121.93h-8.51zM256.03 200.36h8.51v121.93h-8.51zM453.11 200.36h8.51v121.93h-8.51zM650.19 200.36h8.51v121.93h-8.51zM650.19 330.8h8.51v167.3h-8.51zM650.19 506.61h8.51v195.66h-8.51z" class="cls-2"/><path d="M58.96 702.27H658.7v8.51H58.96zM852.37 69.92h8.51v121.93h-8.51zM1054.55 69.92h8.51v121.93h-8.51zM1256.73 200.36h8.51v121.93h-8.51zM1256.73 69.92h8.51v121.93h-8.51zM1256.73 599.66h8.51v111.11h-8.51zM852.37 200.36h8.51v121.93h-8.51zM1054.55 200.36h8.51v121.93h-8.51zM1054.51 330.8h8.51v167.3h-8.51zM1054.51 506.61h8.51v84.55h-8.51zM58.96 61.41h1206.28v8.51H58.96zM58.96 322.29h1206.28v8.51H58.96z" class="cls-2"/><path d="M58.96 191.85h1206.28v8.51H58.96zM58.96 498.1h1004.06v8.51H58.96zM1054.51 591.16h210.73v8.51h-210.73zM938.01 710.77h327.23M654.44 69.92v-8.51M654.44 200.36v-8.51M654.44 330.8v-8.51M654.44 506.61v-8.51M1054.51 599.66v111.11M1054.51 591.16h-116.5M1054.51 548.88h-116.5M996.18 607.06c.44 0 .87-.08 1.28-.24.44-.17.84-.44 1.18-.77.34-.34.6-.74.77-1.18.16-.41.24-.84.24-1.28s-.08-.87-.24-1.28c-.17-.44-.44-.84-.77-1.18-.34-.34-.74-.6-1.18-.77-.41-.16-.84-.24-1.28-.24s-.87.08-1.28.24c-.44.17-.84.44-1.18.77s-.6.74-.77 1.18c-.16.41-.24.84-.24 1.28s.08.87.24 1.28c.17.44.44.84.77 1.18s.74.6 1.18.77c.41.16.84.24 1.28.24M996.18 522.51c.44 0 .87-.08 1.28-.24.44-.18.84-.44 1.18-.77s.6-.74.77-1.18c.16-.41.24-.84.24-1.28s-.08-.87-.24-1.28c-.17-.44-.44-.84-.77-1.18s-.74-.6-1.18-.77c-.41-.16-.84-.24-1.28-.24s-.87.08-1.28.24c-.44.18-.84.44-1.18.77-.34.34-.6.74-.77 1.18-.16.41-.24.84-.24 1.28s.08.87.24 1.28c.17.44.44.84.77 1.18.34.34.74.6 1.18.77.41.16.84.24 1.28.24M1155.62 615.56c.44 0 .87-.08 1.28-.24.44-.18.84-.44 1.18-.77.34-.34.6-.74.77-1.18.16-.41.24-.84.24-1.28s-.08-.87-.24-1.28c-.17-.44-.44-.84-.77-1.18s-.74-.6-1.18-.77c-.41-.16-.84-.24-1.28-.24s-.87.08-1.28.24c-.44.18-.84.44-1.18.77s-.6.74-.77 1.18c-.16.41-.24.84-.24 1.28s.08.87.24 1.28c.17.44.44.84.77 1.18.34.34.74.6 1.18.77.41.16.84.24 1.28.24" class="cls-2"/></g><g id="cote"><path d="M58.96 61.13v-20.2M654.44 61.13v-20.2M58.11 41.5H344M369.15 41.5h286.14M59.74 40.58l-1.7 1.7.13.13 1.71-1.7-.14-.13M653.66 42.41l1.7-1.7-.14-.13-1.7 1.7.14.13M654.44 61.13v-20.2M1265.24 61.13v-20.2M653.59 41.5h293.55M972.42 41.5h293.67" class="cls-9"/><path d="m655.22 40.58-1.7 1.7.14.13 1.7-1.7-.14-.13M1264.46 42.41l1.7-1.7-.14-.13-1.7 1.7.14.13M650.19 69.64V58.01M658.69 69.64V58.01M649.34 58.58h1.34M658.14 58.58h1.41M650.97 57.66l-1.7 1.7.14.13 1.7-1.7-.14-.13M657.91 59.49l1.7-1.7-.13-.13-1.7 1.7.13.13M58.96 61.13V6.72M1265.24 61.13V6.72M58.11 7.29h591.04M674.67 7.29h591.42M59.74 6.37l-1.7 1.7.13.14 1.71-1.7-.14-.14M1264.46 8.21l1.7-1.7-.14-.14-1.7 1.7.14.14M58.67 69.92H42.33M58.67 191.85H42.33M42.89 69.07v53.25M42.89 138.96v53.74M43.81 70.7l-1.7-1.7-.13.14 1.7 1.7.13-.14M41.98 191.07l1.7 1.7.13-.14-1.7-1.7-.13.14M58.67 200.36H42.33M58.67 322.29H42.33M42.89 199.51v53.25M42.89 269.4v53.74M43.81 201.14l-1.7-1.7-.13.14 1.7 1.7.13-.14M41.98 321.51l1.7 1.7.13-.14-1.7-1.7-.13.14M58.67 330.8H42.33M58.67 498.1H42.33M42.89 329.95v76.36M42.89 422.59v76.36M43.81 331.58l-1.7-1.7-.13.13 1.7 1.71.13-.14M41.98 497.32l1.7 1.7.13-.14-1.7-1.7-.13.14M58.67 506.61H42.33M58.67 702.27H42.33M42.89 505.76v90.48M42.89 612.57v90.55M43.81 507.39l-1.7-1.7-.13.13 1.7 1.71.13-.14M41.98 701.48l1.7 1.71.13-.14-1.7-1.7-.13.13M58.67 61.41H9.84M58.67 710.77H9.84M10.41 60.56v312.83M10.41 398.61v313.01M11.33 62.19l-1.7-1.7-.14.14 1.7 1.7.14-.14M9.49 709.99l1.7 1.7.14-.13-1.7-1.71-.14.14" class="cls-9"/></g><g id="Calque_9" data-name="Calque 9"><text class="cls-11" transform="translate(343.57 47.17)"><tspan x="0" y="0">210</tspan></text><text class="cls-11" transform="translate(946.71 47.17)"><tspan x="0" y="0">215</tspan></text><text class="cls-11" transform="translate(650.07 64.25)"><tspan x="0" y="0">3</tspan></text><text class="cls-11" transform="translate(648.97 12.96)"><tspan x="0" y="0">425</tspan></text><text class="cls-11" transform="rotate(-90 93.735 45.415)"><tspan x="0" y="0">43</tspan></text><text class="cls-11" transform="rotate(-90 158.955 110.635)"><tspan x="0" y="0">43</tspan></text><text class="cls-11" transform="rotate(-90 235.76 187.44)"><tspan x="0" y="0">59</tspan></text><text class="cls-11" transform="rotate(-90 330.725 282.405)"><tspan x="0" y="0">69</tspan></text><text class="cls-11" transform="rotate(-90 207.44 191.6)"><tspan x="0" y="0">229</tspan></text></g><g id="Calque_05" data-name="Calque 05"><path d="M1093.86 519.51h129.26v71.65h-129.26z" class="cls-4"/><path d="M1093.86 519.51h129.26v22.98h-129.26zM1147.99 574.38h21.42v5.27h-21.42z" class="cls-4"/><path d="M1179.07 522.3h41.09v17.81h-41.09zM1154.21 546.45h8.99v5.27h-8.99zM1223.12 574.38h-129.26v16.78h129.26M1054.36 511.6H938.01M1054.36 553.87H938.01M1054.36 596.15H938.01" class="cls-4"/><path d="M1265.24 703.48V62.18" style="stroke-linecap:round;stroke-linejoin:round;stroke-width:.5px;fill:none;stroke:#333"/><path d="M1256.73 604.65h-202.22M67.46 600.18h582.72v8.51H67.46zM1093.86 510.5h129.26v9.02h-129.26z" class="cls-4"/><path d="M938.01 498.1h26.59v212.67h-26.59z" style="stroke-width:0;fill:#ccc;opacity:.3"/><path d="M938.01 506.61v-8.51" class="cls-2"/></g><g id="Calque_06" data-name="Calque 06"><path d="M1067.31 69.92h185.17v121.93h-185.17zM71.72 69.92h180.06v121.93H71.72zM268.79 69.92h180.06v121.93H268.79zM865.13 69.92h185.17v121.93H865.13zM465.87 200.36h180.06v121.93H465.87zM268.79 200.36h180.06v121.93H268.79zM662.95 200.36h185.17v121.93H662.95zM1067.31 200.36h185.17v121.93h-185.17zM71.72 506.61h280.73v195.66H71.72zM360.95 506.61h284.98v195.66H360.95z" class="cls-5"/></g><g id="Calque_04" data-name="Calque 04"><path d="M645.93 506.61h4.25v195.66h-4.25zM352.45 506.61h4.25v195.66h-4.25zM67.46 506.61h4.25v195.66h-4.25zM1252.48 200.36h4.25v121.93h-4.25zM1063.06 200.36h4.25v121.93h-4.25zM848.12 200.36h4.25v121.93h-4.25zM658.69 200.36h4.25v121.93h-4.25zM264.54 200.36h4.25v121.93h-4.25zM448.86 200.36h4.25v121.93h-4.25zM461.62 200.36h4.25v121.93h-4.25zM645.93 200.36h4.25v121.93h-4.25zM251.78 69.92h4.25v121.93h-4.25zM1252.48 69.92h4.25v121.93h-4.25zM1050.3 69.92h4.25v121.93h-4.25zM1063.06 69.92h4.25v121.93h-4.25zM860.88 69.92h4.25v121.93h-4.25zM264.54 69.92h4.25v121.93h-4.25zM448.86 69.92h4.25v121.93h-4.25zM67.46 69.92h4.25v121.93h-4.25zM356.7 506.61h4.25v195.66h-4.25z" class="cls-6"/></g><g id="Calque_03" data-name="Calque 03"><path d="M1186.91 141.33h-45.24l12.49 7.77M383.29 141.33h-45.24l12.49 7.77M338.05 128.01h45.24l-12.49-7.77M140.97 128.01h45.24l-12.49-7.77M338.05 258.45h45.24l-12.49-7.77M580.37 271.77h-45.24l12.48 7.77M535.13 258.45h45.24l-12.49-7.77M782.55 271.77h-45.24l12.49 7.77M737.31 258.45h45.24l-12.49-7.77M984.73 141.33h-45.24l12.49 7.77M939.49 128.01h45.24l-12.49-7.77M520.14 610.28H474.9l12.49 7.77M474.9 596.96h45.24l-12.49-7.77M230.91 610.28h-45.24l12.49 7.77M185.67 596.96h45.24l-12.49-7.77M1141.67 128.01h45.24l-12.49-7.77M1141.67 258.45h45.24l-12.49-7.77M383.29 271.77h-45.24l12.49 7.77M186.21 141.33h-45.24l12.49 7.77M1186.91 271.77h-45.24l12.49 7.77" class="cls-3"/></g></svg>