<svg xmlns="http://www.w3.org/2000/svg" viewBox="0 0 235.27 714.4"><defs><style>.cls-1,.cls-2{stroke:#000;stroke-linecap:round;stroke-linejoin:round}.cls-1{fill:#fff;stroke-width:.5px}.cls-2{stroke-width:.25px}.cls-2,.cls-4{fill:none}.cls-5{fill:#333;font-family:ArialMT,Arial;font-size:17.02px}.cls-4{stroke:#333;stroke-miterlimit:10;stroke-width:.15px}</style></defs><g id="D_faut" data-name="Défaut"><path d="M227.48 702.12h3.53v8.51H60.87v-8.51h163.21M60.87 506.46h8.51v195.66h-8.51zM224.08 506.46H60.87v-8.51h170.14v8.51h-3.53M69.38 506.46h11.34v11.34H69.38zM212.73 506.46h11.34v11.34h-11.34zM80.72 517.8h143.36M184.38 69.77h11.34v11.34h-11.34zM69.38 69.77h11.34v11.34H69.38zM69.38 81.11h126.34M199.12 191.7h3.53v8.51H60.87v-8.51h134.85M60.87 322.14h141.78v8.51H60.87zM195.72 69.77H60.87v-8.51h141.78v8.51h-3.53M194.15 330.65h8.51v167.3h-8.51zM60.87 330.65h8.51v167.3h-8.51zM60.87 200.21h8.51v121.93h-8.51zM60.87 69.77h8.51V191.7h-8.51zM69.38 600.04H222.5v8.51H69.38z" class="cls-1"/></g><g id="cote"><path d="M60.59 61.26H11.76M60.59 710.63H11.76M12.32 60.41v312.84M12.32 398.46v313.02M13.24 62.05l-1.7-1.7-.13.13 1.7 1.7.13-.13M11.41 709.84l1.7 1.71.13-.14-1.7-1.7-.13.13M60.59 69.77H44.24M60.59 191.7H44.24M44.81 68.92v53.25M44.81 138.81v53.74M45.73 70.55l-1.7-1.7-.14.14 1.7 1.7.14-.14M43.89 190.92l1.7 1.7.14-.13-1.7-1.7-.14.13M60.59 200.21H44.24M60.59 322.14H44.24M44.81 199.36v53.25M44.81 269.25v53.74M45.73 200.99l-1.7-1.7-.14.14 1.7 1.7.14-.14M43.89 321.36l1.7 1.7.14-.13-1.7-1.71-.14.14M60.59 330.65H44.24M60.59 497.95H44.24M44.81 329.8v76.36M44.81 422.44v76.36M45.73 331.43l-1.7-1.7-.14.14 1.7 1.7.14-.14M43.89 497.17l1.7 1.7.14-.13-1.7-1.71-.14.14M60.59 506.46H44.24M60.59 702.12H44.24M44.81 505.61v90.48M44.81 612.43v90.54M45.73 507.24l-1.7-1.7-.14.14 1.7 1.7.14-.14M43.89 701.34l1.7 1.7.14-.14-1.7-1.7-.14.14M60.87 61.13V7.64M202.65 61.13V7.64M60.02 8.21h63.61M139.84 8.21h63.66M61.65 7.29l-1.7 1.7.14.14 1.7-1.7-.14-.14M201.87 9.13l1.7-1.7-.13-.14-1.71 1.7.14.14M202.65 497.67v-12.48M231.01 497.67v-12.48M201.8 485.75h7.94M224.91 485.75h6.95M203.44 484.83l-1.71 1.71.14.13 1.7-1.7-.13-.14M230.23 486.67l1.7-1.7-.14-.14-1.7 1.71.14.13M142.19 608.54h-16.35M142.19 702.12h-16.35M126.41 607.69v39.5M126.41 663.41v39.56M127.33 609.33l-1.7-1.71-.14.14 1.7 1.7.14-.13M125.49 701.34l1.7 1.7.14-.14-1.7-1.7-.14.14M142.19 517.8h-16.35M142.19 600.04h-16.35M126.41 516.95v33.65M126.41 567.06v33.83M127.33 518.59l-1.7-1.71-.14.14 1.7 1.7.14-.13M125.49 599.25l1.7 1.7.14-.13-1.7-1.7-.14.13M142.19 330.65h-16.35M142.19 497.95h-16.35M126.41 329.8v76.36M126.41 422.44v76.36M127.33 331.43l-1.7-1.7-.14.14 1.7 1.7.14-.14M125.49 497.17l1.7 1.7.14-.13-1.7-1.71-.14.14M142.19 200.21h-16.35M142.19 322.14h-16.35M126.41 199.36v53.25M126.41 269.25v53.74M127.33 200.99l-1.7-1.7-.14.14 1.7 1.7.14-.14M125.49 321.36l1.7 1.7.14-.13-1.7-1.71-.14.14M142.19 81.11h-16.35M142.19 191.7h-16.35M126.41 80.26v48.01M126.41 144.55v48M127.33 81.9l-1.7-1.7-.14.13 1.7 1.7.14-.13M125.49 190.92l1.7 1.7.14-.13-1.7-1.7-.14.13" class="cls-4"/></g><g id="Calque_9" data-name="Calque 9"><text class="cls-5" transform="rotate(-90 208.32 190.57)"><tspan x="0" y="0">229</tspan></text><text class="cls-5" transform="rotate(-90 94.615 44.385)"><tspan x="0" y="0">43</tspan></text><text class="cls-5" transform="rotate(-90 159.835 109.605)"><tspan x="0" y="0">43</tspan></text><text class="cls-5" transform="rotate(-90 236.645 186.415)"><tspan x="0" y="0">59</tspan></text><text class="cls-5" transform="rotate(-90 331.605 281.375)"><tspan x="0" y="0">69</tspan></text><text class="cls-5" transform="translate(123.01 13.88)"><tspan x="0" y="0">50</tspan></text><text class="cls-5" transform="translate(208.08 491.42)"><tspan x="0" y="0">10</tspan></text><text class="cls-5" transform="rotate(-90 397.93 266.09)"><tspan x="0" y="0">33</tspan></text><text class="cls-5" transform="rotate(-90 349.665 217.825)"><tspan x="0" y="0">29</tspan></text><text class="cls-5" transform="rotate(-90 277.45 145.61)"><tspan x="0" y="0">59</tspan></text><text class="cls-5" transform="rotate(-90 200.64 68.8)"><tspan x="0" y="0">43</tspan></text><text class="cls-5" transform="rotate(-90 138.5 6.66)"><tspan x="0" y="0">39</tspan></text></g><path id="Calque_05" d="M202.65 200.21v121.93" data-name="Calque 05" style="stroke-linecap:round;stroke-linejoin:round;stroke-width:.25px;fill:none;stroke:#333"/><g id="Calque_03" data-name="Calque 03"><path d="M227.48 509.31v-6.25h-3.4v202.58h3.4zM199.12 70.31v-3.94h-3.4v129.06h3.4z" class="cls-2"/></g></svg>