<svg xmlns="http://www.w3.org/2000/svg" shape-rendering="crispEdges" viewBox="0 0 1267.4 743.47"><defs><style>.cls-1{fill:#fff;stroke-width:.5px}.cls-1,.cls-2,.cls-3{stroke-linecap:round;stroke-linejoin:round}.cls-1,.cls-3{stroke:#000}.cls-4{fill:#333;font-family:ArialMT,Arial;font-size:17.02px}.cls-2,.cls-3{stroke-width:.25px}.cls-2,.cls-5{fill:none;stroke:#333}.cls-3{fill:#ccc}.cls-5{stroke-miterlimit:10;stroke-width:.15px}</style></defs><g id="D_faut" data-name="Défaut"><path d="M654.45 232.24v-8.51M58.97 62.1h1206.28v8.51H58.97zM654.45 70.61V62.1M58.97 70.61h8.51v133.28h-8.51zM1256.74 70.61h8.51v133.28h-8.51z" class="cls-1"/><path d="M1265.25 195.38v8.5H58.97v-8.5M67.47 199.63h1189.27M67.47 195.38h1189.27M256.04 70.61h8.51v124.77h-8.51zM453.12 70.61h8.51v124.77h-8.51zM650.2 70.61h8.51v124.77h-8.51zM852.38 70.61h8.51v124.77h-8.51zM1054.56 70.61h8.51v124.77h-8.51z" class="cls-1"/></g><g id="cote"><path d="M654.17 232.24h-16.35M654.17 714.3h-16.35M638.39 231.39V461.8M638.39 485.72v229.43M639.31 233.02l-1.71-1.7-.13.14 1.7 1.7.14-.14M637.47 713.52l1.7 1.7.14-.14-1.71-1.7-.13.14M654.45 714.58v22.14M938.01 714.58v22.14M653.6 736.15h131.17M808.68 736.15h130.18M655.23 735.23l-1.7 1.71.14.13 1.7-1.7-.14-.14M937.23 737.07l1.7-1.7-.13-.14-1.71 1.71.14.13M58.97 62.1H10.49M58.97 232.24H10.49M11.06 61.25v77.72M11.06 155.25v77.84M11.98 62.88l-1.7-1.7-.14.14 1.7 1.7.14-.14M10.14 231.46l1.7 1.7.14-.14-1.7-1.7-.14.14M58.97 61.82V7.41M1265.25 61.82V7.41M58.11 7.98h591.05M674.68 7.98h591.42M59.75 7.06l-1.7 1.7.13.14 1.7-1.7-.13-.14M1264.46 8.9l1.7-1.7-.13-.14-1.7 1.7.13.14M58.97 61.82v-20.2M654.45 61.82v-20.2M58.11 42.18h285.9M369.16 42.18H655.3M59.75 41.27l-1.7 1.7.13.13 1.7-1.7-.13-.13M653.67 43.1l1.7-1.7-.14-.13-1.7 1.7.14.13M67.47 146.89v-20.2M256.04 146.89v-20.2M66.62 127.25h86.94M169.83 127.25h87.06M68.25 126.33l-1.7 1.71.14.13 1.7-1.7-.14-.14M255.26 128.17l1.7-1.7-.14-.14-1.7 1.71.14.13M264.55 146.89v-20.2M453.12 146.89v-20.2M263.7 127.25h86.94M366.91 127.25h87.06M265.33 126.33l-1.7 1.71.14.13 1.7-1.7-.14-.14M452.34 128.17l1.7-1.7-.14-.14-1.7 1.71.14.13M461.63 146.89v-20.2M650.2 146.89v-20.2M460.78 127.25h86.93M563.99 127.25h87.06M462.41 126.33l-1.7 1.71.13.13 1.71-1.7-.14-.14M649.41 128.17l1.7-1.7-.13-.14-1.7 1.71.13.13M658.7 146.89v-20.2M852.38 146.89v-20.2M657.85 127.25h89.49M763.68 127.25h89.55M659.49 126.33l-1.71 1.71.14.13 1.7-1.7-.13-.14M851.59 128.17l1.71-1.7-.14-.14-1.7 1.71.13.13M860.88 146.89v-20.2M1054.56 146.89v-20.2M860.03 127.25h89.49M965.86 127.25h89.55M861.67 126.33l-1.7 1.71.13.13 1.7-1.7-.13-.14M1053.78 128.17l1.7-1.7-.14-.14-1.7 1.71.14.13M1063.06 146.89v-20.2M1256.74 146.89v-20.2M1062.21 127.25h89.49M1168.04 127.25h89.55M1063.85 126.33l-1.7 1.71.13.13 1.7-1.7-.13-.14M1255.96 128.17l1.7-1.7-.14-.14-1.7 1.71.14.13M650.2 70.33V58.7M658.7 70.33V58.7M649.35 59.27h1.34M658.15 59.27h1.4M650.98 58.35l-1.7 1.7.13.13 1.7-1.7-.13-.13M657.92 60.18l1.7-1.7-.13-.13-1.71 1.7.14.13M654.45 61.82v-20.2M1265.25 61.82v-20.2M653.6 42.18h293.55M972.42 42.18h293.68" class="cls-5"/><path d="m655.23 41.27-1.7 1.7.14.13 1.7-1.7-.14-.13M1264.46 43.1l1.7-1.7-.13-.13-1.7 1.7.13.13" class="cls-5"/></g><g id="Calque_9" data-name="Calque 9"><text class="cls-4" transform="rotate(-90 565.6 -78.21)"><tspan x="0" y="0">170</tspan></text><text class="cls-4" transform="translate(783.1 741.82)"><tspan x="0" y="0">100</tspan></text><text class="cls-4" transform="rotate(-90 86.145 69.655)"><tspan x="0" y="0">60</tspan></text><text class="cls-4" transform="translate(648.98 13.65)"><tspan x="0" y="0">425</tspan></text><text class="cls-4" transform="translate(343.58 47.85)"><tspan x="0" y="0">210</tspan></text><text class="cls-4" transform="translate(153 132.92)"><tspan x="0" y="0">66</tspan></text><text class="cls-4" transform="translate(350.08 132.92)"><tspan x="0" y="0">66</tspan></text><text class="cls-4" transform="translate(547.16 132.92)"><tspan x="0" y="0">66</tspan></text><text class="cls-4" transform="translate(746.79 132.92)"><tspan x="0" y="0">68</tspan></text><text class="cls-4" transform="translate(948.97 132.92)"><tspan x="0" y="0">68</tspan></text><text class="cls-4" transform="translate(1151.15 132.92)"><tspan x="0" y="0">68</tspan></text><text class="cls-4" transform="translate(650.07 64.93)"><tspan x="0" y="0">3</tspan></text><text class="cls-4" transform="translate(946.72 47.85)"><tspan x="0" y="0">215</tspan></text></g><g id="Calque_05" data-name="Calque 05"><path d="m904.42 531.11 52.12-8.56 29.67-22.09M969.8 400.65l-34.57-7.79-50.66 8.33M863.93 464.4h-.01" class="cls-2"/><path d="M931.44 552.76c.54-.02 1.08-.07 1.61-.16 13.36-2.2 26.71-4.39 40.07-6.59 3.38-.56 6.4-2.43 8.4-5.22 2-2.78 2.81-6.25 2.25-9.63s-2.43-6.4-5.22-8.4c-2.78-2-6.25-2.81-9.63-2.25-13.36 2.2-26.71 4.39-40.07 6.59-3.38.56-6.4 2.43-8.4 5.22-2 2.78-2.81 6.25-2.25 9.63.25 1.53.78 3 1.55 4.35M892.88 387.67c.76 3.18 2.7 5.95 5.42 7.75 2.72 1.81 6.02 2.52 9.24 1.99 13.36-2.2 26.71-4.39 40.07-6.59 3.38-.56 6.4-2.43 8.4-5.22 2-2.78 2.81-6.25 2.25-9.63s-2.43-6.4-5.22-8.4c-2.78-2-6.25-2.81-9.63-2.25-12.37 2.03-24.74 4.07-37.12 6.1" class="cls-2"/><path d="M654.45 232.24V714.3h283.56V555.81M885.75 400.99c-.39.06-.79.13-1.18.19" class="cls-2"/><path d="m943.37 557.49 9.03-1.48-1.05-6.42-18.3 3.01.16.98M1027.5 489.86c.47 2.87.94 5.75 1.42 8.62.1.61.44 1.15.93 1.51.5.36 1.12.5 1.72.4 3.24-.53 6.48-1.06 9.71-1.6a2.304 2.304 0 0 0 1.9-2.65c-.47-2.87-.95-5.75-1.42-8.62a2.35 2.35 0 0 0-.93-1.51c-.5-.36-1.12-.5-1.72-.4-3.24.53-6.48 1.06-9.71 1.6-.61.1-1.15.44-1.51.93-.36.5-.5 1.12-.4 1.72ZM906.31 371.43l15.34-2.53-1.05-6.42-5.7.94M863.9 464.24l1.07 6.47M1011.88 484.18l16.05 8.28M1265.25 203.88v28.36H58.97v-28.36M1028.77 497.57l-17.47-9.01M1011.04 386.74c.47 2.87.94 5.75 1.42 8.62.1.61.44 1.15.93 1.51.5.36 1.12.5 1.72.4 3.24-.53 6.48-1.06 9.71-1.6.61-.1 1.15-.44 1.51-.93.36-.5.5-1.12.4-1.72-.47-2.87-.94-5.75-1.42-8.62-.1-.61-.44-1.15-.93-1.51s-1.12-.5-1.72-.4c-3.24.53-6.48 1.06-9.71 1.6a2.304 2.304 0 0 0-1.9 2.65ZM999.24 407.97l13.08-13.52M1011.48 389.34l-14.2 14.67M1008.36 505.08l-23.66 11.99 1.51-16.61M989.52 389.54l-27.05-1.33 7.33 12.44M989.52 389.54c.66 1.18 1.32 2.35 1.97 3.53.62 1.13 1.24 2.26 1.85 3.4q.885 1.635 1.74 3.27c.55 1.05 1.09 2.1 1.63 3.15.52 1.01 1.02 2.02 1.53 3.04.44.89.87 1.78 1.3 2.67.45.95.9 1.9 1.34 2.85.42.92.84 1.84 1.25 2.76a163.451 163.451 0 0 1 3.24 7.84c.62 1.63 1.21 3.27 1.76 4.93.26.79.52 1.59.77 2.39a104 104 0 0 1 2.39 9.1c.15.72.3 1.44.44 2.16.14.7.26 1.41.39 2.11.12.69.23 1.37.34 2.06.1.67.2 1.34.29 2.01.09.65.17 1.31.25 1.96l.15 1.23.21 1.95c.07.66.13 1.32.19 1.98.06.67.11 1.34.16 2.01.1 1.37.18 2.74.23 4.12.03.7.05 1.41.07 2.11.02.71.03 1.43.04 2.15v2.18c0 .74-.02 1.48-.03 2.22-.04 1.52-.09 3.04-.18 4.56q-.06 1.17-.15 2.34l-.18 2.39c-.14 1.64-.3 3.29-.49 4.92a193.919 193.919 0 0 1-1.48 10.52c-.31 1.89-.65 3.77-1 5.66-.37 1.99-.77 3.98-1.18 5.96" class="cls-2"/><path d="M969.8 400.65c15.01 26.66 18.32 38.75 19.82 51.5s1.21 26.15-3.41 48.32M904.42 531.11c.88-.15 1.76-.29 2.65-.44h0M863.9 464.24l1.07 6.47" class="cls-2"/><path d="M938.01 348.71c-2.38 1.05-4.7 2.22-6.97 3.49-2.45 1.37-4.83 2.84-7.16 4.41-4.47 3.03-8.71 6.42-12.68 10.07-7.94 7.28-14.97 15.71-20.84 24.73-5.87 9.01-10.74 18.86-14.18 29.07a110 110 0 0 0-4.07 15.68c-.5 2.76-.88 5.53-1.14 8.33a84 84 0 0 0 0 15.57c.26 2.8.64 5.57 1.14 8.33.96 5.31 2.34 10.56 4.07 15.68 3.44 10.2 8.31 20.05 14.18 29.06s12.9 17.45 20.84 24.73c3.98 3.65 8.22 7.04 12.69 10.07a95 95 0 0 0 7.15 4.41c2.27 1.27 4.59 2.43 6.97 3.48M938.01 235.28v113.43" class="cls-2"/></g><g id="Calque_03" data-name="Calque 03"><path d="M361.4 199.63h188.57v4.25H361.4zM205.85 195.38h188.57v4.25H205.85zM852.84 195.38h188.57v4.25H852.84zM1008.38 199.63h188.57v4.25h-188.57z" class="cls-3"/></g></svg>