<?xml version="1.0" encoding="UTF-8"?>
<svg xmlns="http://www.w3.org/2000/svg" viewBox="0 0 235.27 714.4">
  <defs>
    <style>
      .cls-1 {
        fill: #fff;
        stroke-width: .5px;
      }

      .cls-1, .cls-2 {
        stroke: #000;
      }

      .cls-1, .cls-2, .cls-3 {
        stroke-linecap: round;
        stroke-linejoin: round;
      }

      .cls-2, .cls-3 {
        stroke-width: .25px;
      }

      .cls-2, .cls-3, .cls-4 {
        fill: none;
      }

      .cls-5 {
        fill: #333;
        font-family: ArialMT, Arial;
        font-size: 17.02px;
      }

      .cls-3, .cls-4 {
        stroke: #333;
      }

      .cls-4 {
        stroke-miterlimit: 10;
        stroke-width: .15px;
      }
    </style>
  </defs>
  <g id="D_faut" data-name="Défaut">
    <polyline class="cls-1" points="227.48 702.12 231.01 702.12 231.01 710.63 60.87 710.63 60.87 702.12 224.08 702.12"/>
    <rect class="cls-1" x="60.87" y="506.46" width="8.51" height="195.66"/>
    <polyline class="cls-1" points="224.08 506.46 60.87 506.46 60.87 497.95 231.01 497.95 231.01 506.46 227.48 506.46"/>
    <rect class="cls-1" x="69.38" y="506.46" width="11.34" height="11.34"/>
    <rect class="cls-1" x="212.73" y="506.46" width="11.34" height="11.34"/>
    <line class="cls-1" x1="80.72" y1="517.8" x2="224.08" y2="517.8"/>
    <rect class="cls-1" x="184.38" y="69.77" width="11.34" height="11.34"/>
    <rect class="cls-1" x="69.38" y="69.77" width="11.34" height="11.34"/>
    <line class="cls-1" x1="69.38" y1="81.11" x2="195.72" y2="81.11"/>
    <polyline class="cls-1" points="199.12 191.7 202.65 191.7 202.65 200.21 60.87 200.21 60.87 191.7 195.72 191.7"/>
    <rect class="cls-1" x="60.87" y="322.14" width="141.78" height="8.51"/>
    <polyline class="cls-1" points="195.72 69.77 60.87 69.77 60.87 61.26 202.65 61.26 202.65 69.77 199.12 69.77"/>
    <rect class="cls-1" x="194.15" y="330.65" width="8.51" height="167.3"/>
    <rect class="cls-1" x="60.87" y="330.65" width="8.51" height="167.3"/>
    <rect class="cls-1" x="60.87" y="200.21" width="8.51" height="121.93"/>
    <rect class="cls-1" x="60.87" y="69.77" width="8.51" height="121.93"/>
    <rect class="cls-1" x="69.38" y="600.04" width="153.12" height="8.51"/>
  </g>
  <g id="cote">
    <line class="cls-4" x1="60.59" y1="61.26" x2="11.76" y2="61.26"/>
    <line class="cls-4" x1="60.59" y1="710.63" x2="11.76" y2="710.63"/>
    <line class="cls-4" x1="12.32" y1="60.41" x2="12.32" y2="373.25"/>
    <line class="cls-4" x1="12.32" y1="398.46" x2="12.32" y2="711.48"/>
    <polyline class="cls-4" points="13.24 62.05 11.54 60.35 11.41 60.48 13.11 62.18 13.24 62.05"/>
    <polyline class="cls-4" points="11.41 709.84 13.11 711.55 13.24 711.41 11.54 709.71 11.41 709.84"/>
    <line class="cls-4" x1="60.59" y1="69.77" x2="44.24" y2="69.77"/>
    <line class="cls-4" x1="60.59" y1="191.7" x2="44.24" y2="191.7"/>
    <line class="cls-4" x1="44.81" y1="68.92" x2="44.81" y2="122.17"/>
    <line class="cls-4" x1="44.81" y1="138.81" x2="44.81" y2="192.55"/>
    <polyline class="cls-4" points="45.73 70.55 44.03 68.85 43.89 68.99 45.59 70.69 45.73 70.55"/>
    <polyline class="cls-4" points="43.89 190.92 45.59 192.62 45.73 192.49 44.03 190.79 43.89 190.92"/>
    <line class="cls-4" x1="60.59" y1="200.21" x2="44.24" y2="200.21"/>
    <line class="cls-4" x1="60.59" y1="322.14" x2="44.24" y2="322.14"/>
    <line class="cls-4" x1="44.81" y1="199.36" x2="44.81" y2="252.61"/>
    <line class="cls-4" x1="44.81" y1="269.25" x2="44.81" y2="322.99"/>
    <polyline class="cls-4" points="45.73 200.99 44.03 199.29 43.89 199.43 45.59 201.13 45.73 200.99"/>
    <polyline class="cls-4" points="43.89 321.36 45.59 323.06 45.73 322.93 44.03 321.22 43.89 321.36"/>
    <line class="cls-4" x1="60.59" y1="330.65" x2="44.24" y2="330.65"/>
    <line class="cls-4" x1="60.59" y1="497.95" x2="44.24" y2="497.95"/>
    <line class="cls-4" x1="44.81" y1="329.8" x2="44.81" y2="406.16"/>
    <line class="cls-4" x1="44.81" y1="422.44" x2="44.81" y2="498.8"/>
    <polyline class="cls-4" points="45.73 331.43 44.03 329.73 43.89 329.87 45.59 331.57 45.73 331.43"/>
    <polyline class="cls-4" points="43.89 497.17 45.59 498.87 45.73 498.74 44.03 497.03 43.89 497.17"/>
    <line class="cls-4" x1="60.59" y1="506.46" x2="44.24" y2="506.46"/>
    <line class="cls-4" x1="60.59" y1="702.12" x2="44.24" y2="702.12"/>
    <line class="cls-4" x1="44.81" y1="505.61" x2="44.81" y2="596.09"/>
    <line class="cls-4" x1="44.81" y1="612.43" x2="44.81" y2="702.97"/>
    <polyline class="cls-4" points="45.73 507.24 44.03 505.54 43.89 505.68 45.59 507.38 45.73 507.24"/>
    <polyline class="cls-4" points="43.89 701.34 45.59 703.04 45.73 702.9 44.03 701.2 43.89 701.34"/>
    <line class="cls-4" x1="60.87" y1="61.13" x2="60.87" y2="7.64"/>
    <line class="cls-4" x1="202.65" y1="61.13" x2="202.65" y2="7.64"/>
    <line class="cls-4" x1="60.02" y1="8.21" x2="123.63" y2="8.21"/>
    <line class="cls-4" x1="139.84" y1="8.21" x2="203.5" y2="8.21"/>
    <polyline class="cls-4" points="61.65 7.29 59.95 8.99 60.09 9.13 61.79 7.43 61.65 7.29"/>
    <polyline class="cls-4" points="201.87 9.13 203.57 7.43 203.44 7.29 201.73 8.99 201.87 9.13"/>
    <line class="cls-4" x1="202.65" y1="497.67" x2="202.65" y2="485.19"/>
    <line class="cls-4" x1="231.01" y1="497.67" x2="231.01" y2="485.19"/>
    <line class="cls-4" x1="201.8" y1="485.75" x2="209.74" y2="485.75"/>
    <line class="cls-4" x1="224.91" y1="485.75" x2="231.86" y2="485.75"/>
    <polyline class="cls-4" points="203.44 484.83 201.73 486.54 201.87 486.67 203.57 484.97 203.44 484.83"/>
    <polyline class="cls-4" points="230.23 486.67 231.93 484.97 231.79 484.83 230.09 486.54 230.23 486.67"/>
    <line class="cls-4" x1="142.19" y1="608.54" x2="125.84" y2="608.54"/>
    <line class="cls-4" x1="142.19" y1="702.12" x2="125.84" y2="702.12"/>
    <line class="cls-4" x1="126.41" y1="607.69" x2="126.41" y2="647.19"/>
    <line class="cls-4" x1="126.41" y1="663.41" x2="126.41" y2="702.97"/>
    <polyline class="cls-4" points="127.33 609.33 125.63 607.62 125.49 607.76 127.19 609.46 127.33 609.33"/>
    <polyline class="cls-4" points="125.49 701.34 127.19 703.04 127.33 702.9 125.63 701.2 125.49 701.34"/>
    <line class="cls-4" x1="142.19" y1="517.8" x2="125.84" y2="517.8"/>
    <line class="cls-4" x1="142.19" y1="600.04" x2="125.84" y2="600.04"/>
    <line class="cls-4" x1="126.41" y1="516.95" x2="126.41" y2="550.6"/>
    <line class="cls-4" x1="126.41" y1="567.06" x2="126.41" y2="600.89"/>
    <polyline class="cls-4" points="127.33 518.59 125.63 516.88 125.49 517.02 127.19 518.72 127.33 518.59"/>
    <polyline class="cls-4" points="125.49 599.25 127.19 600.95 127.33 600.82 125.63 599.12 125.49 599.25"/>
    <line class="cls-4" x1="142.19" y1="330.65" x2="125.84" y2="330.65"/>
    <line class="cls-4" x1="142.19" y1="497.95" x2="125.84" y2="497.95"/>
    <line class="cls-4" x1="126.41" y1="329.8" x2="126.41" y2="406.16"/>
    <line class="cls-4" x1="126.41" y1="422.44" x2="126.41" y2="498.8"/>
    <polyline class="cls-4" points="127.33 331.43 125.63 329.73 125.49 329.87 127.19 331.57 127.33 331.43"/>
    <polyline class="cls-4" points="125.49 497.17 127.19 498.87 127.33 498.74 125.63 497.03 125.49 497.17"/>
    <line class="cls-4" x1="142.19" y1="200.21" x2="125.84" y2="200.21"/>
    <line class="cls-4" x1="142.19" y1="322.14" x2="125.84" y2="322.14"/>
    <line class="cls-4" x1="126.41" y1="199.36" x2="126.41" y2="252.61"/>
    <line class="cls-4" x1="126.41" y1="269.25" x2="126.41" y2="322.99"/>
    <polyline class="cls-4" points="127.33 200.99 125.63 199.29 125.49 199.43 127.19 201.13 127.33 200.99"/>
    <polyline class="cls-4" points="125.49 321.36 127.19 323.06 127.33 322.93 125.63 321.22 125.49 321.36"/>
    <line class="cls-4" x1="142.19" y1="81.11" x2="125.84" y2="81.11"/>
    <line class="cls-4" x1="142.19" y1="191.7" x2="125.84" y2="191.7"/>
    <line class="cls-4" x1="126.41" y1="80.26" x2="126.41" y2="128.27"/>
    <line class="cls-4" x1="126.41" y1="144.55" x2="126.41" y2="192.55"/>
    <polyline class="cls-4" points="127.33 81.9 125.63 80.2 125.49 80.33 127.19 82.03 127.33 81.9"/>
    <polyline class="cls-4" points="125.49 190.92 127.19 192.62 127.33 192.49 125.63 190.79 125.49 190.92"/>
  </g>
  <g id="Calque_9" data-name="Calque 9">
    <text class="cls-5" transform="translate(17.75 398.89) rotate(-90)"><tspan x="0" y="0">229</tspan></text>
    <text class="cls-5" transform="translate(50.23 139) rotate(-90)"><tspan x="0" y="0">43</tspan></text>
    <text class="cls-5" transform="translate(50.23 269.44) rotate(-90)"><tspan x="0" y="0">43</tspan></text>
    <text class="cls-5" transform="translate(50.23 423.06) rotate(-90)"><tspan x="0" y="0">59</tspan></text>
    <text class="cls-5" transform="translate(50.23 612.98) rotate(-90)"><tspan x="0" y="0">69</tspan></text>
    <text class="cls-5" transform="translate(123.01 13.88)"><tspan x="0" y="0">50</tspan></text>
    <text class="cls-5" transform="translate(208.08 491.42)"><tspan x="0" y="0">10</tspan></text>
    <text class="cls-5" transform="translate(131.84 664.02) rotate(-90)"><tspan x="0" y="0">33</tspan></text>
    <text class="cls-5" transform="translate(131.84 567.49) rotate(-90)"><tspan x="0" y="0">29</tspan></text>
    <text class="cls-5" transform="translate(131.84 423.06) rotate(-90)"><tspan x="0" y="0">59</tspan></text>
    <text class="cls-5" transform="translate(131.84 269.44) rotate(-90)"><tspan x="0" y="0">43</tspan></text>
    <text class="cls-5" transform="translate(131.84 145.16) rotate(-90)"><tspan x="0" y="0">39</tspan></text>
  </g>
  <g id="Calque_05" data-name="Calque 05">
    <line class="cls-3" x1="202.65" y1="200.21" x2="202.65" y2="322.14"/>
  </g>
  <g id="Calque_03" data-name="Calque 03">
    <polygon class="cls-2" points="227.48 509.31 227.48 503.06 224.08 503.06 224.08 702.12 224.08 705.64 227.48 705.64 227.48 509.31"/>
    <polygon class="cls-2" points="199.12 70.31 199.12 66.37 195.72 66.37 195.72 191.7 195.72 195.43 199.12 195.43 199.12 70.31"/>
  </g>
</svg>