<?xml version="1.0" encoding="UTF-8"?>
<svg xmlns="http://www.w3.org/2000/svg" xmlns:xlink="http://www.w3.org/1999/xlink" viewBox="0 0 1267.4 714.4">
  <defs>
    <style>
      .cls-1, .cls-2, .cls-3, .cls-4, .cls-5, .cls-6 {
        stroke-linecap: round;
        stroke-linejoin: round;
      }

      .cls-1, .cls-2, .cls-3, .cls-5 {
        stroke-width: .5px;
      }

      .cls-1, .cls-7, .cls-3, .cls-4, .cls-8, .cls-6, .cls-9 {
        fill: none;
      }

      .cls-1, .cls-4, .cls-9 {
        stroke: #333;
      }

      .cls-2 {
        fill: #fff;
      }

      .cls-2, .cls-3, .cls-5 {
        stroke: #000;
      }

      .cls-7, .cls-10 {
        stroke-width: 0px;
      }

      .cls-11 {
        fill: #333;
        font-family: ArialMT, Arial;
        font-size: 17.02px;
      }

      .cls-4, .cls-6 {
        stroke-width: .25px;
      }

      .cls-8 {
        stroke: #1d1d1b;
        stroke-width: .3px;
      }

      .cls-5 {
        fill: url(#Cercles);
      }

      .cls-10 {
        fill: #ccc;
        opacity: .3;
      }

      .cls-6 {
        stroke: #666;
      }

      .cls-9 {
        stroke-miterlimit: 10;
        stroke-width: .15px;
      }
    </style>
    <pattern id="Cercles" x="0" y="0" width="46.77" height="54" patternTransform="translate(1513.33 2521.52) scale(1.46)" patternUnits="userSpaceOnUse" viewBox="0 0 46.77 54">
      <g>
        <rect class="cls-7" x="0" width="46.77" height="54"/>
        <g>
          <path class="cls-8" d="M41.06,21.58c.41-.72.17-1.63-.55-2.05-.72-.41-1.63-.17-2.05.55-.41.72-.17,1.63.55,2.05.72.41,1.63.17,2.05-.55Z"/>
          <path class="cls-8" d="M39.81,29.92c-.41-.72-1.33-.96-2.05-.55-.72.41-.96,1.33-.55,2.05.41.72,1.33.96,2.05.55.72-.41.96-1.33.55-2.05Z"/>
          <path class="cls-8" d="M31.56,16.83c-.41-.72-1.33-.96-2.05-.55-.72.41-.96,1.33-.55,2.05.41.72,1.33.96,2.05.55.72-.41.96-1.33.55-2.05Z"/>
          <path class="cls-8" d="M24.02,23.62c.41-.72.17-1.64-.55-2.05-.72-.42-1.64-.17-2.05.55-.41.72-.17,1.63.55,2.05.72.41,1.63.17,2.05-.55Z"/>
          <path class="cls-8" d="M26.81,29.83c-.41-.72-1.33-.96-2.05-.55-.72.41-.96,1.33-.55,2.05.41.72,1.33.96,2.05.55.72-.41.96-1.33.55-2.05Z"/>
          <circle class="cls-8" cx="32.43" cy="36" r="1.5"/>
          <path class="cls-8" d="M6.52,23.67c-.41-.72-.17-1.64.55-2.05.72-.41,1.63-.17,2.05.55.41.72.17,1.63-.55,2.05-.72.42-1.63.17-2.05-.55Z"/>
          <path class="cls-8" d="M7.15,31.25c.41-.72,1.33-.96,2.05-.55.72.42.96,1.33.55,2.05-.41.72-1.33.96-2.05.55-.72-.41-.96-1.33-.55-2.05Z"/>
          <path class="cls-8" d="M12.42,16.42c.41-.72,1.33-.96,2.05-.55.72.41.96,1.33.55,2.05-.41.72-1.33.96-2.05.55-.72-.41-.96-1.33-.55-2.05Z"/>
          <circle class="cls-8" cx="18" cy="35" r="1.5"/>
          <path class="cls-8" d="M41.02,50c-.41.72-1.33.96-2.05.55-.72-.41-.96-1.33-.55-2.05.41-.72,1.33-.96,2.05-.55.72.41.96,1.33.55,2.05Z"/>
          <path class="cls-8" d="M25.31,50.08c-.41.72-1.33.96-2.05.55-.72-.42-.96-1.33-.55-2.05.41-.72,1.33-.96,2.05-.55.72.41.96,1.33.55,2.05Z"/>
          <circle class="cls-8" cx="31.18" cy="45" r="1.5"/>
          <path class="cls-8" d="M5.77,50.38c.41.72,1.33.96,2.05.55.72-.41.96-1.33.55-2.05-.41-.72-1.33-.96-2.05-.55-.72.41-.96,1.33-.55,2.05Z"/>
          <circle class="cls-8" cx="15.84" cy="43" r="1.5"/>
          <path class="cls-8" d="M40.27,3.75c.41.72.17,1.63-.55,2.05-.72.42-1.63.17-2.05-.55-.41-.72-.17-1.64.55-2.05.72-.42,1.63-.17,2.05.55Z"/>
          <path class="cls-8" d="M32.48,9.75c-.41.72-1.33.96-2.05.55-.72-.41-.96-1.33-.55-2.05.41-.72,1.33-.96,2.05-.55.72.41.96,1.33.55,2.05Z"/>
          <path class="cls-8" d="M25.36,3.12c.41.72.17,1.63-.55,2.05-.72.41-1.63.17-2.05-.55-.41-.72-.17-1.64.55-2.05.72-.42,1.63-.17,2.05.55Z"/>
          <path class="cls-8" d="M6.49,3.75c-.41.72-.17,1.63.55,2.05.72.42,1.63.17,2.05-.55.41-.72.17-1.64-.55-2.05-.72-.42-1.64-.17-2.05.55Z"/>
          <path class="cls-8" d="M14.79,8.75c.41.72,1.33.96,2.05.55.72-.41.96-1.33.55-2.05-.41-.72-1.33-.96-2.05-.55-.72.41-.96,1.33-.55,2.05Z"/>
          <circle class="cls-8" cx="47.52" cy="17.5" r="1.5"/>
          <circle class="cls-8" cx="47.5" cy="45" r="1.5"/>
          <path class="cls-8" d="M25.81,39.33c-.41-.72-1.33-.96-2.05-.55-.72.41-.96,1.33-.55,2.05.41.72,1.33.96,2.05.55.72-.41.96-1.33.55-2.05Z"/>
          <path class="cls-8" d="M17.31,26.33c-.41-.72-1.33-.96-2.05-.55-.72.41-.96,1.33-.55,2.05.41.72,1.33.96,2.05.55.72-.41.96-1.33.55-2.05Z"/>
          <path class="cls-8" d="M33.55,24.45c-.41-.72-1.33-.96-2.05-.55-.72.41-.96,1.33-.55,2.05.41.72,1.33.96,2.05.55.72-.41.96-1.33.55-2.05Z"/>
          <path class="cls-8" d="M24.56,12.83c-.41-.72-1.33-.96-2.05-.55-.72.41-.96,1.33-.55,2.05.41.72,1.33.96,2.05.55.72-.41.96-1.33.55-2.05Z"/>
          <path class="cls-8" d="M8.06,12.33c-.41-.72-1.33-.96-2.05-.55-.72.41-.96,1.33-.55,2.05.41.72,1.33.96,2.05.55.72-.41.96-1.33.55-2.05Z"/>
          <path class="cls-8" d="M40.12,12.25c-.41-.72-1.33-.96-2.05-.55-.72.41-.96,1.33-.55,2.05.42.72,1.33.96,2.05.55.72-.42.96-1.33.55-2.05Z"/>
          <path class="cls-8" d="M8.31,39.33c-.41-.72-1.33-.96-2.05-.55-.72.41-.96,1.33-.55,2.05.41.72,1.33.96,2.05.55.72-.41.96-1.33.55-2.05Z"/>
          <path class="cls-8" d="M16.81,52.08c-.41-.72-1.33-.96-2.05-.55-.72.41-.96,1.33-.55,2.05.41.72,1.33.96,2.05.55.72-.42.96-1.33.55-2.05Z"/>
          <path class="cls-8" d="M34.56,52.58c-.41-.72-1.33-.96-2.05-.55-.72.41-.96,1.33-.55,2.05.41.72,1.33.96,2.05.55.72-.42.96-1.33.55-2.05Z"/>
          <circle class="cls-8" cx="39.5" cy="41.25" r="1.5"/>
          <circle class="cls-8" cx="46.77" cy="54.75" r="1.5"/>
          <path class="cls-8" d="M47.8,26.2c-.42-.72-1.33-.96-2.05-.55-.72.41-.96,1.33-.55,2.05.41.72,1.33.96,2.05.55.72-.41.96-1.33.55-2.05Z"/>
          <circle class="cls-8" cx="47.48" cy="8" r="1.5"/>
          <circle class="cls-8" cx="45.48" cy="36.25" r="1.5"/>
        </g>
        <g>
          <circle class="cls-8" cx=".75" cy="17.5" r="1.5"/>
          <circle class="cls-8" cx=".73" cy="45" r="1.5"/>
          <circle class="cls-8" cy="54.75" r="1.5"/>
          <path class="cls-8" d="M1.03,26.2c-.42-.72-1.33-.96-2.05-.55-.72.41-.96,1.33-.55,2.05.41.72,1.33.96,2.05.55.72-.41.96-1.33.55-2.05Z"/>
          <circle class="cls-8" cx=".72" cy="8" r="1.5"/>
          <circle class="cls-8" cx="-1.28" cy="36.25" r="1.5"/>
        </g>
        <g>
          <path class="cls-8" d="M16.81-1.93c-.41-.72-1.33-.96-2.05-.55-.72.41-.96,1.33-.55,2.05.41.72,1.33.96,2.05.55.72-.41.96-1.33.55-2.05Z"/>
          <path class="cls-8" d="M34.56-1.43c-.41-.72-1.33-.96-2.05-.55-.72.41-.96,1.33-.55,2.05.41.72,1.33.96,2.05.55.72-.41.96-1.33.55-2.05Z"/>
          <circle class="cls-8" cx="46.77" cy=".75" r="1.5"/>
        </g>
        <circle class="cls-8" cy=".75" r="1.5"/>
      </g>
    </pattern>
  </defs>
  <g id="D_faut" data-name="Défaut">
    <path class="cls-2" d="M996.18,564.78c.44,0,.87-.08,1.28-.24.44-.17.84-.44,1.18-.77s.6-.74.77-1.18c.16-.41.24-.84.24-1.28s-.08-.87-.24-1.28c-.17-.44-.44-.84-.77-1.18-.34-.34-.74-.6-1.18-.77-.41-.16-.84-.24-1.28-.24s-.87.08-1.28.24c-.44.17-.84.44-1.18.77s-.6.74-.77,1.18c-.16.41-.24.84-.24,1.28s.08.87.24,1.28c.17.44.44.84.77,1.18.34.34.74.6,1.18.77.41.16.84.24,1.28.24Z"/>
    <polyline class="cls-2" points="654.44 710.77 938.01 710.77 938.01 506.61"/>
    <rect class="cls-2" x="58.96" y="69.92" width="8.51" height="121.93"/>
    <rect class="cls-2" x="58.96" y="330.8" width="8.51" height="167.3"/>
    <rect class="cls-2" x="58.96" y="506.61" width="8.51" height="195.66"/>
    <rect class="cls-2" x="352.45" y="506.61" width="8.51" height="93.58"/>
    <rect class="cls-2" x="352.45" y="608.69" width="8.51" height="93.58"/>
    <rect class="cls-2" x="256.03" y="69.92" width="8.51" height="121.93"/>
    <rect class="cls-2" x="453.11" y="69.92" width="8.51" height="121.93"/>
    <rect class="cls-2" x="650.19" y="69.92" width="8.51" height="121.93"/>
    <rect class="cls-2" x="256.03" y="200.36" width="8.51" height="121.93"/>
    <rect class="cls-2" x="453.11" y="200.36" width="8.51" height="121.93"/>
    <rect class="cls-2" x="650.19" y="200.36" width="8.51" height="121.93"/>
    <rect class="cls-2" x="650.19" y="330.8" width="8.51" height="167.3"/>
    <rect class="cls-2" x="650.19" y="506.61" width="8.51" height="195.66"/>
    <rect class="cls-2" x="58.96" y="702.27" width="599.74" height="8.51"/>
    <rect class="cls-2" x="852.37" y="69.92" width="8.51" height="121.93"/>
    <rect class="cls-2" x="1054.55" y="69.92" width="8.51" height="121.93"/>
    <rect class="cls-2" x="1256.73" y="200.36" width="8.51" height="121.93"/>
    <rect class="cls-2" x="1256.73" y="69.92" width="8.51" height="121.93"/>
    <rect class="cls-2" x="1256.73" y="599.66" width="8.51" height="111.11"/>
    <rect class="cls-2" x="852.37" y="200.36" width="8.51" height="121.93"/>
    <rect class="cls-2" x="1054.55" y="200.36" width="8.51" height="121.93"/>
    <rect class="cls-2" x="1054.51" y="330.8" width="8.51" height="167.3"/>
    <rect class="cls-2" x="1054.51" y="506.61" width="8.51" height="84.55"/>
    <rect class="cls-2" x="58.96" y="61.41" width="1206.28" height="8.51"/>
    <rect class="cls-2" x="58.96" y="322.29" width="1206.28" height="8.51"/>
    <rect class="cls-2" x="58.96" y="191.85" width="1206.28" height="8.51"/>
    <rect class="cls-2" x="58.96" y="498.1" width="1004.06" height="8.51"/>
    <rect class="cls-2" x="1054.51" y="591.16" width="210.73" height="8.51"/>
    <line class="cls-2" x1="938.01" y1="710.77" x2="1265.24" y2="710.77"/>
    <line class="cls-2" x1="654.44" y1="69.92" x2="654.44" y2="61.41"/>
    <line class="cls-2" x1="654.44" y1="200.36" x2="654.44" y2="191.85"/>
    <line class="cls-2" x1="654.44" y1="330.8" x2="654.44" y2="322.29"/>
    <line class="cls-2" x1="654.44" y1="506.61" x2="654.44" y2="498.1"/>
    <line class="cls-2" x1="1054.51" y1="599.66" x2="1054.51" y2="710.77"/>
    <line class="cls-2" x1="1054.51" y1="591.16" x2="938.01" y2="591.16"/>
    <line class="cls-2" x1="1054.51" y1="548.88" x2="938.01" y2="548.88"/>
    <path class="cls-2" d="M996.18,607.06c.44,0,.87-.08,1.28-.24.44-.17.84-.44,1.18-.77.34-.34.6-.74.77-1.18.16-.41.24-.84.24-1.28s-.08-.87-.24-1.28c-.17-.44-.44-.84-.77-1.18-.34-.34-.74-.6-1.18-.77-.41-.16-.84-.24-1.28-.24s-.87.08-1.28.24c-.44.17-.84.44-1.18.77s-.6.74-.77,1.18c-.16.41-.24.84-.24,1.28s.08.87.24,1.28c.17.44.44.84.77,1.18s.74.6,1.18.77c.41.16.84.24,1.28.24Z"/>
    <path class="cls-2" d="M996.18,522.51c.44,0,.87-.08,1.28-.24.44-.18.84-.44,1.18-.77s.6-.74.77-1.18c.16-.41.24-.84.24-1.28s-.08-.87-.24-1.28c-.17-.44-.44-.84-.77-1.18s-.74-.6-1.18-.77c-.41-.16-.84-.24-1.28-.24s-.87.08-1.28.24c-.44.18-.84.44-1.18.77-.34.34-.6.74-.77,1.18-.16.41-.24.84-.24,1.28s.08.87.24,1.28c.17.44.44.84.77,1.18.34.34.74.6,1.18.77.41.16.84.24,1.28.24Z"/>
    <path class="cls-2" d="M1155.62,615.56c.44,0,.87-.08,1.28-.24.44-.18.84-.44,1.18-.77.34-.34.6-.74.77-1.18.16-.41.24-.84.24-1.28s-.08-.87-.24-1.28c-.17-.44-.44-.84-.77-1.18s-.74-.6-1.18-.77c-.41-.16-.84-.24-1.28-.24s-.87.08-1.28.24c-.44.18-.84.44-1.18.77s-.6.74-.77,1.18c-.16.41-.24.84-.24,1.28s.08.87.24,1.28c.17.44.44.84.77,1.18.34.34.74.6,1.18.77.41.16.84.24,1.28.24Z"/>
  </g>
  <g id="cote">
    <line class="cls-9" x1="58.96" y1="61.13" x2="58.96" y2="40.93"/>
    <line class="cls-9" x1="654.44" y1="61.13" x2="654.44" y2="40.93"/>
    <line class="cls-9" x1="58.11" y1="41.5" x2="344" y2="41.5"/>
    <line class="cls-9" x1="369.15" y1="41.5" x2="655.29" y2="41.5"/>
    <polyline class="cls-9" points="59.74 40.58 58.04 42.28 58.17 42.41 59.88 40.71 59.74 40.58"/>
    <polyline class="cls-9" points="653.66 42.41 655.36 40.71 655.22 40.58 653.52 42.28 653.66 42.41"/>
    <line class="cls-9" x1="654.44" y1="61.13" x2="654.44" y2="40.93"/>
    <line class="cls-9" x1="1265.24" y1="61.13" x2="1265.24" y2="40.93"/>
    <line class="cls-9" x1="653.59" y1="41.5" x2="947.14" y2="41.5"/>
    <line class="cls-9" x1="972.42" y1="41.5" x2="1266.09" y2="41.5"/>
    <polyline class="cls-9" points="655.22 40.58 653.52 42.28 653.66 42.41 655.36 40.71 655.22 40.58"/>
    <polyline class="cls-9" points="1264.46 42.41 1266.16 40.71 1266.02 40.58 1264.32 42.28 1264.46 42.41"/>
    <line class="cls-9" x1="650.19" y1="69.64" x2="650.19" y2="58.01"/>
    <line class="cls-9" x1="658.69" y1="69.64" x2="658.69" y2="58.01"/>
    <line class="cls-9" x1="649.34" y1="58.58" x2="650.68" y2="58.58"/>
    <line class="cls-9" x1="658.14" y1="58.58" x2="659.55" y2="58.58"/>
    <polyline class="cls-9" points="650.97 57.66 649.27 59.36 649.41 59.49 651.11 57.79 650.97 57.66"/>
    <polyline class="cls-9" points="657.91 59.49 659.61 57.79 659.48 57.66 657.78 59.36 657.91 59.49"/>
    <line class="cls-9" x1="58.96" y1="61.13" x2="58.96" y2="6.72"/>
    <line class="cls-9" x1="1265.24" y1="61.13" x2="1265.24" y2="6.72"/>
    <line class="cls-9" x1="58.11" y1="7.29" x2="649.15" y2="7.29"/>
    <line class="cls-9" x1="674.67" y1="7.29" x2="1266.09" y2="7.29"/>
    <polyline class="cls-9" points="59.74 6.37 58.04 8.07 58.17 8.21 59.88 6.51 59.74 6.37"/>
    <polyline class="cls-9" points="1264.46 8.21 1266.16 6.51 1266.02 6.37 1264.32 8.07 1264.46 8.21"/>
    <line class="cls-9" x1="58.67" y1="69.92" x2="42.33" y2="69.92"/>
    <line class="cls-9" x1="58.67" y1="191.85" x2="42.33" y2="191.85"/>
    <line class="cls-9" x1="42.89" y1="69.07" x2="42.89" y2="122.32"/>
    <line class="cls-9" x1="42.89" y1="138.96" x2="42.89" y2="192.7"/>
    <polyline class="cls-9" points="43.81 70.7 42.11 69 41.98 69.14 43.68 70.84 43.81 70.7"/>
    <polyline class="cls-9" points="41.98 191.07 43.68 192.77 43.81 192.63 42.11 190.93 41.98 191.07"/>
    <line class="cls-9" x1="58.67" y1="200.36" x2="42.33" y2="200.36"/>
    <line class="cls-9" x1="58.67" y1="322.29" x2="42.33" y2="322.29"/>
    <line class="cls-9" x1="42.89" y1="199.51" x2="42.89" y2="252.76"/>
    <line class="cls-9" x1="42.89" y1="269.4" x2="42.89" y2="323.14"/>
    <polyline class="cls-9" points="43.81 201.14 42.11 199.44 41.98 199.58 43.68 201.28 43.81 201.14"/>
    <polyline class="cls-9" points="41.98 321.51 43.68 323.21 43.81 323.07 42.11 321.37 41.98 321.51"/>
    <line class="cls-9" x1="58.67" y1="330.8" x2="42.33" y2="330.8"/>
    <line class="cls-9" x1="58.67" y1="498.1" x2="42.33" y2="498.1"/>
    <line class="cls-9" x1="42.89" y1="329.95" x2="42.89" y2="406.31"/>
    <line class="cls-9" x1="42.89" y1="422.59" x2="42.89" y2="498.95"/>
    <polyline class="cls-9" points="43.81 331.58 42.11 329.88 41.98 330.01 43.68 331.72 43.81 331.58"/>
    <polyline class="cls-9" points="41.98 497.32 43.68 499.02 43.81 498.88 42.11 497.18 41.98 497.32"/>
    <line class="cls-9" x1="58.67" y1="506.61" x2="42.33" y2="506.61"/>
    <line class="cls-9" x1="58.67" y1="702.27" x2="42.33" y2="702.27"/>
    <line class="cls-9" x1="42.89" y1="505.76" x2="42.89" y2="596.24"/>
    <line class="cls-9" x1="42.89" y1="612.57" x2="42.89" y2="703.12"/>
    <polyline class="cls-9" points="43.81 507.39 42.11 505.69 41.98 505.82 43.68 507.53 43.81 507.39"/>
    <polyline class="cls-9" points="41.98 701.48 43.68 703.19 43.81 703.05 42.11 701.35 41.98 701.48"/>
    <line class="cls-9" x1="58.67" y1="61.41" x2="9.84" y2="61.41"/>
    <line class="cls-9" x1="58.67" y1="710.77" x2="9.84" y2="710.77"/>
    <line class="cls-9" x1="10.41" y1="60.56" x2="10.41" y2="373.39"/>
    <line class="cls-9" x1="10.41" y1="398.61" x2="10.41" y2="711.62"/>
    <polyline class="cls-9" points="11.33 62.19 9.63 60.49 9.49 60.63 11.19 62.33 11.33 62.19"/>
    <polyline class="cls-9" points="9.49 709.99 11.19 711.69 11.33 711.56 9.63 709.85 9.49 709.99"/>
  </g>
  <g id="Calque_9" data-name="Calque 9">
    <text class="cls-11" transform="translate(343.57 47.17)"><tspan x="0" y="0">210</tspan></text>
    <text class="cls-11" transform="translate(946.71 47.17)"><tspan x="0" y="0">215</tspan></text>
    <text class="cls-11" transform="translate(650.07 64.25)"><tspan x="0" y="0">3</tspan></text>
    <text class="cls-11" transform="translate(648.97 12.96)"><tspan x="0" y="0">425</tspan></text>
    <text class="cls-11" transform="translate(48.32 139.15) rotate(-90)"><tspan x="0" y="0">43</tspan></text>
    <text class="cls-11" transform="translate(48.32 269.59) rotate(-90)"><tspan x="0" y="0">43</tspan></text>
    <text class="cls-11" transform="translate(48.32 423.2) rotate(-90)"><tspan x="0" y="0">59</tspan></text>
    <text class="cls-11" transform="translate(48.32 613.13) rotate(-90)"><tspan x="0" y="0">69</tspan></text>
    <text class="cls-11" transform="translate(15.84 399.04) rotate(-90)"><tspan x="0" y="0">229</tspan></text>
  </g>
  <g id="Calque_05" data-name="Calque 05">
    <rect class="cls-4" x="1093.86" y="519.51" width="129.26" height="71.65"/>
    <rect class="cls-4" x="1093.86" y="519.51" width="129.26" height="22.98"/>
    <rect class="cls-4" x="1147.99" y="574.38" width="21.42" height="5.27"/>
    <rect class="cls-4" x="1179.07" y="522.3" width="41.09" height="17.81"/>
    <rect class="cls-4" x="1154.21" y="546.45" width="8.99" height="5.27"/>
    <polyline class="cls-4" points="1223.12 574.38 1093.86 574.38 1093.86 591.16 1223.12 591.16"/>
    <line class="cls-4" x1="1054.36" y1="511.6" x2="938.01" y2="511.6"/>
    <line class="cls-4" x1="1054.36" y1="553.87" x2="938.01" y2="553.87"/>
    <line class="cls-4" x1="1054.36" y1="596.15" x2="938.01" y2="596.15"/>
    <line class="cls-1" x1="1265.24" y1="703.48" x2="1265.24" y2="62.18"/>
    <line class="cls-4" x1="1256.73" y1="604.65" x2="1054.51" y2="604.65"/>
    <rect class="cls-4" x="67.46" y="600.18" width="582.72" height="8.51"/>
    <rect class="cls-4" x="1093.86" y="510.5" width="129.26" height="9.02"/>
    <rect class="cls-10" x="938.01" y="498.1" width="26.59" height="212.67"/>
    <line class="cls-2" x1="938.01" y1="506.61" x2="938.01" y2="498.1"/>
  </g>
  <g id="Calque_06" data-name="Calque 06">
    <rect class="cls-5" x="1067.31" y="69.92" width="185.17" height="121.93"/>
    <rect class="cls-5" x="71.72" y="69.92" width="180.06" height="121.93"/>
    <rect class="cls-5" x="268.79" y="69.92" width="180.06" height="121.93"/>
    <rect class="cls-5" x="865.13" y="69.92" width="185.17" height="121.93"/>
    <rect class="cls-5" x="465.87" y="200.36" width="180.06" height="121.93"/>
    <rect class="cls-5" x="268.79" y="200.36" width="180.06" height="121.93"/>
    <rect class="cls-5" x="662.95" y="200.36" width="185.17" height="121.93"/>
    <rect class="cls-5" x="1067.31" y="200.36" width="185.17" height="121.93"/>
    <rect class="cls-5" x="71.72" y="506.61" width="280.73" height="195.66"/>
    <rect class="cls-5" x="360.95" y="506.61" width="284.98" height="195.66"/>
  </g>
  <g id="Calque_04" data-name="Calque 04">
    <rect class="cls-6" x="645.93" y="506.61" width="4.25" height="195.66"/>
    <rect class="cls-6" x="352.45" y="506.61" width="4.25" height="195.66"/>
    <rect class="cls-6" x="67.46" y="506.61" width="4.25" height="195.66"/>
    <rect class="cls-6" x="1252.48" y="200.36" width="4.25" height="121.93"/>
    <rect class="cls-6" x="1063.06" y="200.36" width="4.25" height="121.93"/>
    <rect class="cls-6" x="848.12" y="200.36" width="4.25" height="121.93"/>
    <rect class="cls-6" x="658.69" y="200.36" width="4.25" height="121.93"/>
    <rect class="cls-6" x="264.54" y="200.36" width="4.25" height="121.93"/>
    <rect class="cls-6" x="448.86" y="200.36" width="4.25" height="121.93"/>
    <rect class="cls-6" x="461.62" y="200.36" width="4.25" height="121.93"/>
    <rect class="cls-6" x="645.93" y="200.36" width="4.25" height="121.93"/>
    <rect class="cls-6" x="251.78" y="69.92" width="4.25" height="121.93"/>
    <rect class="cls-6" x="1252.48" y="69.92" width="4.25" height="121.93"/>
    <rect class="cls-6" x="1050.3" y="69.92" width="4.25" height="121.93"/>
    <rect class="cls-6" x="1063.06" y="69.92" width="4.25" height="121.93"/>
    <rect class="cls-6" x="860.88" y="69.92" width="4.25" height="121.93"/>
    <rect class="cls-6" x="264.54" y="69.92" width="4.25" height="121.93"/>
    <rect class="cls-6" x="448.86" y="69.92" width="4.25" height="121.93"/>
    <rect class="cls-6" x="67.46" y="69.92" width="4.25" height="121.93"/>
    <rect class="cls-6" x="356.7" y="506.61" width="4.25" height="195.66"/>
  </g>
  <g id="Calque_03" data-name="Calque 03">
    <polyline class="cls-3" points="1186.91 141.33 1141.67 141.33 1154.16 149.1"/>
    <polyline class="cls-3" points="383.29 141.33 338.05 141.33 350.54 149.1"/>
    <polyline class="cls-3" points="338.05 128.01 383.29 128.01 370.8 120.24"/>
    <polyline class="cls-3" points="140.97 128.01 186.21 128.01 173.72 120.24"/>
    <polyline class="cls-3" points="338.05 258.45 383.29 258.45 370.8 250.68"/>
    <polyline class="cls-3" points="580.37 271.77 535.13 271.77 547.61 279.54"/>
    <polyline class="cls-3" points="535.13 258.45 580.37 258.45 567.88 250.68"/>
    <polyline class="cls-3" points="782.55 271.77 737.31 271.77 749.8 279.54"/>
    <polyline class="cls-3" points="737.31 258.45 782.55 258.45 770.06 250.68"/>
    <polyline class="cls-3" points="984.73 141.33 939.49 141.33 951.98 149.1"/>
    <polyline class="cls-3" points="939.49 128.01 984.73 128.01 972.24 120.24"/>
    <polyline class="cls-3" points="520.14 610.28 474.9 610.28 487.39 618.05"/>
    <polyline class="cls-3" points="474.9 596.96 520.14 596.96 507.65 589.19"/>
    <polyline class="cls-3" points="230.91 610.28 185.67 610.28 198.16 618.05"/>
    <polyline class="cls-3" points="185.67 596.96 230.91 596.96 218.42 589.19"/>
    <polyline class="cls-3" points="1141.67 128.01 1186.91 128.01 1174.42 120.24"/>
    <polyline class="cls-3" points="1141.67 258.45 1186.91 258.45 1174.42 250.68"/>
    <polyline class="cls-3" points="383.29 271.77 338.05 271.77 350.54 279.54"/>
    <polyline class="cls-3" points="186.21 141.33 140.97 141.33 153.46 149.1"/>
    <polyline class="cls-3" points="1186.91 271.77 1141.67 271.77 1154.16 279.54"/>
  </g>
</svg>