<?xml version="1.0" encoding="UTF-8"?>
<svg xmlns="http://www.w3.org/2000/svg" viewBox="0 0 1267.4 743.47">
  <defs>
    <style>
      .cls-1 {
        fill: #fff;
        stroke-width: .5px;
      }

      .cls-1, .cls-2, .cls-3 {
        stroke-linecap: round;
        stroke-linejoin: round;
      }

      .cls-1, .cls-3 {
        stroke: #000;
      }

      .cls-4 {
        fill: #333;
        font-family: ArialMT, Arial;
        font-size: 17.02px;
      }

      .cls-2, .cls-3 {
        stroke-width: .25px;
      }

      .cls-2, .cls-5 {
        fill: none;
        stroke: #333;
      }

      .cls-3 {
        fill: #ccc;
      }

      .cls-5 {
        stroke-miterlimit: 10;
        stroke-width: .15px;
      }
    </style>
  </defs>
  <g id="D_faut" data-name="Défaut">
    <line class="cls-1" x1="654.45" y1="232.24" x2="654.45" y2="223.73"/>
    <rect class="cls-1" x="58.97" y="62.1" width="1206.28" height="8.51"/>
    <line class="cls-1" x1="654.45" y1="70.61" x2="654.45" y2="62.1"/>
    <rect class="cls-1" x="58.97" y="70.61" width="8.51" height="133.28"/>
    <rect class="cls-1" x="1256.74" y="70.61" width="8.51" height="133.28"/>
    <polyline class="cls-1" points="1265.25 195.38 1265.25 203.88 58.97 203.88 58.97 195.38"/>
    <line class="cls-1" x1="67.47" y1="199.63" x2="1256.74" y2="199.63"/>
    <line class="cls-1" x1="67.47" y1="195.38" x2="1256.74" y2="195.38"/>
    <rect class="cls-1" x="256.04" y="70.61" width="8.51" height="124.77"/>
    <rect class="cls-1" x="453.12" y="70.61" width="8.51" height="124.77"/>
    <rect class="cls-1" x="650.2" y="70.61" width="8.51" height="124.77"/>
    <rect class="cls-1" x="852.38" y="70.61" width="8.51" height="124.77"/>
    <rect class="cls-1" x="1054.56" y="70.61" width="8.51" height="124.77"/>
  </g>
  <g id="cote">
    <line class="cls-5" x1="654.17" y1="232.24" x2="637.82" y2="232.24"/>
    <line class="cls-5" x1="654.17" y1="714.3" x2="637.82" y2="714.3"/>
    <line class="cls-5" x1="638.39" y1="231.39" x2="638.39" y2="461.8"/>
    <line class="cls-5" x1="638.39" y1="485.72" x2="638.39" y2="715.15"/>
    <polyline class="cls-5" points="639.31 233.02 637.6 231.32 637.47 231.46 639.17 233.16 639.31 233.02"/>
    <polyline class="cls-5" points="637.47 713.52 639.17 715.22 639.31 715.08 637.6 713.38 637.47 713.52"/>
    <line class="cls-5" x1="654.45" y1="714.58" x2="654.45" y2="736.72"/>
    <line class="cls-5" x1="938.01" y1="714.58" x2="938.01" y2="736.72"/>
    <line class="cls-5" x1="653.6" y1="736.15" x2="784.77" y2="736.15"/>
    <line class="cls-5" x1="808.68" y1="736.15" x2="938.86" y2="736.15"/>
    <polyline class="cls-5" points="655.23 735.23 653.53 736.94 653.67 737.07 655.37 735.37 655.23 735.23"/>
    <polyline class="cls-5" points="937.23 737.07 938.93 735.37 938.8 735.23 937.09 736.94 937.23 737.07"/>
    <line class="cls-5" x1="58.97" y1="62.1" x2="10.49" y2="62.1"/>
    <line class="cls-5" x1="58.97" y1="232.24" x2="10.49" y2="232.24"/>
    <line class="cls-5" x1="11.06" y1="61.25" x2="11.06" y2="138.97"/>
    <line class="cls-5" x1="11.06" y1="155.25" x2="11.06" y2="233.09"/>
    <polyline class="cls-5" points="11.98 62.88 10.28 61.18 10.14 61.32 11.84 63.02 11.98 62.88"/>
    <polyline class="cls-5" points="10.14 231.46 11.84 233.16 11.98 233.02 10.28 231.32 10.14 231.46"/>
    <line class="cls-5" x1="58.97" y1="61.82" x2="58.97" y2="7.41"/>
    <line class="cls-5" x1="1265.25" y1="61.82" x2="1265.25" y2="7.41"/>
    <line class="cls-5" x1="58.11" y1="7.98" x2="649.16" y2="7.98"/>
    <line class="cls-5" x1="674.68" y1="7.98" x2="1266.1" y2="7.98"/>
    <polyline class="cls-5" points="59.75 7.06 58.05 8.76 58.18 8.9 59.88 7.2 59.75 7.06"/>
    <polyline class="cls-5" points="1264.46 8.9 1266.16 7.2 1266.03 7.06 1264.33 8.76 1264.46 8.9"/>
    <line class="cls-5" x1="58.97" y1="61.82" x2="58.97" y2="41.62"/>
    <line class="cls-5" x1="654.45" y1="61.82" x2="654.45" y2="41.62"/>
    <line class="cls-5" x1="58.11" y1="42.18" x2="344.01" y2="42.18"/>
    <line class="cls-5" x1="369.16" y1="42.18" x2="655.3" y2="42.18"/>
    <polyline class="cls-5" points="59.75 41.27 58.05 42.97 58.18 43.1 59.88 41.4 59.75 41.27"/>
    <polyline class="cls-5" points="653.67 43.1 655.37 41.4 655.23 41.27 653.53 42.97 653.67 43.1"/>
    <line class="cls-5" x1="67.47" y1="146.89" x2="67.47" y2="126.69"/>
    <line class="cls-5" x1="256.04" y1="146.89" x2="256.04" y2="126.69"/>
    <line class="cls-5" x1="66.62" y1="127.25" x2="153.56" y2="127.25"/>
    <line class="cls-5" x1="169.83" y1="127.25" x2="256.89" y2="127.25"/>
    <polyline class="cls-5" points="68.25 126.33 66.55 128.04 66.69 128.17 68.39 126.47 68.25 126.33"/>
    <polyline class="cls-5" points="255.26 128.17 256.96 126.47 256.82 126.33 255.12 128.04 255.26 128.17"/>
    <line class="cls-5" x1="264.55" y1="146.89" x2="264.55" y2="126.69"/>
    <line class="cls-5" x1="453.12" y1="146.89" x2="453.12" y2="126.69"/>
    <line class="cls-5" x1="263.7" y1="127.25" x2="350.64" y2="127.25"/>
    <line class="cls-5" x1="366.91" y1="127.25" x2="453.97" y2="127.25"/>
    <polyline class="cls-5" points="265.33 126.33 263.63 128.04 263.77 128.17 265.47 126.47 265.33 126.33"/>
    <polyline class="cls-5" points="452.34 128.17 454.04 126.47 453.9 126.33 452.2 128.04 452.34 128.17"/>
    <line class="cls-5" x1="461.63" y1="146.89" x2="461.63" y2="126.69"/>
    <line class="cls-5" x1="650.2" y1="146.89" x2="650.2" y2="126.69"/>
    <line class="cls-5" x1="460.78" y1="127.25" x2="547.71" y2="127.25"/>
    <line class="cls-5" x1="563.99" y1="127.25" x2="651.05" y2="127.25"/>
    <polyline class="cls-5" points="462.41 126.33 460.71 128.04 460.84 128.17 462.55 126.47 462.41 126.33"/>
    <polyline class="cls-5" points="649.41 128.17 651.11 126.47 650.98 126.33 649.28 128.04 649.41 128.17"/>
    <line class="cls-5" x1="658.7" y1="146.89" x2="658.7" y2="126.69"/>
    <line class="cls-5" x1="852.38" y1="146.89" x2="852.38" y2="126.69"/>
    <line class="cls-5" x1="657.85" y1="127.25" x2="747.34" y2="127.25"/>
    <line class="cls-5" x1="763.68" y1="127.25" x2="853.23" y2="127.25"/>
    <polyline class="cls-5" points="659.49 126.33 657.78 128.04 657.92 128.17 659.62 126.47 659.49 126.33"/>
    <polyline class="cls-5" points="851.59 128.17 853.3 126.47 853.16 126.33 851.46 128.04 851.59 128.17"/>
    <line class="cls-5" x1="860.88" y1="146.89" x2="860.88" y2="126.69"/>
    <line class="cls-5" x1="1054.56" y1="146.89" x2="1054.56" y2="126.69"/>
    <line class="cls-5" x1="860.03" y1="127.25" x2="949.52" y2="127.25"/>
    <line class="cls-5" x1="965.86" y1="127.25" x2="1055.41" y2="127.25"/>
    <polyline class="cls-5" points="861.67 126.33 859.97 128.04 860.1 128.17 861.8 126.47 861.67 126.33"/>
    <polyline class="cls-5" points="1053.78 128.17 1055.48 126.47 1055.34 126.33 1053.64 128.04 1053.78 128.17"/>
    <line class="cls-5" x1="1063.06" y1="146.89" x2="1063.06" y2="126.69"/>
    <line class="cls-5" x1="1256.74" y1="146.89" x2="1256.74" y2="126.69"/>
    <line class="cls-5" x1="1062.21" y1="127.25" x2="1151.7" y2="127.25"/>
    <line class="cls-5" x1="1168.04" y1="127.25" x2="1257.59" y2="127.25"/>
    <polyline class="cls-5" points="1063.85 126.33 1062.15 128.04 1062.28 128.17 1063.98 126.47 1063.85 126.33"/>
    <polyline class="cls-5" points="1255.96 128.17 1257.66 126.47 1257.52 126.33 1255.82 128.04 1255.96 128.17"/>
    <line class="cls-5" x1="650.2" y1="70.33" x2="650.2" y2="58.7"/>
    <line class="cls-5" x1="658.7" y1="70.33" x2="658.7" y2="58.7"/>
    <line class="cls-5" x1="649.35" y1="59.27" x2="650.69" y2="59.27"/>
    <line class="cls-5" x1="658.15" y1="59.27" x2="659.55" y2="59.27"/>
    <polyline class="cls-5" points="650.98 58.35 649.28 60.05 649.41 60.18 651.11 58.48 650.98 58.35"/>
    <polyline class="cls-5" points="657.92 60.18 659.62 58.48 659.49 58.35 657.78 60.05 657.92 60.18"/>
    <line class="cls-5" x1="654.45" y1="61.82" x2="654.45" y2="41.62"/>
    <line class="cls-5" x1="1265.25" y1="61.82" x2="1265.25" y2="41.62"/>
    <line class="cls-5" x1="653.6" y1="42.18" x2="947.15" y2="42.18"/>
    <line class="cls-5" x1="972.42" y1="42.18" x2="1266.1" y2="42.18"/>
    <polyline class="cls-5" points="655.23 41.27 653.53 42.97 653.67 43.1 655.37 41.4 655.23 41.27"/>
    <polyline class="cls-5" points="1264.46 43.1 1266.16 41.4 1266.03 41.27 1264.33 42.97 1264.46 43.1"/>
  </g>
  <g id="Calque_9" data-name="Calque 9">
    <text class="cls-4" transform="translate(643.81 487.39) rotate(-90)"><tspan x="0" y="0">170</tspan></text>
    <text class="cls-4" transform="translate(783.1 741.82)"><tspan x="0" y="0">100</tspan></text>
    <text class="cls-4" transform="translate(16.49 155.8) rotate(-90)"><tspan x="0" y="0">60</tspan></text>
    <text class="cls-4" transform="translate(648.98 13.65)"><tspan x="0" y="0">425</tspan></text>
    <text class="cls-4" transform="translate(343.58 47.85)"><tspan x="0" y="0">210</tspan></text>
    <text class="cls-4" transform="translate(153 132.92)"><tspan x="0" y="0">66</tspan></text>
    <text class="cls-4" transform="translate(350.08 132.92)"><tspan x="0" y="0">66</tspan></text>
    <text class="cls-4" transform="translate(547.16 132.92)"><tspan x="0" y="0">66</tspan></text>
    <text class="cls-4" transform="translate(746.79 132.92)"><tspan x="0" y="0">68</tspan></text>
    <text class="cls-4" transform="translate(948.97 132.92)"><tspan x="0" y="0">68</tspan></text>
    <text class="cls-4" transform="translate(1151.15 132.92)"><tspan x="0" y="0">68</tspan></text>
    <text class="cls-4" transform="translate(650.07 64.93)"><tspan x="0" y="0">3</tspan></text>
    <text class="cls-4" transform="translate(946.72 47.85)"><tspan x="0" y="0">215</tspan></text>
  </g>
  <g id="Calque_05" data-name="Calque 05">
    <polyline class="cls-2" points="904.42 531.11 956.54 522.55 986.21 500.46"/>
    <polyline class="cls-2" points="969.8 400.65 935.23 392.86 884.57 401.19"/>
    <line class="cls-2" x1="863.93" y1="464.4" x2="863.92" y2="464.4"/>
    <path class="cls-2" d="M931.44,552.76c.54-.02,1.08-.07,1.61-.16,13.36-2.2,26.71-4.39,40.07-6.59,3.38-.56,6.4-2.43,8.4-5.22,2-2.78,2.81-6.25,2.25-9.63-.56-3.38-2.43-6.4-5.22-8.4-2.78-2-6.25-2.81-9.63-2.25-13.36,2.2-26.71,4.39-40.07,6.59-3.38.56-6.4,2.43-8.4,5.22-2,2.78-2.81,6.25-2.25,9.63.25,1.53.78,3,1.55,4.35"/>
    <path class="cls-2" d="M892.88,387.67c.76,3.18,2.7,5.95,5.42,7.75,2.72,1.81,6.02,2.52,9.24,1.99,13.36-2.2,26.71-4.39,40.07-6.59,3.38-.56,6.4-2.43,8.4-5.22,2-2.78,2.81-6.25,2.25-9.63s-2.43-6.4-5.22-8.4c-2.78-2-6.25-2.81-9.63-2.25-12.37,2.03-24.74,4.07-37.12,6.1"/>
    <polyline class="cls-2" points="654.45 232.24 654.45 243.89 654.45 714.3 938.01 714.3 938.01 555.81"/>
    <path class="cls-2" d="M885.75,400.99h0c-.39.06-.79.13-1.18.19"/>
    <polyline class="cls-2" points="943.37 557.49 952.4 556.01 951.35 549.59 933.05 552.6 933.21 553.58"/>
    <path class="cls-2" d="M1027.5,489.86c.47,2.87.94,5.75,1.42,8.62.1.61.44,1.15.93,1.51.5.36,1.12.5,1.72.4,3.24-.53,6.48-1.06,9.71-1.6.61-.1,1.15-.44,1.5-.93.36-.5.5-1.12.4-1.72-.47-2.87-.95-5.75-1.42-8.62-.1-.61-.44-1.15-.93-1.51-.5-.36-1.12-.5-1.72-.4-3.24.53-6.48,1.06-9.71,1.6-.61.1-1.15.44-1.51.93-.36.5-.5,1.12-.4,1.72Z"/>
    <polyline class="cls-2" points="906.31 371.43 921.65 368.9 920.6 362.48 914.9 363.42"/>
    <line class="cls-2" x1="863.9" y1="464.24" x2="864.97" y2="470.71"/>
    <line class="cls-2" x1="1011.88" y1="484.18" x2="1027.93" y2="492.46"/>
    <polyline class="cls-2" points="1265.25 203.88 1265.25 232.24 58.97 232.24 58.97 203.88"/>
    <line class="cls-2" x1="1028.77" y1="497.57" x2="1011.3" y2="488.56"/>
    <path class="cls-2" d="M1011.04,386.74c.47,2.87.94,5.75,1.42,8.62.1.61.44,1.15.93,1.51.5.36,1.12.5,1.72.4,3.24-.53,6.48-1.06,9.71-1.6.61-.1,1.15-.44,1.51-.93.36-.5.5-1.12.4-1.72-.47-2.87-.94-5.75-1.42-8.62-.1-.61-.44-1.15-.93-1.51s-1.12-.5-1.72-.4c-3.24.53-6.48,1.06-9.71,1.6-.61.1-1.15.44-1.5.93-.36.5-.5,1.12-.4,1.72Z"/>
    <line class="cls-2" x1="999.24" y1="407.97" x2="1012.32" y2="394.45"/>
    <line class="cls-2" x1="1011.48" y1="389.34" x2="997.28" y2="404.01"/>
    <polyline class="cls-2" points="1008.36 505.08 984.7 517.07 986.21 500.46"/>
    <polyline class="cls-2" points="989.52 389.54 962.47 388.21 969.8 400.65"/>
    <path class="cls-2" d="M989.52,389.54c.66,1.18,1.32,2.35,1.97,3.53.62,1.13,1.24,2.26,1.85,3.4.59,1.09,1.17,2.18,1.74,3.27.55,1.05,1.09,2.1,1.63,3.15.52,1.01,1.02,2.02,1.53,3.04.44.89.87,1.78,1.3,2.67.45.95.9,1.9,1.34,2.85.42.92.84,1.84,1.25,2.76.39.89.78,1.79,1.16,2.68.72,1.71,1.42,3.43,2.08,5.16.62,1.63,1.21,3.27,1.76,4.93.26.79.52,1.59.77,2.39.24.78.48,1.56.7,2.34.22.76.43,1.53.63,2.3.2.75.38,1.5.56,2.25.18.73.34,1.47.5,2.21.15.72.3,1.44.44,2.16.14.7.26,1.41.39,2.11.12.69.23,1.37.34,2.06.1.67.2,1.34.29,2.01.09.65.17,1.31.25,1.96.05.41.1.82.15,1.23.07.65.14,1.3.21,1.95.07.66.13,1.32.19,1.98.06.67.11,1.34.16,2.01.1,1.37.18,2.74.23,4.12.03.7.05,1.41.07,2.11.02.71.03,1.43.04,2.15,0,.73,0,1.45,0,2.18,0,.74-.02,1.48-.03,2.22-.04,1.52-.09,3.04-.18,4.56-.04.78-.09,1.56-.15,2.34-.06.8-.12,1.59-.18,2.39-.14,1.64-.3,3.29-.49,4.92-.19,1.72-.41,3.43-.65,5.14-.25,1.8-.53,3.59-.83,5.38-.31,1.89-.65,3.77-1,5.66-.37,1.99-.77,3.98-1.18,5.96"/>
    <path class="cls-2" d="M969.8,400.65c15.01,26.66,18.32,38.75,19.82,51.5,1.5,12.75,1.21,26.15-3.41,48.32"/>
    <path class="cls-2" d="M904.42,531.11c.88-.15,1.76-.29,2.65-.44h0"/>
    <line class="cls-2" x1="863.9" y1="464.24" x2="864.97" y2="470.71"/>
    <path class="cls-2" d="M938.01,348.71c-2.38,1.05-4.7,2.22-6.97,3.49-2.45,1.37-4.83,2.84-7.16,4.41-4.47,3.03-8.71,6.42-12.68,10.07-7.94,7.28-14.97,15.71-20.84,24.73-5.87,9.01-10.74,18.86-14.18,29.07-1.73,5.11-3.11,10.36-4.07,15.68-.5,2.76-.88,5.53-1.14,8.33-.24,2.59-.36,5.18-.36,7.78s.12,5.19.36,7.79c.26,2.8.64,5.57,1.14,8.33.96,5.31,2.34,10.56,4.07,15.68,3.44,10.2,8.31,20.05,14.18,29.06,5.87,9.01,12.9,17.45,20.84,24.73,3.98,3.65,8.22,7.04,12.69,10.07,2.32,1.57,4.7,3.05,7.15,4.41,2.27,1.27,4.59,2.43,6.97,3.48"/>
    <line class="cls-2" x1="938.01" y1="235.28" x2="938.01" y2="348.71"/>
  </g>
  <g id="Calque_03" data-name="Calque 03">
    <rect class="cls-3" x="361.4" y="199.63" width="188.57" height="4.25"/>
    <rect class="cls-3" x="205.85" y="195.38" width="188.57" height="4.25"/>
    <rect class="cls-3" x="852.84" y="195.38" width="188.57" height="4.25"/>
    <rect class="cls-3" x="1008.38" y="199.63" width="188.57" height="4.25"/>
  </g>
</svg>