<?xml version="1.0" encoding="UTF-8"?>
<svg xmlns="http://www.w3.org/2000/svg" viewBox="0 0 1281.25 785.65">
  <defs>
    <style>
      .cls-1 {
        fill: #fff;
        stroke-width: .5px;
      }

      .cls-1, .cls-2, .cls-3 {
        stroke-linecap: round;
        stroke-linejoin: round;
      }

      .cls-1, .cls-3 {
        stroke: #000;
      }

      .cls-4 {
        fill: #333;
        font-family: ArialMT, Arial;
        font-size: 17.02px;
      }

      .cls-2, .cls-3 {
        stroke-width: .25px;
      }

      .cls-2, .cls-5 {
        fill: none;
        stroke: #333;
      }

      .cls-3 {
        fill: #ccc;
      }

      .cls-5 {
        stroke-miterlimit: 10;
        stroke-width: .15px;
      }
    </style>
  </defs>
  <g id="D_faut" data-name="Défaut">
    <line class="cls-1" x1="645.2" y1="257.7" x2="645.2" y2="249.19"/>
    <rect class="cls-1" x="49.72" y="87.56" width="1206.28" height="8.51"/>
    <line class="cls-1" x1="645.2" y1="96.07" x2="645.2" y2="87.56"/>
    <rect class="cls-1" x="49.72" y="96.07" width="8.51" height="133.28"/>
    <rect class="cls-1" x="1247.49" y="96.07" width="8.51" height="133.28"/>
    <polyline class="cls-1" points="1256 220.84 1256 229.34 49.72 229.34 49.72 220.84"/>
    <line class="cls-1" x1="58.22" y1="225.09" x2="1247.49" y2="225.09"/>
    <line class="cls-1" x1="58.22" y1="220.84" x2="1247.49" y2="220.84"/>
    <rect class="cls-1" x="246.79" y="96.07" width="8.51" height="124.77"/>
    <rect class="cls-1" x="443.87" y="96.07" width="8.51" height="124.77"/>
    <rect class="cls-1" x="640.95" y="96.07" width="8.51" height="124.77"/>
    <rect class="cls-1" x="843.13" y="96.07" width="8.51" height="124.77"/>
    <rect class="cls-1" x="1045.31" y="96.07" width="8.51" height="124.77"/>
  </g>
  <g id="cote">
    <line class="cls-5" x1="644.92" y1="257.7" x2="628.57" y2="257.7"/>
    <line class="cls-5" x1="644.92" y1="739.76" x2="628.57" y2="739.76"/>
    <line class="cls-5" x1="629.14" y1="256.85" x2="629.14" y2="487.26"/>
    <line class="cls-5" x1="629.14" y1="511.18" x2="629.14" y2="740.61"/>
    <polyline class="cls-5" points="630.06 258.48 628.35 256.78 628.22 256.92 629.92 258.62 630.06 258.48"/>
    <polyline class="cls-5" points="628.22 738.98 629.92 740.68 630.06 740.54 628.35 738.84 628.22 738.98"/>
    <line class="cls-5" x1="645.2" y1="740.04" x2="645.2" y2="762.18"/>
    <line class="cls-5" x1="928.76" y1="740.04" x2="928.76" y2="762.18"/>
    <line class="cls-5" x1="644.35" y1="761.61" x2="775.52" y2="761.61"/>
    <line class="cls-5" x1="799.43" y1="761.61" x2="929.61" y2="761.61"/>
    <polyline class="cls-5" points="645.98 760.69 644.28 762.4 644.42 762.53 646.12 760.83 645.98 760.69"/>
    <polyline class="cls-5" points="927.98 762.53 929.68 760.83 929.55 760.69 927.85 762.4 927.98 762.53"/>
    <line class="cls-5" x1="49.43" y1="87.56" x2="33.09" y2="87.56"/>
    <line class="cls-5" x1="49.43" y1="257.7" x2="33.09" y2="257.7"/>
    <line class="cls-5" x1="33.65" y1="86.71" x2="33.65" y2="164.43"/>
    <line class="cls-5" x1="33.65" y1="180.71" x2="33.65" y2="258.55"/>
    <polyline class="cls-5" points="34.57 88.34 32.87 86.64 32.73 86.78 34.44 88.48 34.57 88.34"/>
    <polyline class="cls-5" points="32.73 256.92 34.44 258.62 34.57 258.48 32.87 256.78 32.73 256.92"/>
    <line class="cls-5" x1="49.72" y1="87.28" x2="49.72" y2="32.87"/>
    <line class="cls-5" x1="1256" y1="87.28" x2="1256" y2="32.87"/>
    <line class="cls-5" x1="48.87" y1="33.44" x2="639.91" y2="33.44"/>
    <line class="cls-5" x1="665.43" y1="33.44" x2="1256.85" y2="33.44"/>
    <polyline class="cls-5" points="50.5 32.52 48.8 34.22 48.93 34.36 50.63 32.66 50.5 32.52"/>
    <polyline class="cls-5" points="1255.21 34.36 1256.92 32.66 1256.78 32.52 1255.08 34.22 1255.21 34.36"/>
    <line class="cls-5" x1="49.72" y1="87.28" x2="49.72" y2="67.08"/>
    <line class="cls-5" x1="645.2" y1="87.28" x2="645.2" y2="67.08"/>
    <line class="cls-5" x1="48.87" y1="67.64" x2="334.76" y2="67.64"/>
    <line class="cls-5" x1="359.91" y1="67.64" x2="646.05" y2="67.64"/>
    <polyline class="cls-5" points="50.5 66.73 48.8 68.43 48.93 68.56 50.63 66.86 50.5 66.73"/>
    <polyline class="cls-5" points="644.42 68.56 646.12 66.86 645.98 66.73 644.28 68.43 644.42 68.56"/>
    <line class="cls-5" x1="58.22" y1="172.35" x2="58.22" y2="152.15"/>
    <line class="cls-5" x1="246.79" y1="172.35" x2="246.79" y2="152.15"/>
    <line class="cls-5" x1="57.37" y1="152.71" x2="144.31" y2="152.71"/>
    <line class="cls-5" x1="160.58" y1="152.71" x2="247.64" y2="152.71"/>
    <polyline class="cls-5" points="59 151.79 57.3 153.5 57.44 153.63 59.14 151.93 59 151.79"/>
    <polyline class="cls-5" points="246.01 153.63 247.71 151.93 247.57 151.79 245.87 153.5 246.01 153.63"/>
    <line class="cls-5" x1="255.3" y1="172.35" x2="255.3" y2="152.15"/>
    <line class="cls-5" x1="443.87" y1="172.35" x2="443.87" y2="152.15"/>
    <line class="cls-5" x1="254.45" y1="152.71" x2="341.39" y2="152.71"/>
    <line class="cls-5" x1="357.66" y1="152.71" x2="444.72" y2="152.71"/>
    <polyline class="cls-5" points="256.08 151.79 254.38 153.5 254.52 153.63 256.22 151.93 256.08 151.79"/>
    <polyline class="cls-5" points="443.09 153.63 444.79 151.93 444.65 151.79 442.95 153.5 443.09 153.63"/>
    <line class="cls-5" x1="452.38" y1="172.35" x2="452.38" y2="152.15"/>
    <line class="cls-5" x1="640.95" y1="172.35" x2="640.95" y2="152.15"/>
    <line class="cls-5" x1="451.53" y1="152.71" x2="538.46" y2="152.71"/>
    <line class="cls-5" x1="554.74" y1="152.71" x2="641.8" y2="152.71"/>
    <polyline class="cls-5" points="453.16 151.79 451.46 153.5 451.59 153.63 453.3 151.93 453.16 151.79"/>
    <polyline class="cls-5" points="640.16 153.63 641.86 151.93 641.73 151.79 640.03 153.5 640.16 153.63"/>
    <line class="cls-5" x1="649.45" y1="172.35" x2="649.45" y2="152.15"/>
    <line class="cls-5" x1="843.13" y1="172.35" x2="843.13" y2="152.15"/>
    <line class="cls-5" x1="648.6" y1="152.71" x2="738.09" y2="152.71"/>
    <line class="cls-5" x1="754.43" y1="152.71" x2="843.98" y2="152.71"/>
    <polyline class="cls-5" points="650.24 151.79 648.53 153.5 648.67 153.63 650.37 151.93 650.24 151.79"/>
    <polyline class="cls-5" points="842.34 153.63 844.05 151.93 843.91 151.79 842.21 153.5 842.34 153.63"/>
    <line class="cls-5" x1="851.63" y1="172.35" x2="851.63" y2="152.15"/>
    <line class="cls-5" x1="1045.31" y1="172.35" x2="1045.31" y2="152.15"/>
    <line class="cls-5" x1="850.78" y1="152.71" x2="940.27" y2="152.71"/>
    <line class="cls-5" x1="956.61" y1="152.71" x2="1046.16" y2="152.71"/>
    <polyline class="cls-5" points="852.42 151.79 850.72 153.5 850.85 153.63 852.55 151.93 852.42 151.79"/>
    <polyline class="cls-5" points="1044.53 153.63 1046.23 151.93 1046.09 151.79 1044.39 153.5 1044.53 153.63"/>
    <line class="cls-5" x1="1053.81" y1="172.35" x2="1053.81" y2="152.15"/>
    <line class="cls-5" x1="1247.49" y1="172.35" x2="1247.49" y2="152.15"/>
    <line class="cls-5" x1="1052.96" y1="152.71" x2="1142.45" y2="152.71"/>
    <line class="cls-5" x1="1158.79" y1="152.71" x2="1248.34" y2="152.71"/>
    <polyline class="cls-5" points="1054.6 151.79 1052.9 153.5 1053.03 153.63 1054.73 151.93 1054.6 151.79"/>
    <polyline class="cls-5" points="1246.71 153.63 1248.41 151.93 1248.27 151.79 1246.57 153.5 1246.71 153.63"/>
    <line class="cls-5" x1="640.95" y1="95.79" x2="640.95" y2="84.16"/>
    <line class="cls-5" x1="649.45" y1="95.79" x2="649.45" y2="84.16"/>
    <line class="cls-5" x1="640.1" y1="84.73" x2="641.44" y2="84.73"/>
    <line class="cls-5" x1="648.9" y1="84.73" x2="650.3" y2="84.73"/>
    <polyline class="cls-5" points="641.73 83.81 640.03 85.51 640.16 85.64 641.86 83.94 641.73 83.81"/>
    <polyline class="cls-5" points="648.67 85.64 650.37 83.94 650.24 83.81 648.53 85.51 648.67 85.64"/>
    <line class="cls-5" x1="645.2" y1="87.28" x2="645.2" y2="67.08"/>
    <line class="cls-5" x1="1256" y1="87.28" x2="1256" y2="67.08"/>
    <line class="cls-5" x1="644.35" y1="67.64" x2="937.9" y2="67.64"/>
    <line class="cls-5" x1="963.17" y1="67.64" x2="1256.85" y2="67.64"/>
    <polyline class="cls-5" points="645.98 66.73 644.28 68.43 644.42 68.56 646.12 66.86 645.98 66.73"/>
    <polyline class="cls-5" points="1255.21 68.56 1256.92 66.86 1256.78 66.73 1255.08 68.43 1255.21 68.56"/>
  </g>
  <g id="Calque_9" data-name="Calque 9">
    <text class="cls-4" transform="translate(634.56 512.85) rotate(-90)"><tspan x="0" y="0">170</tspan></text>
    <text class="cls-4" transform="translate(773.85 767.28)"><tspan x="0" y="0">100</tspan></text>
    <text class="cls-4" transform="translate(39.08 181.26) rotate(-90)"><tspan x="0" y="0">60</tspan></text>
    <text class="cls-4" transform="translate(639.73 39.11)"><tspan x="0" y="0">425</tspan></text>
    <text class="cls-4" transform="translate(334.33 73.31)"><tspan x="0" y="0">210</tspan></text>
    <text class="cls-4" transform="translate(143.75 158.38)"><tspan x="0" y="0">66</tspan></text>
    <text class="cls-4" transform="translate(340.83 158.38)"><tspan x="0" y="0">66</tspan></text>
    <text class="cls-4" transform="translate(537.91 158.38)"><tspan x="0" y="0">66</tspan></text>
    <text class="cls-4" transform="translate(737.54 158.38)"><tspan x="0" y="0">68</tspan></text>
    <text class="cls-4" transform="translate(939.72 158.38)"><tspan x="0" y="0">68</tspan></text>
    <text class="cls-4" transform="translate(1141.9 158.38)"><tspan x="0" y="0">68</tspan></text>
    <text class="cls-4" transform="translate(640.82 90.39)"><tspan x="0" y="0">3</tspan></text>
    <text class="cls-4" transform="translate(937.47 73.31)"><tspan x="0" y="0">215</tspan></text>
  </g>
  <g id="Calque_05" data-name="Calque 05">
    <polyline class="cls-2" points="895.17 556.57 947.29 548.01 976.96 525.92"/>
    <polyline class="cls-2" points="960.55 426.11 925.98 418.32 875.32 426.65"/>
    <line class="cls-2" x1="854.68" y1="489.86" x2="854.67" y2="489.86"/>
    <path class="cls-2" d="M922.19,578.22c.54-.02,1.08-.07,1.61-.16,13.36-2.2,26.71-4.39,40.07-6.59,3.38-.56,6.4-2.43,8.4-5.22,2-2.78,2.81-6.25,2.25-9.63-.56-3.38-2.43-6.4-5.22-8.4-2.78-2-6.25-2.81-9.63-2.25-13.36,2.2-26.71,4.39-40.07,6.59-3.38.56-6.4,2.43-8.4,5.22-2,2.78-2.81,6.25-2.25,9.63.25,1.53.78,3,1.55,4.35"/>
    <path class="cls-2" d="M883.63,413.13c.76,3.18,2.7,5.95,5.42,7.75,2.72,1.81,6.02,2.52,9.24,1.99,13.36-2.2,26.71-4.39,40.07-6.59,3.38-.56,6.4-2.43,8.4-5.22,2-2.78,2.81-6.25,2.25-9.63s-2.43-6.4-5.22-8.4c-2.78-2-6.25-2.81-9.63-2.25-12.37,2.03-24.74,4.07-37.12,6.1"/>
    <polyline class="cls-2" points="645.2 257.7 645.2 269.35 645.2 739.76 928.76 739.76 928.76 581.27"/>
    <path class="cls-2" d="M876.5,426.45h0c-.39.06-.79.13-1.18.19"/>
    <polyline class="cls-2" points="934.12 582.95 943.15 581.47 942.1 575.05 923.8 578.06 923.96 579.04"/>
    <path class="cls-2" d="M1018.25,515.32c.47,2.87.94,5.75,1.42,8.62.1.61.44,1.15.93,1.51.5.36,1.12.5,1.72.4,3.24-.53,6.48-1.06,9.71-1.6.61-.1,1.15-.44,1.5-.93.36-.5.5-1.12.4-1.72-.47-2.87-.95-5.75-1.42-8.62-.1-.61-.44-1.15-.93-1.51-.5-.36-1.12-.5-1.72-.4-3.24.53-6.48,1.06-9.71,1.6-.61.1-1.15.44-1.51.93-.36.5-.5,1.12-.4,1.72Z"/>
    <polyline class="cls-2" points="897.06 396.89 912.4 394.36 911.35 387.94 905.65 388.88"/>
    <line class="cls-2" x1="854.65" y1="489.7" x2="855.72" y2="496.17"/>
    <line class="cls-2" x1="1002.63" y1="509.64" x2="1018.68" y2="517.92"/>
    <polyline class="cls-2" points="1256 229.34 1256 257.7 49.72 257.7 49.72 229.34"/>
    <line class="cls-2" x1="1019.52" y1="523.03" x2="1002.05" y2="514.02"/>
    <path class="cls-2" d="M1001.79,412.2c.47,2.87.94,5.75,1.42,8.62.1.61.44,1.15.93,1.51.5.36,1.12.5,1.72.4,3.24-.53,6.48-1.06,9.71-1.6.61-.1,1.15-.44,1.51-.93.36-.5.5-1.12.4-1.72-.47-2.87-.94-5.75-1.42-8.62-.1-.61-.44-1.15-.93-1.51s-1.12-.5-1.72-.4c-3.24.53-6.48,1.06-9.71,1.6-.61.1-1.15.44-1.5.93-.36.5-.5,1.12-.4,1.72Z"/>
    <line class="cls-2" x1="989.99" y1="433.43" x2="1003.07" y2="419.91"/>
    <line class="cls-2" x1="1002.23" y1="414.8" x2="988.03" y2="429.47"/>
    <polyline class="cls-2" points="999.11 530.54 975.45 542.53 976.96 525.92"/>
    <polyline class="cls-2" points="980.27 415 953.22 413.67 960.55 426.11"/>
    <path class="cls-2" d="M980.27,415c.66,1.18,1.32,2.35,1.97,3.53.62,1.13,1.24,2.26,1.85,3.4.59,1.09,1.17,2.18,1.74,3.27.55,1.05,1.09,2.1,1.63,3.15.52,1.01,1.02,2.02,1.53,3.04.44.89.87,1.78,1.3,2.67.45.95.9,1.9,1.34,2.85.42.92.84,1.84,1.25,2.76.39.89.78,1.79,1.16,2.68.72,1.71,1.42,3.43,2.08,5.16.62,1.63,1.21,3.27,1.76,4.93.26.79.52,1.59.77,2.39.24.78.48,1.56.7,2.34.22.76.43,1.53.63,2.3.2.75.38,1.5.56,2.25.18.73.34,1.47.5,2.21.15.72.3,1.44.44,2.16.14.7.26,1.41.39,2.11.12.69.23,1.37.34,2.06.1.67.2,1.34.29,2.01.09.65.17,1.31.25,1.96.05.41.1.82.15,1.23.07.65.14,1.3.21,1.95.07.66.13,1.32.19,1.98.06.67.11,1.34.16,2.01.1,1.37.18,2.74.23,4.12.03.7.05,1.41.07,2.11.02.71.03,1.43.04,2.15,0,.73,0,1.45,0,2.18,0,.74-.02,1.48-.03,2.22-.04,1.52-.09,3.04-.18,4.56-.04.78-.09,1.56-.15,2.34-.06.8-.12,1.59-.18,2.39-.14,1.64-.3,3.29-.49,4.92-.19,1.72-.41,3.43-.65,5.14-.25,1.8-.53,3.59-.83,5.38-.31,1.89-.65,3.77-1,5.66-.37,1.99-.77,3.98-1.18,5.96"/>
    <path class="cls-2" d="M960.55,426.11c15.01,26.66,18.32,38.75,19.82,51.5,1.5,12.75,1.21,26.15-3.41,48.32"/>
    <path class="cls-2" d="M895.17,556.57c.88-.15,1.76-.29,2.65-.44h0"/>
    <line class="cls-2" x1="854.65" y1="489.7" x2="855.72" y2="496.17"/>
    <path class="cls-2" d="M928.76,374.17c-2.38,1.05-4.7,2.22-6.97,3.49-2.45,1.37-4.83,2.84-7.16,4.41-4.47,3.03-8.71,6.42-12.68,10.07-7.94,7.28-14.97,15.71-20.84,24.73-5.87,9.01-10.74,18.86-14.18,29.07-1.73,5.11-3.11,10.36-4.07,15.68-.5,2.76-.88,5.53-1.14,8.33-.24,2.59-.36,5.18-.36,7.78s.12,5.19.36,7.79c.26,2.8.64,5.57,1.14,8.33.96,5.31,2.34,10.56,4.07,15.68,3.44,10.2,8.31,20.05,14.18,29.06,5.87,9.01,12.9,17.45,20.84,24.73,3.98,3.65,8.22,7.04,12.69,10.07,2.32,1.57,4.7,3.05,7.15,4.41,2.27,1.27,4.59,2.43,6.97,3.48"/>
    <line class="cls-2" x1="928.76" y1="260.74" x2="928.76" y2="374.17"/>
  </g>
  <g id="Calque_03" data-name="Calque 03">
    <rect class="cls-3" x="352.15" y="225.09" width="188.57" height="4.25"/>
    <rect class="cls-3" x="196.6" y="220.84" width="188.57" height="4.25"/>
    <rect class="cls-3" x="843.59" y="220.84" width="188.57" height="4.25"/>
    <rect class="cls-3" x="999.13" y="225.09" width="188.57" height="4.25"/>
  </g>
</svg>