<?xml version="1.0" encoding="UTF-8"?>
<svg xmlns="http://www.w3.org/2000/svg" xmlns:xlink="http://www.w3.org/1999/xlink" viewBox="0 0 1281.24 738.03">
  <defs>
    <style>
      .cls-1, .cls-2, .cls-3, .cls-4, .cls-5, .cls-6 {
        stroke-linecap: round;
        stroke-linejoin: round;
      }

      .cls-1, .cls-2, .cls-3, .cls-5 {
        stroke-width: .5px;
      }

      .cls-1, .cls-7, .cls-3, .cls-4, .cls-8, .cls-6, .cls-9 {
        fill: none;
      }

      .cls-1, .cls-4, .cls-9 {
        stroke: #333;
      }

      .cls-2 {
        fill: #fff;
      }

      .cls-2, .cls-3, .cls-5 {
        stroke: #000;
      }

      .cls-7, .cls-10 {
        stroke-width: 0px;
      }

      .cls-11 {
        fill: #333;
        font-family: ArialMT, Arial;
        font-size: 17.02px;
      }

      .cls-4, .cls-6 {
        stroke-width: .25px;
      }

      .cls-8 {
        stroke: #1d1d1b;
        stroke-width: .3px;
      }

      .cls-5 {
        fill: url(#Cercles);
      }

      .cls-10 {
        fill: #ccc;
        opacity: .3;
      }

      .cls-6 {
        stroke: #666;
      }

      .cls-9 {
        stroke-miterlimit: 10;
        stroke-width: .15px;
      }
    </style>
    <pattern id="Cercles" x="0" y="0" width="46.77" height="54" patternTransform="translate(1522.27 2535.3) scale(1.46)" patternUnits="userSpaceOnUse" viewBox="0 0 46.77 54">
      <g>
        <rect class="cls-7" x="0" width="46.77" height="54"/>
        <g>
          <path class="cls-8" d="M41.06,21.58c.41-.72.17-1.63-.55-2.05-.72-.41-1.63-.17-2.05.55-.41.72-.17,1.63.55,2.05.72.41,1.63.17,2.05-.55Z"/>
          <path class="cls-8" d="M39.81,29.92c-.41-.72-1.33-.96-2.05-.55-.72.41-.96,1.33-.55,2.05.41.72,1.33.96,2.05.55.72-.41.96-1.33.55-2.05Z"/>
          <path class="cls-8" d="M31.56,16.83c-.41-.72-1.33-.96-2.05-.55-.72.41-.96,1.33-.55,2.05.41.72,1.33.96,2.05.55.72-.41.96-1.33.55-2.05Z"/>
          <path class="cls-8" d="M24.02,23.62c.41-.72.17-1.64-.55-2.05-.72-.42-1.64-.17-2.05.55-.41.72-.17,1.63.55,2.05.72.41,1.63.17,2.05-.55Z"/>
          <path class="cls-8" d="M26.81,29.83c-.41-.72-1.33-.96-2.05-.55-.72.41-.96,1.33-.55,2.05.41.72,1.33.96,2.05.55.72-.41.96-1.33.55-2.05Z"/>
          <circle class="cls-8" cx="32.43" cy="36" r="1.5"/>
          <path class="cls-8" d="M6.52,23.67c-.41-.72-.17-1.64.55-2.05.72-.41,1.63-.17,2.05.55.41.72.17,1.63-.55,2.05-.72.42-1.63.17-2.05-.55Z"/>
          <path class="cls-8" d="M7.15,31.25c.41-.72,1.33-.96,2.05-.55.72.42.96,1.33.55,2.05-.41.72-1.33.96-2.05.55-.72-.41-.96-1.33-.55-2.05Z"/>
          <path class="cls-8" d="M12.42,16.42c.41-.72,1.33-.96,2.05-.55.72.41.96,1.33.55,2.05-.41.72-1.33.96-2.05.55-.72-.41-.96-1.33-.55-2.05Z"/>
          <circle class="cls-8" cx="18" cy="35" r="1.5"/>
          <path class="cls-8" d="M41.02,50c-.41.72-1.33.96-2.05.55-.72-.41-.96-1.33-.55-2.05.41-.72,1.33-.96,2.05-.55.72.41.96,1.33.55,2.05Z"/>
          <path class="cls-8" d="M25.31,50.08c-.41.72-1.33.96-2.05.55-.72-.42-.96-1.33-.55-2.05.41-.72,1.33-.96,2.05-.55.72.41.96,1.33.55,2.05Z"/>
          <circle class="cls-8" cx="31.18" cy="45" r="1.5"/>
          <path class="cls-8" d="M5.77,50.38c.41.72,1.33.96,2.05.55.72-.41.96-1.33.55-2.05-.41-.72-1.33-.96-2.05-.55-.72.41-.96,1.33-.55,2.05Z"/>
          <circle class="cls-8" cx="15.84" cy="43" r="1.5"/>
          <path class="cls-8" d="M40.27,3.75c.41.72.17,1.63-.55,2.05-.72.42-1.63.17-2.05-.55-.41-.72-.17-1.64.55-2.05.72-.42,1.63-.17,2.05.55Z"/>
          <path class="cls-8" d="M32.48,9.75c-.41.72-1.33.96-2.05.55-.72-.41-.96-1.33-.55-2.05.41-.72,1.33-.96,2.05-.55.72.41.96,1.33.55,2.05Z"/>
          <path class="cls-8" d="M25.36,3.12c.41.72.17,1.63-.55,2.05-.72.41-1.63.17-2.05-.55-.41-.72-.17-1.64.55-2.05.72-.42,1.63-.17,2.05.55Z"/>
          <path class="cls-8" d="M6.49,3.75c-.41.72-.17,1.63.55,2.05.72.42,1.63.17,2.05-.55.41-.72.17-1.64-.55-2.05-.72-.42-1.64-.17-2.05.55Z"/>
          <path class="cls-8" d="M14.79,8.75c.41.72,1.33.96,2.05.55.72-.41.96-1.33.55-2.05-.41-.72-1.33-.96-2.05-.55-.72.41-.96,1.33-.55,2.05Z"/>
          <circle class="cls-8" cx="47.52" cy="17.5" r="1.5"/>
          <circle class="cls-8" cx="47.5" cy="45" r="1.5"/>
          <path class="cls-8" d="M25.81,39.33c-.41-.72-1.33-.96-2.05-.55-.72.41-.96,1.33-.55,2.05.41.72,1.33.96,2.05.55.72-.41.96-1.33.55-2.05Z"/>
          <path class="cls-8" d="M17.31,26.33c-.41-.72-1.33-.96-2.05-.55-.72.41-.96,1.33-.55,2.05.41.72,1.33.96,2.05.55.72-.41.96-1.33.55-2.05Z"/>
          <path class="cls-8" d="M33.55,24.45c-.41-.72-1.33-.96-2.05-.55-.72.41-.96,1.33-.55,2.05.41.72,1.33.96,2.05.55.72-.41.96-1.33.55-2.05Z"/>
          <path class="cls-8" d="M24.56,12.83c-.41-.72-1.33-.96-2.05-.55-.72.41-.96,1.33-.55,2.05.41.72,1.33.96,2.05.55.72-.41.96-1.33.55-2.05Z"/>
          <path class="cls-8" d="M8.06,12.33c-.41-.72-1.33-.96-2.05-.55-.72.41-.96,1.33-.55,2.05.41.72,1.33.96,2.05.55.72-.41.96-1.33.55-2.05Z"/>
          <path class="cls-8" d="M40.12,12.25c-.41-.72-1.33-.96-2.05-.55-.72.41-.96,1.33-.55,2.05.42.72,1.33.96,2.05.55.72-.42.96-1.33.55-2.05Z"/>
          <path class="cls-8" d="M8.31,39.33c-.41-.72-1.33-.96-2.05-.55-.72.41-.96,1.33-.55,2.05.41.72,1.33.96,2.05.55.72-.41.96-1.33.55-2.05Z"/>
          <path class="cls-8" d="M16.81,52.08c-.41-.72-1.33-.96-2.05-.55-.72.41-.96,1.33-.55,2.05.41.72,1.33.96,2.05.55.72-.42.96-1.33.55-2.05Z"/>
          <path class="cls-8" d="M34.56,52.58c-.41-.72-1.33-.96-2.05-.55-.72.41-.96,1.33-.55,2.05.41.72,1.33.96,2.05.55.72-.42.96-1.33.55-2.05Z"/>
          <circle class="cls-8" cx="39.5" cy="41.25" r="1.5"/>
          <circle class="cls-8" cx="46.77" cy="54.75" r="1.5"/>
          <path class="cls-8" d="M47.8,26.2c-.42-.72-1.33-.96-2.05-.55-.72.41-.96,1.33-.55,2.05.41.72,1.33.96,2.05.55.72-.41.96-1.33.55-2.05Z"/>
          <circle class="cls-8" cx="47.48" cy="8" r="1.5"/>
          <circle class="cls-8" cx="45.48" cy="36.25" r="1.5"/>
        </g>
        <g>
          <circle class="cls-8" cx=".75" cy="17.5" r="1.5"/>
          <circle class="cls-8" cx=".73" cy="45" r="1.5"/>
          <circle class="cls-8" cy="54.75" r="1.5"/>
          <path class="cls-8" d="M1.03,26.2c-.42-.72-1.33-.96-2.05-.55-.72.41-.96,1.33-.55,2.05.41.72,1.33.96,2.05.55.72-.41.96-1.33.55-2.05Z"/>
          <circle class="cls-8" cx=".72" cy="8" r="1.5"/>
          <circle class="cls-8" cx="-1.28" cy="36.25" r="1.5"/>
        </g>
        <g>
          <path class="cls-8" d="M16.81-1.93c-.41-.72-1.33-.96-2.05-.55-.72.41-.96,1.33-.55,2.05.41.72,1.33.96,2.05.55.72-.41.96-1.33.55-2.05Z"/>
          <path class="cls-8" d="M34.56-1.43c-.41-.72-1.33-.96-2.05-.55-.72.41-.96,1.33-.55,2.05.41.72,1.33.96,2.05.55.72-.41.96-1.33.55-2.05Z"/>
          <circle class="cls-8" cx="46.77" cy=".75" r="1.5"/>
        </g>
        <circle class="cls-8" cy=".75" r="1.5"/>
      </g>
    </pattern>
  </defs>
  <g id="D_faut" data-name="Défaut">
    <path class="cls-2" d="M1005.12,578.57c.44,0,.87-.08,1.28-.24.44-.17.84-.44,1.18-.77s.6-.74.77-1.18c.16-.41.24-.84.24-1.28s-.08-.87-.24-1.28c-.17-.44-.44-.84-.77-1.18-.34-.34-.74-.6-1.18-.77-.41-.16-.84-.24-1.28-.24s-.87.08-1.28.24c-.44.17-.84.44-1.18.77s-.6.74-.77,1.18c-.16.41-.24.84-.24,1.28s.08.87.24,1.28c.17.44.44.84.77,1.18.34.34.74.6,1.18.77.41.16.84.24,1.28.24Z"/>
    <polyline class="cls-2" points="663.38 724.56 946.94 724.56 946.94 520.39"/>
    <rect class="cls-2" x="67.9" y="83.7" width="8.51" height="121.93"/>
    <rect class="cls-2" x="67.9" y="344.58" width="8.51" height="167.3"/>
    <rect class="cls-2" x="67.9" y="520.39" width="8.51" height="195.66"/>
    <rect class="cls-2" x="361.38" y="520.39" width="8.51" height="93.58"/>
    <rect class="cls-2" x="361.38" y="622.48" width="8.51" height="93.58"/>
    <rect class="cls-2" x="264.97" y="83.7" width="8.51" height="121.93"/>
    <rect class="cls-2" x="462.05" y="83.7" width="8.51" height="121.93"/>
    <rect class="cls-2" x="659.13" y="83.7" width="8.51" height="121.93"/>
    <rect class="cls-2" x="264.97" y="214.14" width="8.51" height="121.93"/>
    <rect class="cls-2" x="462.05" y="214.14" width="8.51" height="121.93"/>
    <rect class="cls-2" x="659.13" y="214.14" width="8.51" height="121.93"/>
    <rect class="cls-2" x="659.13" y="344.58" width="8.51" height="167.3"/>
    <rect class="cls-2" x="659.13" y="520.39" width="8.51" height="195.66"/>
    <rect class="cls-2" x="67.9" y="716.05" width="599.74" height="8.51"/>
    <rect class="cls-2" x="861.31" y="83.7" width="8.51" height="121.93"/>
    <rect class="cls-2" x="1063.49" y="83.7" width="8.51" height="121.93"/>
    <rect class="cls-2" x="1265.67" y="214.14" width="8.51" height="121.93"/>
    <rect class="cls-2" x="1265.67" y="83.7" width="8.51" height="121.93"/>
    <rect class="cls-2" x="1265.67" y="613.45" width="8.51" height="111.11"/>
    <rect class="cls-2" x="861.31" y="214.14" width="8.51" height="121.93"/>
    <rect class="cls-2" x="1063.49" y="214.14" width="8.51" height="121.93"/>
    <rect class="cls-2" x="1063.45" y="344.58" width="8.51" height="167.3"/>
    <rect class="cls-2" x="1063.45" y="520.39" width="8.51" height="84.55"/>
    <rect class="cls-2" x="67.9" y="75.2" width="1206.28" height="8.51"/>
    <rect class="cls-2" x="67.9" y="336.08" width="1206.28" height="8.51"/>
    <rect class="cls-2" x="67.9" y="205.64" width="1206.28" height="8.51"/>
    <rect class="cls-2" x="67.9" y="511.89" width="1004.06" height="8.51"/>
    <rect class="cls-2" x="1063.45" y="604.94" width="210.73" height="8.51"/>
    <line class="cls-2" x1="946.94" y1="724.56" x2="1274.18" y2="724.56"/>
    <line class="cls-2" x1="663.38" y1="83.7" x2="663.38" y2="75.2"/>
    <line class="cls-2" x1="663.38" y1="214.14" x2="663.38" y2="205.64"/>
    <line class="cls-2" x1="663.38" y1="344.58" x2="663.38" y2="336.08"/>
    <line class="cls-2" x1="663.38" y1="520.39" x2="663.38" y2="511.89"/>
    <line class="cls-2" x1="1063.45" y1="613.45" x2="1063.45" y2="724.56"/>
    <line class="cls-2" x1="1063.45" y1="604.94" x2="946.94" y2="604.94"/>
    <line class="cls-2" x1="1063.45" y1="562.67" x2="946.94" y2="562.67"/>
    <path class="cls-2" d="M1005.12,620.84c.44,0,.87-.08,1.28-.24.44-.17.84-.44,1.18-.77.34-.34.6-.74.77-1.18.16-.41.24-.84.24-1.28s-.08-.87-.24-1.28c-.17-.44-.44-.84-.77-1.18-.34-.34-.74-.6-1.18-.77-.41-.16-.84-.24-1.28-.24s-.87.08-1.28.24c-.44.17-.84.44-1.18.77s-.6.74-.77,1.18c-.16.41-.24.84-.24,1.28s.08.87.24,1.28c.17.44.44.84.77,1.18s.74.6,1.18.77c.41.16.84.24,1.28.24Z"/>
    <path class="cls-2" d="M1005.12,536.29c.44,0,.87-.08,1.28-.24.44-.18.84-.44,1.18-.77s.6-.74.77-1.18c.16-.41.24-.84.24-1.28s-.08-.87-.24-1.28c-.17-.44-.44-.84-.77-1.18s-.74-.6-1.18-.77c-.41-.16-.84-.24-1.28-.24s-.87.08-1.28.24c-.44.18-.84.44-1.18.77-.34.34-.6.74-.77,1.18-.16.41-.24.84-.24,1.28s.08.87.24,1.28c.17.44.44.84.77,1.18.34.34.74.6,1.18.77.41.16.84.24,1.28.24Z"/>
    <path class="cls-2" d="M1164.56,629.35c.44,0,.87-.08,1.28-.24.44-.18.84-.44,1.18-.77.34-.34.6-.74.77-1.18.16-.41.24-.84.24-1.28s-.08-.87-.24-1.28c-.17-.44-.44-.84-.77-1.18s-.74-.6-1.18-.77c-.41-.16-.84-.24-1.28-.24s-.87.08-1.28.24c-.44.18-.84.44-1.18.77s-.6.74-.77,1.18c-.16.41-.24.84-.24,1.28s.08.87.24,1.28c.17.44.44.84.77,1.18.34.34.74.6,1.18.77.41.16.84.24,1.28.24Z"/>
  </g>
  <g id="cote">
    <line class="cls-9" x1="67.9" y1="74.91" x2="67.9" y2="54.71"/>
    <line class="cls-9" x1="663.38" y1="74.91" x2="663.38" y2="54.71"/>
    <line class="cls-9" x1="67.04" y1="55.28" x2="352.94" y2="55.28"/>
    <line class="cls-9" x1="378.09" y1="55.28" x2="664.23" y2="55.28"/>
    <polyline class="cls-9" points="68.68 54.36 66.98 56.06 67.11 56.2 68.81 54.5 68.68 54.36"/>
    <polyline class="cls-9" points="662.6 56.2 664.3 54.5 664.16 54.36 662.46 56.06 662.6 56.2"/>
    <line class="cls-9" x1="663.38" y1="74.91" x2="663.38" y2="54.71"/>
    <line class="cls-9" x1="1274.18" y1="74.91" x2="1274.18" y2="54.71"/>
    <line class="cls-9" x1="662.53" y1="55.28" x2="956.08" y2="55.28"/>
    <line class="cls-9" x1="981.35" y1="55.28" x2="1275.03" y2="55.28"/>
    <polyline class="cls-9" points="664.16 54.36 662.46 56.06 662.6 56.2 664.3 54.5 664.16 54.36"/>
    <polyline class="cls-9" points="1273.39 56.2 1275.09 54.5 1274.96 54.36 1273.26 56.06 1273.39 56.2"/>
    <line class="cls-9" x1="659.13" y1="83.42" x2="659.13" y2="71.79"/>
    <line class="cls-9" x1="667.63" y1="83.42" x2="667.63" y2="71.79"/>
    <line class="cls-9" x1="658.28" y1="72.36" x2="659.62" y2="72.36"/>
    <line class="cls-9" x1="667.08" y1="72.36" x2="668.48" y2="72.36"/>
    <polyline class="cls-9" points="659.91 71.44 658.21 73.14 658.34 73.28 660.04 71.58 659.91 71.44"/>
    <polyline class="cls-9" points="666.85 73.28 668.55 71.58 668.42 71.44 666.71 73.14 666.85 73.28"/>
    <line class="cls-9" x1="67.9" y1="74.91" x2="67.9" y2="20.51"/>
    <line class="cls-9" x1="1274.18" y1="74.91" x2="1274.18" y2="20.51"/>
    <line class="cls-9" x1="67.04" y1="21.08" x2="658.09" y2="21.08"/>
    <line class="cls-9" x1="683.61" y1="21.08" x2="1275.03" y2="21.08"/>
    <polyline class="cls-9" points="68.68 20.16 66.98 21.86 67.11 22 68.81 20.29 68.68 20.16"/>
    <polyline class="cls-9" points="1273.39 22 1275.09 20.29 1274.96 20.16 1273.26 21.86 1273.39 22"/>
    <line class="cls-9" x1="67.61" y1="83.7" x2="51.27" y2="83.7"/>
    <line class="cls-9" x1="67.61" y1="205.64" x2="51.27" y2="205.64"/>
    <line class="cls-9" x1="51.83" y1="82.85" x2="51.83" y2="136.1"/>
    <line class="cls-9" x1="51.83" y1="152.75" x2="51.83" y2="206.49"/>
    <polyline class="cls-9" points="52.75 84.49 51.05 82.79 50.91 82.92 52.61 84.62 52.75 84.49"/>
    <polyline class="cls-9" points="50.91 204.85 52.61 206.56 52.75 206.42 51.05 204.72 50.91 204.85"/>
    <line class="cls-9" x1="67.61" y1="214.14" x2="51.27" y2="214.14"/>
    <line class="cls-9" x1="67.61" y1="336.08" x2="51.27" y2="336.08"/>
    <line class="cls-9" x1="51.83" y1="213.29" x2="51.83" y2="266.54"/>
    <line class="cls-9" x1="51.83" y1="283.19" x2="51.83" y2="336.93"/>
    <polyline class="cls-9" points="52.75 214.93 51.05 213.22 50.91 213.36 52.61 215.06 52.75 214.93"/>
    <polyline class="cls-9" points="50.91 335.29 52.61 336.99 52.75 336.86 51.05 335.16 50.91 335.29"/>
    <line class="cls-9" x1="67.61" y1="344.58" x2="51.27" y2="344.58"/>
    <line class="cls-9" x1="67.61" y1="511.89" x2="51.27" y2="511.89"/>
    <line class="cls-9" x1="51.83" y1="343.73" x2="51.83" y2="420.1"/>
    <line class="cls-9" x1="51.83" y1="436.37" x2="51.83" y2="512.74"/>
    <polyline class="cls-9" points="52.75 345.37 51.05 343.66 50.91 343.8 52.61 345.5 52.75 345.37"/>
    <polyline class="cls-9" points="50.91 511.1 52.61 512.8 52.75 512.67 51.05 510.97 50.91 511.1"/>
    <line class="cls-9" x1="67.61" y1="520.39" x2="51.27" y2="520.39"/>
    <line class="cls-9" x1="67.61" y1="716.05" x2="51.27" y2="716.05"/>
    <line class="cls-9" x1="51.83" y1="519.54" x2="51.83" y2="610.02"/>
    <line class="cls-9" x1="51.83" y1="626.36" x2="51.83" y2="716.9"/>
    <polyline class="cls-9" points="52.75 521.18 51.05 519.47 50.91 519.61 52.61 521.31 52.75 521.18"/>
    <polyline class="cls-9" points="50.91 715.27 52.61 716.97 52.75 716.83 51.05 715.13 50.91 715.27"/>
    <line class="cls-9" x1="67.61" y1="75.2" x2="18.78" y2="75.2"/>
    <line class="cls-9" x1="67.61" y1="724.56" x2="18.78" y2="724.56"/>
    <line class="cls-9" x1="19.35" y1="74.35" x2="19.35" y2="387.18"/>
    <line class="cls-9" x1="19.35" y1="412.39" x2="19.35" y2="725.41"/>
    <polyline class="cls-9" points="20.27 75.98 18.57 74.28 18.43 74.41 20.13 76.12 20.27 75.98"/>
    <polyline class="cls-9" points="18.43 723.78 20.13 725.48 20.27 725.34 18.57 723.64 18.43 723.78"/>
  </g>
  <g id="Calque_9" data-name="Calque 9">
    <text class="cls-11" transform="translate(352.51 60.95)"><tspan x="0" y="0">210</tspan></text>
    <text class="cls-11" transform="translate(955.65 60.95)"><tspan x="0" y="0">215</tspan></text>
    <text class="cls-11" transform="translate(659 78.03)"><tspan x="0" y="0">3</tspan></text>
    <text class="cls-11" transform="translate(657.91 26.75)"><tspan x="0" y="0">425</tspan></text>
    <text class="cls-11" transform="translate(57.26 152.93) rotate(-90)"><tspan x="0" y="0">43</tspan></text>
    <text class="cls-11" transform="translate(57.26 283.37) rotate(-90)"><tspan x="0" y="0">43</tspan></text>
    <text class="cls-11" transform="translate(57.26 436.99) rotate(-90)"><tspan x="0" y="0">59</tspan></text>
    <text class="cls-11" transform="translate(57.26 626.91) rotate(-90)"><tspan x="0" y="0">69</tspan></text>
    <text class="cls-11" transform="translate(24.77 412.82) rotate(-90)"><tspan x="0" y="0">229</tspan></text>
  </g>
  <g id="Calque_05" data-name="Calque 05">
    <rect class="cls-4" x="1102.8" y="533.3" width="129.26" height="71.65"/>
    <rect class="cls-4" x="1102.8" y="533.3" width="129.26" height="22.98"/>
    <rect class="cls-4" x="1156.93" y="588.16" width="21.42" height="5.27"/>
    <rect class="cls-4" x="1188" y="536.09" width="41.09" height="17.81"/>
    <rect class="cls-4" x="1163.15" y="560.24" width="8.99" height="5.27"/>
    <polyline class="cls-4" points="1232.05 588.16 1102.8 588.16 1102.8 604.94 1232.05 604.94"/>
    <line class="cls-4" x1="1063.29" y1="525.38" x2="946.94" y2="525.38"/>
    <line class="cls-4" x1="1063.29" y1="567.66" x2="946.94" y2="567.66"/>
    <line class="cls-4" x1="1063.29" y1="609.93" x2="946.94" y2="609.93"/>
    <line class="cls-1" x1="1274.18" y1="717.26" x2="1274.18" y2="75.97"/>
    <line class="cls-4" x1="1265.67" y1="618.44" x2="1063.45" y2="618.44"/>
    <rect class="cls-4" x="76.4" y="613.97" width="582.72" height="8.51"/>
    <rect class="cls-4" x="1102.8" y="524.28" width="129.26" height="9.02"/>
    <rect class="cls-10" x="946.94" y="511.89" width="26.59" height="212.67"/>
    <line class="cls-2" x1="946.94" y1="520.39" x2="946.94" y2="511.89"/>
  </g>
  <g id="Calque_06" data-name="Calque 06">
    <rect class="cls-5" x="1076.25" y="83.7" width="185.17" height="121.93"/>
    <rect class="cls-5" x="80.66" y="83.7" width="180.06" height="121.93"/>
    <rect class="cls-5" x="277.73" y="83.7" width="180.06" height="121.93"/>
    <rect class="cls-5" x="874.07" y="83.7" width="185.17" height="121.93"/>
    <rect class="cls-5" x="474.81" y="214.14" width="180.06" height="121.93"/>
    <rect class="cls-5" x="277.73" y="214.14" width="180.06" height="121.93"/>
    <rect class="cls-5" x="671.89" y="214.14" width="185.17" height="121.93"/>
    <rect class="cls-5" x="1076.25" y="214.14" width="185.17" height="121.93"/>
    <rect class="cls-5" x="80.66" y="520.39" width="280.73" height="195.66"/>
    <rect class="cls-5" x="369.89" y="520.39" width="284.98" height="195.66"/>
  </g>
  <g id="Calque_04" data-name="Calque 04">
    <rect class="cls-6" x="654.87" y="520.39" width="4.25" height="195.66"/>
    <rect class="cls-6" x="361.38" y="520.39" width="4.25" height="195.66"/>
    <rect class="cls-6" x="76.4" y="520.39" width="4.25" height="195.66"/>
    <rect class="cls-6" x="1261.42" y="214.14" width="4.25" height="121.93"/>
    <rect class="cls-6" x="1071.99" y="214.14" width="4.25" height="121.93"/>
    <rect class="cls-6" x="857.05" y="214.14" width="4.25" height="121.93"/>
    <rect class="cls-6" x="667.63" y="214.14" width="4.25" height="121.93"/>
    <rect class="cls-6" x="273.48" y="214.14" width="4.25" height="121.93"/>
    <rect class="cls-6" x="457.8" y="214.14" width="4.25" height="121.93"/>
    <rect class="cls-6" x="470.56" y="214.14" width="4.25" height="121.93"/>
    <rect class="cls-6" x="654.87" y="214.14" width="4.25" height="121.93"/>
    <rect class="cls-6" x="260.72" y="83.7" width="4.25" height="121.93"/>
    <rect class="cls-6" x="1261.42" y="83.7" width="4.25" height="121.93"/>
    <rect class="cls-6" x="1059.23" y="83.7" width="4.25" height="121.93"/>
    <rect class="cls-6" x="1071.99" y="83.7" width="4.25" height="121.93"/>
    <rect class="cls-6" x="869.81" y="83.7" width="4.25" height="121.93"/>
    <rect class="cls-6" x="273.48" y="83.7" width="4.25" height="121.93"/>
    <rect class="cls-6" x="457.8" y="83.7" width="4.25" height="121.93"/>
    <rect class="cls-6" x="76.4" y="83.7" width="4.25" height="121.93"/>
    <rect class="cls-6" x="365.64" y="520.39" width="4.25" height="195.66"/>
  </g>
  <g id="Calque_03" data-name="Calque 03">
    <polyline class="cls-3" points="1195.85 155.11 1150.61 155.11 1163.1 162.89"/>
    <polyline class="cls-3" points="392.23 155.11 346.99 155.11 359.48 162.89"/>
    <polyline class="cls-3" points="346.99 141.79 392.23 141.79 379.74 134.02"/>
    <polyline class="cls-3" points="149.91 141.79 195.15 141.79 182.66 134.02"/>
    <polyline class="cls-3" points="346.99 272.23 392.23 272.23 379.74 264.46"/>
    <polyline class="cls-3" points="589.3 285.55 544.06 285.55 556.55 293.33"/>
    <polyline class="cls-3" points="544.06 272.23 589.3 272.23 576.81 264.46"/>
    <polyline class="cls-3" points="791.48 285.55 746.24 285.55 758.73 293.33"/>
    <polyline class="cls-3" points="746.24 272.23 791.48 272.23 778.99 264.46"/>
    <polyline class="cls-3" points="993.67 155.11 948.43 155.11 960.91 162.89"/>
    <polyline class="cls-3" points="948.43 141.79 993.67 141.79 981.18 134.02"/>
    <polyline class="cls-3" points="529.08 624.07 483.84 624.07 496.33 631.84"/>
    <polyline class="cls-3" points="483.84 610.74 529.08 610.74 516.59 602.97"/>
    <polyline class="cls-3" points="239.84 624.07 194.6 624.07 207.09 631.84"/>
    <polyline class="cls-3" points="194.6 610.74 239.84 610.74 227.35 602.97"/>
    <polyline class="cls-3" points="1150.61 141.79 1195.85 141.79 1183.36 134.02"/>
    <polyline class="cls-3" points="1150.61 272.23 1195.85 272.23 1183.36 264.46"/>
    <polyline class="cls-3" points="392.23 285.55 346.99 285.55 359.48 293.33"/>
    <polyline class="cls-3" points="195.15 155.11 149.91 155.11 162.4 162.89"/>
    <polyline class="cls-3" points="1195.85 285.55 1150.61 285.55 1163.1 293.33"/>
  </g>
</svg>