<?xml version="1.0" encoding="UTF-8"?>
<svg xmlns="http://www.w3.org/2000/svg" xmlns:xlink="http://www.w3.org/1999/xlink" viewBox="0 0 396.85 396.85">
  <defs>
    <style>
      .cls-1 {
        letter-spacing: -.02em;
      }

      .cls-2, .cls-3, .cls-4, .cls-5, .cls-6, .cls-7, .cls-8, .cls-9 {
        fill: none;
      }

      .cls-2, .cls-10, .cls-11, .cls-12, .cls-4, .cls-5, .cls-13, .cls-14, .cls-6, .cls-7, .cls-15, .cls-16, .cls-9 {
        stroke-miterlimit: 10;
      }

      .cls-2, .cls-10, .cls-17, .cls-13, .cls-6, .cls-8, .cls-16, .cls-9 {
        stroke-width: .15px;
      }

      .cls-2, .cls-12, .cls-4, .cls-14, .cls-7, .cls-16 {
        stroke: #000;
      }

      .cls-3, .cls-18 {
        stroke-width: 0px;
      }

      .cls-10 {
        fill: url(#Nouveau_motif);
      }

      .cls-10, .cls-11, .cls-17, .cls-5, .cls-13, .cls-8, .cls-15, .cls-9 {
        stroke: #333;
      }

      .cls-11 {
        fill: url(#Nouveau_motif_2-2);
      }

      .cls-11, .cls-5, .cls-15 {
        stroke-width: .05px;
      }

      .cls-12, .cls-17, .cls-13, .cls-18 {
        fill: #fff;
      }

      .cls-12, .cls-14 {
        stroke-width: .5px;
      }

      .cls-4 {
        stroke-width: 2px;
      }

      .cls-17, .cls-8 {
        stroke-linecap: round;
        stroke-linejoin: round;
      }

      .cls-19 {
        fill: #333;
        font-family: Avenir-Medium, Avenir;
        font-size: 6.23px;
        font-weight: 500;
      }

      .cls-14, .cls-16 {
        fill: #999;
      }

      .cls-20 {
        fill: #000;
        font-family: AvenirNext-UltraLight, 'Avenir Next';
        font-size: 6px;
        font-weight: 100;
      }

      .cls-6 {
        stroke: #696969;
      }

      .cls-7 {
        stroke-width: .25px;
      }

      .cls-15 {
        fill: url(#Nouveau_motif_2);
      }
    </style>
    <pattern id="Nouveau_motif_2" data-name="Nouveau motif 2" x="0" y="0" width="34.23" height="27.94" patternTransform="translate(-3368.96 -3671.24) scale(.5)" patternUnits="userSpaceOnUse" viewBox="0 0 34.23 27.94">
      <g>
        <rect class="cls-3" x="0" width="34.23" height="27.94"/>
        <rect class="cls-5" x="17.14" y="25.63" width="34.18" height="4.61"/>
        <rect class="cls-5" x="-17.09" y="25.63" width="34.18" height="4.61"/>
        <rect class="cls-5" x=".03" y="20.98" width="34.18" height="4.61"/>
        <rect class="cls-5" x="17.14" y="16.32" width="34.18" height="4.61"/>
        <rect class="cls-5" x="-17.09" y="16.32" width="34.18" height="4.61"/>
        <rect class="cls-5" x=".03" y="11.67" width="34.18" height="4.61"/>
        <rect class="cls-5" x="17.14" y="7.01" width="34.18" height="4.61"/>
        <rect class="cls-5" x="-17.09" y="7.01" width="34.18" height="4.61"/>
        <rect class="cls-5" x=".03" y="2.35" width="34.18" height="4.61"/>
        <rect class="cls-5" x="17.14" y="-2.3" width="34.18" height="4.61"/>
        <rect class="cls-5" x="-17.09" y="-2.3" width="34.18" height="4.61"/>
      </g>
    </pattern>
    <pattern id="Nouveau_motif_2-2" data-name="Nouveau motif 2" patternTransform="translate(-3368.96 -3667.73) scale(.5)" xlink:href="#Nouveau_motif_2"/>
    <pattern id="Nouveau_motif" data-name="Nouveau motif" x="0" y="0" width="8.64" height="11.39" patternTransform="translate(-4374.64 -3686.8) scale(.28 .43)" patternUnits="userSpaceOnUse" viewBox="0 0 8.64 11.39">
      <g>
        <rect class="cls-3" width="8.64" height="11.39"/>
        <polygon class="cls-5" points="10.78 .03 10.78 11.36 6.51 11.36 6.51 .03 10.78 .03"/>
        <polygon class="cls-5" points="6.46 .03 6.46 11.36 2.19 11.36 2.19 .03 6.46 .03"/>
        <polygon class="cls-5" points="2.14 .03 2.14 11.36 -2.14 11.36 -2.14 .03 2.14 .03"/>
      </g>
    </pattern>
  </defs>
  <g id="Calque_12" data-name="Calque 12">
    <g>
      <polyline class="cls-2" points="209.04 95.61 225.31 95.61 225.31 98.44 209.04 98.44"/>
      <line class="cls-2" x1="209.04" y1="97.03" x2="225.31" y2="97.03"/>
      <line class="cls-2" x1="191.52" y1="97.03" x2="207.79" y2="97.03"/>
      <rect class="cls-17" x="225.31" y="95.61" width="1.24" height="2.84"/>
      <rect class="cls-17" x="207.79" y="95.61" width="1.24" height="2.84"/>
      <polyline class="cls-2" points="191.52 95.61 207.79 95.61 207.79 98.44 191.52 98.44"/>
      <line class="cls-2" x1="191.52" y1="97.03" x2="207.79" y2="97.03"/>
      <rect class="cls-17" x="190.28" y="95.61" width="1.24" height="2.84"/>
      <line class="cls-6" x1="190.28" y1="92.77" x2="226.56" y2="92.77"/>
    </g>
    <g>
      <polyline class="cls-2" points="284.39 259.11 284.39 275.39 281.55 275.39 281.55 259.11"/>
      <line class="cls-2" x1="282.97" y1="259.11" x2="282.97" y2="275.39"/>
      <line class="cls-2" x1="282.97" y1="241.59" x2="282.97" y2="257.87"/>
      <rect class="cls-17" x="281.55" y="275.39" width="2.84" height="1.24"/>
      <rect class="cls-17" x="281.55" y="257.87" width="2.84" height="1.24"/>
      <polyline class="cls-2" points="284.39 241.59 284.39 257.87 281.55 257.87 281.55 241.59"/>
      <line class="cls-2" x1="282.97" y1="241.59" x2="282.97" y2="257.87"/>
      <rect class="cls-17" x="281.55" y="240.35" width="2.84" height="1.24"/>
      <line class="cls-6" x1="287.22" y1="240.35" x2="287.22" y2="276.64"/>
    </g>
    <rect class="cls-15" x="210.4" y="201.15" width="71.15" height="98.24"/>
    <polygon class="cls-11" points="166.13 98.59 166.13 200.83 114.25 200.55 114.25 300.52 145.21 299.65 145.05 229.44 206.1 229.47 206.1 196.3 281.5 196.3 281.78 98.11 166.13 98.59"/>
    <rect class="cls-10" x="166.48" y="233.66" width="39.67" height="65.78"/>
    <ellipse class="cls-18" cx="199.36" cy="289.73" rx="4.58" ry="6.3"/>
    <rect class="cls-18" x="193.47" y="294.45" width="11.77" height="4.97"/>
    <rect class="cls-10" x="129.9" y="98.75" width="32.84" height="97.49"/>
    <rect class="cls-13" x="131.26" y="98.44" width="17.01" height="14.88"/>
    <rect class="cls-13" x="148.26" y="98.44" width="13.66" height="14.88"/>
    <g>
      <line class="cls-17" x1="197.13" y1="294.28" x2="199.36" y2="294.28"/>
      <path class="cls-17" d="M199.36,292.82c1.6,0,2.97-1.15,3.24-2.73"/>
      <path class="cls-17" d="M202.05,284.45c-.8-.72-1.6-1.03-2.69-1.03"/>
      <path class="cls-17" d="M203.53,286.65c-.29-.91-.76-1.59-1.49-2.2"/>
      <path class="cls-17" d="M203.73,290.34c.33-1.3.27-2.43-.2-3.69"/>
      <path class="cls-17" d="M203.62,290.78c.04-.15.08-.29.11-.44"/>
      <line class="cls-17" x1="199.81" y1="284.75" x2="199.36" y2="284.75"/>
      <path class="cls-17" d="M199.46,290.95c.25-.14.41-.31.53-.57"/>
      <path class="cls-17" d="M199.36,291.73c.51,0,.93-.42.93-.93s-.42-.93-.93-.93"/>
      <line class="cls-17" x1="201.59" y1="294.28" x2="199.36" y2="294.28"/>
      <line class="cls-17" x1="199.36" y1="299.42" x2="204.94" y2="299.42"/>
      <line class="cls-17" x1="202.58" y1="294.32" x2="203.62" y2="290.78"/>
      <line class="cls-17" x1="205.24" y1="299.12" x2="205.24" y2="295.73"/>
      <path class="cls-17" d="M204.94,299.42c.21,0,.3-.09.3-.3"/>
      <line class="cls-17" x1="202.65" y1="294.32" x2="201.59" y2="294.28"/>
      <path class="cls-17" d="M203.64,294.58c-.32-.16-.64-.24-.99-.26"/>
      <path class="cls-17" d="M204.92,295.2c-.41-.24-.83-.44-1.27-.62"/>
      <path class="cls-17" d="M205.24,295.73c0-.26-.09-.41-.33-.52"/>
      <path class="cls-17" d="M199.99,290.38c.08-.13.06-.21-.06-.3"/>
      <path class="cls-17" d="M200.97,285.07c-.37-.22-.73-.32-1.16-.32"/>
      <line class="cls-17" x1="196.14" y1="294.32" x2="195.1" y2="290.78"/>
      <line class="cls-17" x1="193.47" y1="299.12" x2="193.47" y2="295.73"/>
      <path class="cls-17" d="M193.47,299.12c0,.21.09.3.3.3"/>
      <line class="cls-17" x1="199.36" y1="299.42" x2="193.78" y2="299.42"/>
      <path class="cls-17" d="M193.8,295.2c-.24.12-.33.26-.33.52"/>
      <path class="cls-17" d="M195.07,294.58c-.44.18-.86.39-1.27.62"/>
      <path class="cls-17" d="M199.36,289.87c-.51,0-.93.42-.93.93s.42.93.93.93"/>
      <path class="cls-17" d="M198.91,284.75c-.43,0-.79.1-1.16.32"/>
      <line class="cls-17" x1="198.91" y1="284.75" x2="199.36" y2="284.75"/>
      <path class="cls-17" d="M199.36,283.42c-1.08,0-1.88.31-2.69,1.03"/>
      <path class="cls-17" d="M196.67,284.45c-.73.61-1.19,1.29-1.49,2.2"/>
      <path class="cls-17" d="M195.19,286.65c-.47,1.26-.53,2.39-.2,3.69"/>
      <path class="cls-17" d="M194.99,290.34c.03.15.06.3.11.44"/>
      <path class="cls-17" d="M197.75,285.07c-.11.08-.22.16-.32.25"/>
      <path class="cls-17" d="M197.43,285.32c-.57.47-.93,1-1.15,1.7"/>
      <path class="cls-17" d="M196.27,287.02c-.39,1.05-.44,1.99-.16,3.07"/>
      <path class="cls-17" d="M196.11,290.09c.27,1.58,1.64,2.73,3.24,2.73"/>
      <path class="cls-17" d="M201.29,285.32c-.1-.09-.21-.18-.32-.25"/>
      <path class="cls-17" d="M202.45,287.02c-.22-.71-.58-1.23-1.15-1.7"/>
      <path class="cls-17" d="M202.6,290.09c.28-1.08.24-2.02-.16-3.07"/>
      <path class="cls-17" d="M196.07,294.32c-.36.02-.67.1-.99.26"/>
      <line class="cls-17" x1="196.07" y1="294.32" x2="197.13" y2="294.28"/>
      <path class="cls-17" d="M198.73,290.38c.12.26.28.43.53.57"/>
      <path class="cls-17" d="M198.78,290.08c-.12.09-.13.17-.06.3"/>
      <path class="cls-17" d="M199.36,290.97s.07,0,.1-.02"/>
      <path class="cls-17" d="M199.26,290.95s.07.02.1.02"/>
    </g>
    <rect class="cls-8" x="133.2" y="99.3" width="13.17" height="13.17" rx="1.91" ry="1.91" transform="translate(245.67 -33.9) rotate(90)"/>
    <circle class="cls-9" cx="139.93" cy="102.77" r=".72"/>
    <rect class="cls-13" x="166.18" y="255.47" width="19.54" height="43.8"/>
    <rect class="cls-9" x="169.46" y="257.72" width="13.44" height="38.01" rx="6.72" ry="6.72"/>
    <line class="cls-9" x1="205.24" y1="246.42" x2="206.15" y2="246.42"/>
    <polyline class="cls-9" points="206.15 246.42 206.15 229.43 205.24 229.43 205.24 246.42"/>
    <path class="cls-9" d="M205.24,246.42c-9.03-.48-16.1-7.94-16.1-16.98"/>
    <line class="cls-9" x1="155.2" y1="180.68" x2="156.26" y2="180.68"/>
    <polyline class="cls-9" points="156.26 180.68 156.26 200.49 155.2 200.49 155.2 180.68"/>
    <path class="cls-9" d="M155.2,180.68c-10.53.56-18.79,9.27-18.79,19.81"/>
    <path class="cls-9" d="M225.96,204.03c-.56,10.53-9.27,18.79-19.81,18.79"/>
    <polyline class="cls-9" points="225.96 202.98 206.15 202.98 206.15 204.03 225.96 204.03"/>
    <line class="cls-9" x1="225.96" y1="204.03" x2="225.96" y2="202.98"/>
    <line class="cls-9" x1="133.32" y1="298.79" x2="133.32" y2="299.42"/>
    <rect class="cls-14" x="114.31" y="181.5" width="15.59" height="14.74"/>
    <line class="cls-16" x1="281.55" y1="196.24" x2="190.56" y2="196.24"/>
    <line class="cls-16" x1="281.55" y1="200.49" x2="210.4" y2="200.49"/>
    <rect class="cls-14" x="206.15" y="222.7" width="4.25" height="76.72"/>
    <rect class="cls-14" x="145.2" y="229.4" width="43.94" height="4.25"/>
    <rect class="cls-14" x="162.21" y="233.66" width="4.25" height="65.76"/>
    <line class="cls-16" x1="145.2" y1="233.66" x2="145.2" y2="299.42"/>
    <line class="cls-16" x1="161.93" y1="196.24" x2="161.93" y2="98.44"/>
    <rect class="cls-12" x="115.72" y="182.92" width="12.76" height="11.91"/>
    <line class="cls-16" x1="166.18" y1="98.44" x2="166.18" y2="196.24"/>
    <polyline class="cls-14" points="167.88 196.24 156.26 196.24 156.26 200.49 167.88 200.49"/>
    <polyline class="cls-14" points="114.31 200.49 136.42 200.49 136.42 196.24 114.31 196.24"/>
    <polyline class="cls-16" points="206.15 200.49 206.15 202.98 210.4 202.98 210.4 200.49"/>
    <line class="cls-16" x1="167.88" y1="196.24" x2="167.88" y2="200.49"/>
    <line class="cls-16" x1="190.56" y1="200.49" x2="190.56" y2="196.24"/>
    <line class="cls-16" x1="190.56" y1="200.49" x2="281.55" y2="200.49"/>
    <rect class="cls-14" x="161.93" y="98.44" width="4.25" height="97.8"/>
    <rect class="cls-14" x="190.56" y="196.24" width="90.99" height="5.49"/>
    <line class="cls-16" x1="281.55" y1="196.24" x2="281.55" y2="183.62"/>
    <line class="cls-16" x1="281.55" y1="240.46" x2="281.55" y2="200.49"/>
    <line class="cls-2" x1="210.4" y1="299.42" x2="281.55" y2="299.42"/>
    <polygon class="cls-14" points="190.28 98.44 161.93 98.44 159.24 98.44 159.24 92.77 190.28 92.77 190.28 98.44"/>
    <g>
      <polyline class="cls-2" points="141.86 95.61 158.14 95.61 158.14 98.44 141.86 98.44"/>
      <line class="cls-2" x1="141.86" y1="97.03" x2="158.14" y2="97.03"/>
      <line class="cls-2" x1="124.35" y1="97.03" x2="140.62" y2="97.03"/>
      <rect class="cls-2" x="158.14" y="95.61" width="1.24" height="2.84"/>
      <rect class="cls-2" x="140.62" y="95.61" width="1.24" height="2.84"/>
      <polyline class="cls-2" points="124.35 95.61 140.62 95.61 140.62 98.44 124.35 98.44"/>
      <line class="cls-2" x1="124.35" y1="97.03" x2="140.62" y2="97.03"/>
      <rect class="cls-2" x="123.1" y="95.61" width="1.24" height="2.84"/>
      <line class="cls-6" x1="123.1" y1="92.77" x2="159.39" y2="92.77"/>
    </g>
    <g>
      <polyline class="cls-2" points="284.39 165.96 284.39 182.24 281.55 182.24 281.55 165.96"/>
      <line class="cls-2" x1="282.97" y1="165.96" x2="282.97" y2="182.24"/>
      <line class="cls-2" x1="282.97" y1="148.44" x2="282.97" y2="164.72"/>
      <rect class="cls-17" x="281.55" y="182.24" width="2.84" height="1.24"/>
      <rect class="cls-17" x="281.55" y="164.72" width="2.84" height="1.24"/>
      <polyline class="cls-2" points="284.39 148.44 284.39 164.72 281.55 164.72 281.55 148.44"/>
      <line class="cls-2" x1="282.97" y1="148.44" x2="282.97" y2="164.72"/>
      <rect class="cls-17" x="281.55" y="147.2" width="2.84" height="1.24"/>
      <line class="cls-6" x1="287.22" y1="147.2" x2="287.22" y2="183.48"/>
    </g>
    <rect class="cls-13" x="114.31" y="164.41" width="17.01" height="17.01"/>
    <rect class="cls-13" x="114.31" y="147.34" width="17.01" height="17.01"/>
    <rect class="cls-13" x="114.31" y="130.33" width="17.01" height="17.01"/>
    <rect class="cls-13" x="114.31" y="113.33" width="17.01" height="17.01"/>
    <rect class="cls-13" x="114.31" y="98.44" width="17.01" height="14.88"/>
    <circle class="cls-9" cx="176.31" cy="293.42" r=".87"/>
    <g>
      <circle class="cls-7" cx="342.33" cy="343.88" r="9.92"/>
      <line class="cls-7" x1="342.25" y1="343.88" x2="335" y2="350.56"/>
      <line class="cls-4" x1="349.58" y1="337.11" x2="342.25" y2="343.88"/>
    </g>
    <polyline class="cls-14" points="281.55 276.74 287.22 276.74 287.22 305.09 108.64 305.09 108.64 92.77 122.96 92.77 122.96 98.44 114.31 98.44 114.31 299.42 281.55 299.42 281.55 276.74"/>
    <polygon class="cls-14" points="281.55 147.2 281.55 98.44 226.56 98.44 226.56 92.77 287.22 92.77 287.22 147.2 281.55 147.2"/>
    <polygon class="cls-14" points="281.55 240.46 281.55 196.24 281.55 183.62 287.22 183.62 287.22 240.46 281.55 240.46"/>
  </g>
  <g id="trait_fin" data-name="trait fin">
    <g>
      <text class="cls-20" transform="translate(211.61 143.03)"><tspan x="0" y="0">Salon</tspan><tspan x="0" y="7.2">14m</tspan></text>
      <text class="cls-20" transform="translate(223.67 148.23) scale(.58)"><tspan x="0" y="0">2</tspan></text>
      <text class="cls-20" transform="translate(225.63 150.23)"><tspan x="0" y="0"> </tspan></text>
    </g>
    <text class="cls-20" transform="translate(232.79 247.81)"><tspan x="0" y="0">Chamb</tspan><tspan class="cls-1" x="19.92" y="0">r</tspan><tspan x="21.71" y="0">e </tspan><tspan x="0" y="7.2">9m² </tspan></text>
    <text class="cls-20" transform="translate(168.18 247.11)"><tspan x="0" y="0">Salle de bain</tspan><tspan x="0" y="7.2">WC</tspan><tspan x="0" y="14.4">3m² </tspan></text>
    <text class="cls-20" transform="translate(135 143.03)"><tspan x="0" y="0">Cuisine</tspan><tspan x="0" y="7.2">5m² </tspan></text>
    <g>
      <line class="cls-9" x1="89.7" y1="305.18" x2="89.7" y2="200.64"/>
      <rect class="cls-18" x="85.44" y="246.56" width="7.84" height="12.92"/>
      <line class="cls-9" x1="108.73" y1="305.16" x2="89.7" y2="305.16"/>
      <line class="cls-9" x1="108.73" y1="200.61" x2="89.7" y2="200.61"/>
      <polyline class="cls-9" points="88.48 304.13 90.74 306.37 90.93 306.19 88.66 303.95 88.48 304.13"/>
      <polyline class="cls-9" points="90.93 200.99 88.66 198.75 88.48 198.93 90.74 201.17 90.93 200.99"/>
      <text class="cls-19" transform="translate(91.83 258.91) rotate(-90) scale(.99 1)"><tspan x="0" y="0">3.50</tspan></text>
    </g>
    <g>
      <line class="cls-9" x1="89.58" y1="182.01" x2="89.58" y2="98.99"/>
      <line class="cls-9" x1="108.6" y1="181.64" x2="89.58" y2="181.64"/>
      <line class="cls-9" x1="108.6" y1="98.64" x2="89.58" y2="98.64"/>
      <polyline class="cls-9" points="88.35 180.61 90.62 182.85 90.8 182.68 88.53 180.43 88.35 180.61"/>
      <polyline class="cls-9" points="90.8 99.67 88.53 97.43 88.35 97.61 90.62 99.85 90.8 99.67"/>
      <g>
        <rect class="cls-18" x="85.31" y="133.66" width="7.84" height="12.92"/>
        <text class="cls-19" transform="translate(91.7 146.56) rotate(-90) scale(.99 1)"><tspan x="0" y="0">2.90</tspan></text>
      </g>
    </g>
    <g>
      <line class="cls-9" x1="306.38" y1="196.85" x2="306.38" y2="99.08"/>
      <line class="cls-9" x1="287.35" y1="196.71" x2="306.38" y2="196.71"/>
      <line class="cls-9" x1="287.35" y1="98.59" x2="306.38" y2="98.59"/>
      <polyline class="cls-9" points="307.6 195.68 305.34 197.93 305.16 197.75 307.42 195.5 307.6 195.68"/>
      <polyline class="cls-9" points="305.16 99.62 307.42 97.38 307.6 97.56 305.34 99.8 305.16 99.62"/>
      <g>
        <rect class="cls-18" x="302.81" y="141.51" width="7.84" height="12.92"/>
        <text class="cls-19" transform="translate(309.2 153.86) rotate(-90) scale(.99 1)"><tspan x="0" y="0">3.45</tspan></text>
      </g>
    </g>
    <g>
      <line class="cls-9" x1="306.68" y1="299.47" x2="306.68" y2="201.32"/>
      <line class="cls-9" x1="287.66" y1="299.57" x2="306.68" y2="299.57"/>
      <line class="cls-9" x1="287.66" y1="200.92" x2="306.68" y2="200.92"/>
      <polyline class="cls-9" points="308.08 298.4 305.81 300.64 305.63 300.46 307.9 298.22 308.08 298.4"/>
      <polyline class="cls-9" points="305.46 201.96 307.73 199.71 307.91 199.89 305.64 202.13 305.46 201.96"/>
      <g>
        <rect class="cls-18" x="303.11" y="243.94" width="7.84" height="12.92"/>
        <text class="cls-19" transform="translate(309.5 256.28) rotate(-90) scale(.99 1)"><tspan x="0" y="0">3.50</tspan></text>
      </g>
    </g>
    <g>
      <line class="cls-9" x1="166.28" y1="73.77" x2="281.34" y2="73.77"/>
      <line class="cls-9" x1="166.52" y1="92.8" x2="166.52" y2="73.77"/>
      <line class="cls-9" x1="281.92" y1="92.8" x2="281.92" y2="73.77"/>
      <polyline class="cls-9" points="167.3 72.54 165.06 74.81 165.24 74.99 167.48 72.73 167.3 72.54"/>
      <polyline class="cls-9" points="280.89 74.99 283.14 72.73 282.96 72.54 280.71 74.81 280.89 74.99"/>
      <g>
        <rect class="cls-18" x="219.89" y="66.96" width="7.84" height="12.92" transform="translate(297.23 -150.38) rotate(90)"/>
        <text class="cls-19" transform="translate(217.92 75.89) scale(.99 1)"><tspan x="0" y="0">4.10</tspan></text>
      </g>
    </g>
    <g>
      <line class="cls-9" x1="282.16" y1="324.65" x2="210.64" y2="324.65"/>
      <line class="cls-9" x1="281.88" y1="305.62" x2="281.88" y2="324.65"/>
      <line class="cls-9" x1="210.59" y1="305.62" x2="210.59" y2="324.65"/>
      <polyline class="cls-9" points="281.09 325.87 283.34 323.6 283.16 323.42 280.91 325.69 281.09 325.87"/>
      <polyline class="cls-9" points="211.52 323.42 209.28 325.69 209.46 325.87 211.7 323.6 211.52 323.42"/>
      <g>
        <rect class="cls-18" x="242.48" y="317.43" width="7.84" height="12.92" transform="translate(570.29 77.49) rotate(90)"/>
        <text class="cls-19" transform="translate(240.73 325.87) scale(.99 1)"><tspan x="0" y="0">2.50</tspan></text>
      </g>
    </g>
    <g>
      <line class="cls-9" x1="205.9" y1="324.65" x2="113.86" y2="324.65"/>
      <line class="cls-9" x1="206.16" y1="305.62" x2="206.16" y2="324.65"/>
      <line class="cls-9" x1="114.4" y1="305.62" x2="114.4" y2="324.65"/>
      <polyline class="cls-9" points="205.37 325.87 207.61 323.6 207.44 323.42 205.19 325.69 205.37 325.87"/>
      <polyline class="cls-9" points="115.43 323.42 113.19 325.69 113.37 325.87 115.61 323.6 115.43 323.42"/>
      <g>
        <rect class="cls-18" x="155.96" y="317.43" width="7.84" height="12.92" transform="translate(483.77 164.01) rotate(90)"/>
        <text class="cls-19" transform="translate(154 326.37) scale(.99 1)"><tspan x="0" y="0">3.20</tspan></text>
      </g>
    </g>
    <g>
      <line class="cls-9" x1="114.83" y1="73.77" x2="162.51" y2="73.77"/>
      <line class="cls-9" x1="114.4" y1="92.8" x2="114.4" y2="73.77"/>
      <line class="cls-9" x1="162.66" y1="92.8" x2="162.66" y2="73.77"/>
      <polyline class="cls-9" points="115.43 72.54 113.19 74.81 113.37 74.99 115.61 72.73 115.43 72.54"/>
      <polyline class="cls-9" points="161.63 74.99 163.88 72.73 163.7 72.54 161.45 74.81 161.63 74.99"/>
      <g>
        <rect class="cls-18" x="134.75" y="66.96" width="7.84" height="12.92" transform="translate(212.09 -65.25) rotate(90)"/>
        <text class="cls-19" transform="translate(132.79 75.89) scale(.99 1)"><tspan x="0" y="0">1.70</tspan></text>
      </g>
    </g>
  </g>
  <g id="Calque_13" data-name="Calque 13">
    <polygon class="cls-14" points="161.93 98.44 161.93 195.88 156.26 195.88 156.26 200.49 167.88 200.49 167.88 196.24 166.18 196.24 166.18 98.45 161.93 98.44"/>
    <rect class="cls-14" x="206.15" y="201.73" width="4.25" height="1.24"/>
    <rect class="cls-18" x="114.25" y="299.1" width="19.9" height="6.26"/>
    <g>
      <path class="cls-9" d="M115.36,285.27c10.53.56,18.79,9.27,18.79,19.81"/>
      <polyline class="cls-9" points="114.31 285.27 114.31 305.09 115.36 305.09 115.36 285.27"/>
      <line class="cls-9" x1="115.36" y1="285.27" x2="114.31" y2="285.27"/>
    </g>
    <line class="cls-14" x1="134.15" y1="305.16" x2="134.15" y2="299.17"/>
    <line class="cls-14" x1="114.31" y1="305.09" x2="114.31" y2="298.79"/>
  </g>
</svg>