<?xml version="1.0" encoding="UTF-8"?>
<svg xmlns="http://www.w3.org/2000/svg" xmlns:xlink="http://www.w3.org/1999/xlink" viewBox="0 0 420.94 425.2">
  <defs>
    <style>
      .cls-1 {
        letter-spacing: -.02em;
      }

      .cls-2 {
        letter-spacing: -.02em;
      }

      .cls-3, .cls-4, .cls-5, .cls-6, .cls-7, .cls-8, .cls-9, .cls-10, .cls-11, .cls-12 {
        fill: none;
      }

      .cls-3, .cls-13, .cls-14, .cls-15, .cls-5, .cls-6, .cls-16, .cls-10, .cls-17, .cls-12 {
        stroke-miterlimit: 10;
      }

      .cls-3, .cls-15, .cls-5, .cls-16, .cls-10 {
        stroke: #000;
      }

      .cls-3, .cls-8, .cls-11, .cls-18, .cls-12 {
        stroke-width: .15px;
      }

      .cls-4, .cls-19, .cls-20 {
        stroke-width: 0px;
      }

      .cls-19 {
        fill: url(#Grille_1_pica_lignes);
        opacity: .7;
      }

      .cls-13 {
        fill: url(#Nouveau_motif_2-2);
      }

      .cls-13, .cls-14, .cls-6, .cls-7, .cls-11, .cls-17, .cls-12 {
        stroke: #333;
      }

      .cls-13, .cls-14, .cls-6, .cls-17 {
        stroke-width: .05px;
      }

      .cls-14 {
        fill: url(#Nouveau_motif_2-3);
      }

      .cls-15, .cls-16 {
        stroke-width: .5px;
      }

      .cls-15, .cls-18, .cls-20 {
        fill: #fff;
      }

      .cls-5 {
        stroke-width: 2px;
      }

      .cls-21 {
        fill: #333;
        font-family: Avenir-Medium, Avenir;
        font-size: 6.23px;
        font-weight: 500;
      }

      .cls-16 {
        fill: #999;
      }

      .cls-22 {
        fill: #000;
        font-family: AvenirNext-UltraLight, 'Avenir Next';
        font-size: 6px;
        font-weight: 100;
      }

      .cls-7, .cls-8, .cls-11, .cls-18 {
        stroke-linecap: round;
        stroke-linejoin: round;
      }

      .cls-7, .cls-10 {
        stroke-width: .25px;
      }

      .cls-8, .cls-18 {
        stroke: #666;
      }

      .cls-9 {
        stroke: #1d1d1b;
        stroke-width: .3px;
      }

      .cls-23 {
        opacity: .8;
      }

      .cls-17 {
        fill: url(#Nouveau_motif_2);
      }
    </style>
    <pattern id="Nouveau_motif_2" data-name="Nouveau motif 2" x="0" y="0" width="34.23" height="27.94" patternTransform="translate(-3022.26 -12305.33) rotate(-90) scale(.55)" patternUnits="userSpaceOnUse" viewBox="0 0 34.23 27.94">
      <g>
        <rect class="cls-4" x="0" width="34.23" height="27.94"/>
        <rect class="cls-6" x="17.14" y="25.63" width="34.18" height="4.61"/>
        <rect class="cls-6" x="-17.09" y="25.63" width="34.18" height="4.61"/>
        <rect class="cls-6" x=".03" y="20.98" width="34.18" height="4.61"/>
        <rect class="cls-6" x="17.14" y="16.32" width="34.18" height="4.61"/>
        <rect class="cls-6" x="-17.09" y="16.32" width="34.18" height="4.61"/>
        <rect class="cls-6" x=".03" y="11.67" width="34.18" height="4.61"/>
        <rect class="cls-6" x="17.14" y="7.01" width="34.18" height="4.61"/>
        <rect class="cls-6" x="-17.09" y="7.01" width="34.18" height="4.61"/>
        <rect class="cls-6" x=".03" y="2.35" width="34.18" height="4.61"/>
        <rect class="cls-6" x="17.14" y="-2.3" width="34.18" height="4.61"/>
        <rect class="cls-6" x="-17.09" y="-2.3" width="34.18" height="4.61"/>
      </g>
    </pattern>
    <pattern id="Nouveau_motif_2-2" data-name="Nouveau motif 2" patternTransform="translate(-3432.65 -3237.97) scale(.55)" xlink:href="#Nouveau_motif_2"/>
    <pattern id="Nouveau_motif_2-3" data-name="Nouveau motif 2" patternTransform="translate(-3432.65 -3237.97) scale(.55)" xlink:href="#Nouveau_motif_2"/>
    <pattern id="Grille_1_pica_lignes" data-name="Grille 1 pica lignes" x="0" y="0" width="72" height="72" patternTransform="translate(-3321.32 -2745.85) scale(.14)" patternUnits="userSpaceOnUse" viewBox="0 0 72 72">
      <g>
        <rect class="cls-4" width="72" height="72"/>
        <g>
          <line class="cls-9" x1="6" y1="71.75" x2="6" y2="144.25"/>
          <line class="cls-9" x1="30" y1="71.75" x2="30" y2="144.25"/>
          <line class="cls-9" x1="54" y1="71.75" x2="54" y2="144.25"/>
          <line class="cls-9" x1="18" y1="71.75" x2="18" y2="144.25"/>
          <line class="cls-9" x1="42" y1="71.75" x2="42" y2="144.25"/>
          <line class="cls-9" x1="66" y1="71.75" x2="66" y2="144.25"/>
        </g>
        <g>
          <line class="cls-9" x1="71.75" y1="66" x2="144.25" y2="66"/>
          <line class="cls-9" x1="71.75" y1="42" x2="144.25" y2="42"/>
          <line class="cls-9" x1="71.75" y1="18" x2="144.25" y2="18"/>
          <line class="cls-9" x1="71.75" y1="54" x2="144.25" y2="54"/>
          <line class="cls-9" x1="71.75" y1="30" x2="144.25" y2="30"/>
          <line class="cls-9" x1="71.75" y1="6" x2="144.25" y2="6"/>
        </g>
        <g>
          <line class="cls-9" x1="6" y1="-.25" x2="6" y2="72.25"/>
          <line class="cls-9" x1="30" y1="-.25" x2="30" y2="72.25"/>
          <line class="cls-9" x1="54" y1="-.25" x2="54" y2="72.25"/>
          <line class="cls-9" x1="-.25" y1="66" x2="72.25" y2="66"/>
          <line class="cls-9" x1="-.25" y1="42" x2="72.25" y2="42"/>
          <line class="cls-9" x1="-.25" y1="18" x2="72.25" y2="18"/>
          <line class="cls-9" x1="-.25" y1="54" x2="72.25" y2="54"/>
          <line class="cls-9" x1="-.25" y1="30" x2="72.25" y2="30"/>
          <line class="cls-9" x1="-.25" y1="6" x2="72.25" y2="6"/>
          <line class="cls-9" x1="18" y1="-.25" x2="18" y2="72.25"/>
          <line class="cls-9" x1="42" y1="-.25" x2="42" y2="72.25"/>
          <line class="cls-9" x1="66" y1="-.25" x2="66" y2="72.25"/>
        </g>
        <g>
          <line class="cls-9" x1="-72.25" y1="66" x2=".25" y2="66"/>
          <line class="cls-9" x1="-72.25" y1="42" x2=".25" y2="42"/>
          <line class="cls-9" x1="-72.25" y1="18" x2=".25" y2="18"/>
          <line class="cls-9" x1="-72.25" y1="54" x2=".25" y2="54"/>
          <line class="cls-9" x1="-72.25" y1="30" x2=".25" y2="30"/>
          <line class="cls-9" x1="-72.25" y1="6" x2=".25" y2="6"/>
        </g>
        <g>
          <line class="cls-9" x1="6" y1="-72.25" x2="6" y2=".25"/>
          <line class="cls-9" x1="30" y1="-72.25" x2="30" y2=".25"/>
          <line class="cls-9" x1="54" y1="-72.25" x2="54" y2=".25"/>
          <line class="cls-9" x1="18" y1="-72.25" x2="18" y2=".25"/>
          <line class="cls-9" x1="42" y1="-72.25" x2="42" y2=".25"/>
          <line class="cls-9" x1="66" y1="-72.25" x2="66" y2=".25"/>
        </g>
      </g>
    </pattern>
  </defs>
  <g id="Calque_11" data-name="Calque 11" class="cls-23">
    <rect class="cls-17" x="145.26" y="105.8" width="97.98" height="169.87"/>
    <rect class="cls-13" x="302.27" y="165.08" width="70.87" height="110.59"/>
    <polygon class="cls-14" points="115.7 117.89 115.33 160.41 120.8 160.41 120.8 162.15 60.71 162.15 60.71 275.67 143.2 275.67 143.2 162.15 142.21 162.15 142.21 160.41 143.2 160.41 143.2 159.36 145.26 159.36 145.26 137.92 143.2 137.92 143.2 117.89 115.7 117.89"/>
    <polygon class="cls-17" points="247.27 189.49 302.31 189.44 302.27 167.38 300 167.29 300.7 128.78 266.52 128.55 266.52 105.96 247.27 105.96 247.27 134.24 243.23 134.24 243.23 160.66 247.23 160.66 247.27 189.49"/>
    <rect class="cls-19" x="245.66" y="189.49" width="54.41" height="86.17"/>
    <rect class="cls-19" x="60.71" y="117.89" width="54.62" height="42.52"/>
    <rect class="cls-19" x="268.46" y="105.8" width="32.24" height="22.98"/>
  </g>
  <g id="Calque_09" data-name="Calque 09">
    <rect class="cls-18" x="83.38" y="117.89" width="15.31" height="10.87"/>
    <ellipse class="cls-20" cx="285.52" cy="117.35" rx="9.15" ry="6.62"/>
    <path class="cls-18" d="M286.36,123.66c.22-.04.43-.09.64-.15"/>
    <path class="cls-18" d="M281.02,123.38c1.82.67,3.46.76,5.33.28"/>
    <path class="cls-18" d="M277.85,121.23c.88,1.06,1.86,1.73,3.17,2.15"/>
    <path class="cls-18" d="M276.36,117.35c0,1.43.53,2.82,1.49,3.88"/>
    <line class="cls-18" x1="278.29" y1="117.99" x2="278.29" y2="117.35"/>
    <path class="cls-18" d="M278.29,117.99c0,.62.14,1.15.46,1.68"/>
    <path class="cls-18" d="M285.69,117.35c0,.74.6,1.34,1.34,1.34s1.34-.6,1.34-1.34"/>
    <path class="cls-18" d="M287.24,117.49s.03-.09.03-.14"/>
    <path class="cls-18" d="M287.27,117.35c0-.05-.01-.1-.03-.14"/>
    <path class="cls-18" d="M285.98,118.18c.13.17.25.19.43.08"/>
    <path class="cls-18" d="M286.41,118.26c.37-.17.63-.41.83-.77"/>
    <line class="cls-18" x1="292.06" y1="120.56" x2="292.06" y2="117.35"/>
    <line class="cls-18" x1="292.11" y1="122.1" x2="292.06" y2="120.56"/>
    <line class="cls-18" x1="292.11" y1="122" x2="287" y2="123.51"/>
    <path class="cls-18" d="M278.74,115.02c-.31.54-.46,1.06-.46,1.68"/>
    <path class="cls-18" d="M286.41,116.43c-.18-.11-.3-.09-.43.08"/>
    <line class="cls-18" x1="292.11" y1="112.59" x2="292.06" y2="114.13"/>
    <line class="cls-18" x1="292.11" y1="112.69" x2="287" y2="111.19"/>
    <line class="cls-18" x1="292.06" y1="114.13" x2="292.06" y2="117.35"/>
    <path class="cls-18" d="M288.37,117.35c0-.74-.6-1.34-1.34-1.34s-1.34.6-1.34,1.34"/>
    <path class="cls-18" d="M287.24,117.2c-.2-.36-.45-.6-.83-.77"/>
    <line class="cls-18" x1="278.29" y1="116.7" x2="278.29" y2="117.35"/>
    <rect class="cls-18" x="292.11" y="105.8" width="8.59" height="23.04"/>
    <path class="cls-18" d="M279.11,120.14c.68.83,1.44,1.34,2.46,1.67"/>
    <path class="cls-18" d="M281.57,121.81c1.51.57,2.87.64,4.43.23"/>
    <path class="cls-18" d="M286,122.04c2.28-.4,3.94-2.38,3.94-4.69"/>
    <path class="cls-18" d="M279.11,114.55c-.13.15-.26.3-.37.47"/>
    <path class="cls-18" d="M281.57,112.89c-1.02.32-1.78.84-2.46,1.67"/>
    <path class="cls-18" d="M286,112.66c-1.56-.41-2.92-.34-4.43.23"/>
    <path class="cls-18" d="M289.94,117.35c0-2.31-1.66-4.29-3.94-4.69"/>
    <path class="cls-18" d="M277.85,113.47c-.96,1.07-1.49,2.45-1.49,3.88"/>
    <path class="cls-18" d="M281.02,111.32c-1.31.43-2.29,1.09-3.17,2.15"/>
    <path class="cls-18" d="M286.36,111.03c-1.88-.48-3.52-.39-5.33.28"/>
    <path class="cls-18" d="M287,111.19c-.21-.06-.42-.11-.64-.15"/>
    <rect class="cls-18" x="60.71" y="117.89" width="22.68" height="42.52"/>
    <rect class="cls-18" x="66.14" y="117.89" width="10.25" height="1.15"/>
    <line class="cls-18" x1="83.44" y1="153.64" x2="60.71" y2="153.64"/>
    <path class="cls-18" d="M64.05,149.65c.44.57.33,1.39-.24,1.82-.57.44-1.39.33-1.82-.24-.44-.57-.33-1.39.24-1.82.57-.44,1.39-.33,1.82.24Z"/>
    <line class="cls-18" x1="65.82" y1="148.19" x2="77.31" y2="134.88"/>
    <line class="cls-18" x1="67.95" y1="149.47" x2="79.74" y2="148.86"/>
    <line class="cls-18" x1="64.24" y1="146.27" x2="63.12" y2="134.51"/>
    <path class="cls-18" d="M91.53,120.97c0-.3-.25-.55-.55-.55s-.55.24-.55.55.24.55.55.55.55-.24.55-.55Z"/>
    <path class="cls-18" d="M94.23,127.42c.71-.31,1.29-.73,1.8-1.32"/>
    <path class="cls-18" d="M90.98,128.1c1.16,0,2.2-.22,3.25-.68"/>
    <path class="cls-18" d="M87.73,127.42c1.06.46,2.1.68,3.25.68"/>
    <path class="cls-18" d="M85.93,126.1c.51.59,1.09,1.01,1.8,1.32"/>
    <path class="cls-18" d="M84.92,123.4c0,1.08.3,1.88,1.01,2.69"/>
    <path class="cls-18" d="M85.93,120.71c-.71.81-1.01,1.62-1.01,2.69"/>
    <path class="cls-18" d="M87.73,119.39c-.71.31-1.29.73-1.8,1.32"/>
    <path class="cls-18" d="M90.98,118.71c-1.15,0-2.2.22-3.25.68"/>
    <path class="cls-18" d="M94.23,119.39c-1.06-.46-2.1-.68-3.25-.68"/>
    <path class="cls-18" d="M96.03,120.71c-.51-.59-1.09-1.01-1.8-1.32"/>
    <path class="cls-18" d="M97.05,123.4c0-1.08-.3-1.88-1.01-2.69"/>
    <path class="cls-18" d="M96.03,126.1c.71-.81,1.01-1.62,1.01-2.69"/>
    <path class="cls-18" d="M90.98,119.42c-1.05,0-2,.2-2.97.62"/>
    <path class="cls-18" d="M88.01,120.04c-.61.27-1.11.63-1.55,1.14"/>
    <path class="cls-18" d="M86.47,121.18c-.59.67-.84,1.33-.84,2.22"/>
    <path class="cls-18" d="M85.63,123.4c0,.89.25,1.55.84,2.22"/>
    <path class="cls-18" d="M86.47,125.63c.44.5.94.87,1.55,1.14"/>
    <path class="cls-18" d="M88.01,126.76c.96.42,1.91.62,2.97.62"/>
    <path class="cls-18" d="M96.33,123.4c0-.89-.25-1.55-.84-2.22"/>
    <path class="cls-18" d="M95.5,121.18c-.44-.5-.94-.87-1.55-1.14"/>
    <path class="cls-18" d="M93.95,120.04c-.96-.42-1.91-.62-2.97-.62"/>
    <path class="cls-18" d="M93.95,126.76c.61-.27,1.11-.63,1.55-1.14"/>
    <path class="cls-18" d="M95.5,125.63c.59-.67.84-1.33.84-2.22"/>
    <path class="cls-18" d="M90.98,127.39c1.05,0,2-.2,2.97-.62"/>
    <rect class="cls-18" x="302.27" y="267.62" width="23.13" height="8.05"/>
    <path class="cls-18" d="M278.74,119.67c.11.16.23.32.37.47"/>
  </g>
  <g id="Calque_08" data-name="Calque 08">
    <rect class="cls-11" x="290.31" y="275.67" width="1.43" height="2.35"/>
    <line class="cls-11" x1="175.66" y1="276.61" x2="194.22" y2="276.61"/>
    <line class="cls-11" x1="155.68" y1="276.61" x2="174.24" y2="276.61"/>
    <rect class="cls-11" x="214.21" y="275.67" width="1.43" height="1.88"/>
    <rect class="cls-11" x="174.24" y="275.67" width="1.43" height="1.88"/>
    <rect class="cls-11" x="194.22" y="275.67" width="1.43" height="1.88"/>
    <rect class="cls-11" x="234.2" y="275.67" width="1.43" height="1.88"/>
    <rect class="cls-11" x="154.25" y="275.67" width="1.43" height="1.88"/>
    <rect class="cls-11" x="269.43" y="275.67" width="1.43" height="2.35"/>
    <rect class="cls-11" x="248.55" y="275.67" width="1.43" height="2.35"/>
    <rect class="cls-11" x="325.3" y="275.67" width="1.43" height="1.88"/>
    <rect class="cls-11" x="363.82" y="275.67" width="1.43" height="1.88"/>
    <rect class="cls-11" x="344.56" y="275.67" width="1.43" height="1.88"/>
    <rect class="cls-11" x="120.65" y="275.67" width="1.43" height="1.88"/>
    <rect class="cls-11" x="139.9" y="275.67" width="1.43" height="1.88"/>
    <rect class="cls-11" x="101.39" y="275.67" width="1.43" height="1.88"/>
  </g>
  <g id="Calque_05" data-name="Calque 05">
    <line class="cls-8" x1="101.39" y1="283.2" x2="141.33" y2="283.2"/>
    <line class="cls-8" x1="291.74" y1="283.2" x2="248.55" y2="283.2"/>
    <polyline class="cls-8" points="242.69 283.2 242.69 309.86 146.14 309.86 146.14 283.2"/>
    <line class="cls-8" x1="235.63" y1="283.2" x2="154.25" y2="283.2"/>
    <polyline class="cls-8" points="245.64 283.2 245.64 312.81 143.2 312.81 143.2 283.2"/>
    <line class="cls-8" x1="365.24" y1="283.2" x2="325.3" y2="283.2"/>
  </g>
  <g id="Calque_03" data-name="Calque 03">
    <line class="cls-11" x1="235.63" y1="275.67" x2="154.25" y2="275.67"/>
    <line class="cls-11" x1="363.82" y1="276.61" x2="345.99" y2="276.61"/>
    <line class="cls-11" x1="344.56" y1="276.61" x2="326.73" y2="276.61"/>
    <line class="cls-11" x1="344.56" y1="277.55" x2="326.73" y2="277.55"/>
    <line class="cls-11" x1="249.97" y1="276.84" x2="269.43" y2="276.84"/>
    <line class="cls-11" x1="270.86" y1="276.84" x2="290.31" y2="276.84"/>
    <line class="cls-11" x1="270.86" y1="275.67" x2="291.74" y2="275.67"/>
    <line class="cls-11" x1="248.55" y1="275.67" x2="269.43" y2="275.67"/>
    <line class="cls-11" x1="270.86" y1="278.02" x2="291.74" y2="278.02"/>
    <line class="cls-11" x1="248.55" y1="278.02" x2="269.43" y2="278.02"/>
    <line class="cls-11" x1="363.82" y1="277.55" x2="345.99" y2="277.55"/>
    <line class="cls-11" x1="363.82" y1="275.67" x2="345.99" y2="275.67"/>
    <line class="cls-11" x1="139.9" y1="276.61" x2="122.07" y2="276.61"/>
    <line class="cls-11" x1="120.65" y1="276.61" x2="102.82" y2="276.61"/>
    <line class="cls-11" x1="139.9" y1="275.67" x2="122.07" y2="275.67"/>
    <line class="cls-11" x1="120.65" y1="275.67" x2="102.82" y2="275.67"/>
    <line class="cls-11" x1="139.9" y1="277.55" x2="122.07" y2="277.55"/>
    <line class="cls-11" x1="120.65" y1="277.55" x2="102.82" y2="277.55"/>
    <line class="cls-11" x1="344.56" y1="275.67" x2="326.73" y2="275.67"/>
    <line class="cls-11" x1="214.21" y1="276.61" x2="195.65" y2="276.61"/>
    <line class="cls-11" x1="234.2" y1="276.61" x2="215.64" y2="276.61"/>
    <line class="cls-11" x1="194.22" y1="276.61" x2="175.66" y2="276.61"/>
    <line class="cls-11" x1="174.24" y1="276.61" x2="155.68" y2="276.61"/>
    <line class="cls-11" x1="235.63" y1="277.55" x2="154.25" y2="277.55"/>
  </g>
  <g id="Calque_02" data-name="Calque 02">
    <line class="cls-7" x1="220.28" y1="134.53" x2="220.28" y2="133.18"/>
    <polyline class="cls-7" points="124.05 137.99 145.19 137.92 145.19 139.06 124.06 139.13"/>
    <line class="cls-7" x1="296.6" y1="207.56" x2="296.66" y2="189.49"/>
    <path class="cls-7" d="M286.73,147.72c-10.1-.5-18.24-8.69-18.27-18.89"/>
    <polyline class="cls-7" points="287.75 147.72 287.69 128.77 286.66 128.77 286.73 147.72"/>
    <line class="cls-7" x1="286.73" y1="147.72" x2="287.75" y2="147.72"/>
    <path class="cls-7" d="M248.26,147.72c10.1-.5,18.24-8.69,18.27-18.89"/>
    <polyline class="cls-7" points="247.23 147.72 247.29 128.77 248.32 128.77 248.26 147.72"/>
    <line class="cls-7" x1="248.26" y1="147.72" x2="247.23" y2="147.72"/>
    <line class="cls-7" x1="296.66" y1="189.49" x2="296.67" y2="186.42"/>
    <polyline class="cls-7" points="296.67 186.42 295.53 186.42 295.53 186.42"/>
    <line class="cls-7" x1="295.53" y1="186.42" x2="295.52" y2="189.49"/>
    <line class="cls-7" x1="295.52" y1="189.49" x2="295.46" y2="207.55"/>
    <line class="cls-7" x1="96.9" y1="157.97" x2="96.9" y2="159.11"/>
    <polyline class="cls-7" points="96.9 159.11 118.03 159.18 118.03 158.04 96.9 157.97"/>
    <path class="cls-7" d="M96.9,157.97c.63-11.26,9.83-20.27,21.2-20.23"/>
    <line class="cls-7" x1="124.06" y1="139.13" x2="124.05" y2="137.99"/>
    <path class="cls-7" d="M124.06,139.13c.63,11.26,9.83,20.27,21.2,20.23"/>
    <path class="cls-7" d="M141.02,181.54c-11.26-.63-20.27-9.83-20.23-21.2"/>
    <polyline class="cls-7" points="142.16 181.54 142.23 160.41 141.09 160.41 141.02 181.54"/>
    <line class="cls-7" x1="141.02" y1="181.54" x2="142.16" y2="181.54"/>
    <path class="cls-7" d="M220.28,134.53c.38,6.77,3.6,12.95,8.67,17.35,5.07,4.4,11.64,6.73,18.31,6.73"/>
    <polyline class="cls-7" points="220.28 133.18 247.27 133.17 247.27 134.53 220.28 134.53"/>
    <line class="cls-7" x1="295.46" y1="207.55" x2="296.6" y2="207.56"/>
    <path class="cls-7" d="M295.46,207.55c-10.06-.56-18.51-8.01-20-18.06"/>
    <path class="cls-7" d="M275.46,189.49c-.15-1.03-.23-2.06-.23-3.1"/>
    <path class="cls-7" d="M275.23,186.4s0-.03,0-.04"/>
    <rect class="cls-7" x="118.03" y="133.85" width="25.17" height="1.04"/>
    <path class="cls-7" d="M281.34,134.38c.71,12.63,11.88,21.47,24.06,21.47"/>
    <polyline class="cls-7" points="281.34 133.17 305.4 133.17 305.4 134.38 281.34 134.38"/>
    <line class="cls-7" x1="281.34" y1="134.38" x2="281.34" y2="133.17"/>
    <line class="cls-7" x1="321.19" y1="166.2" x2="321.2" y2="165.06"/>
    <polyline class="cls-7" points="321.2 165.06 300.07 164.99 300.06 166.13 321.19 166.2"/>
    <path class="cls-7" d="M321.19,166.2c-.63,11.26-9.83,20.27-21.2,20.23"/>
  </g>
  <g id="cotes">
    <line class="cls-12" x1="304.75" y1="159.27" x2="317.63" y2="159.43"/>
    <line class="cls-12" x1="305.4" y1="105.8" x2="318.29" y2="105.96"/>
    <line class="cls-12" x1="317.63" y1="159.43" x2="317.9" y2="138.01"/>
    <line class="cls-12" x1="318.03" y1="127.08" x2="318.29" y2="105.96"/>
    <polyline class="cls-12" points="316.42 158.37 318.66 160.67 318.85 160.49 316.61 158.19 316.42 158.37"/>
    <polyline class="cls-12" points="319.5 107.01 317.26 104.72 317.08 104.9 319.32 107.19 319.5 107.01"/>
    <line class="cls-12" x1="139.18" y1="111.51" x2="139.18" y2="89.17"/>
    <line class="cls-12" x1="118.03" y1="111.51" x2="118.03" y2="89.17"/>
    <line class="cls-12" x1="139.18" y1="89.17" x2="134.24" y2="89.17"/>
    <line class="cls-12" x1="121.38" y1="89.17" x2="118.03" y2="89.17"/>
    <polyline class="cls-12" points="138.14 90.39 140.4 88.12 140.22 87.94 137.95 90.21 138.14 90.39"/>
    <polyline class="cls-12" points="119.07 87.94 116.8 90.21 116.99 90.39 119.25 88.12 119.07 87.94"/>
    <line class="cls-12" x1="60.71" y1="274.15" x2="60.61" y2="294.52"/>
    <line class="cls-12" x1="143.2" y1="274.54" x2="143.1" y2="294.91"/>
    <line class="cls-12" x1="60.61" y1="294.52" x2="96.31" y2="294.69"/>
    <line class="cls-12" x1="106.54" y1="294.74" x2="143.1" y2="294.91"/>
    <polyline class="cls-12" points="61.66 293.3 59.38 295.56 59.56 295.74 61.84 293.48 61.66 293.3"/>
    <polyline class="cls-12" points="142.05 296.13 144.33 293.87 144.15 293.69 141.87 295.94 142.05 296.13"/>
    <line class="cls-12" x1="245.64" y1="274.15" x2="245.5" y2="294.52"/>
    <line class="cls-12" x1="300.07" y1="274.54" x2="299.92" y2="294.91"/>
    <line class="cls-12" x1="245.5" y1="294.52" x2="267.4" y2="294.67"/>
    <line class="cls-12" x1="278.26" y1="294.75" x2="299.92" y2="294.91"/>
    <polyline class="cls-12" points="246.55 293.3 244.27 295.55 244.45 295.74 246.73 293.48 246.55 293.3"/>
    <polyline class="cls-12" points="298.87 296.12 301.15 293.87 300.97 293.69 298.69 295.94 298.87 296.12"/>
    <line class="cls-12" x1="302.27" y1="274.15" x2="302.16" y2="294.52"/>
    <line class="cls-12" x1="373.13" y1="274.54" x2="373.02" y2="294.91"/>
    <line class="cls-12" x1="302.16" y1="294.52" x2="332.04" y2="294.68"/>
    <line class="cls-12" x1="343.21" y1="294.74" x2="373.02" y2="294.91"/>
    <polyline class="cls-12" points="303.21 293.3 300.92 295.56 301.11 295.74 303.39 293.48 303.21 293.3"/>
    <polyline class="cls-12" points="371.97 296.13 374.25 293.87 374.07 293.69 371.79 295.94 371.97 296.13"/>
    <line class="cls-12" x1="145.26" y1="274.15" x2="145.17" y2="294.52"/>
    <line class="cls-12" x1="243.31" y1="274.54" x2="243.23" y2="294.91"/>
    <line class="cls-12" x1="145.17" y1="294.52" x2="188.66" y2="294.69"/>
    <line class="cls-12" x1="199.82" y1="294.74" x2="243.23" y2="294.91"/>
    <polyline class="cls-12" points="146.22 293.3 143.95 295.56 144.13 295.74 146.4 293.48 146.22 293.3"/>
    <polyline class="cls-12" points="242.19 296.13 244.46 293.87 244.28 293.69 242.01 295.94 242.19 296.13"/>
    <line class="cls-12" x1="60.71" y1="162.15" x2="42.13" y2="162.09"/>
    <line class="cls-12" x1="60.35" y1="275.67" x2="41.77" y2="275.61"/>
    <line class="cls-12" x1="42.13" y1="162.09" x2="41.97" y2="213.23"/>
    <line class="cls-12" x1="41.93" y1="224.47" x2="41.77" y2="275.61"/>
    <polyline class="cls-12" points="43.35 163.14 41.09 160.87 40.91 161.05 43.17 163.32 43.35 163.14"/>
    <polyline class="cls-12" points="40.55 274.56 42.81 276.84 42.99 276.66 40.73 274.38 40.55 274.56"/>
    <line class="cls-12" x1="60.71" y1="117.89" x2="41.91" y2="117.73"/>
    <line class="cls-12" x1="60.35" y1="160.24" x2="41.55" y2="160.08"/>
    <line class="cls-12" x1="41.91" y1="117.73" x2="41.77" y2="133.59"/>
    <line class="cls-12" x1="41.68" y1="144.53" x2="41.55" y2="160.08"/>
    <polyline class="cls-12" points="43.12 118.79 40.87 116.5 40.69 116.68 42.94 118.97 43.12 118.79"/>
    <polyline class="cls-12" points="40.33 159.03 42.58 161.31 42.77 161.13 40.52 158.85 40.33 159.03"/>
    <line class="cls-12" x1="243.33" y1="111.51" x2="243.33" y2="89.17"/>
    <line class="cls-12" x1="145.26" y1="111.51" x2="145.26" y2="89.17"/>
    <line class="cls-12" x1="243.33" y1="89.17" x2="199.84" y2="89.17"/>
    <line class="cls-12" x1="188.68" y1="89.17" x2="145.26" y2="89.17"/>
    <polyline class="cls-12" points="242.29 90.39 244.56 88.12 244.38 87.94 242.11 90.21 242.29 90.39"/>
    <polyline class="cls-12" points="146.3 87.94 144.03 90.21 144.21 90.39 146.48 88.12 146.3 87.94"/>
    <line class="cls-12" x1="266.52" y1="111.51" x2="266.52" y2="89.17"/>
    <line class="cls-12" x1="247.27" y1="111.51" x2="247.27" y2="89.17"/>
    <line class="cls-12" x1="266.52" y1="89.17" x2="262.62" y2="89.17"/>
    <line class="cls-12" x1="249.74" y1="89.17" x2="247.27" y2="89.17"/>
    <polyline class="cls-12" points="265.48 90.39 267.75 88.12 267.57 87.94 265.3 90.21 265.48 90.39"/>
    <polyline class="cls-12" points="248.31 87.94 246.04 90.21 246.23 90.39 248.49 88.13 248.31 87.94"/>
    <line class="cls-12" x1="300.7" y1="111.51" x2="300.7" y2="89.17"/>
    <line class="cls-12" x1="268.46" y1="111.51" x2="268.46" y2="89.17"/>
    <line class="cls-12" x1="300.7" y1="89.17" x2="290.76" y2="89.17"/>
    <line class="cls-12" x1="278" y1="89.17" x2="268.46" y2="89.17"/>
    <polyline class="cls-12" points="299.66 90.39 301.92 88.12 301.74 87.94 299.47 90.21 299.66 90.39"/>
    <polyline class="cls-12" points="269.5 87.94 267.23 90.21 267.41 90.39 269.68 88.12 269.5 87.94"/>
    <line class="cls-12" x1="373.13" y1="165.33" x2="373.18" y2="152.3"/>
    <line class="cls-12" x1="302.27" y1="165.08" x2="302.31" y2="152.05"/>
    <line class="cls-12" x1="373.18" y1="152.3" x2="343.29" y2="152.19"/>
    <line class="cls-12" x1="332.13" y1="152.16" x2="302.31" y2="152.05"/>
    <polyline class="cls-12" points="372.13 153.52 374.41 151.26 374.23 151.08 371.95 153.34 372.13 153.52"/>
    <polyline class="cls-12" points="303.36 150.83 301.08 153.09 301.27 153.27 303.54 151.01 303.36 150.83"/>
    <line class="cls-12" x1="372.89" y1="275.67" x2="385.77" y2="275.7"/>
    <line class="cls-12" x1="373.13" y1="164.99" x2="386.02" y2="165.02"/>
    <line class="cls-12" x1="385.77" y1="275.7" x2="385.88" y2="225.9"/>
    <line class="cls-12" x1="385.91" y1="214.74" x2="386.02" y2="165.02"/>
    <polyline class="cls-12" points="384.55 274.65 386.81 276.92 387 276.74 384.73 274.47 384.55 274.65"/>
    <polyline class="cls-12" points="387.24 166.06 384.98 163.79 384.8 163.97 387.06 166.24 387.24 166.06"/>
    <line class="cls-12" x1="115.7" y1="111.51" x2="115.7" y2="89.17"/>
    <line class="cls-12" x1="60.71" y1="111.51" x2="60.71" y2="89.17"/>
    <line class="cls-12" x1="115.7" y1="89.17" x2="93.52" y2="89.17"/>
    <line class="cls-12" x1="82.51" y1="89.17" x2="60.71" y2="89.17"/>
    <polyline class="cls-12" points="114.66 90.39 116.92 88.12 116.74 87.94 114.47 90.21 114.66 90.39"/>
    <polyline class="cls-12" points="61.75 87.94 59.48 90.21 59.66 90.39 61.93 88.12 61.75 87.94"/>
  </g>
  <g id="Calque_9" data-name="Calque 9">
    <g>
      <text class="cls-21" transform="translate(320.04 138.54) rotate(-89.3)"><tspan x="0" y="0">1.89</tspan></text>
      <text class="cls-21" transform="translate(121.82 90.97)"><tspan x="0" y="0">0.75</tspan></text>
      <text class="cls-21" transform="translate(96.04 296.82) rotate(.27)"><tspan x="0" y="0">2.91</tspan></text>
      <text class="cls-21" transform="translate(266.87 296.78) rotate(.41)"><tspan x="0" y="0">1.92</tspan></text>
      <text class="cls-21" transform="translate(331.75 296.79) rotate(.32)"><tspan x="0" y="0">2.50</tspan></text>
      <text class="cls-21" transform="translate(188.38 296.81) rotate(.22)"><tspan x="0" y="0">3.46</tspan></text>
      <text class="cls-21" transform="translate(44.02 224.64) rotate(-89.82)"><tspan x="0" y="0">4.00</tspan></text>
      <text class="cls-21" transform="translate(43.81 145.02) rotate(-89.52)"><tspan x="0" y="0">1.49</tspan></text>
      <text class="cls-21" transform="translate(188.42 91.29)"><tspan x="0" y="0">3.46</tspan></text>
      <text class="cls-21" transform="translate(250.12 90.88) rotate(-.01)"><tspan x="0" y="0">0.68</tspan></text>
      <text class="cls-21" transform="translate(277.82 90.44)"><tspan x="0" y="0">1.14</tspan></text>
      <text class="cls-21" transform="translate(331.85 154.26) rotate(.2)"><tspan x="0" y="0">2.50</tspan></text>
      <text class="cls-21" transform="translate(387.98 226.13) rotate(-89.87)"><tspan x="0" y="0">3.90</tspan></text>
      <text class="cls-21" transform="translate(82.02 91.32)"><tspan x="0" y="0">1.94</tspan></text>
    </g>
  </g>
  <g id="D_faut" data-name="D√©faut">
    <polygon class="cls-16" points="379.21 159.27 379.21 283.2 365.24 283.2 365.24 275.67 373.13 275.67 373.13 164.99 300.07 164.99 300.07 155.85 304.75 155.85 304.75 159.27 379.21 159.27"/>
    <line class="cls-16" x1="247.27" y1="107.8" x2="247.27" y2="128.55"/>
    <rect class="cls-16" x="291.74" y="257.66" width="8.33" height="18"/>
    <polyline class="cls-16" points="243.31 158.61 243.31 206.5 243.31 275.67 235.63 275.67 235.63 283.2 248.55 283.2 248.55 275.67 245.64 275.67 245.65 257.66 245.66 189.49 275.14 189.49 275.14 186.4 247.27 186.36 247.27 158.61 243.33 158.61 234.84 158.61 234.84 206.5 243.34 206.5"/>
    <rect class="cls-16" x="266.52" y="105.8" width="1.93" height="25.4"/>
    <polygon class="cls-16" points="142.23 160.41 143.2 160.41 143.2 159.36 145.26 159.36 145.26 275.67 154.25 275.67 154.25 283.2 141.33 283.2 141.33 275.67 143.2 275.67 143.2 162.15 142.23 162.15 142.23 160.41"/>
    <line class="cls-16" x1="300.7" y1="105.8" x2="300.7" y2="128.78"/>
    <line class="cls-16" x1="300.7" y1="131.12" x2="300.7" y2="133.17"/>
    <polygon class="cls-16" points="296.66 186.42 296.66 189.49 300.07 189.49 300.07 275.67 291.74 275.67 291.74 283.2 325.3 283.2 325.3 275.67 302.27 275.67 302.27 186.43 300.07 186.43 296.66 186.42"/>
    <line class="cls-16" x1="60.71" y1="119.77" x2="60.71" y2="120.81"/>
    <polygon class="cls-16" points="300.7 105.8 247.27 105.8 247.27 128.85 247.27 133.17 243.33 133.17 243.33 105.8 145.26 105.8 145.26 115.61 145.26 137.92 143.2 137.92 143.2 117.89 118.03 117.89 118.03 137.74 115.7 137.74 115.7 117.89 60.71 117.89 60.71 157.03 60.71 160.41 115.33 160.41 115.33 159.18 118.03 159.18 118.03 160.41 120.8 160.41 120.8 162.15 60.71 162.15 60.71 275.67 101.39 275.67 101.39 283.2 54.63 283.2 54.63 111.51 139.18 111.51 139.18 99.42 305.4 99.42 305.4 133.17 300.7 133.17 300.7 131.12 287.69 131.12 287.69 128.77 300.7 128.78 300.7 105.8"/>
    <line class="cls-16" x1="54.63" y1="119.31" x2="54.63" y2="117.49"/>
    <rect class="cls-15" x="293.09" y="259.17" width="6.94" height="14.99"/>
    <line class="cls-3" x1="293.09" y1="259.17" x2="300.03" y2="274.16"/>
  </g>
  <g id="Calque_10" data-name="Calque 10">
    <rect class="cls-15" x="236.24" y="160.06" width="7.08" height="45.06"/>
    <rect class="cls-16" x="324.32" y="267.61" width=".99" height="8.06"/>
    <line class="cls-3" x1="236.22" y1="160.03" x2="243.3" y2="205.09"/>
  </g>
  <g id="Calque_8" data-name="Calque 8">
    <g>
      <circle class="cls-10" cx="371.95" cy="349.59" r="9.92"/>
      <line class="cls-10" x1="371.96" y1="349.67" x2="379.4" y2="356.14"/>
      <line class="cls-5" x1="364.43" y1="343.12" x2="371.96" y2="349.67"/>
    </g>
  </g>
  <g id="Calque_12" data-name="Calque 12">
    <g>
      <text class="cls-22" transform="translate(85.09 206.36)"><tspan x="0" y="0">Chamb</tspan><tspan class="cls-1" x="19.92" y="0">r</tspan><tspan x="21.71" y="0">e I</tspan><tspan class="cls-2" x="0" y="7.2">1</tspan><tspan x="3.24" y="7.2">1,60m</tspan></text>
      <text class="cls-22" transform="translate(105.18 211.56) scale(.58)"><tspan x="0" y="0">2</tspan></text>
      <text class="cls-22" transform="translate(107.14 213.56)"><tspan x="0" y="0"> </tspan></text>
    </g>
    <g>
      <text class="cls-22" transform="translate(171.91 206.36)"><tspan x="0" y="0">Salon</tspan><tspan x="0" y="7.2">20,70m</tspan></text>
      <text class="cls-22" transform="translate(192.13 211.56) scale(.58)"><tspan x="0" y="0">2</tspan></text>
      <text class="cls-22" transform="translate(194.09 213.56)"><tspan x="0" y="0"> </tspan></text>
    </g>
    <g>
      <text class="cls-22" transform="translate(254.73 206.36)"><tspan x="0" y="0">Cuisine</tspan><tspan x="0" y="7.2">5,80m</tspan></text>
      <text class="cls-22" transform="translate(271.58 211.56) scale(.58)"><tspan x="0" y="0">2</tspan></text>
      <text class="cls-22" transform="translate(273.54 213.56)"><tspan x="0" y="0"> </tspan></text>
    </g>
    <g>
      <text class="cls-22" transform="translate(327.85 206.36)"><tspan x="0" y="0">Chamb</tspan><tspan class="cls-1" x="19.92" y="0">r</tspan><tspan x="21.71" y="0">e II</tspan><tspan x="0" y="7.2">9,75 m</tspan></text>
      <text class="cls-22" transform="translate(346.21 211.56) scale(.58)"><tspan x="0" y="0">2</tspan></text>
    </g>
    <g>
      <text class="cls-22" transform="translate(257.32 162.46)"><tspan x="0" y="0">Ent</tspan><tspan class="cls-1" x="8.8" y="0">r</tspan><tspan x="10.59" y="0">ée</tspan><tspan x="0" y="7.2">3,60m</tspan></text>
      <text class="cls-22" transform="translate(274.17 167.66) scale(.58)"><tspan x="0" y="0">2</tspan></text>
      <text class="cls-22" transform="translate(276.13 169.66)"><tspan x="0" y="0"> </tspan></text>
    </g>
    <g>
      <text class="cls-22" transform="translate(271.81 116.03)"><tspan x="0" y="0">WC</tspan><tspan x="0" y="7.2">1m</tspan></text>
      <text class="cls-22" transform="translate(280.5 121.23) scale(.58)"><tspan x="0" y="0">2</tspan></text>
      <text class="cls-22" transform="translate(282.46 123.23)"><tspan x="0" y="0"> </tspan></text>
    </g>
    <g>
      <text class="cls-22" transform="translate(73.39 133.16)"><tspan x="0" y="0" xml:space="preserve">Salle de  bain</tspan><tspan x="0" y="7.2">2,90m</tspan></text>
      <text class="cls-22" transform="translate(90.25 138.36) scale(.58)"><tspan x="0" y="0">2</tspan></text>
      <text class="cls-22" transform="translate(92.2 140.36)"><tspan x="0" y="0"> </tspan></text>
    </g>
  </g>
</svg>