<?xml version="1.0" encoding="UTF-8"?>
<svg xmlns="http://www.w3.org/2000/svg" xmlns:xlink="http://www.w3.org/1999/xlink" viewBox="0 0 420.94 425.2">
  <defs>
    <style>
      .cls-1 {
        letter-spacing: -.02em;
      }

      .cls-2 {
        stroke-dasharray: 0 0 2.11 2.11;
      }

      .cls-2, .cls-3, .cls-4, .cls-5, .cls-6, .cls-7, .cls-8, .cls-9, .cls-10, .cls-11, .cls-12, .cls-13, .cls-14, .cls-15 {
        fill: none;
      }

      .cls-2, .cls-3, .cls-4, .cls-5, .cls-10, .cls-13, .cls-14, .cls-16, .cls-15 {
        stroke-width: .15px;
      }

      .cls-2, .cls-3, .cls-4, .cls-9, .cls-10, .cls-13, .cls-14, .cls-16 {
        stroke-linecap: round;
        stroke-linejoin: round;
      }

      .cls-2, .cls-3, .cls-4, .cls-10, .cls-14, .cls-16 {
        stroke: #666;
      }

      .cls-17 {
        letter-spacing: -.02em;
      }

      .cls-3 {
        stroke-dasharray: 0 0 2 2;
      }

      .cls-4 {
        stroke-dasharray: 0 0 1.97 1.97;
      }

      .cls-5, .cls-18, .cls-19, .cls-20, .cls-7, .cls-8, .cls-21, .cls-12, .cls-22, .cls-15 {
        stroke-miterlimit: 10;
      }

      .cls-5, .cls-20, .cls-7, .cls-21, .cls-12 {
        stroke: #000;
      }

      .cls-6, .cls-23, .cls-24 {
        stroke-width: 0px;
      }

      .cls-23 {
        fill: url(#Grille_1_pica_lignes);
        opacity: .7;
      }

      .cls-18 {
        fill: url(#Nouveau_motif_2-2);
      }

      .cls-18, .cls-19, .cls-8, .cls-9, .cls-13, .cls-22, .cls-15 {
        stroke: #333;
      }

      .cls-18, .cls-19, .cls-8, .cls-22 {
        stroke-width: .05px;
      }

      .cls-19 {
        fill: url(#Nouveau_motif_2-3);
      }

      .cls-20, .cls-21 {
        stroke-width: .5px;
      }

      .cls-20, .cls-16, .cls-24 {
        fill: #fff;
      }

      .cls-7 {
        stroke-width: 2px;
      }

      .cls-25 {
        fill: #333;
        font-family: Avenir-Medium, Avenir;
        font-size: 6.23px;
        font-weight: 500;
      }

      .cls-21 {
        fill: #999;
      }

      .cls-26 {
        fill: #000;
        font-family: AvenirNext-UltraLight, 'Avenir Next';
        font-size: 6px;
        font-weight: 100;
      }

      .cls-9, .cls-12 {
        stroke-width: .25px;
      }

      .cls-11 {
        stroke: #1d1d1b;
        stroke-width: .3px;
      }

      .cls-27 {
        opacity: .8;
      }

      .cls-14 {
        stroke-dasharray: 0 0 1.97 1.97;
      }

      .cls-22 {
        fill: url(#Nouveau_motif_2);
      }
    </style>
    <pattern id="Nouveau_motif_2" data-name="Nouveau motif 2" x="0" y="0" width="34.23" height="27.94" patternTransform="translate(-3531.82 -12305.33) rotate(-90) scale(.55)" patternUnits="userSpaceOnUse" viewBox="0 0 34.23 27.94">
      <g>
        <rect class="cls-6" x="0" width="34.23" height="27.94"/>
        <rect class="cls-8" x="17.14" y="25.63" width="34.18" height="4.61"/>
        <rect class="cls-8" x="-17.09" y="25.63" width="34.18" height="4.61"/>
        <rect class="cls-8" x=".03" y="20.98" width="34.18" height="4.61"/>
        <rect class="cls-8" x="17.14" y="16.32" width="34.18" height="4.61"/>
        <rect class="cls-8" x="-17.09" y="16.32" width="34.18" height="4.61"/>
        <rect class="cls-8" x=".03" y="11.67" width="34.18" height="4.61"/>
        <rect class="cls-8" x="17.14" y="7.01" width="34.18" height="4.61"/>
        <rect class="cls-8" x="-17.09" y="7.01" width="34.18" height="4.61"/>
        <rect class="cls-8" x=".03" y="2.35" width="34.18" height="4.61"/>
        <rect class="cls-8" x="17.14" y="-2.3" width="34.18" height="4.61"/>
        <rect class="cls-8" x="-17.09" y="-2.3" width="34.18" height="4.61"/>
      </g>
    </pattern>
    <pattern id="Nouveau_motif_2-2" data-name="Nouveau motif 2" patternTransform="translate(-3942.21 -3237.97) scale(.55)" xlink:href="#Nouveau_motif_2"/>
    <pattern id="Nouveau_motif_2-3" data-name="Nouveau motif 2" patternTransform="translate(-3942.21 -3237.97) scale(.55)" xlink:href="#Nouveau_motif_2"/>
    <pattern id="Grille_1_pica_lignes" data-name="Grille 1 pica lignes" x="0" y="0" width="72" height="72" patternTransform="translate(-3805.38 -3259.78) scale(.14)" patternUnits="userSpaceOnUse" viewBox="0 0 72 72">
      <g>
        <rect class="cls-6" width="72" height="72"/>
        <g>
          <line class="cls-11" x1="6" y1="71.75" x2="6" y2="144.25"/>
          <line class="cls-11" x1="30" y1="71.75" x2="30" y2="144.25"/>
          <line class="cls-11" x1="54" y1="71.75" x2="54" y2="144.25"/>
          <line class="cls-11" x1="18" y1="71.75" x2="18" y2="144.25"/>
          <line class="cls-11" x1="42" y1="71.75" x2="42" y2="144.25"/>
          <line class="cls-11" x1="66" y1="71.75" x2="66" y2="144.25"/>
        </g>
        <g>
          <line class="cls-11" x1="71.75" y1="66" x2="144.25" y2="66"/>
          <line class="cls-11" x1="71.75" y1="42" x2="144.25" y2="42"/>
          <line class="cls-11" x1="71.75" y1="18" x2="144.25" y2="18"/>
          <line class="cls-11" x1="71.75" y1="54" x2="144.25" y2="54"/>
          <line class="cls-11" x1="71.75" y1="30" x2="144.25" y2="30"/>
          <line class="cls-11" x1="71.75" y1="6" x2="144.25" y2="6"/>
        </g>
        <g>
          <line class="cls-11" x1="6" y1="-.25" x2="6" y2="72.25"/>
          <line class="cls-11" x1="30" y1="-.25" x2="30" y2="72.25"/>
          <line class="cls-11" x1="54" y1="-.25" x2="54" y2="72.25"/>
          <line class="cls-11" x1="-.25" y1="66" x2="72.25" y2="66"/>
          <line class="cls-11" x1="-.25" y1="42" x2="72.25" y2="42"/>
          <line class="cls-11" x1="-.25" y1="18" x2="72.25" y2="18"/>
          <line class="cls-11" x1="-.25" y1="54" x2="72.25" y2="54"/>
          <line class="cls-11" x1="-.25" y1="30" x2="72.25" y2="30"/>
          <line class="cls-11" x1="-.25" y1="6" x2="72.25" y2="6"/>
          <line class="cls-11" x1="18" y1="-.25" x2="18" y2="72.25"/>
          <line class="cls-11" x1="42" y1="-.25" x2="42" y2="72.25"/>
          <line class="cls-11" x1="66" y1="-.25" x2="66" y2="72.25"/>
        </g>
        <g>
          <line class="cls-11" x1="-72.25" y1="66" x2=".25" y2="66"/>
          <line class="cls-11" x1="-72.25" y1="42" x2=".25" y2="42"/>
          <line class="cls-11" x1="-72.25" y1="18" x2=".25" y2="18"/>
          <line class="cls-11" x1="-72.25" y1="54" x2=".25" y2="54"/>
          <line class="cls-11" x1="-72.25" y1="30" x2=".25" y2="30"/>
          <line class="cls-11" x1="-72.25" y1="6" x2=".25" y2="6"/>
        </g>
        <g>
          <line class="cls-11" x1="6" y1="-72.25" x2="6" y2=".25"/>
          <line class="cls-11" x1="30" y1="-72.25" x2="30" y2=".25"/>
          <line class="cls-11" x1="54" y1="-72.25" x2="54" y2=".25"/>
          <line class="cls-11" x1="18" y1="-72.25" x2="18" y2=".25"/>
          <line class="cls-11" x1="42" y1="-72.25" x2="42" y2=".25"/>
          <line class="cls-11" x1="66" y1="-72.25" x2="66" y2=".25"/>
        </g>
      </g>
    </pattern>
  </defs>
  <g id="Calque_11" data-name="Calque 11" class="cls-27">
    <polygon class="cls-22" points="145.27 275.82 145.27 105.95 243.3 105.95 243.3 275.82 145.27 275.82"/>
    <rect class="cls-18" x="302.05" y="165.24" width="70.87" height="110.59"/>
    <path class="cls-19" d="M115.66,117.9l-.55,42.67h5.46c0,.96-.78,1.74-1.74,1.74h-58.35v113.51h82.49v-113.51h-.98v-1.74h.98v-1.05h2.06v-21.44h-2.06v-20.03l-27.32-.15Z"/>
    <polygon class="cls-22" points="247.05 189.65 302.09 189.59 302.05 167.54 299.78 167.44 300.48 128.93 266.31 128.7 266.31 106.11 247.05 106.11 247.05 134.39 243.02 134.39 243.02 160.82 247.01 160.82 247.05 189.65"/>
    <rect class="cls-23" x="245.44" y="189.65" width="54.41" height="86.17"/>
    <rect class="cls-23" x="60.49" y="118.05" width="54.62" height="42.52"/>
    <rect class="cls-23" x="268.24" y="105.95" width="32.24" height="22.98"/>
  </g>
  <g id="Calque_09" data-name="Calque 09">
    <rect class="cls-16" x="262.61" y="257.67" width="29.09" height="18"/>
    <path class="cls-16" d="M263.49,273.62c6.12-.01,12.23-.03,18.35-.04.27,0,.38-.33.38-.55,0-4.36.01-8.72.02-13.08,0-.22-.1-.55-.38-.55-6.12.01-12.23.03-18.35.04-.27,0-.38.33-.38.55,0,4.36-.01,8.72-.02,13.08,0,.22.1.55.38.55Z"/>
    <path class="cls-16" d="M268.93,272.19c3.82,0,7.65-.02,11.47-.03.61,0,.84-.74.84-1.22,0-2.97,0-5.93.01-8.89,0-.48-.23-1.22-.84-1.22-5.16.01-10.31.02-15.47.03-.61,0-.84.74-.84,1.22,0,2.97,0,5.93-.01,8.89,0,.48.23,1.22.84,1.22,1.33,0,2.67,0,4,0Z"/>
    <rect class="cls-16" x="245.6" y="257.67" width="17.01" height="18"/>
    <polygon class="cls-24" points="338.64 261.1 340.61 254.98 340.86 254.56 341.82 252.45 349.2 252.45 351.43 254.18 352.37 255.51 352.05 257.06 352.05 258.91 352.37 261.1 338.64 261.1"/>
    <rect class="cls-16" x="230" y="283.2" width="12.05" height="26.55"/>
    <ellipse class="cls-24" cx="285.65" cy="117.5" rx="9.15" ry="6.62"/>
    <rect class="cls-16" x="283.02" y="240.52" width="17.01" height="17.01"/>
    <rect class="cls-16" x="283.02" y="206.51" width="17.01" height="11.34"/>
    <rect class="cls-16" x="283.02" y="217.85" width="17.01" height="22.68"/>
    <rect class="cls-16" x="273.97" y="189.5" width="26.06" height="17.01"/>
    <path class="cls-16" d="M234.77,220.9c.64,2.27,2.7,3.84,5.06,3.84s4.42-1.57,5.06-3.84"/>
    <path class="cls-16" d="M222.44,220.9c-.08,2.96,2.29,5.4,5.25,5.4s5.34-2.44,5.25-5.4"/>
    <rect class="cls-24" x="145.53" y="165.75" width="26.94" height="55.25" rx="2.8" ry="2.8"/>
    <rect class="cls-16" x="60.67" y="117.9" width="22.68" height="42.52"/>
    <rect class="cls-16" x="224.76" y="165.75" width="10.04" height="33.55"/>
    <rect class="cls-16" x="325.21" y="164.99" width="47.56" height="17.11"/>
    <rect class="cls-16" x="164.94" y="105.8" width="66.38" height="13.69"/>
    <line class="cls-16" x1="283.02" y1="257.53" x2="283.02" y2="275.67"/>
    <g>
      <polyline class="cls-10" points="291.7 256.53 291.7 257.53 292.7 257.53"/>
      <line class="cls-2" x1="294.81" y1="257.53" x2="297.97" y2="257.53"/>
      <polyline class="cls-10" points="299.03 257.53 300.03 257.53 300.03 256.53"/>
      <line class="cls-3" x1="300.03" y1="254.53" x2="300.03" y2="191.5"/>
      <polyline class="cls-10" points="300.03 190.5 300.03 189.5 299.03 189.5"/>
      <line class="cls-2" x1="296.92" y1="189.5" x2="293.76" y2="189.5"/>
      <polyline class="cls-10" points="292.7 189.5 291.7 189.5 291.7 190.5"/>
      <line class="cls-3" x1="291.7" y1="192.5" x2="291.7" y2="255.53"/>
    </g>
    <line class="cls-16" x1="64.2" y1="146.28" x2="63.08" y2="134.52"/>
    <line class="cls-16" x1="67.91" y1="149.47" x2="79.7" y2="148.87"/>
    <line class="cls-16" x1="65.78" y1="148.2" x2="77.27" y2="134.88"/>
    <path class="cls-16" d="M64.01,149.66c.44.57.33,1.39-.24,1.82-.57.44-1.39.33-1.82-.24-.44-.57-.33-1.39.24-1.82.57-.44,1.39-.33,1.82.24Z"/>
    <line class="cls-16" x1="83.4" y1="153.64" x2="60.67" y2="153.64"/>
    <rect class="cls-16" x="66.1" y="117.9" width="10.25" height="1.15"/>
    <path class="cls-16" d="M238.81,306.82c2.16-1.08,3.04-3.71,1.96-5.88-1.08-2.16-3.71-3.04-5.88-1.96-2.16,1.08-3.04,3.71-1.96,5.88,1.08,2.16,3.71,3.04,5.88,1.96Z"/>
    <line class="cls-16" x1="236.79" y1="302.62" x2="231.25" y2="295.01"/>
    <line class="cls-16" x1="235.9" y1="302.62" x2="227.28" y2="302.9"/>
    <line class="cls-16" x1="236.07" y1="303.63" x2="231.76" y2="310.29"/>
    <line class="cls-16" x1="236.07" y1="303.63" x2="241.05" y2="311.24"/>
    <line class="cls-16" x1="237.69" y1="303.46" x2="244.91" y2="300.49"/>
    <line class="cls-16" x1="237.63" y1="301.44" x2="238.53" y2="294"/>
    <line class="cls-16" x1="233.72" y1="295.79" x2="231.64" y2="297.47"/>
    <line class="cls-16" x1="229.29" y1="300.27" x2="229.46" y2="304.07"/>
    <line class="cls-16" x1="234.89" y1="310.12" x2="232.76" y2="308.74"/>
    <line class="cls-16" x1="241.21" y1="307.82" x2="238.36" y2="308.61"/>
    <line class="cls-16" x1="242.39" y1="303.29" x2="242" y2="299.26"/>
    <line class="cls-16" x1="240.88" y1="297.58" x2="237.06" y2="297.6"/>
    <line class="cls-16" x1="234.61" y1="293.83" x2="236.29" y2="301.11"/>
    <line class="cls-16" x1="236.07" y1="303.63" x2="229.35" y2="305.19"/>
    <line class="cls-16" x1="237.69" y1="303.46" x2="243.29" y2="306.37"/>
    <line class="cls-16" x1="234.55" y1="301.39" x2="227.84" y2="299.26"/>
    <line class="cls-16" x1="237.69" y1="303.46" x2="245.47" y2="303.46"/>
    <path class="cls-16" d="M237.55,291.94c1.43-.71,2-2.45,1.29-3.87-.71-1.42-2.45-2-3.87-1.29-1.43.71-2,2.45-1.29,3.87.71,1.42,2.45,2,3.87,1.29Z"/>
    <line class="cls-16" x1="236.22" y1="289.17" x2="232.57" y2="284.16"/>
    <line class="cls-16" x1="235.63" y1="289.17" x2="229.96" y2="289.36"/>
    <line class="cls-16" x1="235.74" y1="289.83" x2="232.91" y2="294.22"/>
    <line class="cls-16" x1="235.74" y1="289.83" x2="239.02" y2="294.85"/>
    <line class="cls-16" x1="236.81" y1="289.72" x2="241.57" y2="287.77"/>
    <line class="cls-16" x1="236.78" y1="288.4" x2="237.37" y2="283.5"/>
    <line class="cls-16" x1="234.2" y1="284.67" x2="232.83" y2="285.78"/>
    <line class="cls-16" x1="231.28" y1="287.62" x2="231.39" y2="290.13"/>
    <line class="cls-16" x1="234.97" y1="294.11" x2="233.56" y2="293.2"/>
    <line class="cls-16" x1="239.13" y1="292.6" x2="237.25" y2="293.12"/>
    <line class="cls-16" x1="239.91" y1="289.61" x2="239.65" y2="286.96"/>
    <line class="cls-16" x1="238.91" y1="285.85" x2="236.4" y2="285.87"/>
    <line class="cls-16" x1="234.79" y1="283.38" x2="235.89" y2="288.18"/>
    <line class="cls-16" x1="235.74" y1="289.83" x2="231.32" y2="290.87"/>
    <line class="cls-16" x1="236.81" y1="289.72" x2="240.5" y2="291.64"/>
    <line class="cls-16" x1="234.75" y1="288.36" x2="230.33" y2="286.96"/>
    <line class="cls-16" x1="236.81" y1="289.72" x2="241.94" y2="289.72"/>
    <line class="cls-16" x1="180.43" y1="302.04" x2="185.62" y2="303.17"/>
    <line class="cls-16" x1="186.61" y1="290.44" x2="183.13" y2="289.68"/>
    <path class="cls-16" d="M183.13,289.68c.76-.61-.04-1.79-.89-1.31"/>
    <path class="cls-16" d="M179.08,302.86c.57.79,1.79.05,1.35-.82"/>
    <path class="cls-16" d="M183.13,289.68c-4.05,2.75-5.23,8.18-2.69,12.36"/>
    <path class="cls-16" d="M182.24,288.37c-4.75,3.22-6.14,9.59-3.16,14.49"/>
    <line class="cls-16" x1="197.31" y1="291.71" x2="200.48" y2="291.75"/>
    <line class="cls-16" x1="200.29" y1="304.4" x2="195.2" y2="304.33"/>
    <path class="cls-16" d="M201.64,290.68c3.89,4.21,3.8,10.73-.21,14.83"/>
    <path class="cls-16" d="M200.48,291.75c3.32,3.59,3.24,9.16-.18,12.65"/>
    <path class="cls-16" d="M201.42,305.51c-.74.64-1.75-.36-1.13-1.11"/>
    <path class="cls-16" d="M200.48,291.75c-.6-.77.44-1.73,1.16-1.07"/>
    <rect class="cls-16" x="72.13" y="268.25" width="17.9" height="7.42"/>
    <rect class="cls-16" x="65.89" y="195.25" width="1.93" height="1.27" transform="translate(-129.68 260.82) rotate(-89.44)"/>
    <polygon class="cls-16" points="60.67 188.98 60.67 197.48 69.17 197.48 69.17 191.81 69.17 188.98 60.67 188.98"/>
    <rect class="cls-16" x="60.67" y="200.28" width="7.45" height="51.7"/>
    <rect class="cls-16" x="68.12" y="203.46" width="53.75" height="45.35"/>
    <line class="cls-16" x1="88.32" y1="203.46" x2="88.32" y2="248.81"/>
    <path class="cls-16" d="M70.01,223.82c-.04-.94.14-2.79.21-4.31.07-1.52.03-2.71.04-3.66,0-.95.05-1.67.12-2.23.06-.56.14-.96.13-1.37,0-.41-.1-.84-.23-1.21-.12-.37-.28-.69-.39-.97-.11-.28-.17-.52-.22-.8s-.06-.58-.06-.8.01-.37.09-.47c.08-.09.22-.13.35-.13.14,0,.27.01.5.06s.56.13.82.21.45.15.69.24c.25.09.56.19.84.27.28.08.53.14.9.13.36,0,.83-.07,1.65-.05.82.03,1.98.15,2.71.24.73.08,1.02.13,1.27.16.25.03.47.04.67-.01.2-.05.38-.17.78-.24.4-.08,1.01-.12,1.36-.2.35-.09.45-.22.63-.36.17-.14.42-.29.59-.47.17-.18.25-.38.42-.5.17-.12.43-.17.56-.1.13.06.14.24.15.41s.04.35.01.75c-.03.4-.11,1.04-.18,1.56-.08.52-.15.92-.22,1.28s-.12.69-.19,1.22-.16,1.28-.21,1.83c-.04.55-.04.91-.01,1.44s.09,1.25.22,1.83c.13.58.33,1.04.36,1.48.04.44-.09.88-.16,1.41s-.1,1.15-.11,1.6c-.01.45-.01.73-.02,1.22s-.01,1.17-.17,1.46c-.16.3-.47.2-.68.09-.21-.11-.32-.25-.48-.44-.16-.2-.38-.45-.63-.61-.25-.15-.52-.2-.81-.22-.29-.03-.6-.04-.92-.05s-.67-.04-.97-.06c-.3-.02-.57-.02-.81-.05s-.47-.1-.73-.1-.57.05-.82,0-.44-.19-.77-.16c-.33.03-.8.23-1.18.42-.38.18-.67.35-.99.38s-.65-.07-.96-.14-.58-.11-.82-.05c-.24.06-.46.23-.67.39s-.42.34-.6.45c-.18.12-.33.18-.53.19-.21.02-.48,0-.52-.95Z"/>
    <path class="cls-16" d="M71.82,214.97c.89-1.02,1.62-.81,2.1-.59"/>
    <path class="cls-16" d="M83.13,219.39c-.51.83-1.02.43-1.83.54"/>
    <path class="cls-16" d="M80.55,210.47c.41.21.65.42.88.54.23.12.46.13.89-.04"/>
    <path class="cls-16" d="M71.82,236c.89-1.02,1.62-.81,2.1-.59"/>
    <path class="cls-16" d="M83.13,240.42c-.51.83-1.02.43-1.83.54"/>
    <path class="cls-16" d="M80.55,231.5c.41.21.65.42.88.54.23.12.46.13.89-.04"/>
    <path class="cls-16" d="M70.39,244.77c.15-.94.71-2.79.97-4.31.26-1.52.22-2.71.04-3.66-.18-.95-.51-1.67-.64-2.23s-.05-.96-.06-1.37c0-.41-.1-.84-.23-1.21-.12-.37-.28-.69-.39-.97-.11-.28-.17-.52-.22-.8-.04-.27-.06-.58-.06-.8,0-.23.01-.37.09-.47.08-.09.22-.13.35-.13.14,0,.27.01.5.06.23.05.56.13.82.21.26.08.45.15.69.24s.56.19.84.27.53.14.9.38c.36.24.83.66,1.65.68s1.98-.34,2.71-.5c.73-.16,1.02-.11,1.27-.09s.47.04.67-.01c.2-.05.38-.17.78-.24.4-.08,1.01-.12,1.36-.2.36-.09.45-.22.63-.36.17-.14.42-.29.59-.47.17-.18.25-.38.42-.5.17-.12.43-.17.56-.1.13.06.14.24.15.41.01.17.04.35.01.75-.03.4-.11,1.04-.18,1.56s-.15.92-.36,1.28c-.21.36-.55.69-.71,1.22s-.12,1.28-.02,1.83c.1.55.26.91.38,1.44s.17,1.25.3,1.83c.13.58.33,1.04.36,1.48.04.44-.09.88-.16,1.41-.07.53-.1,1.15-.11,1.6s-.01.74-.02,1.22c0,.48-.01,1.17-.17,1.46-.16.3-.47.2-.68.09-.21-.11-.32-.25-.48-.44-.16-.2-.38-.45-.63-.71s-.52-.5-.81-.61-.6-.1-.92-.11-.67-.03-.97-.04-.57-.02-.81.03c-.24.05-.47.16-.73.25-.27.08-.57.14-.82.09s-.44-.19-.77-.16-.8.23-1.18.32c-.38.09-.67.06-.99,0s-.65-.16-.96-.23c-.31-.07-.58-.11-.82.05-.24.16-.46.51-.67.77-.21.26-.42.43-.6.55-.18.12-.33.18-.53.19-.21.02-.48,0-.33-.95Z"/>
    <line class="cls-16" x1="81.79" y1="203.46" x2="81.79" y2="208.73"/>
    <line class="cls-16" x1="81.79" y1="223.62" x2="81.79" y2="229.71"/>
    <line class="cls-16" x1="81.79" y1="244.16" x2="81.79" y2="248.81"/>
    <polygon class="cls-16" points="60.67 254.3 60.67 262.81 69.17 262.81 69.17 257.14 69.17 254.3 60.67 254.3"/>
    <path class="cls-16" d="M64.92,259.4c1.01-.27,1.6-1.3,1.34-2.3-.27-1-1.3-1.6-2.3-1.34-1,.27-1.6,1.3-1.34,2.3.27,1.01,1.3,1.6,2.3,1.34Z"/>
    <rect class="cls-16" x="65.89" y="260.58" width="1.93" height="1.27" transform="translate(-195 325.5) rotate(-89.44)"/>
    <path class="cls-16" d="M229.66,262.45c-1.22,1.76-1.01,4.14.5,5.66"/>
    <path class="cls-16" d="M234.22,260.64c-.96-.2-1.77-.12-2.67.27"/>
    <path class="cls-16" d="M233.55,269.41c.4-.02.78-.09,1.15-.22"/>
    <path class="cls-16" d="M237.04,267.39c.08-.12.14-.24.21-.36"/>
    <path class="cls-16" d="M237.74,264.64c-.08-1.09-.45-1.9-1.2-2.7"/>
    <path class="cls-16" d="M232.22,266.49c-.15,0-.31-.05-.46-.13-.33-.16-.67-.47-1.01-.78-.35-.31-.7-.64-.91-1.1-.2-.46-.25-1.07-.21-1.62.04-.55.16-1.06.22-1.46.06-.4.06-.69.21-1.06s.45-.8,1.1,0c.62.77,1.55,2.67,1.92,3.93"/>
    <path class="cls-16" d="M233.3,263.69c-.31.87-.68,1.56-.89,2.14s-.27,1.05-.25,1.29c.02.24.12.26.46.18.35-.08.94-.25,1.5-.68.56-.43,1.09-1.12,1.54-2,.45-.88.81-1.94.89-2.85.08-.91-.11-1.65-.48-2.01-.36-.35-.89-.31-1.24-.08-.35.22-.53.62-.74,1.35-.22.73-.48,1.79-.8,2.66Z"/>
    <path class="cls-16" d="M232.56,265.46s-.03-.01-.04-.02c-.6-.3-1.39-.3-1.79.17-.4.47-.4,1.42-.51,2.22s-.35,1.43-.42,1.96c-.07.53.03.94.3,1s.69-.26,1.28-.42,1.34-.18,1.73-.38c.4-.2.44-.59.57-1.02.13-.43.34-.91.4-1.25.06-.33-.02-.53-.25-.91"/>
    <path class="cls-16" d="M235.65,264.65c.39.04.91.13,1.42.1.89-.06,1.76-.49,2.47-.83s1.27-.6,1.76-.67c.49-.06.9.06,1.08.43s.13.98-.06,1.49c-.19.5-.51.9-.98,1.22-.46.32-1.06.58-1.48.7-.42.12-.66.09-1.05.07s-.94-.06-1.39-.11-.82-.12-1.1-.2c-.28-.09-.48-.19-.79-.64-.13-.19-.29-.45-.4-.69"/>
    <path class="cls-16" d="M234.3,266.37c-.4.06-.08.73.11,1.16.19.43.24.63.28,1.38.04.74.06,2.04.21,2.99.15.95.43,1.56.84,1.85.41.28.94.24,1.41.22.47-.02.87-.01,1.28-.1.41-.09.82-.28,1.04-.52s.22-.53.22-.84c0-.32-.02-.66-.22-1.16s-.59-1.14-.83-1.76c-.25-.62-.35-1.23-.6-1.58-.25-.35-.65-.46-1.42-.79-.77-.33-1.9-.89-2.31-.84Z"/>
    <line class="cls-16" x1="60.67" y1="170.44" x2="118.16" y2="170.44"/>
    <line class="cls-16" x1="62.1" y1="174.99" x2="61.91" y2="165.89"/>
    <path class="cls-16" d="M61.88,164.47c-.1,0-.13.28-.14.33-.02.13-.02.25-.02.38,0,.13.01.25.03.38,0,.06.05.33.15.33s.13-.28.14-.33c.02-.13.02-.25.02-.38,0-.13-.01-.25-.03-.38,0-.06-.05-.33-.15-.33Z"/>
    <line class="cls-16" x1="62.13" y1="176.41" x2="62.13" y2="176.41"/>
    <path class="cls-16" d="M62.1,174.99c-.1,0-.13.28-.14.33-.02.13-.02.25-.02.38,0,.13.01.25.03.38,0,.06.05.33.15.33s.13-.28.14-.33c.02-.13.02-.25.02-.38,0-.13-.01-.25-.03-.38,0-.06-.05-.33-.15-.33Z"/>
    <path class="cls-16" d="M88.42,174.99c-.13-.02-.23.2-.26.28-.05.13-.09.25-.11.39-.02.13-.04.27-.03.4,0,.08.02.33.14.35.13.02.23-.2.26-.28.05-.12.09-.25.11-.39.02-.13.04-.26.03-.4,0-.08-.01-.33-.14-.35Z"/>
    <line class="cls-16" x1="96.54" y1="174.99" x2="94.97" y2="165.89"/>
    <line class="cls-16" x1="101.05" y1="174.99" x2="102.05" y2="165.89"/>
    <line class="cls-16" x1="90.11" y1="165.89" x2="88.42" y2="174.99"/>
    <line class="cls-16" x1="91.41" y1="165.89" x2="90.16" y2="174.99"/>
    <path class="cls-16" d="M102.21,164.47c-.11-.01-.18.24-.2.31-.04.12-.06.25-.07.38-.01.13-.02.26-.01.39,0,.07.02.33.13.34.11.01.18-.24.2-.31.04-.12.06-.25.07-.38.01-.13.02-.26.01-.39,0-.07-.02-.33-.13-.34Z"/>
    <path class="cls-16" d="M90.37,164.47c-.12-.02-.22.21-.25.28-.05.12-.09.25-.11.38s-.04.26-.04.4c0,.08,0,.33.13.35.12.02.22-.21.25-.28.05-.12.09-.25.11-.38.02-.13.04-.26.04-.4,0-.08,0-.33-.13-.35Z"/>
    <path class="cls-16" d="M91.61,164.47c-.11-.02-.19.24-.21.3-.04.12-.07.25-.08.38-.02.13-.03.26-.02.39,0,.07,0,.33.12.35.11.02.19-.24.21-.3.04-.12.07-.25.08-.38.02-.13.03-.26.02-.39,0-.07,0-.33-.12-.35Z"/>
    <path class="cls-16" d="M94.73,164.47c-.11.02-.12.28-.12.35,0,.13.01.26.03.39s.05.26.1.38c.02.07.11.31.23.29.11-.02.12-.28.12-.35,0-.13-.01-.26-.03-.39-.02-.13-.05-.26-.1-.38-.02-.07-.11-.31-.23-.29Z"/>
    <path class="cls-16" d="M96.54,174.99c-.11.02-.12.28-.12.35,0,.13.01.26.03.39s.05.26.1.38c.02.07.11.31.23.29.11-.02.12-.28.12-.35,0-.13-.01-.26-.03-.39-.02-.13-.05-.26-.1-.38-.02-.07-.11-.31-.23-.29Z"/>
    <line class="cls-16" x1="100.89" y1="176.41" x2="100.89" y2="176.41"/>
    <path class="cls-16" d="M102.38,174.99c-.12-.04-.24.2-.28.27-.06.12-.11.25-.15.38-.04.13-.07.26-.08.4,0,.08-.03.34.09.37.12.04.24-.2.28-.26.06-.12.11-.25.15-.38.04-.13.07-.26.08-.4,0-.08.03-.34-.09-.37Z"/>
    <path class="cls-16" d="M101.06,174.99c-.11-.01-.18.24-.2.31-.04.12-.06.25-.07.38-.01.13-.02.26-.01.39,0,.07.02.33.13.34.11.01.18-.24.2-.31.04-.12.06-.25.07-.38.01-.13.02-.26.01-.39,0-.07-.02-.33-.13-.34Z"/>
    <path class="cls-16" d="M90.16,174.99c-.13-.02-.22.21-.25.29-.05.13-.08.25-.1.39-.02.13-.03.26-.01.4,0,.08.03.33.16.34.13.02.22-.21.25-.29.05-.13.08-.25.1-.39.02-.13.03-.27.01-.4,0-.08-.03-.32-.16-.34Z"/>
    <line class="cls-16" x1="83.64" y1="165.89" x2="84.21" y2="174.99"/>
    <line class="cls-16" x1="78.61" y1="165.89" x2="79.62" y2="174.99"/>
    <line class="cls-16" x1="81.66" y1="165.89" x2="81.66" y2="174.99"/>
    <line class="cls-16" x1="74.08" y1="165.89" x2="70.76" y2="174.99"/>
    <line class="cls-16" x1="70.29" y1="165.89" x2="67.97" y2="174.99"/>
    <line class="cls-16" x1="66.33" y1="174.99" x2="67.37" y2="165.89"/>
    <line class="cls-16" x1="71.79" y1="165.89" x2="69.1" y2="174.99"/>
    <line class="cls-16" x1="65.23" y1="174.99" x2="64.61" y2="165.89"/>
    <line class="cls-16" x1="75.74" y1="165.89" x2="72.55" y2="174.99"/>
    <path class="cls-16" d="M83.55,164.47c-.12,0-.15.26-.16.33-.02.13-.02.26-.01.39s.03.26.06.39c.02.07.08.32.2.31.12,0,.15-.26.16-.33.02-.13.02-.26.01-.39,0-.13-.03-.26-.06-.38-.02-.07-.08-.32-.2-.31Z"/>
    <path class="cls-16" d="M81.66,164.47c-.12,0-.17.25-.18.32-.03.13-.03.26-.03.39s0,.26.04.39c.01.07.06.32.18.32s.17-.25.18-.32c.03-.13.04-.26.04-.39s0-.26-.04-.39c-.01-.07-.06-.32-.18-.32Z"/>
    <path class="cls-16" d="M72.21,164.47c-.08-.02-.2.26-.22.3-.05.12-.09.24-.13.37-.04.12-.07.25-.09.38,0,.05-.06.35.02.37.08.02.2-.26.22-.3.05-.12.09-.24.13-.37.04-.12.07-.25.09-.38,0-.05.06-.35-.02-.37Z"/>
    <path class="cls-16" d="M78.46,164.47c-.12.01-.14.27-.14.34-.01.13,0,.26,0,.39.01.13.04.26.08.38.02.07.1.32.21.3.12-.01.14-.27.14-.34.01-.13,0-.26,0-.39-.01-.13-.04-.26-.08-.38-.02-.07-.1-.31-.21-.3Z"/>
    <path class="cls-16" d="M74.6,164.47c-.09-.03-.23.24-.25.29-.06.12-.11.24-.16.37-.05.13-.08.25-.11.38-.01.05-.08.35,0,.38.09.03.23-.24.25-.29.06-.12.11-.24.16-.37.05-.13.08-.25.11-.38.01-.05.08-.35,0-.38Z"/>
    <path class="cls-16" d="M76.24,164.47c-.08-.03-.21.26-.23.3-.06.12-.11.24-.15.36-.04.12-.08.25-.11.38,0,.04-.08.35,0,.38.08.03.21-.26.23-.3.06-.12.11-.24.15-.36s.08-.25.11-.38c0-.04.08-.35,0-.38Z"/>
    <path class="cls-16" d="M64.51,164.47c-.08,0-.09.3-.09.35,0,.12,0,.25,0,.37s.02.25.05.37c0,.04.06.34.14.33.08,0,.09-.3.09-.35,0-.12,0-.25,0-.37,0-.12-.02-.25-.05-.37,0-.04-.06-.34-.14-.33Z"/>
    <path class="cls-16" d="M67.53,164.47c-.1-.01-.16.26-.18.32-.03.12-.05.25-.07.37s-.02.25-.02.38c0,.05,0,.34.1.35.1.01.16-.26.18-.32.03-.12.05-.25.07-.37.01-.13.02-.25.02-.38,0-.05,0-.34-.1-.35Z"/>
    <path class="cls-16" d="M70.65,164.47c-.09-.02-.2.25-.22.3-.05.12-.09.24-.12.37-.03.13-.06.25-.07.38,0,.05-.04.34.05.37.09.02.2-.25.22-.3.05-.12.09-.24.12-.37.03-.13.06-.25.07-.38,0-.05.04-.34-.05-.37Z"/>
    <path class="cls-16" d="M79.62,174.99c-.13.01-.16.26-.16.34-.02.13-.01.26,0,.4s.04.26.08.39c.03.08.11.31.23.29.13-.01.16-.26.16-.34.01-.13.01-.26,0-.4-.01-.13-.04-.26-.08-.39-.03-.08-.11-.31-.23-.29Z"/>
    <path class="cls-16" d="M81.66,174.99c-.13,0-.18.23-.2.32-.03.13-.04.26-.04.39s.01.26.04.39c.02.08.07.31.2.31s.18-.23.2-.31c.03-.13.04-.26.04-.39s-.01-.26-.04-.39c-.02-.08-.07-.31-.2-.31Z"/>
    <path class="cls-16" d="M84.21,174.99c-.13,0-.17.25-.18.33-.02.13-.02.26-.02.4s.03.26.07.39c.02.08.09.31.22.3.13,0,.17-.24.18-.33.02-.13.02-.26.02-.4,0-.13-.03-.26-.07-.39-.02-.08-.09-.31-.22-.3Z"/>
    <path class="cls-16" d="M72.55,174.99c-.08-.03-.21.26-.23.3-.06.12-.11.24-.15.36-.04.12-.08.25-.11.38,0,.04-.08.35,0,.38.08.03.21-.26.23-.3.06-.12.11-.24.15-.36s.08-.25.11-.38c0-.04.08-.35,0-.38Z"/>
    <line class="cls-16" x1="65.33" y1="176.41" x2="65.33" y2="176.41"/>
    <path class="cls-16" d="M65.23,174.99c-.08,0-.09.3-.09.35,0,.12,0,.25,0,.37,0,.12.02.25.05.37,0,.04.06.34.14.33.08,0,.09-.3.09-.35,0-.12,0-.25,0-.37,0-.12-.02-.25-.05-.37,0-.04-.06-.34-.14-.33Z"/>
    <line class="cls-16" x1="66.16" y1="176.41" x2="66.16" y2="176.41"/>
    <path class="cls-16" d="M70.76,174.99c-.09-.03-.23.24-.25.29-.06.12-.11.24-.16.37-.05.13-.08.25-.11.38-.01.05-.08.35,0,.38.09.03.23-.24.25-.29.06-.12.11-.24.16-.37.05-.13.08-.25.11-.38.01-.05.08-.35,0-.38Z"/>
    <path class="cls-16" d="M69.1,174.99c-.08-.02-.2.26-.22.3-.05.12-.09.24-.13.37-.04.12-.07.25-.09.38,0,.05-.06.35.02.37s.2-.26.22-.3c.05-.12.09-.24.13-.37.04-.12.07-.25.09-.38,0-.05.06-.35-.02-.37Z"/>
    <path class="cls-16" d="M67.97,174.99c-.09-.02-.2.25-.22.3-.05.12-.09.24-.12.37s-.06.25-.07.38c0,.05-.04.34.05.37.09.02.2-.25.22-.3.05-.12.09-.24.12-.37.03-.13.06-.25.07-.38,0-.05.04-.34-.05-.37Z"/>
    <path class="cls-16" d="M66.33,174.99c-.1-.01-.16.26-.18.32-.03.12-.05.25-.07.37-.01.13-.02.25-.02.38,0,.05,0,.34.1.35.1.01.16-.26.18-.32.03-.12.05-.25.07-.37.01-.13.02-.25.02-.38,0-.05,0-.34-.1-.35Z"/>
    <line class="cls-16" x1="113.92" y1="174.99" x2="115.8" y2="165.89"/>
    <line class="cls-16" x1="116.15" y1="174.99" x2="117.03" y2="165.89"/>
    <line class="cls-16" x1="112.32" y1="174.99" x2="113.38" y2="165.89"/>
    <path class="cls-16" d="M105.5,164.47c-.12-.04-.24.2-.28.27-.06.12-.11.25-.15.38-.04.13-.07.26-.08.4,0,.08-.03.34.09.37.12.04.24-.2.28-.26.06-.12.11-.25.15-.38s.07-.26.08-.4c0-.08.03-.34-.09-.37Z"/>
    <path class="cls-16" d="M116.1,164.47c-.11-.02-.21.23-.23.29-.05.12-.08.25-.11.38-.03.13-.04.26-.05.39,0,.07-.01.34.1.36.11.02.21-.23.23-.29.05-.12.08-.25.11-.38.03-.13.04-.26.05-.39,0-.07.01-.34-.1-.36Z"/>
    <path class="cls-16" d="M117.17,164.47c-.12-.01-.2.23-.22.3-.04.13-.06.25-.07.39-.01.13-.01.26,0,.39,0,.08.04.33.16.34.12.01.2-.23.22-.3.04-.13.06-.25.07-.39.01-.13.02-.26,0-.39,0-.08-.04-.33-.16-.34Z"/>
    <path class="cls-16" d="M113.55,164.47c-.13-.01-.21.21-.24.29-.04.13-.07.25-.09.39-.02.13-.02.26,0,.4,0,.08.04.32.16.34.13.01.21-.21.24-.29.04-.13.07-.25.09-.39.02-.13.02-.26,0-.4,0-.08-.04-.32-.16-.34Z"/>
    <path class="cls-16" d="M113.92,174.99c-.11-.02-.21.23-.23.29-.05.12-.08.25-.11.38-.03.13-.04.26-.05.39,0,.07-.01.34.1.36.11.02.21-.23.23-.29.05-.12.08-.25.11-.38.03-.13.04-.26.05-.39,0-.07.01-.34-.1-.36Z"/>
    <path class="cls-16" d="M116.15,174.99c-.12-.01-.2.23-.22.3-.04.13-.06.25-.07.39-.01.13-.01.26,0,.39,0,.08.04.33.16.34.12.01.2-.23.22-.3.04-.13.06-.25.07-.39.01-.13.01-.26,0-.39,0-.08-.04-.33-.16-.34Z"/>
    <path class="cls-16" d="M112.34,174.99c-.13-.01-.21.21-.24.29-.04.13-.07.26-.09.39-.02.13-.02.26,0,.4,0,.08.04.32.16.34.13.01.21-.21.24-.29.04-.13.07-.25.09-.39.02-.13.02-.26,0-.4,0-.08-.04-.32-.16-.34Z"/>
    <line class="cls-16" x1="112.15" y1="176.41" x2="112.15" y2="176.4"/>
    <line class="cls-16" x1="102.38" y1="174.99" x2="105.08" y2="165.89"/>
    <line class="cls-16" x1="60.67" y1="162.16" x2="118.16" y2="162.16"/>
    <line class="cls-16" x1="60.67" y1="179.17" x2="60.67" y2="162.16"/>
    <line class="cls-16" x1="118.16" y1="179.17" x2="60.67" y2="179.17"/>
    <line class="cls-16" x1="118.16" y1="162.16" x2="118.16" y2="179.17"/>
    <rect class="cls-16" x="145.22" y="233.28" width="11.34" height="25.12"/>
    <rect class="cls-16" x="98.65" y="117.9" width="17.01" height="17.01"/>
    <rect class="cls-16" x="83.35" y="117.9" width="15.31" height="10.87"/>
    <rect class="cls-16" x="247.23" y="158.62" width="10.28" height="27.76"/>
    <rect class="cls-16" x="219.45" y="206.51" width="26.15" height="14.39"/>
    <path class="cls-16" d="M177.86,164.42c-.1-.5-.42-1.47-.7-1.88-.28-.41-.5-.27-.4.24s.52,1.37.8,1.78c.28.41.4.37.3-.13Z"/>
    <polyline class="cls-16" points="177.87 164.82 177.87 221.63 211.42 221.63 211.42 164.82 177.87 164.82"/>
    <path class="cls-16" d="M211.42,164.42c.1-.5.42-1.47.7-1.88.28-.41.5-.27.4.24-.1.5-.52,1.37-.8,1.78s-.4.37-.3-.13Z"/>
    <path class="cls-16" d="M177.79,221.94c-.22.46-.78,1.31-1.15,1.64-.37.33-.55.13-.33-.33s.85-1.19,1.22-1.52c.37-.33.48-.25.26.21Z"/>
    <path class="cls-16" d="M211.49,221.94c.22.46.78,1.31,1.15,1.64.37.33.55.13.33-.33s-.85-1.19-1.22-1.52c-.37-.33-.48-.25-.26.21Z"/>
    <path class="cls-16" d="M198.7,201.15c1.22,0,2.21-.99,2.21-2.21s-.99-2.21-2.21-2.21-2.21.99-2.21,2.21.99,2.21,2.21,2.21Z"/>
    <path class="cls-16" d="M197.96,192.48c.69,0,1.25-.56,1.25-1.25s-.56-1.25-1.25-1.25-1.25.56-1.25,1.25.56,1.25,1.25,1.25Z"/>
    <path class="cls-16" d="M198.7,201.32c1.31,0,2.38-1.06,2.38-2.38s-1.06-2.38-2.38-2.38-2.38,1.06-2.38,2.38,1.06,2.38,2.38,2.38Z"/>
    <rect class="cls-16" x="189.75" y="181.97" width="12.03" height="23.83"/>
    <rect class="cls-16" x="186.47" y="174.61" width="19.84" height="36.85"/>
    <line class="cls-16" x1="150.94" y1="166.57" x2="152.21" y2="170.92"/>
    <line class="cls-16" x1="150.01" y1="166.15" x2="147.35" y2="166.15"/>
    <path class="cls-16" d="M151.02,166.83c-.13-.44-.58-.68-1.01-.68"/>
    <path class="cls-16" d="M151.95,165.46c-.6,0-1.2.47-1.01,1.11"/>
    <path class="cls-16" d="M147.35,166.15c-1.01,0-2.08.68-2.08,1.79"/>
    <path class="cls-16" d="M152.21,200.25c0,.28.27.45.52.45"/>
    <path class="cls-16" d="M152.49,200.25c0,.28.27.45.52.45"/>
    <path class="cls-16" d="M145.27,200.25c0,.28.27.45.52.45"/>
    <line class="cls-16" x1="150.01" y1="220.36" x2="149.78" y2="220.36"/>
    <line class="cls-16" x1="150.96" y1="219.88" x2="152.21" y2="215.59"/>
    <line class="cls-16" x1="149.78" y1="220.36" x2="147.35" y2="220.36"/>
    <line class="cls-16" x1="152.49" y1="200.69" x2="152.49" y2="215.59"/>
    <line class="cls-16" x1="152.21" y1="200.69" x2="152.21" y2="215.59"/>
    <line class="cls-16" x1="145.27" y1="200.69" x2="145.27" y2="218.57"/>
    <line class="cls-16" x1="145.27" y1="167.94" x2="145.27" y2="200.25"/>
    <line class="cls-16" x1="152.21" y1="170.92" x2="152.21" y2="200.25"/>
    <line class="cls-16" x1="152.49" y1="170.92" x2="152.49" y2="200.25"/>
    <path class="cls-16" d="M172.47,169.51c0-.56-.54-.89-1.04-.89"/>
    <line class="cls-16" x1="171.62" y1="167.25" x2="171.62" y2="170.03"/>
    <path class="cls-16" d="M170.58,170.92c.5,0,1.04-.34,1.04-.89"/>
    <path class="cls-16" d="M171.62,167.25c0-1.11-1.08-1.79-2.08-1.79"/>
    <path class="cls-16" d="M171.62,216.48c0-.56-.54-.89-1.04-.89"/>
    <line class="cls-16" x1="171.62" y1="219.21" x2="171.62" y2="216.48"/>
    <path class="cls-16" d="M171.43,217.84c.5,0,1.04-.34,1.04-.89"/>
    <line class="cls-16" x1="172.47" y1="200.69" x2="172.47" y2="216.94"/>
    <line class="cls-16" x1="172.47" y1="169.51" x2="172.47" y2="200.25"/>
    <line class="cls-16" x1="170.58" y1="215.59" x2="152.21" y2="215.59"/>
    <line class="cls-16" x1="170.58" y1="170.92" x2="152.21" y2="170.92"/>
    <line class="cls-16" x1="169.54" y1="165.46" x2="151.95" y2="165.46"/>
    <line class="cls-16" x1="169.54" y1="220.99" x2="151.97" y2="220.99"/>
    <path class="cls-16" d="M150.96,219.88c-.19.64.41,1.11,1.01,1.11"/>
    <path class="cls-16" d="M150.01,220.36c.43,0,.88-.24,1.01-.68"/>
    <path class="cls-16" d="M145.27,218.57c0,1.11,1.08,1.79,2.08,1.79"/>
    <path class="cls-16" d="M169.54,220.99c1.01,0,2.08-.68,2.08-1.79"/>
    <rect class="cls-16" x="302.19" y="202.11" width="8.99" height="43.14"/>
    <rect class="cls-16" x="346.39" y="266.19" width="6.6" height="4.76" transform="translate(-37.25 479.99) rotate(-66.18)"/>
    <circle class="cls-16" cx="154.32" cy="117.44" r="5.25"/>
    <path class="cls-16" d="M286.96,111.19c-.21-.06-.42-.11-.64-.15"/>
    <path class="cls-16" d="M286.32,111.04c-1.88-.48-3.52-.39-5.33.28"/>
    <path class="cls-16" d="M280.98,111.32c-1.31.43-2.29,1.09-3.17,2.15"/>
    <path class="cls-16" d="M277.81,113.47c-.96,1.07-1.49,2.45-1.49,3.88"/>
    <path class="cls-16" d="M289.9,117.35c0-2.31-1.66-4.29-3.94-4.69"/>
    <path class="cls-16" d="M285.96,112.66c-1.56-.41-2.92-.34-4.43.23"/>
    <path class="cls-16" d="M281.53,112.89c-1.02.32-1.78.84-2.46,1.67"/>
    <path class="cls-16" d="M279.07,114.56c-.13.15-.26.3-.37.47"/>
    <path class="cls-16" d="M285.96,122.04c2.28-.4,3.94-2.38,3.94-4.69"/>
    <path class="cls-16" d="M281.53,121.81c1.51.57,2.87.64,4.43.23"/>
    <path class="cls-16" d="M279.07,120.15c.68.83,1.44,1.34,2.46,1.67"/>
    <path class="cls-16" d="M278.7,119.68c.11.16.23.32.37.47"/>
    <path class="cls-16" d="M286.32,123.67c.22-.04.43-.09.64-.15"/>
    <path class="cls-16" d="M280.98,123.38c1.82.67,3.46.76,5.33.28"/>
    <path class="cls-16" d="M277.81,121.23c.88,1.06,1.86,1.73,3.17,2.15"/>
    <path class="cls-16" d="M276.32,117.35c0,1.43.53,2.82,1.49,3.88"/>
    <line class="cls-16" x1="278.25" y1="118" x2="278.25" y2="117.35"/>
    <path class="cls-16" d="M278.25,118c0,.62.14,1.15.46,1.68"/>
    <path class="cls-16" d="M285.65,117.35c0,.74.6,1.34,1.34,1.34s1.34-.6,1.34-1.34"/>
    <path class="cls-16" d="M287.2,117.5s.03-.09.03-.14"/>
    <path class="cls-16" d="M287.23,117.35c0-.05-.01-.1-.03-.14"/>
    <path class="cls-16" d="M285.94,118.19c.13.17.25.19.43.08"/>
    <path class="cls-16" d="M286.37,118.27c.37-.17.63-.41.83-.77"/>
    <line class="cls-16" x1="292.02" y1="120.57" x2="292.02" y2="117.35"/>
    <line class="cls-16" x1="292.07" y1="122.11" x2="292.02" y2="120.57"/>
    <line class="cls-16" x1="292.07" y1="122.01" x2="286.96" y2="123.51"/>
    <path class="cls-16" d="M278.7,115.02c-.31.54-.46,1.06-.46,1.68"/>
    <path class="cls-16" d="M286.37,116.44c-.18-.11-.3-.09-.43.08"/>
    <line class="cls-16" x1="292.07" y1="112.6" x2="292.02" y2="114.14"/>
    <line class="cls-16" x1="292.07" y1="112.7" x2="286.96" y2="111.19"/>
    <line class="cls-16" x1="292.02" y1="114.14" x2="292.02" y2="117.35"/>
    <path class="cls-16" d="M288.33,117.35c0-.74-.6-1.34-1.34-1.34s-1.34.6-1.34,1.34"/>
    <path class="cls-16" d="M287.2,117.21c-.2-.36-.45-.6-.83-.77"/>
    <line class="cls-16" x1="278.25" y1="116.71" x2="278.25" y2="117.35"/>
    <rect class="cls-16" x="292.07" y="106.11" width="8.59" height="22.44"/>
    <circle class="cls-16" cx="191.2" cy="297.17" r="8.2"/>
    <path class="cls-16" d="M90.94,127.39c1.05,0,2-.2,2.97-.62"/>
    <path class="cls-16" d="M95.46,125.63c.59-.67.84-1.33.84-2.22"/>
    <path class="cls-16" d="M93.91,126.77c.61-.27,1.11-.63,1.55-1.14"/>
    <path class="cls-16" d="M93.91,120.05c-.96-.42-1.91-.62-2.97-.62"/>
    <path class="cls-16" d="M95.46,121.19c-.44-.5-.94-.87-1.55-1.14"/>
    <path class="cls-16" d="M96.29,123.41c0-.89-.25-1.55-.84-2.22"/>
    <path class="cls-16" d="M87.98,126.77c.96.42,1.91.62,2.97.62"/>
    <path class="cls-16" d="M86.43,125.63c.44.5.94.87,1.55,1.14"/>
    <path class="cls-16" d="M85.59,123.41c0,.89.25,1.55.84,2.22"/>
    <path class="cls-16" d="M86.43,121.19c-.59.67-.84,1.33-.84,2.22"/>
    <path class="cls-16" d="M87.98,120.05c-.61.27-1.11.63-1.55,1.14"/>
    <path class="cls-16" d="M90.94,119.43c-1.05,0-2,.2-2.97.62"/>
    <path class="cls-16" d="M95.99,126.1c.71-.81,1.01-1.62,1.01-2.69"/>
    <path class="cls-16" d="M97.01,123.41c0-1.08-.3-1.88-1.01-2.69"/>
    <path class="cls-16" d="M95.99,120.72c-.51-.59-1.09-1.01-1.8-1.32"/>
    <path class="cls-16" d="M94.19,119.4c-1.06-.46-2.1-.68-3.25-.68"/>
    <path class="cls-16" d="M90.94,118.71c-1.15,0-2.2.22-3.25.68"/>
    <path class="cls-16" d="M87.69,119.4c-.71.31-1.29.73-1.8,1.32"/>
    <path class="cls-16" d="M85.89,120.72c-.71.81-1.01,1.62-1.01,2.69"/>
    <path class="cls-16" d="M84.88,123.41c0,1.08.3,1.88,1.01,2.69"/>
    <path class="cls-16" d="M85.89,126.1c.51.59,1.09,1.01,1.8,1.32"/>
    <path class="cls-16" d="M87.69,127.42c1.06.46,2.1.68,3.25.68"/>
    <path class="cls-16" d="M90.94,128.11c1.16,0,2.2-.22,3.25-.68"/>
    <path class="cls-16" d="M94.19,127.42c.71-.31,1.29-.73,1.8-1.32"/>
    <path class="cls-16" d="M91.49,120.97c0-.3-.24-.55-.55-.55s-.55.24-.55.55.24.55.55.55.55-.24.55-.55Z"/>
    <path class="cls-16" d="M273.42,273.25c.3-.28.31-.75.03-1.04s-.75-.31-1.04-.03c-.3.28-.31.75-.03,1.04.28.3.75.31,1.04.03Z"/>
    <polyline class="cls-16" points="273.3 272.09 273.3 269.81 272.51 269.81 272.51 272.12"/>
    <path class="cls-16" d="M272.11,266.97c0,.4.33.73.73.73s.73-.33.73-.73-.33-.73-.73-.73-.73.33-.73.73Z"/>
    <path class="cls-16" d="M272.28,266.97c0,.31.25.56.56.56s.56-.25.56-.56-.25-.56-.56-.56-.56.25-.56.56Z"/>
    <path class="cls-16" d="M352.01,258.08c-.02-.55-.19-.94-.58-1.32"/>
    <path class="cls-16" d="M350.12,256.79c.63.35,1.42.12,1.77-.5.35-.63.12-1.42-.5-1.77"/>
    <path class="cls-16" d="M341.61,254.92c-.5.22-.8.52-1.02,1.02"/>
    <path class="cls-16" d="M342.47,252.85c-.71.1-1.21.75-1.11,1.47.1.71.75,1.21,1.47,1.11"/>
    <path class="cls-16" d="M351.38,254.51c-2.71-1.51-5.84-2.09-8.91-1.67"/>
    <path class="cls-16" d="M350.12,256.79c-2.22-1.23-4.78-1.71-7.29-1.37"/>
    <path class="cls-16" d="M351.89,261.1c.12-1.02.16-2.02.12-3.05"/>
    <path class="cls-16" d="M340.61,255.92c-.73,1.68-1.2,3.37-1.44,5.18"/>
    <rect class="cls-16" x="328.04" y="261.1" width="33.38" height="14.57"/>
    <rect class="cls-16" x="262.63" y="189.5" width="11.34" height="17.01"/>
    <rect class="cls-16" x="245.62" y="189.5" width="17.01" height="17.01"/>
    <rect class="cls-16" x="302.23" y="267.63" width="23.04" height="8.05"/>
  </g>
  <g id="Calque_08" data-name="Calque 08">
    <line class="cls-13" x1="175.62" y1="276.61" x2="194.19" y2="276.61"/>
    <line class="cls-13" x1="155.64" y1="276.61" x2="174.2" y2="276.61"/>
    <rect class="cls-13" x="214.17" y="275.67" width="1.43" height="1.88"/>
    <rect class="cls-13" x="174.2" y="275.67" width="1.43" height="1.88"/>
    <rect class="cls-13" x="194.19" y="275.67" width="1.43" height="1.88"/>
    <rect class="cls-13" x="234.16" y="275.67" width="1.43" height="1.88"/>
    <rect class="cls-13" x="154.21" y="275.67" width="1.43" height="1.88"/>
    <rect class="cls-13" x="269.39" y="275.67" width="1.43" height="2.35"/>
    <rect class="cls-13" x="290.27" y="275.67" width="1.43" height="2.35"/>
    <rect class="cls-13" x="248.51" y="275.67" width="1.43" height="2.35"/>
    <rect class="cls-13" x="325.26" y="275.67" width="1.43" height="1.88"/>
    <rect class="cls-13" x="363.78" y="275.67" width="1.43" height="1.88"/>
    <rect class="cls-13" x="344.52" y="275.67" width="1.43" height="1.88"/>
    <rect class="cls-13" x="120.61" y="275.67" width="1.43" height="1.88"/>
    <rect class="cls-13" x="139.86" y="275.67" width="1.43" height="1.88"/>
    <rect class="cls-13" x="101.35" y="275.67" width="1.43" height="1.88"/>
  </g>
  <g id="Calque_05" data-name="Calque 05">
    <g>
      <line class="cls-10" x1="245.6" y1="206.51" x2="245.6" y2="207.51"/>
      <line class="cls-4" x1="245.6" y1="209.47" x2="245.6" y2="255.69"/>
      <line class="cls-10" x1="245.6" y1="256.67" x2="245.6" y2="257.67"/>
    </g>
    <polyline class="cls-10" points="242.65 283.2 242.65 309.87 146.1 309.87 146.1 283.2"/>
    <g>
      <line class="cls-10" x1="243.3" y1="206.51" x2="243.3" y2="207.51"/>
      <line class="cls-14" x1="243.3" y1="209.47" x2="243.28" y2="255.69"/>
      <line class="cls-10" x1="243.28" y1="256.67" x2="243.28" y2="257.67"/>
    </g>
    <line class="cls-10" x1="365.2" y1="283.2" x2="325.26" y2="283.2"/>
    <line class="cls-10" x1="101.35" y1="283.2" x2="141.29" y2="283.2"/>
    <polyline class="cls-10" points="245.6 283.2 245.6 312.81 143.16 312.81 143.16 283.2"/>
    <line class="cls-10" x1="235.59" y1="283.2" x2="154.21" y2="283.2"/>
    <line class="cls-10" x1="291.7" y1="283.2" x2="248.51" y2="283.2"/>
  </g>
  <g id="Calque_03" data-name="Calque 03">
    <line class="cls-13" x1="194.19" y1="276.61" x2="175.62" y2="276.61"/>
    <line class="cls-13" x1="214.17" y1="276.61" x2="195.61" y2="276.61"/>
    <line class="cls-13" x1="234.16" y1="276.61" x2="215.6" y2="276.61"/>
    <line class="cls-13" x1="174.2" y1="276.61" x2="155.64" y2="276.61"/>
    <line class="cls-13" x1="235.59" y1="277.56" x2="154.21" y2="277.56"/>
    <line class="cls-13" x1="235.59" y1="275.67" x2="154.21" y2="275.67"/>
    <line class="cls-13" x1="249.94" y1="276.85" x2="269.39" y2="276.85"/>
    <line class="cls-13" x1="270.82" y1="276.85" x2="290.27" y2="276.85"/>
    <line class="cls-13" x1="270.82" y1="275.67" x2="291.7" y2="275.67"/>
    <line class="cls-13" x1="248.51" y1="275.67" x2="269.39" y2="275.67"/>
    <line class="cls-13" x1="270.82" y1="278.03" x2="291.7" y2="278.03"/>
    <line class="cls-13" x1="248.51" y1="278.03" x2="269.39" y2="278.03"/>
    <line class="cls-13" x1="363.78" y1="276.61" x2="345.95" y2="276.61"/>
    <line class="cls-13" x1="344.52" y1="276.61" x2="326.69" y2="276.61"/>
    <line class="cls-13" x1="363.78" y1="275.67" x2="345.95" y2="275.67"/>
    <line class="cls-13" x1="344.52" y1="275.67" x2="326.69" y2="275.67"/>
    <line class="cls-13" x1="363.78" y1="277.56" x2="345.95" y2="277.56"/>
    <line class="cls-13" x1="344.52" y1="277.56" x2="326.69" y2="277.56"/>
    <line class="cls-13" x1="120.61" y1="277.56" x2="102.78" y2="277.56"/>
    <line class="cls-13" x1="139.86" y1="277.56" x2="122.04" y2="277.56"/>
    <line class="cls-13" x1="120.61" y1="275.67" x2="102.78" y2="275.67"/>
    <line class="cls-13" x1="139.86" y1="275.67" x2="122.04" y2="275.67"/>
    <line class="cls-13" x1="120.61" y1="276.61" x2="102.78" y2="276.61"/>
    <line class="cls-13" x1="139.86" y1="276.61" x2="122.04" y2="276.61"/>
  </g>
  <g id="Calque_02" data-name="Calque 02">
    <rect class="cls-9" x="117.99" y="133.86" width="25.17" height="1.04"/>
    <path class="cls-9" d="M281.3,134.39c.71,12.63,11.88,21.47,24.06,21.47"/>
    <path class="cls-9" d="M220.24,134.53c.38,6.77,3.6,12.95,8.67,17.35,5.07,4.4,11.64,6.73,18.31,6.73"/>
    <polyline class="cls-9" points="220.24 133.18 247.23 133.18 247.23 134.53 220.24 134.53"/>
    <line class="cls-9" x1="220.24" y1="134.53" x2="220.24" y2="133.18"/>
    <polyline class="cls-9" points="281.3 133.18 305.36 133.18 305.36 134.38 281.3 134.39"/>
    <line class="cls-9" x1="281.3" y1="134.39" x2="281.3" y2="133.18"/>
    <line class="cls-9" x1="321.16" y1="166.21" x2="321.16" y2="165.07"/>
    <polyline class="cls-9" points="321.16 165.07 300.03 164.99 300.02 166.13 321.16 166.21"/>
    <path class="cls-9" d="M321.16,166.21c-.63,11.26-9.83,20.27-21.2,20.23"/>
    <line class="cls-9" x1="248.22" y1="147.73" x2="247.19" y2="147.73"/>
    <polyline class="cls-9" points="247.19 147.73 247.25 128.78 248.28 128.78 248.22 147.73"/>
    <path class="cls-9" d="M248.22,147.73c10.1-.5,18.24-8.69,18.27-18.89"/>
    <line class="cls-9" x1="286.69" y1="147.73" x2="287.71" y2="147.73"/>
    <polyline class="cls-9" points="287.71 147.73 287.65 128.78 286.62 128.78 286.69 147.73"/>
    <path class="cls-9" d="M286.69,147.73c-10.1-.5-18.24-8.69-18.27-18.89"/>
    <line class="cls-9" x1="96.86" y1="157.97" x2="96.86" y2="159.11"/>
    <polyline class="cls-9" points="96.86 159.11 117.99 159.19 117.99 158.05 96.86 157.97"/>
    <path class="cls-9" d="M96.86,157.97c.63-11.26,9.83-20.27,21.2-20.23"/>
    <line class="cls-9" x1="124.02" y1="139.14" x2="124.02" y2="138"/>
    <polyline class="cls-9" points="124.02 138 145.15 137.92 145.15 139.06 124.02 139.14"/>
    <path class="cls-9" d="M124.02,139.14c.63,11.26,9.83,20.27,21.2,20.23"/>
    <path class="cls-9" d="M140.98,181.55c-11.26-.63-20.27-9.83-20.23-21.2"/>
    <polyline class="cls-9" points="142.12 181.55 142.2 160.42 141.06 160.41 140.98 181.55"/>
    <line class="cls-9" x1="140.98" y1="181.55" x2="142.12" y2="181.55"/>
  </g>
  <g id="cotes">
    <line class="cls-15" x1="60.67" y1="117.9" x2="41.87" y2="117.74"/>
    <line class="cls-15" x1="60.31" y1="160.25" x2="41.51" y2="160.09"/>
    <line class="cls-15" x1="41.87" y1="117.74" x2="41.73" y2="133.6"/>
    <line class="cls-15" x1="41.64" y1="144.53" x2="41.51" y2="160.09"/>
    <polyline class="cls-15" points="43.08 118.79 40.83 116.51 40.65 116.69 42.9 118.97 43.08 118.79"/>
    <polyline class="cls-15" points="40.29 159.03 42.54 161.32 42.73 161.14 40.48 158.85 40.29 159.03"/>
    <line class="cls-15" x1="243.29" y1="111.52" x2="243.29" y2="89.17"/>
    <line class="cls-15" x1="145.22" y1="111.52" x2="145.22" y2="89.17"/>
    <line class="cls-15" x1="243.29" y1="89.17" x2="199.8" y2="89.17"/>
    <line class="cls-15" x1="188.64" y1="89.17" x2="145.22" y2="89.17"/>
    <polyline class="cls-15" points="242.25 90.4 244.52 88.13 244.34 87.95 242.07 90.22 242.25 90.4"/>
    <polyline class="cls-15" points="146.26 87.95 143.99 90.22 144.17 90.4 146.44 88.13 146.26 87.95"/>
    <line class="cls-15" x1="266.48" y1="111.52" x2="266.48" y2="89.17"/>
    <line class="cls-15" x1="247.23" y1="111.52" x2="247.23" y2="89.18"/>
    <line class="cls-15" x1="266.48" y1="89.17" x2="262.42" y2="89.17"/>
    <line class="cls-15" x1="249.86" y1="89.17" x2="247.23" y2="89.18"/>
    <polyline class="cls-15" points="265.44 90.4 267.71 88.13 267.53 87.95 265.26 90.22 265.44 90.4"/>
    <polyline class="cls-15" points="248.27 87.95 246 90.22 246.19 90.4 248.45 88.13 248.27 87.95"/>
    <line class="cls-15" x1="300.66" y1="111.52" x2="300.66" y2="89.17"/>
    <line class="cls-15" x1="268.42" y1="111.52" x2="268.42" y2="89.17"/>
    <line class="cls-15" x1="300.66" y1="89.17" x2="290.92" y2="89.17"/>
    <line class="cls-15" x1="278.14" y1="89.17" x2="268.42" y2="89.17"/>
    <polyline class="cls-15" points="299.62 90.4 301.88 88.13 301.7 87.95 299.43 90.22 299.62 90.4"/>
    <polyline class="cls-15" points="269.46 87.95 267.19 90.22 267.37 90.4 269.64 88.13 269.46 87.95"/>
    <line class="cls-15" x1="373.09" y1="165.33" x2="373.14" y2="152.31"/>
    <line class="cls-15" x1="302.23" y1="165.09" x2="302.27" y2="152.06"/>
    <line class="cls-15" x1="373.14" y1="152.31" x2="343.25" y2="152.2"/>
    <line class="cls-15" x1="332.09" y1="152.16" x2="302.27" y2="152.06"/>
    <polyline class="cls-15" points="372.09 153.53 374.37 151.27 374.19 151.08 371.91 153.34 372.09 153.53"/>
    <polyline class="cls-15" points="303.32 150.84 301.04 153.1 301.23 153.28 303.5 151.02 303.32 150.84"/>
    <line class="cls-15" x1="372.85" y1="275.67" x2="385.73" y2="275.7"/>
    <line class="cls-15" x1="373.09" y1="164.99" x2="385.98" y2="165.02"/>
    <line class="cls-15" x1="385.73" y1="275.7" x2="385.85" y2="225.91"/>
    <polyline class="cls-15" points="384.51 274.66 386.77 276.93 386.96 276.75 384.69 274.47 384.51 274.66"/>
    <polyline class="cls-15" points="387.2 166.07 384.94 163.79 384.76 163.98 387.02 166.25 387.2 166.07"/>
    <line class="cls-15" x1="304.71" y1="159.28" x2="317.6" y2="159.44"/>
    <line class="cls-15" x1="305.36" y1="105.8" x2="318.25" y2="105.96"/>
    <line class="cls-15" x1="317.6" y1="159.44" x2="317.86" y2="138.01"/>
    <line class="cls-15" x1="317.99" y1="127.08" x2="318.25" y2="105.96"/>
    <polyline class="cls-15" points="316.38 158.38 318.62 160.68 318.81 160.5 316.57 158.2 316.38 158.38"/>
    <polyline class="cls-15" points="319.46 107.02 317.22 104.72 317.04 104.9 319.28 107.2 319.46 107.02"/>
    <line class="cls-15" x1="115.66" y1="111.52" x2="115.66" y2="89.17"/>
    <line class="cls-15" x1="60.67" y1="111.52" x2="60.67" y2="89.17"/>
    <line class="cls-15" x1="115.66" y1="89.17" x2="93.48" y2="89.17"/>
    <line class="cls-15" x1="82.48" y1="89.17" x2="60.67" y2="89.17"/>
    <polyline class="cls-15" points="114.62 90.4 116.88 88.13 116.7 87.95 114.44 90.22 114.62 90.4"/>
    <polyline class="cls-15" points="61.71 87.95 59.44 90.22 59.62 90.4 61.89 88.13 61.71 87.95"/>
    <line class="cls-15" x1="139.14" y1="111.52" x2="139.14" y2="89.17"/>
    <line class="cls-15" x1="117.99" y1="111.52" x2="117.99" y2="89.17"/>
    <line class="cls-15" x1="139.14" y1="89.17" x2="134.39" y2="89.17"/>
    <line class="cls-15" x1="121.26" y1="89.17" x2="117.99" y2="89.17"/>
    <polyline class="cls-15" points="138.1 90.4 140.36 88.13 140.18 87.95 137.92 90.22 138.1 90.4"/>
    <polyline class="cls-15" points="119.03 87.95 116.76 90.22 116.95 90.4 119.21 88.13 119.03 87.95"/>
    <line class="cls-15" x1="60.67" y1="274.16" x2="60.57" y2="294.53"/>
    <line class="cls-15" x1="143.16" y1="274.54" x2="143.06" y2="294.91"/>
    <line class="cls-15" x1="60.57" y1="294.53" x2="96.27" y2="294.69"/>
    <line class="cls-15" x1="106.5" y1="294.74" x2="143.06" y2="294.91"/>
    <polyline class="cls-15" points="61.62 293.31 59.34 295.56 59.52 295.75 61.8 293.49 61.62 293.31"/>
    <polyline class="cls-15" points="142.01 296.13 144.29 293.88 144.11 293.69 141.83 295.95 142.01 296.13"/>
    <line class="cls-15" x1="245.6" y1="274.16" x2="245.46" y2="294.53"/>
    <line class="cls-15" x1="300.03" y1="274.54" x2="299.88" y2="294.91"/>
    <line class="cls-15" x1="245.46" y1="294.53" x2="267.36" y2="294.68"/>
    <line class="cls-15" x1="278.22" y1="294.76" x2="299.88" y2="294.91"/>
    <polyline class="cls-15" points="246.51 293.31 244.23 295.56 244.41 295.74 246.69 293.49 246.51 293.31"/>
    <polyline class="cls-15" points="298.83 296.13 301.12 293.88 300.94 293.7 298.65 295.95 298.83 296.13"/>
    <line class="cls-15" x1="302.23" y1="274.16" x2="302.12" y2="294.53"/>
    <line class="cls-15" x1="373.09" y1="274.54" x2="372.98" y2="294.91"/>
    <line class="cls-15" x1="302.12" y1="294.53" x2="332" y2="294.69"/>
    <line class="cls-15" x1="343.17" y1="294.75" x2="372.98" y2="294.91"/>
    <polyline class="cls-15" points="303.17 293.31 300.89 295.56 301.07 295.75 303.35 293.49 303.17 293.31"/>
    <polyline class="cls-15" points="371.93 296.13 374.21 293.88 374.03 293.69 371.75 295.95 371.93 296.13"/>
    <line class="cls-15" x1="145.22" y1="274.16" x2="145.14" y2="294.53"/>
    <line class="cls-15" x1="243.28" y1="274.54" x2="243.2" y2="294.91"/>
    <line class="cls-15" x1="145.14" y1="294.53" x2="188.62" y2="294.7"/>
    <line class="cls-15" x1="200.76" y1="294.74" x2="243.2" y2="294.91"/>
    <polyline class="cls-15" points="146.18 293.31 143.91 295.56 144.09 295.75 146.36 293.49 146.18 293.31"/>
    <polyline class="cls-15" points="242.15 296.13 244.42 293.87 244.24 293.69 241.97 295.95 242.15 296.13"/>
    <line class="cls-15" x1="60.67" y1="162.16" x2="42.09" y2="162.1"/>
    <line class="cls-15" x1="60.31" y1="275.67" x2="41.73" y2="275.61"/>
    <line class="cls-15" x1="42.09" y1="162.1" x2="41.93" y2="213.24"/>
    <line class="cls-15" x1="41.89" y1="224.48" x2="41.73" y2="275.61"/>
    <polyline class="cls-15" points="43.31 163.15 41.05 160.87 40.87 161.05 43.13 163.33 43.31 163.15"/>
    <polyline class="cls-15" points="40.51 274.57 42.77 276.84 42.96 276.66 40.69 274.39 40.51 274.57"/>
  </g>
  <g id="Calque_9" data-name="Calque 9">
    <g>
      <text class="cls-25" transform="translate(43.76 145.02) rotate(-89.52)"><tspan x="0" y="0">1.49</tspan></text>
      <text class="cls-25" transform="translate(188.38 91.3)"><tspan x="0" y="0">3.46</tspan></text>
      <text class="cls-25" transform="translate(250.08 90.89) rotate(-.01)"><tspan x="0" y="0">0.68</tspan></text>
      <text class="cls-25" transform="translate(277.78 90.45)"><tspan x="0" y="0">1.14</tspan></text>
      <text class="cls-25" transform="translate(331.8 154.27) rotate(.2)"><tspan x="0" y="0">2.50</tspan></text>
      <text class="cls-25" transform="translate(387.93 226.14) rotate(-89.87)"><tspan x="0" y="0">3.90</tspan></text>
      <text class="cls-25" transform="translate(320 138.55) rotate(-89.3)"><tspan x="0" y="0">1.89</tspan></text>
      <text class="cls-25" transform="translate(81.98 91.32)"><tspan x="0" y="0">1.94</tspan></text>
      <text class="cls-25" transform="translate(121.79 90.98)"><tspan x="0" y="0">0.75</tspan></text>
      <text class="cls-25" transform="translate(96 296.82) rotate(.27)"><tspan x="0" y="0">2.91</tspan></text>
      <text class="cls-25" transform="translate(266.83 296.78) rotate(.41)"><tspan x="0" y="0">1.92</tspan></text>
      <text class="cls-25" transform="translate(331.71 296.79) rotate(.32)"><tspan x="0" y="0">2.50</tspan></text>
      <text class="cls-25" transform="translate(188.34 296.81) rotate(.22)"><tspan x="0" y="0">3.46</tspan></text>
      <text class="cls-25" transform="translate(43.97 224.65) rotate(-89.82)"><tspan x="0" y="0">4.00</tspan></text>
    </g>
  </g>
  <g id="D_faut" data-name="Dfaut">
    <rect class="cls-21" x="291.7" y="257.67" width="8.33" height="18"/>
    <line class="cls-21" x1="60.67" y1="119.78" x2="60.67" y2="120.82"/>
    <rect class="cls-21" x="266.48" y="105.8" width="1.93" height="25.4"/>
    <polyline class="cls-21" points="243.29 133.18 243.29 105.8 145.22 105.8 145.22 115.61 145.22 137.93 143.16 137.93 143.16 117.9 117.99 117.9 117.99 137.74 115.66 137.74 115.66 117.9 60.67 117.9 60.67 157.04 60.67 160.42 115.29 160.42 115.29 159.19 117.99 159.19 117.99 160.42 120.76 160.42 120.76 162.16 60.67 162.16 60.67 275.67 101.35 275.67 101.35 283.2 54.59 283.2 54.59 111.52 139.14 111.52 139.14 99.42 305.36 99.42 305.36 133.18 300.66 133.18 300.66 131.13 287.65 131.13 287.65 128.78 300.66 128.78 300.66 105.8 262.3 105.8 247.23 105.8 247.23 131.13 247.23 133.18"/>
    <rect class="cls-21" x="324.55" y="267.63" width=".72" height="8.05"/>
    <line class="cls-21" x1="247.23" y1="133.18" x2="243.29" y2="133.18"/>
    <line class="cls-21" x1="247.23" y1="107.81" x2="247.23" y2="128.55"/>
    <polyline class="cls-21" points="243.29 158.62 234.8 158.62 234.8 206.51 243.3 206.51"/>
    <polygon class="cls-21" points="245.6 257.67 243.28 257.67 243.28 275.67 235.59 275.67 235.59 283.2 248.51 283.2 248.51 275.67 245.6 275.67 245.6 257.67"/>
    <polyline class="cls-21" points="143.16 162.16 143.16 275.67 141.29 275.67 141.29 283.2 154.21 283.2 154.21 275.67 145.22 275.67 145.22 159.37 143.16 159.37 143.16 160.42"/>
    <polygon class="cls-21" points="243.29 206.51 245.61 206.51 245.62 189.5 300.03 189.5 300.03 275.67 291.7 275.67 291.7 283.2 325.26 283.2 325.26 275.67 302.23 275.67 302.23 186.44 300.03 186.44 247.23 186.37 247.23 158.62 243.29 158.62 243.29 206.51"/>
    <polyline class="cls-21" points="143.16 162.16 142.2 162.16 142.2 160.42 143.16 160.42"/>
    <polygon class="cls-21" points="379.17 283.2 365.2 283.2 365.2 275.67 373.09 275.67 373.09 164.99 300.03 164.99 300.03 155.86 304.71 155.86 304.71 159.28 379.17 159.28 379.17 283.2"/>
    <line class="cls-21" x1="54.59" y1="119.32" x2="54.59" y2="117.5"/>
    <rect class="cls-20" x="293.09" y="259.17" width="6.94" height="14.99"/>
    <line class="cls-5" x1="293.09" y1="259.17" x2="300.03" y2="274.16"/>
  </g>
  <g id="Calque_10" data-name="Calque 10">
    <polyline class="cls-21" points="243.29 158.62 234.8 158.62 234.8 206.51 243.3 206.51"/>
    <rect class="cls-20" x="236.22" y="160.04" width="7.08" height="45.06"/>
    <line class="cls-5" x1="236.22" y1="160.03" x2="243.3" y2="205.09"/>
  </g>
  <g id="Calque_8" data-name="Calque 8">
    <g>
      <circle class="cls-12" cx="371.95" cy="349.59" r="9.92"/>
      <line class="cls-12" x1="371.96" y1="349.67" x2="379.4" y2="356.14"/>
      <line class="cls-7" x1="364.43" y1="343.12" x2="371.96" y2="349.67"/>
    </g>
  </g>
  <g id="Calque_12" data-name="Calque 12">
    <g>
      <text class="cls-26" transform="translate(85.09 206.36)"><tspan x="0" y="0">Chamb</tspan><tspan class="cls-1" x="19.92" y="0">r</tspan><tspan x="21.71" y="0">e I</tspan><tspan class="cls-17" x="0" y="7.2">1</tspan><tspan x="3.24" y="7.2">1,60m</tspan></text>
      <text class="cls-26" transform="translate(105.18 211.56) scale(.58)"><tspan x="0" y="0">2</tspan></text>
      <text class="cls-26" transform="translate(107.14 213.56)"><tspan x="0" y="0"> </tspan></text>
    </g>
    <g>
      <text class="cls-26" transform="translate(171.91 206.36)"><tspan x="0" y="0">Salon</tspan><tspan x="0" y="7.2">20,70m</tspan></text>
      <text class="cls-26" transform="translate(192.13 211.56) scale(.58)"><tspan x="0" y="0">2</tspan></text>
      <text class="cls-26" transform="translate(194.09 213.56)"><tspan x="0" y="0"> </tspan></text>
    </g>
    <g>
      <text class="cls-26" transform="translate(254.73 206.36)"><tspan x="0" y="0">Cuisine</tspan><tspan x="0" y="7.2">5,80m</tspan></text>
      <text class="cls-26" transform="translate(271.58 211.56) scale(.58)"><tspan x="0" y="0">2</tspan></text>
      <text class="cls-26" transform="translate(273.54 213.56)"><tspan x="0" y="0"> </tspan></text>
    </g>
    <g>
      <text class="cls-26" transform="translate(327.85 206.36)"><tspan x="0" y="0">Chamb</tspan><tspan class="cls-1" x="19.92" y="0">r</tspan><tspan x="21.71" y="0">e II</tspan><tspan x="0" y="7.2">9,75 m</tspan></text>
      <text class="cls-26" transform="translate(346.21 211.56) scale(.58)"><tspan x="0" y="0">2</tspan></text>
    </g>
    <g>
      <text class="cls-26" transform="translate(257.32 162.46)"><tspan x="0" y="0">Ent</tspan><tspan class="cls-1" x="8.8" y="0">r</tspan><tspan x="10.59" y="0">e</tspan><tspan x="0" y="7.2">3,60m</tspan></text>
      <text class="cls-26" transform="translate(274.17 167.66) scale(.58)"><tspan x="0" y="0">2</tspan></text>
      <text class="cls-26" transform="translate(276.13 169.66)"><tspan x="0" y="0"> </tspan></text>
    </g>
    <g>
      <text class="cls-26" transform="translate(271.81 116.03)"><tspan x="0" y="0">WC</tspan><tspan x="0" y="7.2">1m</tspan></text>
      <text class="cls-26" transform="translate(280.5 121.23) scale(.58)"><tspan x="0" y="0">2</tspan></text>
      <text class="cls-26" transform="translate(282.46 123.23)"><tspan x="0" y="0"> </tspan></text>
    </g>
    <g>
      <text class="cls-26" transform="translate(73.39 133.16)"><tspan x="0" y="0" xml:space="preserve">Salle de  bain</tspan><tspan x="0" y="7.2">2,90m</tspan></text>
      <text class="cls-26" transform="translate(90.25 138.36) scale(.58)"><tspan x="0" y="0">2</tspan></text>
      <text class="cls-26" transform="translate(92.2 140.36)"><tspan x="0" y="0"> </tspan></text>
    </g>
  </g>
</svg>