<?xml version="1.0" encoding="UTF-8"?>
<svg id="Calque_12" data-name="Calque 12" xmlns="http://www.w3.org/2000/svg" xmlns:xlink="http://www.w3.org/1999/xlink" viewBox="0 0 396.85 396.85">
  <defs>
    <style>
      .cls-1, .cls-2, .cls-3, .cls-4, .cls-5, .cls-6, .cls-7, .cls-8, .cls-9, .cls-10, .cls-11 {
        fill: none;
      }

      .cls-1, .cls-12 {
        stroke-width: 0px;
      }

      .cls-2 {
        stroke-width: .05px;
      }

      .cls-2, .cls-13, .cls-5, .cls-6, .cls-9, .cls-10, .cls-14 {
        stroke-linecap: round;
        stroke-linejoin: round;
      }

      .cls-2, .cls-5 {
        stroke: #999;
      }

      .cls-15 {
        letter-spacing: -.02em;
      }

      .cls-16 {
        font-size: 6.23px;
      }

      .cls-16, .cls-17 {
        fill: #333;
        font-family: Avenir-Medium, Avenir;
        font-weight: 500;
      }

      .cls-3 {
        stroke-width: 2px;
      }

      .cls-3, .cls-18, .cls-4, .cls-19, .cls-7, .cls-8, .cls-11 {
        stroke-miterlimit: 10;
      }

      .cls-3, .cls-19, .cls-8 {
        stroke: #000;
      }

      .cls-18 {
        fill: url(#Nouveau_motif_3);
      }

      .cls-18, .cls-13, .cls-4, .cls-7, .cls-9, .cls-10, .cls-14, .cls-11 {
        stroke-width: .15px;
      }

      .cls-18, .cls-4, .cls-7, .cls-10, .cls-14 {
        stroke: #666;
      }

      .cls-13, .cls-6, .cls-9, .cls-11 {
        stroke: #333;
      }

      .cls-13, .cls-14, .cls-12 {
        fill: #fff;
      }

      .cls-17 {
        font-size: 6.23px;
      }

      .cls-5, .cls-6, .cls-8 {
        stroke-width: .25px;
      }

      .cls-19 {
        fill: #999;
        stroke-width: .5px;
      }

      .cls-20 {
        fill: #000;
        font-family: AvenirNext-UltraLight, 'Avenir Next';
        font-size: 6px;
        font-weight: 100;
      }

      .cls-7 {
        stroke-dasharray: 0 0 3.16 3.16;
      }

      .cls-10 {
        stroke-dasharray: 0 0 0 2.83;
      }
    </style>
    <pattern id="Nouveau_motif_3" data-name="Nouveau motif 3" x="0" y="0" width="89.43" height="96.66" patternTransform="translate(-6708.82 -2685.91) rotate(90) scale(.3)" patternUnits="userSpaceOnUse" viewBox="0 0 89.43 96.66">
      <g>
        <rect class="cls-1" width="89.43" height="96.66"/>
        <g>
          <line class="cls-5" x1="44.72" y1="49.94" x2="44.72" y2="98.37"/>
          <line class="cls-5" x1="89.31" y1="94.94" x2="89.31" y2="143.37"/>
          <line class="cls-5" x1=".12" y1="94.82" x2=".12" y2="143.25"/>
          <line class="cls-5" x1="44.72" y1="49.94" x2=".12" y2="94.82"/>
          <line class="cls-5" x1="44.72" y1="62.1" x2=".12" y2="106.98"/>
          <line class="cls-5" x1="44.72" y1="49.94" x2="89.31" y2="94.82"/>
          <line class="cls-5" x1="44.72" y1="62.06" x2="89.31" y2="106.94"/>
          <g>
            <line class="cls-5" x1="44.72" y1="74.16" x2=".12" y2="119.03"/>
            <line class="cls-5" x1="44.72" y1="74.28" x2="89.31" y2="119.16"/>
          </g>
          <line class="cls-5" x1="44.72" y1="86.16" x2=".12" y2="131.03"/>
          <line class="cls-5" x1="44.72" y1="86.16" x2="89.31" y2="131.03"/>
        </g>
        <g>
          <line class="cls-5" x1="44.72" y1="1.61" x2="44.72" y2="50.05"/>
          <line class="cls-5" x1="89.31" y1="46.61" x2="89.31" y2="95.04"/>
          <line class="cls-5" x1=".12" y1="46.49" x2=".12" y2="94.92"/>
          <line class="cls-5" x1="44.72" y1="1.61" x2=".12" y2="46.49"/>
          <line class="cls-5" x1="44.72" y1="13.77" x2=".12" y2="58.65"/>
          <line class="cls-5" x1="44.72" y1="1.61" x2="89.31" y2="46.49"/>
          <line class="cls-5" x1="44.72" y1="13.73" x2="89.31" y2="58.61"/>
          <g>
            <line class="cls-5" x1="44.72" y1="25.83" x2=".12" y2="70.71"/>
            <line class="cls-5" x1="44.72" y1="25.95" x2="89.31" y2="70.83"/>
          </g>
          <line class="cls-5" x1="44.72" y1="37.83" x2=".12" y2="82.71"/>
          <line class="cls-5" x1="44.72" y1="37.83" x2="89.31" y2="82.71"/>
          <g>
            <line class="cls-5" x1="44.72" y1="50.05" x2=".12" y2="94.92"/>
            <line class="cls-5" x1="44.72" y1="50.05" x2="89.31" y2="94.92"/>
          </g>
        </g>
        <g>
          <line class="cls-5" x1="44.72" y1="-46.72" x2="44.72" y2="1.72"/>
          <line class="cls-5" x1="89.31" y1="-1.72" x2="89.31" y2="46.72"/>
          <line class="cls-5" x1=".12" y1="-1.84" x2=".12" y2="46.59"/>
          <line class="cls-5" x1="44.72" y1="-34.55" x2=".12" y2="10.32"/>
          <line class="cls-5" x1="44.72" y1="-34.59" x2="89.31" y2="10.28"/>
          <g>
            <line class="cls-5" x1="44.72" y1="-22.5" x2=".12" y2="22.38"/>
            <line class="cls-5" x1="44.72" y1="-22.38" x2="89.31" y2="22.5"/>
          </g>
          <line class="cls-5" x1="44.72" y1="-10.5" x2=".12" y2="34.38"/>
          <line class="cls-5" x1="44.72" y1="-10.5" x2="89.31" y2="34.38"/>
          <g>
            <line class="cls-5" x1="44.72" y1="1.72" x2=".12" y2="46.59"/>
            <line class="cls-5" x1="44.72" y1="1.72" x2="89.31" y2="46.59"/>
          </g>
        </g>
      </g>
    </pattern>
  </defs>
  <g>
    <polyline class="cls-2" points="192.13 124.83 197.09 124.83 197.09 130.49 192.14 130.49"/>
    <polyline class="cls-2" points="191.42 119.2 191.42 119.16 197.09 119.16 197.09 124.83 192.13 124.83"/>
    <rect class="cls-2" x="107.14" y="81.41" width="31.17" height="8.72" transform="translate(-20.39 41.77) rotate(-17.86)"/>
    <rect class="cls-2" x="225.43" y="124.83" width="5.67" height="5.67"/>
    <rect class="cls-2" x="225.43" y="119.16" width="5.67" height="5.67"/>
    <rect class="cls-2" x="225.43" y="130.49" width="5.67" height="5.67"/>
    <rect class="cls-2" x="225.43" y="141.83" width="5.67" height="5.67"/>
    <rect class="cls-2" x="225.43" y="136.16" width="5.67" height="5.67"/>
    <rect class="cls-2" x="225.43" y="147.5" width="5.67" height="5.67"/>
    <rect class="cls-2" x="219.76" y="119.16" width="5.67" height="5.67"/>
    <rect class="cls-2" x="214.1" y="119.16" width="5.67" height="5.67"/>
    <rect class="cls-2" x="208.43" y="119.16" width="5.67" height="5.67"/>
    <rect class="cls-2" x="202.76" y="119.16" width="5.67" height="5.67"/>
    <rect class="cls-2" x="197.09" y="119.16" width="5.67" height="5.67"/>
    <rect class="cls-2" x="219.76" y="124.83" width="5.67" height="5.67"/>
    <rect class="cls-2" x="214.1" y="124.83" width="5.67" height="5.67"/>
    <rect class="cls-2" x="208.43" y="124.83" width="5.67" height="5.67"/>
    <rect class="cls-2" x="202.76" y="124.83" width="5.67" height="5.67"/>
    <rect class="cls-2" x="197.09" y="124.83" width="5.67" height="5.67"/>
    <rect class="cls-2" x="219.76" y="130.49" width="5.67" height="5.67"/>
    <rect class="cls-2" x="214.1" y="130.49" width="5.67" height="5.67"/>
    <rect class="cls-2" x="208.43" y="130.49" width="5.67" height="5.67"/>
    <rect class="cls-2" x="202.76" y="130.49" width="5.67" height="5.67"/>
    <rect class="cls-2" x="197.09" y="130.49" width="5.67" height="5.67"/>
    <rect class="cls-2" x="219.76" y="136.16" width="5.67" height="5.67"/>
    <rect class="cls-2" x="214.1" y="136.16" width="5.67" height="5.67"/>
    <rect class="cls-2" x="208.43" y="136.16" width="5.67" height="5.67"/>
    <rect class="cls-2" x="202.76" y="136.16" width="5.67" height="5.67"/>
    <rect class="cls-2" x="197.09" y="136.16" width="5.67" height="5.67"/>
    <rect class="cls-2" x="219.76" y="141.83" width="5.67" height="5.67"/>
    <rect class="cls-2" x="214.1" y="141.83" width="5.67" height="5.67"/>
    <rect class="cls-2" x="208.43" y="141.83" width="5.67" height="5.67"/>
    <rect class="cls-2" x="202.76" y="141.83" width="5.67" height="5.67"/>
    <rect class="cls-2" x="197.09" y="141.83" width="5.67" height="5.67"/>
    <rect class="cls-2" x="219.76" y="147.5" width="5.67" height="5.67"/>
    <rect class="cls-2" x="214.1" y="147.5" width="5.67" height="5.67"/>
    <rect class="cls-2" x="208.43" y="147.5" width="5.67" height="5.67"/>
    <rect class="cls-2" x="202.76" y="147.5" width="5.67" height="5.67"/>
    <rect class="cls-2" x="197.09" y="147.5" width="5.67" height="5.67"/>
    <rect class="cls-2" x="225.43" y="153.17" width="5.67" height="5.67"/>
    <rect class="cls-2" x="219.76" y="153.17" width="5.67" height="5.67"/>
    <rect class="cls-2" x="214.1" y="153.17" width="5.67" height="5.67"/>
    <rect class="cls-2" x="208.43" y="153.17" width="5.67" height="5.67"/>
    <rect class="cls-2" x="202.76" y="153.17" width="5.67" height="5.67"/>
    <rect class="cls-2" x="197.09" y="153.17" width="5.67" height="5.67"/>
    <rect class="cls-2" x="225.43" y="158.84" width="5.67" height="5.67"/>
    <rect class="cls-2" x="219.76" y="158.84" width="5.67" height="5.67"/>
    <rect class="cls-2" x="214.1" y="158.84" width="5.67" height="5.67"/>
    <rect class="cls-2" x="208.43" y="158.84" width="5.67" height="5.67"/>
    <rect class="cls-2" x="202.76" y="158.84" width="5.67" height="5.67"/>
    <rect class="cls-2" x="197.09" y="158.84" width="5.67" height="5.67"/>
    <rect class="cls-2" x="225.43" y="164.51" width="5.67" height="5.67"/>
    <rect class="cls-2" x="219.76" y="164.51" width="5.67" height="5.67"/>
    <rect class="cls-2" x="214.1" y="164.51" width="5.67" height="5.67"/>
    <rect class="cls-2" x="208.43" y="164.51" width="5.67" height="5.67"/>
    <rect class="cls-2" x="202.76" y="164.51" width="5.67" height="5.67"/>
    <rect class="cls-2" x="197.09" y="164.51" width="5.67" height="5.67"/>
    <rect class="cls-2" x="219.76" y="170.18" width="5.67" height="5.67"/>
    <rect class="cls-2" x="214.1" y="170.18" width="5.67" height="5.67"/>
    <rect class="cls-2" x="208.43" y="170.18" width="5.67" height="5.67"/>
    <rect class="cls-2" x="202.76" y="170.18" width="5.67" height="5.67"/>
    <rect class="cls-2" x="197.09" y="170.18" width="5.67" height="5.67"/>
    <rect class="cls-2" x="191.42" y="170.18" width="5.67" height="5.67"/>
    <rect class="cls-2" x="185.75" y="170.18" width="5.67" height="5.67"/>
    <rect class="cls-2" x="180.08" y="170.18" width="5.67" height="5.67"/>
    <rect class="cls-2" x="174.41" y="170.18" width="5.67" height="5.67"/>
    <rect class="cls-2" x="168.74" y="170.18" width="5.67" height="5.67"/>
    <polygon class="cls-18" points="164.49 57.59 133.27 67.96 136.14 76.86 106.56 86.4 104.13 79.14 67.54 91.29 67.54 203.26 190.34 203.26 190.34 211.77 67.54 211.77 67.54 331.39 147.32 331.39 143.41 323.03 159.34 313.22 164.49 321.58 164.49 239.69 172.99 239.69 172.99 245.78 232.91 245.78 232.91 245.78 253.5 245.78 253.5 212.4 240.74 211.77 241.17 203.26 335.42 203.27 335.42 89.88 250.95 89.88 250.95 175.84 164.56 175.85 164.49 57.59"/>
    <polyline class="cls-2" points="199.37 254.29 212.68 254.29 212.68 245.78 202.61 245.78 202.61 248.62"/>
    <polyline class="cls-2" points="193.11 330.82 195.67 330.82 195.67 322.32 193.11 322.32"/>
    <polyline class="cls-2" points="193.11 322.32 195.67 322.32 195.67 313.81 193.11 313.81"/>
    <polyline class="cls-2" points="193.11 288.3 195.67 288.3 195.67 281.68"/>
    <line class="cls-2" x1="178.66" y1="281.68" x2="178.66" y2="282.63"/>
    <rect class="cls-2" x="144.6" y="317.4" width="18.71" height="9.81" transform="translate(-146.18 128.64) rotate(-31.64)"/>
    <polyline class="cls-2" points="193.11 313.81 195.67 313.81 195.67 305.31 193.11 305.31"/>
    <polyline class="cls-2" points="193.11 305.31 195.67 305.31 195.67 296.81 193.11 296.81"/>
    <polyline class="cls-2" points="193.11 296.81 195.67 296.81 195.67 288.3 193.11 288.3"/>
    <polyline class="cls-2" points="195.67 281.68 195.67 288.3 212.68 288.3 212.68 279.8 199.37 279.8"/>
    <polyline class="cls-2" points="199.37 279.8 212.68 279.8 212.68 271.29 199.37 271.29"/>
    <polyline class="cls-2" points="199.37 271.29 212.68 271.29 212.68 262.79 199.37 262.79"/>
    <polyline class="cls-2" points="199.37 262.79 212.68 262.79 212.68 254.29 199.37 254.29"/>
    <polyline class="cls-2" points="246.69 297.67 246.69 305.31 253.5 305.31"/>
    <polyline class="cls-2" points="229.69 297.67 229.69 305.31 246.69 305.31 246.69 297.67"/>
    <polyline class="cls-2" points="253.5 322.32 246.69 322.32 246.69 330.82 253.5 330.82"/>
    <polyline class="cls-2" points="253.5 313.81 246.69 313.81 246.69 322.32 253.5 322.32"/>
    <polyline class="cls-2" points="253.5 305.31 246.69 305.31 246.69 313.81 253.5 313.81"/>
    <rect class="cls-2" x="229.69" y="322.32" width="17.01" height="8.5"/>
    <rect class="cls-2" x="229.69" y="313.81" width="17.01" height="8.5"/>
    <rect class="cls-2" x="229.69" y="305.31" width="17.01" height="8.5"/>
    <polyline class="cls-2" points="247.5 279.77 247.5 287.41 254.3 287.41"/>
    <polyline class="cls-2" points="230.49 279.77 230.49 287.41 247.5 287.41 247.5 279.77"/>
    <polyline class="cls-2" points="253.5 288.3 246.69 288.3 246.69 296.81 253.5 296.81"/>
    <rect class="cls-2" x="229.69" y="288.3" width="17.01" height="8.5"/>
    <polyline class="cls-2" points="247.5 263.65 247.5 271.29 254.3 271.29"/>
    <polyline class="cls-2" points="230.49 263.65 230.49 271.29 247.5 271.29 247.5 263.65"/>
    <polyline class="cls-2" points="254.3 271.29 247.5 271.29 247.5 279.8 254.3 279.8"/>
    <rect class="cls-2" x="230.49" y="271.29" width="17.01" height="8.5"/>
    <polyline class="cls-2" points="247.5 246.65 247.5 254.29 254.3 254.29"/>
    <polyline class="cls-2" points="230.49 245.78 230.49 254.29 247.5 254.29 247.5 245.78"/>
    <polyline class="cls-2" points="254.3 254.29 247.5 254.29 247.5 262.79 254.3 262.79"/>
    <rect class="cls-2" x="230.49" y="254.29" width="17.01" height="8.5"/>
    <rect class="cls-2" x="212.68" y="322.32" width="17.01" height="8.5"/>
    <rect class="cls-2" x="195.67" y="322.32" width="17.01" height="8.5"/>
    <rect class="cls-2" x="212.68" y="313.81" width="17.01" height="8.5"/>
    <rect class="cls-2" x="195.67" y="313.81" width="17.01" height="8.5"/>
    <rect class="cls-2" x="212.68" y="305.31" width="17.01" height="8.5"/>
    <rect class="cls-2" x="195.67" y="305.31" width="17.01" height="8.5"/>
    <rect class="cls-2" x="212.68" y="296.81" width="17.01" height="8.5"/>
    <rect class="cls-2" x="195.67" y="296.81" width="17.01" height="8.5"/>
    <rect class="cls-2" x="212.68" y="288.3" width="17.01" height="8.5"/>
    <rect class="cls-2" x="195.67" y="288.3" width="17.01" height="8.5"/>
    <rect class="cls-2" x="212.68" y="279.8" width="17.01" height="8.5"/>
    <rect class="cls-2" x="212.68" y="271.29" width="17.01" height="8.5"/>
    <rect class="cls-2" x="212.68" y="262.79" width="17.01" height="8.5"/>
    <rect class="cls-2" x="212.68" y="254.29" width="17.01" height="8.5"/>
    <rect class="cls-2" x="212.68" y="245.78" width="17.01" height="8.5"/>
    <polyline class="cls-2" points="248.11 170.18 248.11 175.85 242.44 175.85 242.44 174.35"/>
    <line class="cls-2" x1="231.1" y1="171.51" x2="231.1" y2="170.18"/>
    <polyline class="cls-2" points="242.44 174.35 242.44 175.85 236.77 175.85 236.77 174.35"/>
    <polyline class="cls-2" points="236.77 174.35 236.77 175.85 231.1 175.85 231.1 174.35"/>
    <polyline class="cls-2" points="231.1 174.35 231.1 175.85 225.43 175.85 225.43 170.18 231.1 170.18 231.1 171.51"/>
    <line class="cls-2" x1="164.56" y1="170.18" x2="164.56" y2="175.85"/>
    <polyline class="cls-2" points="164.56 170.18 168.74 170.18 168.74 175.85 164.56 175.85"/>
    <polyline class="cls-2" points="192.18 158.84 197.09 158.84 197.09 164.51 192.19 164.51"/>
    <polyline class="cls-2" points="192.19 164.51 197.09 164.51 197.09 170.18 191.42 170.18"/>
    <polyline class="cls-2" points="192.17 147.5 197.09 147.5 197.09 153.17 192.18 153.17"/>
    <polyline class="cls-2" points="192.18 153.17 197.09 153.17 197.09 158.84 192.18 158.84"/>
    <polyline class="cls-2" points="192.14 130.49 197.09 130.49 197.09 136.16 192.15 136.16"/>
    <polyline class="cls-2" points="192.15 136.16 197.09 136.16 197.09 141.83 192.16 141.83"/>
    <polyline class="cls-2" points="192.16 141.83 197.09 141.83 197.09 147.5 192.17 147.5"/>
    <g>
      <line class="cls-11" x1="250.95" y1="89.98" x2="250.95" y2="66.25"/>
      <line class="cls-11" x1="335.42" y1="89.98" x2="335.42" y2="66.25"/>
      <line class="cls-11" x1="250.95" y1="66.25" x2="287.64" y2="66.25"/>
      <line class="cls-11" x1="298.73" y1="66.25" x2="335.42" y2="66.25"/>
      <polyline class="cls-11" points="251.99 65.03 249.72 67.3 249.9 67.48 252.17 65.21 251.99 65.03"/>
      <polyline class="cls-11" points="334.38 67.48 336.65 65.21 336.46 65.03 334.2 67.3 334.38 67.48"/>
      <text class="cls-17" transform="translate(287.38 68.38)"><tspan x="0" y="0">2.98</tspan></text>
    </g>
    <g>
      <line class="cls-11" x1="172.91" y1="331.47" x2="172.9" y2="358.21"/>
      <line class="cls-11" x1="253.5" y1="331.49" x2="253.49" y2="358.23"/>
      <line class="cls-11" x1="172.9" y1="358.21" x2="207.65" y2="358.22"/>
      <line class="cls-11" x1="218.89" y1="358.22" x2="253.49" y2="358.23"/>
      <polyline class="cls-11" points="173.95 356.99 171.68 359.25 171.86 359.43 174.13 357.17 173.95 356.99"/>
      <polyline class="cls-11" points="252.45 359.45 254.72 357.18 254.54 357 252.27 359.27 252.45 359.45"/>
      <text class="cls-17" transform="translate(207.39 360.34) rotate(.01)"><tspan x="0" y="0">2.84</tspan></text>
    </g>
    <g>
      <line class="cls-11" x1="262" y1="211.87" x2="283.31" y2="211.87"/>
      <line class="cls-11" x1="262" y1="329.45" x2="283.31" y2="329.45"/>
      <line class="cls-11" x1="283.31" y1="211.87" x2="283.31" y2="265.04"/>
      <line class="cls-11" x1="283.31" y1="276.11" x2="283.31" y2="329.45"/>
      <polyline class="cls-11" points="284.53 212.91 282.26 210.64 282.08 210.82 284.35 213.09 284.53 212.91"/>
      <polyline class="cls-11" points="282.08 328.41 284.35 330.68 284.53 330.5 282.26 328.23 282.08 328.41"/>
      <text class="cls-17" transform="translate(285.34 276.3) rotate(-90)"><tspan x="0" y="0">4.15</tspan></text>
    </g>
    <g>
      <line class="cls-11" x1="164.49" y1="332.59" x2="164.21" y2="357.21"/>
      <line class="cls-11" x1="67.55" y1="331.49" x2="67.27" y2="356.11"/>
      <line class="cls-11" x1="164.21" y1="357.21" x2="121.29" y2="356.72"/>
      <line class="cls-11" x1="110.19" y1="356.59" x2="67.27" y2="356.11"/>
      <polyline class="cls-11" points="163.15 358.42 165.45 356.18 165.27 356 162.97 358.24 163.15 358.42"/>
      <polyline class="cls-11" points="68.32 354.89 66.03 357.14 66.21 357.32 68.5 355.08 68.32 354.89"/>
      <text class="cls-16" transform="translate(109.93 358.74) rotate(.65)"><tspan x="0" y="0">3.42</tspan></text>
    </g>
    <g>
      <line class="cls-11" x1="67.55" y1="91.39" x2="67.55" y2="36.37"/>
      <line class="cls-11" x1="164.49" y1="91.39" x2="164.49" y2="36.37"/>
      <line class="cls-11" x1="67.55" y1="36.37" x2="110.47" y2="36.37"/>
      <line class="cls-11" x1="121.57" y1="36.37" x2="164.49" y2="36.37"/>
      <polyline class="cls-11" points="68.59 35.15 66.32 37.41 66.5 37.6 68.77 35.33 68.59 35.15"/>
      <polyline class="cls-11" points="163.45 37.6 165.72 35.33 165.53 35.15 163.27 37.41 163.45 37.6"/>
      <text class="cls-17" transform="translate(110.21 38.5)"><tspan x="0" y="0">3.42</tspan></text>
    </g>
    <g>
      <line class="cls-11" x1="173" y1="110.77" x2="173" y2="66.25"/>
      <line class="cls-11" x1="242.44" y1="110.77" x2="242.44" y2="66.25"/>
      <line class="cls-11" x1="173" y1="66.25" x2="202.17" y2="66.25"/>
      <line class="cls-11" x1="213.17" y1="66.25" x2="242.44" y2="66.25"/>
      <polyline class="cls-11" points="174.04 65.03 171.77 67.3 171.95 67.48 174.22 65.21 174.04 65.03"/>
      <polyline class="cls-11" points="241.4 67.48 243.67 65.21 243.49 65.03 241.22 67.3 241.4 67.48"/>
      <text class="cls-17" transform="translate(201.91 68.38)"><tspan x="0" y="0">2.45</tspan></text>
    </g>
    <g>
      <line class="cls-11" x1="59.44" y1="203.36" x2="40.41" y2="203.36"/>
      <line class="cls-11" x1="59.44" y1="91.39" x2="40.41" y2="91.39"/>
      <line class="cls-11" x1="40.41" y1="203.36" x2="40.41" y2="152.93"/>
      <line class="cls-11" x1="40.41" y1="141.92" x2="40.41" y2="91.39"/>
      <polyline class="cls-11" points="39.18 202.32 41.45 204.59 41.63 204.4 39.37 202.14 39.18 202.32"/>
      <polyline class="cls-11" points="41.63 92.44 39.37 90.17 39.18 90.35 41.45 92.62 41.63 92.44"/>
      <text class="cls-17" transform="translate(42.53 153.18) rotate(-90)"><tspan x="0" y="0">3.95</tspan></text>
    </g>
    <g>
      <line class="cls-11" x1="59.44" y1="331.49" x2="40.41" y2="331.49"/>
      <line class="cls-11" x1="59.44" y1="211.87" x2="40.41" y2="211.87"/>
      <line class="cls-11" x1="40.41" y1="331.49" x2="40.41" y2="277.3"/>
      <line class="cls-11" x1="40.41" y1="266.13" x2="40.41" y2="211.87"/>
      <polyline class="cls-11" points="39.18 330.44 41.45 332.71 41.63 332.53 39.37 330.26 39.18 330.44"/>
      <polyline class="cls-11" points="41.63 212.91 39.37 210.64 39.18 210.82 41.45 213.09 41.63 212.91"/>
      <text class="cls-17" transform="translate(42.53 277.48) rotate(-90)"><tspan x="0" y="0">4.22</tspan></text>
    </g>
    <g>
      <line class="cls-11" x1="335.42" y1="89.98" x2="355.71" y2="89.98"/>
      <line class="cls-11" x1="335.42" y1="203.37" x2="355.71" y2="203.37"/>
      <line class="cls-11" x1="355.71" y1="89.98" x2="355.71" y2="141.05"/>
      <line class="cls-11" x1="355.71" y1="152.29" x2="355.71" y2="203.37"/>
      <polyline class="cls-11" points="356.94 91.02 354.67 88.75 354.49 88.93 356.75 91.2 356.94 91.02"/>
      <polyline class="cls-11" points="354.49 202.32 356.76 204.59 356.94 204.41 354.67 202.14 354.49 202.32"/>
      <text class="cls-17" transform="translate(357.82 152.48) rotate(-90)"><tspan x="0" y="0">4.00</tspan></text>
    </g>
    <rect class="cls-14" x="156.02" y="154.85" width="8.47" height="16.03"/>
    <rect class="cls-14" x="157.55" y="137.88" width="6.94" height="16.03"/>
    <rect class="cls-12" x="156.96" y="120.66" width="8.45" height="16.05" transform="translate(-11.57 16) rotate(-5.49)"/>
    <rect class="cls-12" x="287.24" y="180.64" width="48.18" height="22.62"/>
    <rect class="cls-12" x="79.09" y="182.07" width="62.64" height="21.19"/>
    <rect class="cls-12" x="137.95" y="183.4" width="6.76" height="14.57"/>
    <rect class="cls-12" x="76.27" y="183.4" width="5.74" height="14.57"/>
    <rect class="cls-12" x="117.01" y="127.15" width="18.62" height="20.59" transform="translate(90.92 -45.84) rotate(31.65)"/>
    <rect class="cls-12" x="114.31" y="127.44" width="6.51" height="14.52" transform="translate(88.17 -41.66) rotate(31.65)"/>
    <rect class="cls-12" x="129.81" y="136.89" width="6.51" height="14.52" transform="translate(95.44 -48.39) rotate(31.65)"/>
    <rect class="cls-12" x="70.66" y="211.77" width="57.49" height="17.01"/>
    <rect class="cls-12" x="263.8" y="134.93" width="9.73" height="12.07" rx="3.4" ry="3.4" transform="translate(30.34 -46.8) rotate(10.55)"/>
    <rect class="cls-14" x="172.91" y="282.63" width="20.2" height="48.74"/>
    <rect class="cls-14" x="250.95" y="126.16" width="14.57" height="27.24"/>
    <line class="cls-14" x1="81.33" y1="183.4" x2="77.16" y2="183.4"/>
    <rect class="cls-14" x="198.69" y="248.62" width=".68" height="19.98"/>
    <rect class="cls-14" x="231.1" y="154.25" width="17.01" height="17.26"/>
    <rect class="cls-14" x="231.1" y="136.62" width="17.01" height="17.63"/>
    <rect class="cls-14" x="236.77" y="119.17" width="11.34" height="35.08"/>
    <rect class="cls-14" x="231.1" y="119.17" width="17.01" height="17.45"/>
    <polygon class="cls-14" points="164.56 170.16 192.2 170.2 192.13 119.2 164.49 119.16 164.56 170.16"/>
    <path class="cls-14" d="M176.98,125.09v9.68c0,.31.35.51.58.61.28.11.57.15.87.15h10.54c.3,0,.58-.04.87-.15.23-.09.58-.29.58-.61v-13.95c0-.31-.35-.51-.58-.61-.28-.11-.57-.15-.87-.15h-10.54c-.3,0-.58.04-.87.15-.23.09-.58.29-.58.61v3.61"/>
    <polyline class="cls-14" points="176.5 128.1 178.78 128.1 178.78 127.3 176.47 127.3"/>
    <path class="cls-14" d="M175.34,128.21c.28.3.75.31,1.04.03.29-.28.31-.75.03-1.04-.28-.3-.75-.31-1.04-.03-.3.28-.31.75-.03,1.04Z"/>
    <rect class="cls-10" x="175.12" y="136.18" width="17.01" height="17.01"/>
    <rect class="cls-10" x="175.12" y="153.19" width="17.01" height="17.01"/>
    <path class="cls-14" d="M183.26,126.9c-.4,0-.73.33-.73.73s.33.73.73.73.73-.33.73-.73-.33-.73-.73-.73Z"/>
    <path class="cls-14" d="M183.26,127.07c-.31,0-.56.25-.56.56s.25.56.56.56.56-.25.56-.56-.25-.56-.56-.56Z"/>
    <line class="cls-14" x1="159.16" y1="139.48" x2="159.16" y2="152.3"/>
    <line class="cls-14" x1="157.55" y1="137.88" x2="157.55" y2="153.91"/>
    <line class="cls-14" x1="159.16" y1="139.48" x2="164.49" y2="139.48"/>
    <line class="cls-14" x1="157.55" y1="137.88" x2="164.49" y2="137.88"/>
    <line class="cls-14" x1="159.16" y1="152.3" x2="164.49" y2="152.3"/>
    <line class="cls-14" x1="157.55" y1="153.91" x2="164.49" y2="153.91"/>
    <line class="cls-14" x1="158.01" y1="122.57" x2="164.49" y2="121.85"/>
    <line class="cls-14" x1="158.02" y1="137.09" x2="164.49" y2="136.36"/>
    <line class="cls-14" x1="159.44" y1="135.32" x2="164.49" y2="134.75"/>
    <line class="cls-14" x1="156.24" y1="121.16" x2="163.55" y2="120.34"/>
    <line class="cls-14" x1="163.55" y1="120.34" x2="163.73" y2="121.93"/>
    <line class="cls-14" x1="158.01" y1="122.57" x2="159.44" y2="135.32"/>
    <line class="cls-14" x1="156.24" y1="121.16" x2="158.02" y2="137.09"/>
    <path class="cls-14" d="M184.02,286.47c2.61,0,4.57,2.21,4.57,4.75s-1.97,4.75-4.57,4.75-4.57-2.21-4.57-4.75,1.97-4.75,4.57-4.75Z"/>
    <path class="cls-14" d="M177,291.77c.53,0,.97-.43.97-.97s-.43-.97-.97-.97-.97.43-.97.97.43.97.97.97Z"/>
    <rect class="cls-14" x="177.85" y="290.57" width="1.61" height=".59"/>
    <rect class="cls-14" x="172.91" y="248.62" width="26.46" height="33.07"/>
    <rect class="cls-10" x="176.1" y="310.53" width="17.01" height="17.01"/>
    <polygon class="cls-14" points="89.66 142.56 93.87 149.95 101.26 145.74 98.46 140.81 97.05 138.35 89.66 142.56"/>
    <path class="cls-14" d="M71.2,108.28c-1.22,1.76-1.01,4.14.5,5.66"/>
    <path class="cls-14" d="M75.75,106.47c-.95-.2-1.77-.12-2.67.27"/>
    <path class="cls-14" d="M75.09,115.24c.4-.02.77-.09,1.15-.22"/>
    <path class="cls-14" d="M78.58,113.21c.07-.12.14-.24.21-.36"/>
    <path class="cls-14" d="M79.27,110.46c-.08-1.09-.45-1.9-1.2-2.7"/>
    <path class="cls-14" d="M73.75,112.32c-.15,0-.31-.05-.46-.13-.33-.16-.67-.47-1.01-.78-.35-.32-.7-.64-.91-1.1-.2-.46-.25-1.07-.21-1.62.04-.55.16-1.06.22-1.46.06-.4.06-.7.21-1.06.15-.37.45-.81,1.1,0,.62.77,1.55,2.67,1.92,3.93"/>
    <path class="cls-14" d="M74.83,109.51c-.31.87-.68,1.56-.89,2.14-.21.58-.27,1.05-.25,1.29.02.24.12.26.46.18s.94-.25,1.5-.68,1.1-1.12,1.54-2,.81-1.94.89-2.85c.08-.91-.11-1.65-.48-2.01s-.89-.31-1.24-.08-.53.62-.74,1.35c-.22.73-.48,1.79-.8,2.66Z"/>
    <path class="cls-14" d="M74.09,111.29s-.02-.01-.04-.02c-.6-.3-1.39-.3-1.79.17-.4.47-.4,1.42-.51,2.22-.12.79-.35,1.43-.42,1.96-.07.53.03.94.29,1s.7-.26,1.28-.42c.59-.16,1.34-.18,1.73-.38.4-.2.44-.59.57-1.02.13-.43.34-.91.4-1.25.06-.33-.02-.53-.25-.91"/>
    <path class="cls-14" d="M77.18,110.48c.39.04.91.13,1.42.1.89-.06,1.76-.49,2.47-.83.71-.34,1.27-.6,1.76-.67.49-.06.9.06,1.08.43.18.37.13.98-.06,1.49-.19.5-.51.9-.97,1.22s-1.06.58-1.48.7c-.42.12-.66.09-1.05.07-.39-.03-.94-.06-1.39-.11s-.82-.12-1.1-.2c-.28-.09-.48-.19-.79-.64-.13-.19-.29-.45-.4-.7"/>
    <path class="cls-14" d="M75.84,112.2c-.4.06-.08.73.11,1.16.19.43.24.63.28,1.38.04.74.06,2.04.21,2.99.15.95.43,1.56.84,1.85s.95.24,1.41.22.87-.01,1.28-.1c.41-.09.82-.28,1.04-.52.21-.24.22-.52.22-.84,0-.32-.02-.66-.22-1.16-.2-.5-.59-1.14-.83-1.76-.25-.62-.35-1.23-.6-1.58s-.65-.46-1.42-.79c-.77-.33-1.9-.89-2.3-.84Z"/>
    <rect class="cls-14" x="72.76" y="250.63" width="1.93" height="1.27" transform="translate(-178.27 322.42) rotate(-89.42)"/>
    <polygon class="cls-14" points="67.54 244.35 67.54 252.86 76.05 252.86 76.05 247.19 76.05 244.35 67.54 244.35"/>
    <rect class="cls-14" x="72.76" y="312.54" width="1.93" height="1.27" transform="translate(-240.15 383.85) rotate(-89.44)"/>
    <path class="cls-14" d="M71.8,311.36c1-.27,1.6-1.3,1.34-2.3-.27-1.01-1.3-1.6-2.3-1.34-1,.27-1.6,1.3-1.34,2.3.27,1,1.3,1.6,2.3,1.33Z"/>
    <polygon class="cls-14" points="67.54 306.27 67.54 314.77 76.05 314.77 76.05 309.1 76.05 306.27 67.54 306.27"/>
    <rect class="cls-14" x="67.54" y="255.42" width="53.75" height="45.35"/>
    <line class="cls-14" x1="87.75" y1="255.42" x2="87.75" y2="300.77"/>
    <path class="cls-14" d="M69.44,275.78c-.04-.94.14-2.79.21-4.31.07-1.52.03-2.71.04-3.66s.05-1.67.12-2.23.14-.96.13-1.37c0-.41-.1-.84-.23-1.21s-.28-.69-.39-.97c-.11-.28-.17-.52-.22-.8-.04-.27-.06-.58-.07-.8,0-.23.01-.37.09-.47.08-.09.22-.13.35-.13.14,0,.27.01.5.06.23.05.56.13.82.21.26.08.45.15.7.24.25.09.56.19.84.27.28.08.53.14.9.13s.83-.07,1.65-.05c.82.03,1.98.15,2.71.24.73.08,1.02.13,1.27.16.25.03.47.04.67-.01s.38-.17.78-.24c.4-.08,1.01-.12,1.36-.2.35-.09.45-.22.63-.36.17-.14.42-.29.59-.47s.25-.38.42-.5.43-.17.56-.1c.13.07.14.24.15.41.02.17.04.35.01.75-.03.4-.11,1.04-.18,1.56-.08.52-.15.92-.22,1.28s-.12.69-.19,1.22-.16,1.28-.21,1.83c-.04.55-.04.91-.01,1.44.03.54.09,1.25.22,1.84.13.58.33,1.03.37,1.48.04.44-.09.88-.16,1.41-.07.53-.1,1.15-.11,1.6-.01.45-.01.73-.02,1.22s-.01,1.17-.17,1.46c-.16.3-.47.2-.68.09-.21-.11-.32-.25-.48-.44-.16-.2-.38-.45-.63-.61-.25-.15-.52-.2-.81-.22-.29-.03-.6-.04-.92-.05-.33-.02-.67-.04-.97-.06-.3-.01-.57-.02-.81-.05-.24-.04-.47-.1-.73-.1s-.57.05-.82,0-.44-.19-.77-.16c-.33.03-.8.23-1.18.42s-.67.35-.99.38c-.32.03-.65-.07-.96-.14s-.58-.11-.82-.05c-.24.06-.46.23-.67.39-.21.17-.42.33-.6.45-.18.12-.33.18-.53.19-.21.02-.48,0-.52-.95Z"/>
    <path class="cls-14" d="M71.24,266.93c.89-1.02,1.62-.81,2.1-.59"/>
    <path class="cls-14" d="M82.55,271.35c-.51.83-1.02.43-1.83.54"/>
    <path class="cls-14" d="M79.98,262.43c.41.21.65.42.88.54.23.11.46.13.89-.04"/>
    <path class="cls-14" d="M71.24,287.97c.89-1.02,1.62-.81,2.1-.59"/>
    <path class="cls-14" d="M82.55,292.38c-.51.84-1.02.43-1.83.54"/>
    <path class="cls-14" d="M79.97,283.46c.41.21.65.42.88.54.23.11.46.13.89-.04"/>
    <path class="cls-14" d="M69.81,296.73c.15-.94.71-2.79.97-4.31s.22-2.71.04-3.66c-.18-.95-.51-1.67-.64-2.23s-.05-.96-.06-1.37c0-.41-.1-.84-.23-1.21s-.28-.69-.39-.97c-.11-.28-.17-.52-.22-.8-.04-.27-.06-.58-.06-.8,0-.23.01-.37.09-.47.08-.09.22-.13.35-.13s.27.01.5.06.56.13.82.21.45.15.7.24.56.19.84.27c.28.08.53.14.9.38.36.24.83.66,1.65.68.82.03,1.98-.34,2.71-.5.73-.16,1.02-.11,1.27-.09.25.03.47.04.67-.01s.38-.17.78-.24c.4-.08,1.01-.12,1.36-.2.36-.09.45-.22.63-.36.17-.14.42-.29.59-.47.17-.18.25-.38.42-.5.17-.12.43-.17.56-.1.13.06.14.24.15.41s.04.35.01.75c-.03.4-.11,1.04-.18,1.56-.08.52-.15.92-.36,1.28-.21.36-.55.69-.71,1.22-.15.53-.12,1.28-.02,1.83.1.55.26.91.38,1.45.11.54.17,1.25.3,1.83.13.58.33,1.04.37,1.48.04.44-.09.88-.16,1.41-.07.53-.1,1.15-.11,1.6s-.01.73-.02,1.22-.02,1.17-.17,1.46c-.16.3-.47.2-.68.09s-.32-.25-.48-.44c-.16-.2-.38-.45-.63-.71-.25-.25-.52-.5-.81-.61-.29-.11-.6-.1-.92-.11-.33,0-.67-.03-.97-.04-.3-.01-.57-.02-.81.03s-.47.16-.73.25c-.27.08-.57.14-.82.09s-.44-.19-.77-.16c-.33.03-.8.23-1.18.32-.38.09-.67.06-.99,0-.32-.06-.65-.16-.96-.23s-.58-.11-.82.05c-.24.16-.46.51-.67.77s-.42.43-.6.55c-.18.12-.33.18-.53.19-.21.02-.48,0-.33-.95Z"/>
    <line class="cls-14" x1="81.21" y1="255.42" x2="81.21" y2="260.69"/>
    <line class="cls-14" x1="81.21" y1="275.58" x2="81.21" y2="281.67"/>
    <line class="cls-14" x1="81.21" y1="296.12" x2="81.21" y2="300.77"/>
    <line class="cls-14" x1="70.66" y1="220.05" x2="128.16" y2="220.05"/>
    <line class="cls-14" x1="72.09" y1="224.6" x2="71.9" y2="215.5"/>
    <path class="cls-14" d="M71.87,214.08c-.1,0-.13.28-.14.33-.02.13-.02.25-.02.38s.01.25.03.38c0,.06.05.33.15.33.1,0,.13-.28.14-.33.02-.13.02-.25.02-.38,0-.13-.01-.25-.03-.38,0-.06-.05-.33-.15-.33Z"/>
    <line class="cls-14" x1="72.12" y1="226.02" x2="72.12" y2="226.02"/>
    <path class="cls-14" d="M72.09,224.6c-.1,0-.13.28-.14.33-.02.13-.02.25-.02.38,0,.13.01.25.03.38,0,.06.05.33.15.33.1,0,.13-.28.14-.33.02-.13.02-.25.02-.38,0-.13-.01-.25-.03-.38,0-.06-.05-.33-.15-.33Z"/>
    <path class="cls-14" d="M98.41,224.6c-.13-.02-.23.2-.26.28-.05.12-.09.25-.11.39-.02.13-.04.27-.03.4,0,.08.01.33.14.35.13.02.23-.2.26-.28.05-.13.09-.25.11-.39.02-.13.04-.27.03-.4,0-.08-.01-.33-.14-.35Z"/>
    <line class="cls-14" x1="106.53" y1="224.6" x2="104.97" y2="215.5"/>
    <line class="cls-14" x1="111.04" y1="224.6" x2="112.05" y2="215.5"/>
    <line class="cls-14" x1="100.11" y1="215.5" x2="98.41" y2="224.6"/>
    <line class="cls-14" x1="101.41" y1="215.5" x2="100.15" y2="224.6"/>
    <path class="cls-14" d="M112.2,214.08c-.11-.01-.18.24-.2.31-.04.12-.06.25-.07.38s-.02.26-.01.39c0,.07.02.33.13.34s.18-.24.2-.31c.04-.12.06-.25.07-.38s.02-.26.01-.39c0-.07-.02-.33-.13-.34Z"/>
    <path class="cls-14" d="M100.37,214.08c-.12-.02-.22.21-.25.28-.05.12-.09.25-.11.38-.02.13-.04.26-.04.4,0,.08,0,.33.13.35.12.02.22-.21.25-.28.05-.12.09-.25.11-.38.02-.13.04-.26.04-.4,0-.08,0-.33-.13-.35Z"/>
    <path class="cls-14" d="M101.6,214.08c-.11-.02-.19.24-.21.3-.04.12-.07.25-.08.38-.02.13-.03.26-.02.39,0,.07,0,.33.12.35.11.02.19-.24.21-.3.04-.12.07-.25.08-.38.02-.13.03-.26.02-.39,0-.07,0-.33-.12-.35Z"/>
    <path class="cls-14" d="M104.72,214.08c-.11.02-.12.28-.12.35,0,.13.01.26.03.39.02.13.05.26.1.38.02.07.11.31.23.29.11-.02.12-.28.12-.35,0-.13-.01-.26-.03-.39-.02-.13-.05-.26-.1-.38-.03-.07-.11-.31-.23-.29Z"/>
    <path class="cls-14" d="M106.53,224.6c-.11.02-.12.28-.12.35,0,.13.01.26.03.39s.05.26.1.38c.03.07.11.31.23.29.11-.02.12-.28.12-.35,0-.13-.01-.26-.03-.39-.02-.13-.05-.26-.1-.38-.03-.07-.11-.31-.23-.29Z"/>
    <line class="cls-14" x1="110.89" y1="226.02" x2="110.89" y2="226.01"/>
    <path class="cls-14" d="M112.38,224.6c-.12-.04-.24.2-.28.27-.07.12-.11.25-.15.38-.04.13-.07.26-.08.4,0,.08-.03.34.09.37.12.04.24-.19.28-.26.06-.12.11-.25.15-.38.04-.13.07-.26.08-.4,0-.08.03-.34-.09-.37Z"/>
    <path class="cls-14" d="M111.06,224.6c-.11-.01-.18.24-.2.31-.04.12-.06.25-.07.38-.01.13-.02.26-.01.39,0,.07.02.33.13.34.11.01.18-.24.2-.31.04-.12.06-.25.07-.38.01-.13.02-.26.01-.39,0-.07-.02-.33-.13-.34Z"/>
    <path class="cls-14" d="M100.15,224.6c-.13-.02-.22.21-.25.29-.05.13-.08.25-.1.39-.02.13-.03.26-.01.4,0,.08.03.33.16.34.13.02.22-.21.25-.29.05-.13.08-.26.1-.39s.03-.26.01-.4c0-.08-.03-.33-.16-.34Z"/>
    <line class="cls-14" x1="93.64" y1="215.5" x2="94.2" y2="224.6"/>
    <line class="cls-14" x1="88.61" y1="215.5" x2="89.61" y2="224.6"/>
    <line class="cls-14" x1="91.66" y1="215.5" x2="91.66" y2="224.6"/>
    <line class="cls-14" x1="84.07" y1="215.5" x2="80.75" y2="224.6"/>
    <line class="cls-14" x1="80.28" y1="215.5" x2="77.97" y2="224.6"/>
    <line class="cls-14" x1="76.32" y1="224.6" x2="77.36" y2="215.5"/>
    <line class="cls-14" x1="81.79" y1="215.5" x2="79.09" y2="224.6"/>
    <line class="cls-14" x1="75.23" y1="224.6" x2="74.6" y2="215.5"/>
    <line class="cls-14" x1="85.74" y1="215.5" x2="82.54" y2="224.6"/>
    <path class="cls-14" d="M93.55,214.08c-.12,0-.15.26-.16.33-.02.13-.02.26-.01.39,0,.13.03.26.06.38.02.07.08.32.2.31s.15-.26.16-.33c.02-.13.02-.26.01-.39,0-.13-.03-.26-.06-.38-.02-.07-.08-.32-.2-.31Z"/>
    <path class="cls-14" d="M91.66,214.08c-.12,0-.17.25-.18.32-.03.13-.03.26-.03.39s0,.26.04.39c.01.07.06.32.18.32s.17-.25.18-.32c.03-.13.04-.26.04-.39s0-.26-.04-.39c-.01-.07-.06-.32-.18-.32Z"/>
    <path class="cls-14" d="M82.21,214.08c-.08-.03-.2.26-.22.3-.05.12-.09.24-.13.37-.04.12-.07.25-.09.38,0,.05-.06.35.02.37.08.03.2-.26.22-.3.05-.12.09-.24.13-.37.04-.12.07-.25.09-.38,0-.05.06-.35-.02-.37Z"/>
    <path class="cls-14" d="M88.45,214.08c-.12.01-.14.27-.14.34-.01.13,0,.26,0,.39.01.13.04.26.08.38.02.07.1.31.21.3s.14-.27.14-.34c.01-.13,0-.26,0-.39-.01-.13-.04-.26-.08-.38-.02-.07-.1-.31-.21-.3Z"/>
    <path class="cls-14" d="M84.59,214.08c-.09-.03-.23.24-.25.29-.06.12-.11.24-.16.37-.05.13-.08.25-.11.38-.01.05-.08.35,0,.38s.23-.24.25-.29c.06-.12.11-.24.16-.37.05-.13.08-.25.11-.38.01-.05.08-.35,0-.38Z"/>
    <path class="cls-14" d="M86.23,214.08c-.08-.03-.21.26-.23.3-.06.12-.11.24-.15.36-.04.12-.08.25-.11.38,0,.04-.08.35,0,.38.08.03.21-.26.23-.3.06-.12.11-.24.15-.36.04-.12.08-.25.11-.38.01-.04.08-.35,0-.38Z"/>
    <path class="cls-14" d="M74.5,214.08c-.08,0-.09.3-.09.35,0,.12,0,.25,0,.37s.02.25.05.37c0,.04.06.34.14.33s.09-.3.09-.35c0-.12,0-.25,0-.37s-.02-.25-.05-.37c0-.04-.06-.34-.14-.33Z"/>
    <path class="cls-14" d="M77.52,214.08c-.1-.01-.16.26-.18.32-.03.12-.05.25-.07.37-.01.13-.02.25-.02.38,0,.05,0,.34.1.35.1.01.16-.26.18-.32.03-.12.05-.25.07-.37.01-.13.02-.25.02-.38,0-.05,0-.34-.1-.35Z"/>
    <path class="cls-14" d="M80.65,214.08c-.09-.02-.2.25-.22.3-.05.12-.09.24-.12.37s-.06.25-.07.38c0,.05-.04.34.05.37.09.02.2-.25.22-.3.05-.12.09-.24.12-.37.03-.13.06-.25.07-.38,0-.05.04-.34-.05-.37Z"/>
    <path class="cls-14" d="M89.61,224.6c-.13.01-.16.26-.16.34-.01.13-.01.26,0,.4.01.13.04.26.08.39.03.08.11.31.23.29.13-.01.16-.26.17-.34.01-.13.01-.26,0-.4-.01-.13-.04-.26-.08-.39-.03-.08-.11-.31-.23-.29Z"/>
    <path class="cls-14" d="M91.66,224.6c-.13,0-.18.23-.2.32-.03.13-.04.26-.04.39s.01.26.04.39c.02.08.07.31.2.31s.18-.23.2-.31c.03-.13.04-.26.04-.39s-.01-.26-.04-.39c-.02-.08-.07-.31-.2-.31Z"/>
    <path class="cls-14" d="M94.2,224.6c-.13,0-.17.25-.18.33-.02.13-.02.26-.02.4,0,.13.03.26.07.39.02.08.09.31.22.3.13,0,.17-.24.18-.33.02-.13.02-.26.02-.4,0-.13-.03-.26-.07-.39-.02-.08-.09-.31-.22-.3Z"/>
    <path class="cls-14" d="M82.54,224.6c-.08-.03-.21.26-.23.3-.06.12-.11.24-.15.36s-.08.25-.11.38c0,.04-.08.35,0,.38.08.03.21-.26.23-.3.06-.12.11-.24.15-.36.04-.12.08-.25.11-.38,0-.04.08-.35,0-.38Z"/>
    <line class="cls-14" x1="75.33" y1="226.02" x2="75.33" y2="226.02"/>
    <path class="cls-14" d="M75.22,224.6c-.08,0-.09.3-.09.35,0,.12,0,.25,0,.37,0,.12.02.25.05.37,0,.04.06.34.14.33.08,0,.09-.3.09-.35,0-.12,0-.25,0-.37s-.02-.25-.05-.37c0-.04-.06-.34-.14-.33Z"/>
    <line class="cls-14" x1="76.16" y1="226.02" x2="76.16" y2="226.02"/>
    <path class="cls-14" d="M80.75,224.6c-.09-.03-.23.24-.25.29-.06.12-.11.24-.16.37-.05.13-.08.25-.11.38-.01.05-.08.35,0,.38.09.03.23-.24.25-.29.06-.12.11-.24.16-.37.05-.13.08-.25.11-.38.01-.05.08-.35,0-.38Z"/>
    <path class="cls-14" d="M79.09,224.6c-.08-.02-.2.26-.22.3-.05.12-.09.24-.13.37-.04.12-.07.25-.09.38,0,.05-.06.35.02.37.08.03.2-.26.22-.3.05-.12.09-.24.13-.37s.07-.25.09-.38c0-.05.06-.35-.02-.37Z"/>
    <path class="cls-14" d="M77.97,224.6c-.09-.02-.2.25-.22.3-.05.12-.09.24-.12.37-.03.13-.06.25-.07.38,0,.05-.04.34.05.37.09.02.2-.25.22-.3.05-.12.09-.24.12-.37.03-.13.06-.25.07-.38,0-.05.04-.34-.05-.37Z"/>
    <path class="cls-14" d="M76.33,224.6c-.1-.01-.16.26-.18.32-.03.12-.05.25-.07.37-.01.13-.02.25-.02.38,0,.06,0,.34.1.35.1.01.16-.26.18-.32.03-.12.05-.25.07-.37.01-.13.02-.25.02-.38,0-.05,0-.34-.1-.35Z"/>
    <line class="cls-14" x1="123.92" y1="224.6" x2="125.8" y2="215.5"/>
    <line class="cls-14" x1="126.15" y1="224.6" x2="127.02" y2="215.5"/>
    <line class="cls-14" x1="122.31" y1="224.6" x2="123.38" y2="215.5"/>
    <path class="cls-14" d="M115.49,214.08c-.12-.04-.24.19-.28.26-.06.12-.11.25-.15.38-.04.13-.07.26-.08.4,0,.08-.03.34.09.37.12.04.24-.19.28-.26.07-.12.11-.25.15-.38.04-.13.07-.26.08-.4,0-.08.03-.34-.09-.37Z"/>
    <path class="cls-14" d="M126.09,214.08c-.11-.02-.21.23-.23.29-.05.12-.08.25-.11.38-.03.13-.04.26-.05.39,0,.07-.01.34.1.36.11.02.21-.23.23-.29.05-.12.08-.25.11-.38.03-.13.04-.26.05-.39,0-.07.01-.34-.1-.36Z"/>
    <path class="cls-14" d="M127.16,214.08c-.12-.01-.2.23-.22.3-.04.13-.06.25-.07.39-.01.13-.01.26,0,.39,0,.08.04.33.16.34s.2-.23.22-.3c.04-.13.06-.25.07-.39.01-.13.02-.26,0-.39,0-.08-.04-.33-.16-.34Z"/>
    <path class="cls-14" d="M123.54,214.08c-.13-.01-.21.21-.24.29-.04.13-.07.26-.09.39-.02.13-.02.26,0,.4,0,.08.04.32.16.34.13.01.21-.21.24-.29.04-.13.07-.26.09-.39.02-.13.02-.26,0-.4,0-.08-.04-.32-.16-.34Z"/>
    <path class="cls-14" d="M123.92,224.6c-.11-.02-.21.23-.23.29-.05.12-.08.25-.11.38-.03.13-.04.26-.05.39,0,.07-.01.34.1.36.11.02.21-.23.23-.29.05-.12.08-.25.11-.38.03-.13.04-.26.05-.39,0-.07.01-.34-.1-.36Z"/>
    <path class="cls-14" d="M126.15,224.6c-.12-.01-.2.23-.22.3-.04.13-.06.25-.07.39-.01.13-.01.26,0,.39,0,.08.04.33.16.34.12.01.2-.23.22-.3.04-.13.06-.25.07-.39.01-.13.02-.26,0-.39,0-.08-.04-.33-.16-.34Z"/>
    <path class="cls-14" d="M122.33,224.6c-.13-.01-.21.21-.24.29-.04.13-.07.26-.09.39-.02.13-.02.26,0,.4,0,.08.04.32.16.34.13.02.21-.21.24-.29.04-.13.07-.26.09-.39.02-.13.02-.26,0-.4,0-.08-.04-.32-.16-.34Z"/>
    <line class="cls-14" x1="122.15" y1="226.02" x2="122.15" y2="226.01"/>
    <line class="cls-14" x1="112.38" y1="224.6" x2="115.07" y2="215.5"/>
    <line class="cls-14" x1="70.66" y1="211.77" x2="128.16" y2="211.77"/>
    <line class="cls-14" x1="70.66" y1="228.77" x2="70.66" y2="211.77"/>
    <line class="cls-14" x1="128.16" y1="228.77" x2="70.66" y2="228.77"/>
    <line class="cls-14" x1="128.16" y1="211.77" x2="128.16" y2="228.77"/>
    <rect class="cls-14" x="255.66" y="141.44" width="4.76" height="6.6" transform="translate(21.41 322.33) rotate(-66.18)"/>
    <path class="cls-14" d="M250.55,324.24c.06-.21.11-.42.15-.64"/>
    <path class="cls-14" d="M250.7,323.6c.48-1.88.39-3.52-.28-5.33"/>
    <path class="cls-14" d="M250.42,318.27c-.43-1.31-1.09-2.29-2.15-3.17"/>
    <path class="cls-14" d="M248.27,315.1c-1.07-.96-2.45-1.49-3.88-1.49"/>
    <path class="cls-14" d="M244.39,327.19c2.31,0,4.29-1.66,4.69-3.94"/>
    <path class="cls-14" d="M249.08,323.25c.41-1.56.34-2.92-.23-4.43"/>
    <path class="cls-14" d="M248.85,318.81c-.32-1.02-.84-1.78-1.67-2.46"/>
    <path class="cls-14" d="M247.18,316.35c-.15-.13-.3-.26-.47-.37"/>
    <path class="cls-14" d="M239.7,323.25c.4,2.28,2.38,3.94,4.69,3.94"/>
    <path class="cls-14" d="M239.93,318.81c-.57,1.51-.64,2.87-.23,4.43"/>
    <path class="cls-14" d="M241.6,316.35c-.83.68-1.34,1.44-1.67,2.46"/>
    <path class="cls-14" d="M242.06,315.99c-.16.11-.32.23-.47.37"/>
    <path class="cls-14" d="M238.08,323.6c.04.22.09.43.15.64"/>
    <path class="cls-14" d="M238.36,318.27c-.67,1.82-.76,3.46-.28,5.33"/>
    <path class="cls-14" d="M240.51,315.1c-1.06.88-1.73,1.86-2.15,3.17"/>
    <path class="cls-14" d="M244.39,313.61c-1.43,0-2.82.53-3.88,1.49"/>
    <line class="cls-14" x1="243.74" y1="315.53" x2="244.39" y2="315.53"/>
    <path class="cls-14" d="M243.74,315.53c-.62,0-1.15.14-1.68.46"/>
    <path class="cls-14" d="M244.39,322.93c-.74,0-1.34.6-1.34,1.34s.6,1.34,1.34,1.34"/>
    <path class="cls-14" d="M244.24,324.48s.09.03.14.03"/>
    <path class="cls-14" d="M244.39,324.52c.05,0,.1-.01.14-.03"/>
    <path class="cls-14" d="M243.56,323.22c-.17.13-.19.25-.08.44"/>
    <path class="cls-14" d="M243.48,323.66c.17.37.41.63.77.83"/>
    <line class="cls-14" x1="241.17" y1="329.3" x2="244.39" y2="329.3"/>
    <line class="cls-14" x1="239.63" y1="329.36" x2="241.17" y2="329.3"/>
    <line class="cls-14" x1="239.73" y1="329.35" x2="238.23" y2="324.24"/>
    <path class="cls-14" d="M246.72,315.99c-.54-.31-1.06-.46-1.68-.46"/>
    <path class="cls-14" d="M245.3,323.66c.11-.18.09-.3-.08-.44"/>
    <line class="cls-14" x1="249.14" y1="329.36" x2="247.61" y2="329.3"/>
    <line class="cls-14" x1="249.04" y1="329.35" x2="250.55" y2="324.24"/>
    <line class="cls-14" x1="247.61" y1="329.3" x2="244.39" y2="329.3"/>
    <path class="cls-14" d="M244.39,325.62c.74,0,1.34-.6,1.34-1.34s-.6-1.34-1.34-1.34"/>
    <path class="cls-14" d="M244.53,324.48c.36-.2.6-.45.77-.83"/>
    <line class="cls-14" x1="245.04" y1="315.53" x2="244.39" y2="315.53"/>
    <rect class="cls-14" x="236.19" y="329.35" width="16.52" height="2.03"/>
    <line class="cls-14" x1="156.02" y1="154.85" x2="163.38" y2="154.85"/>
    <line class="cls-14" x1="163.38" y1="154.85" x2="163.38" y2="156.46"/>
    <line class="cls-14" x1="163.38" y1="169.28" x2="163.38" y2="170.89"/>
    <line class="cls-14" x1="156.02" y1="170.89" x2="163.38" y2="170.89"/>
    <line class="cls-14" x1="157.62" y1="156.46" x2="157.62" y2="169.28"/>
    <line class="cls-14" x1="156.02" y1="154.85" x2="156.02" y2="170.89"/>
    <line class="cls-14" x1="157.62" y1="156.46" x2="164.49" y2="156.46"/>
    <line class="cls-14" x1="157.62" y1="169.28" x2="164.49" y2="169.28"/>
    <line class="cls-14" x1="106.56" y1="86.4" x2="67.54" y2="99.45"/>
    <line class="cls-14" x1="136.22" y1="76.84" x2="164.49" y2="67.45"/>
    <rect class="cls-14" x="67.45" y="124.15" width="14.27" height="37.79"/>
    <line class="cls-14" x1="333.23" y1="200.35" x2="333.23" y2="181.37"/>
    <line class="cls-14" x1="289.43" y1="181.37" x2="289.43" y2="200.35"/>
    <line class="cls-14" x1="333.23" y1="200.35" x2="289.43" y2="200.35"/>
    <line class="cls-14" x1="333.23" y1="181.37" x2="333.23" y2="180.64"/>
    <line class="cls-14" x1="333.23" y1="181.37" x2="335.42" y2="181.37"/>
    <line class="cls-14" x1="335.42" y1="181.37" x2="335.42" y2="203.27"/>
    <line class="cls-14" x1="289.43" y1="180.64" x2="289.43" y2="181.37"/>
    <line class="cls-14" x1="287.24" y1="181.37" x2="289.43" y2="181.37"/>
    <line class="cls-14" x1="287.24" y1="203.27" x2="287.24" y2="181.37"/>
    <line class="cls-14" x1="333.23" y1="180.64" x2="289.43" y2="180.64"/>
    <line class="cls-14" x1="335.42" y1="203.27" x2="287.24" y2="203.27"/>
    <rect class="cls-14" x="151.85" y="251.25" width="12.54" height="50.05"/>
    <rect class="cls-14" x="250.95" y="89.88" width="24.82" height="10.4"/>
    <rect class="cls-14" x="172.91" y="248.62" width="26.46" height="34.02"/>
    <rect class="cls-14" x="181.45" y="248.57" width="9.38" height="1.32"/>
    <line class="cls-14" x1="177.63" y1="256.34" x2="176.76" y2="265.47"/>
    <line class="cls-14" x1="180.5" y1="253.86" x2="189.66" y2="254.34"/>
    <line class="cls-14" x1="178.85" y1="254.86" x2="187.77" y2="265.19"/>
    <path class="cls-14" d="M177.48,253.72c.34-.44.25-1.08-.19-1.42-.44-.34-1.08-.25-1.42.19-.34.44-.25,1.08.19,1.42.44.34,1.08.25,1.42-.19Z"/>
    <line class="cls-14" x1="100.08" y1="182.07" x2="80.14" y2="182.07"/>
    <line class="cls-14" x1="80.14" y1="203.26" x2="100.08" y2="203.26"/>
    <line class="cls-14" x1="79.25" y1="199.29" x2="100.08" y2="199.29"/>
    <line class="cls-14" x1="120.91" y1="203.26" x2="120.91" y2="182.07"/>
    <line class="cls-14" x1="120.91" y1="203.26" x2="120.91" y2="182.07"/>
    <line class="cls-14" x1="100.08" y1="203.26" x2="100.08" y2="182.07"/>
    <line class="cls-14" x1="100.08" y1="203.26" x2="100.08" y2="182.07"/>
    <line class="cls-14" x1="138.76" y1="184.19" x2="138.76" y2="197.17"/>
    <line class="cls-14" x1="144.71" y1="184.19" x2="144.71" y2="197.17"/>
    <line class="cls-14" x1="120.91" y1="182.07" x2="140.84" y2="182.07"/>
    <line class="cls-14" x1="120.91" y1="182.07" x2="100.08" y2="182.07"/>
    <path class="cls-14" d="M141.74,182.87c0-.48-.45-.79-.89-.79"/>
    <path class="cls-14" d="M139.65,183.4c-.45,0-.89.31-.89.8"/>
    <line class="cls-14" x1="141.74" y1="182.87" x2="141.74" y2="183.4"/>
    <path class="cls-14" d="M144.71,184.19c0-.48-.45-.8-.89-.8"/>
    <line class="cls-14" x1="139.65" y1="183.4" x2="143.82" y2="183.4"/>
    <line class="cls-14" x1="140.84" y1="203.26" x2="120.91" y2="203.26"/>
    <line class="cls-14" x1="141.74" y1="199.29" x2="120.91" y2="199.29"/>
    <line class="cls-14" x1="100.08" y1="203.26" x2="120.91" y2="203.26"/>
    <line class="cls-14" x1="99.18" y1="199.29" x2="120.91" y2="199.29"/>
    <path class="cls-14" d="M140.84,203.26c.45,0,.89-.31.89-.79"/>
    <path class="cls-14" d="M138.76,197.17c0,.48.45.79.89.79"/>
    <path class="cls-14" d="M143.82,197.97c.45,0,.89-.31.89-.79"/>
    <line class="cls-14" x1="143.82" y1="197.97" x2="139.65" y2="197.97"/>
    <line class="cls-14" x1="141.74" y1="197.97" x2="141.74" y2="202.47"/>
    <line class="cls-14" x1="76.27" y1="184.19" x2="76.27" y2="197.17"/>
    <line class="cls-14" x1="82.22" y1="184.19" x2="82.22" y2="197.17"/>
    <path class="cls-14" d="M80.14,182.07c-.45,0-.89.31-.89.79"/>
    <path class="cls-14" d="M82.22,184.19c0-.48-.45-.8-.89-.8"/>
    <line class="cls-14" x1="79.25" y1="182.87" x2="79.25" y2="183.4"/>
    <path class="cls-14" d="M77.16,183.4c-.45,0-.89.31-.89.8"/>
    <path class="cls-14" d="M79.25,202.47c0,.48.45.79.89.79"/>
    <line class="cls-14" x1="77.16" y1="197.97" x2="81.33" y2="197.97"/>
    <path class="cls-14" d="M76.27,197.17c0,.48.45.79.89.79"/>
    <path class="cls-14" d="M81.33,197.97c.45,0,.89-.31.89-.79"/>
    <line class="cls-14" x1="79.25" y1="197.97" x2="79.25" y2="202.47"/>
    <path class="cls-14" d="M115.36,175.75c5.99-2.83,8.56-9.98,5.73-15.98-2.83-5.99-9.99-8.56-15.98-5.73-5.99,2.83-8.56,9.98-5.73,15.98,2.83,5.99,9.99,8.56,15.98,5.73Z"/>
    <rect class="cls-14" x="172.99" y="239.69" width="29.66" height="6.1"/>
    <rect class="cls-14" x="328.45" y="109.66" width="6.94" height="48.18"/>
    <path class="cls-14" d="M270.7,135.65c-1.68-.73-3.37-1.2-5.18-1.44"/>
    <path class="cls-14" d="M265.52,146.93c1.02.12,2.02.16,3.05.12"/>
    <path class="cls-14" d="M269.83,145.16c1.23-2.22,1.71-4.78,1.36-7.29"/>
    <path class="cls-14" d="M272.1,146.43c1.51-2.71,2.09-5.84,1.67-8.91"/>
    <path class="cls-14" d="M273.77,137.51c-.1-.71-.75-1.21-1.47-1.11-.71.1-1.21.76-1.11,1.47"/>
    <path class="cls-14" d="M271.7,136.66c-.22-.5-.52-.8-1.02-1.02"/>
    <path class="cls-14" d="M269.83,145.16c-.35.63-.12,1.42.5,1.77s1.42.12,1.77-.5"/>
    <path class="cls-14" d="M268.54,147.05c.55-.02.94-.19,1.32-.58"/>
    <line class="cls-14" x1="127.78" y1="148.99" x2="130.83" y2="150.89"/>
    <line class="cls-14" x1="129.03" y1="150.38" x2="129.3" y2="149.94"/>
    <path class="cls-14" d="M130.83,150.89c.36.23.84.12,1.06-.24"/>
    <path class="cls-14" d="M139.11,134.28c.23-.36.12-.84-.24-1.06"/>
    <line class="cls-14" x1="138.32" y1="138.93" x2="135.27" y2="137.03"/>
    <path class="cls-14" d="M138.56,139.99c.23-.36.12-.84-.24-1.06"/>
    <path class="cls-14" d="M135.27,137.03c-.36-.23-.84-.12-1.06.24"/>
    <line class="cls-14" x1="136.79" y1="137.98" x2="139.11" y2="134.28"/>
    <line class="cls-14" x1="116.01" y1="140.71" x2="122.68" y2="130.05"/>
    <line class="cls-14" x1="111.66" y1="137.99" x2="118.33" y2="127.33"/>
    <path class="cls-14" d="M113.16,140.43c-.23.36-.12.84.24,1.06"/>
    <path class="cls-14" d="M114.95,140.95c.36.23.84.12,1.06-.24"/>
    <line class="cls-14" x1="113.16" y1="140.43" x2="113.43" y2="140"/>
    <path class="cls-14" d="M111.66,137.99c-.23.36-.12.84.24,1.06"/>
    <line class="cls-14" x1="114.95" y1="140.95" x2="111.91" y2="139.05"/>
    <path class="cls-14" d="M124.29,124.1c-.36-.23-.84-.12-1.06.24"/>
    <path class="cls-14" d="M122.68,130.05c.23-.36.12-.84-.24-1.06"/>
    <path class="cls-14" d="M119.4,127.09c-.36-.23-.84-.12-1.06.24"/>
    <line class="cls-14" x1="119.4" y1="127.09" x2="122.44" y2="128.99"/>
    <line class="cls-14" x1="120.92" y1="128.04" x2="123.23" y2="124.34"/>
    <line class="cls-14" x1="127.97" y1="150.62" x2="113.4" y2="141.5"/>
    <line class="cls-14" x1="124.29" y1="124.1" x2="138.86" y2="133.22"/>
    <line class="cls-14" x1="121.6" y1="126.95" x2="137.47" y2="136.89"/>
    <line class="cls-14" x1="131.89" y1="150.65" x2="138.56" y2="139.99"/>
    <line class="cls-14" x1="127.54" y1="147.93" x2="134.21" y2="137.27"/>
    <path class="cls-14" d="M127.97,150.62c.36.23.84.12,1.06-.24"/>
    <path class="cls-14" d="M127.54,147.93c-.23.36-.12.84.24,1.06"/>
    <polyline class="cls-14" points="67.54 99.45 67.54 91.29 104.13 79.14 106.56 86.4"/>
    <polyline class="cls-14" points="164.49 67.45 164.49 57.59 133.27 67.96 136.22 76.84"/>
    <line class="cls-9" x1="131.32" y1="331.39" x2="97.3" y2="331.39"/>
    <line class="cls-9" x1="131.32" y1="334.22" x2="97.3" y2="334.22"/>
    <rect class="cls-9" x="97.3" y="331.39" width="1.57" height="2.83"/>
    <rect class="cls-9" x="129.75" y="331.39" width="1.57" height="2.83"/>
    <line class="cls-9" x1="129.75" y1="332.81" x2="98.87" y2="332.81"/>
    <line class="cls-9" x1="184.88" y1="339.89" x2="218.9" y2="339.89"/>
    <rect class="cls-9" x="184.88" y="331.39" width="1.57" height="2.83"/>
    <line class="cls-9" x1="218.9" y1="331.39" x2="184.88" y2="331.39"/>
    <line class="cls-9" x1="218.9" y1="334.22" x2="184.88" y2="334.22"/>
    <rect class="cls-9" x="217.33" y="331.39" width="1.57" height="2.83"/>
    <line class="cls-9" x1="217.33" y1="332.81" x2="186.46" y2="332.81"/>
    <line class="cls-9" x1="165.91" y1="109.1" x2="165.91" y2="78.22"/>
    <line class="cls-9" x1="192.13" y1="110.67" x2="226.14" y2="110.67"/>
    <line class="cls-9" x1="226.14" y1="119.17" x2="192.13" y2="119.17"/>
    <rect class="cls-9" x="164.49" y="109.1" width="2.83" height="1.57"/>
    <line class="cls-9" x1="164.49" y1="110.67" x2="164.49" y2="76.65"/>
    <line class="cls-9" x1="172.99" y1="76.65" x2="172.99" y2="110.67"/>
    <rect class="cls-9" x="164.49" y="76.65" width="2.83" height="1.57"/>
    <line class="cls-9" x1="167.32" y1="110.67" x2="167.32" y2="76.65"/>
    <line class="cls-9" x1="226.14" y1="116.34" x2="192.13" y2="116.34"/>
    <rect class="cls-9" x="192.13" y="116.34" width="1.57" height="2.83"/>
    <rect class="cls-9" x="224.57" y="116.34" width="1.57" height="2.83"/>
    <line class="cls-9" x1="224.57" y1="117.75" x2="193.7" y2="117.75"/>
    <line class="cls-9" x1="310.19" y1="89.88" x2="276.17" y2="89.88"/>
    <line class="cls-9" x1="310.19" y1="87.04" x2="276.17" y2="87.04"/>
    <rect class="cls-9" x="276.17" y="87.04" width="1.57" height="2.83"/>
    <rect class="cls-9" x="308.62" y="87.04" width="1.57" height="2.83"/>
    <line class="cls-9" x1="308.62" y1="88.46" x2="277.75" y2="88.46"/>
    <line class="cls-9" x1="276.17" y1="82.79" x2="310.19" y2="82.79"/>
    <line class="cls-9" x1="97.3" y1="339.89" x2="131.32" y2="339.89"/>
    <rect class="cls-13" x="200.7" y="331.39" width="1.57" height="2.83"/>
    <rect class="cls-13" x="113.52" y="331.39" width="1.57" height="2.83"/>
    <rect class="cls-13" x="208.35" y="116.34" width="1.57" height="2.83"/>
    <rect class="cls-13" x="292.4" y="87.09" width="1.57" height="2.83"/>
    <rect class="cls-13" x="164.49" y="92.09" width="2.83" height="1.57"/>
    <line class="cls-6" x1="253.5" y1="245.78" x2="253.5" y2="268.92"/>
    <path class="cls-6" d="M253.5,268.92c-13.85,0-20.78-7.71-20.78-23.14"/>
    <path class="cls-6" d="M277.78,202.49c0-17.76-9.89-26.65-29.67-26.65"/>
    <line class="cls-6" x1="248.11" y1="202.49" x2="277.78" y2="202.49"/>
    <line class="cls-6" x1="172.99" y1="213.04" x2="143.33" y2="213.04"/>
    <path class="cls-6" d="M143.33,213.04c0,17.76,9.89,26.65,29.67,26.65"/>
    <path class="cls-6" d="M229.3,275.45c-17.76,0-26.65-9.89-26.65-29.67"/>
    <line class="cls-6" x1="229.3" y1="245.78" x2="229.3" y2="275.45"/>
    <line class="cls-6" x1="262" y1="213.04" x2="232.34" y2="213.04"/>
    <path class="cls-6" d="M232.34,213.04c0,17.76,9.89,26.65,29.67,26.65"/>
    <polygon class="cls-19" points="310.19 82.79 343.92 82.79 343.92 211.77 250.95 211.77 240.74 211.77 240.74 203.26 250.95 203.26 335.42 203.26 335.42 89.88 310.19 89.88 310.19 82.79"/>
    <polygon class="cls-19" points="148.56 331.39 131.32 331.39 131.32 339.89 170.44 339.89 184.88 339.89 184.88 331.39 172.99 331.39 172.99 239.69 164.49 239.69 164.49 321.58 148.56 331.39"/>
    <polyline class="cls-19" points="253.36 248.62 253.5 248.62 253.5 331.39 218.9 331.39 218.9 339.89 262 339.89 262 239.69 253.5 239.69 253.5 321.47"/>
    <line class="cls-19" x1="232.71" y1="245.78" x2="229.3" y2="245.78"/>
    <line class="cls-19" x1="229.69" y1="248.62" x2="229.3" y2="248.62"/>
    <line class="cls-19" x1="232.91" y1="248.62" x2="232.52" y2="248.62"/>
    <line class="cls-19" x1="232.91" y1="248.62" x2="232.52" y2="248.62"/>
    <polygon class="cls-19" points="276.17 89.88 250.95 89.88 250.95 119.17 226.14 119.17 226.14 110.67 242.44 110.67 242.44 82.79 250.95 82.79 276.17 82.79 276.17 89.88"/>
    <rect class="cls-19" x="164.49" y="110.67" width="27.64" height="8.5"/>
    <rect class="cls-19" x="248.11" y="202.49" width="2.83" height=".77"/>
    <rect class="cls-19" x="253.5" y="211.77" width="8.5" height="1.27"/>
    <line class="cls-19" x1="253.5" y1="248.62" x2="253.5" y2="245.78"/>
    <line class="cls-19" x1="253.36" y1="245.78" x2="253.5" y2="245.78"/>
    <line class="cls-19" x1="171.01" y1="86.19" x2="171.01" y2="85.96"/>
    <rect class="cls-19" x="172.99" y="245.78" width="29.72" height="2.83"/>
    <polygon class="cls-19" points="229.3 248.62 229.3 245.78 232.91 245.78 232.91 248.62 232.52 248.62 232.52 294.84 253.5 294.84 253.5 297.67 229.69 297.67 229.69 248.62 229.3 248.62"/>
    <rect class="cls-19" x="229.69" y="316.88" width="2.83" height="14.51"/>
    <polygon class="cls-19" points="250.95 119.17 250.95 175.84 248.11 175.84 248.11 174.35 226.14 174.35 226.14 171.51 248.11 171.51 248.11 119.17 250.95 119.17"/>
    <g>
      <line class="cls-4" x1="190.34" y1="203.26" x2="191.84" y2="203.26"/>
      <line class="cls-7" x1="195" y1="203.26" x2="237.66" y2="203.26"/>
      <line class="cls-4" x1="239.24" y1="203.26" x2="240.74" y2="203.26"/>
    </g>
    <g>
      <line class="cls-4" x1="240.74" y1="211.77" x2="239.24" y2="211.77"/>
      <line class="cls-7" x1="236.08" y1="211.77" x2="193.42" y2="211.77"/>
      <line class="cls-4" x1="191.84" y1="211.77" x2="190.34" y2="211.77"/>
    </g>
    <text class="cls-20" transform="translate(277.46 130.89)"><tspan x="0" y="0">Chamb</tspan><tspan class="cls-15" x="19.92" y="0">r</tspan><tspan x="21.71" y="0">e n2</tspan><tspan x="0" y="7.2">12m</tspan></text>
    <text class="cls-20" transform="translate(289.51 136.1) scale(.58)"><tspan x="0" y="0">2</tspan></text>
    <text class="cls-20" transform="translate(291.47 138.09)"><tspan x="0" y="0"> </tspan></text>
    <text class="cls-20" transform="translate(89.2 123.06)"><tspan x="0" y="0">Salon</tspan><tspan x="0" y="7.2">15m</tspan></text>
    <text class="cls-20" transform="translate(101.25 128.26) scale(.58)"><tspan x="0" y="0">2</tspan></text>
    <text class="cls-20" transform="translate(103.21 130.26)"><tspan x="0" y="0"> </tspan></text>
    <text class="cls-20" transform="translate(199.98 132.26)"><tspan x="0" y="0">Cuisine</tspan><tspan x="0" y="7.2">5m</tspan></text>
    <text class="cls-20" transform="translate(208.68 137.46) scale(.58)"><tspan x="0" y="0">2</tspan></text>
    <text class="cls-20" transform="translate(210.64 139.46)"><tspan x="0" y="0"> </tspan></text>
    <text class="cls-20" transform="translate(187.89 281.26)"><tspan x="0" y="0">Salle de bain </tspan><tspan x="0" y="7.2">7m</tspan></text>
    <text class="cls-20" transform="translate(196.58 286.46) scale(.58)"><tspan x="0" y="0">2</tspan></text>
    <text class="cls-20" transform="translate(238.09 281.26)"><tspan x="0" y="0">Rgt</tspan><tspan x="0" y="7.2">1m</tspan></text>
    <text class="cls-20" transform="translate(246.78 286.46) scale(.58)"><tspan x="0" y="0">2</tspan></text>
    <text class="cls-20" transform="translate(248.74 288.46)"><tspan x="0" y="0"> </tspan></text>
    <text class="cls-20" transform="translate(86.32 245.71)"><tspan x="0" y="0">Chamb</tspan><tspan class="cls-15" x="19.92" y="0">r</tspan><tspan x="21.71" y="0">e n1</tspan><tspan x="0" y="7.2">14m</tspan></text>
    <text class="cls-20" transform="translate(98.37 250.91) scale(.58)"><tspan x="0" y="0">2</tspan></text>
    <polygon class="cls-19" points="164.49 213.04 172.99 213.04 172.99 211.77 190.34 211.77 190.34 203.26 67.54 203.26 67.54 91.29 104.13 79.14 106.56 86.4 136.22 76.84 133.27 67.96 164.49 57.59 164.49 76.65 172.99 76.65 172.99 43.91 56.21 84.75 56.21 339.89 97.3 339.89 97.3 331.39 67.54 331.39 67.54 211.77 164.49 211.77 164.49 213.04"/>
  </g>
  <g>
    <circle class="cls-8" cx="348.58" cy="348.56" r="9.92"/>
    <line class="cls-8" x1="348.58" y1="348.64" x2="355.26" y2="355.89"/>
    <line class="cls-3" x1="341.81" y1="341.31" x2="348.58" y2="348.64"/>
  </g>
</svg>