<?xml version="1.0" encoding="UTF-8"?>
<svg id="Calque_12" data-name="Calque 12" xmlns="http://www.w3.org/2000/svg" xmlns:xlink="http://www.w3.org/1999/xlink" viewBox="0 0 396.85 396.85">
  <defs>
    <style>
      .cls-1 {
        stroke-width: 0px;
      }

      .cls-1, .cls-2, .cls-3, .cls-4, .cls-5, .cls-6, .cls-7 {
        fill: none;
      }

      .cls-8 {
        letter-spacing: -.02em;
      }

      .cls-9 {
        font-size: 6.23px;
      }

      .cls-9, .cls-10 {
        fill: #333;
        font-family: Avenir-Medium, Avenir;
        font-weight: 500;
      }

      .cls-2 {
        stroke-width: 2px;
      }

      .cls-2, .cls-11, .cls-5 {
        stroke: #000;
      }

      .cls-2, .cls-11, .cls-5, .cls-7, .cls-12 {
        stroke-miterlimit: 10;
      }

      .cls-13, .cls-3, .cls-4, .cls-6, .cls-14 {
        stroke-linecap: round;
        stroke-linejoin: round;
      }

      .cls-13, .cls-4, .cls-6, .cls-7 {
        stroke: #333;
      }

      .cls-13, .cls-6, .cls-14, .cls-7 {
        stroke-width: .15px;
      }

      .cls-13, .cls-14 {
        fill: #fff;
      }

      .cls-10 {
        font-size: 6.23px;
      }

      .cls-3 {
        stroke: #999;
      }

      .cls-3, .cls-4, .cls-5, .cls-12 {
        stroke-width: .25px;
      }

      .cls-11 {
        fill: #999;
        stroke-width: .5px;
      }

      .cls-15 {
        fill: #000;
        font-family: AvenirNext-UltraLight, 'Avenir Next';
        font-size: 6px;
        font-weight: 100;
      }

      .cls-14, .cls-12 {
        stroke: #666;
      }

      .cls-12 {
        fill: url(#Nouveau_motif_3);
      }
    </style>
    <pattern id="Nouveau_motif_3" data-name="Nouveau motif 3" x="0" y="0" width="89.43" height="96.66" patternTransform="translate(-6081.17 -2680.07) rotate(90) scale(.3)" patternUnits="userSpaceOnUse" viewBox="0 0 89.43 96.66">
      <g>
        <rect class="cls-1" width="89.43" height="96.66"/>
        <g>
          <line class="cls-3" x1="44.72" y1="49.94" x2="44.72" y2="98.37"/>
          <line class="cls-3" x1="89.31" y1="94.94" x2="89.31" y2="143.37"/>
          <line class="cls-3" x1=".12" y1="94.82" x2=".12" y2="143.25"/>
          <line class="cls-3" x1="44.72" y1="49.94" x2=".12" y2="94.82"/>
          <line class="cls-3" x1="44.72" y1="62.1" x2=".12" y2="106.98"/>
          <line class="cls-3" x1="44.72" y1="49.94" x2="89.31" y2="94.82"/>
          <line class="cls-3" x1="44.72" y1="62.06" x2="89.31" y2="106.94"/>
          <g>
            <line class="cls-3" x1="44.72" y1="74.16" x2=".12" y2="119.03"/>
            <line class="cls-3" x1="44.72" y1="74.28" x2="89.31" y2="119.16"/>
          </g>
          <line class="cls-3" x1="44.72" y1="86.16" x2=".12" y2="131.03"/>
          <line class="cls-3" x1="44.72" y1="86.16" x2="89.31" y2="131.03"/>
        </g>
        <g>
          <line class="cls-3" x1="44.72" y1="1.61" x2="44.72" y2="50.05"/>
          <line class="cls-3" x1="89.31" y1="46.61" x2="89.31" y2="95.04"/>
          <line class="cls-3" x1=".12" y1="46.49" x2=".12" y2="94.92"/>
          <line class="cls-3" x1="44.72" y1="1.61" x2=".12" y2="46.49"/>
          <line class="cls-3" x1="44.72" y1="13.77" x2=".12" y2="58.65"/>
          <line class="cls-3" x1="44.72" y1="1.61" x2="89.31" y2="46.49"/>
          <line class="cls-3" x1="44.72" y1="13.73" x2="89.31" y2="58.61"/>
          <g>
            <line class="cls-3" x1="44.72" y1="25.83" x2=".12" y2="70.71"/>
            <line class="cls-3" x1="44.72" y1="25.95" x2="89.31" y2="70.83"/>
          </g>
          <line class="cls-3" x1="44.72" y1="37.83" x2=".12" y2="82.71"/>
          <line class="cls-3" x1="44.72" y1="37.83" x2="89.31" y2="82.71"/>
          <g>
            <line class="cls-3" x1="44.72" y1="50.05" x2=".12" y2="94.92"/>
            <line class="cls-3" x1="44.72" y1="50.05" x2="89.31" y2="94.92"/>
          </g>
        </g>
        <g>
          <line class="cls-3" x1="44.72" y1="-46.72" x2="44.72" y2="1.72"/>
          <line class="cls-3" x1="89.31" y1="-1.72" x2="89.31" y2="46.72"/>
          <line class="cls-3" x1=".12" y1="-1.84" x2=".12" y2="46.59"/>
          <line class="cls-3" x1="44.72" y1="-34.55" x2=".12" y2="10.32"/>
          <line class="cls-3" x1="44.72" y1="-34.59" x2="89.31" y2="10.28"/>
          <g>
            <line class="cls-3" x1="44.72" y1="-22.5" x2=".12" y2="22.38"/>
            <line class="cls-3" x1="44.72" y1="-22.38" x2="89.31" y2="22.5"/>
          </g>
          <line class="cls-3" x1="44.72" y1="-10.5" x2=".12" y2="34.38"/>
          <line class="cls-3" x1="44.72" y1="-10.5" x2="89.31" y2="34.38"/>
          <g>
            <line class="cls-3" x1="44.72" y1="1.72" x2=".12" y2="46.59"/>
            <line class="cls-3" x1="44.72" y1="1.72" x2="89.31" y2="46.59"/>
          </g>
        </g>
      </g>
    </pattern>
  </defs>
  <g>
    <polyline class="cls-12" points="247.8 174.31 164.18 174.31 164.59 57.75 133.37 68.12 136.24 77.02 106.66 86.56 104.23 79.3 67.64 91.45 67.64 203.42 190.43 203.42 190.43 211.93 67.64 211.93 67.64 331.55 147.42 331.55 143.51 323.19 159.44 313.38 164.59 321.74 164.59 239.85 173.09 239.85 173.09 245.94 233.01 245.94 233.01 245.94 253.6 245.74 253.6 212.56 240.84 211.93 241.26 203.42 335.52 203.43 335.52 90.04 251.04 90.04 250.64 175.8 247.8 175.8 247.8 174.31"/>
    <g>
      <line class="cls-7" x1="250.79" y1="89.94" x2="250.79" y2="66.21"/>
      <line class="cls-7" x1="335.26" y1="89.94" x2="335.26" y2="66.21"/>
      <line class="cls-7" x1="250.79" y1="66.21" x2="287.48" y2="66.21"/>
      <line class="cls-7" x1="298.57" y1="66.21" x2="335.26" y2="66.21"/>
      <polyline class="cls-7" points="251.83 64.99 249.57 67.26 249.75 67.44 252.01 65.17 251.83 64.99"/>
      <polyline class="cls-7" points="334.22 67.44 336.49 65.17 336.31 64.99 334.04 67.26 334.22 67.44"/>
      <text class="cls-10" transform="translate(287.22 68.34)"><tspan x="0" y="0">2.98</tspan></text>
    </g>
    <g>
      <line class="cls-7" x1="335.26" y1="89.94" x2="355.55" y2="89.94"/>
      <line class="cls-7" x1="335.26" y1="203.33" x2="355.56" y2="203.33"/>
      <line class="cls-7" x1="355.55" y1="89.94" x2="355.55" y2="141.01"/>
      <line class="cls-7" x1="355.56" y1="152.25" x2="355.56" y2="203.33"/>
      <polyline class="cls-7" points="356.78 90.98 354.51 88.71 354.33 88.89 356.6 91.16 356.78 90.98"/>
      <polyline class="cls-7" points="354.33 202.28 356.6 204.55 356.78 204.37 354.51 202.1 354.33 202.28"/>
      <text class="cls-10" transform="translate(357.66 152.44) rotate(-90)"><tspan x="0" y="0">4.00</tspan></text>
    </g>
    <g>
      <line class="cls-7" x1="172.75" y1="331.43" x2="172.74" y2="358.17"/>
      <line class="cls-7" x1="253.34" y1="331.45" x2="253.34" y2="358.19"/>
      <line class="cls-7" x1="172.74" y1="358.17" x2="207.49" y2="358.18"/>
      <line class="cls-7" x1="218.73" y1="358.18" x2="253.34" y2="358.19"/>
      <polyline class="cls-7" points="173.79 356.95 171.52 359.21 171.7 359.4 173.97 357.13 173.79 356.95"/>
      <polyline class="cls-7" points="252.29 359.41 254.56 357.14 254.38 356.96 252.11 359.23 252.29 359.41"/>
      <text class="cls-10" transform="translate(207.23 360.3) rotate(.01)"><tspan x="0" y="0">2.84</tspan></text>
    </g>
    <g>
      <line class="cls-7" x1="261.85" y1="211.83" x2="283.15" y2="211.83"/>
      <line class="cls-7" x1="261.85" y1="329.41" x2="283.15" y2="329.41"/>
      <line class="cls-7" x1="283.15" y1="211.83" x2="283.15" y2="265"/>
      <line class="cls-7" x1="283.15" y1="276.08" x2="283.15" y2="329.41"/>
      <polyline class="cls-7" points="284.37 212.87 282.11 210.6 281.92 210.78 284.19 213.05 284.37 212.87"/>
      <polyline class="cls-7" points="281.92 328.37 284.19 330.64 284.37 330.46 282.11 328.19 281.92 328.37"/>
      <text class="cls-10" transform="translate(285.18 276.26) rotate(-90)"><tspan x="0" y="0">4.15</tspan></text>
    </g>
    <g>
      <line class="cls-7" x1="164.33" y1="332.55" x2="164.05" y2="357.17"/>
      <line class="cls-7" x1="67.39" y1="331.45" x2="67.11" y2="356.07"/>
      <line class="cls-7" x1="164.05" y1="357.17" x2="121.13" y2="356.68"/>
      <line class="cls-7" x1="110.03" y1="356.56" x2="67.11" y2="356.07"/>
      <polyline class="cls-7" points="163 358.38 165.29 356.14 165.11 355.96 162.82 358.2 163 358.38"/>
      <polyline class="cls-7" points="68.17 354.85 65.87 357.1 66.05 357.28 68.34 355.04 68.17 354.85"/>
      <text class="cls-9" transform="translate(109.77 358.7) rotate(.65)"><tspan x="0" y="0">3.42</tspan></text>
    </g>
    <g>
      <line class="cls-7" x1="67.39" y1="91.35" x2="67.39" y2="36.33"/>
      <line class="cls-7" x1="164.33" y1="91.35" x2="164.33" y2="36.33"/>
      <line class="cls-7" x1="67.39" y1="36.33" x2="110.31" y2="36.33"/>
      <line class="cls-7" x1="121.41" y1="36.33" x2="164.33" y2="36.33"/>
      <polyline class="cls-7" points="68.43 35.11 66.16 37.38 66.35 37.56 68.61 35.29 68.43 35.11"/>
      <polyline class="cls-7" points="163.29 37.56 165.56 35.29 165.38 35.11 163.11 37.38 163.29 37.56"/>
      <text class="cls-10" transform="translate(110.05 38.46)"><tspan x="0" y="0">3.42</tspan></text>
    </g>
    <g>
      <line class="cls-7" x1="172.84" y1="110.73" x2="172.84" y2="66.21"/>
      <line class="cls-7" x1="242.29" y1="110.73" x2="242.29" y2="66.21"/>
      <line class="cls-7" x1="172.84" y1="66.21" x2="202.01" y2="66.21"/>
      <line class="cls-7" x1="213.02" y1="66.21" x2="242.29" y2="66.21"/>
      <polyline class="cls-7" points="173.88 64.99 171.61 67.26 171.79 67.44 174.06 65.17 173.88 64.99"/>
      <polyline class="cls-7" points="241.24 67.44 243.51 65.17 243.33 64.99 241.06 67.26 241.24 67.44"/>
      <text class="cls-10" transform="translate(201.76 68.34)"><tspan x="0" y="0">2.45</tspan></text>
    </g>
    <g>
      <line class="cls-7" x1="59.28" y1="203.32" x2="40.25" y2="203.32"/>
      <line class="cls-7" x1="59.28" y1="91.35" x2="40.25" y2="91.35"/>
      <line class="cls-7" x1="40.25" y1="203.32" x2="40.25" y2="152.89"/>
      <line class="cls-7" x1="40.25" y1="141.88" x2="40.25" y2="91.35"/>
      <polyline class="cls-7" points="39.03 202.28 41.29 204.55 41.48 204.37 39.21 202.1 39.03 202.28"/>
      <polyline class="cls-7" points="41.48 92.4 39.21 90.13 39.03 90.31 41.29 92.58 41.48 92.4"/>
      <text class="cls-10" transform="translate(42.38 153.14) rotate(-90)"><tspan x="0" y="0">3.95</tspan></text>
    </g>
    <g>
      <line class="cls-7" x1="59.28" y1="331.45" x2="40.25" y2="331.45"/>
      <line class="cls-7" x1="59.28" y1="211.83" x2="40.25" y2="211.83"/>
      <line class="cls-7" x1="40.25" y1="331.45" x2="40.25" y2="277.26"/>
      <line class="cls-7" x1="40.25" y1="266.09" x2="40.25" y2="211.83"/>
      <polyline class="cls-7" points="39.03 330.41 41.29 332.67 41.48 332.49 39.21 330.22 39.03 330.41"/>
      <polyline class="cls-7" points="41.48 212.87 39.21 210.6 39.03 210.78 41.29 213.05 41.48 212.87"/>
      <text class="cls-10" transform="translate(42.38 277.44) rotate(-90)"><tspan x="0" y="0">4.22</tspan></text>
    </g>
    <rect class="cls-14" x="172.75" y="248.36" width="17.01" height="82.77"/>
    <path class="cls-14" d="M251.24,323.35c.48-1.88.39-3.52-.28-5.33"/>
    <path class="cls-14" d="M250.96,318.01c-.42-1.31-1.09-2.29-2.15-3.17"/>
    <path class="cls-14" d="M248.81,314.84c-1.07-.96-2.45-1.49-3.88-1.49"/>
    <path class="cls-14" d="M244.93,326.93c2.31,0,4.29-1.66,4.69-3.94"/>
    <path class="cls-14" d="M249.62,322.99c.41-1.56.34-2.92-.23-4.43"/>
    <path class="cls-14" d="M249.39,318.56c-.32-1.02-.84-1.78-1.67-2.46"/>
    <path class="cls-14" d="M247.73,316.1c-.15-.13-.3-.26-.47-.37"/>
    <path class="cls-14" d="M240.24,322.99c.4,2.28,2.38,3.94,4.69,3.94"/>
    <path class="cls-14" d="M240.47,318.56c-.57,1.51-.64,2.87-.23,4.43"/>
    <path class="cls-14" d="M242.14,316.1c-.83.68-1.34,1.44-1.67,2.46"/>
    <path class="cls-14" d="M242.6,315.73c-.16.11-.32.23-.47.37"/>
    <path class="cls-14" d="M238.62,323.35c.04.22.09.43.15.64"/>
    <polyline class="cls-14" points="172.75 248.36 172.75 265.37 189.76 265.37"/>
    <polyline class="cls-14" points="172.75 265.37 172.75 282.38 189.76 282.38"/>
    <polyline class="cls-14" points="172.75 282.38 172.75 299.39 189.76 299.39"/>
    <polyline class="cls-14" points="172.75 299.39 172.75 316.4 189.76 316.4"/>
    <path class="cls-14" d="M244.93,324.26c.05,0,.1-.01.14-.03"/>
    <path class="cls-14" d="M244.1,322.97c-.17.13-.19.25-.08.43"/>
    <path class="cls-14" d="M244.02,323.4c.17.37.41.63.77.83"/>
    <line class="cls-14" x1="241.72" y1="329.05" x2="244.93" y2="329.05"/>
    <path class="cls-14" d="M238.9,318.01c-.67,1.82-.76,3.46-.28,5.33"/>
    <line class="cls-14" x1="240.18" y1="329.1" x2="241.72" y2="329.05"/>
    <line class="cls-14" x1="240.28" y1="329.1" x2="238.77" y2="323.99"/>
    <line class="cls-14" x1="244.28" y1="315.28" x2="244.93" y2="315.28"/>
    <path class="cls-14" d="M244.28,315.28c-.62,0-1.15.14-1.68.46"/>
    <path class="cls-14" d="M244.93,322.68c-.74,0-1.34.6-1.34,1.34s.6,1.34,1.34,1.34"/>
    <path class="cls-14" d="M244.79,324.23s.09.03.14.03"/>
    <path class="cls-14" d="M247.26,315.73c-.54-.31-1.06-.46-1.68-.46"/>
    <path class="cls-14" d="M245.85,323.4c.11-.18.09-.3-.08-.43"/>
    <line class="cls-14" x1="249.69" y1="329.1" x2="248.15" y2="329.05"/>
    <line class="cls-14" x1="249.59" y1="329.1" x2="251.09" y2="323.99"/>
    <line class="cls-14" x1="248.15" y1="329.05" x2="244.93" y2="329.05"/>
    <path class="cls-14" d="M241.05,314.84c-1.06.88-1.73,1.86-2.15,3.17"/>
    <path class="cls-14" d="M244.93,313.36c-1.43,0-2.82.53-3.88,1.49"/>
    <path class="cls-14" d="M244.93,325.36c.74,0,1.34-.6,1.34-1.34s-.6-1.34-1.34-1.34"/>
    <path class="cls-14" d="M245.08,324.23c.36-.2.6-.45.77-.83"/>
    <line class="cls-14" x1="245.58" y1="315.28" x2="244.93" y2="315.28"/>
    <rect class="cls-14" x="235.94" y="329.1" width="16.52" height="2.03"/>
    <rect class="cls-14" x="167.01" y="119.13" width="17.56" height="52.34"/>
    <rect class="cls-14" x="213.96" y="160.71" width="19.82" height="10.76"/>
    <rect class="cls-14" x="168.34" y="124.36" width="14.83" height="45.39" rx="7.42" ry="7.42"/>
    <rect class="cls-6" x="308.31" y="87" width="1.57" height="2.83"/>
    <line class="cls-6" x1="308.31" y1="88.42" x2="277.44" y2="88.42"/>
    <line class="cls-6" x1="172.68" y1="76.61" x2="172.68" y2="110.63"/>
    <line class="cls-6" x1="275.86" y1="82.75" x2="309.88" y2="82.75"/>
    <line class="cls-6" x1="165.6" y1="109.06" x2="165.6" y2="78.19"/>
    <rect class="cls-6" x="164.18" y="109.06" width="2.83" height="1.57"/>
    <rect class="cls-6" x="164.18" y="76.61" width="2.83" height="1.57"/>
    <line class="cls-6" x1="167.01" y1="110.63" x2="167.01" y2="76.61"/>
    <line class="cls-6" x1="164.18" y1="110.63" x2="164.18" y2="76.61"/>
    <line class="cls-6" x1="96.99" y1="339.85" x2="131.01" y2="339.85"/>
    <line class="cls-6" x1="131.01" y1="331.35" x2="96.99" y2="331.35"/>
    <line class="cls-6" x1="131.01" y1="334.18" x2="96.99" y2="334.18"/>
    <rect class="cls-6" x="96.99" y="331.35" width="1.57" height="2.83"/>
    <rect class="cls-6" x="129.43" y="331.35" width="1.57" height="2.83"/>
    <line class="cls-6" x1="129.43" y1="332.77" x2="98.56" y2="332.77"/>
    <line class="cls-6" x1="184.57" y1="339.85" x2="218.59" y2="339.85"/>
    <line class="cls-6" x1="218.59" y1="331.35" x2="184.57" y2="331.35"/>
    <line class="cls-6" x1="218.59" y1="334.18" x2="184.57" y2="334.18"/>
    <rect class="cls-6" x="184.57" y="331.35" width="1.57" height="2.83"/>
    <rect class="cls-6" x="217.02" y="331.35" width="1.57" height="2.83"/>
    <line class="cls-6" x1="217.02" y1="332.77" x2="186.15" y2="332.77"/>
    <line class="cls-6" x1="191.82" y1="110.63" x2="225.83" y2="110.63"/>
    <line class="cls-6" x1="225.83" y1="119.13" x2="191.82" y2="119.13"/>
    <line class="cls-6" x1="225.83" y1="116.3" x2="191.82" y2="116.3"/>
    <rect class="cls-6" x="191.82" y="116.3" width="1.57" height="2.83"/>
    <rect class="cls-6" x="224.26" y="116.3" width="1.57" height="2.83"/>
    <line class="cls-6" x1="224.26" y1="117.72" x2="193.39" y2="117.72"/>
    <line class="cls-6" x1="309.88" y1="89.84" x2="275.86" y2="89.84"/>
    <line class="cls-6" x1="309.88" y1="87" x2="275.86" y2="87"/>
    <rect class="cls-6" x="275.86" y="87" width="1.57" height="2.83"/>
    <rect class="cls-13" x="200.39" y="331.35" width="1.57" height="2.83"/>
    <rect class="cls-13" x="113.22" y="331.35" width="1.57" height="2.83"/>
    <rect class="cls-13" x="208.04" y="116.3" width="1.57" height="2.83"/>
    <rect class="cls-13" x="292.09" y="87.05" width="1.57" height="2.83"/>
    <rect class="cls-13" x="164.19" y="92.05" width="2.83" height="1.57"/>
    <line class="cls-4" x1="247.8" y1="201.59" x2="277.47" y2="201.59"/>
    <line class="cls-4" x1="253.05" y1="245.74" x2="253.05" y2="268.52"/>
    <path class="cls-4" d="M253.05,268.52c-13.64,0-20.45-7.59-20.45-22.77"/>
    <line class="cls-4" x1="184.96" y1="173.56" x2="184.96" y2="147.86"/>
    <path class="cls-4" d="M184.96,147.86c15.38,0,23.08,8.56,23.08,25.69"/>
    <path class="cls-4" d="M277.47,201.59c0-17.76-9.89-26.65-29.67-26.65"/>
    <line class="cls-4" x1="183.17" y1="201.59" x2="153.5" y2="201.59"/>
    <path class="cls-4" d="M153.5,201.59c0-17.76,9.89-26.65,29.67-26.65"/>
    <path class="cls-4" d="M143.02,213c0,17.76,9.89,26.65,29.67,26.65"/>
    <line class="cls-4" x1="172.68" y1="213" x2="143.02" y2="213"/>
    <path class="cls-4" d="M232.02,213c0,17.76,9.89,26.65,29.67,26.65"/>
    <line class="cls-4" x1="261.69" y1="213" x2="232.02" y2="213"/>
    <polygon class="cls-11" points="309.88 82.75 343.61 82.75 343.61 211.73 250.64 211.73 240.43 211.73 240.43 203.22 250.64 203.22 335.11 203.22 335.11 89.84 309.88 89.84 309.88 82.75"/>
    <rect class="cls-11" x="253.19" y="211.73" width="8.5" height="1.27"/>
    <line class="cls-11" x1="172.68" y1="76.61" x2="164.18" y2="76.61"/>
    <polygon class="cls-11" points="250.64 119.13 250.64 175.8 247.8 175.8 247.8 174.31 208.04 174.31 208.04 171.47 247.8 171.47 247.8 119.13 250.64 119.13"/>
    <line class="cls-11" x1="183.17" y1="175.69" x2="183.17" y2="174.31"/>
    <line class="cls-11" x1="180.34" y1="175.69" x2="180.34" y2="174.31"/>
    <line class="cls-11" x1="183.17" y1="175.69" x2="180.34" y2="175.69"/>
    <polygon class="cls-11" points="167.01 119.13 167.01 171.47 184.96 171.47 184.96 174.31 178.92 174.31 164.18 174.31 164.18 119.13 167.01 119.13"/>
    <line class="cls-11" x1="96.99" y1="331.35" x2="96.99" y2="339.85"/>
    <line class="cls-11" x1="170.7" y1="86.15" x2="170.7" y2="85.92"/>
    <polygon class="cls-11" points="275.86 89.84 250.64 89.84 250.64 119.13 225.83 119.13 225.83 110.63 242.13 110.63 242.13 82.75 250.64 82.75 275.86 82.75 275.86 89.84"/>
    <rect class="cls-11" x="164.18" y="110.63" width="27.64" height="8.5"/>
    <rect class="cls-11" x="247.8" y="202.46" width="2.83" height=".77"/>
    <polygon class="cls-11" points="164.18 213 172.68 213 172.68 211.73 190.03 211.73 190.03 203.22 67.23 203.22 67.23 91.26 103.82 79.1 106.25 86.36 135.91 76.8 132.96 67.92 164.18 57.55 164.18 76.61 172.68 76.61 172.68 43.87 55.9 84.71 55.9 339.85 96.99 339.85 96.99 331.35 67.23 331.35 67.23 211.73 164.18 211.73 164.18 213"/>
    <polyline class="cls-11" points="229.38 248.58 228.99 248.58 228.99 245.74 232.6 245.74 232.6 248.58 232.21 248.58"/>
    <rect class="cls-11" x="172.68" y="245.74" width="29.72" height="2.83"/>
    <polyline class="cls-11" points="253.05 248.58 253.19 248.58 253.19 331.35 218.59 331.35 218.59 339.85 261.69 339.85 261.69 239.65 253.19 239.65 253.19 321.43"/>
    <polygon class="cls-11" points="148.25 331.35 131.01 331.35 131.01 339.85 170.13 339.85 184.57 339.85 184.57 331.35 172.68 331.35 172.68 239.65 164.18 239.65 164.18 321.54 148.25 331.35"/>
    <text class="cls-15" transform="translate(78.6 128.9)"><tspan x="0" y="0">Chamb</tspan><tspan class="cls-8" x="19.92" y="0">r</tspan><tspan x="21.71" y="0">e n°1</tspan><tspan x="0" y="7.2">15m</tspan></text>
    <text class="cls-15" transform="translate(90.65 134.1) scale(.58)"><tspan x="0" y="0">2 </tspan></text>
    <text class="cls-15" transform="translate(191.38 138.09)"><tspan x="0" y="0">Salle de bain </tspan><tspan x="0" y="7.2">5m</tspan></text>
    <text class="cls-15" transform="translate(200.07 143.3) scale(.58)"><tspan x="0" y="0">2 </tspan></text>
    <text class="cls-15" transform="translate(180.28 287.1)"><tspan x="0" y="0">Cuisine</tspan><tspan x="0" y="7.2">6m</tspan></text>
    <text class="cls-15" transform="translate(188.98 292.3) scale(.58)"><tspan x="0" y="0">2</tspan></text>
    <text class="cls-15" transform="translate(190.94 294.3)"><tspan x="0" y="0"> </tspan></text>
    <text class="cls-15" transform="translate(234.48 287.1)"><tspan x="0" y="0">WC</tspan><tspan x="0" y="7.2">2m</tspan></text>
    <text class="cls-15" transform="translate(243.18 292.3) scale(.58)"><tspan x="0" y="0">2</tspan></text>
    <text class="cls-15" transform="translate(281.1 136.73)"><tspan x="0" y="0">Chamb</tspan><tspan class="cls-8" x="19.92" y="0">r</tspan><tspan x="21.71" y="0">e n°2</tspan><tspan x="0" y="7.2">12m</tspan></text>
    <text class="cls-15" transform="translate(293.15 141.93) scale(.58)"><tspan x="0" y="0">2</tspan></text>
    <text class="cls-15" transform="translate(295.11 143.93)"><tspan x="0" y="0"> </tspan></text>
    <text class="cls-15" transform="translate(76.59 271.33)"><tspan x="0" y="0">Salon</tspan><tspan x="0" y="7.2">14m</tspan></text>
    <text class="cls-15" transform="translate(88.65 276.53) scale(.58)"><tspan x="0" y="0">2</tspan></text>
    <text class="cls-15" transform="translate(90.6 278.53)"><tspan x="0" y="0"> </tspan></text>
    <polyline class="cls-11" points="232.02 248.58 232.02 331.35 229.38 331.35 229.38 248.58"/>
  </g>
  <g>
    <circle class="cls-5" cx="348.58" cy="348.56" r="9.92"/>
    <line class="cls-5" x1="348.58" y1="348.64" x2="355.26" y2="355.89"/>
    <line class="cls-2" x1="341.81" y1="341.31" x2="348.58" y2="348.64"/>
  </g>
</svg>